<svg width="131" height="38" viewBox="0 0 131 38" fill="none" xmlns="http://www.w3.org/2000/svg">
<g filter="url(#filter0_d_4566_2398)">
<path d="M2.02869 31.2777L2.56147 3.12567C2.57694 2.30845 3.24384 1.65405 4.0612 1.65405H15.6402L37.5229 2.29943L55.3823 1.92296L79.3257 1.65405H101.11L124.551 1.90695C125.373 1.91582 126.035 2.58475 126.035 3.40687V32.005C126.035 32.6651 125.603 33.2476 124.972 33.4399L124.498 33.5843C124.346 33.6305 124.188 33.6524 124.029 33.6491L82.9565 32.7935L41.1536 33.1162L3.51606 32.806C2.68139 32.7992 2.01289 32.1123 2.02869 31.2777Z" fill="white"/>
</g>
<path d="M2 1.70413C22.6743 1.70413 22.6743 2.16199 43.3377 2.16199C64.012 2.16199 64.012 1.65405 84.6863 1.65405C105.361 1.65405 105.361 2.06899 126.035 2.06899" stroke="black" stroke-width="3" stroke-miterlimit="10" stroke-linecap="round" stroke-linejoin="round"/>
<path d="M2 33.3525C22.6743 33.3525 22.6743 33.3048 43.3377 33.3048C64.012 33.3048 64.012 33.1461 84.6863 33.1461C105.361 33.1461 105.361 33.6541 126.035 33.6541" stroke="black" stroke-width="3" stroke-miterlimit="10" stroke-linecap="round" stroke-linejoin="round"/>
<path d="M126.951 33.4913C127.21 33.3432 126.351 1.77502 126.351 1.77502C126.351 1.77502 125.92 33.1934 126.065 33.4913C126.21 33.7891 126.744 33.6097 126.951 33.4913Z" stroke="black" stroke-width="3" stroke-miterlimit="10" stroke-linecap="round" stroke-linejoin="round"/>
<path d="M2.05548 33.3703C1.76106 33.2222 2.73905 1.65405 2.73905 1.65405C2.73905 1.65405 3.23003 33.0724 3.06456 33.3703C2.89908 33.6682 2.29102 33.4887 2.05548 33.3703Z" stroke="black" stroke-width="3" stroke-miterlimit="10" stroke-linecap="round" stroke-linejoin="round"/>
<path d="M27.5371 23.6465C27.5371 22.7871 27.5944 21.9349 27.709 21.0898C27.8236 20.2448 27.9238 19.3997 28.0098 18.5547C28.0098 18.5117 28.0169 18.4186 28.0312 18.2754C28.0456 18.1178 28.0599 17.9531 28.0742 17.7812C28.1029 17.6094 28.1243 17.4518 28.1387 17.3086C28.1673 17.151 28.1816 17.0508 28.1816 17.0078V16.9219L29.084 10.2188C29.0553 9.93229 29.0983 9.68164 29.2129 9.4668C29.3418 9.23763 29.571 9.12305 29.9004 9.12305C30.2585 9.08008 30.5521 9.13021 30.7812 9.27344C31.0247 9.40234 31.2253 9.57422 31.3828 9.78906C31.5404 10.0039 31.6693 10.2402 31.7695 10.498C31.8698 10.7559 31.9772 10.9922 32.0918 11.207C32.1634 11.4076 32.2493 11.6439 32.3496 11.916C32.4642 12.1882 32.5931 12.5319 32.7363 12.9473C32.8939 13.3626 33.0729 13.8711 33.2734 14.4727C33.4883 15.0742 33.7318 15.8047 34.0039 16.6641L34.0898 16.75C34.1901 16.6927 34.3763 16.5996 34.6484 16.4707C34.9349 16.3418 35.2285 16.2057 35.5293 16.0625C35.8444 15.9193 36.138 15.7832 36.4102 15.6543C36.6823 15.5254 36.8757 15.4395 36.9902 15.3965C37.0046 15.3678 37.0404 15.3464 37.0977 15.332C37.1693 15.3034 37.2194 15.2819 37.248 15.2676H37.291C37.4342 15.2676 37.5417 15.3249 37.6133 15.4395C37.6849 15.5397 37.7207 15.64 37.7207 15.7402C37.7207 15.8978 37.6849 16.0339 37.6133 16.1484C37.5417 16.263 37.4557 16.3704 37.3555 16.4707C37.2695 16.5566 37.1693 16.6426 37.0547 16.7285C36.9544 16.8145 36.8757 16.9076 36.8184 17.0078L34.6914 18.082C34.6341 18.1536 34.6055 18.2109 34.6055 18.2539C34.6055 18.3685 34.6628 18.5475 34.7773 18.791C34.9062 19.0345 35.0065 19.2279 35.0781 19.3711C35.1211 19.457 35.1927 19.6146 35.293 19.8438C35.3932 20.0729 35.5007 20.3092 35.6152 20.5527C35.7298 20.7962 35.8372 21.0326 35.9375 21.2617C36.0521 21.4766 36.1309 21.627 36.1738 21.7129V21.7773C36.1738 22.293 35.916 22.5508 35.4004 22.5508C35.2428 22.5508 35.0781 22.5365 34.9062 22.5078C34.7344 22.4648 34.6055 22.3574 34.5195 22.1855L33.0801 19.1133H32.8867C32.3424 19.5286 31.7624 19.9368 31.1465 20.3379C30.5306 20.7389 29.9004 21.0827 29.2559 21.3691C29.1556 21.8848 29.0911 22.4076 29.0625 22.9375C29.0482 23.4674 29.0553 23.9974 29.084 24.5273C28.9694 24.6849 28.8548 24.8066 28.7402 24.8926C28.6257 24.9642 28.4681 25 28.2676 25C28.0671 25 27.9167 24.957 27.8164 24.8711C27.7161 24.7708 27.6445 24.6562 27.6016 24.5273C27.5586 24.3841 27.5371 24.2337 27.5371 24.0762C27.5371 23.9186 27.5371 23.7754 27.5371 23.6465ZM29.4492 19.4785C29.8789 19.3066 30.2943 19.0775 30.6953 18.791C31.1107 18.5046 31.5046 18.2396 31.877 17.9961C31.9199 17.9674 31.9701 17.9388 32.0273 17.9102C32.099 17.8815 32.1634 17.8457 32.2207 17.8027C32.278 17.7598 32.3496 17.7096 32.4355 17.6523V17.4805L30.459 11.8516L30.373 11.7656C30.3301 11.8516 30.2728 12.0951 30.2012 12.4961C30.1439 12.8971 30.0723 13.4199 29.9863 14.0645C29.9147 14.6947 29.8288 15.4251 29.7285 16.2559C29.6426 17.0866 29.5495 17.9746 29.4492 18.9199V19.4785ZM38.4941 17.8242V17.7812C38.4941 17.6667 38.5299 17.5521 38.6016 17.4375C38.6875 17.3086 38.7734 17.2012 38.8594 17.1152V16.0195C38.8594 14.8307 38.8379 13.6706 38.7949 12.5391C38.7663 11.4076 38.6947 10.2402 38.5801 9.03711C38.5801 8.85091 38.6445 8.71484 38.7734 8.62891C38.9023 8.52865 39.0384 8.47852 39.1816 8.47852C39.5827 8.4069 39.8835 8.5 40.084 8.75781C40.2988 9.01562 40.4492 9.36654 40.5352 9.81055C40.6211 10.2546 40.6641 10.7559 40.6641 11.3145C40.6641 11.8587 40.6497 12.3887 40.6211 12.9043C40.6068 13.4199 40.5996 13.8783 40.5996 14.2793C40.5996 14.6803 40.6497 14.9525 40.75 15.0957C40.9362 15.0241 41.0293 14.9954 41.0293 15.0098C41.0436 15.0098 41.0436 15.0169 41.0293 15.0312C41.0293 15.0312 41.0436 15.0169 41.0723 14.9883C41.1152 14.9453 41.2513 14.8379 41.4805 14.666C41.7956 14.4225 42.1608 14.2721 42.5762 14.2148C43.0059 14.1432 43.4069 14.1074 43.7793 14.1074C44.653 14.2363 45.2617 14.5085 45.6055 14.9238C45.9492 15.3249 46.0996 15.8262 46.0566 16.4277C46.0137 17.015 45.806 17.6738 45.4336 18.4043C45.0755 19.1204 44.6243 19.8652 44.0801 20.6387C43.5358 21.3978 42.9342 22.1569 42.2754 22.916C41.6165 23.6608 40.9792 24.3626 40.3633 25.0215C40.2344 25.0215 40.084 25 39.9121 24.957C39.7546 24.9141 39.6042 24.8496 39.4609 24.7637C39.3177 24.6777 39.196 24.5703 39.0957 24.4414C38.9954 24.3125 38.9453 24.1621 38.9453 23.9902V18.3828L38.4941 17.8242ZM40.75 19.4785C40.75 19.5215 40.75 19.6217 40.75 19.7793C40.7643 19.9368 40.7786 20.1087 40.793 20.2949C40.8073 20.4668 40.8145 20.6315 40.8145 20.7891C40.8288 20.9466 40.8359 21.0469 40.8359 21.0898C40.8359 21.1328 40.8359 21.2116 40.8359 21.3262C40.8359 21.4264 40.8359 21.541 40.8359 21.6699C40.8503 21.7845 40.8574 21.8991 40.8574 22.0137C40.8574 22.1139 40.8574 22.1855 40.8574 22.2285C41.015 22.1999 41.237 21.9993 41.5234 21.627C41.8099 21.2546 42.1035 20.8249 42.4043 20.3379C42.7051 19.8366 42.9844 19.3353 43.2422 18.834C43.5 18.3327 43.6934 17.9388 43.8223 17.6523C43.8796 17.5091 43.9368 17.3372 43.9941 17.1367C44.0514 16.9362 44.0872 16.7357 44.1016 16.5352C44.1302 16.3203 44.1159 16.127 44.0586 15.9551C44.0156 15.7832 43.9154 15.6471 43.7578 15.5469C43.5 15.5469 43.2207 15.6113 42.9199 15.7402C42.6335 15.8691 42.347 16.0339 42.0605 16.2344C41.7884 16.4349 41.5378 16.6569 41.3086 16.9004C41.0938 17.1296 40.9362 17.3516 40.8359 17.5664C40.8216 17.638 40.8073 17.7669 40.793 17.9531C40.793 18.125 40.7858 18.3112 40.7715 18.5117C40.7715 18.7122 40.7643 18.9056 40.75 19.0918C40.75 19.278 40.75 19.4069 40.75 19.4785ZM46.7441 21.7129L47.5391 16.1914C47.5677 16.0052 47.6465 15.8691 47.7754 15.7832C47.9186 15.6973 48.0762 15.6543 48.248 15.6543C48.5632 15.6543 48.8138 15.7474 49 15.9336C49.1862 16.1055 49.3438 16.3203 49.4727 16.5781H49.4941C49.666 16.5781 49.8164 16.5495 49.9453 16.4922C50.0885 16.4206 50.2604 16.3848 50.4609 16.3848C50.9193 16.3848 51.306 16.528 51.6211 16.8145C51.9505 17.1009 52.2155 17.4518 52.416 17.8672C52.6165 18.2682 52.7598 18.7051 52.8457 19.1777C52.946 19.6504 52.9961 20.0658 52.9961 20.4238C52.9961 20.8535 52.8815 21.3333 52.6523 21.8633C52.4375 22.3932 52.1439 22.8945 51.7715 23.3672C51.4134 23.8398 51.0052 24.2337 50.5469 24.5488C50.0885 24.8639 49.623 25.0215 49.1504 25.0215C48.7207 25.0215 48.3483 24.9212 48.0332 24.7207C47.7324 24.5202 47.4818 24.2695 47.2812 23.9688C47.0951 23.6536 46.959 23.3027 46.873 22.916C46.7871 22.5293 46.7441 22.1497 46.7441 21.7773V21.7129ZM48.5488 21.8418C48.5775 21.985 48.6061 22.1497 48.6348 22.3359C48.6634 22.5221 48.7064 22.694 48.7637 22.8516C48.821 22.9948 48.8997 23.1094 49 23.1953C49.1146 23.2669 49.2721 23.2669 49.4727 23.1953C49.6589 23.0234 49.8594 22.8301 50.0742 22.6152C50.2891 22.4004 50.4896 22.1712 50.6758 21.9277C50.8763 21.6842 51.041 21.4264 51.1699 21.1543C51.2988 20.8822 51.3633 20.5957 51.3633 20.2949C51.4206 19.8079 51.3848 19.3639 51.2559 18.9629C51.127 18.5475 50.9408 18.2539 50.6973 18.082C50.4681 17.8958 50.2031 17.8743 49.9023 18.0176C49.6016 18.1465 49.3008 18.5117 49 19.1133C48.8281 19.4857 48.7064 19.9225 48.6348 20.4238C48.5775 20.9108 48.5488 21.362 48.5488 21.7773V21.8418ZM58.1953 22.959C58.0951 23.1738 57.9948 23.4102 57.8945 23.668C57.7943 23.9115 57.6797 24.1335 57.5508 24.334C57.4219 24.5345 57.2643 24.7064 57.0781 24.8496C56.8919 24.9785 56.6556 25.043 56.3691 25.043C55.8678 25.043 55.4525 24.9212 55.123 24.6777C54.7936 24.4199 54.5215 24.1048 54.3066 23.7324C54.1061 23.3457 53.9629 22.9303 53.877 22.4863C53.791 22.0423 53.748 21.627 53.748 21.2402L53.9199 16.041C53.9056 15.9408 53.9271 15.8405 53.9844 15.7402C54.056 15.6257 54.1419 15.5254 54.2422 15.4395C54.3568 15.3392 54.4785 15.2604 54.6074 15.2031C54.7507 15.1458 54.8796 15.1172 54.9941 15.1172C55.3236 15.1172 55.6029 15.2246 55.832 15.4395C56.0612 15.64 56.1758 15.9049 56.1758 16.2344V16.4492C56.0182 16.707 55.8822 17.0436 55.7676 17.459C55.653 17.8743 55.5599 18.3255 55.4883 18.8125C55.431 19.2852 55.3952 19.7721 55.3809 20.2734C55.3665 20.7747 55.3809 21.2331 55.4238 21.6484C55.4811 22.0638 55.5671 22.4219 55.6816 22.7227C55.7962 23.0091 55.9466 23.181 56.1328 23.2383C56.2044 23.2383 56.3118 23.2025 56.4551 23.1309C56.6126 23.0592 56.7773 22.9232 56.9492 22.7227C57.1211 22.5221 57.3001 22.2428 57.4863 21.8848C57.6725 21.5124 57.8372 21.0254 57.9805 20.4238C58.1237 19.8223 58.2311 19.0918 58.3027 18.2324C58.3743 17.373 58.3958 16.3418 58.3672 15.1387C58.4245 14.9811 58.5033 14.8952 58.6035 14.8809C58.7181 14.8665 58.8327 14.8594 58.9473 14.8594C59.0762 14.8594 59.1836 14.8665 59.2695 14.8809C59.3555 14.8809 59.4486 14.931 59.5488 15.0312C59.6204 15.1029 59.6992 15.2103 59.7852 15.3535C59.8711 15.4967 59.9141 15.5755 59.9141 15.5898L60.2793 25.1074C60.2793 25.3223 60.222 25.5013 60.1074 25.6445C59.9928 25.7878 59.8281 25.8594 59.6133 25.8594C59.5417 25.8594 59.4557 25.8522 59.3555 25.8379C59.2552 25.8236 59.1549 25.7949 59.0547 25.752C58.9544 25.709 58.8613 25.6517 58.7754 25.5801C58.7038 25.5228 58.6608 25.4512 58.6465 25.3652L58.2812 23.2168L58.1953 22.959ZM63.5234 18.7266C63.3229 18.7266 63.1439 18.7767 62.9863 18.877C62.8288 18.9772 62.6426 19.0273 62.4277 19.0273C62.3991 19.0273 62.3203 19.0273 62.1914 19.0273C62.0768 19.013 62.0052 19.0059 61.9766 19.0059C61.9193 18.9342 61.8548 18.877 61.7832 18.834C61.7116 18.791 61.64 18.748 61.5684 18.7051C61.4967 18.6478 61.4323 18.5833 61.375 18.5117C61.332 18.4401 61.3105 18.3398 61.3105 18.2109C61.3105 17.9961 61.3965 17.8242 61.5684 17.6953C61.7402 17.5521 61.9408 17.4303 62.1699 17.3301C62.3991 17.2298 62.6283 17.1367 62.8574 17.0508C63.1009 16.9648 63.2943 16.8646 63.4375 16.75V15.8047C63.4375 14.7448 63.3874 13.6849 63.2871 12.625C63.1868 11.5508 63.1367 10.4909 63.1367 9.44531C63.1367 9.15885 63.2083 8.97266 63.3516 8.88672C63.4948 8.80078 63.6882 8.75781 63.9316 8.75781C64.2181 8.75781 64.4258 8.84375 64.5547 9.01562C64.6979 9.17318 64.7982 9.3737 64.8555 9.61719C64.9128 9.84635 64.9414 10.097 64.9414 10.3691C64.9414 10.627 64.9486 10.849 64.9629 11.0352C64.9629 11.2214 64.9772 11.5508 65.0059 12.0234C65.0345 12.4961 65.0632 12.9974 65.0918 13.5273C65.1204 14.0573 65.1491 14.5586 65.1777 15.0312C65.2064 15.5039 65.2279 15.8333 65.2422 16.0195C65.2995 16.0052 65.4069 15.9694 65.5645 15.9121C65.7363 15.8405 65.9154 15.776 66.1016 15.7188C66.2878 15.6471 66.4596 15.5827 66.6172 15.5254C66.7891 15.4681 66.9108 15.4251 66.9824 15.3965C67.3548 15.2389 67.7415 15.0671 68.1426 14.8809C68.5436 14.6803 68.9518 14.5801 69.3672 14.5801C69.6536 14.5801 69.8685 14.6803 70.0117 14.8809C70.1693 15.0671 70.248 15.2891 70.248 15.5469C70.248 15.7331 70.1764 15.8691 70.0332 15.9551C69.89 16.041 69.7396 16.1198 69.582 16.1914L65.6719 17.6523C65.6289 17.681 65.5859 17.7096 65.543 17.7383C65.5 17.7526 65.457 17.7812 65.4141 17.8242V18.5117C65.4141 19.013 65.4212 19.5358 65.4355 20.0801C65.4642 20.61 65.5143 21.1257 65.5859 21.627C65.6576 22.0566 65.7363 22.4792 65.8223 22.8945C65.9082 23.3099 65.9512 23.7324 65.9512 24.1621C65.9512 24.291 65.9082 24.4629 65.8223 24.6777C65.7363 24.8926 65.6003 25 65.4141 25C65.0273 25 64.7122 24.8854 64.4688 24.6562C64.2253 24.4271 64.0892 24.1191 64.0605 23.7324C63.9889 22.9876 63.9102 22.1712 63.8242 21.2832C63.7526 20.3952 63.681 19.543 63.6094 18.7266H63.5234ZM79.9805 24.3555C79.9518 22.7656 79.9089 21.1829 79.8516 19.6074C79.8086 18.0176 79.7871 16.4277 79.7871 14.8379C79.7871 14.7233 79.7871 14.5228 79.7871 14.2363C79.7871 13.9355 79.7871 13.6204 79.7871 13.291C79.8014 12.9616 79.8086 12.6536 79.8086 12.3672C79.8086 12.0807 79.8086 11.8802 79.8086 11.7656C79.8659 11.5365 79.9518 11.3574 80.0664 11.2285C80.181 11.0853 80.36 11.0137 80.6035 11.0137C80.847 11.0137 81.0618 11.0924 81.248 11.25C81.4342 11.3932 81.5846 11.5651 81.6992 11.7656L84.793 17.7383C84.8073 17.7669 84.8574 17.8529 84.9434 17.9961C85.0293 18.1393 85.0938 18.2396 85.1367 18.2969C85.151 18.3112 85.1725 18.3255 85.2012 18.3398C85.2298 18.3542 85.2441 18.3685 85.2441 18.3828L85.3301 18.1895L87.1562 11.7656C87.2852 11.5651 87.3783 11.3431 87.4355 11.0996C87.5072 10.8418 87.5788 10.5911 87.6504 10.3477C87.7363 10.1042 87.8366 9.875 87.9512 9.66016C88.0801 9.44531 88.2663 9.26628 88.5098 9.12305H88.6816C89.0684 9.12305 89.3548 9.23763 89.541 9.4668C89.7272 9.68164 89.8561 9.95378 89.9277 10.2832C89.9993 10.5983 90.028 10.9349 90.0137 11.293C90.0137 11.6367 90.0208 11.9375 90.0352 12.1953C90.0352 12.2956 90.0423 12.4889 90.0566 12.7754C90.0853 13.0618 90.1139 13.3984 90.1426 13.7852C90.1712 14.1719 90.1999 14.5872 90.2285 15.0312C90.2572 15.4609 90.2786 15.8691 90.293 16.2559C90.3216 16.6426 90.3431 16.9792 90.3574 17.2656C90.3861 17.5521 90.4004 17.7383 90.4004 17.8242V17.9102C90.4147 18.0391 90.4434 18.2539 90.4863 18.5547C90.5293 18.8555 90.5723 19.1777 90.6152 19.5215C90.6725 19.8509 90.7227 20.166 90.7656 20.4668C90.8086 20.7676 90.8444 20.9753 90.873 21.0898C90.8874 21.1615 90.9089 21.2689 90.9375 21.4121C90.9805 21.5553 91.0234 21.7129 91.0664 21.8848C91.1237 22.0423 91.1738 22.1927 91.2168 22.3359C91.2598 22.4792 91.2956 22.5794 91.3242 22.6367C91.2669 22.9661 91.181 23.224 91.0664 23.4102C90.9661 23.582 90.737 23.668 90.3789 23.668C90.3359 23.668 90.2715 23.668 90.1855 23.668C90.0996 23.6536 90.0495 23.6465 90.0352 23.6465C89.9922 23.6178 89.9062 23.5462 89.7773 23.4316C89.6628 23.3171 89.5983 23.2383 89.584 23.1953L89.2402 22.0137L88.5957 17.1152V16.9219C88.5814 16.6641 88.5742 16.3919 88.5742 16.1055C88.5742 15.8047 88.5671 15.5039 88.5527 15.2031C88.5527 14.9023 88.5384 14.6016 88.5098 14.3008C88.4811 14 88.4238 13.7207 88.3379 13.4629L88.2305 13.5918L86.6836 19.8223C86.6693 19.9798 86.6549 20.1517 86.6406 20.3379C86.6263 20.5098 86.5905 20.6816 86.5332 20.8535C86.4759 21.0111 86.39 21.1471 86.2754 21.2617C86.1608 21.3763 85.9961 21.4408 85.7812 21.4551C85.6953 21.4694 85.6022 21.4551 85.502 21.4121C85.4017 21.3691 85.3014 21.3118 85.2012 21.2402C85.1009 21.1686 85.0078 21.0898 84.9219 21.0039C84.8503 20.9036 84.8073 20.8105 84.793 20.7246L82.0645 16.3848L81.6133 15.4824V17.3301C81.6133 18.2038 81.6276 19.0632 81.6562 19.9082C81.6992 20.7389 81.7207 21.5911 81.7207 22.4648C81.7207 22.5365 81.7207 22.6654 81.7207 22.8516C81.7207 23.0234 81.7135 23.2096 81.6992 23.4102C81.6992 23.6107 81.6992 23.804 81.6992 23.9902C81.6992 24.1621 81.6992 24.2839 81.6992 24.3555C81.6419 24.5273 81.556 24.6777 81.4414 24.8066C81.3411 24.9355 81.1908 25 80.9902 25C80.7181 25 80.5033 24.957 80.3457 24.8711C80.2025 24.7708 80.0807 24.599 79.9805 24.3555ZM101.293 18.8984C101.264 19.1562 101.229 19.3568 101.186 19.5C101.157 19.6432 101.1 19.7721 101.014 19.8867C100.928 20.0013 100.806 20.123 100.648 20.252C100.491 20.3665 100.276 20.5384 100.004 20.7676C99.7318 20.9824 99.3952 21.2689 98.9941 21.627C98.5931 21.985 98.1061 22.4505 97.5332 23.0234C97.304 23.2383 97.0677 23.4603 96.8242 23.6895C96.5807 23.9186 96.3229 24.1263 96.0508 24.3125C95.793 24.4844 95.5208 24.6276 95.2344 24.7422C94.9479 24.8568 94.6471 24.9141 94.332 24.9141C93.7161 24.9141 93.265 24.7064 92.9785 24.291C92.6921 23.8757 92.5488 23.3958 92.5488 22.8516C92.5488 22.4935 92.556 22.1927 92.5703 21.9492C92.599 21.7057 92.6562 21.3906 92.7422 21.0039C92.5846 20.8607 92.4486 20.7389 92.334 20.6387C92.2194 20.5241 92.1621 20.3737 92.1621 20.1875C92.1621 20.0156 92.1979 19.901 92.2695 19.8438C92.3555 19.7865 92.4486 19.7507 92.5488 19.7363C92.6634 19.7077 92.7708 19.679 92.8711 19.6504C92.9714 19.6217 93.043 19.5645 93.0859 19.4785C93.1146 19.3926 93.1647 19.235 93.2363 19.0059C93.3223 18.7767 93.4082 18.5404 93.4941 18.2969C93.5801 18.0391 93.6589 17.8027 93.7305 17.5879C93.8164 17.3587 93.8737 17.2012 93.9023 17.1152C94.0026 16.8717 94.11 16.6283 94.2246 16.3848C94.3535 16.127 94.4967 15.8978 94.6543 15.6973C94.8262 15.4967 95.0195 15.332 95.2344 15.2031C95.4635 15.0742 95.7285 15.0098 96.0293 15.0098C96.2012 15.0098 96.4089 15.0885 96.6523 15.2461C96.9102 15.4036 97.1536 15.597 97.3828 15.8262C97.612 16.041 97.8053 16.2702 97.9629 16.5137C98.1204 16.7572 98.1992 16.9648 98.1992 17.1367C98.1992 17.3516 98.1491 17.5521 98.0488 17.7383C97.9486 17.9102 97.8197 18.0749 97.6621 18.2324C97.5189 18.3757 97.3613 18.5117 97.1895 18.6406C97.0176 18.7695 96.86 18.8913 96.7168 19.0059C96.7025 19.0059 96.6738 19.0202 96.6309 19.0488C96.5879 19.0775 96.5521 19.099 96.5234 19.1133C96.5091 19.1276 96.4733 19.1634 96.416 19.2207C96.373 19.2637 96.3229 19.3138 96.2656 19.3711C96.2083 19.4284 96.151 19.4857 96.0938 19.543C96.0508 19.6003 96.0221 19.6361 96.0078 19.6504C95.9648 19.6934 95.8789 19.765 95.75 19.8652C95.6354 19.9512 95.5065 20.0514 95.3633 20.166C95.2201 20.2663 95.084 20.3665 94.9551 20.4668C94.8405 20.5527 94.7617 20.61 94.7188 20.6387L94.6328 20.8105C94.6042 20.8678 94.5755 20.9967 94.5469 21.1973C94.5326 21.3835 94.5111 21.5983 94.4824 21.8418C94.4538 22.0853 94.4251 22.3359 94.3965 22.5938C94.3822 22.8372 94.375 23.0378 94.375 23.1953C94.375 23.2096 94.3822 23.224 94.3965 23.2383C94.4251 23.2669 94.4466 23.2812 94.4609 23.2812C94.5755 23.2812 94.6829 23.2311 94.7832 23.1309C94.8835 23.0306 94.9909 22.959 95.1055 22.916L98.543 19.7363L99.4238 18.3828C99.4954 18.2826 99.6315 18.1751 99.832 18.0605C100.047 17.9316 100.262 17.8672 100.477 17.8672C100.691 17.8529 100.878 17.9173 101.035 18.0605C101.207 18.2038 101.293 18.4831 101.293 18.8984ZM96.5664 17.2227C96.638 17.1654 96.6667 17.0794 96.6523 16.9648C96.638 16.8503 96.5951 16.75 96.5234 16.6641C96.4661 16.5781 96.3874 16.528 96.2871 16.5137C96.1868 16.485 96.0938 16.5352 96.0078 16.6641C95.9648 16.7214 95.8861 16.8359 95.7715 17.0078C95.6712 17.1797 95.5638 17.3587 95.4492 17.5449C95.349 17.7168 95.263 17.8672 95.1914 17.9961C95.1198 18.125 95.1055 18.1751 95.1484 18.1465L96.5664 17.2227Z" fill="black"/>
<defs>
<filter id="filter0_d_4566_2398" x="2.02832" y="1.65405" width="128.007" height="35.9953" filterUnits="userSpaceOnUse" color-interpolation-filters="sRGB">
<feFlood flood-opacity="0" result="BackgroundImageFix"/>
<feColorMatrix in="SourceAlpha" type="matrix" values="0 0 0 0 0 0 0 0 0 0 0 0 0 0 0 0 0 0 127 0" result="hardAlpha"/>
<feOffset dx="4" dy="4"/>
<feColorMatrix type="matrix" values="0 0 0 0 0.694118 0 0 0 0 0.721569 0 0 0 0 0.741176 0 0 0 1 0"/>
<feBlend mode="multiply" in2="BackgroundImageFix" result="effect1_dropShadow_4566_2398"/>
<feBlend mode="normal" in="SourceGraphic" in2="effect1_dropShadow_4566_2398" result="shape"/>
</filter>
</defs>
</svg>
