<svg width="126" height="38" viewBox="0 0 126 38" fill="none" xmlns="http://www.w3.org/2000/svg">
<g filter="url(#filter0_d_4566_2103)">
<path d="M2.0275 31.2794L2.53882 3.12681C2.55367 2.30914 3.22076 1.65405 4.03857 1.65405H15.0903L36.0909 2.29943L53.2304 1.92296L76.2086 1.65405H97.115L119.552 1.90629C120.374 1.91553 121.035 2.58434 121.035 3.40619V32.0185C121.035 32.6721 120.612 33.2505 119.989 33.4482L119.577 33.5788C119.42 33.6286 119.256 33.6522 119.091 33.6486L79.693 32.7935L39.5753 33.1162L3.51437 32.8066C2.68036 32.7994 2.01236 32.1133 2.0275 31.2794Z" fill="white"/>
</g>
<path d="M2 1.70413C21.8409 1.70413 21.8409 2.16199 41.6713 2.16199C61.5122 2.16199 61.5122 1.65405 81.3532 1.65405C101.194 1.65405 101.194 2.06899 121.035 2.06899" stroke="black" stroke-width="3" stroke-miterlimit="10" stroke-linecap="round" stroke-linejoin="round"/>
<path d="M2 33.3525C21.8409 33.3525 21.8409 33.3048 41.6713 33.3048C61.5122 33.3048 61.5122 33.1461 81.3532 33.1461C101.194 33.1461 101.194 33.6541 121.035 33.6541" stroke="black" stroke-width="3" stroke-miterlimit="10" stroke-linecap="round" stroke-linejoin="round"/>
<path d="M121.951 33.4913C122.21 33.3432 121.351 1.77502 121.351 1.77502C121.351 1.77502 120.92 33.1934 121.065 33.4913C121.21 33.7891 121.744 33.6097 121.951 33.4913Z" stroke="black" stroke-width="3" stroke-miterlimit="10" stroke-linecap="round" stroke-linejoin="round"/>
<path d="M2.05548 33.3703C1.76106 33.2222 2.73905 1.65405 2.73905 1.65405C2.73905 1.65405 3.23003 33.0724 3.06456 33.3703C2.89908 33.6682 2.29102 33.4887 2.05548 33.3703Z" stroke="black" stroke-width="3" stroke-miterlimit="10" stroke-linecap="round" stroke-linejoin="round"/>
<path d="M16.4941 21.7129C16.666 20.2806 16.8021 19.1777 16.9023 18.4043C17.0026 17.6309 17.0742 17.0579 17.1172 16.6855C17.1745 16.2559 17.2031 16.0052 17.2031 15.9336C17.332 15.4896 17.4681 15.0098 17.6113 14.4941C17.7546 13.9785 17.9408 13.4987 18.1699 13.0547C18.4134 12.6107 18.7214 12.2383 19.0938 11.9375C19.4661 11.6367 19.946 11.4863 20.5332 11.4863C20.791 11.4863 21.0202 11.5078 21.2207 11.5508C21.4355 11.5794 21.6361 11.6367 21.8223 11.7227C22.0085 11.8086 22.1875 11.916 22.3594 12.0449C22.5456 12.1595 22.7389 12.3027 22.9395 12.4746C23.0827 12.6035 23.1615 12.6823 23.1758 12.7109C23.2044 12.7396 23.2188 12.8255 23.2188 12.9688C23.2188 13.1549 23.1543 13.334 23.0254 13.5059C22.8965 13.6777 22.7103 13.7637 22.4668 13.7637C22.2663 13.7637 22.1016 13.7207 21.9727 13.6348C21.8438 13.5345 21.7148 13.4271 21.5859 13.3125C21.4714 13.1836 21.3424 13.0762 21.1992 12.9902C21.0703 12.89 20.8984 12.8398 20.6836 12.8398C20.4544 12.8398 20.2539 12.9043 20.082 13.0332C19.9102 13.1478 19.7598 13.2982 19.6309 13.4844C19.5163 13.6706 19.4232 13.8783 19.3516 14.1074C19.2943 14.3366 19.2513 14.5514 19.2227 14.752L18.2129 21.627C18.2129 21.6556 18.2057 21.7272 18.1914 21.8418C18.1914 21.9421 18.1914 22.0208 18.1914 22.0781C18.1914 22.1784 18.1914 22.3073 18.1914 22.4648C18.1914 22.6081 18.2057 22.7585 18.2344 22.916C18.263 23.0592 18.3132 23.1882 18.3848 23.3027C18.4564 23.403 18.5638 23.4531 18.707 23.4531C18.793 23.4531 18.8717 23.4245 18.9434 23.3672C19.6309 22.9089 20.2181 22.3789 20.7051 21.7773C21.2064 21.1615 21.679 20.5098 22.123 19.8223C22.1374 19.7936 22.1732 19.7292 22.2305 19.6289C22.3021 19.5143 22.3665 19.3997 22.4238 19.2852C22.4954 19.1562 22.5599 19.0345 22.6172 18.9199C22.6745 18.791 22.7174 18.6979 22.7461 18.6406C22.832 18.4544 22.8965 18.2611 22.9395 18.0605C22.9824 17.86 23.0326 17.6738 23.0898 17.502C23.1615 17.3301 23.2617 17.194 23.3906 17.0938C23.5195 16.9792 23.7201 16.9219 23.9922 16.9219C24.1927 16.9219 24.3861 17.0078 24.5723 17.1797C24.7585 17.3516 24.8516 17.5521 24.8516 17.7812V17.8242C24.4935 18.8555 24.028 19.8079 23.4551 20.6816C22.8965 21.5553 22.2734 22.4219 21.5859 23.2812C21.1562 23.7969 20.6621 24.2122 20.1035 24.5273C19.5449 24.8424 18.9219 25 18.2344 25H18.127C17.4824 24.7565 17.0456 24.3984 16.8164 23.9258C16.6016 23.4388 16.4941 22.873 16.4941 22.2285V21.7129ZM25.8184 21.7129L26.6133 16.1914C26.6419 16.0052 26.7207 15.8691 26.8496 15.7832C26.9928 15.6973 27.1504 15.6543 27.3223 15.6543C27.6374 15.6543 27.888 15.7474 28.0742 15.9336C28.2604 16.1055 28.418 16.3203 28.5469 16.5781H28.5684C28.7402 16.5781 28.8906 16.5495 29.0195 16.4922C29.1628 16.4206 29.3346 16.3848 29.5352 16.3848C29.9935 16.3848 30.3802 16.528 30.6953 16.8145C31.0247 17.1009 31.2897 17.4518 31.4902 17.8672C31.6908 18.2682 31.834 18.7051 31.9199 19.1777C32.0202 19.6504 32.0703 20.0658 32.0703 20.4238C32.0703 20.8535 31.9557 21.3333 31.7266 21.8633C31.5117 22.3932 31.2181 22.8945 30.8457 23.3672C30.4876 23.8398 30.0794 24.2337 29.6211 24.5488C29.1628 24.8639 28.6973 25.0215 28.2246 25.0215C27.7949 25.0215 27.4225 24.9212 27.1074 24.7207C26.8066 24.5202 26.556 24.2695 26.3555 23.9688C26.1693 23.6536 26.0332 23.3027 25.9473 22.916C25.8613 22.5293 25.8184 22.1497 25.8184 21.7773V21.7129ZM27.623 21.8418C27.6517 21.985 27.6803 22.1497 27.709 22.3359C27.7376 22.5221 27.7806 22.694 27.8379 22.8516C27.8952 22.9948 27.974 23.1094 28.0742 23.1953C28.1888 23.2669 28.3464 23.2669 28.5469 23.1953C28.7331 23.0234 28.9336 22.8301 29.1484 22.6152C29.3633 22.4004 29.5638 22.1712 29.75 21.9277C29.9505 21.6842 30.1152 21.4264 30.2441 21.1543C30.373 20.8822 30.4375 20.5957 30.4375 20.2949C30.4948 19.8079 30.459 19.3639 30.3301 18.9629C30.2012 18.5475 30.015 18.2539 29.7715 18.082C29.5423 17.8958 29.2773 17.8743 28.9766 18.0176C28.6758 18.1465 28.375 18.5117 28.0742 19.1133C27.9023 19.4857 27.7806 19.9225 27.709 20.4238C27.6517 20.9108 27.623 21.362 27.623 21.7773V21.8418ZM39.1387 24.2695C38.9382 23.9831 38.7663 23.5892 38.623 23.0879C38.4941 22.5723 38.3652 22.0352 38.2363 21.4766C38.1217 20.9036 38.0143 20.3522 37.9141 19.8223C37.8138 19.278 37.7064 18.8483 37.5918 18.5332C37.4915 18.2038 37.377 18.0176 37.248 17.9746C37.1191 17.9316 36.9688 18.125 36.7969 18.5547L34.9277 24.3125C34.8561 24.513 34.7702 24.6562 34.6699 24.7422C34.5697 24.8138 34.4049 24.8496 34.1758 24.8496C34.0612 24.8496 33.9395 24.8353 33.8105 24.8066C33.6816 24.7637 33.5599 24.7064 33.4453 24.6348C33.3307 24.5632 33.2305 24.4772 33.1445 24.377C33.0729 24.2767 33.0299 24.1621 33.0156 24.0332C33.0586 23.8613 33.0944 23.5462 33.123 23.0879C33.166 22.6296 33.1947 22.0996 33.209 21.498C33.2233 20.8965 33.2305 20.2663 33.2305 19.6074C33.2448 18.9342 33.2448 18.3112 33.2305 17.7383C33.2305 17.151 33.2233 16.6497 33.209 16.2344C33.1947 15.8047 33.1803 15.5254 33.166 15.3965C33.166 15.2533 33.166 15.11 33.166 14.9668C33.1803 14.8092 33.2018 14.666 33.2305 14.5371C33.2734 14.4082 33.3379 14.3079 33.4238 14.2363C33.5241 14.1504 33.6745 14.1074 33.875 14.1074C34.1471 14.1074 34.3978 14.222 34.627 14.4512C34.8704 14.6803 34.9922 14.9238 34.9922 15.1816C34.9922 15.554 34.9707 15.9264 34.9277 16.2988C34.8991 16.6569 34.8848 17.0221 34.8848 17.3945C34.8848 17.6237 34.8848 17.8171 34.8848 17.9746C34.8848 18.1322 34.9134 18.3255 34.9707 18.5547C35.0137 18.4401 35.0853 18.2396 35.1855 17.9531C35.2858 17.6667 35.3932 17.3659 35.5078 17.0508C35.6367 16.7357 35.7513 16.4421 35.8516 16.1699C35.9518 15.8835 36.0234 15.6829 36.0664 15.5684C36.1667 15.2819 36.3171 15.0098 36.5176 14.752C36.7181 14.4798 36.9831 14.3294 37.3125 14.3008C37.5273 14.2865 37.7207 14.3438 37.8926 14.4727C38.0788 14.6016 38.2363 14.7734 38.3652 14.9883C38.4941 15.1888 38.6016 15.4036 38.6875 15.6328C38.7734 15.8477 38.8379 16.0339 38.8809 16.1914L40.041 21.541L40.9434 23.9902C40.9577 24.0046 40.9648 24.0475 40.9648 24.1191C40.9648 24.1764 40.9648 24.2194 40.9648 24.248C40.9648 24.4199 40.9219 24.5918 40.8359 24.7637C40.7643 24.9212 40.6283 25 40.4277 25C40.1842 25 39.9336 24.9355 39.6758 24.8066C39.418 24.6634 39.2389 24.4844 39.1387 24.2695ZM43.9727 18.7266C43.7721 18.7266 43.5931 18.7767 43.4355 18.877C43.278 18.9772 43.0918 19.0273 42.877 19.0273C42.8483 19.0273 42.7695 19.0273 42.6406 19.0273C42.526 19.013 42.4544 19.0059 42.4258 19.0059C42.3685 18.9342 42.304 18.877 42.2324 18.834C42.1608 18.791 42.0892 18.748 42.0176 18.7051C41.946 18.6478 41.8815 18.5833 41.8242 18.5117C41.7812 18.4401 41.7598 18.3398 41.7598 18.2109C41.7598 17.9961 41.8457 17.8242 42.0176 17.6953C42.1895 17.5521 42.39 17.4303 42.6191 17.3301C42.8483 17.2298 43.0775 17.1367 43.3066 17.0508C43.5501 16.9648 43.7435 16.8646 43.8867 16.75V15.8047C43.8867 14.7448 43.8366 13.6849 43.7363 12.625C43.6361 11.5508 43.5859 10.4909 43.5859 9.44531C43.5859 9.15885 43.6576 8.97266 43.8008 8.88672C43.944 8.80078 44.1374 8.75781 44.3809 8.75781C44.6673 8.75781 44.875 8.84375 45.0039 9.01562C45.1471 9.17318 45.2474 9.3737 45.3047 9.61719C45.362 9.84635 45.3906 10.097 45.3906 10.3691C45.3906 10.627 45.3978 10.849 45.4121 11.0352C45.4121 11.2214 45.4264 11.5508 45.4551 12.0234C45.4837 12.4961 45.5124 12.9974 45.541 13.5273C45.5697 14.0573 45.5983 14.5586 45.627 15.0312C45.6556 15.5039 45.6771 15.8333 45.6914 16.0195C45.7487 16.0052 45.8561 15.9694 46.0137 15.9121C46.1855 15.8405 46.3646 15.776 46.5508 15.7188C46.737 15.6471 46.9089 15.5827 47.0664 15.5254C47.2383 15.4681 47.36 15.4251 47.4316 15.3965C47.804 15.2389 48.1908 15.0671 48.5918 14.8809C48.9928 14.6803 49.401 14.5801 49.8164 14.5801C50.1029 14.5801 50.3177 14.6803 50.4609 14.8809C50.6185 15.0671 50.6973 15.2891 50.6973 15.5469C50.6973 15.7331 50.6257 15.8691 50.4824 15.9551C50.3392 16.041 50.1888 16.1198 50.0312 16.1914L46.1211 17.6523C46.0781 17.681 46.0352 17.7096 45.9922 17.7383C45.9492 17.7526 45.9062 17.7812 45.8633 17.8242V18.5117C45.8633 19.013 45.8704 19.5358 45.8848 20.0801C45.9134 20.61 45.9635 21.1257 46.0352 21.627C46.1068 22.0566 46.1855 22.4792 46.2715 22.8945C46.3574 23.3099 46.4004 23.7324 46.4004 24.1621C46.4004 24.291 46.3574 24.4629 46.2715 24.6777C46.1855 24.8926 46.0495 25 45.8633 25C45.4766 25 45.1615 24.8854 44.918 24.6562C44.6745 24.4271 44.5384 24.1191 44.5098 23.7324C44.4382 22.9876 44.3594 22.1712 44.2734 21.2832C44.2018 20.3952 44.1302 19.543 44.0586 18.7266H43.9727ZM56.3906 19.0059C56.2617 19.235 56.1113 19.5143 55.9395 19.8438C55.7819 20.1589 55.61 20.5026 55.4238 20.875C55.2376 21.2331 55.0299 21.5983 54.8008 21.9707C54.5859 22.3288 54.3568 22.6582 54.1133 22.959C53.8841 23.2598 53.6406 23.5176 53.3828 23.7324C53.125 23.9329 52.86 24.0547 52.5879 24.0977C52.4733 24.0977 52.3444 24.0905 52.2012 24.0762C52.0579 24.0475 51.9147 24.0117 51.7715 23.9688C51.6283 23.9115 51.5065 23.8398 51.4062 23.7539C51.3203 23.6536 51.2773 23.5247 51.2773 23.3672C51.2917 21.9062 51.3991 20.5814 51.5996 19.3926C51.8001 18.1895 52.1152 17.1367 52.5449 16.2344C52.9746 15.3177 53.526 14.5586 54.1992 13.957C54.8724 13.3555 55.6888 12.9258 56.6484 12.668C56.6771 12.668 56.7272 12.668 56.7988 12.668C56.8848 12.6536 56.9421 12.6465 56.9707 12.6465C57.4004 12.6322 57.7083 12.8327 57.8945 13.248C58.0951 13.6491 58.2383 14.2936 58.3242 15.1816C58.4245 16.0553 58.4889 17.1868 58.5176 18.5762C58.5605 19.9512 58.6393 21.6055 58.7539 23.5391C58.7969 23.6966 58.8184 23.8327 58.8184 23.9473C58.8327 24.0618 58.8398 24.1979 58.8398 24.3555C58.8398 24.5703 58.7754 24.735 58.6465 24.8496C58.5176 24.9499 58.3529 25 58.1523 25C57.737 25 57.4434 24.8854 57.2715 24.6562C57.0996 24.4271 56.985 24.1191 56.9277 23.7324C56.9277 23.7181 56.9134 23.6035 56.8848 23.3887C56.8704 23.1738 56.8418 22.9303 56.7988 22.6582C56.7702 22.3717 56.7415 22.0853 56.7129 21.7988C56.6842 21.5124 56.6628 21.276 56.6484 21.0898V21.0039C56.6198 20.8607 56.5983 20.6816 56.584 20.4668C56.584 20.252 56.5697 20.0443 56.541 19.8438C56.5124 19.6003 56.4909 19.3568 56.4766 19.1133L56.3906 19.0059ZM55.918 14.752C55.5312 15.0384 55.1517 15.4251 54.7793 15.9121C54.4069 16.3991 54.1419 16.8717 53.9844 17.3301C53.9128 17.5449 53.834 17.8385 53.748 18.2109C53.6621 18.5833 53.5833 18.9557 53.5117 19.3281C53.4544 19.6862 53.4043 20.0228 53.3613 20.3379C53.3184 20.6387 53.2969 20.832 53.2969 20.918C53.3112 20.918 53.3255 20.9036 53.3398 20.875C53.3685 20.8464 53.39 20.8249 53.4043 20.8105C54.2923 19.9512 54.9154 19.0273 55.2734 18.0391C55.6458 17.0365 55.8607 15.9408 55.918 14.752ZM59.957 22.4219C59.8568 21.9922 59.8568 21.4837 59.957 20.8965C60.0716 20.3092 60.2435 19.722 60.4727 19.1348C60.7161 18.5332 61.0098 17.9674 61.3535 17.4375C61.7116 16.9076 62.084 16.485 62.4707 16.1699C62.8717 15.8548 63.2728 15.6829 63.6738 15.6543C64.0892 15.6113 64.4831 15.7904 64.8555 16.1914C64.8555 16.2057 64.8626 16.2415 64.877 16.2988C64.8913 16.3561 64.9056 16.4779 64.9199 16.6641C64.9342 16.8359 64.9414 17.0866 64.9414 17.416C64.9557 17.7311 64.9629 18.168 64.9629 18.7266C64.9772 18.7552 64.9915 18.8053 65.0059 18.877C65.0345 18.9342 65.0488 18.9772 65.0488 19.0059C65.0059 19.1634 64.9199 19.3138 64.791 19.457C64.6764 19.5859 64.526 19.6504 64.3398 19.6504C64.0964 19.6504 63.8958 19.6146 63.7383 19.543C63.5951 19.457 63.4876 19.2637 63.416 18.9629C63.4447 18.9199 63.4518 18.834 63.4375 18.7051C63.4232 18.5618 63.3945 18.4043 63.3516 18.2324C63.3229 18.0605 63.2943 17.8887 63.2656 17.7168C63.237 17.5449 63.2227 17.4089 63.2227 17.3086C63.2083 17.3086 63.1868 17.3229 63.1582 17.3516C63.1439 17.3659 63.1296 17.3802 63.1152 17.3945C62.8717 17.8242 62.6426 18.304 62.4277 18.834C62.2272 19.3496 62.0697 19.8796 61.9551 20.4238C61.8548 20.9538 61.819 21.4837 61.8477 22.0137C61.8906 22.5436 62.0482 23.0234 62.3203 23.4531C62.5208 23.4531 62.707 23.3743 62.8789 23.2168C63.0508 23.0449 63.194 22.8874 63.3086 22.7441C63.5521 22.4577 63.7884 22.1641 64.0176 21.8633C64.2611 21.5625 64.4831 21.2474 64.6836 20.918C64.7695 20.7747 64.834 20.6458 64.877 20.5312C64.9199 20.4167 64.9701 20.3236 65.0273 20.252C65.099 20.1803 65.1849 20.123 65.2852 20.0801C65.3854 20.0371 65.5358 20.0156 65.7363 20.0156C65.9655 20.0156 66.1803 20.0729 66.3809 20.1875C66.5814 20.2878 66.6816 20.4596 66.6816 20.7031C66.6816 21.0326 66.5312 21.4479 66.2305 21.9492C65.944 22.4362 65.5859 22.9089 65.1562 23.3672C64.7409 23.8255 64.2969 24.2194 63.8242 24.5488C63.3516 24.8639 62.9362 25.0215 62.5781 25.0215C62.2344 25.0215 61.8978 24.957 61.5684 24.8281C61.2533 24.6849 60.974 24.4987 60.7305 24.2695C60.5013 24.0404 60.3151 23.7682 60.1719 23.4531C60.0286 23.138 59.957 22.7943 59.957 22.4219ZM69.625 18.7266C69.4245 18.7266 69.2454 18.7767 69.0879 18.877C68.9303 18.9772 68.7441 19.0273 68.5293 19.0273C68.5007 19.0273 68.4219 19.0273 68.293 19.0273C68.1784 19.013 68.1068 19.0059 68.0781 19.0059C68.0208 18.9342 67.9564 18.877 67.8848 18.834C67.8132 18.791 67.7415 18.748 67.6699 18.7051C67.5983 18.6478 67.5339 18.5833 67.4766 18.5117C67.4336 18.4401 67.4121 18.3398 67.4121 18.2109C67.4121 17.9961 67.498 17.8242 67.6699 17.6953C67.8418 17.5521 68.0423 17.4303 68.2715 17.3301C68.5007 17.2298 68.7298 17.1367 68.959 17.0508C69.2025 16.9648 69.3958 16.8646 69.5391 16.75V15.8047C69.5391 14.7448 69.4889 13.6849 69.3887 12.625C69.2884 11.5508 69.2383 10.4909 69.2383 9.44531C69.2383 9.15885 69.3099 8.97266 69.4531 8.88672C69.5964 8.80078 69.7897 8.75781 70.0332 8.75781C70.3197 8.75781 70.5273 8.84375 70.6562 9.01562C70.7995 9.17318 70.8997 9.3737 70.957 9.61719C71.0143 9.84635 71.043 10.097 71.043 10.3691C71.043 10.627 71.0501 10.849 71.0645 11.0352C71.0645 11.2214 71.0788 11.5508 71.1074 12.0234C71.1361 12.4961 71.1647 12.9974 71.1934 13.5273C71.222 14.0573 71.2507 14.5586 71.2793 15.0312C71.3079 15.5039 71.3294 15.8333 71.3438 16.0195C71.401 16.0052 71.5085 15.9694 71.666 15.9121C71.8379 15.8405 72.0169 15.776 72.2031 15.7188C72.3893 15.6471 72.5612 15.5827 72.7188 15.5254C72.8906 15.4681 73.0124 15.4251 73.084 15.3965C73.4564 15.2389 73.8431 15.0671 74.2441 14.8809C74.6452 14.6803 75.0534 14.5801 75.4688 14.5801C75.7552 14.5801 75.9701 14.6803 76.1133 14.8809C76.2708 15.0671 76.3496 15.2891 76.3496 15.5469C76.3496 15.7331 76.278 15.8691 76.1348 15.9551C75.9915 16.041 75.8411 16.1198 75.6836 16.1914L71.7734 17.6523C71.7305 17.681 71.6875 17.7096 71.6445 17.7383C71.6016 17.7526 71.5586 17.7812 71.5156 17.8242V18.5117C71.5156 19.013 71.5228 19.5358 71.5371 20.0801C71.5658 20.61 71.6159 21.1257 71.6875 21.627C71.7591 22.0566 71.8379 22.4792 71.9238 22.8945C72.0098 23.3099 72.0527 23.7324 72.0527 24.1621C72.0527 24.291 72.0098 24.4629 71.9238 24.6777C71.8379 24.8926 71.7018 25 71.5156 25C71.1289 25 70.8138 24.8854 70.5703 24.6562C70.3268 24.4271 70.1908 24.1191 70.1621 23.7324C70.0905 22.9876 70.0117 22.1712 69.9258 21.2832C69.8542 20.3952 69.7826 19.543 69.7109 18.7266H69.625ZM86.082 24.3555C86.0534 22.7656 86.0104 21.1829 85.9531 19.6074C85.9102 18.0176 85.8887 16.4277 85.8887 14.8379C85.8887 14.7233 85.8887 14.5228 85.8887 14.2363C85.8887 13.9355 85.8887 13.6204 85.8887 13.291C85.903 12.9616 85.9102 12.6536 85.9102 12.3672C85.9102 12.0807 85.9102 11.8802 85.9102 11.7656C85.9674 11.5365 86.0534 11.3574 86.168 11.2285C86.2826 11.0853 86.4616 11.0137 86.7051 11.0137C86.9486 11.0137 87.1634 11.0924 87.3496 11.25C87.5358 11.3932 87.6862 11.5651 87.8008 11.7656L90.8945 17.7383C90.9089 17.7669 90.959 17.8529 91.0449 17.9961C91.1309 18.1393 91.1953 18.2396 91.2383 18.2969C91.2526 18.3112 91.2741 18.3255 91.3027 18.3398C91.3314 18.3542 91.3457 18.3685 91.3457 18.3828L91.4316 18.1895L93.2578 11.7656C93.3867 11.5651 93.4798 11.3431 93.5371 11.0996C93.6087 10.8418 93.6803 10.5911 93.752 10.3477C93.8379 10.1042 93.9382 9.875 94.0527 9.66016C94.1816 9.44531 94.3678 9.26628 94.6113 9.12305H94.7832C95.1699 9.12305 95.4564 9.23763 95.6426 9.4668C95.8288 9.68164 95.9577 9.95378 96.0293 10.2832C96.1009 10.5983 96.1296 10.9349 96.1152 11.293C96.1152 11.6367 96.1224 11.9375 96.1367 12.1953C96.1367 12.2956 96.1439 12.4889 96.1582 12.7754C96.1868 13.0618 96.2155 13.3984 96.2441 13.7852C96.2728 14.1719 96.3014 14.5872 96.3301 15.0312C96.3587 15.4609 96.3802 15.8691 96.3945 16.2559C96.4232 16.6426 96.4447 16.9792 96.459 17.2656C96.4876 17.5521 96.502 17.7383 96.502 17.8242V17.9102C96.5163 18.0391 96.5449 18.2539 96.5879 18.5547C96.6309 18.8555 96.6738 19.1777 96.7168 19.5215C96.7741 19.8509 96.8242 20.166 96.8672 20.4668C96.9102 20.7676 96.946 20.9753 96.9746 21.0898C96.9889 21.1615 97.0104 21.2689 97.0391 21.4121C97.082 21.5553 97.125 21.7129 97.168 21.8848C97.2253 22.0423 97.2754 22.1927 97.3184 22.3359C97.3613 22.4792 97.3971 22.5794 97.4258 22.6367C97.3685 22.9661 97.2826 23.224 97.168 23.4102C97.0677 23.582 96.8385 23.668 96.4805 23.668C96.4375 23.668 96.373 23.668 96.2871 23.668C96.2012 23.6536 96.151 23.6465 96.1367 23.6465C96.0938 23.6178 96.0078 23.5462 95.8789 23.4316C95.7643 23.3171 95.6999 23.2383 95.6855 23.1953L95.3418 22.0137L94.6973 17.1152V16.9219C94.6829 16.6641 94.6758 16.3919 94.6758 16.1055C94.6758 15.8047 94.6686 15.5039 94.6543 15.2031C94.6543 14.9023 94.64 14.6016 94.6113 14.3008C94.5827 14 94.5254 13.7207 94.4395 13.4629L94.332 13.5918L92.7852 19.8223C92.7708 19.9798 92.7565 20.1517 92.7422 20.3379C92.7279 20.5098 92.6921 20.6816 92.6348 20.8535C92.5775 21.0111 92.4915 21.1471 92.377 21.2617C92.2624 21.3763 92.0977 21.4408 91.8828 21.4551C91.7969 21.4694 91.7038 21.4551 91.6035 21.4121C91.5033 21.3691 91.403 21.3118 91.3027 21.2402C91.2025 21.1686 91.1094 21.0898 91.0234 21.0039C90.9518 20.9036 90.9089 20.8105 90.8945 20.7246L88.166 16.3848L87.7148 15.4824V17.3301C87.7148 18.2038 87.7292 19.0632 87.7578 19.9082C87.8008 20.7389 87.8223 21.5911 87.8223 22.4648C87.8223 22.5365 87.8223 22.6654 87.8223 22.8516C87.8223 23.0234 87.8151 23.2096 87.8008 23.4102C87.8008 23.6107 87.8008 23.804 87.8008 23.9902C87.8008 24.1621 87.8008 24.2839 87.8008 24.3555C87.7435 24.5273 87.6576 24.6777 87.543 24.8066C87.4427 24.9355 87.2923 25 87.0918 25C86.8197 25 86.6048 24.957 86.4473 24.8711C86.304 24.7708 86.1823 24.599 86.082 24.3555ZM107.395 18.8984C107.366 19.1562 107.33 19.3568 107.287 19.5C107.258 19.6432 107.201 19.7721 107.115 19.8867C107.029 20.0013 106.908 20.123 106.75 20.252C106.592 20.3665 106.378 20.5384 106.105 20.7676C105.833 20.9824 105.497 21.2689 105.096 21.627C104.695 21.985 104.208 22.4505 103.635 23.0234C103.406 23.2383 103.169 23.4603 102.926 23.6895C102.682 23.9186 102.424 24.1263 102.152 24.3125C101.895 24.4844 101.622 24.6276 101.336 24.7422C101.049 24.8568 100.749 24.9141 100.434 24.9141C99.8177 24.9141 99.3665 24.7064 99.0801 24.291C98.7936 23.8757 98.6504 23.3958 98.6504 22.8516C98.6504 22.4935 98.6576 22.1927 98.6719 21.9492C98.7005 21.7057 98.7578 21.3906 98.8438 21.0039C98.6862 20.8607 98.5501 20.7389 98.4355 20.6387C98.321 20.5241 98.2637 20.3737 98.2637 20.1875C98.2637 20.0156 98.2995 19.901 98.3711 19.8438C98.457 19.7865 98.5501 19.7507 98.6504 19.7363C98.765 19.7077 98.8724 19.679 98.9727 19.6504C99.0729 19.6217 99.1445 19.5645 99.1875 19.4785C99.2161 19.3926 99.2663 19.235 99.3379 19.0059C99.4238 18.7767 99.5098 18.5404 99.5957 18.2969C99.6816 18.0391 99.7604 17.8027 99.832 17.5879C99.918 17.3587 99.9753 17.2012 100.004 17.1152C100.104 16.8717 100.212 16.6283 100.326 16.3848C100.455 16.127 100.598 15.8978 100.756 15.6973C100.928 15.4967 101.121 15.332 101.336 15.2031C101.565 15.0742 101.83 15.0098 102.131 15.0098C102.303 15.0098 102.51 15.0885 102.754 15.2461C103.012 15.4036 103.255 15.597 103.484 15.8262C103.714 16.041 103.907 16.2702 104.064 16.5137C104.222 16.7572 104.301 16.9648 104.301 17.1367C104.301 17.3516 104.251 17.5521 104.15 17.7383C104.05 17.9102 103.921 18.0749 103.764 18.2324C103.62 18.3757 103.463 18.5117 103.291 18.6406C103.119 18.7695 102.962 18.8913 102.818 19.0059C102.804 19.0059 102.775 19.0202 102.732 19.0488C102.689 19.0775 102.654 19.099 102.625 19.1133C102.611 19.1276 102.575 19.1634 102.518 19.2207C102.475 19.2637 102.424 19.3138 102.367 19.3711C102.31 19.4284 102.253 19.4857 102.195 19.543C102.152 19.6003 102.124 19.6361 102.109 19.6504C102.066 19.6934 101.98 19.765 101.852 19.8652C101.737 19.9512 101.608 20.0514 101.465 20.166C101.322 20.2663 101.186 20.3665 101.057 20.4668C100.942 20.5527 100.863 20.61 100.82 20.6387L100.734 20.8105C100.706 20.8678 100.677 20.9967 100.648 21.1973C100.634 21.3835 100.613 21.5983 100.584 21.8418C100.555 22.0853 100.527 22.3359 100.498 22.5938C100.484 22.8372 100.477 23.0378 100.477 23.1953C100.477 23.2096 100.484 23.224 100.498 23.2383C100.527 23.2669 100.548 23.2812 100.562 23.2812C100.677 23.2812 100.785 23.2311 100.885 23.1309C100.985 23.0306 101.092 22.959 101.207 22.916L104.645 19.7363L105.525 18.3828C105.597 18.2826 105.733 18.1751 105.934 18.0605C106.148 17.9316 106.363 17.8672 106.578 17.8672C106.793 17.8529 106.979 17.9173 107.137 18.0605C107.309 18.2038 107.395 18.4831 107.395 18.8984ZM102.668 17.2227C102.74 17.1654 102.768 17.0794 102.754 16.9648C102.74 16.8503 102.697 16.75 102.625 16.6641C102.568 16.5781 102.489 16.528 102.389 16.5137C102.288 16.485 102.195 16.5352 102.109 16.6641C102.066 16.7214 101.988 16.8359 101.873 17.0078C101.773 17.1797 101.665 17.3587 101.551 17.5449C101.451 17.7168 101.365 17.8672 101.293 17.9961C101.221 18.125 101.207 18.1751 101.25 18.1465L102.668 17.2227Z" fill="black"/>
<defs>
<filter id="filter0_d_4566_2103" x="2.02734" y="1.65405" width="123.008" height="35.995" filterUnits="userSpaceOnUse" color-interpolation-filters="sRGB">
<feFlood flood-opacity="0" result="BackgroundImageFix"/>
<feColorMatrix in="SourceAlpha" type="matrix" values="0 0 0 0 0 0 0 0 0 0 0 0 0 0 0 0 0 0 127 0" result="hardAlpha"/>
<feOffset dx="4" dy="4"/>
<feColorMatrix type="matrix" values="0 0 0 0 0.694118 0 0 0 0 0.721569 0 0 0 0 0.741176 0 0 0 1 0"/>
<feBlend mode="multiply" in2="BackgroundImageFix" result="effect1_dropShadow_4566_2103"/>
<feBlend mode="normal" in="SourceGraphic" in2="effect1_dropShadow_4566_2103" result="shape"/>
</filter>
</defs>
</svg>
