<svg width="131" height="38" viewBox="0 0 131 38" fill="none" xmlns="http://www.w3.org/2000/svg">
<g filter="url(#filter0_d_4645_1814)">
<path d="M2.02869 31.2777L2.56147 3.12567C2.57694 2.30845 3.24384 1.65405 4.0612 1.65405H15.6402L37.5229 2.29943L55.3823 1.92296L79.3257 1.65405H101.11L124.551 1.90695C125.373 1.91582 126.035 2.58475 126.035 3.40687V32.005C126.035 32.6651 125.603 33.2476 124.972 33.4399L124.498 33.5843C124.346 33.6305 124.188 33.6524 124.029 33.6491L82.9565 32.7935L41.1536 33.1162L3.51606 32.806C2.68139 32.7992 2.01289 32.1123 2.02869 31.2777Z" fill="white"/>
</g>
<path d="M2 1.70413C22.6743 1.70413 22.6743 2.16199 43.3377 2.16199C64.012 2.16199 64.012 1.65405 84.6863 1.65405C105.361 1.65405 105.361 2.06899 126.035 2.06899" stroke="black" stroke-width="3" stroke-miterlimit="10" stroke-linecap="round" stroke-linejoin="round"/>
<path d="M2 33.3525C22.6743 33.3525 22.6743 33.3048 43.3377 33.3048C64.012 33.3048 64.012 33.1461 84.6863 33.1461C105.361 33.1461 105.361 33.6541 126.035 33.6541" stroke="black" stroke-width="3" stroke-miterlimit="10" stroke-linecap="round" stroke-linejoin="round"/>
<path d="M126.951 33.4913C127.21 33.3432 126.351 1.77502 126.351 1.77502C126.351 1.77502 125.92 33.1934 126.065 33.4913C126.21 33.7891 126.744 33.6097 126.951 33.4913Z" stroke="black" stroke-width="3" stroke-miterlimit="10" stroke-linecap="round" stroke-linejoin="round"/>
<path d="M2.05548 33.3703C1.76106 33.2222 2.73905 1.65405 2.73905 1.65405C2.73905 1.65405 3.23003 33.0724 3.06456 33.3703C2.89908 33.6682 2.29102 33.4887 2.05548 33.3703Z" stroke="black" stroke-width="3" stroke-miterlimit="10" stroke-linecap="round" stroke-linejoin="round"/>
<path d="M30.6758 24.5273C30.5326 23.9544 30.4251 23.4173 30.3535 22.916C30.2819 22.4004 30.2318 21.8561 30.2031 21.2832C30.1888 20.9538 30.1888 20.6745 30.2031 20.4453C30.2174 20.2018 30.1888 19.9368 30.1172 19.6504C30.1029 19.5931 30.0671 19.5501 30.0098 19.5215C29.9668 19.4928 29.9167 19.457 29.8594 19.4141C29.8164 19.3711 29.7734 19.321 29.7305 19.2637C29.6875 19.1921 29.666 19.0846 29.666 18.9414C29.666 18.8268 29.6875 18.7266 29.7305 18.6406C29.7878 18.5547 29.8379 18.4759 29.8809 18.4043C29.9382 18.3184 29.9883 18.2324 30.0312 18.1465C30.0885 18.0462 30.1172 17.9316 30.1172 17.8027V17.4805C30.1172 17.3372 30.1029 17.0938 30.0742 16.75C30.0456 16.4062 30.0169 16.041 29.9883 15.6543C29.9596 15.2676 29.931 14.9023 29.9023 14.5586C29.888 14.2148 29.8737 13.9785 29.8594 13.8496C29.8451 13.6061 29.7806 13.3913 29.666 13.2051C29.5514 13.0189 29.4941 12.804 29.4941 12.5605C29.4941 12.1022 29.5872 11.7799 29.7734 11.5938C29.9596 11.4076 30.2891 11.3145 30.7617 11.3145C30.862 11.3145 30.9408 11.3574 30.998 11.4434C31.0697 11.5293 31.1484 11.5723 31.2344 11.5723H31.3203C31.3633 11.5579 31.4277 11.5436 31.5137 11.5293C31.5996 11.5007 31.6569 11.4863 31.6855 11.4863C32.8887 10.9707 33.8268 10.5697 34.5 10.2832C35.1732 9.99674 35.6816 9.78906 36.0254 9.66016C36.3691 9.53125 36.5983 9.45964 36.7129 9.44531C36.8418 9.43099 36.9492 9.44531 37.0352 9.48828C37.207 9.51693 37.3216 9.57422 37.3789 9.66016C37.4505 9.73177 37.4863 9.84635 37.4863 10.0039C37.4863 10.1471 37.4648 10.2904 37.4219 10.4336C37.3789 10.5768 37.2786 10.6842 37.1211 10.7559L34.3066 12.1094L34.2207 12.1953L31.8574 13.2051C31.7715 13.2337 31.7214 13.3053 31.707 13.4199C31.6927 13.5345 31.6855 13.6276 31.6855 13.6992C31.6855 13.8138 31.6999 14.0215 31.7285 14.3223C31.7572 14.623 31.7858 14.9382 31.8145 15.2676C31.8431 15.5827 31.8717 15.8691 31.9004 16.127C31.9434 16.3704 31.972 16.4922 31.9863 16.4922H32.0078C32.0078 16.4922 32.015 16.485 32.0293 16.4707C32.1868 16.3561 32.4375 16.1628 32.7812 15.8906C33.125 15.6042 33.4759 15.3177 33.834 15.0312C34.1921 14.7448 34.5072 14.4941 34.7793 14.2793C35.0514 14.0501 35.1947 13.9355 35.209 13.9355C35.3665 13.9355 35.5098 14.0143 35.6387 14.1719C35.7676 14.3294 35.832 14.4941 35.832 14.666C35.832 14.8379 35.7962 15.0312 35.7246 15.2461C35.653 15.4609 35.5384 15.6257 35.3809 15.7402L32.0293 18.7266C32.0293 18.7266 32.0293 18.7624 32.0293 18.834C32.0293 18.9056 32.0221 18.9844 32.0078 19.0703C32.0078 19.1562 32.0078 19.2493 32.0078 19.3496C32.0078 19.4355 32.0078 19.5072 32.0078 19.5645C32.0078 20.0801 32.0436 20.5957 32.1152 21.1113C32.1868 21.6126 32.2227 22.1211 32.2227 22.6367H32.3086C32.3229 22.6367 32.3874 22.5794 32.502 22.4648C32.6165 22.3503 32.7025 22.2572 32.7598 22.1855C32.7884 22.1426 32.8529 22.0495 32.9531 21.9062C33.0677 21.763 33.2539 21.5267 33.5117 21.1973C33.7695 20.8678 34.1133 20.431 34.543 19.8867C34.9727 19.3424 35.5241 18.6549 36.1973 17.8242C36.2546 17.7669 36.3333 17.681 36.4336 17.5664C36.5482 17.4518 36.6198 17.3945 36.6484 17.3945C36.6914 17.3516 36.7773 17.3372 36.9062 17.3516C37.0495 17.3516 37.1497 17.3659 37.207 17.3945C37.2786 17.4232 37.3717 17.502 37.4863 17.6309C37.6009 17.7598 37.6582 17.8815 37.6582 17.9961C37.6582 18.168 37.5651 18.3971 37.3789 18.6836C37.207 18.9557 36.9993 19.2422 36.7559 19.543C36.5124 19.8438 36.2689 20.1374 36.0254 20.4238C35.7819 20.696 35.5957 20.918 35.4668 21.0898C35.2663 21.4049 35.0228 21.7917 34.7363 22.25C34.4642 22.694 34.1634 23.1237 33.834 23.5391C33.5046 23.9401 33.1393 24.291 32.7383 24.5918C32.3516 24.8783 31.9362 25.0215 31.4922 25.0215C31.2773 25.0215 31.1198 24.9857 31.0195 24.9141C30.9336 24.8424 30.819 24.7135 30.6758 24.5273ZM43.9531 21.6055C43.9388 21.6055 43.8385 21.763 43.6523 22.0781C43.4805 22.3932 43.2441 22.737 42.9434 23.1094C42.6426 23.4818 42.2845 23.8255 41.8691 24.1406C41.4681 24.4557 41.0384 24.6133 40.5801 24.6133C39.9499 24.6133 39.4199 24.4199 38.9902 24.0332C38.5749 23.6465 38.3672 23.1165 38.3672 22.4434C38.3385 22.0996 38.3815 21.6914 38.4961 21.2188C38.625 20.7461 38.804 20.2591 39.0332 19.7578C39.2767 19.2422 39.5632 18.748 39.8926 18.2754C40.2363 17.7884 40.6016 17.373 40.9883 17.0293C41.375 16.6712 41.776 16.4062 42.1914 16.2344C42.6211 16.0625 43.0508 16.0339 43.4805 16.1484V15.8477C43.4805 15.4753 43.4661 15.0957 43.4375 14.709C43.4232 14.3079 43.4017 13.8568 43.373 13.3555C43.3587 12.8398 43.3372 12.2526 43.3086 11.5938C43.2943 10.9206 43.2871 10.1185 43.2871 9.1875C43.3301 9.02995 43.4017 8.92969 43.502 8.88672C43.6165 8.82943 43.7383 8.80078 43.8672 8.80078C44.1966 8.80078 44.4544 8.9082 44.6406 9.12305C44.8411 9.33789 44.9629 9.60286 45.0059 9.91797C44.9772 10.4049 44.9629 10.9062 44.9629 11.4219C44.9772 11.9232 45.0059 12.4961 45.0488 13.1406C45.0918 13.7852 45.1562 14.5156 45.2422 15.332C45.3424 16.1484 45.4642 17.1152 45.6074 18.2324C45.7507 19.3353 45.9225 20.61 46.123 22.0566C46.3236 23.4889 46.5599 25.1504 46.832 27.041V27.7715C46.832 27.8574 46.7962 27.9219 46.7246 27.9648C46.6673 28.0078 46.5885 28.0365 46.4883 28.0508C46.4023 28.0794 46.3092 28.0938 46.209 28.0938C46.123 28.1081 46.0586 28.1152 46.0156 28.1152C45.8008 28.1152 45.5716 28.0508 45.3281 27.9219C45.0846 27.8073 44.9414 27.6426 44.8984 27.4277L44.1035 21.6914C44.1035 21.6484 44.082 21.627 44.0391 21.627C44.0104 21.6126 43.9818 21.6055 43.9531 21.6055ZM40.1719 22.0781C40.1719 22.1211 40.1647 22.1999 40.1504 22.3145C40.1504 22.4147 40.1504 22.5221 40.1504 22.6367C40.1647 22.7513 40.1862 22.8516 40.2148 22.9375C40.2435 23.0234 40.3008 23.0664 40.3867 23.0664C40.7448 23.0807 41.11 22.9447 41.4824 22.6582C41.8691 22.3717 42.2201 22.0208 42.5352 21.6055C42.8503 21.1758 43.1081 20.7174 43.3086 20.2305C43.5234 19.7435 43.638 19.3066 43.6523 18.9199C43.681 18.5332 43.5879 18.2396 43.373 18.0391C43.1725 17.8242 42.8216 17.7741 42.3203 17.8887C41.7044 18.4329 41.1888 19.056 40.7734 19.7578C40.3724 20.4596 40.1719 21.2331 40.1719 22.0781ZM51.666 22.959C51.5658 23.1738 51.4655 23.4102 51.3652 23.668C51.265 23.9115 51.1504 24.1335 51.0215 24.334C50.8926 24.5345 50.735 24.7064 50.5488 24.8496C50.3626 24.9785 50.1263 25.043 49.8398 25.043C49.3385 25.043 48.9232 24.9212 48.5938 24.6777C48.2643 24.4199 47.9922 24.1048 47.7773 23.7324C47.5768 23.3457 47.4336 22.9303 47.3477 22.4863C47.2617 22.0423 47.2188 21.627 47.2188 21.2402L47.3906 16.041C47.3763 15.9408 47.3978 15.8405 47.4551 15.7402C47.5267 15.6257 47.6126 15.5254 47.7129 15.4395C47.8275 15.3392 47.9492 15.2604 48.0781 15.2031C48.2214 15.1458 48.3503 15.1172 48.4648 15.1172C48.7943 15.1172 49.0736 15.2246 49.3027 15.4395C49.5319 15.64 49.6465 15.9049 49.6465 16.2344V16.4492C49.4889 16.707 49.3529 17.0436 49.2383 17.459C49.1237 17.8743 49.0306 18.3255 48.959 18.8125C48.9017 19.2852 48.8659 19.7721 48.8516 20.2734C48.8372 20.7747 48.8516 21.2331 48.8945 21.6484C48.9518 22.0638 49.0378 22.4219 49.1523 22.7227C49.2669 23.0091 49.4173 23.181 49.6035 23.2383C49.6751 23.2383 49.7826 23.2025 49.9258 23.1309C50.0833 23.0592 50.248 22.9232 50.4199 22.7227C50.5918 22.5221 50.7708 22.2428 50.957 21.8848C51.1432 21.5124 51.3079 21.0254 51.4512 20.4238C51.5944 19.8223 51.7018 19.0918 51.7734 18.2324C51.8451 17.373 51.8665 16.3418 51.8379 15.1387C51.8952 14.9811 51.974 14.8952 52.0742 14.8809C52.1888 14.8665 52.3034 14.8594 52.418 14.8594C52.5469 14.8594 52.6543 14.8665 52.7402 14.8809C52.8262 14.8809 52.9193 14.931 53.0195 15.0312C53.0911 15.1029 53.1699 15.2103 53.2559 15.3535C53.3418 15.4967 53.3848 15.5755 53.3848 15.5898L53.75 25.1074C53.75 25.3223 53.6927 25.5013 53.5781 25.6445C53.4635 25.7878 53.2988 25.8594 53.084 25.8594C53.0124 25.8594 52.9264 25.8522 52.8262 25.8379C52.7259 25.8236 52.6257 25.7949 52.5254 25.752C52.4251 25.709 52.332 25.6517 52.2461 25.5801C52.1745 25.5228 52.1315 25.4512 52.1172 25.3652L51.752 23.2168L51.666 22.959ZM54.9316 22.4219C54.8314 21.9922 54.8314 21.4837 54.9316 20.8965C55.0462 20.3092 55.2181 19.722 55.4473 19.1348C55.6908 18.5332 55.9844 17.9674 56.3281 17.4375C56.6862 16.9076 57.0586 16.485 57.4453 16.1699C57.8464 15.8548 58.2474 15.6829 58.6484 15.6543C59.0638 15.6113 59.4577 15.7904 59.8301 16.1914C59.8301 16.2057 59.8372 16.2415 59.8516 16.2988C59.8659 16.3561 59.8802 16.4779 59.8945 16.6641C59.9089 16.8359 59.916 17.0866 59.916 17.416C59.9303 17.7311 59.9375 18.168 59.9375 18.7266C59.9518 18.7552 59.9661 18.8053 59.9805 18.877C60.0091 18.9342 60.0234 18.9772 60.0234 19.0059C59.9805 19.1634 59.8945 19.3138 59.7656 19.457C59.651 19.5859 59.5007 19.6504 59.3145 19.6504C59.071 19.6504 58.8704 19.6146 58.7129 19.543C58.5697 19.457 58.4622 19.2637 58.3906 18.9629C58.4193 18.9199 58.4264 18.834 58.4121 18.7051C58.3978 18.5618 58.3691 18.4043 58.3262 18.2324C58.2975 18.0605 58.2689 17.8887 58.2402 17.7168C58.2116 17.5449 58.1973 17.4089 58.1973 17.3086C58.1829 17.3086 58.1615 17.3229 58.1328 17.3516C58.1185 17.3659 58.1042 17.3802 58.0898 17.3945C57.8464 17.8242 57.6172 18.304 57.4023 18.834C57.2018 19.3496 57.0443 19.8796 56.9297 20.4238C56.8294 20.9538 56.7936 21.4837 56.8223 22.0137C56.8652 22.5436 57.0228 23.0234 57.2949 23.4531C57.4954 23.4531 57.6816 23.3743 57.8535 23.2168C58.0254 23.0449 58.1686 22.8874 58.2832 22.7441C58.5267 22.4577 58.763 22.1641 58.9922 21.8633C59.2357 21.5625 59.4577 21.2474 59.6582 20.918C59.7441 20.7747 59.8086 20.6458 59.8516 20.5312C59.8945 20.4167 59.9447 20.3236 60.002 20.252C60.0736 20.1803 60.1595 20.123 60.2598 20.0801C60.36 20.0371 60.5104 20.0156 60.7109 20.0156C60.9401 20.0156 61.1549 20.0729 61.3555 20.1875C61.556 20.2878 61.6562 20.4596 61.6562 20.7031C61.6562 21.0326 61.5059 21.4479 61.2051 21.9492C60.9186 22.4362 60.5605 22.9089 60.1309 23.3672C59.7155 23.8255 59.2715 24.2194 58.7988 24.5488C58.3262 24.8639 57.9108 25.0215 57.5527 25.0215C57.209 25.0215 56.8724 24.957 56.543 24.8281C56.2279 24.6849 55.9486 24.4987 55.7051 24.2695C55.4759 24.0404 55.2897 23.7682 55.1465 23.4531C55.0033 23.138 54.9316 22.7943 54.9316 22.4219ZM67.543 19.0059C67.4141 19.235 67.2637 19.5143 67.0918 19.8438C66.9342 20.1589 66.7624 20.5026 66.5762 20.875C66.39 21.2331 66.1823 21.5983 65.9531 21.9707C65.7383 22.3288 65.5091 22.6582 65.2656 22.959C65.0365 23.2598 64.793 23.5176 64.5352 23.7324C64.2773 23.9329 64.0124 24.0547 63.7402 24.0977C63.6257 24.0977 63.4967 24.0905 63.3535 24.0762C63.2103 24.0475 63.0671 24.0117 62.9238 23.9688C62.7806 23.9115 62.6589 23.8398 62.5586 23.7539C62.4727 23.6536 62.4297 23.5247 62.4297 23.3672C62.444 21.9062 62.5514 20.5814 62.752 19.3926C62.9525 18.1895 63.2676 17.1367 63.6973 16.2344C64.127 15.3177 64.6784 14.5586 65.3516 13.957C66.0247 13.3555 66.8411 12.9258 67.8008 12.668C67.8294 12.668 67.8796 12.668 67.9512 12.668C68.0371 12.6536 68.0944 12.6465 68.123 12.6465C68.5527 12.6322 68.8607 12.8327 69.0469 13.248C69.2474 13.6491 69.3906 14.2936 69.4766 15.1816C69.5768 16.0553 69.6413 17.1868 69.6699 18.5762C69.7129 19.9512 69.7917 21.6055 69.9062 23.5391C69.9492 23.6966 69.9707 23.8327 69.9707 23.9473C69.985 24.0618 69.9922 24.1979 69.9922 24.3555C69.9922 24.5703 69.9277 24.735 69.7988 24.8496C69.6699 24.9499 69.5052 25 69.3047 25C68.8893 25 68.5957 24.8854 68.4238 24.6562C68.252 24.4271 68.1374 24.1191 68.0801 23.7324C68.0801 23.7181 68.0658 23.6035 68.0371 23.3887C68.0228 23.1738 67.9941 22.9303 67.9512 22.6582C67.9225 22.3717 67.8939 22.0853 67.8652 21.7988C67.8366 21.5124 67.8151 21.276 67.8008 21.0898V21.0039C67.7721 20.8607 67.7507 20.6816 67.7363 20.4668C67.7363 20.252 67.722 20.0443 67.6934 19.8438C67.6647 19.6003 67.6432 19.3568 67.6289 19.1133L67.543 19.0059ZM67.0703 14.752C66.6836 15.0384 66.304 15.4251 65.9316 15.9121C65.5592 16.3991 65.2943 16.8717 65.1367 17.3301C65.0651 17.5449 64.9863 17.8385 64.9004 18.2109C64.8145 18.5833 64.7357 18.9557 64.6641 19.3281C64.6068 19.6862 64.5566 20.0228 64.5137 20.3379C64.4707 20.6387 64.4492 20.832 64.4492 20.918C64.4635 20.918 64.4779 20.9036 64.4922 20.875C64.5208 20.8464 64.5423 20.8249 64.5566 20.8105C65.4447 19.9512 66.0677 19.0273 66.4258 18.0391C66.7982 17.0365 67.013 15.9408 67.0703 14.752ZM73.1719 18.7266C72.9714 18.7266 72.7923 18.7767 72.6348 18.877C72.4772 18.9772 72.291 19.0273 72.0762 19.0273C72.0475 19.0273 71.9688 19.0273 71.8398 19.0273C71.7253 19.013 71.6536 19.0059 71.625 19.0059C71.5677 18.9342 71.5033 18.877 71.4316 18.834C71.36 18.791 71.2884 18.748 71.2168 18.7051C71.1452 18.6478 71.0807 18.5833 71.0234 18.5117C70.9805 18.4401 70.959 18.3398 70.959 18.2109C70.959 17.9961 71.0449 17.8242 71.2168 17.6953C71.3887 17.5521 71.5892 17.4303 71.8184 17.3301C72.0475 17.2298 72.2767 17.1367 72.5059 17.0508C72.7493 16.9648 72.9427 16.8646 73.0859 16.75V15.8047C73.0859 14.7448 73.0358 13.6849 72.9355 12.625C72.8353 11.5508 72.7852 10.4909 72.7852 9.44531C72.7852 9.15885 72.8568 8.97266 73 8.88672C73.1432 8.80078 73.3366 8.75781 73.5801 8.75781C73.8665 8.75781 74.0742 8.84375 74.2031 9.01562C74.3464 9.17318 74.4466 9.3737 74.5039 9.61719C74.5612 9.84635 74.5898 10.097 74.5898 10.3691C74.5898 10.627 74.597 10.849 74.6113 11.0352C74.6113 11.2214 74.6257 11.5508 74.6543 12.0234C74.6829 12.4961 74.7116 12.9974 74.7402 13.5273C74.7689 14.0573 74.7975 14.5586 74.8262 15.0312C74.8548 15.5039 74.8763 15.8333 74.8906 16.0195C74.9479 16.0052 75.0553 15.9694 75.2129 15.9121C75.3848 15.8405 75.5638 15.776 75.75 15.7188C75.9362 15.6471 76.1081 15.5827 76.2656 15.5254C76.4375 15.4681 76.5592 15.4251 76.6309 15.3965C77.0033 15.2389 77.39 15.0671 77.791 14.8809C78.1921 14.6803 78.6003 14.5801 79.0156 14.5801C79.3021 14.5801 79.5169 14.6803 79.6602 14.8809C79.8177 15.0671 79.8965 15.2891 79.8965 15.5469C79.8965 15.7331 79.8249 15.8691 79.6816 15.9551C79.5384 16.041 79.388 16.1198 79.2305 16.1914L75.3203 17.6523C75.2773 17.681 75.2344 17.7096 75.1914 17.7383C75.1484 17.7526 75.1055 17.7812 75.0625 17.8242V18.5117C75.0625 19.013 75.0697 19.5358 75.084 20.0801C75.1126 20.61 75.1628 21.1257 75.2344 21.627C75.306 22.0566 75.3848 22.4792 75.4707 22.8945C75.5566 23.3099 75.5996 23.7324 75.5996 24.1621C75.5996 24.291 75.5566 24.4629 75.4707 24.6777C75.3848 24.8926 75.2487 25 75.0625 25C74.6758 25 74.3607 24.8854 74.1172 24.6562C73.8737 24.4271 73.7376 24.1191 73.709 23.7324C73.6374 22.9876 73.5586 22.1712 73.4727 21.2832C73.401 20.3952 73.3294 19.543 73.2578 18.7266H73.1719ZM81.5938 24.1836C81.4505 22.7513 81.3288 21.5267 81.2285 20.5098C81.1283 19.4928 81.0423 18.6406 80.9707 17.9531C80.8991 17.2656 80.8346 16.7214 80.7773 16.3203C80.7344 15.9049 80.6986 15.597 80.6699 15.3965C80.6413 15.1816 80.6198 15.0384 80.6055 14.9668C80.5911 14.8952 80.584 14.8522 80.584 14.8379V14.752C80.584 14.5944 80.6484 14.4655 80.7773 14.3652C80.9206 14.2507 81.0638 14.1934 81.207 14.1934C81.4219 14.1934 81.651 14.2292 81.8945 14.3008C82.1523 14.3724 82.3242 14.5228 82.4102 14.752C82.5391 15.4538 82.625 16.1628 82.668 16.8789C82.7253 17.5951 82.7682 18.3112 82.7969 19.0273C82.8398 19.7292 82.89 20.4382 82.9473 21.1543C83.0189 21.8704 83.1406 22.5794 83.3125 23.2812C83.3125 23.3099 83.3197 23.3672 83.334 23.4531C83.3626 23.5391 83.3841 23.6322 83.3984 23.7324C83.4271 23.8327 83.4486 23.9258 83.4629 24.0117C83.4772 24.0977 83.4844 24.1549 83.4844 24.1836V24.2266C83.4844 24.2409 83.4915 24.2552 83.5059 24.2695C83.5059 24.4414 83.4271 24.6133 83.2695 24.7852C83.112 24.957 82.9473 25.0286 82.7754 25C82.7324 24.9857 82.625 24.9642 82.4531 24.9355C82.2956 24.8926 82.1882 24.8568 82.1309 24.8281C82.0879 24.8138 82.0306 24.7852 81.959 24.7422C81.8874 24.6849 81.8158 24.6276 81.7441 24.5703C81.6868 24.513 81.6367 24.4486 81.5938 24.377C81.5508 24.3053 81.5508 24.2409 81.5938 24.1836ZM80.3906 8.52148C80.3906 8.42122 80.4694 8.33529 80.627 8.26367C80.7988 8.17773 80.9277 8.13477 81.0137 8.13477C81.2285 8.13477 81.4648 8.19922 81.7227 8.32812C81.9948 8.44271 82.1309 8.62174 82.1309 8.86523C82.1309 9.10872 82.0951 9.27344 82.0234 9.35938C81.9661 9.44531 81.8158 9.48828 81.5723 9.48828C81.3145 9.48828 81.0495 9.40234 80.7773 9.23047C80.5195 9.05859 80.3906 8.82227 80.3906 8.52148ZM84.3652 21.7129L85.1602 16.1914C85.1888 16.0052 85.2676 15.8691 85.3965 15.7832C85.5397 15.6973 85.6973 15.6543 85.8691 15.6543C86.1842 15.6543 86.4349 15.7474 86.6211 15.9336C86.8073 16.1055 86.9648 16.3203 87.0938 16.5781H87.1152C87.2871 16.5781 87.4375 16.5495 87.5664 16.4922C87.7096 16.4206 87.8815 16.3848 88.082 16.3848C88.5404 16.3848 88.9271 16.528 89.2422 16.8145C89.5716 17.1009 89.8366 17.4518 90.0371 17.8672C90.2376 18.2682 90.3809 18.7051 90.4668 19.1777C90.5671 19.6504 90.6172 20.0658 90.6172 20.4238C90.6172 20.8535 90.5026 21.3333 90.2734 21.8633C90.0586 22.3932 89.765 22.8945 89.3926 23.3672C89.0345 23.8398 88.6263 24.2337 88.168 24.5488C87.7096 24.8639 87.2441 25.0215 86.7715 25.0215C86.3418 25.0215 85.9694 24.9212 85.6543 24.7207C85.3535 24.5202 85.1029 24.2695 84.9023 23.9688C84.7161 23.6536 84.5801 23.3027 84.4941 22.916C84.4082 22.5293 84.3652 22.1497 84.3652 21.7773V21.7129ZM86.1699 21.8418C86.1986 21.985 86.2272 22.1497 86.2559 22.3359C86.2845 22.5221 86.3275 22.694 86.3848 22.8516C86.4421 22.9948 86.5208 23.1094 86.6211 23.1953C86.7357 23.2669 86.8932 23.2669 87.0938 23.1953C87.2799 23.0234 87.4805 22.8301 87.6953 22.6152C87.9102 22.4004 88.1107 22.1712 88.2969 21.9277C88.4974 21.6842 88.6621 21.4264 88.791 21.1543C88.9199 20.8822 88.9844 20.5957 88.9844 20.2949C89.0417 19.8079 89.0059 19.3639 88.877 18.9629C88.748 18.5475 88.5618 18.2539 88.3184 18.082C88.0892 17.8958 87.8242 17.8743 87.5234 18.0176C87.2227 18.1465 86.9219 18.5117 86.6211 19.1133C86.4492 19.4857 86.3275 19.9225 86.2559 20.4238C86.1986 20.9108 86.1699 21.362 86.1699 21.7773V21.8418ZM97.6855 24.2695C97.485 23.9831 97.3132 23.5892 97.1699 23.0879C97.041 22.5723 96.9121 22.0352 96.7832 21.4766C96.6686 20.9036 96.5612 20.3522 96.4609 19.8223C96.3607 19.278 96.2533 18.8483 96.1387 18.5332C96.0384 18.2038 95.9238 18.0176 95.7949 17.9746C95.666 17.9316 95.5156 18.125 95.3438 18.5547L93.4746 24.3125C93.403 24.513 93.3171 24.6562 93.2168 24.7422C93.1165 24.8138 92.9518 24.8496 92.7227 24.8496C92.6081 24.8496 92.4863 24.8353 92.3574 24.8066C92.2285 24.7637 92.1068 24.7064 91.9922 24.6348C91.8776 24.5632 91.7773 24.4772 91.6914 24.377C91.6198 24.2767 91.5768 24.1621 91.5625 24.0332C91.6055 23.8613 91.6413 23.5462 91.6699 23.0879C91.7129 22.6296 91.7415 22.0996 91.7559 21.498C91.7702 20.8965 91.7773 20.2663 91.7773 19.6074C91.7917 18.9342 91.7917 18.3112 91.7773 17.7383C91.7773 17.151 91.7702 16.6497 91.7559 16.2344C91.7415 15.8047 91.7272 15.5254 91.7129 15.3965C91.7129 15.2533 91.7129 15.11 91.7129 14.9668C91.7272 14.8092 91.7487 14.666 91.7773 14.5371C91.8203 14.4082 91.8848 14.3079 91.9707 14.2363C92.071 14.1504 92.2214 14.1074 92.4219 14.1074C92.694 14.1074 92.9447 14.222 93.1738 14.4512C93.4173 14.6803 93.5391 14.9238 93.5391 15.1816C93.5391 15.554 93.5176 15.9264 93.4746 16.2988C93.446 16.6569 93.4316 17.0221 93.4316 17.3945C93.4316 17.6237 93.4316 17.8171 93.4316 17.9746C93.4316 18.1322 93.4603 18.3255 93.5176 18.5547C93.5605 18.4401 93.6322 18.2396 93.7324 17.9531C93.8327 17.6667 93.9401 17.3659 94.0547 17.0508C94.1836 16.7357 94.2982 16.4421 94.3984 16.1699C94.4987 15.8835 94.5703 15.6829 94.6133 15.5684C94.7135 15.2819 94.8639 15.0098 95.0645 14.752C95.265 14.4798 95.5299 14.3294 95.8594 14.3008C96.0742 14.2865 96.2676 14.3438 96.4395 14.4727C96.6257 14.6016 96.7832 14.7734 96.9121 14.9883C97.041 15.1888 97.1484 15.4036 97.2344 15.6328C97.3203 15.8477 97.3848 16.0339 97.4277 16.1914L98.5879 21.541L99.4902 23.9902C99.5046 24.0046 99.5117 24.0475 99.5117 24.1191C99.5117 24.1764 99.5117 24.2194 99.5117 24.248C99.5117 24.4199 99.4688 24.5918 99.3828 24.7637C99.3112 24.9212 99.1751 25 98.9746 25C98.7311 25 98.4805 24.9355 98.2227 24.8066C97.9648 24.6634 97.7858 24.4844 97.6855 24.2695Z" fill="black"/>
<defs>
<filter id="filter0_d_4645_1814" x="2.02832" y="1.65405" width="128.007" height="35.9953" filterUnits="userSpaceOnUse" color-interpolation-filters="sRGB">
<feFlood flood-opacity="0" result="BackgroundImageFix"/>
<feColorMatrix in="SourceAlpha" type="matrix" values="0 0 0 0 0 0 0 0 0 0 0 0 0 0 0 0 0 0 127 0" result="hardAlpha"/>
<feOffset dx="4" dy="4"/>
<feColorMatrix type="matrix" values="0 0 0 0 0.694118 0 0 0 0 0.721569 0 0 0 0 0.741176 0 0 0 1 0"/>
<feBlend mode="multiply" in2="BackgroundImageFix" result="effect1_dropShadow_4645_1814"/>
<feBlend mode="normal" in="SourceGraphic" in2="effect1_dropShadow_4645_1814" result="shape"/>
</filter>
</defs>
</svg>
