<svg width="131" height="38" viewBox="0 0 131 38" fill="none" xmlns="http://www.w3.org/2000/svg">
<g filter="url(#filter0_d_4566_2398)">
<path d="M2.02869 31.2777L2.56147 3.12567C2.57694 2.30845 3.24384 1.65405 4.0612 1.65405H15.6402L37.5229 2.29943L55.3823 1.92296L79.3257 1.65405H101.11L124.551 1.90695C125.373 1.91582 126.035 2.58475 126.035 3.40687V32.005C126.035 32.6651 125.603 33.2476 124.972 33.4399L124.498 33.5843C124.346 33.6305 124.188 33.6524 124.029 33.6491L82.9565 32.7935L41.1536 33.1162L3.51606 32.806C2.68139 32.7992 2.01289 32.1123 2.02869 31.2777Z" fill="white"/>
</g>
<path d="M2 1.70413C22.6743 1.70413 22.6743 2.16199 43.3377 2.16199C64.012 2.16199 64.012 1.65405 84.6863 1.65405C105.361 1.65405 105.361 2.06899 126.035 2.06899" stroke="black" stroke-width="3" stroke-miterlimit="10" stroke-linecap="round" stroke-linejoin="round"/>
<path d="M2 33.3525C22.6743 33.3525 22.6743 33.3048 43.3377 33.3048C64.012 33.3048 64.012 33.1461 84.6863 33.1461C105.361 33.1461 105.361 33.6541 126.035 33.6541" stroke="black" stroke-width="3" stroke-miterlimit="10" stroke-linecap="round" stroke-linejoin="round"/>
<path d="M126.951 33.4913C127.21 33.3432 126.351 1.77502 126.351 1.77502C126.351 1.77502 125.92 33.1934 126.065 33.4913C126.21 33.7891 126.744 33.6097 126.951 33.4913Z" stroke="black" stroke-width="3" stroke-miterlimit="10" stroke-linecap="round" stroke-linejoin="round"/>
<path d="M2.05548 33.3703C1.76106 33.2222 2.73905 1.65405 2.73905 1.65405C2.73905 1.65405 3.23003 33.0724 3.06456 33.3703C2.89908 33.6682 2.29102 33.4887 2.05548 33.3703Z" stroke="black" stroke-width="3" stroke-miterlimit="10" stroke-linecap="round" stroke-linejoin="round"/>
<path d="M24.1758 24.5273C24.0326 23.9544 23.9251 23.4173 23.8535 22.916C23.7819 22.4004 23.7318 21.8561 23.7031 21.2832C23.6888 20.9538 23.6888 20.6745 23.7031 20.4453C23.7174 20.2018 23.6888 19.9368 23.6172 19.6504C23.6029 19.5931 23.5671 19.5501 23.5098 19.5215C23.4668 19.4928 23.4167 19.457 23.3594 19.4141C23.3164 19.3711 23.2734 19.321 23.2305 19.2637C23.1875 19.1921 23.166 19.0846 23.166 18.9414C23.166 18.8268 23.1875 18.7266 23.2305 18.6406C23.2878 18.5547 23.3379 18.4759 23.3809 18.4043C23.4382 18.3184 23.4883 18.2324 23.5312 18.1465C23.5885 18.0462 23.6172 17.9316 23.6172 17.8027V17.4805C23.6172 17.3372 23.6029 17.0938 23.5742 16.75C23.5456 16.4062 23.5169 16.041 23.4883 15.6543C23.4596 15.2676 23.431 14.9023 23.4023 14.5586C23.388 14.2148 23.3737 13.9785 23.3594 13.8496C23.3451 13.6061 23.2806 13.3913 23.166 13.2051C23.0514 13.0189 22.9941 12.804 22.9941 12.5605C22.9941 12.1022 23.0872 11.7799 23.2734 11.5938C23.4596 11.4076 23.7891 11.3145 24.2617 11.3145C24.362 11.3145 24.4408 11.3574 24.498 11.4434C24.5697 11.5293 24.6484 11.5723 24.7344 11.5723H24.8203C24.8633 11.5579 24.9277 11.5436 25.0137 11.5293C25.0996 11.5007 25.1569 11.4863 25.1855 11.4863C26.3887 10.9707 27.3268 10.5697 28 10.2832C28.6732 9.99674 29.1816 9.78906 29.5254 9.66016C29.8691 9.53125 30.0983 9.45964 30.2129 9.44531C30.3418 9.43099 30.4492 9.44531 30.5352 9.48828C30.707 9.51693 30.8216 9.57422 30.8789 9.66016C30.9505 9.73177 30.9863 9.84635 30.9863 10.0039C30.9863 10.1471 30.9648 10.2904 30.9219 10.4336C30.8789 10.5768 30.7786 10.6842 30.6211 10.7559L27.8066 12.1094L27.7207 12.1953L25.3574 13.2051C25.2715 13.2337 25.2214 13.3053 25.207 13.4199C25.1927 13.5345 25.1855 13.6276 25.1855 13.6992C25.1855 13.8138 25.1999 14.0215 25.2285 14.3223C25.2572 14.623 25.2858 14.9382 25.3145 15.2676C25.3431 15.5827 25.3717 15.8691 25.4004 16.127C25.4434 16.3704 25.472 16.4922 25.4863 16.4922H25.5078C25.5078 16.4922 25.515 16.485 25.5293 16.4707C25.6868 16.3561 25.9375 16.1628 26.2812 15.8906C26.625 15.6042 26.9759 15.3177 27.334 15.0312C27.6921 14.7448 28.0072 14.4941 28.2793 14.2793C28.5514 14.0501 28.6947 13.9355 28.709 13.9355C28.8665 13.9355 29.0098 14.0143 29.1387 14.1719C29.2676 14.3294 29.332 14.4941 29.332 14.666C29.332 14.8379 29.2962 15.0312 29.2246 15.2461C29.153 15.4609 29.0384 15.6257 28.8809 15.7402L25.5293 18.7266C25.5293 18.7266 25.5293 18.7624 25.5293 18.834C25.5293 18.9056 25.5221 18.9844 25.5078 19.0703C25.5078 19.1562 25.5078 19.2493 25.5078 19.3496C25.5078 19.4355 25.5078 19.5072 25.5078 19.5645C25.5078 20.0801 25.5436 20.5957 25.6152 21.1113C25.6868 21.6126 25.7227 22.1211 25.7227 22.6367H25.8086C25.8229 22.6367 25.8874 22.5794 26.002 22.4648C26.1165 22.3503 26.2025 22.2572 26.2598 22.1855C26.2884 22.1426 26.3529 22.0495 26.4531 21.9062C26.5677 21.763 26.7539 21.5267 27.0117 21.1973C27.2695 20.8678 27.6133 20.431 28.043 19.8867C28.4727 19.3424 29.0241 18.6549 29.6973 17.8242C29.7546 17.7669 29.8333 17.681 29.9336 17.5664C30.0482 17.4518 30.1198 17.3945 30.1484 17.3945C30.1914 17.3516 30.2773 17.3372 30.4062 17.3516C30.5495 17.3516 30.6497 17.3659 30.707 17.3945C30.7786 17.4232 30.8717 17.502 30.9863 17.6309C31.1009 17.7598 31.1582 17.8815 31.1582 17.9961C31.1582 18.168 31.0651 18.3971 30.8789 18.6836C30.707 18.9557 30.4993 19.2422 30.2559 19.543C30.0124 19.8438 29.7689 20.1374 29.5254 20.4238C29.2819 20.696 29.0957 20.918 28.9668 21.0898C28.7663 21.4049 28.5228 21.7917 28.2363 22.25C27.9642 22.694 27.6634 23.1237 27.334 23.5391C27.0046 23.9401 26.6393 24.291 26.2383 24.5918C25.8516 24.8783 25.4362 25.0215 24.9922 25.0215C24.7773 25.0215 24.6198 24.9857 24.5195 24.9141C24.4336 24.8424 24.319 24.7135 24.1758 24.5273ZM32.8555 27.084C32.8411 26.9837 32.877 26.7832 32.9629 26.4824C33.0632 26.196 33.1849 25.8451 33.3281 25.4297C33.4857 25.0286 33.6504 24.5918 33.8223 24.1191C33.9941 23.6465 34.1589 23.1953 34.3164 22.7656C34.4883 22.3216 34.6315 21.9277 34.7461 21.584C34.875 21.2259 34.9538 20.9538 34.9824 20.7676C34.9824 20.7389 34.9753 20.696 34.9609 20.6387C34.9609 20.5814 34.9609 20.5456 34.9609 20.5312C34.7031 20.3737 34.4382 20.166 34.166 19.9082C33.9082 19.6361 33.6504 19.3568 33.3926 19.0703C33.1348 18.7695 32.8841 18.4688 32.6406 18.168C32.3971 17.8672 32.168 17.6022 31.9531 17.373V17.2871C31.9531 17.0579 32.0319 16.8789 32.1895 16.75C32.3613 16.6211 32.5547 16.5566 32.7695 16.5566C33.099 16.5566 33.3997 16.6784 33.6719 16.9219C33.9583 17.151 34.209 17.4089 34.4238 17.6953C34.653 17.9674 34.8535 18.2253 35.0254 18.4688C35.2116 18.6979 35.3691 18.8125 35.498 18.8125H35.584C35.5983 18.7409 35.627 18.6335 35.6699 18.4902C35.7272 18.3327 35.806 18.0964 35.9062 17.7812C36.0065 17.4661 36.1426 17.0508 36.3145 16.5352C36.4863 16.0195 36.7012 15.3607 36.959 14.5586C36.9876 14.4297 37.0807 14.3509 37.2383 14.3223C37.3958 14.2793 37.5319 14.2578 37.6465 14.2578C37.8613 14.2578 38.0547 14.3294 38.2266 14.4727C38.4128 14.6159 38.5059 14.8092 38.5059 15.0527V15.1816L37.002 20.3379L40.5039 23.3457L40.5898 23.6035V23.6465C40.5898 23.89 40.4967 24.069 40.3105 24.1836C40.1387 24.2982 39.9525 24.3555 39.752 24.3555C39.5371 24.3555 39.2721 24.2409 38.957 24.0117C38.6562 23.7826 38.3483 23.5319 38.0332 23.2598C37.7181 22.9876 37.4245 22.737 37.1523 22.5078C36.8945 22.2786 36.7012 22.1641 36.5723 22.1641H36.4863C36.2858 22.3503 36.1211 22.6081 35.9922 22.9375C35.8633 23.2669 35.7487 23.6322 35.6484 24.0332C35.5482 24.4199 35.4479 24.821 35.3477 25.2363C35.2474 25.6517 35.1257 26.0312 34.9824 26.375C34.8535 26.7331 34.696 27.041 34.5098 27.2988C34.3236 27.5566 34.0872 27.7214 33.8008 27.793C33.6146 27.793 33.4069 27.7285 33.1777 27.5996C32.9629 27.4707 32.8555 27.2988 32.8555 27.084ZM42.0078 21.1328C41.7357 21.0326 41.485 20.9108 41.2559 20.7676C41.041 20.6243 40.9336 20.388 40.9336 20.0586C40.9336 19.9727 40.9551 19.9154 40.998 19.8867C41.041 19.8581 41.0768 19.8151 41.1055 19.7578C41.1341 19.7148 41.1914 19.6361 41.2773 19.5215C41.3633 19.4069 41.4564 19.2852 41.5566 19.1562C41.6569 19.013 41.75 18.8841 41.8359 18.7695C41.9219 18.6406 41.9792 18.5547 42.0078 18.5117C42.0078 18.3255 41.9935 18.1035 41.9648 17.8457C41.9505 17.5736 41.9577 17.3229 41.9863 17.0938C42.0293 16.8503 42.1152 16.6497 42.2441 16.4922C42.373 16.3203 42.5879 16.2344 42.8887 16.2344C43.0605 16.2344 43.2038 16.2988 43.3184 16.4277C43.4329 16.5423 43.5762 16.5996 43.748 16.5996H43.834C44.4212 16.1413 45.0228 15.7402 45.6387 15.3965C46.2689 15.0384 46.9707 14.8594 47.7441 14.8594C48.2454 14.8594 48.6536 15.0098 48.9688 15.3105C49.2982 15.597 49.4629 16.0052 49.4629 16.5352C49.4629 17.194 49.3125 17.8743 49.0117 18.5762C48.7109 19.278 48.3314 19.9655 47.873 20.6387C47.429 21.2975 46.9421 21.9206 46.4121 22.5078C45.8965 23.0951 45.4238 23.6035 44.9941 24.0332C44.9512 24.0905 44.8867 24.1549 44.8008 24.2266C44.7148 24.2839 44.6361 24.3483 44.5645 24.4199C44.4785 24.4915 44.3854 24.5775 44.2852 24.6777L44.1133 29.6191C44.1133 29.748 44.1061 29.8841 44.0918 30.0273C44.0918 30.1706 44.0632 30.2995 44.0059 30.4141C43.9629 30.543 43.8913 30.6432 43.791 30.7148C43.7051 30.8008 43.5762 30.8438 43.4043 30.8438C43.3184 30.8438 43.2038 30.8223 43.0605 30.7793C42.9173 30.7507 42.7812 30.7005 42.6523 30.6289C42.5234 30.5573 42.4089 30.4714 42.3086 30.3711C42.2227 30.2708 42.1797 30.1562 42.1797 30.0273L42.0078 21.1328ZM44.0059 22.4863H44.0918C44.1061 22.4863 44.1491 22.4434 44.2207 22.3574C44.3066 22.2715 44.3997 22.1712 44.5 22.0566C44.6146 21.9421 44.722 21.8275 44.8223 21.7129C44.9368 21.584 45.0228 21.4837 45.0801 21.4121C45.5098 21.097 45.9036 20.7031 46.2617 20.2305C46.6198 19.7578 46.9062 19.2852 47.1211 18.8125C47.3503 18.3255 47.4863 17.8887 47.5293 17.502C47.5866 17.1152 47.5221 16.8503 47.3359 16.707C47.1641 16.5495 46.8561 16.5638 46.4121 16.75C45.9824 16.9362 45.3952 17.3659 44.6504 18.0391C44.4785 18.1823 44.321 18.347 44.1777 18.5332C44.0345 18.7194 43.9486 18.9271 43.9199 19.1562L44.0059 22.4863ZM59.3672 18.8984C59.3385 19.1562 59.3027 19.3568 59.2598 19.5C59.2311 19.6432 59.1738 19.7721 59.0879 19.8867C59.002 20.0013 58.8802 20.123 58.7227 20.252C58.5651 20.3665 58.3503 20.5384 58.0781 20.7676C57.806 20.9824 57.4694 21.2689 57.0684 21.627C56.6673 21.985 56.1803 22.4505 55.6074 23.0234C55.3783 23.2383 55.1419 23.4603 54.8984 23.6895C54.6549 23.9186 54.3971 24.1263 54.125 24.3125C53.8672 24.4844 53.5951 24.6276 53.3086 24.7422C53.0221 24.8568 52.7214 24.9141 52.4062 24.9141C51.7904 24.9141 51.3392 24.7064 51.0527 24.291C50.7663 23.8757 50.623 23.3958 50.623 22.8516C50.623 22.4935 50.6302 22.1927 50.6445 21.9492C50.6732 21.7057 50.7305 21.3906 50.8164 21.0039C50.6589 20.8607 50.5228 20.7389 50.4082 20.6387C50.2936 20.5241 50.2363 20.3737 50.2363 20.1875C50.2363 20.0156 50.2721 19.901 50.3438 19.8438C50.4297 19.7865 50.5228 19.7507 50.623 19.7363C50.7376 19.7077 50.8451 19.679 50.9453 19.6504C51.0456 19.6217 51.1172 19.5645 51.1602 19.4785C51.1888 19.3926 51.2389 19.235 51.3105 19.0059C51.3965 18.7767 51.4824 18.5404 51.5684 18.2969C51.6543 18.0391 51.7331 17.8027 51.8047 17.5879C51.8906 17.3587 51.9479 17.2012 51.9766 17.1152C52.0768 16.8717 52.1842 16.6283 52.2988 16.3848C52.4277 16.127 52.571 15.8978 52.7285 15.6973C52.9004 15.4967 53.0938 15.332 53.3086 15.2031C53.5378 15.0742 53.8027 15.0098 54.1035 15.0098C54.2754 15.0098 54.4831 15.0885 54.7266 15.2461C54.9844 15.4036 55.2279 15.597 55.457 15.8262C55.6862 16.041 55.8796 16.2702 56.0371 16.5137C56.1947 16.7572 56.2734 16.9648 56.2734 17.1367C56.2734 17.3516 56.2233 17.5521 56.123 17.7383C56.0228 17.9102 55.8939 18.0749 55.7363 18.2324C55.5931 18.3757 55.4355 18.5117 55.2637 18.6406C55.0918 18.7695 54.9342 18.8913 54.791 19.0059C54.7767 19.0059 54.748 19.0202 54.7051 19.0488C54.6621 19.0775 54.6263 19.099 54.5977 19.1133C54.5833 19.1276 54.5475 19.1634 54.4902 19.2207C54.4473 19.2637 54.3971 19.3138 54.3398 19.3711C54.2826 19.4284 54.2253 19.4857 54.168 19.543C54.125 19.6003 54.0964 19.6361 54.082 19.6504C54.0391 19.6934 53.9531 19.765 53.8242 19.8652C53.7096 19.9512 53.5807 20.0514 53.4375 20.166C53.2943 20.2663 53.1582 20.3665 53.0293 20.4668C52.9147 20.5527 52.8359 20.61 52.793 20.6387L52.707 20.8105C52.6784 20.8678 52.6497 20.9967 52.6211 21.1973C52.6068 21.3835 52.5853 21.5983 52.5566 21.8418C52.528 22.0853 52.4993 22.3359 52.4707 22.5938C52.4564 22.8372 52.4492 23.0378 52.4492 23.1953C52.4492 23.2096 52.4564 23.224 52.4707 23.2383C52.4993 23.2669 52.5208 23.2812 52.5352 23.2812C52.6497 23.2812 52.7572 23.2311 52.8574 23.1309C52.9577 23.0306 53.0651 22.959 53.1797 22.916L56.6172 19.7363L57.498 18.3828C57.5697 18.2826 57.7057 18.1751 57.9062 18.0605C58.1211 17.9316 58.3359 17.8672 58.5508 17.8672C58.7656 17.8529 58.9518 17.9173 59.1094 18.0605C59.2812 18.2038 59.3672 18.4831 59.3672 18.8984ZM54.6406 17.2227C54.7122 17.1654 54.7409 17.0794 54.7266 16.9648C54.7122 16.8503 54.6693 16.75 54.5977 16.6641C54.5404 16.5781 54.4616 16.528 54.3613 16.5137C54.2611 16.485 54.168 16.5352 54.082 16.6641C54.0391 16.7214 53.9603 16.8359 53.8457 17.0078C53.7454 17.1797 53.638 17.3587 53.5234 17.5449C53.4232 17.7168 53.3372 17.8672 53.2656 17.9961C53.194 18.125 53.1797 18.1751 53.2227 18.1465L54.6406 17.2227ZM60.9141 24.0762C60.8854 23.5605 60.8353 22.873 60.7637 22.0137C60.7064 21.14 60.6348 20.2376 60.5488 19.3066C60.4772 18.3757 60.3984 17.4948 60.3125 16.6641C60.2266 15.8333 60.1549 15.1888 60.0977 14.7305C60.0977 14.5443 60.1836 14.4225 60.3555 14.3652C60.5273 14.3079 60.6921 14.2793 60.8496 14.2793C61.0501 14.2793 61.2578 14.3366 61.4727 14.4512C61.7018 14.5658 61.8451 14.7233 61.9023 14.9238C61.9023 14.9811 61.9095 15.0885 61.9238 15.2461C61.9382 15.3893 61.9453 15.5397 61.9453 15.6973C61.9596 15.8548 61.974 16.0124 61.9883 16.1699C62.0026 16.3132 62.0098 16.4134 62.0098 16.4707C62.0098 16.5566 62.0098 16.6211 62.0098 16.6641C62.0098 16.707 62.0098 16.75 62.0098 16.793C62.0098 16.8216 62.0169 16.8574 62.0312 16.9004C62.0456 16.9434 62.0671 17.015 62.0957 17.1152C62.1243 17.0866 62.153 17.0508 62.1816 17.0078C62.2246 16.9648 62.2533 16.9362 62.2676 16.9219C62.4967 16.5924 62.7188 16.306 62.9336 16.0625C63.1484 15.8047 63.3704 15.5684 63.5996 15.3535C63.8288 15.1243 64.0794 14.888 64.3516 14.6445C64.638 14.3867 64.9674 14.0931 65.3398 13.7637C65.4258 13.6921 65.4902 13.6419 65.5332 13.6133C65.5762 13.5703 65.612 13.5417 65.6406 13.5273C65.6836 13.4987 65.7266 13.4844 65.7695 13.4844C65.8125 13.4701 65.8698 13.4629 65.9414 13.4629C66.1849 13.4629 66.4284 13.5488 66.6719 13.7207C66.9297 13.8783 67.0586 14.1003 67.0586 14.3867C67.0586 14.487 67.0228 14.5944 66.9512 14.709C66.8796 14.8092 66.7936 14.9095 66.6934 15.0098C66.5931 15.0957 66.4857 15.1745 66.3711 15.2461C66.2708 15.3177 66.1777 15.3678 66.0918 15.3965C65.7194 15.7259 65.3255 16.1055 64.9102 16.5352C64.4948 16.9505 64.1081 17.4017 63.75 17.8887C63.3919 18.3757 63.0983 18.8841 62.8691 19.4141C62.64 19.944 62.5254 20.474 62.5254 21.0039C62.5254 21.4909 62.5612 21.9707 62.6328 22.4434C62.7044 22.916 62.7402 23.3958 62.7402 23.8828V24.6348C62.6257 24.7493 62.5254 24.8424 62.4395 24.9141C62.3535 24.9857 62.2318 25.0215 62.0742 25.0215C61.8307 25.0215 61.5944 24.9212 61.3652 24.7207C61.1361 24.5059 60.9857 24.291 60.9141 24.0762ZM68.627 24.1836C68.4837 22.7513 68.362 21.5267 68.2617 20.5098C68.1615 19.4928 68.0755 18.6406 68.0039 17.9531C67.9323 17.2656 67.8678 16.7214 67.8105 16.3203C67.7676 15.9049 67.7318 15.597 67.7031 15.3965C67.6745 15.1816 67.653 15.0384 67.6387 14.9668C67.6243 14.8952 67.6172 14.8522 67.6172 14.8379V14.752C67.6172 14.5944 67.6816 14.4655 67.8105 14.3652C67.9538 14.2507 68.097 14.1934 68.2402 14.1934C68.4551 14.1934 68.6842 14.2292 68.9277 14.3008C69.1855 14.3724 69.3574 14.5228 69.4434 14.752C69.5723 15.4538 69.6582 16.1628 69.7012 16.8789C69.7585 17.5951 69.8014 18.3112 69.8301 19.0273C69.873 19.7292 69.9232 20.4382 69.9805 21.1543C70.0521 21.8704 70.1738 22.5794 70.3457 23.2812C70.3457 23.3099 70.3529 23.3672 70.3672 23.4531C70.3958 23.5391 70.4173 23.6322 70.4316 23.7324C70.4603 23.8327 70.4818 23.9258 70.4961 24.0117C70.5104 24.0977 70.5176 24.1549 70.5176 24.1836V24.2266C70.5176 24.2409 70.5247 24.2552 70.5391 24.2695C70.5391 24.4414 70.4603 24.6133 70.3027 24.7852C70.1452 24.957 69.9805 25.0286 69.8086 25C69.7656 24.9857 69.6582 24.9642 69.4863 24.9355C69.3288 24.8926 69.2214 24.8568 69.1641 24.8281C69.1211 24.8138 69.0638 24.7852 68.9922 24.7422C68.9206 24.6849 68.849 24.6276 68.7773 24.5703C68.7201 24.513 68.6699 24.4486 68.627 24.377C68.584 24.3053 68.584 24.2409 68.627 24.1836ZM67.4238 8.52148C67.4238 8.42122 67.5026 8.33529 67.6602 8.26367C67.832 8.17773 67.9609 8.13477 68.0469 8.13477C68.2617 8.13477 68.498 8.19922 68.7559 8.32812C69.028 8.44271 69.1641 8.62174 69.1641 8.86523C69.1641 9.10872 69.1283 9.27344 69.0566 9.35938C68.9993 9.44531 68.849 9.48828 68.6055 9.48828C68.3477 9.48828 68.0827 9.40234 67.8105 9.23047C67.5527 9.05859 67.4238 8.82227 67.4238 8.52148ZM80.3145 18.8984C80.2858 19.1562 80.25 19.3568 80.207 19.5C80.1784 19.6432 80.1211 19.7721 80.0352 19.8867C79.9492 20.0013 79.8275 20.123 79.6699 20.252C79.5124 20.3665 79.2975 20.5384 79.0254 20.7676C78.7533 20.9824 78.4167 21.2689 78.0156 21.627C77.6146 21.985 77.1276 22.4505 76.5547 23.0234C76.3255 23.2383 76.0892 23.4603 75.8457 23.6895C75.6022 23.9186 75.3444 24.1263 75.0723 24.3125C74.8145 24.4844 74.5423 24.6276 74.2559 24.7422C73.9694 24.8568 73.6686 24.9141 73.3535 24.9141C72.7376 24.9141 72.2865 24.7064 72 24.291C71.7135 23.8757 71.5703 23.3958 71.5703 22.8516C71.5703 22.4935 71.5775 22.1927 71.5918 21.9492C71.6204 21.7057 71.6777 21.3906 71.7637 21.0039C71.6061 20.8607 71.4701 20.7389 71.3555 20.6387C71.2409 20.5241 71.1836 20.3737 71.1836 20.1875C71.1836 20.0156 71.2194 19.901 71.291 19.8438C71.377 19.7865 71.4701 19.7507 71.5703 19.7363C71.6849 19.7077 71.7923 19.679 71.8926 19.6504C71.9928 19.6217 72.0645 19.5645 72.1074 19.4785C72.1361 19.3926 72.1862 19.235 72.2578 19.0059C72.3438 18.7767 72.4297 18.5404 72.5156 18.2969C72.6016 18.0391 72.6803 17.8027 72.752 17.5879C72.8379 17.3587 72.8952 17.2012 72.9238 17.1152C73.0241 16.8717 73.1315 16.6283 73.2461 16.3848C73.375 16.127 73.5182 15.8978 73.6758 15.6973C73.8477 15.4967 74.041 15.332 74.2559 15.2031C74.485 15.0742 74.75 15.0098 75.0508 15.0098C75.2227 15.0098 75.4303 15.0885 75.6738 15.2461C75.9316 15.4036 76.1751 15.597 76.4043 15.8262C76.6335 16.041 76.8268 16.2702 76.9844 16.5137C77.1419 16.7572 77.2207 16.9648 77.2207 17.1367C77.2207 17.3516 77.1706 17.5521 77.0703 17.7383C76.9701 17.9102 76.8411 18.0749 76.6836 18.2324C76.5404 18.3757 76.3828 18.5117 76.2109 18.6406C76.0391 18.7695 75.8815 18.8913 75.7383 19.0059C75.724 19.0059 75.6953 19.0202 75.6523 19.0488C75.6094 19.0775 75.5736 19.099 75.5449 19.1133C75.5306 19.1276 75.4948 19.1634 75.4375 19.2207C75.3945 19.2637 75.3444 19.3138 75.2871 19.3711C75.2298 19.4284 75.1725 19.4857 75.1152 19.543C75.0723 19.6003 75.0436 19.6361 75.0293 19.6504C74.9863 19.6934 74.9004 19.765 74.7715 19.8652C74.6569 19.9512 74.528 20.0514 74.3848 20.166C74.2415 20.2663 74.1055 20.3665 73.9766 20.4668C73.862 20.5527 73.7832 20.61 73.7402 20.6387L73.6543 20.8105C73.6257 20.8678 73.597 20.9967 73.5684 21.1973C73.554 21.3835 73.5326 21.5983 73.5039 21.8418C73.4753 22.0853 73.4466 22.3359 73.418 22.5938C73.4036 22.8372 73.3965 23.0378 73.3965 23.1953C73.3965 23.2096 73.4036 23.224 73.418 23.2383C73.4466 23.2669 73.4681 23.2812 73.4824 23.2812C73.597 23.2812 73.7044 23.2311 73.8047 23.1309C73.9049 23.0306 74.0124 22.959 74.127 22.916L77.5645 19.7363L78.4453 18.3828C78.5169 18.2826 78.653 18.1751 78.8535 18.0605C79.0684 17.9316 79.2832 17.8672 79.498 17.8672C79.7129 17.8529 79.8991 17.9173 80.0566 18.0605C80.2285 18.2038 80.3145 18.4831 80.3145 18.8984ZM75.5879 17.2227C75.6595 17.1654 75.6882 17.0794 75.6738 16.9648C75.6595 16.8503 75.6165 16.75 75.5449 16.6641C75.4876 16.5781 75.4089 16.528 75.3086 16.5137C75.2083 16.485 75.1152 16.5352 75.0293 16.6641C74.9863 16.7214 74.9076 16.8359 74.793 17.0078C74.6927 17.1797 74.5853 17.3587 74.4707 17.5449C74.3704 17.7168 74.2845 17.8672 74.2129 17.9961C74.1413 18.125 74.127 18.1751 74.1699 18.1465L75.5879 17.2227ZM87.0176 24.2695C86.8171 23.9831 86.6452 23.5892 86.502 23.0879C86.373 22.5723 86.2441 22.0352 86.1152 21.4766C86.0007 20.9036 85.8932 20.3522 85.793 19.8223C85.6927 19.278 85.5853 18.8483 85.4707 18.5332C85.3704 18.2038 85.2559 18.0176 85.127 17.9746C84.998 17.9316 84.8477 18.125 84.6758 18.5547L82.8066 24.3125C82.735 24.513 82.6491 24.6562 82.5488 24.7422C82.4486 24.8138 82.2839 24.8496 82.0547 24.8496C81.9401 24.8496 81.8184 24.8353 81.6895 24.8066C81.5605 24.7637 81.4388 24.7064 81.3242 24.6348C81.2096 24.5632 81.1094 24.4772 81.0234 24.377C80.9518 24.2767 80.9089 24.1621 80.8945 24.0332C80.9375 23.8613 80.9733 23.5462 81.002 23.0879C81.0449 22.6296 81.0736 22.0996 81.0879 21.498C81.1022 20.8965 81.1094 20.2663 81.1094 19.6074C81.1237 18.9342 81.1237 18.3112 81.1094 17.7383C81.1094 17.151 81.1022 16.6497 81.0879 16.2344C81.0736 15.8047 81.0592 15.5254 81.0449 15.3965C81.0449 15.2533 81.0449 15.11 81.0449 14.9668C81.0592 14.8092 81.0807 14.666 81.1094 14.5371C81.1523 14.4082 81.2168 14.3079 81.3027 14.2363C81.403 14.1504 81.5534 14.1074 81.7539 14.1074C82.026 14.1074 82.2767 14.222 82.5059 14.4512C82.7493 14.6803 82.8711 14.9238 82.8711 15.1816C82.8711 15.554 82.8496 15.9264 82.8066 16.2988C82.778 16.6569 82.7637 17.0221 82.7637 17.3945C82.7637 17.6237 82.7637 17.8171 82.7637 17.9746C82.7637 18.1322 82.7923 18.3255 82.8496 18.5547C82.8926 18.4401 82.9642 18.2396 83.0645 17.9531C83.1647 17.6667 83.2721 17.3659 83.3867 17.0508C83.5156 16.7357 83.6302 16.4421 83.7305 16.1699C83.8307 15.8835 83.9023 15.6829 83.9453 15.5684C84.0456 15.2819 84.196 15.0098 84.3965 14.752C84.597 14.4798 84.862 14.3294 85.1914 14.3008C85.4062 14.2865 85.5996 14.3438 85.7715 14.4727C85.9577 14.6016 86.1152 14.7734 86.2441 14.9883C86.373 15.1888 86.4805 15.4036 86.5664 15.6328C86.6523 15.8477 86.7168 16.0339 86.7598 16.1914L87.9199 21.541L88.8223 23.9902C88.8366 24.0046 88.8438 24.0475 88.8438 24.1191C88.8438 24.1764 88.8438 24.2194 88.8438 24.248C88.8438 24.4199 88.8008 24.5918 88.7148 24.7637C88.6432 24.9212 88.5072 25 88.3066 25C88.0632 25 87.8125 24.9355 87.5547 24.8066C87.2969 24.6634 87.1178 24.4844 87.0176 24.2695ZM89.7891 22.4219C89.6888 21.9922 89.6888 21.4837 89.7891 20.8965C89.9036 20.3092 90.0755 19.722 90.3047 19.1348C90.5482 18.5332 90.8418 17.9674 91.1855 17.4375C91.5436 16.9076 91.916 16.485 92.3027 16.1699C92.7038 15.8548 93.1048 15.6829 93.5059 15.6543C93.9212 15.6113 94.3151 15.7904 94.6875 16.1914C94.6875 16.2057 94.6947 16.2415 94.709 16.2988C94.7233 16.3561 94.7376 16.4779 94.752 16.6641C94.7663 16.8359 94.7734 17.0866 94.7734 17.416C94.7878 17.7311 94.7949 18.168 94.7949 18.7266C94.8092 18.7552 94.8236 18.8053 94.8379 18.877C94.8665 18.9342 94.8809 18.9772 94.8809 19.0059C94.8379 19.1634 94.752 19.3138 94.623 19.457C94.5085 19.5859 94.3581 19.6504 94.1719 19.6504C93.9284 19.6504 93.7279 19.6146 93.5703 19.543C93.4271 19.457 93.3197 19.2637 93.248 18.9629C93.2767 18.9199 93.2839 18.834 93.2695 18.7051C93.2552 18.5618 93.2266 18.4043 93.1836 18.2324C93.1549 18.0605 93.1263 17.8887 93.0977 17.7168C93.069 17.5449 93.0547 17.4089 93.0547 17.3086C93.0404 17.3086 93.0189 17.3229 92.9902 17.3516C92.9759 17.3659 92.9616 17.3802 92.9473 17.3945C92.7038 17.8242 92.4746 18.304 92.2598 18.834C92.0592 19.3496 91.9017 19.8796 91.7871 20.4238C91.6868 20.9538 91.651 21.4837 91.6797 22.0137C91.7227 22.5436 91.8802 23.0234 92.1523 23.4531C92.3529 23.4531 92.5391 23.3743 92.7109 23.2168C92.8828 23.0449 93.026 22.8874 93.1406 22.7441C93.3841 22.4577 93.6204 22.1641 93.8496 21.8633C94.0931 21.5625 94.3151 21.2474 94.5156 20.918C94.6016 20.7747 94.666 20.6458 94.709 20.5312C94.752 20.4167 94.8021 20.3236 94.8594 20.252C94.931 20.1803 95.0169 20.123 95.1172 20.0801C95.2174 20.0371 95.3678 20.0156 95.5684 20.0156C95.7975 20.0156 96.0124 20.0729 96.2129 20.1875C96.4134 20.2878 96.5137 20.4596 96.5137 20.7031C96.5137 21.0326 96.3633 21.4479 96.0625 21.9492C95.776 22.4362 95.418 22.9089 94.9883 23.3672C94.5729 23.8255 94.1289 24.2194 93.6562 24.5488C93.1836 24.8639 92.7682 25.0215 92.4102 25.0215C92.0664 25.0215 91.7298 24.957 91.4004 24.8281C91.0853 24.6849 90.806 24.4987 90.5625 24.2695C90.3333 24.0404 90.1471 23.7682 90.0039 23.4531C89.8607 23.138 89.7891 22.7943 89.7891 22.4219ZM106.375 18.8984C106.346 19.1562 106.311 19.3568 106.268 19.5C106.239 19.6432 106.182 19.7721 106.096 19.8867C106.01 20.0013 105.888 20.123 105.73 20.252C105.573 20.3665 105.358 20.5384 105.086 20.7676C104.814 20.9824 104.477 21.2689 104.076 21.627C103.675 21.985 103.188 22.4505 102.615 23.0234C102.386 23.2383 102.15 23.4603 101.906 23.6895C101.663 23.9186 101.405 24.1263 101.133 24.3125C100.875 24.4844 100.603 24.6276 100.316 24.7422C100.03 24.8568 99.7292 24.9141 99.4141 24.9141C98.7982 24.9141 98.347 24.7064 98.0605 24.291C97.7741 23.8757 97.6309 23.3958 97.6309 22.8516C97.6309 22.4935 97.638 22.1927 97.6523 21.9492C97.681 21.7057 97.7383 21.3906 97.8242 21.0039C97.6667 20.8607 97.5306 20.7389 97.416 20.6387C97.3014 20.5241 97.2441 20.3737 97.2441 20.1875C97.2441 20.0156 97.2799 19.901 97.3516 19.8438C97.4375 19.7865 97.5306 19.7507 97.6309 19.7363C97.7454 19.7077 97.8529 19.679 97.9531 19.6504C98.0534 19.6217 98.125 19.5645 98.168 19.4785C98.1966 19.3926 98.2467 19.235 98.3184 19.0059C98.4043 18.7767 98.4902 18.5404 98.5762 18.2969C98.6621 18.0391 98.7409 17.8027 98.8125 17.5879C98.8984 17.3587 98.9557 17.2012 98.9844 17.1152C99.0846 16.8717 99.1921 16.6283 99.3066 16.3848C99.4355 16.127 99.5788 15.8978 99.7363 15.6973C99.9082 15.4967 100.102 15.332 100.316 15.2031C100.546 15.0742 100.811 15.0098 101.111 15.0098C101.283 15.0098 101.491 15.0885 101.734 15.2461C101.992 15.4036 102.236 15.597 102.465 15.8262C102.694 16.041 102.887 16.2702 103.045 16.5137C103.202 16.7572 103.281 16.9648 103.281 17.1367C103.281 17.3516 103.231 17.5521 103.131 17.7383C103.031 17.9102 102.902 18.0749 102.744 18.2324C102.601 18.3757 102.443 18.5117 102.271 18.6406C102.1 18.7695 101.942 18.8913 101.799 19.0059C101.785 19.0059 101.756 19.0202 101.713 19.0488C101.67 19.0775 101.634 19.099 101.605 19.1133C101.591 19.1276 101.555 19.1634 101.498 19.2207C101.455 19.2637 101.405 19.3138 101.348 19.3711C101.29 19.4284 101.233 19.4857 101.176 19.543C101.133 19.6003 101.104 19.6361 101.09 19.6504C101.047 19.6934 100.961 19.765 100.832 19.8652C100.717 19.9512 100.589 20.0514 100.445 20.166C100.302 20.2663 100.166 20.3665 100.037 20.4668C99.9225 20.5527 99.8438 20.61 99.8008 20.6387L99.7148 20.8105C99.6862 20.8678 99.6576 20.9967 99.6289 21.1973C99.6146 21.3835 99.5931 21.5983 99.5645 21.8418C99.5358 22.0853 99.5072 22.3359 99.4785 22.5938C99.4642 22.8372 99.457 23.0378 99.457 23.1953C99.457 23.2096 99.4642 23.224 99.4785 23.2383C99.5072 23.2669 99.5286 23.2812 99.543 23.2812C99.6576 23.2812 99.765 23.2311 99.8652 23.1309C99.9655 23.0306 100.073 22.959 100.188 22.916L103.625 19.7363L104.506 18.3828C104.577 18.2826 104.714 18.1751 104.914 18.0605C105.129 17.9316 105.344 17.8672 105.559 17.8672C105.773 17.8529 105.96 17.9173 106.117 18.0605C106.289 18.2038 106.375 18.4831 106.375 18.8984ZM101.648 17.2227C101.72 17.1654 101.749 17.0794 101.734 16.9648C101.72 16.8503 101.677 16.75 101.605 16.6641C101.548 16.5781 101.469 16.528 101.369 16.5137C101.269 16.485 101.176 16.5352 101.09 16.6641C101.047 16.7214 100.968 16.8359 100.854 17.0078C100.753 17.1797 100.646 17.3587 100.531 17.5449C100.431 17.7168 100.345 17.8672 100.273 17.9961C100.202 18.125 100.188 18.1751 100.23 18.1465L101.648 17.2227Z" fill="black"/>
<defs>
<filter id="filter0_d_4566_2398" x="2.02832" y="1.65405" width="128.007" height="35.9953" filterUnits="userSpaceOnUse" color-interpolation-filters="sRGB">
<feFlood flood-opacity="0" result="BackgroundImageFix"/>
<feColorMatrix in="SourceAlpha" type="matrix" values="0 0 0 0 0 0 0 0 0 0 0 0 0 0 0 0 0 0 127 0" result="hardAlpha"/>
<feOffset dx="4" dy="4"/>
<feColorMatrix type="matrix" values="0 0 0 0 0.694118 0 0 0 0 0.721569 0 0 0 0 0.741176 0 0 0 1 0"/>
<feBlend mode="multiply" in2="BackgroundImageFix" result="effect1_dropShadow_4566_2398"/>
<feBlend mode="normal" in="SourceGraphic" in2="effect1_dropShadow_4566_2398" result="shape"/>
</filter>
</defs>
</svg>
