<svg width="127" height="38" viewBox="0 0 127 38" fill="none" xmlns="http://www.w3.org/2000/svg">
<g filter="url(#filter0_d_4566_2370)">
<path d="M2.02774 31.279L2.54335 3.12658C2.55832 2.309 3.22538 1.65405 4.0431 1.65405H15.2003L36.3773 2.29943L53.6608 1.92296L76.832 1.65405H97.9141L120.552 1.90643C121.374 1.91559 122.035 2.58443 122.035 3.40633V32.0157C122.035 32.6707 121.61 33.25 120.985 33.4465L120.561 33.5799C120.405 33.629 120.242 33.6523 120.079 33.6487L80.3457 32.7935L39.891 33.1162L3.51471 32.8064C2.68057 32.7993 2.01246 32.1131 2.02774 31.279Z" fill="white"/>
</g>
<path d="M2 1.70413C22.0076 1.70413 22.0076 2.16199 42.0046 2.16199C62.0122 2.16199 62.0122 1.65405 82.0198 1.65405C102.027 1.65405 102.027 2.06899 122.035 2.06899" stroke="black" stroke-width="3" stroke-miterlimit="10" stroke-linecap="round" stroke-linejoin="round"/>
<path d="M2 33.3525C22.0076 33.3525 22.0076 33.3048 42.0046 33.3048C62.0122 33.3048 62.0122 33.1461 82.0198 33.1461C102.027 33.1461 102.027 33.6541 122.035 33.6541" stroke="black" stroke-width="3" stroke-miterlimit="10" stroke-linecap="round" stroke-linejoin="round"/>
<path d="M122.951 33.4913C123.21 33.3432 122.351 1.77502 122.351 1.77502C122.351 1.77502 121.92 33.1934 122.065 33.4913C122.21 33.7891 122.744 33.6097 122.951 33.4913Z" stroke="black" stroke-width="3" stroke-miterlimit="10" stroke-linecap="round" stroke-linejoin="round"/>
<path d="M2.05548 33.3703C1.76106 33.2222 2.73905 1.65405 2.73905 1.65405C2.73905 1.65405 3.23003 33.0724 3.06456 33.3703C2.89908 33.6682 2.29102 33.4887 2.05548 33.3703Z" stroke="black" stroke-width="3" stroke-miterlimit="10" stroke-linecap="round" stroke-linejoin="round"/>
<path d="M46.3145 19.4785H46.25C46.25 20.0658 46.2572 20.6458 46.2715 21.2188C46.3001 21.7773 46.3145 22.3574 46.3145 22.959C46.3145 23.1309 46.3073 23.3027 46.293 23.4746C46.293 23.6322 46.2715 23.7826 46.2285 23.9258C46.1855 24.0547 46.1068 24.1621 45.9922 24.248C45.8919 24.3197 45.7344 24.3555 45.5195 24.3555C45.1185 24.3555 44.8392 24.1478 44.6816 23.7324C44.61 23.0592 44.5671 22.4004 44.5527 21.7559C44.5384 21.097 44.4954 20.4238 44.4238 19.7363C44.3952 19.5358 44.3092 19.3424 44.166 19.1562C44.0371 18.9701 43.9727 18.791 43.9727 18.6191C43.9727 18.4902 44.0156 18.3828 44.1016 18.2969C44.2018 18.2109 44.252 18.0892 44.252 17.9316C44.252 16.8145 44.2161 15.7116 44.1445 14.623C44.0872 13.5202 44.0586 12.4173 44.0586 11.3145V10.9492C44.1589 10.806 44.2591 10.7201 44.3594 10.6914C44.4596 10.6628 44.5957 10.6484 44.7676 10.6484C45.1829 10.6484 45.4479 10.7773 45.5625 11.0352C45.6771 11.2786 45.7415 11.5794 45.7559 11.9375L45.9492 17.6523C45.9635 17.6953 45.985 17.7669 46.0137 17.8672C46.0566 17.9531 46.1139 17.9961 46.1855 17.9961C46.2858 17.9961 46.472 17.9746 46.7441 17.9316C47.0163 17.8743 47.3027 17.8171 47.6035 17.7598C47.9043 17.6882 48.1764 17.6165 48.4199 17.5449C48.6634 17.459 48.8066 17.3802 48.8496 17.3086C48.8496 17.2083 48.8496 17.0293 48.8496 16.7715C48.8639 16.5137 48.8711 16.3346 48.8711 16.2344C48.8711 15.6328 48.8639 15.0384 48.8496 14.4512C48.8353 13.8639 48.8066 13.2695 48.7637 12.668C48.7637 12.5677 48.7422 12.3314 48.6992 11.959C48.6562 11.5723 48.6133 11.1569 48.5703 10.7129C48.5273 10.2689 48.4844 9.86068 48.4414 9.48828C48.4128 9.10156 48.3984 8.85807 48.3984 8.75781C48.3841 8.74349 48.377 8.70052 48.377 8.62891C48.377 8.54297 48.377 8.48568 48.377 8.45703C48.377 8.27083 48.4414 8.13477 48.5703 8.04883C48.7135 7.96289 48.8639 7.91992 49.0215 7.91992C49.3652 7.91992 49.6159 8.02734 49.7734 8.24219C49.9453 8.45703 50.0671 8.72201 50.1387 9.03711C50.153 9.19466 50.1745 9.45964 50.2031 9.83203C50.2318 10.2044 50.2676 10.6055 50.3105 11.0352C50.3535 11.4648 50.3893 11.873 50.418 12.2598C50.4609 12.6322 50.4896 12.89 50.5039 13.0332V13.377C50.5039 13.4486 50.5111 13.5918 50.5254 13.8066C50.554 14.0072 50.5755 14.1432 50.5898 14.2148V23.0234C50.6615 23.2669 50.7044 23.4674 50.7188 23.625C50.7474 23.7826 50.7617 23.9688 50.7617 24.1836C50.7617 24.3555 50.7116 24.5417 50.6113 24.7422C50.5254 24.9284 50.3678 25.0215 50.1387 25.0215C49.9382 25.0215 49.752 24.9714 49.5801 24.8711C49.4225 24.7708 49.2793 24.6419 49.1504 24.4844C49.0358 24.3268 48.9427 24.1549 48.8711 23.9688C48.7995 23.7682 48.7637 23.5677 48.7637 23.3672V18.9414L46.3145 19.4785ZM51.9434 21.7129L52.7383 16.1914C52.7669 16.0052 52.8457 15.8691 52.9746 15.7832C53.1178 15.6973 53.2754 15.6543 53.4473 15.6543C53.7624 15.6543 54.013 15.7474 54.1992 15.9336C54.3854 16.1055 54.543 16.3203 54.6719 16.5781H54.6934C54.8652 16.5781 55.0156 16.5495 55.1445 16.4922C55.2878 16.4206 55.4596 16.3848 55.6602 16.3848C56.1185 16.3848 56.5052 16.528 56.8203 16.8145C57.1497 17.1009 57.4147 17.4518 57.6152 17.8672C57.8158 18.2682 57.959 18.7051 58.0449 19.1777C58.1452 19.6504 58.1953 20.0658 58.1953 20.4238C58.1953 20.8535 58.0807 21.3333 57.8516 21.8633C57.6367 22.3932 57.3431 22.8945 56.9707 23.3672C56.6126 23.8398 56.2044 24.2337 55.7461 24.5488C55.2878 24.8639 54.8223 25.0215 54.3496 25.0215C53.9199 25.0215 53.5475 24.9212 53.2324 24.7207C52.9316 24.5202 52.681 24.2695 52.4805 23.9688C52.2943 23.6536 52.1582 23.3027 52.0723 22.916C51.9863 22.5293 51.9434 22.1497 51.9434 21.7773V21.7129ZM53.748 21.8418C53.7767 21.985 53.8053 22.1497 53.834 22.3359C53.8626 22.5221 53.9056 22.694 53.9629 22.8516C54.0202 22.9948 54.099 23.1094 54.1992 23.1953C54.3138 23.2669 54.4714 23.2669 54.6719 23.1953C54.8581 23.0234 55.0586 22.8301 55.2734 22.6152C55.4883 22.4004 55.6888 22.1712 55.875 21.9277C56.0755 21.6842 56.2402 21.4264 56.3691 21.1543C56.498 20.8822 56.5625 20.5957 56.5625 20.2949C56.6198 19.8079 56.584 19.3639 56.4551 18.9629C56.3262 18.5475 56.14 18.2539 55.8965 18.082C55.6673 17.8958 55.4023 17.8743 55.1016 18.0176C54.8008 18.1465 54.5 18.5117 54.1992 19.1133C54.0273 19.4857 53.9056 19.9225 53.834 20.4238C53.7767 20.9108 53.748 21.362 53.748 21.7773V21.8418ZM59.4629 17.9961C59.4342 17.6237 59.3984 17.2513 59.3555 16.8789C59.3268 16.4922 59.2767 16.1126 59.2051 15.7402C59.2051 15.4251 59.3053 15.2246 59.5059 15.1387C59.7207 15.0527 59.9499 15.0098 60.1934 15.0098H60.623C60.8379 15.11 60.9883 15.2318 61.0742 15.375C61.1602 15.5182 61.2174 15.6758 61.2461 15.8477C61.2747 16.0195 61.2819 16.1986 61.2676 16.3848C61.2676 16.571 61.2747 16.75 61.2891 16.9219C61.3034 16.9935 61.3105 17.1152 61.3105 17.2871C61.3105 17.459 61.3105 17.638 61.3105 17.8242C61.3249 18.0104 61.3392 18.1823 61.3535 18.3398C61.3822 18.4974 61.418 18.5977 61.4609 18.6406L63.3516 15.0957C63.4375 14.9382 63.5592 14.8092 63.7168 14.709C63.8887 14.5944 64.0749 14.5514 64.2754 14.5801C64.5905 14.6087 64.8268 14.6732 64.9844 14.7734C65.1419 14.8594 65.2493 14.9811 65.3066 15.1387C65.3783 15.2819 65.4141 15.4609 65.4141 15.6758C65.4284 15.8906 65.4427 16.127 65.457 16.3848C65.457 16.4707 65.4642 16.6354 65.4785 16.8789C65.4928 17.1081 65.5072 17.3516 65.5215 17.6094C65.5501 17.8672 65.5716 18.1107 65.5859 18.3398C65.6146 18.569 65.6361 18.7266 65.6504 18.8125H65.7363C65.765 18.7122 65.8151 18.5189 65.8867 18.2324C65.9727 17.946 66.0658 17.6452 66.166 17.3301C66.2663 17.015 66.3594 16.7142 66.4453 16.4277C66.5312 16.1413 66.5957 15.9408 66.6387 15.8262C66.653 15.7975 66.6816 15.7402 66.7246 15.6543C66.7676 15.554 66.8105 15.4538 66.8535 15.3535C66.8965 15.2389 66.9395 15.1387 66.9824 15.0527C67.0254 14.9525 67.054 14.8809 67.0684 14.8379C67.1686 14.6803 67.2689 14.6016 67.3691 14.6016C67.4837 14.5872 67.6055 14.5801 67.7344 14.5801C68.0924 14.5801 68.3646 14.6732 68.5508 14.8594C68.7513 15.0312 68.8945 15.2533 68.9805 15.5254C69.0807 15.7975 69.1523 16.0983 69.1953 16.4277C69.2383 16.7428 69.2884 17.0365 69.3457 17.3086C69.36 17.3086 69.3672 17.3229 69.3672 17.3516C69.3672 17.3659 69.36 17.3802 69.3457 17.3945L70.5273 23.6465C70.5846 23.7038 70.6133 23.7539 70.6133 23.7969C70.6276 23.8398 70.6348 23.8971 70.6348 23.9688C70.6348 24.1263 70.556 24.2839 70.3984 24.4414C70.2552 24.5846 70.1048 24.6562 69.9473 24.6562C69.7324 24.6562 69.4818 24.5775 69.1953 24.4199C68.9232 24.2624 68.7656 24.0618 68.7227 23.8184L67.7344 18.7266L67.627 18.5547C67.5983 18.6263 67.5339 18.834 67.4336 19.1777C67.3477 19.5072 67.2402 19.9297 67.1113 20.4453C66.9824 20.9466 66.832 21.5124 66.6602 22.1426C66.5026 22.7728 66.3379 23.4173 66.166 24.0762C66.1374 24.2051 66.0514 24.3053 65.9082 24.377C65.7793 24.4342 65.6647 24.4629 65.5645 24.4629C65.2637 24.4629 65.0202 24.4271 64.834 24.3555C64.6478 24.2839 64.5046 24.1764 64.4043 24.0332C64.304 23.89 64.2324 23.7181 64.1895 23.5176C64.1465 23.3171 64.1107 23.0879 64.082 22.8301C64.082 22.7728 64.0677 22.5723 64.0391 22.2285C64.0104 21.8704 63.9746 21.4694 63.9316 21.0254C63.903 20.5671 63.8672 20.1087 63.8242 19.6504C63.7812 19.1921 63.7526 18.8268 63.7383 18.5547C63.7383 18.4974 63.7383 18.4544 63.7383 18.4258C63.7383 18.3971 63.7383 18.3757 63.7383 18.3613C63.7383 18.3327 63.7311 18.304 63.7168 18.2754C63.7025 18.2324 63.6738 18.168 63.6309 18.082L63.0078 19.5645L62.0195 23.1953L61.8047 24.5273C61.7904 24.6133 61.7474 24.6921 61.6758 24.7637C61.6185 24.821 61.5469 24.8711 61.4609 24.9141C61.375 24.9427 61.2891 24.9642 61.2031 24.9785C61.1172 24.9928 61.0456 25 60.9883 25C60.6732 25 60.401 24.8854 60.1719 24.6562C59.957 24.4271 59.8424 24.1764 59.8281 23.9043C59.8138 23.804 59.7995 23.6107 59.7852 23.3242C59.7708 23.0234 59.7493 22.6725 59.7207 22.2715C59.6921 21.8704 59.6634 21.4479 59.6348 21.0039C59.6204 20.5599 59.599 20.1374 59.5703 19.7363C59.5417 19.3353 59.513 18.9844 59.4844 18.6836C59.4701 18.3828 59.4629 18.1823 59.4629 18.082V17.9961ZM80.6035 18.8984C80.5749 19.1562 80.5391 19.3568 80.4961 19.5C80.4674 19.6432 80.4102 19.7721 80.3242 19.8867C80.2383 20.0013 80.1165 20.123 79.959 20.252C79.8014 20.3665 79.5866 20.5384 79.3145 20.7676C79.0423 20.9824 78.7057 21.2689 78.3047 21.627C77.9036 21.985 77.4167 22.4505 76.8438 23.0234C76.6146 23.2383 76.3783 23.4603 76.1348 23.6895C75.8913 23.9186 75.6335 24.1263 75.3613 24.3125C75.1035 24.4844 74.8314 24.6276 74.5449 24.7422C74.2585 24.8568 73.9577 24.9141 73.6426 24.9141C73.0267 24.9141 72.5755 24.7064 72.2891 24.291C72.0026 23.8757 71.8594 23.3958 71.8594 22.8516C71.8594 22.4935 71.8665 22.1927 71.8809 21.9492C71.9095 21.7057 71.9668 21.3906 72.0527 21.0039C71.8952 20.8607 71.7591 20.7389 71.6445 20.6387C71.5299 20.5241 71.4727 20.3737 71.4727 20.1875C71.4727 20.0156 71.5085 19.901 71.5801 19.8438C71.666 19.7865 71.7591 19.7507 71.8594 19.7363C71.974 19.7077 72.0814 19.679 72.1816 19.6504C72.2819 19.6217 72.3535 19.5645 72.3965 19.4785C72.4251 19.3926 72.4753 19.235 72.5469 19.0059C72.6328 18.7767 72.7188 18.5404 72.8047 18.2969C72.8906 18.0391 72.9694 17.8027 73.041 17.5879C73.127 17.3587 73.1842 17.2012 73.2129 17.1152C73.3132 16.8717 73.4206 16.6283 73.5352 16.3848C73.6641 16.127 73.8073 15.8978 73.9648 15.6973C74.1367 15.4967 74.3301 15.332 74.5449 15.2031C74.7741 15.0742 75.0391 15.0098 75.3398 15.0098C75.5117 15.0098 75.7194 15.0885 75.9629 15.2461C76.2207 15.4036 76.4642 15.597 76.6934 15.8262C76.9225 16.041 77.1159 16.2702 77.2734 16.5137C77.431 16.7572 77.5098 16.9648 77.5098 17.1367C77.5098 17.3516 77.4596 17.5521 77.3594 17.7383C77.2591 17.9102 77.1302 18.0749 76.9727 18.2324C76.8294 18.3757 76.6719 18.5117 76.5 18.6406C76.3281 18.7695 76.1706 18.8913 76.0273 19.0059C76.013 19.0059 75.9844 19.0202 75.9414 19.0488C75.8984 19.0775 75.8626 19.099 75.834 19.1133C75.8197 19.1276 75.7839 19.1634 75.7266 19.2207C75.6836 19.2637 75.6335 19.3138 75.5762 19.3711C75.5189 19.4284 75.4616 19.4857 75.4043 19.543C75.3613 19.6003 75.3327 19.6361 75.3184 19.6504C75.2754 19.6934 75.1895 19.765 75.0605 19.8652C74.946 19.9512 74.8171 20.0514 74.6738 20.166C74.5306 20.2663 74.3945 20.3665 74.2656 20.4668C74.151 20.5527 74.0723 20.61 74.0293 20.6387L73.9434 20.8105C73.9147 20.8678 73.8861 20.9967 73.8574 21.1973C73.8431 21.3835 73.8216 21.5983 73.793 21.8418C73.7643 22.0853 73.7357 22.3359 73.707 22.5938C73.6927 22.8372 73.6855 23.0378 73.6855 23.1953C73.6855 23.2096 73.6927 23.224 73.707 23.2383C73.7357 23.2669 73.7572 23.2812 73.7715 23.2812C73.8861 23.2812 73.9935 23.2311 74.0938 23.1309C74.194 23.0306 74.3014 22.959 74.416 22.916L77.8535 19.7363L78.7344 18.3828C78.806 18.2826 78.9421 18.1751 79.1426 18.0605C79.3574 17.9316 79.5723 17.8672 79.7871 17.8672C80.002 17.8529 80.1882 17.9173 80.3457 18.0605C80.5176 18.2038 80.6035 18.4831 80.6035 18.8984ZM75.877 17.2227C75.9486 17.1654 75.9772 17.0794 75.9629 16.9648C75.9486 16.8503 75.9056 16.75 75.834 16.6641C75.7767 16.5781 75.6979 16.528 75.5977 16.5137C75.4974 16.485 75.4043 16.5352 75.3184 16.6641C75.2754 16.7214 75.1966 16.8359 75.082 17.0078C74.9818 17.1797 74.8743 17.3587 74.7598 17.5449C74.6595 17.7168 74.5736 17.8672 74.502 17.9961C74.4303 18.125 74.416 18.1751 74.459 18.1465L75.877 17.2227Z" fill="black"/>
<defs>
<filter id="filter0_d_4566_2370" x="2.02734" y="1.65405" width="124.008" height="35.995" filterUnits="userSpaceOnUse" color-interpolation-filters="sRGB">
<feFlood flood-opacity="0" result="BackgroundImageFix"/>
<feColorMatrix in="SourceAlpha" type="matrix" values="0 0 0 0 0 0 0 0 0 0 0 0 0 0 0 0 0 0 127 0" result="hardAlpha"/>
<feOffset dx="4" dy="4"/>
<feColorMatrix type="matrix" values="0 0 0 0 0.694118 0 0 0 0 0.721569 0 0 0 0 0.741176 0 0 0 1 0"/>
<feBlend mode="multiply" in2="BackgroundImageFix" result="effect1_dropShadow_4566_2370"/>
<feBlend mode="normal" in="SourceGraphic" in2="effect1_dropShadow_4566_2370" result="shape"/>
</filter>
</defs>
</svg>
