<svg width="131" height="38" viewBox="0 0 131 38" fill="none" xmlns="http://www.w3.org/2000/svg">
<g filter="url(#filter0_d_4646_1841)">
<path d="M2.02869 31.2777L2.56147 3.12567C2.57694 2.30845 3.24384 1.65405 4.0612 1.65405H15.6402L37.5229 2.29943L55.3823 1.92296L79.3257 1.65405H101.11L124.551 1.90695C125.373 1.91582 126.035 2.58475 126.035 3.40687V32.005C126.035 32.6651 125.603 33.2476 124.972 33.4399L124.498 33.5843C124.346 33.6305 124.188 33.6524 124.029 33.6491L82.9565 32.7935L41.1536 33.1162L3.51606 32.806C2.68139 32.7992 2.01289 32.1123 2.02869 31.2777Z" fill="white"/>
</g>
<path d="M2 1.70413C22.6743 1.70413 22.6743 2.16199 43.3377 2.16199C64.012 2.16199 64.012 1.65405 84.6863 1.65405C105.361 1.65405 105.361 2.06899 126.035 2.06899" stroke="black" stroke-width="3" stroke-miterlimit="10" stroke-linecap="round" stroke-linejoin="round"/>
<path d="M2 33.3525C22.6743 33.3525 22.6743 33.3048 43.3377 33.3048C64.012 33.3048 64.012 33.1461 84.6863 33.1461C105.361 33.1461 105.361 33.6541 126.035 33.6541" stroke="black" stroke-width="3" stroke-miterlimit="10" stroke-linecap="round" stroke-linejoin="round"/>
<path d="M126.951 33.4913C127.21 33.3432 126.351 1.77502 126.351 1.77502C126.351 1.77502 125.92 33.1934 126.065 33.4913C126.21 33.7891 126.744 33.6097 126.951 33.4913Z" stroke="black" stroke-width="3" stroke-miterlimit="10" stroke-linecap="round" stroke-linejoin="round"/>
<path d="M2.05548 33.3703C1.76106 33.2222 2.73905 1.65405 2.73905 1.65405C2.73905 1.65405 3.23003 33.0724 3.06456 33.3703C2.89908 33.6682 2.29102 33.4887 2.05548 33.3703Z" stroke="black" stroke-width="3" stroke-miterlimit="10" stroke-linecap="round" stroke-linejoin="round"/>
<path d="M16.6748 18.7334H16.625C16.625 19.1872 16.6305 19.6354 16.6416 20.0781C16.6637 20.5098 16.6748 20.958 16.6748 21.4229C16.6748 21.5557 16.6693 21.6885 16.6582 21.8213C16.6582 21.943 16.6416 22.0592 16.6084 22.1699C16.5752 22.2695 16.5143 22.3525 16.4258 22.4189C16.3483 22.4743 16.2266 22.502 16.0605 22.502C15.7507 22.502 15.5348 22.3415 15.4131 22.0205C15.3577 21.5003 15.3245 20.9912 15.3135 20.4932C15.3024 19.984 15.2692 19.4639 15.2139 18.9326C15.1917 18.7777 15.1253 18.6283 15.0146 18.4844C14.915 18.3405 14.8652 18.2021 14.8652 18.0693C14.8652 17.9697 14.8984 17.8867 14.9648 17.8203C15.0423 17.7539 15.0811 17.6598 15.0811 17.5381C15.0811 16.6748 15.0534 15.8226 14.998 14.9814C14.9538 14.1292 14.9316 13.277 14.9316 12.4248V12.1426C15.0091 12.0319 15.0866 11.9655 15.1641 11.9434C15.2415 11.9212 15.3467 11.9102 15.4795 11.9102C15.8005 11.9102 16.0052 12.0098 16.0938 12.209C16.1823 12.3971 16.2321 12.6296 16.2432 12.9062L16.3926 17.3223C16.4036 17.3555 16.4202 17.4108 16.4424 17.4883C16.4756 17.5547 16.5199 17.5879 16.5752 17.5879C16.6527 17.5879 16.7965 17.5713 17.0068 17.5381C17.2171 17.4938 17.4385 17.4495 17.6709 17.4053C17.9033 17.3499 18.1136 17.2946 18.3018 17.2393C18.4899 17.1729 18.6006 17.112 18.6338 17.0566C18.6338 16.9792 18.6338 16.8408 18.6338 16.6416C18.6449 16.4424 18.6504 16.304 18.6504 16.2266C18.6504 15.7617 18.6449 15.3024 18.6338 14.8486C18.6227 14.3949 18.6006 13.9355 18.5674 13.4707C18.5674 13.3932 18.5508 13.2106 18.5176 12.9229C18.4844 12.624 18.4512 12.3031 18.418 11.96C18.3848 11.6169 18.3516 11.3014 18.3184 11.0137C18.2962 10.7148 18.2852 10.5267 18.2852 10.4492C18.2741 10.4382 18.2686 10.4049 18.2686 10.3496C18.2686 10.2832 18.2686 10.2389 18.2686 10.2168C18.2686 10.0729 18.3184 9.96777 18.418 9.90137C18.5286 9.83496 18.6449 9.80176 18.7666 9.80176C19.0322 9.80176 19.2259 9.88477 19.3477 10.0508C19.4805 10.2168 19.5745 10.4215 19.6299 10.665C19.641 10.7868 19.6576 10.9915 19.6797 11.2793C19.7018 11.5671 19.7295 11.877 19.7627 12.209C19.7959 12.541 19.8236 12.8564 19.8457 13.1553C19.8789 13.443 19.901 13.6423 19.9121 13.7529V14.0186C19.9121 14.0739 19.9176 14.1846 19.9287 14.3506C19.9508 14.5055 19.9674 14.6107 19.9785 14.666V21.4727C20.0339 21.6608 20.0671 21.8158 20.0781 21.9375C20.1003 22.0592 20.1113 22.2031 20.1113 22.3691C20.1113 22.502 20.0726 22.6458 19.9951 22.8008C19.9287 22.9447 19.807 23.0166 19.6299 23.0166C19.4749 23.0166 19.3311 22.9779 19.1982 22.9004C19.0765 22.8229 18.9658 22.7233 18.8662 22.6016C18.7777 22.4798 18.7057 22.347 18.6504 22.2031C18.5951 22.0482 18.5674 21.8932 18.5674 21.7383V18.3184L16.6748 18.7334ZM21.0244 20.46L21.6387 16.1934C21.6608 16.0495 21.7217 15.9443 21.8213 15.8779C21.932 15.8115 22.0537 15.7783 22.1865 15.7783C22.43 15.7783 22.6237 15.8503 22.7676 15.9941C22.9115 16.127 23.0332 16.293 23.1328 16.4922H23.1494C23.2822 16.4922 23.3984 16.4701 23.498 16.4258C23.6087 16.3704 23.7415 16.3428 23.8965 16.3428C24.2507 16.3428 24.5495 16.4535 24.793 16.6748C25.0475 16.8962 25.2523 17.1673 25.4072 17.4883C25.5622 17.7982 25.6729 18.1357 25.7393 18.501C25.8167 18.8662 25.8555 19.1872 25.8555 19.4639C25.8555 19.7959 25.7669 20.1667 25.5898 20.5762C25.4238 20.9857 25.1969 21.373 24.9092 21.7383C24.6325 22.1035 24.3171 22.4079 23.9629 22.6514C23.6087 22.8949 23.249 23.0166 22.8838 23.0166C22.5518 23.0166 22.264 22.9391 22.0205 22.7842C21.7881 22.6292 21.5944 22.4355 21.4395 22.2031C21.2956 21.9596 21.1904 21.6885 21.124 21.3896C21.0576 21.0908 21.0244 20.7975 21.0244 20.5098V20.46ZM22.4189 20.5596C22.4411 20.6702 22.4632 20.7975 22.4854 20.9414C22.5075 21.0853 22.5407 21.2181 22.585 21.3398C22.6292 21.4505 22.6901 21.5391 22.7676 21.6055C22.8561 21.6608 22.9779 21.6608 23.1328 21.6055C23.2767 21.4727 23.4316 21.3232 23.5977 21.1572C23.7637 20.9912 23.9186 20.8141 24.0625 20.626C24.2174 20.4378 24.3447 20.2386 24.4443 20.0283C24.5439 19.818 24.5938 19.5967 24.5938 19.3643C24.638 18.988 24.6104 18.6449 24.5107 18.335C24.4111 18.014 24.2673 17.7871 24.0791 17.6543C23.902 17.5104 23.6973 17.4938 23.4648 17.6045C23.2324 17.7041 23 17.9863 22.7676 18.4512C22.6348 18.7389 22.5407 19.0765 22.4854 19.4639C22.4411 19.8402 22.4189 20.1888 22.4189 20.5098V20.5596ZM31.3174 22.4355C31.1624 22.2142 31.0296 21.9098 30.9189 21.5225C30.8193 21.124 30.7197 20.709 30.6201 20.2773C30.5316 19.8346 30.4486 19.4085 30.3711 18.999C30.2936 18.5785 30.2106 18.2464 30.1221 18.0029C30.0446 17.7484 29.9561 17.6045 29.8564 17.5713C29.7568 17.5381 29.6406 17.6875 29.5078 18.0195L28.0635 22.4688C28.0081 22.6237 27.9417 22.7344 27.8643 22.8008C27.7868 22.8561 27.6595 22.8838 27.4824 22.8838C27.3939 22.8838 27.2998 22.8727 27.2002 22.8506C27.1006 22.8174 27.0065 22.7731 26.918 22.7178C26.8294 22.6624 26.752 22.596 26.6855 22.5186C26.6302 22.4411 26.597 22.3525 26.5859 22.2529C26.6191 22.1201 26.6468 21.8766 26.6689 21.5225C26.7021 21.1683 26.7243 20.7588 26.7354 20.2939C26.7464 19.8291 26.752 19.3421 26.752 18.833C26.763 18.3128 26.763 17.8314 26.752 17.3887C26.752 16.9349 26.7464 16.5475 26.7354 16.2266C26.7243 15.8945 26.7132 15.6787 26.7021 15.5791C26.7021 15.4684 26.7021 15.3577 26.7021 15.2471C26.7132 15.1253 26.7298 15.0146 26.752 14.915C26.7852 14.8154 26.835 14.738 26.9014 14.6826C26.9788 14.6162 27.0951 14.583 27.25 14.583C27.4603 14.583 27.654 14.6715 27.8311 14.8486C28.0192 15.0257 28.1133 15.2139 28.1133 15.4131C28.1133 15.7008 28.0967 15.9886 28.0635 16.2764C28.0413 16.5531 28.0303 16.8353 28.0303 17.123C28.0303 17.3001 28.0303 17.4495 28.0303 17.5713C28.0303 17.693 28.0524 17.8424 28.0967 18.0195C28.1299 17.931 28.1852 17.776 28.2627 17.5547C28.3402 17.3333 28.4232 17.1009 28.5117 16.8574C28.6113 16.6139 28.6999 16.387 28.7773 16.1768C28.8548 15.9554 28.9102 15.8005 28.9434 15.7119C29.0208 15.4906 29.137 15.2803 29.292 15.0811C29.4469 14.8708 29.6517 14.7546 29.9062 14.7324C30.0723 14.7214 30.2217 14.7656 30.3545 14.8652C30.4984 14.9648 30.6201 15.0977 30.7197 15.2637C30.8193 15.4186 30.9023 15.5846 30.9688 15.7617C31.0352 15.9277 31.085 16.0716 31.1182 16.1934L32.0146 20.3271L32.7119 22.2197C32.723 22.2308 32.7285 22.264 32.7285 22.3193C32.7285 22.3636 32.7285 22.3968 32.7285 22.4189C32.7285 22.5518 32.6953 22.6846 32.6289 22.8174C32.5736 22.9391 32.4684 23 32.3135 23C32.1253 23 31.9316 22.9502 31.7324 22.8506C31.5332 22.7399 31.3949 22.6016 31.3174 22.4355ZM33.5088 20.46L34.123 16.1934C34.1452 16.0495 34.2061 15.9443 34.3057 15.8779C34.4163 15.8115 34.5381 15.7783 34.6709 15.7783C34.9144 15.7783 35.1081 15.8503 35.252 15.9941C35.3958 16.127 35.5176 16.293 35.6172 16.4922H35.6338C35.7666 16.4922 35.8828 16.4701 35.9824 16.4258C36.0931 16.3704 36.2259 16.3428 36.3809 16.3428C36.735 16.3428 37.0339 16.4535 37.2773 16.6748C37.5319 16.8962 37.7367 17.1673 37.8916 17.4883C38.0465 17.7982 38.1572 18.1357 38.2236 18.501C38.3011 18.8662 38.3398 19.1872 38.3398 19.4639C38.3398 19.7959 38.2513 20.1667 38.0742 20.5762C37.9082 20.9857 37.6813 21.373 37.3936 21.7383C37.1169 22.1035 36.8014 22.4079 36.4473 22.6514C36.0931 22.8949 35.7334 23.0166 35.3682 23.0166C35.0361 23.0166 34.7484 22.9391 34.5049 22.7842C34.2725 22.6292 34.0788 22.4355 33.9238 22.2031C33.7799 21.9596 33.6748 21.6885 33.6084 21.3896C33.542 21.0908 33.5088 20.7975 33.5088 20.5098V20.46ZM34.9033 20.5596C34.9255 20.6702 34.9476 20.7975 34.9697 20.9414C34.9919 21.0853 35.0251 21.2181 35.0693 21.3398C35.1136 21.4505 35.1745 21.5391 35.252 21.6055C35.3405 21.6608 35.4622 21.6608 35.6172 21.6055C35.7611 21.4727 35.916 21.3232 36.082 21.1572C36.248 20.9912 36.403 20.8141 36.5469 20.626C36.7018 20.4378 36.8291 20.2386 36.9287 20.0283C37.0283 19.818 37.0781 19.5967 37.0781 19.3643C37.1224 18.988 37.0947 18.6449 36.9951 18.335C36.8955 18.014 36.7516 17.7871 36.5635 17.6543C36.3864 17.5104 36.1816 17.4938 35.9492 17.6045C35.7168 17.7041 35.4844 17.9863 35.252 18.4512C35.1191 18.7389 35.0251 19.0765 34.9697 19.4639C34.9255 19.8402 34.9033 20.1888 34.9033 20.5098V20.5596ZM39.8174 22.2861C39.7952 21.8877 39.7565 21.3564 39.7012 20.6924C39.6569 20.0173 39.6016 19.32 39.5352 18.6006C39.4798 17.8812 39.4189 17.2005 39.3525 16.5586C39.2861 15.9167 39.2308 15.4186 39.1865 15.0645C39.1865 14.9206 39.2529 14.8265 39.3857 14.7822C39.5186 14.738 39.6458 14.7158 39.7676 14.7158C39.9225 14.7158 40.083 14.7601 40.249 14.8486C40.4261 14.9372 40.5368 15.0589 40.5811 15.2139C40.5811 15.2581 40.5866 15.3411 40.5977 15.4629C40.6087 15.5736 40.6143 15.6898 40.6143 15.8115C40.6253 15.9333 40.6364 16.055 40.6475 16.1768C40.6585 16.2874 40.6641 16.3649 40.6641 16.4092C40.6641 16.4756 40.6641 16.5254 40.6641 16.5586C40.6641 16.5918 40.6641 16.625 40.6641 16.6582C40.6641 16.6803 40.6696 16.708 40.6807 16.7412C40.6917 16.7744 40.7083 16.8298 40.7305 16.9072C40.7526 16.8851 40.7747 16.8574 40.7969 16.8242C40.8301 16.791 40.8522 16.7689 40.8633 16.7578C41.0404 16.5033 41.2119 16.2819 41.3779 16.0938C41.5439 15.8945 41.7155 15.7119 41.8926 15.5459C42.0697 15.3688 42.2633 15.1862 42.4736 14.998C42.695 14.7988 42.9495 14.5719 43.2373 14.3174C43.3037 14.262 43.3535 14.2233 43.3867 14.2012C43.4199 14.168 43.4476 14.1458 43.4697 14.1348C43.5029 14.1126 43.5361 14.1016 43.5693 14.1016C43.6025 14.0905 43.6468 14.085 43.7021 14.085C43.8903 14.085 44.0785 14.1514 44.2666 14.2842C44.4658 14.4059 44.5654 14.5775 44.5654 14.7988C44.5654 14.8763 44.5378 14.9593 44.4824 15.0479C44.4271 15.1253 44.3607 15.2028 44.2832 15.2803C44.2057 15.3467 44.1227 15.4076 44.0342 15.4629C43.9567 15.5182 43.8848 15.557 43.8184 15.5791C43.5306 15.8337 43.2262 16.127 42.9053 16.459C42.5843 16.7799 42.2855 17.1286 42.0088 17.5049C41.7321 17.8812 41.5052 18.2741 41.3281 18.6836C41.151 19.0931 41.0625 19.5026 41.0625 19.9121C41.0625 20.2884 41.0902 20.6592 41.1455 21.0244C41.2008 21.3896 41.2285 21.7604 41.2285 22.1367V22.7178C41.14 22.8063 41.0625 22.8783 40.9961 22.9336C40.9297 22.9889 40.8356 23.0166 40.7139 23.0166C40.5257 23.0166 40.3431 22.9391 40.166 22.7842C39.9889 22.6182 39.8727 22.4521 39.8174 22.2861ZM47.5039 22.3691C47.5039 22.3138 47.5039 22.264 47.5039 22.2197C47.515 22.1755 47.5426 22.1312 47.5869 22.0869C47.7197 21.9209 47.8691 21.7493 48.0352 21.5723C48.2012 21.3841 48.3617 21.2015 48.5166 21.0244C48.6715 20.8363 48.8154 20.6426 48.9482 20.4434C49.0811 20.2441 49.1917 20.0449 49.2803 19.8457V19.7461L47.1055 20.1943H46.8564C46.7015 20.1943 46.5078 20.1833 46.2754 20.1611C46.054 20.139 45.8327 20.0947 45.6113 20.0283C45.401 19.9508 45.2184 19.8457 45.0635 19.7129C44.9196 19.5801 44.8477 19.403 44.8477 19.1816C44.8587 18.9271 44.9915 18.6449 45.2461 18.335C45.5007 18.0251 45.7995 17.7207 46.1426 17.4219C46.4857 17.123 46.8288 16.8464 47.1719 16.5918C47.526 16.3372 47.8083 16.138 48.0186 15.9941C48.251 15.8613 48.5277 15.7562 48.8486 15.6787C49.1696 15.5902 49.4629 15.5459 49.7285 15.5459C49.9499 15.5459 50.1436 15.5902 50.3096 15.6787C50.4756 15.7562 50.5586 15.9167 50.5586 16.1602C50.5586 16.2598 50.5475 16.3538 50.5254 16.4424C50.5143 16.5309 50.4479 16.5918 50.3262 16.625C49.972 16.5918 49.64 16.6195 49.3301 16.708C49.0202 16.7855 48.7269 16.9072 48.4502 17.0732C48.1735 17.2393 47.9134 17.4385 47.6699 17.6709C47.4264 17.8923 47.1885 18.1247 46.9561 18.3682C46.8896 18.4456 46.8066 18.5563 46.707 18.7002C46.6074 18.833 46.5576 18.9105 46.5576 18.9326V18.9492C46.8454 18.9492 47.1276 18.9215 47.4043 18.8662C47.6921 18.8109 47.9743 18.7555 48.251 18.7002C48.5387 18.6338 48.821 18.5729 49.0977 18.5176C49.3854 18.4622 49.6787 18.4346 49.9775 18.4346C50.0882 18.4346 50.21 18.4456 50.3428 18.4678C50.4756 18.4788 50.5973 18.512 50.708 18.5674C50.8298 18.6227 50.9238 18.7002 50.9902 18.7998C51.0677 18.8883 51.1064 19.0046 51.1064 19.1484C51.1064 19.3587 51.0511 19.5635 50.9404 19.7627C50.8408 19.9508 50.6859 20.1833 50.4756 20.46C50.2764 20.7256 50.0163 21.0521 49.6953 21.4395C49.3854 21.8268 49.0146 22.3249 48.583 22.9336C48.5609 22.9668 48.5055 22.9889 48.417 23C48.3395 23.0111 48.2731 23.0166 48.2178 23.0166C48.0628 23.0166 47.9023 22.9502 47.7363 22.8174C47.5814 22.6846 47.5039 22.5352 47.5039 22.3691ZM63.3916 19.3477C63.4248 19.403 63.4248 19.4805 63.3916 19.5801C63.3695 19.6686 63.3307 19.7627 63.2754 19.8623C63.2311 19.9619 63.1758 20.0505 63.1094 20.1279C63.054 20.2054 62.9987 20.2497 62.9434 20.2607C62.6556 20.3493 62.3457 20.3604 62.0137 20.2939C61.3828 20.1833 60.835 19.9951 60.3701 19.7295C59.9163 19.4528 59.5345 19.0599 59.2246 18.5508C59.1914 18.5176 59.1416 18.4401 59.0752 18.3184C59.0199 18.1966 58.9867 18.1247 58.9756 18.1025C58.8538 17.7816 58.8538 17.4772 58.9756 17.1895C59.0973 16.9017 59.3242 16.7025 59.6562 16.5918C59.7005 16.5697 59.7669 16.5531 59.8555 16.542C59.944 16.5199 60.0436 16.5033 60.1543 16.4922C60.265 16.4701 60.3701 16.4535 60.4697 16.4424C60.5693 16.4202 60.6523 16.3981 60.7188 16.376C60.5306 16.1436 60.3037 15.9443 60.0381 15.7783C59.7835 15.6012 59.5068 15.3688 59.208 15.0811C59.1859 15.0589 59.1637 15.0312 59.1416 14.998C59.1305 14.9648 59.1195 14.9427 59.1084 14.9316C58.9313 14.6328 58.9922 14.4391 59.291 14.3506C59.3906 14.262 59.5456 14.1735 59.7559 14.085C59.9772 13.9854 60.2207 13.9023 60.4863 13.8359C60.752 13.7585 61.0286 13.7087 61.3164 13.6865C61.6152 13.6533 61.8919 13.6589 62.1465 13.7031C62.401 13.7363 62.6224 13.8193 62.8105 13.9521C63.0098 14.0739 63.1426 14.2565 63.209 14.5C63.3086 14.6217 63.3141 14.7324 63.2256 14.832C63.137 14.9206 63.0374 14.987 62.9268 15.0312C62.7829 15.0866 62.639 15.1143 62.4951 15.1143C62.3623 15.1032 62.2184 15.0921 62.0635 15.0811C61.9196 15.07 61.7702 15.0645 61.6152 15.0645C61.4603 15.0645 61.2943 15.0921 61.1172 15.1475L61.0176 15.1973C61.1836 15.3301 61.3662 15.4629 61.5654 15.5957C61.7757 15.7174 61.9749 15.8447 62.1631 15.9775C62.3623 16.0993 62.5394 16.221 62.6943 16.3428C62.8604 16.4645 62.9876 16.5863 63.0762 16.708C63.1426 16.8076 63.1592 16.9128 63.126 17.0234C63.1038 17.1341 63.0319 17.2061 62.9102 17.2393C62.7109 17.3057 62.5283 17.3499 62.3623 17.3721C62.1963 17.3942 62.0303 17.4108 61.8643 17.4219C61.6982 17.4329 61.5322 17.4495 61.3662 17.4717C61.2002 17.4827 61.0176 17.5215 60.8184 17.5879C60.6302 17.6764 60.5638 17.7982 60.6191 17.9531C60.6745 18.1081 60.7907 18.2686 60.9678 18.4346C61.1449 18.6006 61.3496 18.7555 61.582 18.8994C61.8145 19.0322 62.0192 19.1208 62.1963 19.165C62.2959 19.1982 62.4674 19.1982 62.7109 19.165C62.722 19.165 62.7718 19.1595 62.8604 19.1484C62.96 19.1374 63.0153 19.1263 63.0264 19.1152C63.137 19.1152 63.209 19.1374 63.2422 19.1816C63.2865 19.2148 63.3363 19.2702 63.3916 19.3477ZM60.9014 23.2822C60.8571 23.0609 60.8184 22.7952 60.7852 22.4854C60.752 22.1755 60.7077 21.9098 60.6523 21.6885C60.6745 21.5446 60.7298 21.4229 60.8184 21.3232C60.918 21.2236 61.0397 21.1572 61.1836 21.124C61.4603 21.0798 61.6706 21.1296 61.8145 21.2734C61.9583 21.4173 62.0469 21.6055 62.0801 21.8379C62.1022 21.9375 62.1299 22.0924 62.1631 22.3027C62.2074 22.513 62.2295 22.7233 62.2295 22.9336C62.2406 23.1439 62.2184 23.3265 62.1631 23.4814C62.1188 23.6475 62.0247 23.7305 61.8809 23.7305C61.7038 23.7305 61.5599 23.7305 61.4492 23.7305C61.3385 23.7305 61.2445 23.7194 61.167 23.6973C61.0895 23.6751 61.0286 23.6309 60.9844 23.5645C60.9512 23.498 60.9235 23.404 60.9014 23.2822ZM60.2373 11.9268C60.2262 11.8271 60.2207 11.7497 60.2207 11.6943C60.2207 11.639 60.2207 11.5892 60.2207 11.5449C60.2207 11.4896 60.2207 11.4342 60.2207 11.3789C60.2318 11.3125 60.2318 11.224 60.2207 11.1133C60.2318 10.9694 60.2871 10.8477 60.3867 10.748C60.4863 10.6374 60.6081 10.571 60.752 10.5488C61.0397 10.5046 61.2445 10.5544 61.3662 10.6982C61.499 10.8311 61.5931 11.0081 61.6484 11.2295C61.6595 11.3402 61.6761 11.5007 61.6982 11.7109C61.7204 11.9212 61.7259 12.137 61.7148 12.3584C61.7148 12.5687 61.6816 12.7568 61.6152 12.9229C61.5599 13.0778 61.4603 13.1553 61.3164 13.1553C61.1283 13.1553 60.9733 13.111 60.8516 13.0225C60.7298 12.9339 60.6247 12.8288 60.5361 12.707C60.4587 12.5853 60.3978 12.458 60.3535 12.3252C60.3092 12.1813 60.2705 12.0485 60.2373 11.9268ZM71.2607 21.9541C71.2607 21.29 71.305 20.6315 71.3936 19.9785C71.4821 19.3255 71.5596 18.6725 71.626 18.0195C71.626 17.9863 71.6315 17.9144 71.6426 17.8037C71.6536 17.682 71.6647 17.5547 71.6758 17.4219C71.6979 17.2891 71.7145 17.1673 71.7256 17.0566C71.7477 16.9349 71.7588 16.8574 71.7588 16.8242V16.7578L72.4561 11.5781C72.4339 11.3568 72.4671 11.1631 72.5557 10.9971C72.6553 10.82 72.8324 10.7314 73.0869 10.7314C73.3636 10.6982 73.5905 10.737 73.7676 10.8477C73.9557 10.9473 74.1107 11.0801 74.2324 11.2461C74.3542 11.4121 74.4538 11.5947 74.5312 11.7939C74.6087 11.9932 74.6917 12.1758 74.7803 12.3418C74.8356 12.4967 74.902 12.6794 74.9795 12.8896C75.068 13.0999 75.1676 13.3656 75.2783 13.6865C75.4001 14.0075 75.5384 14.4004 75.6934 14.8652C75.8594 15.3301 76.0475 15.8945 76.2578 16.5586L76.3242 16.625C76.4017 16.5807 76.5456 16.5088 76.7559 16.4092C76.9772 16.3096 77.2041 16.2044 77.4365 16.0938C77.68 15.9831 77.9069 15.8779 78.1172 15.7783C78.3275 15.6787 78.4769 15.6123 78.5654 15.5791C78.5765 15.557 78.6042 15.5404 78.6484 15.5293C78.7038 15.5072 78.7425 15.4906 78.7646 15.4795H78.7979C78.9085 15.4795 78.9915 15.5238 79.0469 15.6123C79.1022 15.6898 79.1299 15.7673 79.1299 15.8447C79.1299 15.9665 79.1022 16.0716 79.0469 16.1602C78.9915 16.2487 78.9251 16.3317 78.8477 16.4092C78.7812 16.4756 78.7038 16.542 78.6152 16.6084C78.5378 16.6748 78.4769 16.7467 78.4326 16.8242L76.7891 17.6543C76.7448 17.7096 76.7227 17.7539 76.7227 17.7871C76.7227 17.8757 76.7669 18.014 76.8555 18.2021C76.9551 18.3903 77.0326 18.5397 77.0879 18.6504C77.1211 18.7168 77.1764 18.8385 77.2539 19.0156C77.3314 19.1927 77.4144 19.3753 77.5029 19.5635C77.5915 19.7516 77.6745 19.9342 77.752 20.1113C77.8405 20.2773 77.9014 20.3936 77.9346 20.46V20.5098C77.9346 20.9082 77.7354 21.1074 77.3369 21.1074C77.2152 21.1074 77.0879 21.0964 76.9551 21.0742C76.8223 21.041 76.7227 20.958 76.6562 20.8252L75.5439 18.4512H75.3945C74.974 18.7721 74.5257 19.0876 74.0498 19.3975C73.5739 19.7074 73.0869 19.973 72.5889 20.1943C72.5114 20.5928 72.4616 20.9967 72.4395 21.4062C72.4284 21.8158 72.4339 22.2253 72.4561 22.6348C72.3675 22.7565 72.279 22.8506 72.1904 22.917C72.1019 22.9723 71.9801 23 71.8252 23C71.6702 23 71.554 22.9668 71.4766 22.9004C71.3991 22.8229 71.3438 22.7344 71.3105 22.6348C71.2773 22.5241 71.2607 22.4079 71.2607 22.2861C71.2607 22.1644 71.2607 22.0537 71.2607 21.9541ZM72.7383 18.7334C73.0703 18.6006 73.3913 18.4235 73.7012 18.2021C74.0221 17.9808 74.3265 17.776 74.6143 17.5879C74.6475 17.5658 74.6862 17.5436 74.7305 17.5215C74.7858 17.4993 74.8356 17.4717 74.8799 17.4385C74.9242 17.4053 74.9795 17.3665 75.0459 17.3223V17.1895L73.5186 12.8398L73.4521 12.7734C73.4189 12.8398 73.3747 13.028 73.3193 13.3379C73.2751 13.6478 73.2197 14.0518 73.1533 14.5498C73.098 15.0368 73.0316 15.6012 72.9541 16.2432C72.8877 16.8851 72.8158 17.5713 72.7383 18.3018V18.7334ZM81.6367 22.2031C81.5703 21.9486 81.3766 21.3011 81.0557 20.2607C80.7347 19.2093 80.2865 17.693 79.7109 15.7119C79.7109 15.6898 79.6999 15.6455 79.6777 15.5791C79.6667 15.5016 79.6611 15.4518 79.6611 15.4297C79.6833 15.2969 79.7829 15.2194 79.96 15.1973C80.137 15.1641 80.2699 15.153 80.3584 15.1641C80.6019 15.1973 80.779 15.2747 80.8896 15.3965C81.0114 15.5182 81.111 15.6953 81.1885 15.9277L82.1514 19.0986L82.2178 19.1816C82.3506 18.9603 82.4281 18.7057 82.4502 18.418C82.4723 18.1302 82.5 17.8535 82.5332 17.5879C82.5775 17.3112 82.6549 17.0622 82.7656 16.8408C82.8763 16.6195 83.0866 16.4645 83.3965 16.376C83.4629 16.376 83.5348 16.3926 83.6123 16.4258C83.6898 16.4479 83.7617 16.4867 83.8281 16.542C83.9056 16.5863 83.972 16.6416 84.0273 16.708C84.0827 16.7633 84.1214 16.8242 84.1436 16.8906L85.04 19.7627L85.2227 20.0117C85.2669 19.8125 85.3223 19.4915 85.3887 19.0488C85.4661 18.6061 85.5381 18.1468 85.6045 17.6709C85.682 17.1839 85.7484 16.7357 85.8037 16.3262C85.859 15.9056 85.8978 15.6178 85.9199 15.4629C85.9199 15.4408 85.9199 15.402 85.9199 15.3467C85.931 15.2913 85.9365 15.2526 85.9365 15.2305C86.0251 15.1309 86.1468 15.0589 86.3018 15.0146C86.4567 14.9593 86.5951 14.9427 86.7168 14.9648C86.7611 14.9759 86.8164 15.0036 86.8828 15.0479C86.9603 15.0811 87.0322 15.1309 87.0986 15.1973C87.165 15.2526 87.2148 15.3135 87.248 15.3799C87.2923 15.4463 87.3145 15.5072 87.3145 15.5625L86.3682 22.3691C86.3571 22.4355 86.3184 22.4909 86.252 22.5352C86.1855 22.5684 86.1081 22.6016 86.0195 22.6348C85.9421 22.6569 85.859 22.6735 85.7705 22.6846C85.693 22.6846 85.6322 22.6846 85.5879 22.6846C85.3223 22.585 85.0898 22.4245 84.8906 22.2031C84.7025 21.9707 84.5309 21.7161 84.376 21.4395C84.2321 21.1628 84.0993 20.8805 83.9775 20.5928C83.8669 20.2939 83.7451 20.0283 83.6123 19.7959L83.5459 19.7793C83.4684 19.8568 83.402 20.0283 83.3467 20.2939C83.3024 20.5596 83.2637 20.8418 83.2305 21.1406C83.1973 21.4395 83.1696 21.7106 83.1475 21.9541C83.1253 22.1865 83.1143 22.3138 83.1143 22.3359C83.0921 22.4909 82.987 22.6126 82.7988 22.7012C82.6217 22.7897 82.4613 22.8229 82.3174 22.8008C82.1624 22.7786 82.0241 22.7067 81.9023 22.585C81.7917 22.4521 81.7031 22.3249 81.6367 22.2031ZM91.9629 18.3682C91.8633 18.5452 91.7471 18.7611 91.6143 19.0156C91.4925 19.2591 91.3597 19.5247 91.2158 19.8125C91.0719 20.0892 90.9115 20.3714 90.7344 20.6592C90.5684 20.9359 90.3913 21.1904 90.2031 21.4229C90.026 21.6553 89.8379 21.8545 89.6387 22.0205C89.4395 22.1755 89.2347 22.2695 89.0244 22.3027C88.9359 22.3027 88.8363 22.2972 88.7256 22.2861C88.6149 22.264 88.5042 22.2363 88.3936 22.2031C88.2829 22.1589 88.1888 22.1035 88.1113 22.0371C88.0449 21.9596 88.0117 21.86 88.0117 21.7383C88.0228 20.6094 88.1058 19.5856 88.2607 18.667C88.4157 17.7373 88.6592 16.9238 88.9912 16.2266C89.3232 15.5182 89.7493 14.9316 90.2695 14.4668C90.7897 14.002 91.4206 13.6699 92.1621 13.4707C92.1842 13.4707 92.223 13.4707 92.2783 13.4707C92.3447 13.4596 92.389 13.4541 92.4111 13.4541C92.7432 13.443 92.9811 13.598 93.125 13.9189C93.2799 14.2288 93.3906 14.7269 93.457 15.4131C93.5345 16.0882 93.5843 16.9626 93.6064 18.0361C93.6396 19.0986 93.7005 20.377 93.7891 21.8711C93.8223 21.9928 93.8389 22.098 93.8389 22.1865C93.8499 22.2751 93.8555 22.3802 93.8555 22.502C93.8555 22.668 93.8057 22.7952 93.7061 22.8838C93.6064 22.9613 93.4792 23 93.3242 23C93.0033 23 92.7764 22.9115 92.6436 22.7344C92.5107 22.5573 92.4222 22.3193 92.3779 22.0205C92.3779 22.0094 92.3669 21.9209 92.3447 21.7549C92.3337 21.5889 92.3115 21.4007 92.2783 21.1904C92.2562 20.9691 92.234 20.7477 92.2119 20.5264C92.1898 20.305 92.1732 20.1224 92.1621 19.9785V19.9121C92.14 19.8014 92.1234 19.6631 92.1123 19.4971C92.1123 19.3311 92.1012 19.1706 92.0791 19.0156C92.057 18.8275 92.0404 18.6393 92.0293 18.4512L91.9629 18.3682ZM91.5977 15.0811C91.2988 15.3024 91.0055 15.6012 90.7178 15.9775C90.43 16.3538 90.2253 16.7191 90.1035 17.0732C90.0482 17.2393 89.9873 17.4661 89.9209 17.7539C89.8545 18.0417 89.7936 18.3294 89.7383 18.6172C89.694 18.8939 89.6553 19.154 89.6221 19.3975C89.5889 19.6299 89.5723 19.7793 89.5723 19.8457C89.5833 19.8457 89.5944 19.8346 89.6055 19.8125C89.6276 19.7904 89.6442 19.7738 89.6553 19.7627C90.3415 19.0986 90.8229 18.3848 91.0996 17.6211C91.3874 16.8464 91.5534 15.9997 91.5977 15.0811ZM95.4658 22.2861C95.4437 21.8877 95.4049 21.3564 95.3496 20.6924C95.3053 20.0173 95.25 19.32 95.1836 18.6006C95.1283 17.8812 95.0674 17.2005 95.001 16.5586C94.9346 15.9167 94.8792 15.4186 94.835 15.0645C94.835 14.9206 94.9014 14.8265 95.0342 14.7822C95.167 14.738 95.2943 14.7158 95.416 14.7158C95.571 14.7158 95.7314 14.7601 95.8975 14.8486C96.0745 14.9372 96.1852 15.0589 96.2295 15.2139C96.2295 15.2581 96.235 15.3411 96.2461 15.4629C96.2572 15.5736 96.2627 15.6898 96.2627 15.8115C96.2738 15.9333 96.2848 16.055 96.2959 16.1768C96.307 16.2874 96.3125 16.3649 96.3125 16.4092C96.3125 16.4756 96.3125 16.5254 96.3125 16.5586C96.3125 16.5918 96.3125 16.625 96.3125 16.6582C96.3125 16.6803 96.318 16.708 96.3291 16.7412C96.3402 16.7744 96.3568 16.8298 96.3789 16.9072C96.401 16.8851 96.4232 16.8574 96.4453 16.8242C96.4785 16.791 96.5007 16.7689 96.5117 16.7578C96.6888 16.5033 96.8604 16.2819 97.0264 16.0938C97.1924 15.8945 97.3639 15.7119 97.541 15.5459C97.7181 15.3688 97.9118 15.1862 98.1221 14.998C98.3434 14.7988 98.598 14.5719 98.8857 14.3174C98.9521 14.262 99.002 14.2233 99.0352 14.2012C99.0684 14.168 99.096 14.1458 99.1182 14.1348C99.1514 14.1126 99.1846 14.1016 99.2178 14.1016C99.251 14.0905 99.2952 14.085 99.3506 14.085C99.5387 14.085 99.7269 14.1514 99.915 14.2842C100.114 14.4059 100.214 14.5775 100.214 14.7988C100.214 14.8763 100.186 14.9593 100.131 15.0479C100.076 15.1253 100.009 15.2028 99.9316 15.2803C99.8542 15.3467 99.7712 15.4076 99.6826 15.4629C99.6051 15.5182 99.5332 15.557 99.4668 15.5791C99.179 15.8337 98.8747 16.127 98.5537 16.459C98.2327 16.7799 97.9339 17.1286 97.6572 17.5049C97.3805 17.8812 97.1536 18.2741 96.9766 18.6836C96.7995 19.0931 96.7109 19.5026 96.7109 19.9121C96.7109 20.2884 96.7386 20.6592 96.7939 21.0244C96.8493 21.3896 96.877 21.7604 96.877 22.1367V22.7178C96.7884 22.8063 96.7109 22.8783 96.6445 22.9336C96.5781 22.9889 96.484 23.0166 96.3623 23.0166C96.1742 23.0166 95.9915 22.9391 95.8145 22.7842C95.6374 22.6182 95.5212 22.4521 95.4658 22.2861ZM104.812 20.377C104.801 20.377 104.724 20.4987 104.58 20.7422C104.447 20.9857 104.265 21.2513 104.032 21.5391C103.8 21.8268 103.523 22.0924 103.202 22.3359C102.892 22.5794 102.56 22.7012 102.206 22.7012C101.719 22.7012 101.31 22.5518 100.978 22.2529C100.657 21.9541 100.496 21.5446 100.496 21.0244C100.474 20.7588 100.507 20.4434 100.596 20.0781C100.695 19.7129 100.834 19.3366 101.011 18.9492C101.199 18.5508 101.42 18.1689 101.675 17.8037C101.94 17.4274 102.223 17.1064 102.521 16.8408C102.82 16.5641 103.13 16.3594 103.451 16.2266C103.783 16.0938 104.115 16.0716 104.447 16.1602V15.9277C104.447 15.64 104.436 15.3467 104.414 15.0479C104.403 14.738 104.386 14.3893 104.364 14.002C104.353 13.6035 104.337 13.1497 104.314 12.6406C104.303 12.1204 104.298 11.5007 104.298 10.7812C104.331 10.6595 104.386 10.582 104.464 10.5488C104.552 10.5046 104.646 10.4824 104.746 10.4824C105.001 10.4824 105.2 10.5654 105.344 10.7314C105.499 10.8975 105.593 11.1022 105.626 11.3457C105.604 11.722 105.593 12.1094 105.593 12.5078C105.604 12.8952 105.626 13.3379 105.659 13.8359C105.692 14.334 105.742 14.8984 105.809 15.5293C105.886 16.1602 105.98 16.9072 106.091 17.7705C106.201 18.6227 106.334 19.6077 106.489 20.7256C106.644 21.8324 106.827 23.1162 107.037 24.5771V25.1416C107.037 25.208 107.009 25.2578 106.954 25.291C106.91 25.3242 106.849 25.3464 106.771 25.3574C106.705 25.3796 106.633 25.3906 106.556 25.3906C106.489 25.4017 106.439 25.4072 106.406 25.4072C106.24 25.4072 106.063 25.3574 105.875 25.2578C105.687 25.1693 105.576 25.042 105.543 24.876L104.929 20.4434C104.929 20.4102 104.912 20.3936 104.879 20.3936C104.857 20.3825 104.835 20.377 104.812 20.377ZM101.891 20.7422C101.891 20.7754 101.885 20.8363 101.874 20.9248C101.874 21.0023 101.874 21.0853 101.874 21.1738C101.885 21.2624 101.902 21.3398 101.924 21.4062C101.946 21.4727 101.99 21.5059 102.057 21.5059C102.333 21.5169 102.616 21.4118 102.903 21.1904C103.202 20.9691 103.473 20.6979 103.717 20.377C103.96 20.0449 104.16 19.6908 104.314 19.3145C104.48 18.9382 104.569 18.6006 104.58 18.3018C104.602 18.0029 104.53 17.776 104.364 17.6211C104.209 17.4551 103.938 17.4163 103.551 17.5049C103.075 17.9255 102.676 18.4069 102.355 18.9492C102.046 19.4915 101.891 20.0892 101.891 20.7422ZM109.992 22.3691C109.992 22.3138 109.992 22.264 109.992 22.2197C110.003 22.1755 110.031 22.1312 110.075 22.0869C110.208 21.9209 110.357 21.7493 110.523 21.5723C110.689 21.3841 110.85 21.2015 111.005 21.0244C111.16 20.8363 111.304 20.6426 111.437 20.4434C111.569 20.2441 111.68 20.0449 111.769 19.8457V19.7461L109.594 20.1943H109.345C109.19 20.1943 108.996 20.1833 108.764 20.1611C108.542 20.139 108.321 20.0947 108.1 20.0283C107.889 19.9508 107.707 19.8457 107.552 19.7129C107.408 19.5801 107.336 19.403 107.336 19.1816C107.347 18.9271 107.48 18.6449 107.734 18.335C107.989 18.0251 108.288 17.7207 108.631 17.4219C108.974 17.123 109.317 16.8464 109.66 16.5918C110.014 16.3372 110.297 16.138 110.507 15.9941C110.739 15.8613 111.016 15.7562 111.337 15.6787C111.658 15.5902 111.951 15.5459 112.217 15.5459C112.438 15.5459 112.632 15.5902 112.798 15.6787C112.964 15.7562 113.047 15.9167 113.047 16.1602C113.047 16.2598 113.036 16.3538 113.014 16.4424C113.003 16.5309 112.936 16.5918 112.814 16.625C112.46 16.5918 112.128 16.6195 111.818 16.708C111.508 16.7855 111.215 16.9072 110.938 17.0732C110.662 17.2393 110.402 17.4385 110.158 17.6709C109.915 17.8923 109.677 18.1247 109.444 18.3682C109.378 18.4456 109.295 18.5563 109.195 18.7002C109.096 18.833 109.046 18.9105 109.046 18.9326V18.9492C109.334 18.9492 109.616 18.9215 109.893 18.8662C110.18 18.8109 110.463 18.7555 110.739 18.7002C111.027 18.6338 111.309 18.5729 111.586 18.5176C111.874 18.4622 112.167 18.4346 112.466 18.4346C112.576 18.4346 112.698 18.4456 112.831 18.4678C112.964 18.4788 113.086 18.512 113.196 18.5674C113.318 18.6227 113.412 18.7002 113.479 18.7998C113.556 18.8883 113.595 19.0046 113.595 19.1484C113.595 19.3587 113.539 19.5635 113.429 19.7627C113.329 19.9508 113.174 20.1833 112.964 20.46C112.765 20.7256 112.505 21.0521 112.184 21.4395C111.874 21.8268 111.503 22.3249 111.071 22.9336C111.049 22.9668 110.994 22.9889 110.905 23C110.828 23.0111 110.761 23.0166 110.706 23.0166C110.551 23.0166 110.391 22.9502 110.225 22.8174C110.07 22.6846 109.992 22.5352 109.992 22.3691Z" fill="black"/>
<defs>
<filter id="filter0_d_4646_1841" x="2.02832" y="1.65405" width="128.007" height="35.9953" filterUnits="userSpaceOnUse" color-interpolation-filters="sRGB">
<feFlood flood-opacity="0" result="BackgroundImageFix"/>
<feColorMatrix in="SourceAlpha" type="matrix" values="0 0 0 0 0 0 0 0 0 0 0 0 0 0 0 0 0 0 127 0" result="hardAlpha"/>
<feOffset dx="4" dy="4"/>
<feColorMatrix type="matrix" values="0 0 0 0 0.694118 0 0 0 0 0.721569 0 0 0 0 0.741176 0 0 0 1 0"/>
<feBlend mode="multiply" in2="BackgroundImageFix" result="effect1_dropShadow_4646_1841"/>
<feBlend mode="normal" in="SourceGraphic" in2="effect1_dropShadow_4646_1841" result="shape"/>
</filter>
</defs>
</svg>
