<svg width="84" height="84" viewBox="0 0 84 84" fill="none" xmlns="http://www.w3.org/2000/svg">
<g filter="url(#filter0_i_4646_1866)">
<path d="M40.5596 0.0035762C51.9338 0.00357572 61.1284 -0.321916 68.7353 5.23777C76.3421 10.7975 82.0065 13.3245 83.7298 36.627C85.4531 59.9296 78.6435 68.7583 71.512 74.7812C64.3806 80.8042 59.863 85.739 42.1934 83.4126C24.5238 81.0862 19.6474 76.7759 12.3331 69.6481C5.01886 62.5204 -0.572991 53.6839 0.0469809 42.3408C0.666953 30.9977 4.22231 16.4566 13.7493 8.92643C23.2763 1.39625 30.5053 0.00357663 40.5596 0.0035762Z" fill="white"/>
</g>
<path d="M36.3457 55.1719C36.8874 54.4271 37.4798 53.8685 38.123 53.4961C38.8001 53.1237 39.4772 52.819 40.1543 52.582C40.8652 52.3451 41.5592 52.125 42.2363 51.9219C42.9473 51.6849 43.6413 51.3125 44.3184 50.8047C44.6908 50.6016 45.2155 50.2969 45.8926 49.8906C46.5697 49.4844 47.2298 49.0443 47.873 48.5703C48.5501 48.0625 49.1257 47.5716 49.5996 47.0977C50.1074 46.6237 50.3613 46.2174 50.3613 45.8789C50.3613 45.8451 50.3444 45.8281 50.3105 45.8281C50.2428 45.8281 50.209 45.8112 50.209 45.7773L50.1074 45.6758C49.9382 45.6081 49.6673 45.5234 49.2949 45.4219C48.9225 45.3203 48.7025 45.2526 48.6348 45.2188C44.2676 44.7109 40.7467 44.2708 38.0723 43.8984C35.4316 43.4922 33.3835 43.069 31.9277 42.6289C30.5059 42.1888 29.5579 41.681 29.084 41.1055C28.61 40.5299 28.373 39.8021 28.373 38.9219C28.373 38.5833 28.4408 38.2109 28.5762 37.8047C28.7116 37.3984 28.8639 36.9922 29.0332 36.5859C29.2363 36.1797 29.4395 35.8073 29.6426 35.4688C29.8457 35.1302 30.0319 34.8594 30.2012 34.6562C30.7428 33.9792 31.4538 33.3698 32.334 32.8281C33.2142 32.2865 34.1621 31.8125 35.1777 31.4062C36.1934 31 37.209 30.6445 38.2246 30.3398C39.2741 30.0352 40.222 29.7643 41.0684 29.5273C42.0163 29.4596 42.9642 29.2396 43.9121 28.8672C44.8939 28.4609 45.8587 28.1901 46.8066 28.0547C47.2806 28.0547 47.6699 28.2409 47.9746 28.6133C48.2793 28.9857 48.4316 29.375 48.4316 29.7812C48.4316 30.3568 48.3132 30.7969 48.0762 31.1016C47.873 31.3724 47.5853 31.5924 47.2129 31.7617C46.8743 31.8971 46.485 32.0156 46.0449 32.1172C45.6048 32.1849 45.1647 32.2695 44.7246 32.3711C44.4538 32.4388 44.0814 32.5404 43.6074 32.6758C43.1335 32.7773 42.6595 32.8958 42.1855 33.0312C41.7116 33.1667 41.2884 33.2852 40.916 33.3867C40.5436 33.4883 40.3236 33.556 40.2559 33.5898C39.2064 34.0299 38.2077 34.4531 37.2598 34.8594C36.3457 35.2318 35.5332 35.6211 34.8223 36.0273C34.1452 36.4336 33.6035 36.8737 33.1973 37.3477C32.8249 37.7878 32.6556 38.2786 32.6895 38.8203V38.8711C33.028 39.3451 33.7897 39.7005 34.9746 39.9375C36.1595 40.1745 37.5475 40.3776 39.1387 40.5469C40.7637 40.7161 42.4564 40.8854 44.2168 41.0547C46.0111 41.224 47.653 41.4779 49.1426 41.8164C50.6322 42.1549 51.8678 42.612 52.8496 43.1875C53.8314 43.763 54.3392 44.5417 54.373 45.5234C54.373 45.8958 54.2884 46.3359 54.1191 46.8438C53.9837 47.3516 53.7806 47.7409 53.5098 48.0117C52.6634 48.9596 51.6478 49.9414 50.4629 50.957C49.3118 51.9727 48.0592 52.9206 46.7051 53.8008C45.3509 54.6471 43.946 55.375 42.4902 55.9844C41.0684 56.5599 39.6634 56.8984 38.2754 57C37.8014 57 37.3613 56.8307 36.9551 56.4922C36.5488 56.1198 36.3457 55.6797 36.3457 55.1719Z" fill="black"/>
<defs>
<filter id="filter0_i_4646_1866" x="0" y="0" width="84" height="84" filterUnits="userSpaceOnUse" color-interpolation-filters="sRGB">
<feFlood flood-opacity="0" result="BackgroundImageFix"/>
<feBlend mode="normal" in="SourceGraphic" in2="BackgroundImageFix" result="shape"/>
<feColorMatrix in="SourceAlpha" type="matrix" values="0 0 0 0 0 0 0 0 0 0 0 0 0 0 0 0 0 0 127 0" result="hardAlpha"/>
<feOffset dx="8" dy="8"/>
<feComposite in2="hardAlpha" operator="arithmetic" k2="-1" k3="1"/>
<feColorMatrix type="matrix" values="0 0 0 0 0.694118 0 0 0 0 0.721569 0 0 0 0 0.741176 0 0 0 1 0"/>
<feBlend mode="multiply" in2="shape" result="effect1_innerShadow_4646_1866"/>
</filter>
</defs>
</svg>
