<svg width="131" height="38" viewBox="0 0 131 38" fill="none" xmlns="http://www.w3.org/2000/svg">
<g filter="url(#filter0_d_4566_2384)">
<path d="M2.02869 31.2777L2.56147 3.12567C2.57694 2.30845 3.24384 1.65405 4.0612 1.65405H15.6402L37.5229 2.29943L55.3823 1.92296L79.3257 1.65405H101.11L124.551 1.90695C125.373 1.91582 126.035 2.58475 126.035 3.40687V32.005C126.035 32.6651 125.603 33.2476 124.972 33.4399L124.498 33.5843C124.346 33.6305 124.188 33.6524 124.029 33.6491L82.9565 32.7935L41.1536 33.1162L3.51606 32.806C2.68139 32.7992 2.01289 32.1123 2.02869 31.2777Z" fill="white"/>
</g>
<path d="M2 1.70413C22.6743 1.70413 22.6743 2.16199 43.3377 2.16199C64.012 2.16199 64.012 1.65405 84.6863 1.65405C105.361 1.65405 105.361 2.06899 126.035 2.06899" stroke="black" stroke-width="3" stroke-miterlimit="10" stroke-linecap="round" stroke-linejoin="round"/>
<path d="M2 33.3525C22.6743 33.3525 22.6743 33.3048 43.3377 33.3048C64.012 33.3048 64.012 33.1461 84.6863 33.1461C105.361 33.1461 105.361 33.6541 126.035 33.6541" stroke="black" stroke-width="3" stroke-miterlimit="10" stroke-linecap="round" stroke-linejoin="round"/>
<path d="M126.951 33.4913C127.21 33.3432 126.351 1.77502 126.351 1.77502C126.351 1.77502 125.92 33.1934 126.065 33.4913C126.21 33.7891 126.744 33.6097 126.951 33.4913Z" stroke="black" stroke-width="3" stroke-miterlimit="10" stroke-linecap="round" stroke-linejoin="round"/>
<path d="M2.05548 33.3703C1.76106 33.2222 2.73905 1.65405 2.73905 1.65405C2.73905 1.65405 3.23003 33.0724 3.06456 33.3703C2.89908 33.6682 2.29102 33.4887 2.05548 33.3703Z" stroke="black" stroke-width="3" stroke-miterlimit="10" stroke-linecap="round" stroke-linejoin="round"/>
<path d="M34.0293 20.7246C34.0436 20.4382 34.0365 20.1517 34.0078 19.8652C33.9935 19.5788 33.972 19.2923 33.9434 19.0059C33.929 18.9342 33.9076 18.8197 33.8789 18.6621C33.8646 18.5046 33.8574 18.4115 33.8574 18.3828C33.8574 18.3685 33.8431 18.3398 33.8145 18.2969C33.7858 18.2396 33.7715 18.2038 33.7715 18.1895L33.8145 18.1465C33.8574 18.1035 33.8717 18.082 33.8574 18.082V13.9355H33.7715C33.5996 14.1361 33.3991 14.3509 33.1699 14.5801C32.9408 14.8092 32.6686 14.9238 32.3535 14.9238C32.1243 14.9238 31.9023 14.8451 31.6875 14.6875C31.487 14.5299 31.3867 14.3223 31.3867 14.0645V14.0215C31.3867 14.0072 31.3939 13.9857 31.4082 13.957C31.4225 13.9284 31.4368 13.8997 31.4512 13.8711C31.4655 13.8281 31.4798 13.7923 31.4941 13.7637L33.9004 11.6582V10.4766C33.9004 10.3333 33.9863 10.2259 34.1582 10.1543C34.3301 10.0684 34.4733 10.0254 34.5879 10.0254C34.7741 10.0254 34.946 10.0755 35.1035 10.1758C35.2611 10.2617 35.4186 10.3047 35.5762 10.3047C35.7194 10.3047 35.8483 10.2617 35.9629 10.1758C36.0775 10.0898 36.1921 10.0111 36.3066 9.93945C36.8509 9.61003 37.3737 9.35938 37.875 9.1875C38.3906 9.01562 38.9635 8.92969 39.5938 8.92969C39.8659 8.92969 40.1882 8.95833 40.5605 9.01562C40.9473 9.05859 41.3125 9.14453 41.6562 9.27344C42.0143 9.40234 42.3151 9.58138 42.5586 9.81055C42.8021 10.0397 42.9238 10.3333 42.9238 10.6914C42.9238 11.3359 42.7949 11.9518 42.5371 12.5391C42.2793 13.1263 41.9212 13.6491 41.4629 14.1074C40.8613 14.6803 40.2956 15.196 39.7656 15.6543C39.25 16.0983 38.6699 16.5495 38.0254 17.0078C38.0111 17.0221 37.9967 17.0436 37.9824 17.0723C37.9681 17.0866 37.9538 17.1009 37.9395 17.1152L35.8555 18.5547C35.7839 18.612 35.748 18.7194 35.748 18.877C35.748 19.0202 35.748 19.1133 35.748 19.1562C35.748 19.5716 35.7695 19.987 35.8125 20.4023C35.8698 20.8034 35.9271 21.2116 35.9844 21.627C36.0417 22.0423 36.0918 22.4577 36.1348 22.873C36.1921 23.2884 36.2207 23.7038 36.2207 24.1191C36.2207 24.3483 36.1634 24.556 36.0488 24.7422C35.9486 24.9141 35.7624 25 35.4902 25C35.2897 25 35.0749 24.9212 34.8457 24.7637C34.6309 24.5918 34.5091 24.3984 34.4805 24.1836L34.0293 20.7246ZM35.748 16.5781L39.6582 13.5918C39.8301 13.4629 40.002 13.2982 40.1738 13.0977C40.36 12.8828 40.5247 12.6608 40.668 12.4316C40.8255 12.1882 40.9544 11.9375 41.0547 11.6797C41.1549 11.4219 41.2051 11.1784 41.2051 10.9492C41.2051 10.806 41.1406 10.6986 41.0117 10.627C40.8971 10.541 40.7611 10.4837 40.6035 10.4551C40.446 10.4121 40.2812 10.3906 40.1094 10.3906C39.9518 10.3906 39.8229 10.3906 39.7227 10.3906C39.0781 10.3906 38.4837 10.541 37.9395 10.8418C37.4095 11.1283 36.901 11.4362 36.4141 11.7656C36.3854 11.7943 36.3281 11.8372 36.2422 11.8945C36.1562 11.9375 36.0703 11.9948 35.9844 12.0664C35.8984 12.1237 35.8197 12.181 35.748 12.2383C35.6908 12.2956 35.6621 12.3457 35.6621 12.3887V16.4707L35.748 16.5781ZM43.7617 24.0762C43.7331 23.5605 43.6829 22.873 43.6113 22.0137C43.554 21.14 43.4824 20.2376 43.3965 19.3066C43.3249 18.3757 43.2461 17.4948 43.1602 16.6641C43.0742 15.8333 43.0026 15.1888 42.9453 14.7305C42.9453 14.5443 43.0312 14.4225 43.2031 14.3652C43.375 14.3079 43.5397 14.2793 43.6973 14.2793C43.8978 14.2793 44.1055 14.3366 44.3203 14.4512C44.5495 14.5658 44.6927 14.7233 44.75 14.9238C44.75 14.9811 44.7572 15.0885 44.7715 15.2461C44.7858 15.3893 44.793 15.5397 44.793 15.6973C44.8073 15.8548 44.8216 16.0124 44.8359 16.1699C44.8503 16.3132 44.8574 16.4134 44.8574 16.4707C44.8574 16.5566 44.8574 16.6211 44.8574 16.6641C44.8574 16.707 44.8574 16.75 44.8574 16.793C44.8574 16.8216 44.8646 16.8574 44.8789 16.9004C44.8932 16.9434 44.9147 17.015 44.9434 17.1152C44.972 17.0866 45.0007 17.0508 45.0293 17.0078C45.0723 16.9648 45.1009 16.9362 45.1152 16.9219C45.3444 16.5924 45.5664 16.306 45.7812 16.0625C45.9961 15.8047 46.2181 15.5684 46.4473 15.3535C46.6764 15.1243 46.9271 14.888 47.1992 14.6445C47.4857 14.3867 47.8151 14.0931 48.1875 13.7637C48.2734 13.6921 48.3379 13.6419 48.3809 13.6133C48.4238 13.5703 48.4596 13.5417 48.4883 13.5273C48.5312 13.4987 48.5742 13.4844 48.6172 13.4844C48.6602 13.4701 48.7174 13.4629 48.7891 13.4629C49.0326 13.4629 49.276 13.5488 49.5195 13.7207C49.7773 13.8783 49.9062 14.1003 49.9062 14.3867C49.9062 14.487 49.8704 14.5944 49.7988 14.709C49.7272 14.8092 49.6413 14.9095 49.541 15.0098C49.4408 15.0957 49.3333 15.1745 49.2188 15.2461C49.1185 15.3177 49.0254 15.3678 48.9395 15.3965C48.5671 15.7259 48.1732 16.1055 47.7578 16.5352C47.3424 16.9505 46.9557 17.4017 46.5977 17.8887C46.2396 18.3757 45.946 18.8841 45.7168 19.4141C45.4876 19.944 45.373 20.474 45.373 21.0039C45.373 21.4909 45.4089 21.9707 45.4805 22.4434C45.5521 22.916 45.5879 23.3958 45.5879 23.8828V24.6348C45.4733 24.7493 45.373 24.8424 45.2871 24.9141C45.2012 24.9857 45.0794 25.0215 44.9219 25.0215C44.6784 25.0215 44.4421 24.9212 44.2129 24.7207C43.9837 24.5059 43.8333 24.291 43.7617 24.0762ZM50.5293 21.7129L51.3242 16.1914C51.3529 16.0052 51.4316 15.8691 51.5605 15.7832C51.7038 15.6973 51.8613 15.6543 52.0332 15.6543C52.3483 15.6543 52.599 15.7474 52.7852 15.9336C52.9714 16.1055 53.1289 16.3203 53.2578 16.5781H53.2793C53.4512 16.5781 53.6016 16.5495 53.7305 16.4922C53.8737 16.4206 54.0456 16.3848 54.2461 16.3848C54.7044 16.3848 55.0911 16.528 55.4062 16.8145C55.7357 17.1009 56.0007 17.4518 56.2012 17.8672C56.4017 18.2682 56.5449 18.7051 56.6309 19.1777C56.7311 19.6504 56.7812 20.0658 56.7812 20.4238C56.7812 20.8535 56.6667 21.3333 56.4375 21.8633C56.2227 22.3932 55.929 22.8945 55.5566 23.3672C55.1986 23.8398 54.7904 24.2337 54.332 24.5488C53.8737 24.8639 53.4082 25.0215 52.9355 25.0215C52.5059 25.0215 52.1335 24.9212 51.8184 24.7207C51.5176 24.5202 51.2669 24.2695 51.0664 23.9688C50.8802 23.6536 50.7441 23.3027 50.6582 22.916C50.5723 22.5293 50.5293 22.1497 50.5293 21.7773V21.7129ZM52.334 21.8418C52.3626 21.985 52.3913 22.1497 52.4199 22.3359C52.4486 22.5221 52.4915 22.694 52.5488 22.8516C52.6061 22.9948 52.6849 23.1094 52.7852 23.1953C52.8997 23.2669 53.0573 23.2669 53.2578 23.1953C53.444 23.0234 53.6445 22.8301 53.8594 22.6152C54.0742 22.4004 54.2747 22.1712 54.4609 21.9277C54.6615 21.6842 54.8262 21.4264 54.9551 21.1543C55.084 20.8822 55.1484 20.5957 55.1484 20.2949C55.2057 19.8079 55.1699 19.3639 55.041 18.9629C54.9121 18.5475 54.7259 18.2539 54.4824 18.082C54.2533 17.8958 53.9883 17.8743 53.6875 18.0176C53.3867 18.1465 53.0859 18.5117 52.7852 19.1133C52.6133 19.4857 52.4915 19.9225 52.4199 20.4238C52.3626 20.9108 52.334 21.362 52.334 21.7773V21.8418ZM54.7402 28.5449C54.7402 28.1296 54.7832 27.8288 54.8691 27.6426C54.9551 27.4707 55.0625 27.3776 55.1914 27.3633C55.3203 27.3633 55.4707 27.4206 55.6426 27.5352C55.8001 27.6497 55.9792 27.7786 56.1797 27.9219C56.3659 28.0651 56.5592 28.2012 56.7598 28.3301C56.946 28.4733 57.1322 28.5592 57.3184 28.5879C57.7194 28.5879 58.0488 28.4447 58.3066 28.1582C58.5645 27.8861 58.765 27.5495 58.9082 27.1484C59.0658 26.7617 59.166 26.3535 59.209 25.9238C59.2663 25.4941 59.2949 25.1361 59.2949 24.8496C59.2949 24.821 59.2949 24.778 59.2949 24.7207C59.2949 24.6491 59.2806 24.5059 59.252 24.291C59.2376 24.0762 59.2161 23.7611 59.1875 23.3457C59.1589 22.916 59.1087 22.3431 59.0371 21.627C58.9798 20.9108 58.901 20.0156 58.8008 18.9414C58.7148 17.8529 58.6003 16.5352 58.457 14.9883C58.457 14.7734 58.5072 14.5944 58.6074 14.4512C58.722 14.3079 58.8939 14.2363 59.123 14.2363C59.4095 14.2363 59.6458 14.2793 59.832 14.3652C60.0182 14.4368 60.1901 14.6087 60.3477 14.8809C60.3477 15.0527 60.3548 15.2461 60.3691 15.4609C60.3835 15.6615 60.4049 15.9264 60.4336 16.2559C60.4622 16.571 60.498 16.972 60.541 17.459C60.5983 17.9316 60.6556 18.5189 60.7129 19.2207C60.7845 19.9082 60.8561 20.7389 60.9277 21.7129C61.0137 22.6725 61.0996 23.7969 61.1855 25.0859C61.1855 25.5586 61.1426 26.0456 61.0566 26.5469C60.985 27.0482 60.849 27.5208 60.6484 27.9648C60.4479 28.4232 60.1758 28.8242 59.832 29.168C59.4883 29.526 59.0586 29.7839 58.543 29.9414C58.457 29.9128 58.3711 29.9199 58.2852 29.9629C58.1992 30.0059 58.1133 30.0273 58.0273 30.0273C57.7409 30.0273 57.4329 29.9987 57.1035 29.9414C56.7741 29.8841 56.4518 29.7982 56.1367 29.6836C55.8216 29.569 55.5423 29.4115 55.2988 29.2109C55.041 29.0247 54.8548 28.8027 54.7402 28.5449ZM57.4473 9.35938C57.4473 9.13021 57.5332 8.97982 57.7051 8.9082C57.8913 8.82227 58.0703 8.7793 58.2422 8.7793C58.5143 8.7793 58.7721 8.85807 59.0156 9.01562C59.2591 9.17318 59.3809 9.41667 59.3809 9.74609C59.3809 9.93229 59.2806 10.0684 59.0801 10.1543C58.8939 10.2259 58.7292 10.2617 58.5859 10.2617C58.4857 10.2617 58.3711 10.2402 58.2422 10.1973C58.1133 10.14 57.9844 10.0684 57.8555 9.98242C57.7409 9.89648 57.6406 9.80339 57.5547 9.70312C57.4831 9.58854 57.4473 9.47396 57.4473 9.35938ZM71.0254 18.8984C70.9967 19.1562 70.9609 19.3568 70.918 19.5C70.8893 19.6432 70.832 19.7721 70.7461 19.8867C70.6602 20.0013 70.5384 20.123 70.3809 20.252C70.2233 20.3665 70.0085 20.5384 69.7363 20.7676C69.4642 20.9824 69.1276 21.2689 68.7266 21.627C68.3255 21.985 67.8385 22.4505 67.2656 23.0234C67.0365 23.2383 66.8001 23.4603 66.5566 23.6895C66.3132 23.9186 66.0553 24.1263 65.7832 24.3125C65.5254 24.4844 65.2533 24.6276 64.9668 24.7422C64.6803 24.8568 64.3796 24.9141 64.0645 24.9141C63.4486 24.9141 62.9974 24.7064 62.7109 24.291C62.4245 23.8757 62.2812 23.3958 62.2812 22.8516C62.2812 22.4935 62.2884 22.1927 62.3027 21.9492C62.3314 21.7057 62.3887 21.3906 62.4746 21.0039C62.3171 20.8607 62.181 20.7389 62.0664 20.6387C61.9518 20.5241 61.8945 20.3737 61.8945 20.1875C61.8945 20.0156 61.9303 19.901 62.002 19.8438C62.0879 19.7865 62.181 19.7507 62.2812 19.7363C62.3958 19.7077 62.5033 19.679 62.6035 19.6504C62.7038 19.6217 62.7754 19.5645 62.8184 19.4785C62.847 19.3926 62.8971 19.235 62.9688 19.0059C63.0547 18.7767 63.1406 18.5404 63.2266 18.2969C63.3125 18.0391 63.3913 17.8027 63.4629 17.5879C63.5488 17.3587 63.6061 17.2012 63.6348 17.1152C63.735 16.8717 63.8424 16.6283 63.957 16.3848C64.0859 16.127 64.2292 15.8978 64.3867 15.6973C64.5586 15.4967 64.752 15.332 64.9668 15.2031C65.196 15.0742 65.4609 15.0098 65.7617 15.0098C65.9336 15.0098 66.1413 15.0885 66.3848 15.2461C66.6426 15.4036 66.8861 15.597 67.1152 15.8262C67.3444 16.041 67.5378 16.2702 67.6953 16.5137C67.8529 16.7572 67.9316 16.9648 67.9316 17.1367C67.9316 17.3516 67.8815 17.5521 67.7812 17.7383C67.681 17.9102 67.5521 18.0749 67.3945 18.2324C67.2513 18.3757 67.0938 18.5117 66.9219 18.6406C66.75 18.7695 66.5924 18.8913 66.4492 19.0059C66.4349 19.0059 66.4062 19.0202 66.3633 19.0488C66.3203 19.0775 66.2845 19.099 66.2559 19.1133C66.2415 19.1276 66.2057 19.1634 66.1484 19.2207C66.1055 19.2637 66.0553 19.3138 65.998 19.3711C65.9408 19.4284 65.8835 19.4857 65.8262 19.543C65.7832 19.6003 65.7546 19.6361 65.7402 19.6504C65.6973 19.6934 65.6113 19.765 65.4824 19.8652C65.3678 19.9512 65.2389 20.0514 65.0957 20.166C64.9525 20.2663 64.8164 20.3665 64.6875 20.4668C64.5729 20.5527 64.4941 20.61 64.4512 20.6387L64.3652 20.8105C64.3366 20.8678 64.3079 20.9967 64.2793 21.1973C64.265 21.3835 64.2435 21.5983 64.2148 21.8418C64.1862 22.0853 64.1576 22.3359 64.1289 22.5938C64.1146 22.8372 64.1074 23.0378 64.1074 23.1953C64.1074 23.2096 64.1146 23.224 64.1289 23.2383C64.1576 23.2669 64.179 23.2812 64.1934 23.2812C64.3079 23.2812 64.4154 23.2311 64.5156 23.1309C64.6159 23.0306 64.7233 22.959 64.8379 22.916L68.2754 19.7363L69.1562 18.3828C69.2279 18.2826 69.3639 18.1751 69.5645 18.0605C69.7793 17.9316 69.9941 17.8672 70.209 17.8672C70.4238 17.8529 70.61 17.9173 70.7676 18.0605C70.9395 18.2038 71.0254 18.4831 71.0254 18.8984ZM66.2988 17.2227C66.3704 17.1654 66.3991 17.0794 66.3848 16.9648C66.3704 16.8503 66.3275 16.75 66.2559 16.6641C66.1986 16.5781 66.1198 16.528 66.0195 16.5137C65.9193 16.485 65.8262 16.5352 65.7402 16.6641C65.6973 16.7214 65.6185 16.8359 65.5039 17.0078C65.4036 17.1797 65.2962 17.3587 65.1816 17.5449C65.0814 17.7168 64.9954 17.8672 64.9238 17.9961C64.8522 18.125 64.8379 18.1751 64.8809 18.1465L66.2988 17.2227ZM71.6055 22.4219C71.5052 21.9922 71.5052 21.4837 71.6055 20.8965C71.7201 20.3092 71.8919 19.722 72.1211 19.1348C72.3646 18.5332 72.6582 17.9674 73.002 17.4375C73.36 16.9076 73.7324 16.485 74.1191 16.1699C74.5202 15.8548 74.9212 15.6829 75.3223 15.6543C75.7376 15.6113 76.1315 15.7904 76.5039 16.1914C76.5039 16.2057 76.5111 16.2415 76.5254 16.2988C76.5397 16.3561 76.554 16.4779 76.5684 16.6641C76.5827 16.8359 76.5898 17.0866 76.5898 17.416C76.6042 17.7311 76.6113 18.168 76.6113 18.7266C76.6257 18.7552 76.64 18.8053 76.6543 18.877C76.6829 18.9342 76.6973 18.9772 76.6973 19.0059C76.6543 19.1634 76.5684 19.3138 76.4395 19.457C76.3249 19.5859 76.1745 19.6504 75.9883 19.6504C75.7448 19.6504 75.5443 19.6146 75.3867 19.543C75.2435 19.457 75.1361 19.2637 75.0645 18.9629C75.0931 18.9199 75.1003 18.834 75.0859 18.7051C75.0716 18.5618 75.043 18.4043 75 18.2324C74.9714 18.0605 74.9427 17.8887 74.9141 17.7168C74.8854 17.5449 74.8711 17.4089 74.8711 17.3086C74.8568 17.3086 74.8353 17.3229 74.8066 17.3516C74.7923 17.3659 74.778 17.3802 74.7637 17.3945C74.5202 17.8242 74.291 18.304 74.0762 18.834C73.8757 19.3496 73.7181 19.8796 73.6035 20.4238C73.5033 20.9538 73.4674 21.4837 73.4961 22.0137C73.5391 22.5436 73.6966 23.0234 73.9688 23.4531C74.1693 23.4531 74.3555 23.3743 74.5273 23.2168C74.6992 23.0449 74.8424 22.8874 74.957 22.7441C75.2005 22.4577 75.4368 22.1641 75.666 21.8633C75.9095 21.5625 76.1315 21.2474 76.332 20.918C76.418 20.7747 76.4824 20.6458 76.5254 20.5312C76.5684 20.4167 76.6185 20.3236 76.6758 20.252C76.7474 20.1803 76.8333 20.123 76.9336 20.0801C77.0339 20.0371 77.1842 20.0156 77.3848 20.0156C77.6139 20.0156 77.8288 20.0729 78.0293 20.1875C78.2298 20.2878 78.3301 20.4596 78.3301 20.7031C78.3301 21.0326 78.1797 21.4479 77.8789 21.9492C77.5924 22.4362 77.2344 22.9089 76.8047 23.3672C76.3893 23.8255 75.9453 24.2194 75.4727 24.5488C75 24.8639 74.5846 25.0215 74.2266 25.0215C73.8828 25.0215 73.5462 24.957 73.2168 24.8281C72.9017 24.6849 72.6224 24.4987 72.3789 24.2695C72.1497 24.0404 71.9635 23.7682 71.8203 23.4531C71.6771 23.138 71.6055 22.7943 71.6055 22.4219ZM81.2734 18.7266C81.0729 18.7266 80.8939 18.7767 80.7363 18.877C80.5788 18.9772 80.3926 19.0273 80.1777 19.0273C80.1491 19.0273 80.0703 19.0273 79.9414 19.0273C79.8268 19.013 79.7552 19.0059 79.7266 19.0059C79.6693 18.9342 79.6048 18.877 79.5332 18.834C79.4616 18.791 79.39 18.748 79.3184 18.7051C79.2467 18.6478 79.1823 18.5833 79.125 18.5117C79.082 18.4401 79.0605 18.3398 79.0605 18.2109C79.0605 17.9961 79.1465 17.8242 79.3184 17.6953C79.4902 17.5521 79.6908 17.4303 79.9199 17.3301C80.1491 17.2298 80.3783 17.1367 80.6074 17.0508C80.8509 16.9648 81.0443 16.8646 81.1875 16.75V15.8047C81.1875 14.7448 81.1374 13.6849 81.0371 12.625C80.9368 11.5508 80.8867 10.4909 80.8867 9.44531C80.8867 9.15885 80.9583 8.97266 81.1016 8.88672C81.2448 8.80078 81.4382 8.75781 81.6816 8.75781C81.9681 8.75781 82.1758 8.84375 82.3047 9.01562C82.4479 9.17318 82.5482 9.3737 82.6055 9.61719C82.6628 9.84635 82.6914 10.097 82.6914 10.3691C82.6914 10.627 82.6986 10.849 82.7129 11.0352C82.7129 11.2214 82.7272 11.5508 82.7559 12.0234C82.7845 12.4961 82.8132 12.9974 82.8418 13.5273C82.8704 14.0573 82.8991 14.5586 82.9277 15.0312C82.9564 15.5039 82.9779 15.8333 82.9922 16.0195C83.0495 16.0052 83.1569 15.9694 83.3145 15.9121C83.4863 15.8405 83.6654 15.776 83.8516 15.7188C84.0378 15.6471 84.2096 15.5827 84.3672 15.5254C84.5391 15.4681 84.6608 15.4251 84.7324 15.3965C85.1048 15.2389 85.4915 15.0671 85.8926 14.8809C86.2936 14.6803 86.7018 14.5801 87.1172 14.5801C87.4036 14.5801 87.6185 14.6803 87.7617 14.8809C87.9193 15.0671 87.998 15.2891 87.998 15.5469C87.998 15.7331 87.9264 15.8691 87.7832 15.9551C87.64 16.041 87.4896 16.1198 87.332 16.1914L83.4219 17.6523C83.3789 17.681 83.3359 17.7096 83.293 17.7383C83.25 17.7526 83.207 17.7812 83.1641 17.8242V18.5117C83.1641 19.013 83.1712 19.5358 83.1855 20.0801C83.2142 20.61 83.2643 21.1257 83.3359 21.627C83.4076 22.0566 83.4863 22.4792 83.5723 22.8945C83.6582 23.3099 83.7012 23.7324 83.7012 24.1621C83.7012 24.291 83.6582 24.4629 83.5723 24.6777C83.4863 24.8926 83.3503 25 83.1641 25C82.7773 25 82.4622 24.8854 82.2188 24.6562C81.9753 24.4271 81.8392 24.1191 81.8105 23.7324C81.7389 22.9876 81.6602 22.1712 81.5742 21.2832C81.5026 20.3952 81.431 19.543 81.3594 18.7266H81.2734ZM91.9297 24.1836C91.9297 24.112 91.9297 24.0475 91.9297 23.9902C91.944 23.9329 91.9798 23.8757 92.0371 23.8184C92.209 23.6035 92.4023 23.3815 92.6172 23.1523C92.832 22.9089 93.0397 22.6725 93.2402 22.4434C93.4408 22.1999 93.627 21.9492 93.7988 21.6914C93.9707 21.4336 94.1139 21.1758 94.2285 20.918V20.7891L91.4141 21.3691H91.0918C90.8913 21.3691 90.6406 21.3548 90.3398 21.3262C90.0534 21.2975 89.7669 21.2402 89.4805 21.1543C89.2083 21.054 88.972 20.918 88.7715 20.7461C88.5853 20.5742 88.4922 20.3451 88.4922 20.0586C88.5065 19.7292 88.6784 19.3639 89.0078 18.9629C89.3372 18.5618 89.724 18.168 90.168 17.7812C90.612 17.3945 91.056 17.0365 91.5 16.707C91.9583 16.3776 92.3236 16.1198 92.5957 15.9336C92.8965 15.7617 93.2546 15.6257 93.6699 15.5254C94.0853 15.4108 94.4648 15.3535 94.8086 15.3535C95.0951 15.3535 95.3457 15.4108 95.5605 15.5254C95.7754 15.6257 95.8828 15.8333 95.8828 16.1484C95.8828 16.2773 95.8685 16.3991 95.8398 16.5137C95.8255 16.6283 95.7396 16.707 95.582 16.75C95.1237 16.707 94.694 16.7428 94.293 16.8574C93.8919 16.9577 93.5124 17.1152 93.1543 17.3301C92.7962 17.5449 92.4596 17.8027 92.1445 18.1035C91.8294 18.39 91.5215 18.6908 91.2207 19.0059C91.1348 19.1061 91.0273 19.2493 90.8984 19.4355C90.7695 19.6074 90.7051 19.7077 90.7051 19.7363V19.7578C91.0775 19.7578 91.4427 19.722 91.8008 19.6504C92.1732 19.5788 92.5384 19.5072 92.8965 19.4355C93.2689 19.3496 93.6341 19.2708 93.9922 19.1992C94.3646 19.1276 94.7441 19.0918 95.1309 19.0918C95.2741 19.0918 95.4316 19.1061 95.6035 19.1348C95.7754 19.1491 95.9329 19.1921 96.0762 19.2637C96.2337 19.3353 96.3555 19.4355 96.4414 19.5645C96.5417 19.679 96.5918 19.8294 96.5918 20.0156C96.5918 20.2878 96.5202 20.5527 96.377 20.8105C96.248 21.054 96.0475 21.3548 95.7754 21.7129C95.5176 22.0566 95.181 22.4792 94.7656 22.9805C94.3646 23.4818 93.8848 24.1263 93.3262 24.9141C93.2975 24.957 93.2259 24.9857 93.1113 25C93.0111 25.0143 92.9251 25.0215 92.8535 25.0215C92.653 25.0215 92.4453 24.9355 92.2305 24.7637C92.0299 24.5918 91.9297 24.3984 91.9297 24.1836Z" fill="black"/>
<defs>
<filter id="filter0_d_4566_2384" x="2.02832" y="1.65405" width="128.007" height="35.9953" filterUnits="userSpaceOnUse" color-interpolation-filters="sRGB">
<feFlood flood-opacity="0" result="BackgroundImageFix"/>
<feColorMatrix in="SourceAlpha" type="matrix" values="0 0 0 0 0 0 0 0 0 0 0 0 0 0 0 0 0 0 127 0" result="hardAlpha"/>
<feOffset dx="4" dy="4"/>
<feColorMatrix type="matrix" values="0 0 0 0 0.694118 0 0 0 0 0.721569 0 0 0 0 0.741176 0 0 0 1 0"/>
<feBlend mode="multiply" in2="BackgroundImageFix" result="effect1_dropShadow_4566_2384"/>
<feBlend mode="normal" in="SourceGraphic" in2="effect1_dropShadow_4566_2384" result="shape"/>
</filter>
</defs>
</svg>
