<svg width="17" height="18" viewBox="0 0 17 18" fill="none" xmlns="http://www.w3.org/2000/svg">
<path fill-rule="evenodd" clip-rule="evenodd" d="M8.79998 4.76221C8.04283 4.09756 7.20984 3.81436 6.62568 3.88308C5.72201 3.98939 4.95197 4.31973 4.43353 4.78617C3.94502 5.22569 3.6272 5.8264 3.6272 6.66963C3.6272 8.27953 4.75314 9.24837 6.27696 9.48541C6.7632 9.56105 7.70891 9.33714 8.60322 8.68554C9.48577 8.04251 9.91158 7.28497 9.91158 6.66963C9.91158 6.19493 9.56718 5.43568 8.79998 4.76221ZM10.7791 2.50765C11.9201 3.50928 12.9116 5.02285 12.9116 6.66963C12.9116 7.92799 12.3916 9.01954 11.6745 9.88906L15.819 13.3438C16.106 13.5831 16.2934 13.9209 16.3445 14.2911C16.391 14.6285 16.4045 15.188 16.1928 15.7401C16.08 16.0343 15.8767 16.393 15.5127 16.6806C15.1291 16.9836 14.6678 17.1273 14.1954 17.1273C13.5587 17.1273 13.1004 16.7672 12.9536 16.6499C12.7326 16.4735 12.5273 16.2588 12.3515 16.059C11.9946 15.6532 11.5985 15.1217 11.2138 14.5877C10.9921 14.2799 10.7718 13.9683 10.555 13.6618C10.0797 12.9898 9.62166 12.3421 9.20424 11.8118C8.13332 12.3354 6.92181 12.6218 5.81584 12.4498C3.29945 12.0583 0.627197 10.1874 0.627197 6.66963C0.627197 4.94905 1.32626 3.5463 2.427 2.55596C3.49781 1.59255 4.88938 1.06666 6.27516 0.903629C7.98046 0.703012 9.62804 1.4972 10.7791 2.50765ZM14.8251 14.3053C14.8224 14.3031 14.8188 14.3001 14.8143 14.2962C14.8504 14.3201 14.8553 14.3294 14.8251 14.3053Z" fill="black"/>
</svg>
