<svg width="205" height="37" viewBox="0 0 205 37" fill="none" xmlns="http://www.w3.org/2000/svg">
<g filter="url(#filter0_i_4598_1981)">
<path d="M199.022 7.61228C202.541 11.6933 202.541 20.3656 202.541 20.3656C202.731 28.2124 196.276 34.5 188.02 34.5C188.02 31.5523 188.02 2.00081 188.02 2.00081C191.163 1.66061 195.502 3.53121 199.022 7.61228Z" fill="white"/>
<path d="M18.7676 2H188.02V34.5C188.02 34.5 162.914 34.2049 135.174 34.5C119.695 34.6647 87.1965 35.5 75.5713 35.5C43.112 35.5 18.7676 34.5 18.7676 34.5V2Z" fill="white"/>
<path d="M5.14517 27.9432C0.335274 22.3612 1.47845 11.5 5.14549 8C8.81252 4.5 8.60485 4.5 11.9565 3.5C15.3082 2.5 18.7674 2 18.7674 2V34.5C13.1929 34.5 9.95507 33.5252 5.14517 27.9432Z" fill="white"/>
</g>
<path d="M18.7676 34.5C47.4436 34.5 46.465 35 75.1258 35C103.802 35 107.257 34.4063 135.933 34.4063C164.609 34.4063 156.2 34 184.876 34" stroke="black" stroke-width="3" stroke-miterlimit="10" stroke-linecap="round" stroke-linejoin="round"/>
<path d="M2.00244 17.5C2.00244 7 9.6485 2 18.555 2C11.2202 2 2.52635 8 2.52635 17.5C2.52635 31.5 14.5763 34.5 18.2437 34.5C10.385 34.5 2.00244 28 2.00244 17.5Z" stroke="black" stroke-width="3" stroke-linecap="round" stroke-linejoin="round"/>
<path d="M203 19C203 29.5 193.782 34 184.876 34C192.211 34 201.33 30.5 202.165 20.5C203.33 6.54422 192.735 2 186.759 1.99999C194.617 2 203 8.49998 203 19Z" stroke="black" stroke-width="3" stroke-linecap="round" stroke-linejoin="round"/>
<path d="M18.7676 2C47.0479 2 44.1226 2 72.3879 2C100.668 2 100.754 1.5 129.035 1.5C157.315 1.5 158.691 2.00001 186.972 2.00001" stroke="black" stroke-width="3" stroke-miterlimit="10" stroke-linecap="round" stroke-linejoin="round"/>
<path d="M68.0371 23.6465C68.0371 22.7871 68.0944 21.9349 68.209 21.0898C68.3236 20.2448 68.4238 19.3997 68.5098 18.5547C68.5098 18.5117 68.5169 18.4186 68.5312 18.2754C68.5456 18.1178 68.5599 17.9531 68.5742 17.7812C68.6029 17.6094 68.6243 17.4518 68.6387 17.3086C68.6673 17.151 68.6816 17.0508 68.6816 17.0078V16.9219L69.584 10.2188C69.5553 9.93229 69.5983 9.68164 69.7129 9.4668C69.8418 9.23763 70.071 9.12305 70.4004 9.12305C70.7585 9.08008 71.0521 9.13021 71.2812 9.27344C71.5247 9.40234 71.7253 9.57422 71.8828 9.78906C72.0404 10.0039 72.1693 10.2402 72.2695 10.498C72.3698 10.7559 72.4772 10.9922 72.5918 11.207C72.6634 11.4076 72.7493 11.6439 72.8496 11.916C72.9642 12.1882 73.0931 12.5319 73.2363 12.9473C73.3939 13.3626 73.5729 13.8711 73.7734 14.4727C73.9883 15.0742 74.2318 15.8047 74.5039 16.6641L74.5898 16.75C74.6901 16.6927 74.8763 16.5996 75.1484 16.4707C75.4349 16.3418 75.7285 16.2057 76.0293 16.0625C76.3444 15.9193 76.638 15.7832 76.9102 15.6543C77.1823 15.5254 77.3757 15.4395 77.4902 15.3965C77.5046 15.3678 77.5404 15.3464 77.5977 15.332C77.6693 15.3034 77.7194 15.2819 77.748 15.2676H77.791C77.9342 15.2676 78.0417 15.3249 78.1133 15.4395C78.1849 15.5397 78.2207 15.64 78.2207 15.7402C78.2207 15.8978 78.1849 16.0339 78.1133 16.1484C78.0417 16.263 77.9557 16.3704 77.8555 16.4707C77.7695 16.5566 77.6693 16.6426 77.5547 16.7285C77.4544 16.8145 77.3757 16.9076 77.3184 17.0078L75.1914 18.082C75.1341 18.1536 75.1055 18.2109 75.1055 18.2539C75.1055 18.3685 75.1628 18.5475 75.2773 18.791C75.4062 19.0345 75.5065 19.2279 75.5781 19.3711C75.6211 19.457 75.6927 19.6146 75.793 19.8438C75.8932 20.0729 76.0007 20.3092 76.1152 20.5527C76.2298 20.7962 76.3372 21.0326 76.4375 21.2617C76.5521 21.4766 76.6309 21.627 76.6738 21.7129V21.7773C76.6738 22.293 76.416 22.5508 75.9004 22.5508C75.7428 22.5508 75.5781 22.5365 75.4062 22.5078C75.2344 22.4648 75.1055 22.3574 75.0195 22.1855L73.5801 19.1133H73.3867C72.8424 19.5286 72.2624 19.9368 71.6465 20.3379C71.0306 20.7389 70.4004 21.0827 69.7559 21.3691C69.6556 21.8848 69.5911 22.4076 69.5625 22.9375C69.5482 23.4674 69.5553 23.9974 69.584 24.5273C69.4694 24.6849 69.3548 24.8066 69.2402 24.8926C69.1257 24.9642 68.9681 25 68.7676 25C68.5671 25 68.4167 24.957 68.3164 24.8711C68.2161 24.7708 68.1445 24.6562 68.1016 24.5273C68.0586 24.3841 68.0371 24.2337 68.0371 24.0762C68.0371 23.9186 68.0371 23.7754 68.0371 23.6465ZM69.9492 19.4785C70.3789 19.3066 70.7943 19.0775 71.1953 18.791C71.6107 18.5046 72.0046 18.2396 72.377 17.9961C72.4199 17.9674 72.4701 17.9388 72.5273 17.9102C72.599 17.8815 72.6634 17.8457 72.7207 17.8027C72.778 17.7598 72.8496 17.7096 72.9355 17.6523V17.4805L70.959 11.8516L70.873 11.7656C70.8301 11.8516 70.7728 12.0951 70.7012 12.4961C70.6439 12.8971 70.5723 13.4199 70.4863 14.0645C70.4147 14.6947 70.3288 15.4251 70.2285 16.2559C70.1426 17.0866 70.0495 17.9746 69.9492 18.9199V19.4785ZM79.1016 23.4961C79.1016 22.8945 79.1159 22.3073 79.1445 21.7344C79.1732 21.1615 79.1875 20.5742 79.1875 19.9727C79.1445 18.3398 79.1302 16.7428 79.1445 15.1816C79.1589 13.6061 79.0872 11.9948 78.9297 10.3477C78.9297 10.0755 78.9941 9.89648 79.123 9.81055C79.252 9.71029 79.4453 9.66016 79.7031 9.66016C80.0326 9.66016 80.3118 9.76042 80.541 9.96094C80.7845 10.1471 80.9134 10.4121 80.9277 10.7559C80.8991 12.7897 80.9206 14.8092 80.9922 16.8145C81.0781 18.8053 81.1211 20.8249 81.1211 22.873V24.5273C81.0352 24.6419 80.9134 24.7565 80.7559 24.8711C80.5983 24.9857 80.4408 25.0286 80.2832 25C79.8678 24.9284 79.5671 24.7637 79.3809 24.5059C79.1947 24.2337 79.1016 23.8971 79.1016 23.4961ZM82.3887 23.4961C82.3887 22.8945 82.403 22.3073 82.4316 21.7344C82.4603 21.1615 82.4746 20.5742 82.4746 19.9727C82.4316 18.3398 82.4173 16.7428 82.4316 15.1816C82.446 13.6061 82.3743 11.9948 82.2168 10.3477C82.2168 10.0755 82.2812 9.89648 82.4102 9.81055C82.5391 9.71029 82.7324 9.66016 82.9902 9.66016C83.3197 9.66016 83.599 9.76042 83.8281 9.96094C84.0716 10.1471 84.2005 10.4121 84.2148 10.7559C84.1862 12.7897 84.2077 14.8092 84.2793 16.8145C84.3652 18.8053 84.4082 20.8249 84.4082 22.873V24.5273C84.3223 24.6419 84.2005 24.7565 84.043 24.8711C83.8854 24.9857 83.7279 25.0286 83.5703 25C83.1549 24.9284 82.8542 24.7637 82.668 24.5059C82.4818 24.2337 82.3887 23.8971 82.3887 23.4961ZM94.5488 19.6504C94.5488 19.5215 94.5632 19.4141 94.5918 19.3281C94.6348 19.2422 94.6777 19.1634 94.7207 19.0918C94.778 19.0059 94.821 18.9271 94.8496 18.8555C94.8926 18.7695 94.9141 18.6693 94.9141 18.5547C94.9141 18.125 94.8854 17.7025 94.8281 17.2871C94.7708 16.8574 94.7064 16.4277 94.6348 15.998C94.5775 15.5684 94.5202 15.1458 94.4629 14.7305C94.4056 14.3008 94.377 13.8711 94.377 13.4414C94.377 13.1406 94.4271 12.9329 94.5273 12.8184C94.6419 12.7038 94.8568 12.6465 95.1719 12.6465C95.4154 12.6465 95.6159 12.7109 95.7734 12.8398C95.9453 12.9544 96.11 13.1048 96.2676 13.291H96.375C96.4753 13.2337 96.6615 13.1263 96.9336 12.9688C97.2057 12.8112 97.4922 12.6465 97.793 12.4746C98.1081 12.3027 98.4017 12.1452 98.6738 12.002C98.9603 11.8444 99.1608 11.7298 99.2754 11.6582C99.5189 11.5293 99.7552 11.4219 99.9844 11.3359C100.214 11.25 100.464 11.207 100.736 11.207C100.88 11.207 100.987 11.2285 101.059 11.2715C101.13 11.3145 101.166 11.429 101.166 11.6152V11.6582C101.109 11.9447 101.008 12.181 100.865 12.3672C100.722 12.5391 100.55 12.6895 100.35 12.8184C100.163 12.9473 99.9629 13.0618 99.748 13.1621C99.5475 13.248 99.3542 13.3483 99.168 13.4629C98.7383 13.7637 98.373 14.0072 98.0723 14.1934C97.7858 14.3796 97.5352 14.5299 97.3203 14.6445C97.1198 14.7591 96.9551 14.8594 96.8262 14.9453C96.7116 15.0169 96.6185 15.0957 96.5469 15.1816C96.5469 15.2246 96.5397 15.3105 96.5254 15.4395C96.5254 15.554 96.5254 15.6257 96.5254 15.6543C96.5254 16.084 96.5326 16.5137 96.5469 16.9434C96.5612 17.373 96.6471 17.7884 96.8047 18.1895L101.811 15.8262C101.911 15.7832 101.982 15.7617 102.025 15.7617C102.083 15.7474 102.161 15.7402 102.262 15.7402C102.319 15.7402 102.412 15.7617 102.541 15.8047C102.67 15.8477 102.734 15.9049 102.734 15.9766C102.734 16.306 102.62 16.5996 102.391 16.8574C102.176 17.1152 101.911 17.3516 101.596 17.5664C101.281 17.7812 100.951 17.9674 100.607 18.125C100.264 18.2826 99.9629 18.4258 99.7051 18.5547C99.6478 18.5833 99.5833 18.6048 99.5117 18.6191C99.4401 18.6335 99.39 18.6693 99.3613 18.7266L97.1055 19.9082C97.0339 19.9512 96.9909 19.9941 96.9766 20.0371C96.9766 20.0658 96.9766 20.1159 96.9766 20.1875C96.9766 20.2161 96.9766 20.252 96.9766 20.2949C96.9909 20.3379 96.998 20.3665 96.998 20.3809L97.4492 23.9043C97.4922 24.248 97.4062 24.5202 97.1914 24.7207C96.9909 24.9212 96.7402 25.0215 96.4395 25.0215C96.3822 25.0215 96.3105 25.0143 96.2246 25C96.1387 24.9714 96.0527 24.9427 95.9668 24.9141C95.8809 24.8711 95.8021 24.821 95.7305 24.7637C95.6732 24.6921 95.6374 24.6133 95.623 24.5273L95.0859 20.2949C95.0859 20.2376 95.0573 20.1875 95 20.1445C94.9427 20.1016 94.8783 20.0586 94.8066 20.0156C94.7493 19.9727 94.6921 19.9225 94.6348 19.8652C94.5775 19.8079 94.5488 19.7363 94.5488 19.6504ZM104.496 24.1836C104.353 22.7513 104.231 21.5267 104.131 20.5098C104.031 19.4928 103.945 18.6406 103.873 17.9531C103.801 17.2656 103.737 16.7214 103.68 16.3203C103.637 15.9049 103.601 15.597 103.572 15.3965C103.544 15.1816 103.522 15.0384 103.508 14.9668C103.493 14.8952 103.486 14.8522 103.486 14.8379V14.752C103.486 14.5944 103.551 14.4655 103.68 14.3652C103.823 14.2507 103.966 14.1934 104.109 14.1934C104.324 14.1934 104.553 14.2292 104.797 14.3008C105.055 14.3724 105.227 14.5228 105.312 14.752C105.441 15.4538 105.527 16.1628 105.57 16.8789C105.628 17.5951 105.671 18.3112 105.699 19.0273C105.742 19.7292 105.792 20.4382 105.85 21.1543C105.921 21.8704 106.043 22.5794 106.215 23.2812C106.215 23.3099 106.222 23.3672 106.236 23.4531C106.265 23.5391 106.286 23.6322 106.301 23.7324C106.329 23.8327 106.351 23.9258 106.365 24.0117C106.38 24.0977 106.387 24.1549 106.387 24.1836V24.2266C106.387 24.2409 106.394 24.2552 106.408 24.2695C106.408 24.4414 106.329 24.6133 106.172 24.7852C106.014 24.957 105.85 25.0286 105.678 25C105.635 24.9857 105.527 24.9642 105.355 24.9355C105.198 24.8926 105.09 24.8568 105.033 24.8281C104.99 24.8138 104.933 24.7852 104.861 24.7422C104.79 24.6849 104.718 24.6276 104.646 24.5703C104.589 24.513 104.539 24.4486 104.496 24.377C104.453 24.3053 104.453 24.2409 104.496 24.1836ZM103.293 8.52148C103.293 8.42122 103.372 8.33529 103.529 8.26367C103.701 8.17773 103.83 8.13477 103.916 8.13477C104.131 8.13477 104.367 8.19922 104.625 8.32812C104.897 8.44271 105.033 8.62174 105.033 8.86523C105.033 9.10872 104.997 9.27344 104.926 9.35938C104.868 9.44531 104.718 9.48828 104.475 9.48828C104.217 9.48828 103.952 9.40234 103.68 9.23047C103.422 9.05859 103.293 8.82227 103.293 8.52148ZM116.184 18.8984C116.155 19.1562 116.119 19.3568 116.076 19.5C116.048 19.6432 115.99 19.7721 115.904 19.8867C115.818 20.0013 115.697 20.123 115.539 20.252C115.382 20.3665 115.167 20.5384 114.895 20.7676C114.622 20.9824 114.286 21.2689 113.885 21.627C113.484 21.985 112.997 22.4505 112.424 23.0234C112.195 23.2383 111.958 23.4603 111.715 23.6895C111.471 23.9186 111.214 24.1263 110.941 24.3125C110.684 24.4844 110.411 24.6276 110.125 24.7422C109.839 24.8568 109.538 24.9141 109.223 24.9141C108.607 24.9141 108.156 24.7064 107.869 24.291C107.583 23.8757 107.439 23.3958 107.439 22.8516C107.439 22.4935 107.447 22.1927 107.461 21.9492C107.49 21.7057 107.547 21.3906 107.633 21.0039C107.475 20.8607 107.339 20.7389 107.225 20.6387C107.11 20.5241 107.053 20.3737 107.053 20.1875C107.053 20.0156 107.089 19.901 107.16 19.8438C107.246 19.7865 107.339 19.7507 107.439 19.7363C107.554 19.7077 107.661 19.679 107.762 19.6504C107.862 19.6217 107.934 19.5645 107.977 19.4785C108.005 19.3926 108.055 19.235 108.127 19.0059C108.213 18.7767 108.299 18.5404 108.385 18.2969C108.471 18.0391 108.549 17.8027 108.621 17.5879C108.707 17.3587 108.764 17.2012 108.793 17.1152C108.893 16.8717 109.001 16.6283 109.115 16.3848C109.244 16.127 109.387 15.8978 109.545 15.6973C109.717 15.4967 109.91 15.332 110.125 15.2031C110.354 15.0742 110.619 15.0098 110.92 15.0098C111.092 15.0098 111.299 15.0885 111.543 15.2461C111.801 15.4036 112.044 15.597 112.273 15.8262C112.503 16.041 112.696 16.2702 112.854 16.5137C113.011 16.7572 113.09 16.9648 113.09 17.1367C113.09 17.3516 113.04 17.5521 112.939 17.7383C112.839 17.9102 112.71 18.0749 112.553 18.2324C112.41 18.3757 112.252 18.5117 112.08 18.6406C111.908 18.7695 111.751 18.8913 111.607 19.0059C111.593 19.0059 111.564 19.0202 111.521 19.0488C111.479 19.0775 111.443 19.099 111.414 19.1133C111.4 19.1276 111.364 19.1634 111.307 19.2207C111.264 19.2637 111.214 19.3138 111.156 19.3711C111.099 19.4284 111.042 19.4857 110.984 19.543C110.941 19.6003 110.913 19.6361 110.898 19.6504C110.855 19.6934 110.77 19.765 110.641 19.8652C110.526 19.9512 110.397 20.0514 110.254 20.166C110.111 20.2663 109.975 20.3665 109.846 20.4668C109.731 20.5527 109.652 20.61 109.609 20.6387L109.523 20.8105C109.495 20.8678 109.466 20.9967 109.438 21.1973C109.423 21.3835 109.402 21.5983 109.373 21.8418C109.344 22.0853 109.316 22.3359 109.287 22.5938C109.273 22.8372 109.266 23.0378 109.266 23.1953C109.266 23.2096 109.273 23.224 109.287 23.2383C109.316 23.2669 109.337 23.2812 109.352 23.2812C109.466 23.2812 109.574 23.2311 109.674 23.1309C109.774 23.0306 109.882 22.959 109.996 22.916L113.434 19.7363L114.314 18.3828C114.386 18.2826 114.522 18.1751 114.723 18.0605C114.938 17.9316 115.152 17.8672 115.367 17.8672C115.582 17.8529 115.768 17.9173 115.926 18.0605C116.098 18.2038 116.184 18.4831 116.184 18.8984ZM111.457 17.2227C111.529 17.1654 111.557 17.0794 111.543 16.9648C111.529 16.8503 111.486 16.75 111.414 16.6641C111.357 16.5781 111.278 16.528 111.178 16.5137C111.077 16.485 110.984 16.5352 110.898 16.6641C110.855 16.7214 110.777 16.8359 110.662 17.0078C110.562 17.1797 110.454 17.3587 110.34 17.5449C110.24 17.7168 110.154 17.8672 110.082 17.9961C110.01 18.125 109.996 18.1751 110.039 18.1465L111.457 17.2227ZM116.936 23.4961C116.936 22.8945 116.95 22.3073 116.979 21.7344C117.007 21.1615 117.021 20.5742 117.021 19.9727C116.979 18.3398 116.964 16.7428 116.979 15.1816C116.993 13.6061 116.921 11.9948 116.764 10.3477C116.764 10.0755 116.828 9.89648 116.957 9.81055C117.086 9.71029 117.279 9.66016 117.537 9.66016C117.867 9.66016 118.146 9.76042 118.375 9.96094C118.618 10.1471 118.747 10.4121 118.762 10.7559C118.733 12.7897 118.755 14.8092 118.826 16.8145C118.912 18.8053 118.955 20.8249 118.955 22.873V24.5273C118.869 24.6419 118.747 24.7565 118.59 24.8711C118.432 24.9857 118.275 25.0286 118.117 25C117.702 24.9284 117.401 24.7637 117.215 24.5059C117.029 24.2337 116.936 23.8971 116.936 23.4961ZM125.443 21.6055C125.429 21.6055 125.329 21.763 125.143 22.0781C124.971 22.3932 124.734 22.737 124.434 23.1094C124.133 23.4818 123.775 23.8255 123.359 24.1406C122.958 24.4557 122.529 24.6133 122.07 24.6133C121.44 24.6133 120.91 24.4199 120.48 24.0332C120.065 23.6465 119.857 23.1165 119.857 22.4434C119.829 22.0996 119.872 21.6914 119.986 21.2188C120.115 20.7461 120.294 20.2591 120.523 19.7578C120.767 19.2422 121.053 18.748 121.383 18.2754C121.727 17.7884 122.092 17.373 122.479 17.0293C122.865 16.6712 123.266 16.4062 123.682 16.2344C124.111 16.0625 124.541 16.0339 124.971 16.1484V15.8477C124.971 15.4753 124.956 15.0957 124.928 14.709C124.913 14.3079 124.892 13.8568 124.863 13.3555C124.849 12.8398 124.827 12.2526 124.799 11.5938C124.785 10.9206 124.777 10.1185 124.777 9.1875C124.82 9.02995 124.892 8.92969 124.992 8.88672C125.107 8.82943 125.229 8.80078 125.357 8.80078C125.687 8.80078 125.945 8.9082 126.131 9.12305C126.331 9.33789 126.453 9.60286 126.496 9.91797C126.467 10.4049 126.453 10.9062 126.453 11.4219C126.467 11.9232 126.496 12.4961 126.539 13.1406C126.582 13.7852 126.646 14.5156 126.732 15.332C126.833 16.1484 126.954 17.1152 127.098 18.2324C127.241 19.3353 127.413 20.61 127.613 22.0566C127.814 23.4889 128.05 25.1504 128.322 27.041V27.7715C128.322 27.8574 128.286 27.9219 128.215 27.9648C128.158 28.0078 128.079 28.0365 127.979 28.0508C127.893 28.0794 127.799 28.0938 127.699 28.0938C127.613 28.1081 127.549 28.1152 127.506 28.1152C127.291 28.1152 127.062 28.0508 126.818 27.9219C126.575 27.8073 126.432 27.6426 126.389 27.4277L125.594 21.6914C125.594 21.6484 125.572 21.627 125.529 21.627C125.501 21.6126 125.472 21.6055 125.443 21.6055ZM121.662 22.0781C121.662 22.1211 121.655 22.1999 121.641 22.3145C121.641 22.4147 121.641 22.5221 121.641 22.6367C121.655 22.7513 121.676 22.8516 121.705 22.9375C121.734 23.0234 121.791 23.0664 121.877 23.0664C122.235 23.0807 122.6 22.9447 122.973 22.6582C123.359 22.3717 123.71 22.0208 124.025 21.6055C124.34 21.1758 124.598 20.7174 124.799 20.2305C125.014 19.7435 125.128 19.3066 125.143 18.9199C125.171 18.5332 125.078 18.2396 124.863 18.0391C124.663 17.8242 124.312 17.7741 123.811 17.8887C123.195 18.4329 122.679 19.056 122.264 19.7578C121.863 20.4596 121.662 21.2331 121.662 22.0781ZM132.146 24.1836C132.146 24.112 132.146 24.0475 132.146 23.9902C132.161 23.9329 132.197 23.8757 132.254 23.8184C132.426 23.6035 132.619 23.3815 132.834 23.1523C133.049 22.9089 133.257 22.6725 133.457 22.4434C133.658 22.1999 133.844 21.9492 134.016 21.6914C134.188 21.4336 134.331 21.1758 134.445 20.918V20.7891L131.631 21.3691H131.309C131.108 21.3691 130.857 21.3548 130.557 21.3262C130.27 21.2975 129.984 21.2402 129.697 21.1543C129.425 21.054 129.189 20.918 128.988 20.7461C128.802 20.5742 128.709 20.3451 128.709 20.0586C128.723 19.7292 128.895 19.3639 129.225 18.9629C129.554 18.5618 129.941 18.168 130.385 17.7812C130.829 17.3945 131.273 17.0365 131.717 16.707C132.175 16.3776 132.54 16.1198 132.812 15.9336C133.113 15.7617 133.471 15.6257 133.887 15.5254C134.302 15.4108 134.682 15.3535 135.025 15.3535C135.312 15.3535 135.562 15.4108 135.777 15.5254C135.992 15.6257 136.1 15.8333 136.1 16.1484C136.1 16.2773 136.085 16.3991 136.057 16.5137C136.042 16.6283 135.956 16.707 135.799 16.75C135.34 16.707 134.911 16.7428 134.51 16.8574C134.109 16.9577 133.729 17.1152 133.371 17.3301C133.013 17.5449 132.676 17.8027 132.361 18.1035C132.046 18.39 131.738 18.6908 131.438 19.0059C131.352 19.1061 131.244 19.2493 131.115 19.4355C130.986 19.6074 130.922 19.7077 130.922 19.7363V19.7578C131.294 19.7578 131.66 19.722 132.018 19.6504C132.39 19.5788 132.755 19.5072 133.113 19.4355C133.486 19.3496 133.851 19.2708 134.209 19.1992C134.581 19.1276 134.961 19.0918 135.348 19.0918C135.491 19.0918 135.648 19.1061 135.82 19.1348C135.992 19.1491 136.15 19.1921 136.293 19.2637C136.451 19.3353 136.572 19.4355 136.658 19.5645C136.758 19.679 136.809 19.8294 136.809 20.0156C136.809 20.2878 136.737 20.5527 136.594 20.8105C136.465 21.054 136.264 21.3548 135.992 21.7129C135.734 22.0566 135.398 22.4792 134.982 22.9805C134.581 23.4818 134.102 24.1263 133.543 24.9141C133.514 24.957 133.443 24.9857 133.328 25C133.228 25.0143 133.142 25.0215 133.07 25.0215C132.87 25.0215 132.662 24.9355 132.447 24.7637C132.247 24.5918 132.146 24.3984 132.146 24.1836Z" fill="black"/>
<defs>
<filter id="filter0_i_4598_1981" x="1.95215" y="1.96155" width="200.593" height="33.5385" filterUnits="userSpaceOnUse" color-interpolation-filters="sRGB">
<feFlood flood-opacity="0" result="BackgroundImageFix"/>
<feBlend mode="normal" in="SourceGraphic" in2="BackgroundImageFix" result="shape"/>
<feColorMatrix in="SourceAlpha" type="matrix" values="0 0 0 0 0 0 0 0 0 0 0 0 0 0 0 0 0 0 127 0" result="hardAlpha"/>
<feOffset dx="4" dy="4"/>
<feComposite in2="hardAlpha" operator="arithmetic" k2="-1" k3="1"/>
<feColorMatrix type="matrix" values="0 0 0 0 0.694118 0 0 0 0 0.721569 0 0 0 0 0.741176 0 0 0 1 0"/>
<feBlend mode="multiply" in2="shape" result="effect1_innerShadow_4598_1981"/>
</filter>
</defs>
</svg>
