<svg width="204" height="37" viewBox="0 0 204 37" fill="none" xmlns="http://www.w3.org/2000/svg">
<g filter="url(#filter0_i_4598_1998)">
<path d="M198.022 7.61228C201.541 11.6933 201.541 20.3656 201.541 20.3656C201.731 28.2124 195.276 34.5 187.02 34.5C187.02 31.5523 187.02 2.00081 187.02 2.00081C190.163 1.66061 194.502 3.53121 198.022 7.61228Z" fill="#FEDDC6"/>
<path d="M18.7676 2H187.02V34.5C187.02 34.5 162.062 34.2049 134.486 34.5C119.099 34.6647 86.7922 35.5 75.2357 35.5C42.9682 35.5 18.7676 34.5 18.7676 34.5V2Z" fill="#FEDDC6"/>
<path d="M5.14517 27.9432C0.335274 22.3612 1.47845 11.5 5.14549 8C8.81252 4.5 8.60485 4.5 11.9565 3.5C15.3082 2.5 18.7674 2 18.7674 2V34.5C13.1929 34.5 9.95507 33.5252 5.14517 27.9432Z" fill="#FEDDC6"/>
</g>
<path d="M18.7676 34.5C47.271 34.5 46.2982 35 74.7865 35C103.29 35 106.725 34.4063 135.228 34.4063C163.731 34.4063 155.373 34 183.876 34" stroke="black" stroke-width="3" stroke-miterlimit="10" stroke-linecap="round" stroke-linejoin="round"/>
<path d="M2.00244 17.5C2.00244 7 9.6485 2 18.555 2C11.2202 2 2.52635 8 2.52635 17.5C2.52635 31.5 14.5763 34.5 18.2437 34.5C10.385 34.5 2.00244 28 2.00244 17.5Z" stroke="black" stroke-width="3" stroke-linecap="round" stroke-linejoin="round"/>
<path d="M202 19C202 29.5 192.782 34 183.876 34C191.211 34 200.33 30.5 201.165 20.5C202.33 6.54422 191.735 2 185.759 1.99999C193.617 2 202 8.49998 202 19Z" stroke="black" stroke-width="3" stroke-linecap="round" stroke-linejoin="round"/>
<path d="M18.7676 2C46.8797 2 43.9718 2 72.0691 2C100.181 2 100.267 1.5 128.379 1.5C156.491 1.5 157.86 2.00001 185.972 2.00001" stroke="black" stroke-width="3" stroke-miterlimit="10" stroke-linecap="round" stroke-linejoin="round"/>
<path d="M67.5371 23.6465C67.5371 22.7871 67.5944 21.9349 67.709 21.0898C67.8236 20.2448 67.9238 19.3997 68.0098 18.5547C68.0098 18.5117 68.0169 18.4186 68.0312 18.2754C68.0456 18.1178 68.0599 17.9531 68.0742 17.7812C68.1029 17.6094 68.1243 17.4518 68.1387 17.3086C68.1673 17.151 68.1816 17.0508 68.1816 17.0078V16.9219L69.084 10.2188C69.0553 9.93229 69.0983 9.68164 69.2129 9.4668C69.3418 9.23763 69.571 9.12305 69.9004 9.12305C70.2585 9.08008 70.5521 9.13021 70.7812 9.27344C71.0247 9.40234 71.2253 9.57422 71.3828 9.78906C71.5404 10.0039 71.6693 10.2402 71.7695 10.498C71.8698 10.7559 71.9772 10.9922 72.0918 11.207C72.1634 11.4076 72.2493 11.6439 72.3496 11.916C72.4642 12.1882 72.5931 12.5319 72.7363 12.9473C72.8939 13.3626 73.0729 13.8711 73.2734 14.4727C73.4883 15.0742 73.7318 15.8047 74.0039 16.6641L74.0898 16.75C74.1901 16.6927 74.3763 16.5996 74.6484 16.4707C74.9349 16.3418 75.2285 16.2057 75.5293 16.0625C75.8444 15.9193 76.138 15.7832 76.4102 15.6543C76.6823 15.5254 76.8757 15.4395 76.9902 15.3965C77.0046 15.3678 77.0404 15.3464 77.0977 15.332C77.1693 15.3034 77.2194 15.2819 77.248 15.2676H77.291C77.4342 15.2676 77.5417 15.3249 77.6133 15.4395C77.6849 15.5397 77.7207 15.64 77.7207 15.7402C77.7207 15.8978 77.6849 16.0339 77.6133 16.1484C77.5417 16.263 77.4557 16.3704 77.3555 16.4707C77.2695 16.5566 77.1693 16.6426 77.0547 16.7285C76.9544 16.8145 76.8757 16.9076 76.8184 17.0078L74.6914 18.082C74.6341 18.1536 74.6055 18.2109 74.6055 18.2539C74.6055 18.3685 74.6628 18.5475 74.7773 18.791C74.9062 19.0345 75.0065 19.2279 75.0781 19.3711C75.1211 19.457 75.1927 19.6146 75.293 19.8438C75.3932 20.0729 75.5007 20.3092 75.6152 20.5527C75.7298 20.7962 75.8372 21.0326 75.9375 21.2617C76.0521 21.4766 76.1309 21.627 76.1738 21.7129V21.7773C76.1738 22.293 75.916 22.5508 75.4004 22.5508C75.2428 22.5508 75.0781 22.5365 74.9062 22.5078C74.7344 22.4648 74.6055 22.3574 74.5195 22.1855L73.0801 19.1133H72.8867C72.3424 19.5286 71.7624 19.9368 71.1465 20.3379C70.5306 20.7389 69.9004 21.0827 69.2559 21.3691C69.1556 21.8848 69.0911 22.4076 69.0625 22.9375C69.0482 23.4674 69.0553 23.9974 69.084 24.5273C68.9694 24.6849 68.8548 24.8066 68.7402 24.8926C68.6257 24.9642 68.4681 25 68.2676 25C68.0671 25 67.9167 24.957 67.8164 24.8711C67.7161 24.7708 67.6445 24.6562 67.6016 24.5273C67.5586 24.3841 67.5371 24.2337 67.5371 24.0762C67.5371 23.9186 67.5371 23.7754 67.5371 23.6465ZM69.4492 19.4785C69.8789 19.3066 70.2943 19.0775 70.6953 18.791C71.1107 18.5046 71.5046 18.2396 71.877 17.9961C71.9199 17.9674 71.9701 17.9388 72.0273 17.9102C72.099 17.8815 72.1634 17.8457 72.2207 17.8027C72.278 17.7598 72.3496 17.7096 72.4355 17.6523V17.4805L70.459 11.8516L70.373 11.7656C70.3301 11.8516 70.2728 12.0951 70.2012 12.4961C70.1439 12.8971 70.0723 13.4199 69.9863 14.0645C69.9147 14.6947 69.8288 15.4251 69.7285 16.2559C69.6426 17.0866 69.5495 17.9746 69.4492 18.9199V19.4785ZM78.6016 23.4961C78.6016 22.8945 78.6159 22.3073 78.6445 21.7344C78.6732 21.1615 78.6875 20.5742 78.6875 19.9727C78.6445 18.3398 78.6302 16.7428 78.6445 15.1816C78.6589 13.6061 78.5872 11.9948 78.4297 10.3477C78.4297 10.0755 78.4941 9.89648 78.623 9.81055C78.752 9.71029 78.9453 9.66016 79.2031 9.66016C79.5326 9.66016 79.8118 9.76042 80.041 9.96094C80.2845 10.1471 80.4134 10.4121 80.4277 10.7559C80.3991 12.7897 80.4206 14.8092 80.4922 16.8145C80.5781 18.8053 80.6211 20.8249 80.6211 22.873V24.5273C80.5352 24.6419 80.4134 24.7565 80.2559 24.8711C80.0983 24.9857 79.9408 25.0286 79.7832 25C79.3678 24.9284 79.0671 24.7637 78.8809 24.5059C78.6947 24.2337 78.6016 23.8971 78.6016 23.4961ZM81.8887 23.4961C81.8887 22.8945 81.903 22.3073 81.9316 21.7344C81.9603 21.1615 81.9746 20.5742 81.9746 19.9727C81.9316 18.3398 81.9173 16.7428 81.9316 15.1816C81.946 13.6061 81.8743 11.9948 81.7168 10.3477C81.7168 10.0755 81.7812 9.89648 81.9102 9.81055C82.0391 9.71029 82.2324 9.66016 82.4902 9.66016C82.8197 9.66016 83.099 9.76042 83.3281 9.96094C83.5716 10.1471 83.7005 10.4121 83.7148 10.7559C83.6862 12.7897 83.7077 14.8092 83.7793 16.8145C83.8652 18.8053 83.9082 20.8249 83.9082 22.873V24.5273C83.8223 24.6419 83.7005 24.7565 83.543 24.8711C83.3854 24.9857 83.2279 25.0286 83.0703 25C82.6549 24.9284 82.3542 24.7637 82.168 24.5059C81.9818 24.2337 81.8887 23.8971 81.8887 23.4961ZM94.0488 19.6504C94.0488 19.5215 94.0632 19.4141 94.0918 19.3281C94.1348 19.2422 94.1777 19.1634 94.2207 19.0918C94.278 19.0059 94.321 18.9271 94.3496 18.8555C94.3926 18.7695 94.4141 18.6693 94.4141 18.5547C94.4141 18.125 94.3854 17.7025 94.3281 17.2871C94.2708 16.8574 94.2064 16.4277 94.1348 15.998C94.0775 15.5684 94.0202 15.1458 93.9629 14.7305C93.9056 14.3008 93.877 13.8711 93.877 13.4414C93.877 13.1406 93.9271 12.9329 94.0273 12.8184C94.1419 12.7038 94.3568 12.6465 94.6719 12.6465C94.9154 12.6465 95.1159 12.7109 95.2734 12.8398C95.4453 12.9544 95.61 13.1048 95.7676 13.291H95.875C95.9753 13.2337 96.1615 13.1263 96.4336 12.9688C96.7057 12.8112 96.9922 12.6465 97.293 12.4746C97.6081 12.3027 97.9017 12.1452 98.1738 12.002C98.4603 11.8444 98.6608 11.7298 98.7754 11.6582C99.0189 11.5293 99.2552 11.4219 99.4844 11.3359C99.7135 11.25 99.9642 11.207 100.236 11.207C100.38 11.207 100.487 11.2285 100.559 11.2715C100.63 11.3145 100.666 11.429 100.666 11.6152V11.6582C100.609 11.9447 100.508 12.181 100.365 12.3672C100.222 12.5391 100.05 12.6895 99.8496 12.8184C99.6634 12.9473 99.4629 13.0618 99.248 13.1621C99.0475 13.248 98.8542 13.3483 98.668 13.4629C98.2383 13.7637 97.873 14.0072 97.5723 14.1934C97.2858 14.3796 97.0352 14.5299 96.8203 14.6445C96.6198 14.7591 96.4551 14.8594 96.3262 14.9453C96.2116 15.0169 96.1185 15.0957 96.0469 15.1816C96.0469 15.2246 96.0397 15.3105 96.0254 15.4395C96.0254 15.554 96.0254 15.6257 96.0254 15.6543C96.0254 16.084 96.0326 16.5137 96.0469 16.9434C96.0612 17.373 96.1471 17.7884 96.3047 18.1895L101.311 15.8262C101.411 15.7832 101.482 15.7617 101.525 15.7617C101.583 15.7474 101.661 15.7402 101.762 15.7402C101.819 15.7402 101.912 15.7617 102.041 15.8047C102.17 15.8477 102.234 15.9049 102.234 15.9766C102.234 16.306 102.12 16.5996 101.891 16.8574C101.676 17.1152 101.411 17.3516 101.096 17.5664C100.781 17.7812 100.451 17.9674 100.107 18.125C99.7637 18.2826 99.4629 18.4258 99.2051 18.5547C99.1478 18.5833 99.0833 18.6048 99.0117 18.6191C98.9401 18.6335 98.89 18.6693 98.8613 18.7266L96.6055 19.9082C96.5339 19.9512 96.4909 19.9941 96.4766 20.0371C96.4766 20.0658 96.4766 20.1159 96.4766 20.1875C96.4766 20.2161 96.4766 20.252 96.4766 20.2949C96.4909 20.3379 96.498 20.3665 96.498 20.3809L96.9492 23.9043C96.9922 24.248 96.9062 24.5202 96.6914 24.7207C96.4909 24.9212 96.2402 25.0215 95.9395 25.0215C95.8822 25.0215 95.8105 25.0143 95.7246 25C95.6387 24.9714 95.5527 24.9427 95.4668 24.9141C95.3809 24.8711 95.3021 24.821 95.2305 24.7637C95.1732 24.6921 95.1374 24.6133 95.123 24.5273L94.5859 20.2949C94.5859 20.2376 94.5573 20.1875 94.5 20.1445C94.4427 20.1016 94.3783 20.0586 94.3066 20.0156C94.2493 19.9727 94.1921 19.9225 94.1348 19.8652C94.0775 19.8079 94.0488 19.7363 94.0488 19.6504ZM103.996 24.1836C103.853 22.7513 103.731 21.5267 103.631 20.5098C103.531 19.4928 103.445 18.6406 103.373 17.9531C103.301 17.2656 103.237 16.7214 103.18 16.3203C103.137 15.9049 103.101 15.597 103.072 15.3965C103.044 15.1816 103.022 15.0384 103.008 14.9668C102.993 14.8952 102.986 14.8522 102.986 14.8379V14.752C102.986 14.5944 103.051 14.4655 103.18 14.3652C103.323 14.2507 103.466 14.1934 103.609 14.1934C103.824 14.1934 104.053 14.2292 104.297 14.3008C104.555 14.3724 104.727 14.5228 104.812 14.752C104.941 15.4538 105.027 16.1628 105.07 16.8789C105.128 17.5951 105.171 18.3112 105.199 19.0273C105.242 19.7292 105.292 20.4382 105.35 21.1543C105.421 21.8704 105.543 22.5794 105.715 23.2812C105.715 23.3099 105.722 23.3672 105.736 23.4531C105.765 23.5391 105.786 23.6322 105.801 23.7324C105.829 23.8327 105.851 23.9258 105.865 24.0117C105.88 24.0977 105.887 24.1549 105.887 24.1836V24.2266C105.887 24.2409 105.894 24.2552 105.908 24.2695C105.908 24.4414 105.829 24.6133 105.672 24.7852C105.514 24.957 105.35 25.0286 105.178 25C105.135 24.9857 105.027 24.9642 104.855 24.9355C104.698 24.8926 104.59 24.8568 104.533 24.8281C104.49 24.8138 104.433 24.7852 104.361 24.7422C104.29 24.6849 104.218 24.6276 104.146 24.5703C104.089 24.513 104.039 24.4486 103.996 24.377C103.953 24.3053 103.953 24.2409 103.996 24.1836ZM102.793 8.52148C102.793 8.42122 102.872 8.33529 103.029 8.26367C103.201 8.17773 103.33 8.13477 103.416 8.13477C103.631 8.13477 103.867 8.19922 104.125 8.32812C104.397 8.44271 104.533 8.62174 104.533 8.86523C104.533 9.10872 104.497 9.27344 104.426 9.35938C104.368 9.44531 104.218 9.48828 103.975 9.48828C103.717 9.48828 103.452 9.40234 103.18 9.23047C102.922 9.05859 102.793 8.82227 102.793 8.52148ZM115.684 18.8984C115.655 19.1562 115.619 19.3568 115.576 19.5C115.548 19.6432 115.49 19.7721 115.404 19.8867C115.318 20.0013 115.197 20.123 115.039 20.252C114.882 20.3665 114.667 20.5384 114.395 20.7676C114.122 20.9824 113.786 21.2689 113.385 21.627C112.984 21.985 112.497 22.4505 111.924 23.0234C111.695 23.2383 111.458 23.4603 111.215 23.6895C110.971 23.9186 110.714 24.1263 110.441 24.3125C110.184 24.4844 109.911 24.6276 109.625 24.7422C109.339 24.8568 109.038 24.9141 108.723 24.9141C108.107 24.9141 107.656 24.7064 107.369 24.291C107.083 23.8757 106.939 23.3958 106.939 22.8516C106.939 22.4935 106.947 22.1927 106.961 21.9492C106.99 21.7057 107.047 21.3906 107.133 21.0039C106.975 20.8607 106.839 20.7389 106.725 20.6387C106.61 20.5241 106.553 20.3737 106.553 20.1875C106.553 20.0156 106.589 19.901 106.66 19.8438C106.746 19.7865 106.839 19.7507 106.939 19.7363C107.054 19.7077 107.161 19.679 107.262 19.6504C107.362 19.6217 107.434 19.5645 107.477 19.4785C107.505 19.3926 107.555 19.235 107.627 19.0059C107.713 18.7767 107.799 18.5404 107.885 18.2969C107.971 18.0391 108.049 17.8027 108.121 17.5879C108.207 17.3587 108.264 17.2012 108.293 17.1152C108.393 16.8717 108.501 16.6283 108.615 16.3848C108.744 16.127 108.887 15.8978 109.045 15.6973C109.217 15.4967 109.41 15.332 109.625 15.2031C109.854 15.0742 110.119 15.0098 110.42 15.0098C110.592 15.0098 110.799 15.0885 111.043 15.2461C111.301 15.4036 111.544 15.597 111.773 15.8262C112.003 16.041 112.196 16.2702 112.354 16.5137C112.511 16.7572 112.59 16.9648 112.59 17.1367C112.59 17.3516 112.54 17.5521 112.439 17.7383C112.339 17.9102 112.21 18.0749 112.053 18.2324C111.91 18.3757 111.752 18.5117 111.58 18.6406C111.408 18.7695 111.251 18.8913 111.107 19.0059C111.093 19.0059 111.064 19.0202 111.021 19.0488C110.979 19.0775 110.943 19.099 110.914 19.1133C110.9 19.1276 110.864 19.1634 110.807 19.2207C110.764 19.2637 110.714 19.3138 110.656 19.3711C110.599 19.4284 110.542 19.4857 110.484 19.543C110.441 19.6003 110.413 19.6361 110.398 19.6504C110.355 19.6934 110.27 19.765 110.141 19.8652C110.026 19.9512 109.897 20.0514 109.754 20.166C109.611 20.2663 109.475 20.3665 109.346 20.4668C109.231 20.5527 109.152 20.61 109.109 20.6387L109.023 20.8105C108.995 20.8678 108.966 20.9967 108.938 21.1973C108.923 21.3835 108.902 21.5983 108.873 21.8418C108.844 22.0853 108.816 22.3359 108.787 22.5938C108.773 22.8372 108.766 23.0378 108.766 23.1953C108.766 23.2096 108.773 23.224 108.787 23.2383C108.816 23.2669 108.837 23.2812 108.852 23.2812C108.966 23.2812 109.074 23.2311 109.174 23.1309C109.274 23.0306 109.382 22.959 109.496 22.916L112.934 19.7363L113.814 18.3828C113.886 18.2826 114.022 18.1751 114.223 18.0605C114.438 17.9316 114.652 17.8672 114.867 17.8672C115.082 17.8529 115.268 17.9173 115.426 18.0605C115.598 18.2038 115.684 18.4831 115.684 18.8984ZM110.957 17.2227C111.029 17.1654 111.057 17.0794 111.043 16.9648C111.029 16.8503 110.986 16.75 110.914 16.6641C110.857 16.5781 110.778 16.528 110.678 16.5137C110.577 16.485 110.484 16.5352 110.398 16.6641C110.355 16.7214 110.277 16.8359 110.162 17.0078C110.062 17.1797 109.954 17.3587 109.84 17.5449C109.74 17.7168 109.654 17.8672 109.582 17.9961C109.51 18.125 109.496 18.1751 109.539 18.1465L110.957 17.2227ZM116.436 23.4961C116.436 22.8945 116.45 22.3073 116.479 21.7344C116.507 21.1615 116.521 20.5742 116.521 19.9727C116.479 18.3398 116.464 16.7428 116.479 15.1816C116.493 13.6061 116.421 11.9948 116.264 10.3477C116.264 10.0755 116.328 9.89648 116.457 9.81055C116.586 9.71029 116.779 9.66016 117.037 9.66016C117.367 9.66016 117.646 9.76042 117.875 9.96094C118.118 10.1471 118.247 10.4121 118.262 10.7559C118.233 12.7897 118.255 14.8092 118.326 16.8145C118.412 18.8053 118.455 20.8249 118.455 22.873V24.5273C118.369 24.6419 118.247 24.7565 118.09 24.8711C117.932 24.9857 117.775 25.0286 117.617 25C117.202 24.9284 116.901 24.7637 116.715 24.5059C116.529 24.2337 116.436 23.8971 116.436 23.4961ZM124.943 21.6055C124.929 21.6055 124.829 21.763 124.643 22.0781C124.471 22.3932 124.234 22.737 123.934 23.1094C123.633 23.4818 123.275 23.8255 122.859 24.1406C122.458 24.4557 122.029 24.6133 121.57 24.6133C120.94 24.6133 120.41 24.4199 119.98 24.0332C119.565 23.6465 119.357 23.1165 119.357 22.4434C119.329 22.0996 119.372 21.6914 119.486 21.2188C119.615 20.7461 119.794 20.2591 120.023 19.7578C120.267 19.2422 120.553 18.748 120.883 18.2754C121.227 17.7884 121.592 17.373 121.979 17.0293C122.365 16.6712 122.766 16.4062 123.182 16.2344C123.611 16.0625 124.041 16.0339 124.471 16.1484V15.8477C124.471 15.4753 124.456 15.0957 124.428 14.709C124.413 14.3079 124.392 13.8568 124.363 13.3555C124.349 12.8398 124.327 12.2526 124.299 11.5938C124.285 10.9206 124.277 10.1185 124.277 9.1875C124.32 9.02995 124.392 8.92969 124.492 8.88672C124.607 8.82943 124.729 8.80078 124.857 8.80078C125.187 8.80078 125.445 8.9082 125.631 9.12305C125.831 9.33789 125.953 9.60286 125.996 9.91797C125.967 10.4049 125.953 10.9062 125.953 11.4219C125.967 11.9232 125.996 12.4961 126.039 13.1406C126.082 13.7852 126.146 14.5156 126.232 15.332C126.333 16.1484 126.454 17.1152 126.598 18.2324C126.741 19.3353 126.913 20.61 127.113 22.0566C127.314 23.4889 127.55 25.1504 127.822 27.041V27.7715C127.822 27.8574 127.786 27.9219 127.715 27.9648C127.658 28.0078 127.579 28.0365 127.479 28.0508C127.393 28.0794 127.299 28.0938 127.199 28.0938C127.113 28.1081 127.049 28.1152 127.006 28.1152C126.791 28.1152 126.562 28.0508 126.318 27.9219C126.075 27.8073 125.932 27.6426 125.889 27.4277L125.094 21.6914C125.094 21.6484 125.072 21.627 125.029 21.627C125.001 21.6126 124.972 21.6055 124.943 21.6055ZM121.162 22.0781C121.162 22.1211 121.155 22.1999 121.141 22.3145C121.141 22.4147 121.141 22.5221 121.141 22.6367C121.155 22.7513 121.176 22.8516 121.205 22.9375C121.234 23.0234 121.291 23.0664 121.377 23.0664C121.735 23.0807 122.1 22.9447 122.473 22.6582C122.859 22.3717 123.21 22.0208 123.525 21.6055C123.84 21.1758 124.098 20.7174 124.299 20.2305C124.514 19.7435 124.628 19.3066 124.643 18.9199C124.671 18.5332 124.578 18.2396 124.363 18.0391C124.163 17.8242 123.812 17.7741 123.311 17.8887C122.695 18.4329 122.179 19.056 121.764 19.7578C121.363 20.4596 121.162 21.2331 121.162 22.0781ZM131.646 24.1836C131.646 24.112 131.646 24.0475 131.646 23.9902C131.661 23.9329 131.697 23.8757 131.754 23.8184C131.926 23.6035 132.119 23.3815 132.334 23.1523C132.549 22.9089 132.757 22.6725 132.957 22.4434C133.158 22.1999 133.344 21.9492 133.516 21.6914C133.688 21.4336 133.831 21.1758 133.945 20.918V20.7891L131.131 21.3691H130.809C130.608 21.3691 130.357 21.3548 130.057 21.3262C129.77 21.2975 129.484 21.2402 129.197 21.1543C128.925 21.054 128.689 20.918 128.488 20.7461C128.302 20.5742 128.209 20.3451 128.209 20.0586C128.223 19.7292 128.395 19.3639 128.725 18.9629C129.054 18.5618 129.441 18.168 129.885 17.7812C130.329 17.3945 130.773 17.0365 131.217 16.707C131.675 16.3776 132.04 16.1198 132.312 15.9336C132.613 15.7617 132.971 15.6257 133.387 15.5254C133.802 15.4108 134.182 15.3535 134.525 15.3535C134.812 15.3535 135.062 15.4108 135.277 15.5254C135.492 15.6257 135.6 15.8333 135.6 16.1484C135.6 16.2773 135.585 16.3991 135.557 16.5137C135.542 16.6283 135.456 16.707 135.299 16.75C134.84 16.707 134.411 16.7428 134.01 16.8574C133.609 16.9577 133.229 17.1152 132.871 17.3301C132.513 17.5449 132.176 17.8027 131.861 18.1035C131.546 18.39 131.238 18.6908 130.938 19.0059C130.852 19.1061 130.744 19.2493 130.615 19.4355C130.486 19.6074 130.422 19.7077 130.422 19.7363V19.7578C130.794 19.7578 131.16 19.722 131.518 19.6504C131.89 19.5788 132.255 19.5072 132.613 19.4355C132.986 19.3496 133.351 19.2708 133.709 19.1992C134.081 19.1276 134.461 19.0918 134.848 19.0918C134.991 19.0918 135.148 19.1061 135.32 19.1348C135.492 19.1491 135.65 19.1921 135.793 19.2637C135.951 19.3353 136.072 19.4355 136.158 19.5645C136.258 19.679 136.309 19.8294 136.309 20.0156C136.309 20.2878 136.237 20.5527 136.094 20.8105C135.965 21.054 135.764 21.3548 135.492 21.7129C135.234 22.0566 134.898 22.4792 134.482 22.9805C134.081 23.4818 133.602 24.1263 133.043 24.9141C133.014 24.957 132.943 24.9857 132.828 25C132.728 25.0143 132.642 25.0215 132.57 25.0215C132.37 25.0215 132.162 24.9355 131.947 24.7637C131.747 24.5918 131.646 24.3984 131.646 24.1836Z" fill="black"/>
<defs>
<filter id="filter0_i_4598_1998" x="1.95215" y="1.96155" width="199.593" height="33.5385" filterUnits="userSpaceOnUse" color-interpolation-filters="sRGB">
<feFlood flood-opacity="0" result="BackgroundImageFix"/>
<feBlend mode="normal" in="SourceGraphic" in2="BackgroundImageFix" result="shape"/>
<feColorMatrix in="SourceAlpha" type="matrix" values="0 0 0 0 0 0 0 0 0 0 0 0 0 0 0 0 0 0 127 0" result="hardAlpha"/>
<feOffset dx="4" dy="4"/>
<feComposite in2="hardAlpha" operator="arithmetic" k2="-1" k3="1"/>
<feColorMatrix type="matrix" values="0 0 0 0 0.694118 0 0 0 0 0.721569 0 0 0 0 0.741176 0 0 0 1 0"/>
<feBlend mode="multiply" in2="shape" result="effect1_innerShadow_4598_1998"/>
</filter>
</defs>
</svg>
