<svg width="161" height="37" viewBox="0 0 161 37" fill="none" xmlns="http://www.w3.org/2000/svg">
<g filter="url(#filter0_i_4585_2707)">
<path d="M155.022 7.61228C158.541 11.6933 158.541 20.3656 158.541 20.3656C158.731 28.2124 152.276 34.5 144.02 34.5C144.02 31.5523 144.02 2.00081 144.02 2.00081C147.163 1.66061 151.502 3.53121 155.022 7.61228Z" fill="white"/>
<path d="M18.7676 2H144.02V34.5C144.02 34.5 125.441 34.2049 104.912 34.5C93.4571 34.6647 69.4072 35.5 60.8042 35.5C36.7833 35.5 18.7676 34.5 18.7676 34.5V2Z" fill="white"/>
<path d="M5.14517 27.9432C0.335274 22.3612 1.47845 11.5 5.14549 8C8.81252 4.5 8.60485 4.5 11.9565 3.5C15.3082 2.5 18.7674 2 18.7674 2V34.5C13.1929 34.5 9.95507 33.5252 5.14517 27.9432Z" fill="white"/>
</g>
<path d="M18.7676 34.5C39.8477 34.5 39.1283 35 60.1972 35C81.2773 35 83.8176 34.4063 104.898 34.4063C125.978 34.4063 119.796 34 140.876 34" stroke="black" stroke-width="3" stroke-miterlimit="10" stroke-linecap="round" stroke-linejoin="round"/>
<path d="M2.00244 17.5C2.00244 7 9.6485 2 18.555 2C11.2202 2 2.52635 8 2.52635 17.5C2.52635 31.5 14.5763 34.5 18.2437 34.5C10.385 34.5 2.00244 28 2.00244 17.5Z" stroke="black" stroke-width="3" stroke-linecap="round" stroke-linejoin="round"/>
<path d="M159 19C159 29.5 149.782 34 140.876 34C148.211 34 157.33 30.5 158.165 20.5C159.33 6.54422 148.735 2 142.759 1.99999C150.617 2 159 8.49998 159 19Z" stroke="black" stroke-width="3" stroke-linecap="round" stroke-linejoin="round"/>
<path d="M18.7676 2C39.6501 2 37.49 2 58.3615 2C79.2441 2 79.3078 1.5 100.19 1.5C121.073 1.5 122.089 2.00001 142.972 2.00001" stroke="black" stroke-width="3" stroke-miterlimit="10" stroke-linecap="round" stroke-linejoin="round"/>
<path d="M18.4941 21.7129C18.666 20.2806 18.8021 19.1777 18.9023 18.4043C19.0026 17.6309 19.0742 17.0579 19.1172 16.6855C19.1745 16.2559 19.2031 16.0052 19.2031 15.9336C19.332 15.4896 19.4681 15.0098 19.6113 14.4941C19.7546 13.9785 19.9408 13.4987 20.1699 13.0547C20.4134 12.6107 20.7214 12.2383 21.0938 11.9375C21.4661 11.6367 21.946 11.4863 22.5332 11.4863C22.791 11.4863 23.0202 11.5078 23.2207 11.5508C23.4355 11.5794 23.6361 11.6367 23.8223 11.7227C24.0085 11.8086 24.1875 11.916 24.3594 12.0449C24.5456 12.1595 24.7389 12.3027 24.9395 12.4746C25.0827 12.6035 25.1615 12.6823 25.1758 12.7109C25.2044 12.7396 25.2188 12.8255 25.2188 12.9688C25.2188 13.1549 25.1543 13.334 25.0254 13.5059C24.8965 13.6777 24.7103 13.7637 24.4668 13.7637C24.2663 13.7637 24.1016 13.7207 23.9727 13.6348C23.8438 13.5345 23.7148 13.4271 23.5859 13.3125C23.4714 13.1836 23.3424 13.0762 23.1992 12.9902C23.0703 12.89 22.8984 12.8398 22.6836 12.8398C22.4544 12.8398 22.2539 12.9043 22.082 13.0332C21.9102 13.1478 21.7598 13.2982 21.6309 13.4844C21.5163 13.6706 21.4232 13.8783 21.3516 14.1074C21.2943 14.3366 21.2513 14.5514 21.2227 14.752L20.2129 21.627C20.2129 21.6556 20.2057 21.7272 20.1914 21.8418C20.1914 21.9421 20.1914 22.0208 20.1914 22.0781C20.1914 22.1784 20.1914 22.3073 20.1914 22.4648C20.1914 22.6081 20.2057 22.7585 20.2344 22.916C20.263 23.0592 20.3132 23.1882 20.3848 23.3027C20.4564 23.403 20.5638 23.4531 20.707 23.4531C20.793 23.4531 20.8717 23.4245 20.9434 23.3672C21.6309 22.9089 22.2181 22.3789 22.7051 21.7773C23.2064 21.1615 23.679 20.5098 24.123 19.8223C24.1374 19.7936 24.1732 19.7292 24.2305 19.6289C24.3021 19.5143 24.3665 19.3997 24.4238 19.2852C24.4954 19.1562 24.5599 19.0345 24.6172 18.9199C24.6745 18.791 24.7174 18.6979 24.7461 18.6406C24.832 18.4544 24.8965 18.2611 24.9395 18.0605C24.9824 17.86 25.0326 17.6738 25.0898 17.502C25.1615 17.3301 25.2617 17.194 25.3906 17.0938C25.5195 16.9792 25.7201 16.9219 25.9922 16.9219C26.1927 16.9219 26.3861 17.0078 26.5723 17.1797C26.7585 17.3516 26.8516 17.5521 26.8516 17.7812V17.8242C26.4935 18.8555 26.028 19.8079 25.4551 20.6816C24.8965 21.5553 24.2734 22.4219 23.5859 23.2812C23.1562 23.7969 22.6621 24.2122 22.1035 24.5273C21.5449 24.8424 20.9219 25 20.2344 25H20.127C19.4824 24.7565 19.0456 24.3984 18.8164 23.9258C18.6016 23.4388 18.4941 22.873 18.4941 22.2285V21.7129ZM27.8184 21.7129L28.6133 16.1914C28.6419 16.0052 28.7207 15.8691 28.8496 15.7832C28.9928 15.6973 29.1504 15.6543 29.3223 15.6543C29.6374 15.6543 29.888 15.7474 30.0742 15.9336C30.2604 16.1055 30.418 16.3203 30.5469 16.5781H30.5684C30.7402 16.5781 30.8906 16.5495 31.0195 16.4922C31.1628 16.4206 31.3346 16.3848 31.5352 16.3848C31.9935 16.3848 32.3802 16.528 32.6953 16.8145C33.0247 17.1009 33.2897 17.4518 33.4902 17.8672C33.6908 18.2682 33.834 18.7051 33.9199 19.1777C34.0202 19.6504 34.0703 20.0658 34.0703 20.4238C34.0703 20.8535 33.9557 21.3333 33.7266 21.8633C33.5117 22.3932 33.2181 22.8945 32.8457 23.3672C32.4876 23.8398 32.0794 24.2337 31.6211 24.5488C31.1628 24.8639 30.6973 25.0215 30.2246 25.0215C29.7949 25.0215 29.4225 24.9212 29.1074 24.7207C28.8066 24.5202 28.556 24.2695 28.3555 23.9688C28.1693 23.6536 28.0332 23.3027 27.9473 22.916C27.8613 22.5293 27.8184 22.1497 27.8184 21.7773V21.7129ZM29.623 21.8418C29.6517 21.985 29.6803 22.1497 29.709 22.3359C29.7376 22.5221 29.7806 22.694 29.8379 22.8516C29.8952 22.9948 29.974 23.1094 30.0742 23.1953C30.1888 23.2669 30.3464 23.2669 30.5469 23.1953C30.7331 23.0234 30.9336 22.8301 31.1484 22.6152C31.3633 22.4004 31.5638 22.1712 31.75 21.9277C31.9505 21.6842 32.1152 21.4264 32.2441 21.1543C32.373 20.8822 32.4375 20.5957 32.4375 20.2949C32.4948 19.8079 32.459 19.3639 32.3301 18.9629C32.2012 18.5475 32.015 18.2539 31.7715 18.082C31.5423 17.8958 31.2773 17.8743 30.9766 18.0176C30.6758 18.1465 30.375 18.5117 30.0742 19.1133C29.9023 19.4857 29.7806 19.9225 29.709 20.4238C29.6517 20.9108 29.623 21.362 29.623 21.7773V21.8418ZM35.3379 17.9961C35.3092 17.6237 35.2734 17.2513 35.2305 16.8789C35.2018 16.4922 35.1517 16.1126 35.0801 15.7402C35.0801 15.4251 35.1803 15.2246 35.3809 15.1387C35.5957 15.0527 35.8249 15.0098 36.0684 15.0098H36.498C36.7129 15.11 36.8633 15.2318 36.9492 15.375C37.0352 15.5182 37.0924 15.6758 37.1211 15.8477C37.1497 16.0195 37.1569 16.1986 37.1426 16.3848C37.1426 16.571 37.1497 16.75 37.1641 16.9219C37.1784 16.9935 37.1855 17.1152 37.1855 17.2871C37.1855 17.459 37.1855 17.638 37.1855 17.8242C37.1999 18.0104 37.2142 18.1823 37.2285 18.3398C37.2572 18.4974 37.293 18.5977 37.3359 18.6406L39.2266 15.0957C39.3125 14.9382 39.4342 14.8092 39.5918 14.709C39.7637 14.5944 39.9499 14.5514 40.1504 14.5801C40.4655 14.6087 40.7018 14.6732 40.8594 14.7734C41.0169 14.8594 41.1243 14.9811 41.1816 15.1387C41.2533 15.2819 41.2891 15.4609 41.2891 15.6758C41.3034 15.8906 41.3177 16.127 41.332 16.3848C41.332 16.4707 41.3392 16.6354 41.3535 16.8789C41.3678 17.1081 41.3822 17.3516 41.3965 17.6094C41.4251 17.8672 41.4466 18.1107 41.4609 18.3398C41.4896 18.569 41.5111 18.7266 41.5254 18.8125H41.6113C41.64 18.7122 41.6901 18.5189 41.7617 18.2324C41.8477 17.946 41.9408 17.6452 42.041 17.3301C42.1413 17.015 42.2344 16.7142 42.3203 16.4277C42.4062 16.1413 42.4707 15.9408 42.5137 15.8262C42.528 15.7975 42.5566 15.7402 42.5996 15.6543C42.6426 15.554 42.6855 15.4538 42.7285 15.3535C42.7715 15.2389 42.8145 15.1387 42.8574 15.0527C42.9004 14.9525 42.929 14.8809 42.9434 14.8379C43.0436 14.6803 43.1439 14.6016 43.2441 14.6016C43.3587 14.5872 43.4805 14.5801 43.6094 14.5801C43.9674 14.5801 44.2396 14.6732 44.4258 14.8594C44.6263 15.0312 44.7695 15.2533 44.8555 15.5254C44.9557 15.7975 45.0273 16.0983 45.0703 16.4277C45.1133 16.7428 45.1634 17.0365 45.2207 17.3086C45.235 17.3086 45.2422 17.3229 45.2422 17.3516C45.2422 17.3659 45.235 17.3802 45.2207 17.3945L46.4023 23.6465C46.4596 23.7038 46.4883 23.7539 46.4883 23.7969C46.5026 23.8398 46.5098 23.8971 46.5098 23.9688C46.5098 24.1263 46.431 24.2839 46.2734 24.4414C46.1302 24.5846 45.9798 24.6562 45.8223 24.6562C45.6074 24.6562 45.3568 24.5775 45.0703 24.4199C44.7982 24.2624 44.6406 24.0618 44.5977 23.8184L43.6094 18.7266L43.502 18.5547C43.4733 18.6263 43.4089 18.834 43.3086 19.1777C43.2227 19.5072 43.1152 19.9297 42.9863 20.4453C42.8574 20.9466 42.707 21.5124 42.5352 22.1426C42.3776 22.7728 42.2129 23.4173 42.041 24.0762C42.0124 24.2051 41.9264 24.3053 41.7832 24.377C41.6543 24.4342 41.5397 24.4629 41.4395 24.4629C41.1387 24.4629 40.8952 24.4271 40.709 24.3555C40.5228 24.2839 40.3796 24.1764 40.2793 24.0332C40.179 23.89 40.1074 23.7181 40.0645 23.5176C40.0215 23.3171 39.9857 23.0879 39.957 22.8301C39.957 22.7728 39.9427 22.5723 39.9141 22.2285C39.8854 21.8704 39.8496 21.4694 39.8066 21.0254C39.778 20.5671 39.7422 20.1087 39.6992 19.6504C39.6562 19.1921 39.6276 18.8268 39.6133 18.5547C39.6133 18.4974 39.6133 18.4544 39.6133 18.4258C39.6133 18.3971 39.6133 18.3757 39.6133 18.3613C39.6133 18.3327 39.6061 18.304 39.5918 18.2754C39.5775 18.2324 39.5488 18.168 39.5059 18.082L38.8828 19.5645L37.8945 23.1953L37.6797 24.5273C37.6654 24.6133 37.6224 24.6921 37.5508 24.7637C37.4935 24.821 37.4219 24.8711 37.3359 24.9141C37.25 24.9427 37.1641 24.9642 37.0781 24.9785C36.9922 24.9928 36.9206 25 36.8633 25C36.5482 25 36.276 24.8854 36.0469 24.6562C35.832 24.4271 35.7174 24.1764 35.7031 23.9043C35.6888 23.804 35.6745 23.6107 35.6602 23.3242C35.6458 23.0234 35.6243 22.6725 35.5957 22.2715C35.5671 21.8704 35.5384 21.4479 35.5098 21.0039C35.4954 20.5599 35.474 20.1374 35.4453 19.7363C35.4167 19.3353 35.388 18.9844 35.3594 18.6836C35.3451 18.3828 35.3379 18.1823 35.3379 18.082V17.9961ZM48.1855 21.1328C47.9134 21.0326 47.6628 20.9108 47.4336 20.7676C47.2188 20.6243 47.1113 20.388 47.1113 20.0586C47.1113 19.9727 47.1328 19.9154 47.1758 19.8867C47.2188 19.8581 47.2546 19.8151 47.2832 19.7578C47.3118 19.7148 47.3691 19.6361 47.4551 19.5215C47.541 19.4069 47.6341 19.2852 47.7344 19.1562C47.8346 19.013 47.9277 18.8841 48.0137 18.7695C48.0996 18.6406 48.1569 18.5547 48.1855 18.5117C48.1855 18.3255 48.1712 18.1035 48.1426 17.8457C48.1283 17.5736 48.1354 17.3229 48.1641 17.0938C48.207 16.8503 48.293 16.6497 48.4219 16.4922C48.5508 16.3203 48.7656 16.2344 49.0664 16.2344C49.2383 16.2344 49.3815 16.2988 49.4961 16.4277C49.6107 16.5423 49.7539 16.5996 49.9258 16.5996H50.0117C50.599 16.1413 51.2005 15.7402 51.8164 15.3965C52.4466 15.0384 53.1484 14.8594 53.9219 14.8594C54.4232 14.8594 54.8314 15.0098 55.1465 15.3105C55.4759 15.597 55.6406 16.0052 55.6406 16.5352C55.6406 17.194 55.4902 17.8743 55.1895 18.5762C54.8887 19.278 54.5091 19.9655 54.0508 20.6387C53.6068 21.2975 53.1198 21.9206 52.5898 22.5078C52.0742 23.0951 51.6016 23.6035 51.1719 24.0332C51.1289 24.0905 51.0645 24.1549 50.9785 24.2266C50.8926 24.2839 50.8138 24.3483 50.7422 24.4199C50.6562 24.4915 50.5632 24.5775 50.4629 24.6777L50.291 29.6191C50.291 29.748 50.2839 29.8841 50.2695 30.0273C50.2695 30.1706 50.2409 30.2995 50.1836 30.4141C50.1406 30.543 50.069 30.6432 49.9688 30.7148C49.8828 30.8008 49.7539 30.8438 49.582 30.8438C49.4961 30.8438 49.3815 30.8223 49.2383 30.7793C49.0951 30.7507 48.959 30.7005 48.8301 30.6289C48.7012 30.5573 48.5866 30.4714 48.4863 30.3711C48.4004 30.2708 48.3574 30.1562 48.3574 30.0273L48.1855 21.1328ZM50.1836 22.4863H50.2695C50.2839 22.4863 50.3268 22.4434 50.3984 22.3574C50.4844 22.2715 50.5775 22.1712 50.6777 22.0566C50.7923 21.9421 50.8997 21.8275 51 21.7129C51.1146 21.584 51.2005 21.4837 51.2578 21.4121C51.6875 21.097 52.0814 20.7031 52.4395 20.2305C52.7975 19.7578 53.084 19.2852 53.2988 18.8125C53.528 18.3255 53.6641 17.8887 53.707 17.502C53.7643 17.1152 53.6999 16.8503 53.5137 16.707C53.3418 16.5495 53.0339 16.5638 52.5898 16.75C52.1602 16.9362 51.5729 17.3659 50.8281 18.0391C50.6562 18.1823 50.4987 18.347 50.3555 18.5332C50.2122 18.7194 50.1263 18.9271 50.0977 19.1562L50.1836 22.4863ZM60.8184 22.959C60.7181 23.1738 60.6178 23.4102 60.5176 23.668C60.4173 23.9115 60.3027 24.1335 60.1738 24.334C60.0449 24.5345 59.8874 24.7064 59.7012 24.8496C59.515 24.9785 59.2786 25.043 58.9922 25.043C58.4909 25.043 58.0755 24.9212 57.7461 24.6777C57.4167 24.4199 57.1445 24.1048 56.9297 23.7324C56.7292 23.3457 56.5859 22.9303 56.5 22.4863C56.4141 22.0423 56.3711 21.627 56.3711 21.2402L56.543 16.041C56.5286 15.9408 56.5501 15.8405 56.6074 15.7402C56.679 15.6257 56.765 15.5254 56.8652 15.4395C56.9798 15.3392 57.1016 15.2604 57.2305 15.2031C57.3737 15.1458 57.5026 15.1172 57.6172 15.1172C57.9466 15.1172 58.2259 15.2246 58.4551 15.4395C58.6842 15.64 58.7988 15.9049 58.7988 16.2344V16.4492C58.6413 16.707 58.5052 17.0436 58.3906 17.459C58.276 17.8743 58.1829 18.3255 58.1113 18.8125C58.054 19.2852 58.0182 19.7721 58.0039 20.2734C57.9896 20.7747 58.0039 21.2331 58.0469 21.6484C58.1042 22.0638 58.1901 22.4219 58.3047 22.7227C58.4193 23.0091 58.5697 23.181 58.7559 23.2383C58.8275 23.2383 58.9349 23.2025 59.0781 23.1309C59.2357 23.0592 59.4004 22.9232 59.5723 22.7227C59.7441 22.5221 59.9232 22.2428 60.1094 21.8848C60.2956 21.5124 60.4603 21.0254 60.6035 20.4238C60.7467 19.8223 60.8542 19.0918 60.9258 18.2324C60.9974 17.373 61.0189 16.3418 60.9902 15.1387C61.0475 14.9811 61.1263 14.8952 61.2266 14.8809C61.3411 14.8665 61.4557 14.8594 61.5703 14.8594C61.6992 14.8594 61.8066 14.8665 61.8926 14.8809C61.9785 14.8809 62.0716 14.931 62.1719 15.0312C62.2435 15.1029 62.3223 15.2103 62.4082 15.3535C62.4941 15.4967 62.5371 15.5755 62.5371 15.5898L62.9023 25.1074C62.9023 25.3223 62.8451 25.5013 62.7305 25.6445C62.6159 25.7878 62.4512 25.8594 62.2363 25.8594C62.1647 25.8594 62.0788 25.8522 61.9785 25.8379C61.8783 25.8236 61.778 25.7949 61.6777 25.752C61.5775 25.709 61.4844 25.6517 61.3984 25.5801C61.3268 25.5228 61.2839 25.4512 61.2695 25.3652L60.9043 23.2168L60.8184 22.959ZM66.1465 18.7266C65.946 18.7266 65.7669 18.7767 65.6094 18.877C65.4518 18.9772 65.2656 19.0273 65.0508 19.0273C65.0221 19.0273 64.9434 19.0273 64.8145 19.0273C64.6999 19.013 64.6283 19.0059 64.5996 19.0059C64.5423 18.9342 64.4779 18.877 64.4062 18.834C64.3346 18.791 64.263 18.748 64.1914 18.7051C64.1198 18.6478 64.0553 18.5833 63.998 18.5117C63.9551 18.4401 63.9336 18.3398 63.9336 18.2109C63.9336 17.9961 64.0195 17.8242 64.1914 17.6953C64.3633 17.5521 64.5638 17.4303 64.793 17.3301C65.0221 17.2298 65.2513 17.1367 65.4805 17.0508C65.724 16.9648 65.9173 16.8646 66.0605 16.75V15.8047C66.0605 14.7448 66.0104 13.6849 65.9102 12.625C65.8099 11.5508 65.7598 10.4909 65.7598 9.44531C65.7598 9.15885 65.8314 8.97266 65.9746 8.88672C66.1178 8.80078 66.3112 8.75781 66.5547 8.75781C66.8411 8.75781 67.0488 8.84375 67.1777 9.01562C67.321 9.17318 67.4212 9.3737 67.4785 9.61719C67.5358 9.84635 67.5645 10.097 67.5645 10.3691C67.5645 10.627 67.5716 10.849 67.5859 11.0352C67.5859 11.2214 67.6003 11.5508 67.6289 12.0234C67.6576 12.4961 67.6862 12.9974 67.7148 13.5273C67.7435 14.0573 67.7721 14.5586 67.8008 15.0312C67.8294 15.5039 67.8509 15.8333 67.8652 16.0195C67.9225 16.0052 68.0299 15.9694 68.1875 15.9121C68.3594 15.8405 68.5384 15.776 68.7246 15.7188C68.9108 15.6471 69.0827 15.5827 69.2402 15.5254C69.4121 15.4681 69.5339 15.4251 69.6055 15.3965C69.9779 15.2389 70.3646 15.0671 70.7656 14.8809C71.1667 14.6803 71.5749 14.5801 71.9902 14.5801C72.2767 14.5801 72.4915 14.6803 72.6348 14.8809C72.7923 15.0671 72.8711 15.2891 72.8711 15.5469C72.8711 15.7331 72.7995 15.8691 72.6562 15.9551C72.513 16.041 72.3626 16.1198 72.2051 16.1914L68.2949 17.6523C68.252 17.681 68.209 17.7096 68.166 17.7383C68.123 17.7526 68.0801 17.7812 68.0371 17.8242V18.5117C68.0371 19.013 68.0443 19.5358 68.0586 20.0801C68.0872 20.61 68.1374 21.1257 68.209 21.627C68.2806 22.0566 68.3594 22.4792 68.4453 22.8945C68.5312 23.3099 68.5742 23.7324 68.5742 24.1621C68.5742 24.291 68.5312 24.4629 68.4453 24.6777C68.3594 24.8926 68.2233 25 68.0371 25C67.6504 25 67.3353 24.8854 67.0918 24.6562C66.8483 24.4271 66.7122 24.1191 66.6836 23.7324C66.612 22.9876 66.5332 22.1712 66.4473 21.2832C66.3757 20.3952 66.304 19.543 66.2324 18.7266H66.1465ZM82.5391 18.8984C82.5104 19.1562 82.4746 19.3568 82.4316 19.5C82.403 19.6432 82.3457 19.7721 82.2598 19.8867C82.1738 20.0013 82.0521 20.123 81.8945 20.252C81.737 20.3665 81.5221 20.5384 81.25 20.7676C80.9779 20.9824 80.6413 21.2689 80.2402 21.627C79.8392 21.985 79.3522 22.4505 78.7793 23.0234C78.5501 23.2383 78.3138 23.4603 78.0703 23.6895C77.8268 23.9186 77.569 24.1263 77.2969 24.3125C77.0391 24.4844 76.7669 24.6276 76.4805 24.7422C76.194 24.8568 75.8932 24.9141 75.5781 24.9141C74.9622 24.9141 74.5111 24.7064 74.2246 24.291C73.9382 23.8757 73.7949 23.3958 73.7949 22.8516C73.7949 22.4935 73.8021 22.1927 73.8164 21.9492C73.8451 21.7057 73.9023 21.3906 73.9883 21.0039C73.8307 20.8607 73.6947 20.7389 73.5801 20.6387C73.4655 20.5241 73.4082 20.3737 73.4082 20.1875C73.4082 20.0156 73.444 19.901 73.5156 19.8438C73.6016 19.7865 73.6947 19.7507 73.7949 19.7363C73.9095 19.7077 74.0169 19.679 74.1172 19.6504C74.2174 19.6217 74.2891 19.5645 74.332 19.4785C74.3607 19.3926 74.4108 19.235 74.4824 19.0059C74.5684 18.7767 74.6543 18.5404 74.7402 18.2969C74.8262 18.0391 74.9049 17.8027 74.9766 17.5879C75.0625 17.3587 75.1198 17.2012 75.1484 17.1152C75.2487 16.8717 75.3561 16.6283 75.4707 16.3848C75.5996 16.127 75.7428 15.8978 75.9004 15.6973C76.0723 15.4967 76.2656 15.332 76.4805 15.2031C76.7096 15.0742 76.9746 15.0098 77.2754 15.0098C77.4473 15.0098 77.6549 15.0885 77.8984 15.2461C78.1562 15.4036 78.3997 15.597 78.6289 15.8262C78.8581 16.041 79.0514 16.2702 79.209 16.5137C79.3665 16.7572 79.4453 16.9648 79.4453 17.1367C79.4453 17.3516 79.3952 17.5521 79.2949 17.7383C79.1947 17.9102 79.0658 18.0749 78.9082 18.2324C78.765 18.3757 78.6074 18.5117 78.4355 18.6406C78.2637 18.7695 78.1061 18.8913 77.9629 19.0059C77.9486 19.0059 77.9199 19.0202 77.877 19.0488C77.834 19.0775 77.7982 19.099 77.7695 19.1133C77.7552 19.1276 77.7194 19.1634 77.6621 19.2207C77.6191 19.2637 77.569 19.3138 77.5117 19.3711C77.4544 19.4284 77.3971 19.4857 77.3398 19.543C77.2969 19.6003 77.2682 19.6361 77.2539 19.6504C77.2109 19.6934 77.125 19.765 76.9961 19.8652C76.8815 19.9512 76.7526 20.0514 76.6094 20.166C76.4661 20.2663 76.3301 20.3665 76.2012 20.4668C76.0866 20.5527 76.0078 20.61 75.9648 20.6387L75.8789 20.8105C75.8503 20.8678 75.8216 20.9967 75.793 21.1973C75.7786 21.3835 75.7572 21.5983 75.7285 21.8418C75.6999 22.0853 75.6712 22.3359 75.6426 22.5938C75.6283 22.8372 75.6211 23.0378 75.6211 23.1953C75.6211 23.2096 75.6283 23.224 75.6426 23.2383C75.6712 23.2669 75.6927 23.2812 75.707 23.2812C75.8216 23.2812 75.929 23.2311 76.0293 23.1309C76.1296 23.0306 76.237 22.959 76.3516 22.916L79.7891 19.7363L80.6699 18.3828C80.7415 18.2826 80.8776 18.1751 81.0781 18.0605C81.293 17.9316 81.5078 17.8672 81.7227 17.8672C81.9375 17.8529 82.1237 17.9173 82.2812 18.0605C82.4531 18.2038 82.5391 18.4831 82.5391 18.8984ZM77.8125 17.2227C77.8841 17.1654 77.9128 17.0794 77.8984 16.9648C77.8841 16.8503 77.8411 16.75 77.7695 16.6641C77.7122 16.5781 77.6335 16.528 77.5332 16.5137C77.4329 16.485 77.3398 16.5352 77.2539 16.6641C77.2109 16.7214 77.1322 16.8359 77.0176 17.0078C76.9173 17.1797 76.8099 17.3587 76.6953 17.5449C76.5951 17.7168 76.5091 17.8672 76.4375 17.9961C76.3659 18.125 76.3516 18.1751 76.3945 18.1465L77.8125 17.2227ZM84.0859 24.0762C84.0573 23.5605 84.0072 22.873 83.9355 22.0137C83.8783 21.14 83.8066 20.2376 83.7207 19.3066C83.6491 18.3757 83.5703 17.4948 83.4844 16.6641C83.3984 15.8333 83.3268 15.1888 83.2695 14.7305C83.2695 14.5443 83.3555 14.4225 83.5273 14.3652C83.6992 14.3079 83.8639 14.2793 84.0215 14.2793C84.222 14.2793 84.4297 14.3366 84.6445 14.4512C84.8737 14.5658 85.0169 14.7233 85.0742 14.9238C85.0742 14.9811 85.0814 15.0885 85.0957 15.2461C85.11 15.3893 85.1172 15.5397 85.1172 15.6973C85.1315 15.8548 85.1458 16.0124 85.1602 16.1699C85.1745 16.3132 85.1816 16.4134 85.1816 16.4707C85.1816 16.5566 85.1816 16.6211 85.1816 16.6641C85.1816 16.707 85.1816 16.75 85.1816 16.793C85.1816 16.8216 85.1888 16.8574 85.2031 16.9004C85.2174 16.9434 85.2389 17.015 85.2676 17.1152C85.2962 17.0866 85.3249 17.0508 85.3535 17.0078C85.3965 16.9648 85.4251 16.9362 85.4395 16.9219C85.6686 16.5924 85.8906 16.306 86.1055 16.0625C86.3203 15.8047 86.5423 15.5684 86.7715 15.3535C87.0007 15.1243 87.2513 14.888 87.5234 14.6445C87.8099 14.3867 88.1393 14.0931 88.5117 13.7637C88.5977 13.6921 88.6621 13.6419 88.7051 13.6133C88.748 13.5703 88.7839 13.5417 88.8125 13.5273C88.8555 13.4987 88.8984 13.4844 88.9414 13.4844C88.9844 13.4701 89.0417 13.4629 89.1133 13.4629C89.3568 13.4629 89.6003 13.5488 89.8438 13.7207C90.1016 13.8783 90.2305 14.1003 90.2305 14.3867C90.2305 14.487 90.1947 14.5944 90.123 14.709C90.0514 14.8092 89.9655 14.9095 89.8652 15.0098C89.765 15.0957 89.6576 15.1745 89.543 15.2461C89.4427 15.3177 89.3496 15.3678 89.2637 15.3965C88.8913 15.7259 88.4974 16.1055 88.082 16.5352C87.6667 16.9505 87.2799 17.4017 86.9219 17.8887C86.5638 18.3757 86.2702 18.8841 86.041 19.4141C85.8118 19.944 85.6973 20.474 85.6973 21.0039C85.6973 21.4909 85.7331 21.9707 85.8047 22.4434C85.8763 22.916 85.9121 23.3958 85.9121 23.8828V24.6348C85.7975 24.7493 85.6973 24.8424 85.6113 24.9141C85.5254 24.9857 85.4036 25.0215 85.2461 25.0215C85.0026 25.0215 84.7663 24.9212 84.5371 24.7207C84.3079 24.5059 84.1576 24.291 84.0859 24.0762ZM100.006 14.752C99.8483 14.6374 99.6979 14.4512 99.5547 14.1934C99.4115 13.9355 99.3398 13.7064 99.3398 13.5059C99.3398 13.291 99.4258 13.1263 99.5977 13.0117C99.7695 12.8971 99.9486 12.8398 100.135 12.8398C100.364 12.8398 100.557 12.8828 100.715 12.9688C100.872 13.0547 101.023 13.1979 101.166 13.3984C101.324 13.599 101.495 13.8711 101.682 14.2148C101.882 14.5586 102.133 14.9954 102.434 15.5254C102.734 16.041 103.114 16.6641 103.572 17.3945C104.031 18.1107 104.596 18.9486 105.27 19.9082C105.312 20.0228 105.391 20.166 105.506 20.3379C105.62 20.4954 105.692 20.5957 105.721 20.6387L105.807 20.4668L106.988 16.0195L107.074 15.8262L107.912 12.8398C107.869 12.582 107.926 12.3529 108.084 12.1523C108.242 11.9518 108.442 11.8516 108.686 11.8516C108.929 11.8516 109.173 11.9375 109.416 12.1094C109.674 12.2669 109.803 12.4818 109.803 12.7539V12.8398L107.354 22.0137C107.354 22.0423 107.339 22.1354 107.311 22.293C107.282 22.4362 107.253 22.6009 107.225 22.7871C107.196 22.959 107.167 23.138 107.139 23.3242C107.11 23.4961 107.089 23.6322 107.074 23.7324C107.06 23.8613 107.046 24.0046 107.031 24.1621C107.031 24.3053 107.003 24.4414 106.945 24.5703C106.902 24.6849 106.831 24.7852 106.73 24.8711C106.63 24.957 106.48 25 106.279 25C105.936 25 105.678 24.9069 105.506 24.7207C105.334 24.5345 105.205 24.3125 105.119 24.0547C105.033 23.7826 104.962 23.5033 104.904 23.2168C104.847 22.916 104.754 22.6654 104.625 22.4648L100.006 14.752ZM111.822 24.1836C111.679 22.7513 111.557 21.5267 111.457 20.5098C111.357 19.4928 111.271 18.6406 111.199 17.9531C111.128 17.2656 111.063 16.7214 111.006 16.3203C110.963 15.9049 110.927 15.597 110.898 15.3965C110.87 15.1816 110.848 15.0384 110.834 14.9668C110.82 14.8952 110.812 14.8522 110.812 14.8379V14.752C110.812 14.5944 110.877 14.4655 111.006 14.3652C111.149 14.2507 111.292 14.1934 111.436 14.1934C111.65 14.1934 111.88 14.2292 112.123 14.3008C112.381 14.3724 112.553 14.5228 112.639 14.752C112.768 15.4538 112.854 16.1628 112.896 16.8789C112.954 17.5951 112.997 18.3112 113.025 19.0273C113.068 19.7292 113.118 20.4382 113.176 21.1543C113.247 21.8704 113.369 22.5794 113.541 23.2812C113.541 23.3099 113.548 23.3672 113.562 23.4531C113.591 23.5391 113.613 23.6322 113.627 23.7324C113.656 23.8327 113.677 23.9258 113.691 24.0117C113.706 24.0977 113.713 24.1549 113.713 24.1836V24.2266C113.713 24.2409 113.72 24.2552 113.734 24.2695C113.734 24.4414 113.656 24.6133 113.498 24.7852C113.34 24.957 113.176 25.0286 113.004 25C112.961 24.9857 112.854 24.9642 112.682 24.9355C112.524 24.8926 112.417 24.8568 112.359 24.8281C112.316 24.8138 112.259 24.7852 112.188 24.7422C112.116 24.6849 112.044 24.6276 111.973 24.5703C111.915 24.513 111.865 24.4486 111.822 24.377C111.779 24.3053 111.779 24.2409 111.822 24.1836ZM110.619 8.52148C110.619 8.42122 110.698 8.33529 110.855 8.26367C111.027 8.17773 111.156 8.13477 111.242 8.13477C111.457 8.13477 111.693 8.19922 111.951 8.32812C112.223 8.44271 112.359 8.62174 112.359 8.86523C112.359 9.10872 112.324 9.27344 112.252 9.35938C112.195 9.44531 112.044 9.48828 111.801 9.48828C111.543 9.48828 111.278 9.40234 111.006 9.23047C110.748 9.05859 110.619 8.82227 110.619 8.52148ZM117.773 24.1836C117.773 24.112 117.773 24.0475 117.773 23.9902C117.788 23.9329 117.824 23.8757 117.881 23.8184C118.053 23.6035 118.246 23.3815 118.461 23.1523C118.676 22.9089 118.883 22.6725 119.084 22.4434C119.285 22.1999 119.471 21.9492 119.643 21.6914C119.814 21.4336 119.958 21.1758 120.072 20.918V20.7891L117.258 21.3691H116.936C116.735 21.3691 116.484 21.3548 116.184 21.3262C115.897 21.2975 115.611 21.2402 115.324 21.1543C115.052 21.054 114.816 20.918 114.615 20.7461C114.429 20.5742 114.336 20.3451 114.336 20.0586C114.35 19.7292 114.522 19.3639 114.852 18.9629C115.181 18.5618 115.568 18.168 116.012 17.7812C116.456 17.3945 116.9 17.0365 117.344 16.707C117.802 16.3776 118.167 16.1198 118.439 15.9336C118.74 15.7617 119.098 15.6257 119.514 15.5254C119.929 15.4108 120.309 15.3535 120.652 15.3535C120.939 15.3535 121.189 15.4108 121.404 15.5254C121.619 15.6257 121.727 15.8333 121.727 16.1484C121.727 16.2773 121.712 16.3991 121.684 16.5137C121.669 16.6283 121.583 16.707 121.426 16.75C120.967 16.707 120.538 16.7428 120.137 16.8574C119.736 16.9577 119.356 17.1152 118.998 17.3301C118.64 17.5449 118.303 17.8027 117.988 18.1035C117.673 18.39 117.365 18.6908 117.064 19.0059C116.979 19.1061 116.871 19.2493 116.742 19.4355C116.613 19.6074 116.549 19.7077 116.549 19.7363V19.7578C116.921 19.7578 117.286 19.722 117.645 19.6504C118.017 19.5788 118.382 19.5072 118.74 19.4355C119.113 19.3496 119.478 19.2708 119.836 19.1992C120.208 19.1276 120.588 19.0918 120.975 19.0918C121.118 19.0918 121.275 19.1061 121.447 19.1348C121.619 19.1491 121.777 19.1921 121.92 19.2637C122.077 19.3353 122.199 19.4355 122.285 19.5645C122.385 19.679 122.436 19.8294 122.436 20.0156C122.436 20.2878 122.364 20.5527 122.221 20.8105C122.092 21.054 121.891 21.3548 121.619 21.7129C121.361 22.0566 121.025 22.4792 120.609 22.9805C120.208 23.4818 119.729 24.1263 119.17 24.9141C119.141 24.957 119.07 24.9857 118.955 25C118.855 25.0143 118.769 25.0215 118.697 25.0215C118.497 25.0215 118.289 24.9355 118.074 24.7637C117.874 24.5918 117.773 24.3984 117.773 24.1836ZM124.391 24.1836C124.247 22.7513 124.126 21.5267 124.025 20.5098C123.925 19.4928 123.839 18.6406 123.768 17.9531C123.696 17.2656 123.632 16.7214 123.574 16.3203C123.531 15.9049 123.495 15.597 123.467 15.3965C123.438 15.1816 123.417 15.0384 123.402 14.9668C123.388 14.8952 123.381 14.8522 123.381 14.8379V14.752C123.381 14.5944 123.445 14.4655 123.574 14.3652C123.717 14.2507 123.861 14.1934 124.004 14.1934C124.219 14.1934 124.448 14.2292 124.691 14.3008C124.949 14.3724 125.121 14.5228 125.207 14.752C125.336 15.4538 125.422 16.1628 125.465 16.8789C125.522 17.5951 125.565 18.3112 125.594 19.0273C125.637 19.7292 125.687 20.4382 125.744 21.1543C125.816 21.8704 125.938 22.5794 126.109 23.2812C126.109 23.3099 126.117 23.3672 126.131 23.4531C126.16 23.5391 126.181 23.6322 126.195 23.7324C126.224 23.8327 126.245 23.9258 126.26 24.0117C126.274 24.0977 126.281 24.1549 126.281 24.1836V24.2266C126.281 24.2409 126.288 24.2552 126.303 24.2695C126.303 24.4414 126.224 24.6133 126.066 24.7852C125.909 24.957 125.744 25.0286 125.572 25C125.529 24.9857 125.422 24.9642 125.25 24.9355C125.092 24.8926 124.985 24.8568 124.928 24.8281C124.885 24.8138 124.827 24.7852 124.756 24.7422C124.684 24.6849 124.613 24.6276 124.541 24.5703C124.484 24.513 124.434 24.4486 124.391 24.377C124.348 24.3053 124.348 24.2409 124.391 24.1836ZM123.188 8.52148C123.188 8.42122 123.266 8.33529 123.424 8.26367C123.596 8.17773 123.725 8.13477 123.811 8.13477C124.025 8.13477 124.262 8.19922 124.52 8.32812C124.792 8.44271 124.928 8.62174 124.928 8.86523C124.928 9.10872 124.892 9.27344 124.82 9.35938C124.763 9.44531 124.613 9.48828 124.369 9.48828C124.111 9.48828 123.846 9.40234 123.574 9.23047C123.316 9.05859 123.188 8.82227 123.188 8.52148ZM127.162 21.7129L127.957 16.1914C127.986 16.0052 128.064 15.8691 128.193 15.7832C128.337 15.6973 128.494 15.6543 128.666 15.6543C128.981 15.6543 129.232 15.7474 129.418 15.9336C129.604 16.1055 129.762 16.3203 129.891 16.5781H129.912C130.084 16.5781 130.234 16.5495 130.363 16.4922C130.507 16.4206 130.678 16.3848 130.879 16.3848C131.337 16.3848 131.724 16.528 132.039 16.8145C132.368 17.1009 132.633 17.4518 132.834 17.8672C133.035 18.2682 133.178 18.7051 133.264 19.1777C133.364 19.6504 133.414 20.0658 133.414 20.4238C133.414 20.8535 133.299 21.3333 133.07 21.8633C132.855 22.3932 132.562 22.8945 132.189 23.3672C131.831 23.8398 131.423 24.2337 130.965 24.5488C130.507 24.8639 130.041 25.0215 129.568 25.0215C129.139 25.0215 128.766 24.9212 128.451 24.7207C128.15 24.5202 127.9 24.2695 127.699 23.9688C127.513 23.6536 127.377 23.3027 127.291 22.916C127.205 22.5293 127.162 22.1497 127.162 21.7773V21.7129ZM128.967 21.8418C128.995 21.985 129.024 22.1497 129.053 22.3359C129.081 22.5221 129.124 22.694 129.182 22.8516C129.239 22.9948 129.318 23.1094 129.418 23.1953C129.533 23.2669 129.69 23.2669 129.891 23.1953C130.077 23.0234 130.277 22.8301 130.492 22.6152C130.707 22.4004 130.908 22.1712 131.094 21.9277C131.294 21.6842 131.459 21.4264 131.588 21.1543C131.717 20.8822 131.781 20.5957 131.781 20.2949C131.839 19.8079 131.803 19.3639 131.674 18.9629C131.545 18.5475 131.359 18.2539 131.115 18.082C130.886 17.8958 130.621 17.8743 130.32 18.0176C130.02 18.1465 129.719 18.5117 129.418 19.1133C129.246 19.4857 129.124 19.9225 129.053 20.4238C128.995 20.9108 128.967 21.362 128.967 21.7773V21.8418ZM140.482 24.2695C140.282 23.9831 140.11 23.5892 139.967 23.0879C139.838 22.5723 139.709 22.0352 139.58 21.4766C139.465 20.9036 139.358 20.3522 139.258 19.8223C139.158 19.278 139.05 18.8483 138.936 18.5332C138.835 18.2038 138.721 18.0176 138.592 17.9746C138.463 17.9316 138.312 18.125 138.141 18.5547L136.271 24.3125C136.2 24.513 136.114 24.6562 136.014 24.7422C135.913 24.8138 135.749 24.8496 135.52 24.8496C135.405 24.8496 135.283 24.8353 135.154 24.8066C135.025 24.7637 134.904 24.7064 134.789 24.6348C134.674 24.5632 134.574 24.4772 134.488 24.377C134.417 24.2767 134.374 24.1621 134.359 24.0332C134.402 23.8613 134.438 23.5462 134.467 23.0879C134.51 22.6296 134.538 22.0996 134.553 21.498C134.567 20.8965 134.574 20.2663 134.574 19.6074C134.589 18.9342 134.589 18.3112 134.574 17.7383C134.574 17.151 134.567 16.6497 134.553 16.2344C134.538 15.8047 134.524 15.5254 134.51 15.3965C134.51 15.2533 134.51 15.11 134.51 14.9668C134.524 14.8092 134.546 14.666 134.574 14.5371C134.617 14.4082 134.682 14.3079 134.768 14.2363C134.868 14.1504 135.018 14.1074 135.219 14.1074C135.491 14.1074 135.742 14.222 135.971 14.4512C136.214 14.6803 136.336 14.9238 136.336 15.1816C136.336 15.554 136.314 15.9264 136.271 16.2988C136.243 16.6569 136.229 17.0221 136.229 17.3945C136.229 17.6237 136.229 17.8171 136.229 17.9746C136.229 18.1322 136.257 18.3255 136.314 18.5547C136.357 18.4401 136.429 18.2396 136.529 17.9531C136.63 17.6667 136.737 17.3659 136.852 17.0508C136.98 16.7357 137.095 16.4421 137.195 16.1699C137.296 15.8835 137.367 15.6829 137.41 15.5684C137.51 15.2819 137.661 15.0098 137.861 14.752C138.062 14.4798 138.327 14.3294 138.656 14.3008C138.871 14.2865 139.064 14.3438 139.236 14.4727C139.423 14.6016 139.58 14.7734 139.709 14.9883C139.838 15.1888 139.945 15.4036 140.031 15.6328C140.117 15.8477 140.182 16.0339 140.225 16.1914L141.385 21.541L142.287 23.9902C142.301 24.0046 142.309 24.0475 142.309 24.1191C142.309 24.1764 142.309 24.2194 142.309 24.248C142.309 24.4199 142.266 24.5918 142.18 24.7637C142.108 24.9212 141.972 25 141.771 25C141.528 25 141.277 24.9355 141.02 24.8066C140.762 24.6634 140.583 24.4844 140.482 24.2695Z" fill="black"/>
<defs>
<filter id="filter0_i_4585_2707" x="1.95215" y="1.96155" width="156.593" height="33.5385" filterUnits="userSpaceOnUse" color-interpolation-filters="sRGB">
<feFlood flood-opacity="0" result="BackgroundImageFix"/>
<feBlend mode="normal" in="SourceGraphic" in2="BackgroundImageFix" result="shape"/>
<feColorMatrix in="SourceAlpha" type="matrix" values="0 0 0 0 0 0 0 0 0 0 0 0 0 0 0 0 0 0 127 0" result="hardAlpha"/>
<feOffset dx="4" dy="4"/>
<feComposite in2="hardAlpha" operator="arithmetic" k2="-1" k3="1"/>
<feColorMatrix type="matrix" values="0 0 0 0 0.694118 0 0 0 0 0.721569 0 0 0 0 0.741176 0 0 0 1 0"/>
<feBlend mode="multiply" in2="shape" result="effect1_innerShadow_4585_2707"/>
</filter>
</defs>
</svg>
