<svg width="73" height="37" viewBox="0 0 73 37" fill="none" xmlns="http://www.w3.org/2000/svg">
<g filter="url(#filter0_i_4585_2537)">
<path d="M67.0216 7.61228C70.541 11.6933 70.541 20.3656 70.541 20.3656C70.7307 28.2124 64.2761 34.5 56.0197 34.5C56.0198 31.5523 56.0195 2.00081 56.0195 2.00081C59.1629 1.66061 63.5022 3.53121 67.0216 7.61228Z" fill="white"/>
<path d="M18.7676 2H56.0195V34.5C56.0195 34.5 50.4939 34.2049 44.3883 34.5C40.9814 34.6647 33.8286 35.5 31.2699 35.5C24.1257 35.5 18.7676 34.5 18.7676 34.5V2Z" fill="white"/>
<path d="M5.14517 27.9432C0.335274 22.3612 1.47845 11.5 5.14549 8C8.81252 4.5 8.60485 4.5 11.9565 3.5C15.3082 2.5 18.7674 2 18.7674 2V34.5C13.1929 34.5 9.95507 33.5252 5.14517 27.9432Z" fill="white"/>
</g>
<path d="M18.7676 34.5C24.6559 34.5 24.4549 35 30.3401 35C36.2284 35 36.9379 34.4063 42.8262 34.4063C48.7145 34.4063 46.9878 34 52.8761 34" stroke="black" stroke-width="3" stroke-miterlimit="10" stroke-linecap="round" stroke-linejoin="round"/>
<path d="M2.00244 17.5C2.00244 7 9.6485 2 18.555 2C11.2202 2 2.52635 8 2.52635 17.5C2.52635 31.5 14.5763 34.5 18.2437 34.5C10.385 34.5 2.00244 28 2.00244 17.5Z" stroke="black" stroke-width="3" stroke-linecap="round" stroke-linejoin="round"/>
<path d="M71 19C71 29.5 61.7824 34 52.8759 34C60.2107 34 69.33 30.5 70.165 20.5C71.3303 6.54422 60.7346 2 54.7587 1.99999C62.6174 2 71 8.49998 71 19Z" stroke="black" stroke-width="3" stroke-linecap="round" stroke-linejoin="round"/>
<path d="M18.7676 2C24.8546 2 24.225 2 30.3088 2C36.3958 2 36.4144 1.5 42.5014 1.5C48.5884 1.5 48.8847 2.00001 54.9717 2.00001" stroke="black" stroke-width="3" stroke-miterlimit="10" stroke-linecap="round" stroke-linejoin="round"/>
<path d="M21.0293 24.3125C21.0293 24.1836 21.0723 24.069 21.1582 23.9688C21.2585 23.8685 21.3086 23.7611 21.3086 23.6465C21.3086 23.6178 21.2799 23.582 21.2227 23.5391C21.1654 23.4961 21.1296 23.4674 21.1152 23.4531C20.972 23.2383 20.8932 22.9948 20.8789 22.7227C20.8646 22.4505 20.8574 22.1927 20.8574 21.9492C20.8574 20.6315 20.8646 19.3281 20.8789 18.0391C20.8932 16.75 20.9004 15.4466 20.9004 14.1289C20.7572 14.1289 20.6211 14.1647 20.4922 14.2363C20.3633 14.2936 20.2272 14.3652 20.084 14.4512C19.9408 14.5228 19.7904 14.5944 19.6328 14.666C19.4753 14.7233 19.3034 14.752 19.1172 14.752H18.7734C18.7448 14.709 18.6732 14.6732 18.5586 14.6445C18.444 14.6016 18.3867 14.5514 18.3867 14.4941V13.8496C18.4583 13.8066 18.5156 13.7493 18.5586 13.6777C18.6159 13.5918 18.6589 13.5202 18.6875 13.4629L20.8574 12.3887L20.9434 12.2812C20.9147 11.8802 20.9362 11.5579 21.0078 11.3145C21.0794 11.071 21.3301 10.9492 21.7598 10.9492C21.8743 10.9492 21.9961 10.9707 22.125 11.0137C22.2682 11.0566 22.3971 11.1139 22.5117 11.1855C22.6406 11.2572 22.7337 11.3503 22.791 11.4648C22.8626 11.5794 22.8841 11.7083 22.8555 11.8516C23.5716 11.8802 24.2806 11.9375 24.9824 12.0234C25.6842 12.0951 26.3145 12.2669 26.873 12.5391C27.4316 12.7969 27.8828 13.1836 28.2266 13.6992C28.5846 14.2148 28.7637 14.9238 28.7637 15.8262C28.7637 16.6426 28.6061 17.459 28.291 18.2754C27.9759 19.0918 27.5247 19.7936 26.9375 20.3809L22.8555 24.4414C22.6549 24.6419 22.4831 24.7852 22.3398 24.8711C22.2109 24.957 22.0176 25 21.7598 25C21.5449 25 21.3659 24.9427 21.2227 24.8281C21.0938 24.6992 21.0293 24.5273 21.0293 24.3125ZM22.8555 22.3789H22.7695L22.9414 22.2715C22.9557 22.2572 23.0059 22.2142 23.0918 22.1426C23.1921 22.0566 23.2995 21.9635 23.4141 21.8633C23.5286 21.7487 23.6432 21.6413 23.7578 21.541C23.8724 21.4408 23.9655 21.3548 24.0371 21.2832C24.3665 20.9395 24.7103 20.5742 25.0684 20.1875C25.4408 19.8008 25.7773 19.3926 26.0781 18.9629C26.3789 18.5189 26.6224 18.0605 26.8086 17.5879C27.0091 17.1009 27.1094 16.5924 27.1094 16.0625C27.1094 15.5612 27.0163 15.1387 26.8301 14.7949C26.6439 14.4368 26.3932 14.1504 26.0781 13.9355C25.7773 13.7064 25.4193 13.5417 25.0039 13.4414C24.5885 13.3411 24.1445 13.291 23.6719 13.291C23.6289 13.291 23.5 13.3053 23.2852 13.334C23.0846 13.3483 22.9414 13.3913 22.8555 13.4629V22.3789ZM34.7363 19.0059C34.6074 19.235 34.457 19.5143 34.2852 19.8438C34.1276 20.1589 33.9557 20.5026 33.7695 20.875C33.5833 21.2331 33.3757 21.5983 33.1465 21.9707C32.9316 22.3288 32.7025 22.6582 32.459 22.959C32.2298 23.2598 31.9863 23.5176 31.7285 23.7324C31.4707 23.9329 31.2057 24.0547 30.9336 24.0977C30.819 24.0977 30.6901 24.0905 30.5469 24.0762C30.4036 24.0475 30.2604 24.0117 30.1172 23.9688C29.974 23.9115 29.8522 23.8398 29.752 23.7539C29.666 23.6536 29.623 23.5247 29.623 23.3672C29.6374 21.9062 29.7448 20.5814 29.9453 19.3926C30.1458 18.1895 30.4609 17.1367 30.8906 16.2344C31.3203 15.3177 31.8717 14.5586 32.5449 13.957C33.2181 13.3555 34.0345 12.9258 34.9941 12.668C35.0228 12.668 35.0729 12.668 35.1445 12.668C35.2305 12.6536 35.2878 12.6465 35.3164 12.6465C35.7461 12.6322 36.054 12.8327 36.2402 13.248C36.4408 13.6491 36.584 14.2936 36.6699 15.1816C36.7702 16.0553 36.8346 17.1868 36.8633 18.5762C36.9062 19.9512 36.985 21.6055 37.0996 23.5391C37.1426 23.6966 37.1641 23.8327 37.1641 23.9473C37.1784 24.0618 37.1855 24.1979 37.1855 24.3555C37.1855 24.5703 37.1211 24.735 36.9922 24.8496C36.8633 24.9499 36.6986 25 36.498 25C36.0827 25 35.7891 24.8854 35.6172 24.6562C35.4453 24.4271 35.3307 24.1191 35.2734 23.7324C35.2734 23.7181 35.2591 23.6035 35.2305 23.3887C35.2161 23.1738 35.1875 22.9303 35.1445 22.6582C35.1159 22.3717 35.0872 22.0853 35.0586 21.7988C35.0299 21.5124 35.0085 21.276 34.9941 21.0898V21.0039C34.9655 20.8607 34.944 20.6816 34.9297 20.4668C34.9297 20.252 34.9154 20.0443 34.8867 19.8438C34.8581 19.6003 34.8366 19.3568 34.8223 19.1133L34.7363 19.0059ZM34.2637 14.752C33.877 15.0384 33.4974 15.4251 33.125 15.9121C32.7526 16.3991 32.4876 16.8717 32.3301 17.3301C32.2585 17.5449 32.1797 17.8385 32.0938 18.2109C32.0078 18.5833 31.929 18.9557 31.8574 19.3281C31.8001 19.6862 31.75 20.0228 31.707 20.3379C31.6641 20.6387 31.6426 20.832 31.6426 20.918C31.6569 20.918 31.6712 20.9036 31.6855 20.875C31.7142 20.8464 31.7357 20.8249 31.75 20.8105C32.638 19.9512 33.2611 19.0273 33.6191 18.0391C33.9915 17.0365 34.2064 15.9408 34.2637 14.752ZM39.2695 24.0762C39.2409 23.5605 39.1908 22.873 39.1191 22.0137C39.0618 21.14 38.9902 20.2376 38.9043 19.3066C38.8327 18.3757 38.7539 17.4948 38.668 16.6641C38.582 15.8333 38.5104 15.1888 38.4531 14.7305C38.4531 14.5443 38.5391 14.4225 38.7109 14.3652C38.8828 14.3079 39.0475 14.2793 39.2051 14.2793C39.4056 14.2793 39.6133 14.3366 39.8281 14.4512C40.0573 14.5658 40.2005 14.7233 40.2578 14.9238C40.2578 14.9811 40.265 15.0885 40.2793 15.2461C40.2936 15.3893 40.3008 15.5397 40.3008 15.6973C40.3151 15.8548 40.3294 16.0124 40.3438 16.1699C40.3581 16.3132 40.3652 16.4134 40.3652 16.4707C40.3652 16.5566 40.3652 16.6211 40.3652 16.6641C40.3652 16.707 40.3652 16.75 40.3652 16.793C40.3652 16.8216 40.3724 16.8574 40.3867 16.9004C40.401 16.9434 40.4225 17.015 40.4512 17.1152C40.4798 17.0866 40.5085 17.0508 40.5371 17.0078C40.5801 16.9648 40.6087 16.9362 40.623 16.9219C40.8522 16.5924 41.0742 16.306 41.2891 16.0625C41.5039 15.8047 41.7259 15.5684 41.9551 15.3535C42.1842 15.1243 42.4349 14.888 42.707 14.6445C42.9935 14.3867 43.3229 14.0931 43.6953 13.7637C43.7812 13.6921 43.8457 13.6419 43.8887 13.6133C43.9316 13.5703 43.9674 13.5417 43.9961 13.5273C44.0391 13.4987 44.082 13.4844 44.125 13.4844C44.168 13.4701 44.2253 13.4629 44.2969 13.4629C44.5404 13.4629 44.7839 13.5488 45.0273 13.7207C45.2852 13.8783 45.4141 14.1003 45.4141 14.3867C45.4141 14.487 45.3783 14.5944 45.3066 14.709C45.235 14.8092 45.1491 14.9095 45.0488 15.0098C44.9486 15.0957 44.8411 15.1745 44.7266 15.2461C44.6263 15.3177 44.5332 15.3678 44.4473 15.3965C44.0749 15.7259 43.681 16.1055 43.2656 16.5352C42.8503 16.9505 42.4635 17.4017 42.1055 17.8887C41.7474 18.3757 41.4538 18.8841 41.2246 19.4141C40.9954 19.944 40.8809 20.474 40.8809 21.0039C40.8809 21.4909 40.9167 21.9707 40.9883 22.4434C41.0599 22.916 41.0957 23.3958 41.0957 23.8828V24.6348C40.9811 24.7493 40.8809 24.8424 40.7949 24.9141C40.709 24.9857 40.5872 25.0215 40.4297 25.0215C40.1862 25.0215 39.9499 24.9212 39.7207 24.7207C39.4915 24.5059 39.3411 24.291 39.2695 24.0762ZM48.0352 18.7266C47.8346 18.7266 47.6556 18.7767 47.498 18.877C47.3405 18.9772 47.1543 19.0273 46.9395 19.0273C46.9108 19.0273 46.832 19.0273 46.7031 19.0273C46.5885 19.013 46.5169 19.0059 46.4883 19.0059C46.431 18.9342 46.3665 18.877 46.2949 18.834C46.2233 18.791 46.1517 18.748 46.0801 18.7051C46.0085 18.6478 45.944 18.5833 45.8867 18.5117C45.8438 18.4401 45.8223 18.3398 45.8223 18.2109C45.8223 17.9961 45.9082 17.8242 46.0801 17.6953C46.252 17.5521 46.4525 17.4303 46.6816 17.3301C46.9108 17.2298 47.14 17.1367 47.3691 17.0508C47.6126 16.9648 47.806 16.8646 47.9492 16.75V15.8047C47.9492 14.7448 47.8991 13.6849 47.7988 12.625C47.6986 11.5508 47.6484 10.4909 47.6484 9.44531C47.6484 9.15885 47.7201 8.97266 47.8633 8.88672C48.0065 8.80078 48.1999 8.75781 48.4434 8.75781C48.7298 8.75781 48.9375 8.84375 49.0664 9.01562C49.2096 9.17318 49.3099 9.3737 49.3672 9.61719C49.4245 9.84635 49.4531 10.097 49.4531 10.3691C49.4531 10.627 49.4603 10.849 49.4746 11.0352C49.4746 11.2214 49.4889 11.5508 49.5176 12.0234C49.5462 12.4961 49.5749 12.9974 49.6035 13.5273C49.6322 14.0573 49.6608 14.5586 49.6895 15.0312C49.7181 15.5039 49.7396 15.8333 49.7539 16.0195C49.8112 16.0052 49.9186 15.9694 50.0762 15.9121C50.248 15.8405 50.4271 15.776 50.6133 15.7188C50.7995 15.6471 50.9714 15.5827 51.1289 15.5254C51.3008 15.4681 51.4225 15.4251 51.4941 15.3965C51.8665 15.2389 52.2533 15.0671 52.6543 14.8809C53.0553 14.6803 53.4635 14.5801 53.8789 14.5801C54.1654 14.5801 54.3802 14.6803 54.5234 14.8809C54.681 15.0671 54.7598 15.2891 54.7598 15.5469C54.7598 15.7331 54.6882 15.8691 54.5449 15.9551C54.4017 16.041 54.2513 16.1198 54.0938 16.1914L50.1836 17.6523C50.1406 17.681 50.0977 17.7096 50.0547 17.7383C50.0117 17.7526 49.9688 17.7812 49.9258 17.8242V18.5117C49.9258 19.013 49.9329 19.5358 49.9473 20.0801C49.9759 20.61 50.026 21.1257 50.0977 21.627C50.1693 22.0566 50.248 22.4792 50.334 22.8945C50.4199 23.3099 50.4629 23.7324 50.4629 24.1621C50.4629 24.291 50.4199 24.4629 50.334 24.6777C50.248 24.8926 50.112 25 49.9258 25C49.5391 25 49.224 24.8854 48.9805 24.6562C48.737 24.4271 48.6009 24.1191 48.5723 23.7324C48.5007 22.9876 48.4219 22.1712 48.3359 21.2832C48.2643 20.3952 48.1927 19.543 48.1211 18.7266H48.0352Z" fill="black"/>
<defs>
<filter id="filter0_i_4585_2537" x="1.95215" y="1.96155" width="68.5928" height="33.5385" filterUnits="userSpaceOnUse" color-interpolation-filters="sRGB">
<feFlood flood-opacity="0" result="BackgroundImageFix"/>
<feBlend mode="normal" in="SourceGraphic" in2="BackgroundImageFix" result="shape"/>
<feColorMatrix in="SourceAlpha" type="matrix" values="0 0 0 0 0 0 0 0 0 0 0 0 0 0 0 0 0 0 127 0" result="hardAlpha"/>
<feOffset dx="4" dy="4"/>
<feComposite in2="hardAlpha" operator="arithmetic" k2="-1" k3="1"/>
<feColorMatrix type="matrix" values="0 0 0 0 0.694118 0 0 0 0 0.721569 0 0 0 0 0.741176 0 0 0 1 0"/>
<feBlend mode="multiply" in2="shape" result="effect1_innerShadow_4585_2537"/>
</filter>
</defs>
</svg>
