<svg width="130" height="37" viewBox="0 0 130 37" fill="none" xmlns="http://www.w3.org/2000/svg">
<g filter="url(#filter0_i_4585_2758)">
<path d="M124.022 7.61228C127.541 11.6933 127.541 20.3656 127.541 20.3656C127.731 28.2124 121.276 34.5 113.02 34.5C113.02 31.5523 113.02 2.00081 113.02 2.00081C116.163 1.66061 120.502 3.53121 124.022 7.61228Z" fill="white"/>
<path d="M18.7676 2H113.02V34.5C113.02 34.5 99.0389 34.2049 83.5911 34.5C74.9714 34.6647 56.8738 35.5 50.4001 35.5C32.3244 35.5 18.7676 34.5 18.7676 34.5V2Z" fill="white"/>
<path d="M5.14517 27.9432C0.335274 22.3612 1.47845 11.5 5.14549 8C8.81252 4.5 8.60485 4.5 11.9565 3.5C15.3082 2.5 18.7674 2 18.7674 2V34.5C13.1929 34.5 9.95507 33.5252 5.14517 27.9432Z" fill="white"/>
</g>
<path d="M18.7676 34.5C34.496 34.5 33.9593 35 49.6794 35C65.4078 35 67.3032 34.4063 83.0316 34.4063C98.76 34.4063 94.1476 34 109.876 34" stroke="black" stroke-width="3" stroke-miterlimit="10" stroke-linecap="round" stroke-linejoin="round"/>
<path d="M2.00244 17.5C2.00244 7 9.6485 2 18.555 2C11.2202 2 2.52635 8 2.52635 17.5C2.52635 31.5 14.5763 34.5 18.2437 34.5C10.385 34.5 2.00244 28 2.00244 17.5Z" stroke="black" stroke-width="3" stroke-linecap="round" stroke-linejoin="round"/>
<path d="M128 19C128 29.5 118.782 34 109.876 34C117.211 34 126.33 30.5 127.165 20.5C128.33 6.54422 117.735 2 111.759 1.99999C119.617 2 128 8.49998 128 19Z" stroke="black" stroke-width="3" stroke-linecap="round" stroke-linejoin="round"/>
<path d="M18.7676 2C34.4381 2 32.8171 2 48.4793 2C64.1498 2 64.1976 1.5 79.8681 1.5C95.5385 1.5 96.3012 2.00001 111.972 2.00001" stroke="black" stroke-width="3" stroke-miterlimit="10" stroke-linecap="round" stroke-linejoin="round"/>
<path d="M21.0293 24.3125C21.0293 24.1836 21.0723 24.069 21.1582 23.9688C21.2585 23.8685 21.3086 23.7611 21.3086 23.6465C21.3086 23.6178 21.2799 23.582 21.2227 23.5391C21.1654 23.4961 21.1296 23.4674 21.1152 23.4531C20.972 23.2383 20.8932 22.9948 20.8789 22.7227C20.8646 22.4505 20.8574 22.1927 20.8574 21.9492C20.8574 20.6315 20.8646 19.3281 20.8789 18.0391C20.8932 16.75 20.9004 15.4466 20.9004 14.1289C20.7572 14.1289 20.6211 14.1647 20.4922 14.2363C20.3633 14.2936 20.2272 14.3652 20.084 14.4512C19.9408 14.5228 19.7904 14.5944 19.6328 14.666C19.4753 14.7233 19.3034 14.752 19.1172 14.752H18.7734C18.7448 14.709 18.6732 14.6732 18.5586 14.6445C18.444 14.6016 18.3867 14.5514 18.3867 14.4941V13.8496C18.4583 13.8066 18.5156 13.7493 18.5586 13.6777C18.6159 13.5918 18.6589 13.5202 18.6875 13.4629L20.8574 12.3887L20.9434 12.2812C20.9147 11.8802 20.9362 11.5579 21.0078 11.3145C21.0794 11.071 21.3301 10.9492 21.7598 10.9492C21.8743 10.9492 21.9961 10.9707 22.125 11.0137C22.2682 11.0566 22.3971 11.1139 22.5117 11.1855C22.6406 11.2572 22.7337 11.3503 22.791 11.4648C22.8626 11.5794 22.8841 11.7083 22.8555 11.8516C23.5716 11.8802 24.2806 11.9375 24.9824 12.0234C25.6842 12.0951 26.3145 12.2669 26.873 12.5391C27.4316 12.7969 27.8828 13.1836 28.2266 13.6992C28.5846 14.2148 28.7637 14.9238 28.7637 15.8262C28.7637 16.6426 28.6061 17.459 28.291 18.2754C27.9759 19.0918 27.5247 19.7936 26.9375 20.3809L22.8555 24.4414C22.6549 24.6419 22.4831 24.7852 22.3398 24.8711C22.2109 24.957 22.0176 25 21.7598 25C21.5449 25 21.3659 24.9427 21.2227 24.8281C21.0938 24.6992 21.0293 24.5273 21.0293 24.3125ZM22.8555 22.3789H22.7695L22.9414 22.2715C22.9557 22.2572 23.0059 22.2142 23.0918 22.1426C23.1921 22.0566 23.2995 21.9635 23.4141 21.8633C23.5286 21.7487 23.6432 21.6413 23.7578 21.541C23.8724 21.4408 23.9655 21.3548 24.0371 21.2832C24.3665 20.9395 24.7103 20.5742 25.0684 20.1875C25.4408 19.8008 25.7773 19.3926 26.0781 18.9629C26.3789 18.5189 26.6224 18.0605 26.8086 17.5879C27.0091 17.1009 27.1094 16.5924 27.1094 16.0625C27.1094 15.5612 27.0163 15.1387 26.8301 14.7949C26.6439 14.4368 26.3932 14.1504 26.0781 13.9355C25.7773 13.7064 25.4193 13.5417 25.0039 13.4414C24.5885 13.3411 24.1445 13.291 23.6719 13.291C23.6289 13.291 23.5 13.3053 23.2852 13.334C23.0846 13.3483 22.9414 13.3913 22.8555 13.4629V22.3789ZM34.7363 19.0059C34.6074 19.235 34.457 19.5143 34.2852 19.8438C34.1276 20.1589 33.9557 20.5026 33.7695 20.875C33.5833 21.2331 33.3757 21.5983 33.1465 21.9707C32.9316 22.3288 32.7025 22.6582 32.459 22.959C32.2298 23.2598 31.9863 23.5176 31.7285 23.7324C31.4707 23.9329 31.2057 24.0547 30.9336 24.0977C30.819 24.0977 30.6901 24.0905 30.5469 24.0762C30.4036 24.0475 30.2604 24.0117 30.1172 23.9688C29.974 23.9115 29.8522 23.8398 29.752 23.7539C29.666 23.6536 29.623 23.5247 29.623 23.3672C29.6374 21.9062 29.7448 20.5814 29.9453 19.3926C30.1458 18.1895 30.4609 17.1367 30.8906 16.2344C31.3203 15.3177 31.8717 14.5586 32.5449 13.957C33.2181 13.3555 34.0345 12.9258 34.9941 12.668C35.0228 12.668 35.0729 12.668 35.1445 12.668C35.2305 12.6536 35.2878 12.6465 35.3164 12.6465C35.7461 12.6322 36.054 12.8327 36.2402 13.248C36.4408 13.6491 36.584 14.2936 36.6699 15.1816C36.7702 16.0553 36.8346 17.1868 36.8633 18.5762C36.9062 19.9512 36.985 21.6055 37.0996 23.5391C37.1426 23.6966 37.1641 23.8327 37.1641 23.9473C37.1784 24.0618 37.1855 24.1979 37.1855 24.3555C37.1855 24.5703 37.1211 24.735 36.9922 24.8496C36.8633 24.9499 36.6986 25 36.498 25C36.0827 25 35.7891 24.8854 35.6172 24.6562C35.4453 24.4271 35.3307 24.1191 35.2734 23.7324C35.2734 23.7181 35.2591 23.6035 35.2305 23.3887C35.2161 23.1738 35.1875 22.9303 35.1445 22.6582C35.1159 22.3717 35.0872 22.0853 35.0586 21.7988C35.0299 21.5124 35.0085 21.276 34.9941 21.0898V21.0039C34.9655 20.8607 34.944 20.6816 34.9297 20.4668C34.9297 20.252 34.9154 20.0443 34.8867 19.8438C34.8581 19.6003 34.8366 19.3568 34.8223 19.1133L34.7363 19.0059ZM34.2637 14.752C33.877 15.0384 33.4974 15.4251 33.125 15.9121C32.7526 16.3991 32.4876 16.8717 32.3301 17.3301C32.2585 17.5449 32.1797 17.8385 32.0938 18.2109C32.0078 18.5833 31.929 18.9557 31.8574 19.3281C31.8001 19.6862 31.75 20.0228 31.707 20.3379C31.6641 20.6387 31.6426 20.832 31.6426 20.918C31.6569 20.918 31.6712 20.9036 31.6855 20.875C31.7142 20.8464 31.7357 20.8249 31.75 20.8105C32.638 19.9512 33.2611 19.0273 33.6191 18.0391C33.9915 17.0365 34.2064 15.9408 34.2637 14.752ZM40.3652 18.7266C40.1647 18.7266 39.9857 18.7767 39.8281 18.877C39.6706 18.9772 39.4844 19.0273 39.2695 19.0273C39.2409 19.0273 39.1621 19.0273 39.0332 19.0273C38.9186 19.013 38.847 19.0059 38.8184 19.0059C38.7611 18.9342 38.6966 18.877 38.625 18.834C38.5534 18.791 38.4818 18.748 38.4102 18.7051C38.3385 18.6478 38.2741 18.5833 38.2168 18.5117C38.1738 18.4401 38.1523 18.3398 38.1523 18.2109C38.1523 17.9961 38.2383 17.8242 38.4102 17.6953C38.582 17.5521 38.7826 17.4303 39.0117 17.3301C39.2409 17.2298 39.4701 17.1367 39.6992 17.0508C39.9427 16.9648 40.1361 16.8646 40.2793 16.75V15.8047C40.2793 14.7448 40.2292 13.6849 40.1289 12.625C40.0286 11.5508 39.9785 10.4909 39.9785 9.44531C39.9785 9.15885 40.0501 8.97266 40.1934 8.88672C40.3366 8.80078 40.5299 8.75781 40.7734 8.75781C41.0599 8.75781 41.2676 8.84375 41.3965 9.01562C41.5397 9.17318 41.64 9.3737 41.6973 9.61719C41.7546 9.84635 41.7832 10.097 41.7832 10.3691C41.7832 10.627 41.7904 10.849 41.8047 11.0352C41.8047 11.2214 41.819 11.5508 41.8477 12.0234C41.8763 12.4961 41.9049 12.9974 41.9336 13.5273C41.9622 14.0573 41.9909 14.5586 42.0195 15.0312C42.0482 15.5039 42.0697 15.8333 42.084 16.0195C42.1413 16.0052 42.2487 15.9694 42.4062 15.9121C42.5781 15.8405 42.7572 15.776 42.9434 15.7188C43.1296 15.6471 43.3014 15.5827 43.459 15.5254C43.6309 15.4681 43.7526 15.4251 43.8242 15.3965C44.1966 15.2389 44.5833 15.0671 44.9844 14.8809C45.3854 14.6803 45.7936 14.5801 46.209 14.5801C46.4954 14.5801 46.7103 14.6803 46.8535 14.8809C47.0111 15.0671 47.0898 15.2891 47.0898 15.5469C47.0898 15.7331 47.0182 15.8691 46.875 15.9551C46.7318 16.041 46.5814 16.1198 46.4238 16.1914L42.5137 17.6523C42.4707 17.681 42.4277 17.7096 42.3848 17.7383C42.3418 17.7526 42.2988 17.7812 42.2559 17.8242V18.5117C42.2559 19.013 42.263 19.5358 42.2773 20.0801C42.306 20.61 42.3561 21.1257 42.4277 21.627C42.4993 22.0566 42.5781 22.4792 42.6641 22.8945C42.75 23.3099 42.793 23.7324 42.793 24.1621C42.793 24.291 42.75 24.4629 42.6641 24.6777C42.5781 24.8926 42.4421 25 42.2559 25C41.8691 25 41.554 24.8854 41.3105 24.6562C41.0671 24.4271 40.931 24.1191 40.9023 23.7324C40.8307 22.9876 40.752 22.1712 40.666 21.2832C40.5944 20.3952 40.5228 19.543 40.4512 18.7266H40.3652ZM52.7832 19.0059C52.6543 19.235 52.5039 19.5143 52.332 19.8438C52.1745 20.1589 52.0026 20.5026 51.8164 20.875C51.6302 21.2331 51.4225 21.5983 51.1934 21.9707C50.9785 22.3288 50.7493 22.6582 50.5059 22.959C50.2767 23.2598 50.0332 23.5176 49.7754 23.7324C49.5176 23.9329 49.2526 24.0547 48.9805 24.0977C48.8659 24.0977 48.737 24.0905 48.5938 24.0762C48.4505 24.0475 48.3073 24.0117 48.1641 23.9688C48.0208 23.9115 47.8991 23.8398 47.7988 23.7539C47.7129 23.6536 47.6699 23.5247 47.6699 23.3672C47.6842 21.9062 47.7917 20.5814 47.9922 19.3926C48.1927 18.1895 48.5078 17.1367 48.9375 16.2344C49.3672 15.3177 49.9186 14.5586 50.5918 13.957C51.265 13.3555 52.0814 12.9258 53.041 12.668C53.0697 12.668 53.1198 12.668 53.1914 12.668C53.2773 12.6536 53.3346 12.6465 53.3633 12.6465C53.793 12.6322 54.1009 12.8327 54.2871 13.248C54.4876 13.6491 54.6309 14.2936 54.7168 15.1816C54.8171 16.0553 54.8815 17.1868 54.9102 18.5762C54.9531 19.9512 55.0319 21.6055 55.1465 23.5391C55.1895 23.6966 55.2109 23.8327 55.2109 23.9473C55.2253 24.0618 55.2324 24.1979 55.2324 24.3555C55.2324 24.5703 55.168 24.735 55.0391 24.8496C54.9102 24.9499 54.7454 25 54.5449 25C54.1296 25 53.8359 24.8854 53.6641 24.6562C53.4922 24.4271 53.3776 24.1191 53.3203 23.7324C53.3203 23.7181 53.306 23.6035 53.2773 23.3887C53.263 23.1738 53.2344 22.9303 53.1914 22.6582C53.1628 22.3717 53.1341 22.0853 53.1055 21.7988C53.0768 21.5124 53.0553 21.276 53.041 21.0898V21.0039C53.0124 20.8607 52.9909 20.6816 52.9766 20.4668C52.9766 20.252 52.9622 20.0443 52.9336 19.8438C52.9049 19.6003 52.8835 19.3568 52.8691 19.1133L52.7832 19.0059ZM52.3105 14.752C51.9238 15.0384 51.5443 15.4251 51.1719 15.9121C50.7995 16.3991 50.5345 16.8717 50.377 17.3301C50.3053 17.5449 50.2266 17.8385 50.1406 18.2109C50.0547 18.5833 49.9759 18.9557 49.9043 19.3281C49.847 19.6862 49.7969 20.0228 49.7539 20.3379C49.7109 20.6387 49.6895 20.832 49.6895 20.918C49.7038 20.918 49.7181 20.9036 49.7324 20.875C49.7611 20.8464 49.7826 20.8249 49.7969 20.8105C50.6849 19.9512 51.3079 19.0273 51.666 18.0391C52.0384 17.0365 52.2533 15.9408 52.3105 14.752ZM65.3945 24.3555C65.3659 22.7656 65.3229 21.1829 65.2656 19.6074C65.2227 18.0176 65.2012 16.4277 65.2012 14.8379C65.2012 14.7233 65.2012 14.5228 65.2012 14.2363C65.2012 13.9355 65.2012 13.6204 65.2012 13.291C65.2155 12.9616 65.2227 12.6536 65.2227 12.3672C65.2227 12.0807 65.2227 11.8802 65.2227 11.7656C65.2799 11.5365 65.3659 11.3574 65.4805 11.2285C65.5951 11.0853 65.7741 11.0137 66.0176 11.0137C66.2611 11.0137 66.4759 11.0924 66.6621 11.25C66.8483 11.3932 66.9987 11.5651 67.1133 11.7656L70.207 17.7383C70.2214 17.7669 70.2715 17.8529 70.3574 17.9961C70.4434 18.1393 70.5078 18.2396 70.5508 18.2969C70.5651 18.3112 70.5866 18.3255 70.6152 18.3398C70.6439 18.3542 70.6582 18.3685 70.6582 18.3828L70.7441 18.1895L72.5703 11.7656C72.6992 11.5651 72.7923 11.3431 72.8496 11.0996C72.9212 10.8418 72.9928 10.5911 73.0645 10.3477C73.1504 10.1042 73.2507 9.875 73.3652 9.66016C73.4941 9.44531 73.6803 9.26628 73.9238 9.12305H74.0957C74.4824 9.12305 74.7689 9.23763 74.9551 9.4668C75.1413 9.68164 75.2702 9.95378 75.3418 10.2832C75.4134 10.5983 75.4421 10.9349 75.4277 11.293C75.4277 11.6367 75.4349 11.9375 75.4492 12.1953C75.4492 12.2956 75.4564 12.4889 75.4707 12.7754C75.4993 13.0618 75.528 13.3984 75.5566 13.7852C75.5853 14.1719 75.6139 14.5872 75.6426 15.0312C75.6712 15.4609 75.6927 15.8691 75.707 16.2559C75.7357 16.6426 75.7572 16.9792 75.7715 17.2656C75.8001 17.5521 75.8145 17.7383 75.8145 17.8242V17.9102C75.8288 18.0391 75.8574 18.2539 75.9004 18.5547C75.9434 18.8555 75.9863 19.1777 76.0293 19.5215C76.0866 19.8509 76.1367 20.166 76.1797 20.4668C76.2227 20.7676 76.2585 20.9753 76.2871 21.0898C76.3014 21.1615 76.3229 21.2689 76.3516 21.4121C76.3945 21.5553 76.4375 21.7129 76.4805 21.8848C76.5378 22.0423 76.5879 22.1927 76.6309 22.3359C76.6738 22.4792 76.7096 22.5794 76.7383 22.6367C76.681 22.9661 76.5951 23.224 76.4805 23.4102C76.3802 23.582 76.151 23.668 75.793 23.668C75.75 23.668 75.6855 23.668 75.5996 23.668C75.5137 23.6536 75.4635 23.6465 75.4492 23.6465C75.4062 23.6178 75.3203 23.5462 75.1914 23.4316C75.0768 23.3171 75.0124 23.2383 74.998 23.1953L74.6543 22.0137L74.0098 17.1152V16.9219C73.9954 16.6641 73.9883 16.3919 73.9883 16.1055C73.9883 15.8047 73.9811 15.5039 73.9668 15.2031C73.9668 14.9023 73.9525 14.6016 73.9238 14.3008C73.8952 14 73.8379 13.7207 73.752 13.4629L73.6445 13.5918L72.0977 19.8223C72.0833 19.9798 72.069 20.1517 72.0547 20.3379C72.0404 20.5098 72.0046 20.6816 71.9473 20.8535C71.89 21.0111 71.804 21.1471 71.6895 21.2617C71.5749 21.3763 71.4102 21.4408 71.1953 21.4551C71.1094 21.4694 71.0163 21.4551 70.916 21.4121C70.8158 21.3691 70.7155 21.3118 70.6152 21.2402C70.515 21.1686 70.4219 21.0898 70.3359 21.0039C70.2643 20.9036 70.2214 20.8105 70.207 20.7246L67.4785 16.3848L67.0273 15.4824V17.3301C67.0273 18.2038 67.0417 19.0632 67.0703 19.9082C67.1133 20.7389 67.1348 21.5911 67.1348 22.4648C67.1348 22.5365 67.1348 22.6654 67.1348 22.8516C67.1348 23.0234 67.1276 23.2096 67.1133 23.4102C67.1133 23.6107 67.1133 23.804 67.1133 23.9902C67.1133 24.1621 67.1133 24.2839 67.1133 24.3555C67.056 24.5273 66.9701 24.6777 66.8555 24.8066C66.7552 24.9355 66.6048 25 66.4043 25C66.1322 25 65.9173 24.957 65.7598 24.8711C65.6165 24.7708 65.4948 24.599 65.3945 24.3555ZM78.7363 24.1836C78.5931 22.7513 78.4714 21.5267 78.3711 20.5098C78.2708 19.4928 78.1849 18.6406 78.1133 17.9531C78.0417 17.2656 77.9772 16.7214 77.9199 16.3203C77.877 15.9049 77.8411 15.597 77.8125 15.3965C77.7839 15.1816 77.7624 15.0384 77.748 14.9668C77.7337 14.8952 77.7266 14.8522 77.7266 14.8379V14.752C77.7266 14.5944 77.791 14.4655 77.9199 14.3652C78.0632 14.2507 78.2064 14.1934 78.3496 14.1934C78.5645 14.1934 78.7936 14.2292 79.0371 14.3008C79.2949 14.3724 79.4668 14.5228 79.5527 14.752C79.6816 15.4538 79.7676 16.1628 79.8105 16.8789C79.8678 17.5951 79.9108 18.3112 79.9395 19.0273C79.9824 19.7292 80.0326 20.4382 80.0898 21.1543C80.1615 21.8704 80.2832 22.5794 80.4551 23.2812C80.4551 23.3099 80.4622 23.3672 80.4766 23.4531C80.5052 23.5391 80.5267 23.6322 80.541 23.7324C80.5697 23.8327 80.5911 23.9258 80.6055 24.0117C80.6198 24.0977 80.627 24.1549 80.627 24.1836V24.2266C80.627 24.2409 80.6341 24.2552 80.6484 24.2695C80.6484 24.4414 80.5697 24.6133 80.4121 24.7852C80.2546 24.957 80.0898 25.0286 79.918 25C79.875 24.9857 79.7676 24.9642 79.5957 24.9355C79.4382 24.8926 79.3307 24.8568 79.2734 24.8281C79.2305 24.8138 79.1732 24.7852 79.1016 24.7422C79.0299 24.6849 78.9583 24.6276 78.8867 24.5703C78.8294 24.513 78.7793 24.4486 78.7363 24.377C78.6934 24.3053 78.6934 24.2409 78.7363 24.1836ZM77.5332 8.52148C77.5332 8.42122 77.612 8.33529 77.7695 8.26367C77.9414 8.17773 78.0703 8.13477 78.1562 8.13477C78.3711 8.13477 78.6074 8.19922 78.8652 8.32812C79.1374 8.44271 79.2734 8.62174 79.2734 8.86523C79.2734 9.10872 79.2376 9.27344 79.166 9.35938C79.1087 9.44531 78.9583 9.48828 78.7148 9.48828C78.457 9.48828 78.1921 9.40234 77.9199 9.23047C77.6621 9.05859 77.5332 8.82227 77.5332 8.52148ZM87.5664 24.2695C87.3659 23.9831 87.194 23.5892 87.0508 23.0879C86.9219 22.5723 86.793 22.0352 86.6641 21.4766C86.5495 20.9036 86.4421 20.3522 86.3418 19.8223C86.2415 19.278 86.1341 18.8483 86.0195 18.5332C85.9193 18.2038 85.8047 18.0176 85.6758 17.9746C85.5469 17.9316 85.3965 18.125 85.2246 18.5547L83.3555 24.3125C83.2839 24.513 83.1979 24.6562 83.0977 24.7422C82.9974 24.8138 82.8327 24.8496 82.6035 24.8496C82.4889 24.8496 82.3672 24.8353 82.2383 24.8066C82.1094 24.7637 81.9876 24.7064 81.873 24.6348C81.7585 24.5632 81.6582 24.4772 81.5723 24.377C81.5007 24.2767 81.4577 24.1621 81.4434 24.0332C81.4863 23.8613 81.5221 23.5462 81.5508 23.0879C81.5938 22.6296 81.6224 22.0996 81.6367 21.498C81.651 20.8965 81.6582 20.2663 81.6582 19.6074C81.6725 18.9342 81.6725 18.3112 81.6582 17.7383C81.6582 17.151 81.651 16.6497 81.6367 16.2344C81.6224 15.8047 81.6081 15.5254 81.5938 15.3965C81.5938 15.2533 81.5938 15.11 81.5938 14.9668C81.6081 14.8092 81.6296 14.666 81.6582 14.5371C81.7012 14.4082 81.7656 14.3079 81.8516 14.2363C81.9518 14.1504 82.1022 14.1074 82.3027 14.1074C82.5749 14.1074 82.8255 14.222 83.0547 14.4512C83.2982 14.6803 83.4199 14.9238 83.4199 15.1816C83.4199 15.554 83.3984 15.9264 83.3555 16.2988C83.3268 16.6569 83.3125 17.0221 83.3125 17.3945C83.3125 17.6237 83.3125 17.8171 83.3125 17.9746C83.3125 18.1322 83.3411 18.3255 83.3984 18.5547C83.4414 18.4401 83.513 18.2396 83.6133 17.9531C83.7135 17.6667 83.821 17.3659 83.9355 17.0508C84.0645 16.7357 84.179 16.4421 84.2793 16.1699C84.3796 15.8835 84.4512 15.6829 84.4941 15.5684C84.5944 15.2819 84.7448 15.0098 84.9453 14.752C85.1458 14.4798 85.4108 14.3294 85.7402 14.3008C85.9551 14.2865 86.1484 14.3438 86.3203 14.4727C86.5065 14.6016 86.6641 14.7734 86.793 14.9883C86.9219 15.1888 87.0293 15.4036 87.1152 15.6328C87.2012 15.8477 87.2656 16.0339 87.3086 16.1914L88.4688 21.541L89.3711 23.9902C89.3854 24.0046 89.3926 24.0475 89.3926 24.1191C89.3926 24.1764 89.3926 24.2194 89.3926 24.248C89.3926 24.4199 89.3496 24.5918 89.2637 24.7637C89.1921 24.9212 89.056 25 88.8555 25C88.612 25 88.3613 24.9355 88.1035 24.8066C87.8457 24.6634 87.6667 24.4844 87.5664 24.2695ZM91.3477 24.1836C91.2044 22.7513 91.0827 21.5267 90.9824 20.5098C90.8822 19.4928 90.7962 18.6406 90.7246 17.9531C90.653 17.2656 90.5885 16.7214 90.5312 16.3203C90.4883 15.9049 90.4525 15.597 90.4238 15.3965C90.3952 15.1816 90.3737 15.0384 90.3594 14.9668C90.3451 14.8952 90.3379 14.8522 90.3379 14.8379V14.752C90.3379 14.5944 90.4023 14.4655 90.5312 14.3652C90.6745 14.2507 90.8177 14.1934 90.9609 14.1934C91.1758 14.1934 91.4049 14.2292 91.6484 14.3008C91.9062 14.3724 92.0781 14.5228 92.1641 14.752C92.293 15.4538 92.3789 16.1628 92.4219 16.8789C92.4792 17.5951 92.5221 18.3112 92.5508 19.0273C92.5938 19.7292 92.6439 20.4382 92.7012 21.1543C92.7728 21.8704 92.8945 22.5794 93.0664 23.2812C93.0664 23.3099 93.0736 23.3672 93.0879 23.4531C93.1165 23.5391 93.138 23.6322 93.1523 23.7324C93.181 23.8327 93.2025 23.9258 93.2168 24.0117C93.2311 24.0977 93.2383 24.1549 93.2383 24.1836V24.2266C93.2383 24.2409 93.2454 24.2552 93.2598 24.2695C93.2598 24.4414 93.181 24.6133 93.0234 24.7852C92.8659 24.957 92.7012 25.0286 92.5293 25C92.4863 24.9857 92.3789 24.9642 92.207 24.9355C92.0495 24.8926 91.9421 24.8568 91.8848 24.8281C91.8418 24.8138 91.7845 24.7852 91.7129 24.7422C91.6413 24.6849 91.5697 24.6276 91.498 24.5703C91.4408 24.513 91.3906 24.4486 91.3477 24.377C91.3047 24.3053 91.3047 24.2409 91.3477 24.1836ZM90.1445 8.52148C90.1445 8.42122 90.2233 8.33529 90.3809 8.26367C90.5527 8.17773 90.6816 8.13477 90.7676 8.13477C90.9824 8.13477 91.2188 8.19922 91.4766 8.32812C91.7487 8.44271 91.8848 8.62174 91.8848 8.86523C91.8848 9.10872 91.849 9.27344 91.7773 9.35938C91.7201 9.44531 91.5697 9.48828 91.3262 9.48828C91.0684 9.48828 90.8034 9.40234 90.5312 9.23047C90.2734 9.05859 90.1445 8.82227 90.1445 8.52148ZM100.178 24.2695C99.9772 23.9831 99.8053 23.5892 99.6621 23.0879C99.5332 22.5723 99.4043 22.0352 99.2754 21.4766C99.1608 20.9036 99.0534 20.3522 98.9531 19.8223C98.8529 19.278 98.7454 18.8483 98.6309 18.5332C98.5306 18.2038 98.416 18.0176 98.2871 17.9746C98.1582 17.9316 98.0078 18.125 97.8359 18.5547L95.9668 24.3125C95.8952 24.513 95.8092 24.6562 95.709 24.7422C95.6087 24.8138 95.444 24.8496 95.2148 24.8496C95.1003 24.8496 94.9785 24.8353 94.8496 24.8066C94.7207 24.7637 94.599 24.7064 94.4844 24.6348C94.3698 24.5632 94.2695 24.4772 94.1836 24.377C94.112 24.2767 94.069 24.1621 94.0547 24.0332C94.0977 23.8613 94.1335 23.5462 94.1621 23.0879C94.2051 22.6296 94.2337 22.0996 94.248 21.498C94.2624 20.8965 94.2695 20.2663 94.2695 19.6074C94.2839 18.9342 94.2839 18.3112 94.2695 17.7383C94.2695 17.151 94.2624 16.6497 94.248 16.2344C94.2337 15.8047 94.2194 15.5254 94.2051 15.3965C94.2051 15.2533 94.2051 15.11 94.2051 14.9668C94.2194 14.8092 94.2409 14.666 94.2695 14.5371C94.3125 14.4082 94.377 14.3079 94.4629 14.2363C94.5632 14.1504 94.7135 14.1074 94.9141 14.1074C95.1862 14.1074 95.4368 14.222 95.666 14.4512C95.9095 14.6803 96.0312 14.9238 96.0312 15.1816C96.0312 15.554 96.0098 15.9264 95.9668 16.2988C95.9382 16.6569 95.9238 17.0221 95.9238 17.3945C95.9238 17.6237 95.9238 17.8171 95.9238 17.9746C95.9238 18.1322 95.9525 18.3255 96.0098 18.5547C96.0527 18.4401 96.1243 18.2396 96.2246 17.9531C96.3249 17.6667 96.4323 17.3659 96.5469 17.0508C96.6758 16.7357 96.7904 16.4421 96.8906 16.1699C96.9909 15.8835 97.0625 15.6829 97.1055 15.5684C97.2057 15.2819 97.3561 15.0098 97.5566 14.752C97.7572 14.4798 98.0221 14.3294 98.3516 14.3008C98.5664 14.2865 98.7598 14.3438 98.9316 14.4727C99.1178 14.6016 99.2754 14.7734 99.4043 14.9883C99.5332 15.1888 99.6406 15.4036 99.7266 15.6328C99.8125 15.8477 99.877 16.0339 99.9199 16.1914L101.08 21.541L101.982 23.9902C101.997 24.0046 102.004 24.0475 102.004 24.1191C102.004 24.1764 102.004 24.2194 102.004 24.248C102.004 24.4199 101.961 24.5918 101.875 24.7637C101.803 24.9212 101.667 25 101.467 25C101.223 25 100.973 24.9355 100.715 24.8066C100.457 24.6634 100.278 24.4844 100.178 24.2695ZM104.002 32.498C103.945 32.3405 103.945 32.1615 104.002 31.9609C104.074 31.7604 104.21 31.6315 104.41 31.5742C104.74 31.7174 105.083 31.8105 105.441 31.8535C105.799 31.8965 106.158 31.9036 106.516 31.875C106.888 31.8464 107.253 31.7891 107.611 31.7031C107.969 31.6172 108.313 31.5169 108.643 31.4023C108.972 31.1302 109.201 30.7721 109.33 30.3281C109.459 29.8984 109.509 29.304 109.48 28.5449C109.452 27.8001 109.352 26.862 109.18 25.7305C109.022 24.6133 108.814 23.2383 108.557 21.6055C108.557 21.5625 108.557 21.498 108.557 21.4121C108.571 21.3262 108.571 21.2474 108.557 21.1758C108.542 21.0898 108.514 21.0254 108.471 20.9824C108.442 20.9395 108.399 20.9395 108.342 20.9824C108.156 21.3405 107.934 21.7344 107.676 22.1641C107.432 22.5794 107.146 22.9733 106.816 23.3457C106.501 23.7038 106.143 24.0046 105.742 24.248C105.355 24.4915 104.919 24.6133 104.432 24.6133C104.002 24.6133 103.622 24.4915 103.293 24.248C102.978 23.9902 102.82 23.625 102.82 23.1523C102.82 22.7943 102.892 22.3431 103.035 21.7988C103.193 21.2546 103.4 20.6816 103.658 20.0801C103.916 19.4642 104.217 18.8555 104.561 18.2539C104.904 17.6523 105.262 17.1081 105.635 16.6211C106.007 16.1341 106.387 15.7402 106.773 15.4395C107.16 15.1243 107.533 14.9668 107.891 14.9668C108.034 14.9668 108.22 14.9954 108.449 15.0527C108.693 15.0957 108.922 15.1673 109.137 15.2676C109.366 15.3678 109.559 15.4824 109.717 15.6113C109.889 15.7402 109.975 15.8906 109.975 16.0625V17.8027L111.371 27.9434C111.371 28.5163 111.357 29.0605 111.328 29.5762C111.314 30.1061 111.221 30.5931 111.049 31.0371C110.891 31.4811 110.633 31.875 110.275 32.2188C109.917 32.5625 109.402 32.8418 108.729 33.0566C108.643 33.0996 108.464 33.1354 108.191 33.1641C107.919 33.1927 107.604 33.2142 107.246 33.2285C106.902 33.2428 106.53 33.2428 106.129 33.2285C105.742 33.2142 105.384 33.1784 105.055 33.1211C104.74 33.0781 104.482 33.0065 104.281 32.9062C104.081 32.806 103.988 32.6699 104.002 32.498ZM107.354 16.8789C107.21 17.0365 107.017 17.2871 106.773 17.6309C106.544 17.9746 106.308 18.3542 106.064 18.7695C105.821 19.1849 105.577 19.6217 105.334 20.0801C105.105 20.5241 104.919 20.9395 104.775 21.3262C104.632 21.7129 104.539 22.0423 104.496 22.3145C104.467 22.5866 104.532 22.7513 104.689 22.8086C104.99 22.651 105.312 22.3932 105.656 22.0352C106 21.6628 106.322 21.2546 106.623 20.8105C106.938 20.3522 107.21 19.8867 107.439 19.4141C107.683 18.9271 107.848 18.4902 107.934 18.1035C108.034 17.7168 108.041 17.4089 107.955 17.1797C107.883 16.9362 107.683 16.8359 107.354 16.8789Z" fill="black"/>
<defs>
<filter id="filter0_i_4585_2758" x="1.95215" y="1.96155" width="125.593" height="33.5385" filterUnits="userSpaceOnUse" color-interpolation-filters="sRGB">
<feFlood flood-opacity="0" result="BackgroundImageFix"/>
<feBlend mode="normal" in="SourceGraphic" in2="BackgroundImageFix" result="shape"/>
<feColorMatrix in="SourceAlpha" type="matrix" values="0 0 0 0 0 0 0 0 0 0 0 0 0 0 0 0 0 0 127 0" result="hardAlpha"/>
<feOffset dx="4" dy="4"/>
<feComposite in2="hardAlpha" operator="arithmetic" k2="-1" k3="1"/>
<feColorMatrix type="matrix" values="0 0 0 0 0.694118 0 0 0 0 0.721569 0 0 0 0 0.741176 0 0 0 1 0"/>
<feBlend mode="multiply" in2="shape" result="effect1_innerShadow_4585_2758"/>
</filter>
</defs>
</svg>
