<svg width="204" height="37" viewBox="0 0 204 37" fill="none" xmlns="http://www.w3.org/2000/svg">
<g filter="url(#filter0_i_4598_1964)">
<path d="M198.022 7.61228C201.541 11.6933 201.541 20.3656 201.541 20.3656C201.731 28.2124 195.276 34.5 187.02 34.5C187.02 31.5523 187.02 2.00081 187.02 2.00081C190.163 1.66061 194.502 3.53121 198.022 7.61228Z" fill="#FEDDC6"/>
<path d="M18.7676 2H187.02V34.5C187.02 34.5 162.062 34.2049 134.486 34.5C119.099 34.6647 86.7922 35.5 75.2357 35.5C42.9682 35.5 18.7676 34.5 18.7676 34.5V2Z" fill="#FEDDC6"/>
<path d="M5.14517 27.9432C0.335274 22.3612 1.47845 11.5 5.14549 8C8.81252 4.5 8.60485 4.5 11.9565 3.5C15.3082 2.5 18.7674 2 18.7674 2V34.5C13.1929 34.5 9.95507 33.5252 5.14517 27.9432Z" fill="#FEDDC6"/>
</g>
<path d="M18.7676 34.5C47.271 34.5 46.2982 35 74.7865 35C103.29 35 106.725 34.4063 135.228 34.4063C163.731 34.4063 155.373 34 183.876 34" stroke="black" stroke-width="3" stroke-miterlimit="10" stroke-linecap="round" stroke-linejoin="round"/>
<path d="M2.00244 17.5C2.00244 7 9.6485 2 18.555 2C11.2202 2 2.52635 8 2.52635 17.5C2.52635 31.5 14.5763 34.5 18.2437 34.5C10.385 34.5 2.00244 28 2.00244 17.5Z" stroke="black" stroke-width="3" stroke-linecap="round" stroke-linejoin="round"/>
<path d="M202 19C202 29.5 192.782 34 183.876 34C191.211 34 200.33 30.5 201.165 20.5C202.33 6.54422 191.735 2 185.759 1.99999C193.617 2 202 8.49998 202 19Z" stroke="black" stroke-width="3" stroke-linecap="round" stroke-linejoin="round"/>
<path d="M18.7676 2C46.8797 2 43.9718 2 72.0691 2C100.181 2 100.267 1.5 128.379 1.5C156.491 1.5 157.86 2.00001 185.972 2.00001" stroke="black" stroke-width="3" stroke-miterlimit="10" stroke-linecap="round" stroke-linejoin="round"/>
<path d="M52.0293 24.3125C52.0293 24.1836 52.0723 24.069 52.1582 23.9688C52.2585 23.8685 52.3086 23.7611 52.3086 23.6465C52.3086 23.6178 52.2799 23.582 52.2227 23.5391C52.1654 23.4961 52.1296 23.4674 52.1152 23.4531C51.972 23.2383 51.8932 22.9948 51.8789 22.7227C51.8646 22.4505 51.8574 22.1927 51.8574 21.9492C51.8574 20.6315 51.8646 19.3281 51.8789 18.0391C51.8932 16.75 51.9004 15.4466 51.9004 14.1289C51.7572 14.1289 51.6211 14.1647 51.4922 14.2363C51.3633 14.2936 51.2272 14.3652 51.084 14.4512C50.9408 14.5228 50.7904 14.5944 50.6328 14.666C50.4753 14.7233 50.3034 14.752 50.1172 14.752H49.7734C49.7448 14.709 49.6732 14.6732 49.5586 14.6445C49.444 14.6016 49.3867 14.5514 49.3867 14.4941V13.8496C49.4583 13.8066 49.5156 13.7493 49.5586 13.6777C49.6159 13.5918 49.6589 13.5202 49.6875 13.4629L51.8574 12.3887L51.9434 12.2812C51.9147 11.8802 51.9362 11.5579 52.0078 11.3145C52.0794 11.071 52.3301 10.9492 52.7598 10.9492C52.8743 10.9492 52.9961 10.9707 53.125 11.0137C53.2682 11.0566 53.3971 11.1139 53.5117 11.1855C53.6406 11.2572 53.7337 11.3503 53.791 11.4648C53.8626 11.5794 53.8841 11.7083 53.8555 11.8516C54.5716 11.8802 55.2806 11.9375 55.9824 12.0234C56.6842 12.0951 57.3145 12.2669 57.873 12.5391C58.4316 12.7969 58.8828 13.1836 59.2266 13.6992C59.5846 14.2148 59.7637 14.9238 59.7637 15.8262C59.7637 16.6426 59.6061 17.459 59.291 18.2754C58.9759 19.0918 58.5247 19.7936 57.9375 20.3809L53.8555 24.4414C53.6549 24.6419 53.4831 24.7852 53.3398 24.8711C53.2109 24.957 53.0176 25 52.7598 25C52.5449 25 52.3659 24.9427 52.2227 24.8281C52.0938 24.6992 52.0293 24.5273 52.0293 24.3125ZM53.8555 22.3789H53.7695L53.9414 22.2715C53.9557 22.2572 54.0059 22.2142 54.0918 22.1426C54.1921 22.0566 54.2995 21.9635 54.4141 21.8633C54.5286 21.7487 54.6432 21.6413 54.7578 21.541C54.8724 21.4408 54.9655 21.3548 55.0371 21.2832C55.3665 20.9395 55.7103 20.5742 56.0684 20.1875C56.4408 19.8008 56.7773 19.3926 57.0781 18.9629C57.3789 18.5189 57.6224 18.0605 57.8086 17.5879C58.0091 17.1009 58.1094 16.5924 58.1094 16.0625C58.1094 15.5612 58.0163 15.1387 57.8301 14.7949C57.6439 14.4368 57.3932 14.1504 57.0781 13.9355C56.7773 13.7064 56.4193 13.5417 56.0039 13.4414C55.5885 13.3411 55.1445 13.291 54.6719 13.291C54.6289 13.291 54.5 13.3053 54.2852 13.334C54.0846 13.3483 53.9414 13.3913 53.8555 13.4629V22.3789ZM65.7363 19.0059C65.6074 19.235 65.457 19.5143 65.2852 19.8438C65.1276 20.1589 64.9557 20.5026 64.7695 20.875C64.5833 21.2331 64.3757 21.5983 64.1465 21.9707C63.9316 22.3288 63.7025 22.6582 63.459 22.959C63.2298 23.2598 62.9863 23.5176 62.7285 23.7324C62.4707 23.9329 62.2057 24.0547 61.9336 24.0977C61.819 24.0977 61.6901 24.0905 61.5469 24.0762C61.4036 24.0475 61.2604 24.0117 61.1172 23.9688C60.974 23.9115 60.8522 23.8398 60.752 23.7539C60.666 23.6536 60.623 23.5247 60.623 23.3672C60.6374 21.9062 60.7448 20.5814 60.9453 19.3926C61.1458 18.1895 61.4609 17.1367 61.8906 16.2344C62.3203 15.3177 62.8717 14.5586 63.5449 13.957C64.2181 13.3555 65.0345 12.9258 65.9941 12.668C66.0228 12.668 66.0729 12.668 66.1445 12.668C66.2305 12.6536 66.2878 12.6465 66.3164 12.6465C66.7461 12.6322 67.054 12.8327 67.2402 13.248C67.4408 13.6491 67.584 14.2936 67.6699 15.1816C67.7702 16.0553 67.8346 17.1868 67.8633 18.5762C67.9062 19.9512 67.985 21.6055 68.0996 23.5391C68.1426 23.6966 68.1641 23.8327 68.1641 23.9473C68.1784 24.0618 68.1855 24.1979 68.1855 24.3555C68.1855 24.5703 68.1211 24.735 67.9922 24.8496C67.8633 24.9499 67.6986 25 67.498 25C67.0827 25 66.7891 24.8854 66.6172 24.6562C66.4453 24.4271 66.3307 24.1191 66.2734 23.7324C66.2734 23.7181 66.2591 23.6035 66.2305 23.3887C66.2161 23.1738 66.1875 22.9303 66.1445 22.6582C66.1159 22.3717 66.0872 22.0853 66.0586 21.7988C66.0299 21.5124 66.0085 21.276 65.9941 21.0898V21.0039C65.9655 20.8607 65.944 20.6816 65.9297 20.4668C65.9297 20.252 65.9154 20.0443 65.8867 19.8438C65.8581 19.6003 65.8366 19.3568 65.8223 19.1133L65.7363 19.0059ZM65.2637 14.752C64.877 15.0384 64.4974 15.4251 64.125 15.9121C63.7526 16.3991 63.4876 16.8717 63.3301 17.3301C63.2585 17.5449 63.1797 17.8385 63.0938 18.2109C63.0078 18.5833 62.929 18.9557 62.8574 19.3281C62.8001 19.6862 62.75 20.0228 62.707 20.3379C62.6641 20.6387 62.6426 20.832 62.6426 20.918C62.6569 20.918 62.6712 20.9036 62.6855 20.875C62.7142 20.8464 62.7357 20.8249 62.75 20.8105C63.638 19.9512 64.2611 19.0273 64.6191 18.0391C64.9915 17.0365 65.2064 15.9408 65.2637 14.752ZM71.3652 18.7266C71.1647 18.7266 70.9857 18.7767 70.8281 18.877C70.6706 18.9772 70.4844 19.0273 70.2695 19.0273C70.2409 19.0273 70.1621 19.0273 70.0332 19.0273C69.9186 19.013 69.847 19.0059 69.8184 19.0059C69.7611 18.9342 69.6966 18.877 69.625 18.834C69.5534 18.791 69.4818 18.748 69.4102 18.7051C69.3385 18.6478 69.2741 18.5833 69.2168 18.5117C69.1738 18.4401 69.1523 18.3398 69.1523 18.2109C69.1523 17.9961 69.2383 17.8242 69.4102 17.6953C69.582 17.5521 69.7826 17.4303 70.0117 17.3301C70.2409 17.2298 70.4701 17.1367 70.6992 17.0508C70.9427 16.9648 71.1361 16.8646 71.2793 16.75V15.8047C71.2793 14.7448 71.2292 13.6849 71.1289 12.625C71.0286 11.5508 70.9785 10.4909 70.9785 9.44531C70.9785 9.15885 71.0501 8.97266 71.1934 8.88672C71.3366 8.80078 71.5299 8.75781 71.7734 8.75781C72.0599 8.75781 72.2676 8.84375 72.3965 9.01562C72.5397 9.17318 72.64 9.3737 72.6973 9.61719C72.7546 9.84635 72.7832 10.097 72.7832 10.3691C72.7832 10.627 72.7904 10.849 72.8047 11.0352C72.8047 11.2214 72.819 11.5508 72.8477 12.0234C72.8763 12.4961 72.9049 12.9974 72.9336 13.5273C72.9622 14.0573 72.9909 14.5586 73.0195 15.0312C73.0482 15.5039 73.0697 15.8333 73.084 16.0195C73.1413 16.0052 73.2487 15.9694 73.4062 15.9121C73.5781 15.8405 73.7572 15.776 73.9434 15.7188C74.1296 15.6471 74.3014 15.5827 74.459 15.5254C74.6309 15.4681 74.7526 15.4251 74.8242 15.3965C75.1966 15.2389 75.5833 15.0671 75.9844 14.8809C76.3854 14.6803 76.7936 14.5801 77.209 14.5801C77.4954 14.5801 77.7103 14.6803 77.8535 14.8809C78.0111 15.0671 78.0898 15.2891 78.0898 15.5469C78.0898 15.7331 78.0182 15.8691 77.875 15.9551C77.7318 16.041 77.5814 16.1198 77.4238 16.1914L73.5137 17.6523C73.4707 17.681 73.4277 17.7096 73.3848 17.7383C73.3418 17.7526 73.2988 17.7812 73.2559 17.8242V18.5117C73.2559 19.013 73.263 19.5358 73.2773 20.0801C73.306 20.61 73.3561 21.1257 73.4277 21.627C73.4993 22.0566 73.5781 22.4792 73.6641 22.8945C73.75 23.3099 73.793 23.7324 73.793 24.1621C73.793 24.291 73.75 24.4629 73.6641 24.6777C73.5781 24.8926 73.4421 25 73.2559 25C72.8691 25 72.554 24.8854 72.3105 24.6562C72.0671 24.4271 71.931 24.1191 71.9023 23.7324C71.8307 22.9876 71.752 22.1712 71.666 21.2832C71.5944 20.3952 71.5228 19.543 71.4512 18.7266H71.3652ZM83.7832 19.0059C83.6543 19.235 83.5039 19.5143 83.332 19.8438C83.1745 20.1589 83.0026 20.5026 82.8164 20.875C82.6302 21.2331 82.4225 21.5983 82.1934 21.9707C81.9785 22.3288 81.7493 22.6582 81.5059 22.959C81.2767 23.2598 81.0332 23.5176 80.7754 23.7324C80.5176 23.9329 80.2526 24.0547 79.9805 24.0977C79.8659 24.0977 79.737 24.0905 79.5938 24.0762C79.4505 24.0475 79.3073 24.0117 79.1641 23.9688C79.0208 23.9115 78.8991 23.8398 78.7988 23.7539C78.7129 23.6536 78.6699 23.5247 78.6699 23.3672C78.6842 21.9062 78.7917 20.5814 78.9922 19.3926C79.1927 18.1895 79.5078 17.1367 79.9375 16.2344C80.3672 15.3177 80.9186 14.5586 81.5918 13.957C82.265 13.3555 83.0814 12.9258 84.041 12.668C84.0697 12.668 84.1198 12.668 84.1914 12.668C84.2773 12.6536 84.3346 12.6465 84.3633 12.6465C84.793 12.6322 85.1009 12.8327 85.2871 13.248C85.4876 13.6491 85.6309 14.2936 85.7168 15.1816C85.8171 16.0553 85.8815 17.1868 85.9102 18.5762C85.9531 19.9512 86.0319 21.6055 86.1465 23.5391C86.1895 23.6966 86.2109 23.8327 86.2109 23.9473C86.2253 24.0618 86.2324 24.1979 86.2324 24.3555C86.2324 24.5703 86.168 24.735 86.0391 24.8496C85.9102 24.9499 85.7454 25 85.5449 25C85.1296 25 84.8359 24.8854 84.6641 24.6562C84.4922 24.4271 84.3776 24.1191 84.3203 23.7324C84.3203 23.7181 84.306 23.6035 84.2773 23.3887C84.263 23.1738 84.2344 22.9303 84.1914 22.6582C84.1628 22.3717 84.1341 22.0853 84.1055 21.7988C84.0768 21.5124 84.0553 21.276 84.041 21.0898V21.0039C84.0124 20.8607 83.9909 20.6816 83.9766 20.4668C83.9766 20.252 83.9622 20.0443 83.9336 19.8438C83.9049 19.6003 83.8835 19.3568 83.8691 19.1133L83.7832 19.0059ZM83.3105 14.752C82.9238 15.0384 82.5443 15.4251 82.1719 15.9121C81.7995 16.3991 81.5345 16.8717 81.377 17.3301C81.3053 17.5449 81.2266 17.8385 81.1406 18.2109C81.0547 18.5833 80.9759 18.9557 80.9043 19.3281C80.847 19.6862 80.7969 20.0228 80.7539 20.3379C80.7109 20.6387 80.6895 20.832 80.6895 20.918C80.7038 20.918 80.7181 20.9036 80.7324 20.875C80.7611 20.8464 80.7826 20.8249 80.7969 20.8105C81.6849 19.9512 82.3079 19.0273 82.666 18.0391C83.0384 17.0365 83.2533 15.9408 83.3105 14.752ZM99.3809 24.2266C99.61 23.9115 99.8607 23.6751 100.133 23.5176C100.419 23.36 100.706 23.2311 100.992 23.1309C101.293 23.0306 101.587 22.9375 101.873 22.8516C102.174 22.7513 102.467 22.5938 102.754 22.3789C102.911 22.293 103.133 22.1641 103.42 21.9922C103.706 21.8203 103.986 21.6341 104.258 21.4336C104.544 21.2188 104.788 21.0111 104.988 20.8105C105.203 20.61 105.311 20.4382 105.311 20.2949C105.311 20.2806 105.303 20.2734 105.289 20.2734C105.26 20.2734 105.246 20.2663 105.246 20.252L105.203 20.209C105.132 20.1803 105.017 20.1445 104.859 20.1016C104.702 20.0586 104.609 20.0299 104.58 20.0156C102.732 19.8008 101.243 19.6146 100.111 19.457C98.9941 19.2852 98.1276 19.1061 97.5117 18.9199C96.9102 18.7337 96.5091 18.5189 96.3086 18.2754C96.1081 18.0319 96.0078 17.724 96.0078 17.3516C96.0078 17.2083 96.0365 17.0508 96.0938 16.8789C96.151 16.707 96.2155 16.5352 96.2871 16.3633C96.373 16.1914 96.459 16.0339 96.5449 15.8906C96.6309 15.7474 96.7096 15.6328 96.7812 15.5469C97.0104 15.2604 97.3112 15.0026 97.6836 14.7734C98.056 14.5443 98.457 14.3438 98.8867 14.1719C99.3164 14 99.7461 13.8496 100.176 13.7207C100.62 13.5918 101.021 13.4772 101.379 13.377C101.78 13.3483 102.181 13.2552 102.582 13.0977C102.997 12.9258 103.406 12.8112 103.807 12.7539C104.007 12.7539 104.172 12.8327 104.301 12.9902C104.43 13.1478 104.494 13.3125 104.494 13.4844C104.494 13.7279 104.444 13.9141 104.344 14.043C104.258 14.1576 104.136 14.2507 103.979 14.3223C103.835 14.3796 103.671 14.4297 103.484 14.4727C103.298 14.5013 103.112 14.5371 102.926 14.5801C102.811 14.6087 102.654 14.6517 102.453 14.709C102.253 14.752 102.052 14.8021 101.852 14.8594C101.651 14.9167 101.472 14.9668 101.314 15.0098C101.157 15.0527 101.064 15.0814 101.035 15.0957C100.591 15.2819 100.169 15.4609 99.7676 15.6328C99.3809 15.7904 99.0371 15.9551 98.7363 16.127C98.4499 16.2988 98.2207 16.485 98.0488 16.6855C97.8913 16.8717 97.8197 17.0794 97.834 17.3086V17.3301C97.9772 17.5306 98.2995 17.681 98.8008 17.7812C99.3021 17.8815 99.8893 17.9674 100.562 18.0391C101.25 18.1107 101.966 18.1823 102.711 18.2539C103.47 18.3255 104.165 18.4329 104.795 18.5762C105.425 18.7194 105.948 18.9128 106.363 19.1562C106.779 19.3997 106.993 19.7292 107.008 20.1445C107.008 20.3021 106.972 20.4883 106.9 20.7031C106.843 20.918 106.757 21.0827 106.643 21.1973C106.285 21.5983 105.855 22.0137 105.354 22.4434C104.867 22.873 104.337 23.2741 103.764 23.6465C103.191 24.0046 102.596 24.3125 101.98 24.5703C101.379 24.8138 100.785 24.957 100.197 25C99.9967 25 99.8105 24.9284 99.6387 24.7852C99.4668 24.6276 99.3809 24.4414 99.3809 24.2266ZM107.953 22.4219C107.853 21.9922 107.853 21.4837 107.953 20.8965C108.068 20.3092 108.24 19.722 108.469 19.1348C108.712 18.5332 109.006 17.9674 109.35 17.4375C109.708 16.9076 110.08 16.485 110.467 16.1699C110.868 15.8548 111.269 15.6829 111.67 15.6543C112.085 15.6113 112.479 15.7904 112.852 16.1914C112.852 16.2057 112.859 16.2415 112.873 16.2988C112.887 16.3561 112.902 16.4779 112.916 16.6641C112.93 16.8359 112.938 17.0866 112.938 17.416C112.952 17.7311 112.959 18.168 112.959 18.7266C112.973 18.7552 112.988 18.8053 113.002 18.877C113.031 18.9342 113.045 18.9772 113.045 19.0059C113.002 19.1634 112.916 19.3138 112.787 19.457C112.673 19.5859 112.522 19.6504 112.336 19.6504C112.092 19.6504 111.892 19.6146 111.734 19.543C111.591 19.457 111.484 19.2637 111.412 18.9629C111.441 18.9199 111.448 18.834 111.434 18.7051C111.419 18.5618 111.391 18.4043 111.348 18.2324C111.319 18.0605 111.29 17.8887 111.262 17.7168C111.233 17.5449 111.219 17.4089 111.219 17.3086C111.204 17.3086 111.183 17.3229 111.154 17.3516C111.14 17.3659 111.126 17.3802 111.111 17.3945C110.868 17.8242 110.639 18.304 110.424 18.834C110.223 19.3496 110.066 19.8796 109.951 20.4238C109.851 20.9538 109.815 21.4837 109.844 22.0137C109.887 22.5436 110.044 23.0234 110.316 23.4531C110.517 23.4531 110.703 23.3743 110.875 23.2168C111.047 23.0449 111.19 22.8874 111.305 22.7441C111.548 22.4577 111.785 22.1641 112.014 21.8633C112.257 21.5625 112.479 21.2474 112.68 20.918C112.766 20.7747 112.83 20.6458 112.873 20.5312C112.916 20.4167 112.966 20.3236 113.023 20.252C113.095 20.1803 113.181 20.123 113.281 20.0801C113.382 20.0371 113.532 20.0156 113.732 20.0156C113.962 20.0156 114.176 20.0729 114.377 20.1875C114.577 20.2878 114.678 20.4596 114.678 20.7031C114.678 21.0326 114.527 21.4479 114.227 21.9492C113.94 22.4362 113.582 22.9089 113.152 23.3672C112.737 23.8255 112.293 24.2194 111.82 24.5488C111.348 24.8639 110.932 25.0215 110.574 25.0215C110.23 25.0215 109.894 24.957 109.564 24.8281C109.249 24.6849 108.97 24.4987 108.727 24.2695C108.497 24.0404 108.311 23.7682 108.168 23.4531C108.025 23.138 107.953 22.7943 107.953 22.4219ZM116.568 24.1836C116.425 22.7513 116.303 21.5267 116.203 20.5098C116.103 19.4928 116.017 18.6406 115.945 17.9531C115.874 17.2656 115.809 16.7214 115.752 16.3203C115.709 15.9049 115.673 15.597 115.645 15.3965C115.616 15.1816 115.594 15.0384 115.58 14.9668C115.566 14.8952 115.559 14.8522 115.559 14.8379V14.752C115.559 14.5944 115.623 14.4655 115.752 14.3652C115.895 14.2507 116.038 14.1934 116.182 14.1934C116.396 14.1934 116.626 14.2292 116.869 14.3008C117.127 14.3724 117.299 14.5228 117.385 14.752C117.514 15.4538 117.6 16.1628 117.643 16.8789C117.7 17.5951 117.743 18.3112 117.771 19.0273C117.814 19.7292 117.865 20.4382 117.922 21.1543C117.993 21.8704 118.115 22.5794 118.287 23.2812C118.287 23.3099 118.294 23.3672 118.309 23.4531C118.337 23.5391 118.359 23.6322 118.373 23.7324C118.402 23.8327 118.423 23.9258 118.438 24.0117C118.452 24.0977 118.459 24.1549 118.459 24.1836V24.2266C118.459 24.2409 118.466 24.2552 118.48 24.2695C118.48 24.4414 118.402 24.6133 118.244 24.7852C118.087 24.957 117.922 25.0286 117.75 25C117.707 24.9857 117.6 24.9642 117.428 24.9355C117.27 24.8926 117.163 24.8568 117.105 24.8281C117.062 24.8138 117.005 24.7852 116.934 24.7422C116.862 24.6849 116.79 24.6276 116.719 24.5703C116.661 24.513 116.611 24.4486 116.568 24.377C116.525 24.3053 116.525 24.2409 116.568 24.1836ZM115.365 8.52148C115.365 8.42122 115.444 8.33529 115.602 8.26367C115.773 8.17773 115.902 8.13477 115.988 8.13477C116.203 8.13477 116.439 8.19922 116.697 8.32812C116.969 8.44271 117.105 8.62174 117.105 8.86523C117.105 9.10872 117.07 9.27344 116.998 9.35938C116.941 9.44531 116.79 9.48828 116.547 9.48828C116.289 9.48828 116.024 9.40234 115.752 9.23047C115.494 9.05859 115.365 8.82227 115.365 8.52148ZM128.256 18.8984C128.227 19.1562 128.191 19.3568 128.148 19.5C128.12 19.6432 128.062 19.7721 127.977 19.8867C127.891 20.0013 127.769 20.123 127.611 20.252C127.454 20.3665 127.239 20.5384 126.967 20.7676C126.695 20.9824 126.358 21.2689 125.957 21.627C125.556 21.985 125.069 22.4505 124.496 23.0234C124.267 23.2383 124.031 23.4603 123.787 23.6895C123.544 23.9186 123.286 24.1263 123.014 24.3125C122.756 24.4844 122.484 24.6276 122.197 24.7422C121.911 24.8568 121.61 24.9141 121.295 24.9141C120.679 24.9141 120.228 24.7064 119.941 24.291C119.655 23.8757 119.512 23.3958 119.512 22.8516C119.512 22.4935 119.519 22.1927 119.533 21.9492C119.562 21.7057 119.619 21.3906 119.705 21.0039C119.548 20.8607 119.411 20.7389 119.297 20.6387C119.182 20.5241 119.125 20.3737 119.125 20.1875C119.125 20.0156 119.161 19.901 119.232 19.8438C119.318 19.7865 119.411 19.7507 119.512 19.7363C119.626 19.7077 119.734 19.679 119.834 19.6504C119.934 19.6217 120.006 19.5645 120.049 19.4785C120.077 19.3926 120.128 19.235 120.199 19.0059C120.285 18.7767 120.371 18.5404 120.457 18.2969C120.543 18.0391 120.622 17.8027 120.693 17.5879C120.779 17.3587 120.837 17.2012 120.865 17.1152C120.965 16.8717 121.073 16.6283 121.188 16.3848C121.316 16.127 121.46 15.8978 121.617 15.6973C121.789 15.4967 121.982 15.332 122.197 15.2031C122.426 15.0742 122.691 15.0098 122.992 15.0098C123.164 15.0098 123.372 15.0885 123.615 15.2461C123.873 15.4036 124.117 15.597 124.346 15.8262C124.575 16.041 124.768 16.2702 124.926 16.5137C125.083 16.7572 125.162 16.9648 125.162 17.1367C125.162 17.3516 125.112 17.5521 125.012 17.7383C124.911 17.9102 124.783 18.0749 124.625 18.2324C124.482 18.3757 124.324 18.5117 124.152 18.6406C123.98 18.7695 123.823 18.8913 123.68 19.0059C123.665 19.0059 123.637 19.0202 123.594 19.0488C123.551 19.0775 123.515 19.099 123.486 19.1133C123.472 19.1276 123.436 19.1634 123.379 19.2207C123.336 19.2637 123.286 19.3138 123.229 19.3711C123.171 19.4284 123.114 19.4857 123.057 19.543C123.014 19.6003 122.985 19.6361 122.971 19.6504C122.928 19.6934 122.842 19.765 122.713 19.8652C122.598 19.9512 122.469 20.0514 122.326 20.166C122.183 20.2663 122.047 20.3665 121.918 20.4668C121.803 20.5527 121.725 20.61 121.682 20.6387L121.596 20.8105C121.567 20.8678 121.538 20.9967 121.51 21.1973C121.495 21.3835 121.474 21.5983 121.445 21.8418C121.417 22.0853 121.388 22.3359 121.359 22.5938C121.345 22.8372 121.338 23.0378 121.338 23.1953C121.338 23.2096 121.345 23.224 121.359 23.2383C121.388 23.2669 121.41 23.2812 121.424 23.2812C121.538 23.2812 121.646 23.2311 121.746 23.1309C121.846 23.0306 121.954 22.959 122.068 22.916L125.506 19.7363L126.387 18.3828C126.458 18.2826 126.594 18.1751 126.795 18.0605C127.01 17.9316 127.225 17.8672 127.439 17.8672C127.654 17.8529 127.84 17.9173 127.998 18.0605C128.17 18.2038 128.256 18.4831 128.256 18.8984ZM123.529 17.2227C123.601 17.1654 123.63 17.0794 123.615 16.9648C123.601 16.8503 123.558 16.75 123.486 16.6641C123.429 16.5781 123.35 16.528 123.25 16.5137C123.15 16.485 123.057 16.5352 122.971 16.6641C122.928 16.7214 122.849 16.8359 122.734 17.0078C122.634 17.1797 122.527 17.3587 122.412 17.5449C122.312 17.7168 122.226 17.8672 122.154 17.9961C122.083 18.125 122.068 18.1751 122.111 18.1465L123.529 17.2227ZM134.959 24.2695C134.758 23.9831 134.587 23.5892 134.443 23.0879C134.314 22.5723 134.186 22.0352 134.057 21.4766C133.942 20.9036 133.835 20.3522 133.734 19.8223C133.634 19.278 133.527 18.8483 133.412 18.5332C133.312 18.2038 133.197 18.0176 133.068 17.9746C132.939 17.9316 132.789 18.125 132.617 18.5547L130.748 24.3125C130.676 24.513 130.59 24.6562 130.49 24.7422C130.39 24.8138 130.225 24.8496 129.996 24.8496C129.882 24.8496 129.76 24.8353 129.631 24.8066C129.502 24.7637 129.38 24.7064 129.266 24.6348C129.151 24.5632 129.051 24.4772 128.965 24.377C128.893 24.2767 128.85 24.1621 128.836 24.0332C128.879 23.8613 128.915 23.5462 128.943 23.0879C128.986 22.6296 129.015 22.0996 129.029 21.498C129.044 20.8965 129.051 20.2663 129.051 19.6074C129.065 18.9342 129.065 18.3112 129.051 17.7383C129.051 17.151 129.044 16.6497 129.029 16.2344C129.015 15.8047 129.001 15.5254 128.986 15.3965C128.986 15.2533 128.986 15.11 128.986 14.9668C129.001 14.8092 129.022 14.666 129.051 14.5371C129.094 14.4082 129.158 14.3079 129.244 14.2363C129.344 14.1504 129.495 14.1074 129.695 14.1074C129.967 14.1074 130.218 14.222 130.447 14.4512C130.691 14.6803 130.812 14.9238 130.812 15.1816C130.812 15.554 130.791 15.9264 130.748 16.2988C130.719 16.6569 130.705 17.0221 130.705 17.3945C130.705 17.6237 130.705 17.8171 130.705 17.9746C130.705 18.1322 130.734 18.3255 130.791 18.5547C130.834 18.4401 130.906 18.2396 131.006 17.9531C131.106 17.6667 131.214 17.3659 131.328 17.0508C131.457 16.7357 131.572 16.4421 131.672 16.1699C131.772 15.8835 131.844 15.6829 131.887 15.5684C131.987 15.2819 132.137 15.0098 132.338 14.752C132.538 14.4798 132.803 14.3294 133.133 14.3008C133.348 14.2865 133.541 14.3438 133.713 14.4727C133.899 14.6016 134.057 14.7734 134.186 14.9883C134.314 15.1888 134.422 15.4036 134.508 15.6328C134.594 15.8477 134.658 16.0339 134.701 16.1914L135.861 21.541L136.764 23.9902C136.778 24.0046 136.785 24.0475 136.785 24.1191C136.785 24.1764 136.785 24.2194 136.785 24.248C136.785 24.4199 136.742 24.5918 136.656 24.7637C136.585 24.9212 136.449 25 136.248 25C136.005 25 135.754 24.9355 135.496 24.8066C135.238 24.6634 135.059 24.4844 134.959 24.2695ZM137.73 22.4219C137.63 21.9922 137.63 21.4837 137.73 20.8965C137.845 20.3092 138.017 19.722 138.246 19.1348C138.49 18.5332 138.783 17.9674 139.127 17.4375C139.485 16.9076 139.857 16.485 140.244 16.1699C140.645 15.8548 141.046 15.6829 141.447 15.6543C141.863 15.6113 142.257 15.7904 142.629 16.1914C142.629 16.2057 142.636 16.2415 142.65 16.2988C142.665 16.3561 142.679 16.4779 142.693 16.6641C142.708 16.8359 142.715 17.0866 142.715 17.416C142.729 17.7311 142.736 18.168 142.736 18.7266C142.751 18.7552 142.765 18.8053 142.779 18.877C142.808 18.9342 142.822 18.9772 142.822 19.0059C142.779 19.1634 142.693 19.3138 142.564 19.457C142.45 19.5859 142.299 19.6504 142.113 19.6504C141.87 19.6504 141.669 19.6146 141.512 19.543C141.368 19.457 141.261 19.2637 141.189 18.9629C141.218 18.9199 141.225 18.834 141.211 18.7051C141.197 18.5618 141.168 18.4043 141.125 18.2324C141.096 18.0605 141.068 17.8887 141.039 17.7168C141.01 17.5449 140.996 17.4089 140.996 17.3086C140.982 17.3086 140.96 17.3229 140.932 17.3516C140.917 17.3659 140.903 17.3802 140.889 17.3945C140.645 17.8242 140.416 18.304 140.201 18.834C140.001 19.3496 139.843 19.8796 139.729 20.4238C139.628 20.9538 139.592 21.4837 139.621 22.0137C139.664 22.5436 139.822 23.0234 140.094 23.4531C140.294 23.4531 140.48 23.3743 140.652 23.2168C140.824 23.0449 140.967 22.8874 141.082 22.7441C141.326 22.4577 141.562 22.1641 141.791 21.8633C142.035 21.5625 142.257 21.2474 142.457 20.918C142.543 20.7747 142.607 20.6458 142.65 20.5312C142.693 20.4167 142.743 20.3236 142.801 20.252C142.872 20.1803 142.958 20.123 143.059 20.0801C143.159 20.0371 143.309 20.0156 143.51 20.0156C143.739 20.0156 143.954 20.0729 144.154 20.1875C144.355 20.2878 144.455 20.4596 144.455 20.7031C144.455 21.0326 144.305 21.4479 144.004 21.9492C143.717 22.4362 143.359 22.9089 142.93 23.3672C142.514 23.8255 142.07 24.2194 141.598 24.5488C141.125 24.8639 140.71 25.0215 140.352 25.0215C140.008 25.0215 139.671 24.957 139.342 24.8281C139.027 24.6849 138.747 24.4987 138.504 24.2695C138.275 24.0404 138.089 23.7682 137.945 23.4531C137.802 23.138 137.73 22.7943 137.73 22.4219ZM154.316 18.8984C154.288 19.1562 154.252 19.3568 154.209 19.5C154.18 19.6432 154.123 19.7721 154.037 19.8867C153.951 20.0013 153.829 20.123 153.672 20.252C153.514 20.3665 153.299 20.5384 153.027 20.7676C152.755 20.9824 152.419 21.2689 152.018 21.627C151.617 21.985 151.13 22.4505 150.557 23.0234C150.327 23.2383 150.091 23.4603 149.848 23.6895C149.604 23.9186 149.346 24.1263 149.074 24.3125C148.816 24.4844 148.544 24.6276 148.258 24.7422C147.971 24.8568 147.671 24.9141 147.355 24.9141C146.74 24.9141 146.288 24.7064 146.002 24.291C145.715 23.8757 145.572 23.3958 145.572 22.8516C145.572 22.4935 145.579 22.1927 145.594 21.9492C145.622 21.7057 145.68 21.3906 145.766 21.0039C145.608 20.8607 145.472 20.7389 145.357 20.6387C145.243 20.5241 145.186 20.3737 145.186 20.1875C145.186 20.0156 145.221 19.901 145.293 19.8438C145.379 19.7865 145.472 19.7507 145.572 19.7363C145.687 19.7077 145.794 19.679 145.895 19.6504C145.995 19.6217 146.066 19.5645 146.109 19.4785C146.138 19.3926 146.188 19.235 146.26 19.0059C146.346 18.7767 146.432 18.5404 146.518 18.2969C146.604 18.0391 146.682 17.8027 146.754 17.5879C146.84 17.3587 146.897 17.2012 146.926 17.1152C147.026 16.8717 147.133 16.6283 147.248 16.3848C147.377 16.127 147.52 15.8978 147.678 15.6973C147.85 15.4967 148.043 15.332 148.258 15.2031C148.487 15.0742 148.752 15.0098 149.053 15.0098C149.225 15.0098 149.432 15.0885 149.676 15.2461C149.934 15.4036 150.177 15.597 150.406 15.8262C150.635 16.041 150.829 16.2702 150.986 16.5137C151.144 16.7572 151.223 16.9648 151.223 17.1367C151.223 17.3516 151.173 17.5521 151.072 17.7383C150.972 17.9102 150.843 18.0749 150.686 18.2324C150.542 18.3757 150.385 18.5117 150.213 18.6406C150.041 18.7695 149.883 18.8913 149.74 19.0059C149.726 19.0059 149.697 19.0202 149.654 19.0488C149.611 19.0775 149.576 19.099 149.547 19.1133C149.533 19.1276 149.497 19.1634 149.439 19.2207C149.396 19.2637 149.346 19.3138 149.289 19.3711C149.232 19.4284 149.174 19.4857 149.117 19.543C149.074 19.6003 149.046 19.6361 149.031 19.6504C148.988 19.6934 148.902 19.765 148.773 19.8652C148.659 19.9512 148.53 20.0514 148.387 20.166C148.243 20.2663 148.107 20.3665 147.979 20.4668C147.864 20.5527 147.785 20.61 147.742 20.6387L147.656 20.8105C147.628 20.8678 147.599 20.9967 147.57 21.1973C147.556 21.3835 147.535 21.5983 147.506 21.8418C147.477 22.0853 147.449 22.3359 147.42 22.5938C147.406 22.8372 147.398 23.0378 147.398 23.1953C147.398 23.2096 147.406 23.224 147.42 23.2383C147.449 23.2669 147.47 23.2812 147.484 23.2812C147.599 23.2812 147.706 23.2311 147.807 23.1309C147.907 23.0306 148.014 22.959 148.129 22.916L151.566 19.7363L152.447 18.3828C152.519 18.2826 152.655 18.1751 152.855 18.0605C153.07 17.9316 153.285 17.8672 153.5 17.8672C153.715 17.8529 153.901 17.9173 154.059 18.0605C154.23 18.2038 154.316 18.4831 154.316 18.8984ZM149.59 17.2227C149.661 17.1654 149.69 17.0794 149.676 16.9648C149.661 16.8503 149.618 16.75 149.547 16.6641C149.49 16.5781 149.411 16.528 149.311 16.5137C149.21 16.485 149.117 16.5352 149.031 16.6641C148.988 16.7214 148.91 16.8359 148.795 17.0078C148.695 17.1797 148.587 17.3587 148.473 17.5449C148.372 17.7168 148.286 17.8672 148.215 17.9961C148.143 18.125 148.129 18.1751 148.172 18.1465L149.59 17.2227Z" fill="black"/>
<defs>
<filter id="filter0_i_4598_1964" x="1.95215" y="1.96155" width="199.593" height="33.5385" filterUnits="userSpaceOnUse" color-interpolation-filters="sRGB">
<feFlood flood-opacity="0" result="BackgroundImageFix"/>
<feBlend mode="normal" in="SourceGraphic" in2="BackgroundImageFix" result="shape"/>
<feColorMatrix in="SourceAlpha" type="matrix" values="0 0 0 0 0 0 0 0 0 0 0 0 0 0 0 0 0 0 127 0" result="hardAlpha"/>
<feOffset dx="4" dy="4"/>
<feComposite in2="hardAlpha" operator="arithmetic" k2="-1" k3="1"/>
<feColorMatrix type="matrix" values="0 0 0 0 0.694118 0 0 0 0 0.721569 0 0 0 0 0.741176 0 0 0 1 0"/>
<feBlend mode="multiply" in2="shape" result="effect1_innerShadow_4598_1964"/>
</filter>
</defs>
</svg>
