<svg width="151" height="37" viewBox="0 0 151 37" fill="none" xmlns="http://www.w3.org/2000/svg">
<g filter="url(#filter0_i_4585_2690)">
<path d="M145.022 7.61228C148.541 11.6933 148.541 20.3656 148.541 20.3656C148.731 28.2124 142.276 34.5 134.02 34.5C134.02 31.5523 134.02 2.00081 134.02 2.00081C137.163 1.66061 141.502 3.53121 145.022 7.61228Z" fill="white"/>
<path d="M18.7676 2H134.02V34.5C134.02 34.5 116.924 34.2049 98.0342 34.5C87.494 34.6647 65.3642 35.5 57.448 35.5C35.3449 35.5 18.7676 34.5 18.7676 34.5V2Z" fill="white"/>
<path d="M5.14517 27.9432C0.335274 22.3612 1.47845 11.5 5.14549 8C8.81252 4.5 8.60485 4.5 11.9565 3.5C15.3082 2.5 18.7674 2 18.7674 2V34.5C13.1929 34.5 9.95507 33.5252 5.14517 27.9432Z" fill="white"/>
</g>
<path d="M18.7676 34.5C38.1213 34.5 37.4609 35 56.8044 35C76.1581 35 78.4903 34.4063 97.8441 34.4063C117.198 34.4063 111.522 34 130.876 34" stroke="black" stroke-width="3" stroke-miterlimit="10" stroke-linecap="round" stroke-linejoin="round"/>
<path d="M2.00244 17.5C2.00244 7 9.6485 2 18.555 2C11.2202 2 2.52635 8 2.52635 17.5C2.52635 31.5 14.5763 34.5 18.2437 34.5C10.385 34.5 2.00244 28 2.00244 17.5Z" stroke="black" stroke-width="3" stroke-linecap="round" stroke-linejoin="round"/>
<path d="M149 19C149 29.5 139.782 34 130.876 34C138.211 34 147.33 30.5 148.165 20.5C149.33 6.54422 138.735 2 132.759 1.99999C140.617 2 149 8.49998 149 19Z" stroke="black" stroke-width="3" stroke-linecap="round" stroke-linejoin="round"/>
<path d="M18.7676 2C37.9688 2 35.9826 2 55.1737 2C74.3749 2 74.4335 1.5 93.6347 1.5C112.836 1.5 113.77 2.00001 132.972 2.00001" stroke="black" stroke-width="3" stroke-miterlimit="10" stroke-linecap="round" stroke-linejoin="round"/>
<path d="M21.0293 24.3125C21.0293 24.1836 21.0723 24.069 21.1582 23.9688C21.2585 23.8685 21.3086 23.7611 21.3086 23.6465C21.3086 23.6178 21.2799 23.582 21.2227 23.5391C21.1654 23.4961 21.1296 23.4674 21.1152 23.4531C20.972 23.2383 20.8932 22.9948 20.8789 22.7227C20.8646 22.4505 20.8574 22.1927 20.8574 21.9492C20.8574 20.6315 20.8646 19.3281 20.8789 18.0391C20.8932 16.75 20.9004 15.4466 20.9004 14.1289C20.7572 14.1289 20.6211 14.1647 20.4922 14.2363C20.3633 14.2936 20.2272 14.3652 20.084 14.4512C19.9408 14.5228 19.7904 14.5944 19.6328 14.666C19.4753 14.7233 19.3034 14.752 19.1172 14.752H18.7734C18.7448 14.709 18.6732 14.6732 18.5586 14.6445C18.444 14.6016 18.3867 14.5514 18.3867 14.4941V13.8496C18.4583 13.8066 18.5156 13.7493 18.5586 13.6777C18.6159 13.5918 18.6589 13.5202 18.6875 13.4629L20.8574 12.3887L20.9434 12.2812C20.9147 11.8802 20.9362 11.5579 21.0078 11.3145C21.0794 11.071 21.3301 10.9492 21.7598 10.9492C21.8743 10.9492 21.9961 10.9707 22.125 11.0137C22.2682 11.0566 22.3971 11.1139 22.5117 11.1855C22.6406 11.2572 22.7337 11.3503 22.791 11.4648C22.8626 11.5794 22.8841 11.7083 22.8555 11.8516C23.5716 11.8802 24.2806 11.9375 24.9824 12.0234C25.6842 12.0951 26.3145 12.2669 26.873 12.5391C27.4316 12.7969 27.8828 13.1836 28.2266 13.6992C28.5846 14.2148 28.7637 14.9238 28.7637 15.8262C28.7637 16.6426 28.6061 17.459 28.291 18.2754C27.9759 19.0918 27.5247 19.7936 26.9375 20.3809L22.8555 24.4414C22.6549 24.6419 22.4831 24.7852 22.3398 24.8711C22.2109 24.957 22.0176 25 21.7598 25C21.5449 25 21.3659 24.9427 21.2227 24.8281C21.0938 24.6992 21.0293 24.5273 21.0293 24.3125ZM22.8555 22.3789H22.7695L22.9414 22.2715C22.9557 22.2572 23.0059 22.2142 23.0918 22.1426C23.1921 22.0566 23.2995 21.9635 23.4141 21.8633C23.5286 21.7487 23.6432 21.6413 23.7578 21.541C23.8724 21.4408 23.9655 21.3548 24.0371 21.2832C24.3665 20.9395 24.7103 20.5742 25.0684 20.1875C25.4408 19.8008 25.7773 19.3926 26.0781 18.9629C26.3789 18.5189 26.6224 18.0605 26.8086 17.5879C27.0091 17.1009 27.1094 16.5924 27.1094 16.0625C27.1094 15.5612 27.0163 15.1387 26.8301 14.7949C26.6439 14.4368 26.3932 14.1504 26.0781 13.9355C25.7773 13.7064 25.4193 13.5417 25.0039 13.4414C24.5885 13.3411 24.1445 13.291 23.6719 13.291C23.6289 13.291 23.5 13.3053 23.2852 13.334C23.0846 13.3483 22.9414 13.3913 22.8555 13.4629V22.3789ZM38.7109 18.8984C38.6823 19.1562 38.6465 19.3568 38.6035 19.5C38.5749 19.6432 38.5176 19.7721 38.4316 19.8867C38.3457 20.0013 38.224 20.123 38.0664 20.252C37.9089 20.3665 37.694 20.5384 37.4219 20.7676C37.1497 20.9824 36.8132 21.2689 36.4121 21.627C36.0111 21.985 35.5241 22.4505 34.9512 23.0234C34.722 23.2383 34.4857 23.4603 34.2422 23.6895C33.9987 23.9186 33.7409 24.1263 33.4688 24.3125C33.2109 24.4844 32.9388 24.6276 32.6523 24.7422C32.3659 24.8568 32.0651 24.9141 31.75 24.9141C31.1341 24.9141 30.6829 24.7064 30.3965 24.291C30.11 23.8757 29.9668 23.3958 29.9668 22.8516C29.9668 22.4935 29.974 22.1927 29.9883 21.9492C30.0169 21.7057 30.0742 21.3906 30.1602 21.0039C30.0026 20.8607 29.8665 20.7389 29.752 20.6387C29.6374 20.5241 29.5801 20.3737 29.5801 20.1875C29.5801 20.0156 29.6159 19.901 29.6875 19.8438C29.7734 19.7865 29.8665 19.7507 29.9668 19.7363C30.0814 19.7077 30.1888 19.679 30.2891 19.6504C30.3893 19.6217 30.4609 19.5645 30.5039 19.4785C30.5326 19.3926 30.5827 19.235 30.6543 19.0059C30.7402 18.7767 30.8262 18.5404 30.9121 18.2969C30.998 18.0391 31.0768 17.8027 31.1484 17.5879C31.2344 17.3587 31.2917 17.2012 31.3203 17.1152C31.4206 16.8717 31.528 16.6283 31.6426 16.3848C31.7715 16.127 31.9147 15.8978 32.0723 15.6973C32.2441 15.4967 32.4375 15.332 32.6523 15.2031C32.8815 15.0742 33.1465 15.0098 33.4473 15.0098C33.6191 15.0098 33.8268 15.0885 34.0703 15.2461C34.3281 15.4036 34.5716 15.597 34.8008 15.8262C35.0299 16.041 35.2233 16.2702 35.3809 16.5137C35.5384 16.7572 35.6172 16.9648 35.6172 17.1367C35.6172 17.3516 35.5671 17.5521 35.4668 17.7383C35.3665 17.9102 35.2376 18.0749 35.0801 18.2324C34.9368 18.3757 34.7793 18.5117 34.6074 18.6406C34.4355 18.7695 34.278 18.8913 34.1348 19.0059C34.1204 19.0059 34.0918 19.0202 34.0488 19.0488C34.0059 19.0775 33.9701 19.099 33.9414 19.1133C33.9271 19.1276 33.8913 19.1634 33.834 19.2207C33.791 19.2637 33.7409 19.3138 33.6836 19.3711C33.6263 19.4284 33.569 19.4857 33.5117 19.543C33.4688 19.6003 33.4401 19.6361 33.4258 19.6504C33.3828 19.6934 33.2969 19.765 33.168 19.8652C33.0534 19.9512 32.9245 20.0514 32.7812 20.166C32.638 20.2663 32.502 20.3665 32.373 20.4668C32.2585 20.5527 32.1797 20.61 32.1367 20.6387L32.0508 20.8105C32.0221 20.8678 31.9935 20.9967 31.9648 21.1973C31.9505 21.3835 31.929 21.5983 31.9004 21.8418C31.8717 22.0853 31.8431 22.3359 31.8145 22.5938C31.8001 22.8372 31.793 23.0378 31.793 23.1953C31.793 23.2096 31.8001 23.224 31.8145 23.2383C31.8431 23.2669 31.8646 23.2812 31.8789 23.2812C31.9935 23.2812 32.1009 23.2311 32.2012 23.1309C32.3014 23.0306 32.4089 22.959 32.5234 22.916L35.9609 19.7363L36.8418 18.3828C36.9134 18.2826 37.0495 18.1751 37.25 18.0605C37.4648 17.9316 37.6797 17.8672 37.8945 17.8672C38.1094 17.8529 38.2956 17.9173 38.4531 18.0605C38.625 18.2038 38.7109 18.4831 38.7109 18.8984ZM33.9844 17.2227C34.056 17.1654 34.0846 17.0794 34.0703 16.9648C34.056 16.8503 34.013 16.75 33.9414 16.6641C33.8841 16.5781 33.8053 16.528 33.7051 16.5137C33.6048 16.485 33.5117 16.5352 33.4258 16.6641C33.3828 16.7214 33.304 16.8359 33.1895 17.0078C33.0892 17.1797 32.9818 17.3587 32.8672 17.5449C32.7669 17.7168 32.681 17.8672 32.6094 17.9961C32.5378 18.125 32.5234 18.1751 32.5664 18.1465L33.9844 17.2227ZM48.2715 18.8984C48.2428 19.1562 48.207 19.3568 48.1641 19.5C48.1354 19.6432 48.0781 19.7721 47.9922 19.8867C47.9062 20.0013 47.7845 20.123 47.627 20.252C47.4694 20.3665 47.2546 20.5384 46.9824 20.7676C46.7103 20.9824 46.3737 21.2689 45.9727 21.627C45.5716 21.985 45.0846 22.4505 44.5117 23.0234C44.2826 23.2383 44.0462 23.4603 43.8027 23.6895C43.5592 23.9186 43.3014 24.1263 43.0293 24.3125C42.7715 24.4844 42.4993 24.6276 42.2129 24.7422C41.9264 24.8568 41.6257 24.9141 41.3105 24.9141C40.6947 24.9141 40.2435 24.7064 39.957 24.291C39.6706 23.8757 39.5273 23.3958 39.5273 22.8516C39.5273 22.4935 39.5345 22.1927 39.5488 21.9492C39.5775 21.7057 39.6348 21.3906 39.7207 21.0039C39.5632 20.8607 39.4271 20.7389 39.3125 20.6387C39.1979 20.5241 39.1406 20.3737 39.1406 20.1875C39.1406 20.0156 39.1764 19.901 39.248 19.8438C39.334 19.7865 39.4271 19.7507 39.5273 19.7363C39.6419 19.7077 39.7493 19.679 39.8496 19.6504C39.9499 19.6217 40.0215 19.5645 40.0645 19.4785C40.0931 19.3926 40.1432 19.235 40.2148 19.0059C40.3008 18.7767 40.3867 18.5404 40.4727 18.2969C40.5586 18.0391 40.6374 17.8027 40.709 17.5879C40.7949 17.3587 40.8522 17.2012 40.8809 17.1152C40.9811 16.8717 41.0885 16.6283 41.2031 16.3848C41.332 16.127 41.4753 15.8978 41.6328 15.6973C41.8047 15.4967 41.998 15.332 42.2129 15.2031C42.4421 15.0742 42.707 15.0098 43.0078 15.0098C43.1797 15.0098 43.3874 15.0885 43.6309 15.2461C43.8887 15.4036 44.1322 15.597 44.3613 15.8262C44.5905 16.041 44.7839 16.2702 44.9414 16.5137C45.099 16.7572 45.1777 16.9648 45.1777 17.1367C45.1777 17.3516 45.1276 17.5521 45.0273 17.7383C44.9271 17.9102 44.7982 18.0749 44.6406 18.2324C44.4974 18.3757 44.3398 18.5117 44.168 18.6406C43.9961 18.7695 43.8385 18.8913 43.6953 19.0059C43.681 19.0059 43.6523 19.0202 43.6094 19.0488C43.5664 19.0775 43.5306 19.099 43.502 19.1133C43.4876 19.1276 43.4518 19.1634 43.3945 19.2207C43.3516 19.2637 43.3014 19.3138 43.2441 19.3711C43.1868 19.4284 43.1296 19.4857 43.0723 19.543C43.0293 19.6003 43.0007 19.6361 42.9863 19.6504C42.9434 19.6934 42.8574 19.765 42.7285 19.8652C42.6139 19.9512 42.485 20.0514 42.3418 20.166C42.1986 20.2663 42.0625 20.3665 41.9336 20.4668C41.819 20.5527 41.7402 20.61 41.6973 20.6387L41.6113 20.8105C41.5827 20.8678 41.554 20.9967 41.5254 21.1973C41.5111 21.3835 41.4896 21.5983 41.4609 21.8418C41.4323 22.0853 41.4036 22.3359 41.375 22.5938C41.3607 22.8372 41.3535 23.0378 41.3535 23.1953C41.3535 23.2096 41.3607 23.224 41.375 23.2383C41.4036 23.2669 41.4251 23.2812 41.4395 23.2812C41.554 23.2812 41.6615 23.2311 41.7617 23.1309C41.862 23.0306 41.9694 22.959 42.084 22.916L45.5215 19.7363L46.4023 18.3828C46.474 18.2826 46.61 18.1751 46.8105 18.0605C47.0254 17.9316 47.2402 17.8672 47.4551 17.8672C47.6699 17.8529 47.8561 17.9173 48.0137 18.0605C48.1855 18.2038 48.2715 18.4831 48.2715 18.8984ZM43.5449 17.2227C43.6165 17.1654 43.6452 17.0794 43.6309 16.9648C43.6165 16.8503 43.5736 16.75 43.502 16.6641C43.4447 16.5781 43.3659 16.528 43.2656 16.5137C43.1654 16.485 43.0723 16.5352 42.9863 16.6641C42.9434 16.7214 42.8646 16.8359 42.75 17.0078C42.6497 17.1797 42.5423 17.3587 42.4277 17.5449C42.3275 17.7168 42.2415 17.8672 42.1699 17.9961C42.0983 18.125 42.084 18.1751 42.127 18.1465L43.5449 17.2227ZM49.5391 21.1328C49.2669 21.0326 49.0163 20.9108 48.7871 20.7676C48.5723 20.6243 48.4648 20.388 48.4648 20.0586C48.4648 19.9727 48.4863 19.9154 48.5293 19.8867C48.5723 19.8581 48.6081 19.8151 48.6367 19.7578C48.6654 19.7148 48.7227 19.6361 48.8086 19.5215C48.8945 19.4069 48.9876 19.2852 49.0879 19.1562C49.1882 19.013 49.2812 18.8841 49.3672 18.7695C49.4531 18.6406 49.5104 18.5547 49.5391 18.5117C49.5391 18.3255 49.5247 18.1035 49.4961 17.8457C49.4818 17.5736 49.4889 17.3229 49.5176 17.0938C49.5605 16.8503 49.6465 16.6497 49.7754 16.4922C49.9043 16.3203 50.1191 16.2344 50.4199 16.2344C50.5918 16.2344 50.735 16.2988 50.8496 16.4277C50.9642 16.5423 51.1074 16.5996 51.2793 16.5996H51.3652C51.9525 16.1413 52.554 15.7402 53.1699 15.3965C53.8001 15.0384 54.502 14.8594 55.2754 14.8594C55.7767 14.8594 56.1849 15.0098 56.5 15.3105C56.8294 15.597 56.9941 16.0052 56.9941 16.5352C56.9941 17.194 56.8438 17.8743 56.543 18.5762C56.2422 19.278 55.8626 19.9655 55.4043 20.6387C54.9603 21.2975 54.4733 21.9206 53.9434 22.5078C53.4277 23.0951 52.9551 23.6035 52.5254 24.0332C52.4824 24.0905 52.418 24.1549 52.332 24.2266C52.2461 24.2839 52.1673 24.3483 52.0957 24.4199C52.0098 24.4915 51.9167 24.5775 51.8164 24.6777L51.6445 29.6191C51.6445 29.748 51.6374 29.8841 51.623 30.0273C51.623 30.1706 51.5944 30.2995 51.5371 30.4141C51.4941 30.543 51.4225 30.6432 51.3223 30.7148C51.2363 30.8008 51.1074 30.8438 50.9355 30.8438C50.8496 30.8438 50.735 30.8223 50.5918 30.7793C50.4486 30.7507 50.3125 30.7005 50.1836 30.6289C50.0547 30.5573 49.9401 30.4714 49.8398 30.3711C49.7539 30.2708 49.7109 30.1562 49.7109 30.0273L49.5391 21.1328ZM51.5371 22.4863H51.623C51.6374 22.4863 51.6803 22.4434 51.752 22.3574C51.8379 22.2715 51.931 22.1712 52.0312 22.0566C52.1458 21.9421 52.2533 21.8275 52.3535 21.7129C52.4681 21.584 52.554 21.4837 52.6113 21.4121C53.041 21.097 53.4349 20.7031 53.793 20.2305C54.151 19.7578 54.4375 19.2852 54.6523 18.8125C54.8815 18.3255 55.0176 17.8887 55.0605 17.502C55.1178 17.1152 55.0534 16.8503 54.8672 16.707C54.6953 16.5495 54.3874 16.5638 53.9434 16.75C53.5137 16.9362 52.9264 17.3659 52.1816 18.0391C52.0098 18.1823 51.8522 18.347 51.709 18.5332C51.5658 18.7194 51.4798 18.9271 51.4512 19.1562L51.5371 22.4863ZM66.9199 21.6699C66.9199 20.5671 66.9342 19.4714 66.9629 18.3828C67.0059 17.2943 67.0273 16.1914 67.0273 15.0742C67.0273 14.4297 66.9915 13.7852 66.9199 13.1406C66.8626 12.4961 66.834 11.8516 66.834 11.207C66.834 11.0065 66.8913 10.8346 67.0059 10.6914C67.1348 10.5482 67.2995 10.4766 67.5 10.4766C67.8438 10.4766 68.1016 10.5482 68.2734 10.6914C68.4453 10.8346 68.5671 11.0137 68.6387 11.2285C68.7103 11.4434 68.7461 11.6868 68.7461 11.959C68.7461 12.2311 68.7461 12.4961 68.7461 12.7539C68.7461 12.8112 68.7461 12.9544 68.7461 13.1836C68.7604 13.4128 68.7747 13.6634 68.7891 13.9355C68.8034 14.1934 68.8105 14.4368 68.8105 14.666C68.8249 14.8952 68.832 15.0384 68.832 15.0957V15.8047C68.832 16.7357 68.8177 17.6595 68.7891 18.5762C68.7604 19.4928 68.7461 20.4238 68.7461 21.3691V22.2715C68.7461 22.3431 68.7533 22.4434 68.7676 22.5723C68.7962 22.6868 68.8177 22.7441 68.832 22.7441H69.0039L74.0957 20.7246C74.2103 20.6243 74.3105 20.5742 74.3965 20.5742C74.4824 20.5599 74.5827 20.5527 74.6973 20.5527C74.7689 20.5527 74.862 20.5599 74.9766 20.5742C75.0911 20.5742 75.1986 20.5957 75.2988 20.6387C75.4134 20.6673 75.5065 20.7174 75.5781 20.7891C75.6641 20.8464 75.707 20.9395 75.707 21.0684C75.707 21.3978 75.528 21.6842 75.1699 21.9277C74.7116 22.1712 74.2389 22.4004 73.752 22.6152C73.265 22.8158 72.7708 22.9805 72.2695 23.1094L72.1621 23.1953C71.4746 23.3815 70.8301 23.6536 70.2285 24.0117C69.6413 24.3698 69.0254 24.6992 68.3809 25H68.1875C67.8008 25 67.5143 24.8711 67.3281 24.6133C67.1419 24.3555 67.0202 24.0547 66.9629 23.7109C66.9056 23.3529 66.8841 22.9876 66.8984 22.6152C66.9128 22.2285 66.9199 21.9134 66.9199 21.6699ZM85.3105 18.8984C85.2819 19.1562 85.2461 19.3568 85.2031 19.5C85.1745 19.6432 85.1172 19.7721 85.0312 19.8867C84.9453 20.0013 84.8236 20.123 84.666 20.252C84.5085 20.3665 84.2936 20.5384 84.0215 20.7676C83.7493 20.9824 83.4128 21.2689 83.0117 21.627C82.6107 21.985 82.1237 22.4505 81.5508 23.0234C81.3216 23.2383 81.0853 23.4603 80.8418 23.6895C80.5983 23.9186 80.3405 24.1263 80.0684 24.3125C79.8105 24.4844 79.5384 24.6276 79.252 24.7422C78.9655 24.8568 78.6647 24.9141 78.3496 24.9141C77.7337 24.9141 77.2826 24.7064 76.9961 24.291C76.7096 23.8757 76.5664 23.3958 76.5664 22.8516C76.5664 22.4935 76.5736 22.1927 76.5879 21.9492C76.6165 21.7057 76.6738 21.3906 76.7598 21.0039C76.6022 20.8607 76.4661 20.7389 76.3516 20.6387C76.237 20.5241 76.1797 20.3737 76.1797 20.1875C76.1797 20.0156 76.2155 19.901 76.2871 19.8438C76.373 19.7865 76.4661 19.7507 76.5664 19.7363C76.681 19.7077 76.7884 19.679 76.8887 19.6504C76.9889 19.6217 77.0605 19.5645 77.1035 19.4785C77.1322 19.3926 77.1823 19.235 77.2539 19.0059C77.3398 18.7767 77.4258 18.5404 77.5117 18.2969C77.5977 18.0391 77.6764 17.8027 77.748 17.5879C77.834 17.3587 77.8913 17.2012 77.9199 17.1152C78.0202 16.8717 78.1276 16.6283 78.2422 16.3848C78.3711 16.127 78.5143 15.8978 78.6719 15.6973C78.8438 15.4967 79.0371 15.332 79.252 15.2031C79.4811 15.0742 79.7461 15.0098 80.0469 15.0098C80.2188 15.0098 80.4264 15.0885 80.6699 15.2461C80.9277 15.4036 81.1712 15.597 81.4004 15.8262C81.6296 16.041 81.8229 16.2702 81.9805 16.5137C82.138 16.7572 82.2168 16.9648 82.2168 17.1367C82.2168 17.3516 82.1667 17.5521 82.0664 17.7383C81.9661 17.9102 81.8372 18.0749 81.6797 18.2324C81.5365 18.3757 81.3789 18.5117 81.207 18.6406C81.0352 18.7695 80.8776 18.8913 80.7344 19.0059C80.7201 19.0059 80.6914 19.0202 80.6484 19.0488C80.6055 19.0775 80.5697 19.099 80.541 19.1133C80.5267 19.1276 80.4909 19.1634 80.4336 19.2207C80.3906 19.2637 80.3405 19.3138 80.2832 19.3711C80.2259 19.4284 80.1686 19.4857 80.1113 19.543C80.0684 19.6003 80.0397 19.6361 80.0254 19.6504C79.9824 19.6934 79.8965 19.765 79.7676 19.8652C79.653 19.9512 79.5241 20.0514 79.3809 20.166C79.2376 20.2663 79.1016 20.3665 78.9727 20.4668C78.8581 20.5527 78.7793 20.61 78.7363 20.6387L78.6504 20.8105C78.6217 20.8678 78.5931 20.9967 78.5645 21.1973C78.5501 21.3835 78.5286 21.5983 78.5 21.8418C78.4714 22.0853 78.4427 22.3359 78.4141 22.5938C78.3997 22.8372 78.3926 23.0378 78.3926 23.1953C78.3926 23.2096 78.3997 23.224 78.4141 23.2383C78.4427 23.2669 78.4642 23.2812 78.4785 23.2812C78.5931 23.2812 78.7005 23.2311 78.8008 23.1309C78.901 23.0306 79.0085 22.959 79.123 22.916L82.5605 19.7363L83.4414 18.3828C83.513 18.2826 83.6491 18.1751 83.8496 18.0605C84.0645 17.9316 84.2793 17.8672 84.4941 17.8672C84.709 17.8529 84.8952 17.9173 85.0527 18.0605C85.2246 18.2038 85.3105 18.4831 85.3105 18.8984ZM80.584 17.2227C80.6556 17.1654 80.6842 17.0794 80.6699 16.9648C80.6556 16.8503 80.6126 16.75 80.541 16.6641C80.4837 16.5781 80.4049 16.528 80.3047 16.5137C80.2044 16.485 80.1113 16.5352 80.0254 16.6641C79.9824 16.7214 79.9036 16.8359 79.7891 17.0078C79.6888 17.1797 79.5814 17.3587 79.4668 17.5449C79.3665 17.7168 79.2806 17.8672 79.209 17.9961C79.1374 18.125 79.123 18.1751 79.166 18.1465L80.584 17.2227ZM90.8965 19.0059C90.7676 19.235 90.6172 19.5143 90.4453 19.8438C90.2878 20.1589 90.1159 20.5026 89.9297 20.875C89.7435 21.2331 89.5358 21.5983 89.3066 21.9707C89.0918 22.3288 88.8626 22.6582 88.6191 22.959C88.39 23.2598 88.1465 23.5176 87.8887 23.7324C87.6309 23.9329 87.3659 24.0547 87.0938 24.0977C86.9792 24.0977 86.8503 24.0905 86.707 24.0762C86.5638 24.0475 86.4206 24.0117 86.2773 23.9688C86.1341 23.9115 86.0124 23.8398 85.9121 23.7539C85.8262 23.6536 85.7832 23.5247 85.7832 23.3672C85.7975 21.9062 85.9049 20.5814 86.1055 19.3926C86.306 18.1895 86.6211 17.1367 87.0508 16.2344C87.4805 15.3177 88.0319 14.5586 88.7051 13.957C89.3783 13.3555 90.1947 12.9258 91.1543 12.668C91.1829 12.668 91.2331 12.668 91.3047 12.668C91.3906 12.6536 91.4479 12.6465 91.4766 12.6465C91.9062 12.6322 92.2142 12.8327 92.4004 13.248C92.6009 13.6491 92.7441 14.2936 92.8301 15.1816C92.9303 16.0553 92.9948 17.1868 93.0234 18.5762C93.0664 19.9512 93.1452 21.6055 93.2598 23.5391C93.3027 23.6966 93.3242 23.8327 93.3242 23.9473C93.3385 24.0618 93.3457 24.1979 93.3457 24.3555C93.3457 24.5703 93.2812 24.735 93.1523 24.8496C93.0234 24.9499 92.8587 25 92.6582 25C92.2428 25 91.9492 24.8854 91.7773 24.6562C91.6055 24.4271 91.4909 24.1191 91.4336 23.7324C91.4336 23.7181 91.4193 23.6035 91.3906 23.3887C91.3763 23.1738 91.3477 22.9303 91.3047 22.6582C91.276 22.3717 91.2474 22.0853 91.2188 21.7988C91.1901 21.5124 91.1686 21.276 91.1543 21.0898V21.0039C91.1257 20.8607 91.1042 20.6816 91.0898 20.4668C91.0898 20.252 91.0755 20.0443 91.0469 19.8438C91.0182 19.6003 90.9967 19.3568 90.9824 19.1133L90.8965 19.0059ZM90.4238 14.752C90.0371 15.0384 89.6576 15.4251 89.2852 15.9121C88.9128 16.3991 88.6478 16.8717 88.4902 17.3301C88.4186 17.5449 88.3398 17.8385 88.2539 18.2109C88.168 18.5833 88.0892 18.9557 88.0176 19.3281C87.9603 19.6862 87.9102 20.0228 87.8672 20.3379C87.8242 20.6387 87.8027 20.832 87.8027 20.918C87.8171 20.918 87.8314 20.9036 87.8457 20.875C87.8743 20.8464 87.8958 20.8249 87.9102 20.8105C88.7982 19.9512 89.4212 19.0273 89.7793 18.0391C90.1517 17.0365 90.3665 15.9408 90.4238 14.752ZM95.4297 24.0762C95.401 23.5605 95.3509 22.873 95.2793 22.0137C95.222 21.14 95.1504 20.2376 95.0645 19.3066C94.9928 18.3757 94.9141 17.4948 94.8281 16.6641C94.7422 15.8333 94.6706 15.1888 94.6133 14.7305C94.6133 14.5443 94.6992 14.4225 94.8711 14.3652C95.043 14.3079 95.2077 14.2793 95.3652 14.2793C95.5658 14.2793 95.7734 14.3366 95.9883 14.4512C96.2174 14.5658 96.3607 14.7233 96.418 14.9238C96.418 14.9811 96.4251 15.0885 96.4395 15.2461C96.4538 15.3893 96.4609 15.5397 96.4609 15.6973C96.4753 15.8548 96.4896 16.0124 96.5039 16.1699C96.5182 16.3132 96.5254 16.4134 96.5254 16.4707C96.5254 16.5566 96.5254 16.6211 96.5254 16.6641C96.5254 16.707 96.5254 16.75 96.5254 16.793C96.5254 16.8216 96.5326 16.8574 96.5469 16.9004C96.5612 16.9434 96.5827 17.015 96.6113 17.1152C96.64 17.0866 96.6686 17.0508 96.6973 17.0078C96.7402 16.9648 96.7689 16.9362 96.7832 16.9219C97.0124 16.5924 97.2344 16.306 97.4492 16.0625C97.6641 15.8047 97.8861 15.5684 98.1152 15.3535C98.3444 15.1243 98.5951 14.888 98.8672 14.6445C99.1536 14.3867 99.4831 14.0931 99.8555 13.7637C99.9414 13.6921 100.006 13.6419 100.049 13.6133C100.092 13.5703 100.128 13.5417 100.156 13.5273C100.199 13.4987 100.242 13.4844 100.285 13.4844C100.328 13.4701 100.385 13.4629 100.457 13.4629C100.701 13.4629 100.944 13.5488 101.188 13.7207C101.445 13.8783 101.574 14.1003 101.574 14.3867C101.574 14.487 101.538 14.5944 101.467 14.709C101.395 14.8092 101.309 14.9095 101.209 15.0098C101.109 15.0957 101.001 15.1745 100.887 15.2461C100.786 15.3177 100.693 15.3678 100.607 15.3965C100.235 15.7259 99.8411 16.1055 99.4258 16.5352C99.0104 16.9505 98.6237 17.4017 98.2656 17.8887C97.9076 18.3757 97.6139 18.8841 97.3848 19.4141C97.1556 19.944 97.041 20.474 97.041 21.0039C97.041 21.4909 97.0768 21.9707 97.1484 22.4434C97.2201 22.916 97.2559 23.3958 97.2559 23.8828V24.6348C97.1413 24.7493 97.041 24.8424 96.9551 24.9141C96.8691 24.9857 96.7474 25.0215 96.5898 25.0215C96.3464 25.0215 96.11 24.9212 95.8809 24.7207C95.6517 24.5059 95.5013 24.291 95.4297 24.0762ZM108.256 24.2695C108.055 23.9831 107.883 23.5892 107.74 23.0879C107.611 22.5723 107.482 22.0352 107.354 21.4766C107.239 20.9036 107.132 20.3522 107.031 19.8223C106.931 19.278 106.824 18.8483 106.709 18.5332C106.609 18.2038 106.494 18.0176 106.365 17.9746C106.236 17.9316 106.086 18.125 105.914 18.5547L104.045 24.3125C103.973 24.513 103.887 24.6562 103.787 24.7422C103.687 24.8138 103.522 24.8496 103.293 24.8496C103.178 24.8496 103.057 24.8353 102.928 24.8066C102.799 24.7637 102.677 24.7064 102.562 24.6348C102.448 24.5632 102.348 24.4772 102.262 24.377C102.19 24.2767 102.147 24.1621 102.133 24.0332C102.176 23.8613 102.212 23.5462 102.24 23.0879C102.283 22.6296 102.312 22.0996 102.326 21.498C102.34 20.8965 102.348 20.2663 102.348 19.6074C102.362 18.9342 102.362 18.3112 102.348 17.7383C102.348 17.151 102.34 16.6497 102.326 16.2344C102.312 15.8047 102.298 15.5254 102.283 15.3965C102.283 15.2533 102.283 15.11 102.283 14.9668C102.298 14.8092 102.319 14.666 102.348 14.5371C102.391 14.4082 102.455 14.3079 102.541 14.2363C102.641 14.1504 102.792 14.1074 102.992 14.1074C103.264 14.1074 103.515 14.222 103.744 14.4512C103.988 14.6803 104.109 14.9238 104.109 15.1816C104.109 15.554 104.088 15.9264 104.045 16.2988C104.016 16.6569 104.002 17.0221 104.002 17.3945C104.002 17.6237 104.002 17.8171 104.002 17.9746C104.002 18.1322 104.031 18.3255 104.088 18.5547C104.131 18.4401 104.202 18.2396 104.303 17.9531C104.403 17.6667 104.51 17.3659 104.625 17.0508C104.754 16.7357 104.868 16.4421 104.969 16.1699C105.069 15.8835 105.141 15.6829 105.184 15.5684C105.284 15.2819 105.434 15.0098 105.635 14.752C105.835 14.4798 106.1 14.3294 106.43 14.3008C106.645 14.2865 106.838 14.3438 107.01 14.4727C107.196 14.6016 107.354 14.7734 107.482 14.9883C107.611 15.1888 107.719 15.4036 107.805 15.6328C107.891 15.8477 107.955 16.0339 107.998 16.1914L109.158 21.541L110.061 23.9902C110.075 24.0046 110.082 24.0475 110.082 24.1191C110.082 24.1764 110.082 24.2194 110.082 24.248C110.082 24.4199 110.039 24.5918 109.953 24.7637C109.882 24.9212 109.745 25 109.545 25C109.301 25 109.051 24.9355 108.793 24.8066C108.535 24.6634 108.356 24.4844 108.256 24.2695ZM112.037 24.1836C111.894 22.7513 111.772 21.5267 111.672 20.5098C111.572 19.4928 111.486 18.6406 111.414 17.9531C111.342 17.2656 111.278 16.7214 111.221 16.3203C111.178 15.9049 111.142 15.597 111.113 15.3965C111.085 15.1816 111.063 15.0384 111.049 14.9668C111.035 14.8952 111.027 14.8522 111.027 14.8379V14.752C111.027 14.5944 111.092 14.4655 111.221 14.3652C111.364 14.2507 111.507 14.1934 111.65 14.1934C111.865 14.1934 112.094 14.2292 112.338 14.3008C112.596 14.3724 112.768 14.5228 112.854 14.752C112.982 15.4538 113.068 16.1628 113.111 16.8789C113.169 17.5951 113.212 18.3112 113.24 19.0273C113.283 19.7292 113.333 20.4382 113.391 21.1543C113.462 21.8704 113.584 22.5794 113.756 23.2812C113.756 23.3099 113.763 23.3672 113.777 23.4531C113.806 23.5391 113.827 23.6322 113.842 23.7324C113.87 23.8327 113.892 23.9258 113.906 24.0117C113.921 24.0977 113.928 24.1549 113.928 24.1836V24.2266C113.928 24.2409 113.935 24.2552 113.949 24.2695C113.949 24.4414 113.87 24.6133 113.713 24.7852C113.555 24.957 113.391 25.0286 113.219 25C113.176 24.9857 113.068 24.9642 112.896 24.9355C112.739 24.8926 112.632 24.8568 112.574 24.8281C112.531 24.8138 112.474 24.7852 112.402 24.7422C112.331 24.6849 112.259 24.6276 112.188 24.5703C112.13 24.513 112.08 24.4486 112.037 24.377C111.994 24.3053 111.994 24.2409 112.037 24.1836ZM110.834 8.52148C110.834 8.42122 110.913 8.33529 111.07 8.26367C111.242 8.17773 111.371 8.13477 111.457 8.13477C111.672 8.13477 111.908 8.19922 112.166 8.32812C112.438 8.44271 112.574 8.62174 112.574 8.86523C112.574 9.10872 112.538 9.27344 112.467 9.35938C112.41 9.44531 112.259 9.48828 112.016 9.48828C111.758 9.48828 111.493 9.40234 111.221 9.23047C110.963 9.05859 110.834 8.82227 110.834 8.52148ZM120.867 24.2695C120.667 23.9831 120.495 23.5892 120.352 23.0879C120.223 22.5723 120.094 22.0352 119.965 21.4766C119.85 20.9036 119.743 20.3522 119.643 19.8223C119.542 19.278 119.435 18.8483 119.32 18.5332C119.22 18.2038 119.105 18.0176 118.977 17.9746C118.848 17.9316 118.697 18.125 118.525 18.5547L116.656 24.3125C116.585 24.513 116.499 24.6562 116.398 24.7422C116.298 24.8138 116.133 24.8496 115.904 24.8496C115.79 24.8496 115.668 24.8353 115.539 24.8066C115.41 24.7637 115.288 24.7064 115.174 24.6348C115.059 24.5632 114.959 24.4772 114.873 24.377C114.801 24.2767 114.758 24.1621 114.744 24.0332C114.787 23.8613 114.823 23.5462 114.852 23.0879C114.895 22.6296 114.923 22.0996 114.938 21.498C114.952 20.8965 114.959 20.2663 114.959 19.6074C114.973 18.9342 114.973 18.3112 114.959 17.7383C114.959 17.151 114.952 16.6497 114.938 16.2344C114.923 15.8047 114.909 15.5254 114.895 15.3965C114.895 15.2533 114.895 15.11 114.895 14.9668C114.909 14.8092 114.93 14.666 114.959 14.5371C115.002 14.4082 115.066 14.3079 115.152 14.2363C115.253 14.1504 115.403 14.1074 115.604 14.1074C115.876 14.1074 116.126 14.222 116.355 14.4512C116.599 14.6803 116.721 14.9238 116.721 15.1816C116.721 15.554 116.699 15.9264 116.656 16.2988C116.628 16.6569 116.613 17.0221 116.613 17.3945C116.613 17.6237 116.613 17.8171 116.613 17.9746C116.613 18.1322 116.642 18.3255 116.699 18.5547C116.742 18.4401 116.814 18.2396 116.914 17.9531C117.014 17.6667 117.122 17.3659 117.236 17.0508C117.365 16.7357 117.48 16.4421 117.58 16.1699C117.68 15.8835 117.752 15.6829 117.795 15.5684C117.895 15.2819 118.046 15.0098 118.246 14.752C118.447 14.4798 118.712 14.3294 119.041 14.3008C119.256 14.2865 119.449 14.3438 119.621 14.4727C119.807 14.6016 119.965 14.7734 120.094 14.9883C120.223 15.1888 120.33 15.4036 120.416 15.6328C120.502 15.8477 120.566 16.0339 120.609 16.1914L121.77 21.541L122.672 23.9902C122.686 24.0046 122.693 24.0475 122.693 24.1191C122.693 24.1764 122.693 24.2194 122.693 24.248C122.693 24.4199 122.65 24.5918 122.564 24.7637C122.493 24.9212 122.357 25 122.156 25C121.913 25 121.662 24.9355 121.404 24.8066C121.146 24.6634 120.967 24.4844 120.867 24.2695ZM124.691 32.498C124.634 32.3405 124.634 32.1615 124.691 31.9609C124.763 31.7604 124.899 31.6315 125.1 31.5742C125.429 31.7174 125.773 31.8105 126.131 31.8535C126.489 31.8965 126.847 31.9036 127.205 31.875C127.577 31.8464 127.943 31.7891 128.301 31.7031C128.659 31.6172 129.003 31.5169 129.332 31.4023C129.661 31.1302 129.891 30.7721 130.02 30.3281C130.148 29.8984 130.199 29.304 130.17 28.5449C130.141 27.8001 130.041 26.862 129.869 25.7305C129.712 24.6133 129.504 23.2383 129.246 21.6055C129.246 21.5625 129.246 21.498 129.246 21.4121C129.26 21.3262 129.26 21.2474 129.246 21.1758C129.232 21.0898 129.203 21.0254 129.16 20.9824C129.132 20.9395 129.089 20.9395 129.031 20.9824C128.845 21.3405 128.623 21.7344 128.365 22.1641C128.122 22.5794 127.835 22.9733 127.506 23.3457C127.191 23.7038 126.833 24.0046 126.432 24.248C126.045 24.4915 125.608 24.6133 125.121 24.6133C124.691 24.6133 124.312 24.4915 123.982 24.248C123.667 23.9902 123.51 23.625 123.51 23.1523C123.51 22.7943 123.581 22.3431 123.725 21.7988C123.882 21.2546 124.09 20.6816 124.348 20.0801C124.605 19.4642 124.906 18.8555 125.25 18.2539C125.594 17.6523 125.952 17.1081 126.324 16.6211C126.697 16.1341 127.076 15.7402 127.463 15.4395C127.85 15.1243 128.222 14.9668 128.58 14.9668C128.723 14.9668 128.91 14.9954 129.139 15.0527C129.382 15.0957 129.611 15.1673 129.826 15.2676C130.055 15.3678 130.249 15.4824 130.406 15.6113C130.578 15.7402 130.664 15.8906 130.664 16.0625V17.8027L132.061 27.9434C132.061 28.5163 132.046 29.0605 132.018 29.5762C132.003 30.1061 131.91 30.5931 131.738 31.0371C131.581 31.4811 131.323 31.875 130.965 32.2188C130.607 32.5625 130.091 32.8418 129.418 33.0566C129.332 33.0996 129.153 33.1354 128.881 33.1641C128.609 33.1927 128.294 33.2142 127.936 33.2285C127.592 33.2428 127.219 33.2428 126.818 33.2285C126.432 33.2142 126.074 33.1784 125.744 33.1211C125.429 33.0781 125.171 33.0065 124.971 32.9062C124.77 32.806 124.677 32.6699 124.691 32.498ZM128.043 16.8789C127.9 17.0365 127.706 17.2871 127.463 17.6309C127.234 17.9746 126.997 18.3542 126.754 18.7695C126.51 19.1849 126.267 19.6217 126.023 20.0801C125.794 20.5241 125.608 20.9395 125.465 21.3262C125.322 21.7129 125.229 22.0423 125.186 22.3145C125.157 22.5866 125.221 22.7513 125.379 22.8086C125.68 22.651 126.002 22.3932 126.346 22.0352C126.689 21.6628 127.012 21.2546 127.312 20.8105C127.628 20.3522 127.9 19.8867 128.129 19.4141C128.372 18.9271 128.537 18.4902 128.623 18.1035C128.723 17.7168 128.73 17.4089 128.645 17.1797C128.573 16.9362 128.372 16.8359 128.043 16.8789Z" fill="black"/>
<defs>
<filter id="filter0_i_4585_2690" x="1.95215" y="1.96155" width="146.593" height="33.5385" filterUnits="userSpaceOnUse" color-interpolation-filters="sRGB">
<feFlood flood-opacity="0" result="BackgroundImageFix"/>
<feBlend mode="normal" in="SourceGraphic" in2="BackgroundImageFix" result="shape"/>
<feColorMatrix in="SourceAlpha" type="matrix" values="0 0 0 0 0 0 0 0 0 0 0 0 0 0 0 0 0 0 127 0" result="hardAlpha"/>
<feOffset dx="4" dy="4"/>
<feComposite in2="hardAlpha" operator="arithmetic" k2="-1" k3="1"/>
<feColorMatrix type="matrix" values="0 0 0 0 0.694118 0 0 0 0 0.721569 0 0 0 0 0.741176 0 0 0 1 0"/>
<feBlend mode="multiply" in2="shape" result="effect1_innerShadow_4585_2690"/>
</filter>
</defs>
</svg>
