<svg width="86" height="37" viewBox="0 0 86 37" fill="none" xmlns="http://www.w3.org/2000/svg">
<g filter="url(#filter0_i_4585_2588)">
<path d="M80.0216 7.61228C83.541 11.6933 83.541 20.3656 83.541 20.3656C83.7307 28.2124 77.2761 34.5 69.0197 34.5C69.0198 31.5523 69.0195 2.00081 69.0195 2.00081C72.1629 1.66061 76.5022 3.53121 80.0216 7.61228Z" fill="white"/>
<path d="M18.7676 2H69.0195V34.5C69.0195 34.5 61.5655 34.2049 53.3293 34.5C48.7335 34.6647 39.0845 35.5 35.633 35.5C25.9956 35.5 18.7676 34.5 18.7676 34.5V2Z" fill="white"/>
<path d="M5.14517 27.9432C0.335274 22.3612 1.47845 11.5 5.14549 8C8.81252 4.5 8.60485 4.5 11.9565 3.5C15.3082 2.5 18.7674 2 18.7674 2V34.5C13.1929 34.5 9.95507 33.5252 5.14517 27.9432Z" fill="white"/>
</g>
<path d="M18.7676 34.5C26.9001 34.5 26.6226 35 34.7508 35C42.8834 35 43.8633 34.4063 51.9959 34.4063C60.1284 34.4063 57.7435 34 65.8761 34" stroke="black" stroke-width="3" stroke-miterlimit="10" stroke-linecap="round" stroke-linejoin="round"/>
<path d="M2.00244 17.5C2.00244 7 9.6485 2 18.555 2C11.2202 2 2.52635 8 2.52635 17.5C2.52635 31.5 14.5763 34.5 18.2437 34.5C10.385 34.5 2.00244 28 2.00244 17.5Z" stroke="black" stroke-width="3" stroke-linecap="round" stroke-linejoin="round"/>
<path d="M84 19C84 29.5 74.7824 34 65.8759 34C73.2107 34 82.33 30.5 83.165 20.5C84.3303 6.54422 73.7346 2 67.7587 1.99999C75.6174 2 84 8.49998 84 19Z" stroke="black" stroke-width="3" stroke-linecap="round" stroke-linejoin="round"/>
<path d="M18.7676 2C27.0403 2 26.1846 2 34.4529 2C42.7257 2 42.7509 1.5 51.0236 1.5C59.2963 1.5 59.699 2.00001 67.9717 2.00001" stroke="black" stroke-width="3" stroke-miterlimit="10" stroke-linecap="round" stroke-linejoin="round"/>
<path d="M21.0293 24.3125C21.0293 24.1836 21.0723 24.069 21.1582 23.9688C21.2585 23.8685 21.3086 23.7611 21.3086 23.6465C21.3086 23.6178 21.2799 23.582 21.2227 23.5391C21.1654 23.4961 21.1296 23.4674 21.1152 23.4531C20.972 23.2383 20.8932 22.9948 20.8789 22.7227C20.8646 22.4505 20.8574 22.1927 20.8574 21.9492C20.8574 20.6315 20.8646 19.3281 20.8789 18.0391C20.8932 16.75 20.9004 15.4466 20.9004 14.1289C20.7572 14.1289 20.6211 14.1647 20.4922 14.2363C20.3633 14.2936 20.2272 14.3652 20.084 14.4512C19.9408 14.5228 19.7904 14.5944 19.6328 14.666C19.4753 14.7233 19.3034 14.752 19.1172 14.752H18.7734C18.7448 14.709 18.6732 14.6732 18.5586 14.6445C18.444 14.6016 18.3867 14.5514 18.3867 14.4941V13.8496C18.4583 13.8066 18.5156 13.7493 18.5586 13.6777C18.6159 13.5918 18.6589 13.5202 18.6875 13.4629L20.8574 12.3887L20.9434 12.2812C20.9147 11.8802 20.9362 11.5579 21.0078 11.3145C21.0794 11.071 21.3301 10.9492 21.7598 10.9492C21.8743 10.9492 21.9961 10.9707 22.125 11.0137C22.2682 11.0566 22.3971 11.1139 22.5117 11.1855C22.6406 11.2572 22.7337 11.3503 22.791 11.4648C22.8626 11.5794 22.8841 11.7083 22.8555 11.8516C23.5716 11.8802 24.2806 11.9375 24.9824 12.0234C25.6842 12.0951 26.3145 12.2669 26.873 12.5391C27.4316 12.7969 27.8828 13.1836 28.2266 13.6992C28.5846 14.2148 28.7637 14.9238 28.7637 15.8262C28.7637 16.6426 28.6061 17.459 28.291 18.2754C27.9759 19.0918 27.5247 19.7936 26.9375 20.3809L22.8555 24.4414C22.6549 24.6419 22.4831 24.7852 22.3398 24.8711C22.2109 24.957 22.0176 25 21.7598 25C21.5449 25 21.3659 24.9427 21.2227 24.8281C21.0938 24.6992 21.0293 24.5273 21.0293 24.3125ZM22.8555 22.3789H22.7695L22.9414 22.2715C22.9557 22.2572 23.0059 22.2142 23.0918 22.1426C23.1921 22.0566 23.2995 21.9635 23.4141 21.8633C23.5286 21.7487 23.6432 21.6413 23.7578 21.541C23.8724 21.4408 23.9655 21.3548 24.0371 21.2832C24.3665 20.9395 24.7103 20.5742 25.0684 20.1875C25.4408 19.8008 25.7773 19.3926 26.0781 18.9629C26.3789 18.5189 26.6224 18.0605 26.8086 17.5879C27.0091 17.1009 27.1094 16.5924 27.1094 16.0625C27.1094 15.5612 27.0163 15.1387 26.8301 14.7949C26.6439 14.4368 26.3932 14.1504 26.0781 13.9355C25.7773 13.7064 25.4193 13.5417 25.0039 13.4414C24.5885 13.3411 24.1445 13.291 23.6719 13.291C23.6289 13.291 23.5 13.3053 23.2852 13.334C23.0846 13.3483 22.9414 13.3913 22.8555 13.4629V22.3789ZM26.7441 28.5449C26.7441 28.1296 26.7871 27.8288 26.873 27.6426C26.959 27.4707 27.0664 27.3776 27.1953 27.3633C27.3242 27.3633 27.4746 27.4206 27.6465 27.5352C27.804 27.6497 27.9831 27.7786 28.1836 27.9219C28.3698 28.0651 28.5632 28.2012 28.7637 28.3301C28.9499 28.4733 29.1361 28.5592 29.3223 28.5879C29.7233 28.5879 30.0527 28.4447 30.3105 28.1582C30.5684 27.8861 30.7689 27.5495 30.9121 27.1484C31.0697 26.7617 31.1699 26.3535 31.2129 25.9238C31.2702 25.4941 31.2988 25.1361 31.2988 24.8496C31.2988 24.821 31.2988 24.778 31.2988 24.7207C31.2988 24.6491 31.2845 24.5059 31.2559 24.291C31.2415 24.0762 31.2201 23.7611 31.1914 23.3457C31.1628 22.916 31.1126 22.3431 31.041 21.627C30.9837 20.9108 30.9049 20.0156 30.8047 18.9414C30.7188 17.8529 30.6042 16.5352 30.4609 14.9883C30.4609 14.7734 30.5111 14.5944 30.6113 14.4512C30.7259 14.3079 30.8978 14.2363 31.127 14.2363C31.4134 14.2363 31.6497 14.2793 31.8359 14.3652C32.0221 14.4368 32.194 14.6087 32.3516 14.8809C32.3516 15.0527 32.3587 15.2461 32.373 15.4609C32.3874 15.6615 32.4089 15.9264 32.4375 16.2559C32.4661 16.571 32.502 16.972 32.5449 17.459C32.6022 17.9316 32.6595 18.5189 32.7168 19.2207C32.7884 19.9082 32.86 20.7389 32.9316 21.7129C33.0176 22.6725 33.1035 23.7969 33.1895 25.0859C33.1895 25.5586 33.1465 26.0456 33.0605 26.5469C32.9889 27.0482 32.8529 27.5208 32.6523 27.9648C32.4518 28.4232 32.1797 28.8242 31.8359 29.168C31.4922 29.526 31.0625 29.7839 30.5469 29.9414C30.4609 29.9128 30.375 29.9199 30.2891 29.9629C30.2031 30.0059 30.1172 30.0273 30.0312 30.0273C29.7448 30.0273 29.4368 29.9987 29.1074 29.9414C28.778 29.8841 28.4557 29.7982 28.1406 29.6836C27.8255 29.569 27.5462 29.4115 27.3027 29.2109C27.0449 29.0247 26.8587 28.8027 26.7441 28.5449ZM29.4512 9.35938C29.4512 9.13021 29.5371 8.97982 29.709 8.9082C29.8952 8.82227 30.0742 8.7793 30.2461 8.7793C30.5182 8.7793 30.776 8.85807 31.0195 9.01562C31.263 9.17318 31.3848 9.41667 31.3848 9.74609C31.3848 9.93229 31.2845 10.0684 31.084 10.1543C30.8978 10.2259 30.7331 10.2617 30.5898 10.2617C30.4896 10.2617 30.375 10.2402 30.2461 10.1973C30.1172 10.14 29.9883 10.0684 29.8594 9.98242C29.7448 9.89648 29.6445 9.80339 29.5586 9.70312C29.487 9.58854 29.4512 9.47396 29.4512 9.35938ZM39.0547 19.0059C38.9258 19.235 38.7754 19.5143 38.6035 19.8438C38.446 20.1589 38.2741 20.5026 38.0879 20.875C37.9017 21.2331 37.694 21.5983 37.4648 21.9707C37.25 22.3288 37.0208 22.6582 36.7773 22.959C36.5482 23.2598 36.3047 23.5176 36.0469 23.7324C35.7891 23.9329 35.5241 24.0547 35.252 24.0977C35.1374 24.0977 35.0085 24.0905 34.8652 24.0762C34.722 24.0475 34.5788 24.0117 34.4355 23.9688C34.2923 23.9115 34.1706 23.8398 34.0703 23.7539C33.9844 23.6536 33.9414 23.5247 33.9414 23.3672C33.9557 21.9062 34.0632 20.5814 34.2637 19.3926C34.4642 18.1895 34.7793 17.1367 35.209 16.2344C35.6387 15.3177 36.1901 14.5586 36.8633 13.957C37.5365 13.3555 38.3529 12.9258 39.3125 12.668C39.3411 12.668 39.3913 12.668 39.4629 12.668C39.5488 12.6536 39.6061 12.6465 39.6348 12.6465C40.0645 12.6322 40.3724 12.8327 40.5586 13.248C40.7591 13.6491 40.9023 14.2936 40.9883 15.1816C41.0885 16.0553 41.153 17.1868 41.1816 18.5762C41.2246 19.9512 41.3034 21.6055 41.418 23.5391C41.4609 23.6966 41.4824 23.8327 41.4824 23.9473C41.4967 24.0618 41.5039 24.1979 41.5039 24.3555C41.5039 24.5703 41.4395 24.735 41.3105 24.8496C41.1816 24.9499 41.0169 25 40.8164 25C40.401 25 40.1074 24.8854 39.9355 24.6562C39.7637 24.4271 39.6491 24.1191 39.5918 23.7324C39.5918 23.7181 39.5775 23.6035 39.5488 23.3887C39.5345 23.1738 39.5059 22.9303 39.4629 22.6582C39.4342 22.3717 39.4056 22.0853 39.377 21.7988C39.3483 21.5124 39.3268 21.276 39.3125 21.0898V21.0039C39.2839 20.8607 39.2624 20.6816 39.248 20.4668C39.248 20.252 39.2337 20.0443 39.2051 19.8438C39.1764 19.6003 39.1549 19.3568 39.1406 19.1133L39.0547 19.0059ZM38.582 14.752C38.1953 15.0384 37.8158 15.4251 37.4434 15.9121C37.071 16.3991 36.806 16.8717 36.6484 17.3301C36.5768 17.5449 36.498 17.8385 36.4121 18.2109C36.3262 18.5833 36.2474 18.9557 36.1758 19.3281C36.1185 19.6862 36.0684 20.0228 36.0254 20.3379C35.9824 20.6387 35.9609 20.832 35.9609 20.918C35.9753 20.918 35.9896 20.9036 36.0039 20.875C36.0326 20.8464 36.054 20.8249 36.0684 20.8105C36.9564 19.9512 37.5794 19.0273 37.9375 18.0391C38.3099 17.0365 38.5247 15.9408 38.582 14.752ZM48.7441 24.2695C48.5436 23.9831 48.3717 23.5892 48.2285 23.0879C48.0996 22.5723 47.9707 22.0352 47.8418 21.4766C47.7272 20.9036 47.6198 20.3522 47.5195 19.8223C47.4193 19.278 47.3118 18.8483 47.1973 18.5332C47.097 18.2038 46.9824 18.0176 46.8535 17.9746C46.7246 17.9316 46.5742 18.125 46.4023 18.5547L44.5332 24.3125C44.4616 24.513 44.3757 24.6562 44.2754 24.7422C44.1751 24.8138 44.0104 24.8496 43.7812 24.8496C43.6667 24.8496 43.5449 24.8353 43.416 24.8066C43.2871 24.7637 43.1654 24.7064 43.0508 24.6348C42.9362 24.5632 42.8359 24.4772 42.75 24.377C42.6784 24.2767 42.6354 24.1621 42.6211 24.0332C42.6641 23.8613 42.6999 23.5462 42.7285 23.0879C42.7715 22.6296 42.8001 22.0996 42.8145 21.498C42.8288 20.8965 42.8359 20.2663 42.8359 19.6074C42.8503 18.9342 42.8503 18.3112 42.8359 17.7383C42.8359 17.151 42.8288 16.6497 42.8145 16.2344C42.8001 15.8047 42.7858 15.5254 42.7715 15.3965C42.7715 15.2533 42.7715 15.11 42.7715 14.9668C42.7858 14.8092 42.8073 14.666 42.8359 14.5371C42.8789 14.4082 42.9434 14.3079 43.0293 14.2363C43.1296 14.1504 43.2799 14.1074 43.4805 14.1074C43.7526 14.1074 44.0033 14.222 44.2324 14.4512C44.4759 14.6803 44.5977 14.9238 44.5977 15.1816C44.5977 15.554 44.5762 15.9264 44.5332 16.2988C44.5046 16.6569 44.4902 17.0221 44.4902 17.3945C44.4902 17.6237 44.4902 17.8171 44.4902 17.9746C44.4902 18.1322 44.5189 18.3255 44.5762 18.5547C44.6191 18.4401 44.6908 18.2396 44.791 17.9531C44.8913 17.6667 44.9987 17.3659 45.1133 17.0508C45.2422 16.7357 45.3568 16.4421 45.457 16.1699C45.5573 15.8835 45.6289 15.6829 45.6719 15.5684C45.7721 15.2819 45.9225 15.0098 46.123 14.752C46.3236 14.4798 46.5885 14.3294 46.918 14.3008C47.1328 14.2865 47.3262 14.3438 47.498 14.4727C47.6842 14.6016 47.8418 14.7734 47.9707 14.9883C48.0996 15.1888 48.207 15.4036 48.293 15.6328C48.3789 15.8477 48.4434 16.0339 48.4863 16.1914L49.6465 21.541L50.5488 23.9902C50.5632 24.0046 50.5703 24.0475 50.5703 24.1191C50.5703 24.1764 50.5703 24.2194 50.5703 24.248C50.5703 24.4199 50.5273 24.5918 50.4414 24.7637C50.3698 24.9212 50.2337 25 50.0332 25C49.7897 25 49.5391 24.9355 49.2812 24.8066C49.0234 24.6634 48.8444 24.4844 48.7441 24.2695ZM52.5684 32.498C52.5111 32.3405 52.5111 32.1615 52.5684 31.9609C52.64 31.7604 52.776 31.6315 52.9766 31.5742C53.306 31.7174 53.6497 31.8105 54.0078 31.8535C54.3659 31.8965 54.724 31.9036 55.082 31.875C55.4544 31.8464 55.8197 31.7891 56.1777 31.7031C56.5358 31.6172 56.8796 31.5169 57.209 31.4023C57.5384 31.1302 57.7676 30.7721 57.8965 30.3281C58.0254 29.8984 58.0755 29.304 58.0469 28.5449C58.0182 27.8001 57.918 26.862 57.7461 25.7305C57.5885 24.6133 57.3809 23.2383 57.123 21.6055C57.123 21.5625 57.123 21.498 57.123 21.4121C57.1374 21.3262 57.1374 21.2474 57.123 21.1758C57.1087 21.0898 57.0801 21.0254 57.0371 20.9824C57.0085 20.9395 56.9655 20.9395 56.9082 20.9824C56.722 21.3405 56.5 21.7344 56.2422 22.1641C55.9987 22.5794 55.7122 22.9733 55.3828 23.3457C55.0677 23.7038 54.7096 24.0046 54.3086 24.248C53.9219 24.4915 53.485 24.6133 52.998 24.6133C52.5684 24.6133 52.1888 24.4915 51.8594 24.248C51.5443 23.9902 51.3867 23.625 51.3867 23.1523C51.3867 22.7943 51.4583 22.3431 51.6016 21.7988C51.7591 21.2546 51.9668 20.6816 52.2246 20.0801C52.4824 19.4642 52.7832 18.8555 53.127 18.2539C53.4707 17.6523 53.8288 17.1081 54.2012 16.6211C54.5736 16.1341 54.9531 15.7402 55.3398 15.4395C55.7266 15.1243 56.099 14.9668 56.457 14.9668C56.6003 14.9668 56.7865 14.9954 57.0156 15.0527C57.2591 15.0957 57.4883 15.1673 57.7031 15.2676C57.9323 15.3678 58.1257 15.4824 58.2832 15.6113C58.4551 15.7402 58.541 15.8906 58.541 16.0625V17.8027L59.9375 27.9434C59.9375 28.5163 59.9232 29.0605 59.8945 29.5762C59.8802 30.1061 59.7871 30.5931 59.6152 31.0371C59.4577 31.4811 59.1999 31.875 58.8418 32.2188C58.4837 32.5625 57.9681 32.8418 57.2949 33.0566C57.209 33.0996 57.0299 33.1354 56.7578 33.1641C56.4857 33.1927 56.1706 33.2142 55.8125 33.2285C55.4688 33.2428 55.0964 33.2428 54.6953 33.2285C54.3086 33.2142 53.9505 33.1784 53.6211 33.1211C53.306 33.0781 53.0482 33.0065 52.8477 32.9062C52.6471 32.806 52.554 32.6699 52.5684 32.498ZM55.9199 16.8789C55.7767 17.0365 55.5833 17.2871 55.3398 17.6309C55.1107 17.9746 54.8743 18.3542 54.6309 18.7695C54.3874 19.1849 54.1439 19.6217 53.9004 20.0801C53.6712 20.5241 53.485 20.9395 53.3418 21.3262C53.1986 21.7129 53.1055 22.0423 53.0625 22.3145C53.0339 22.5866 53.0983 22.7513 53.2559 22.8086C53.5566 22.651 53.8789 22.3932 54.2227 22.0352C54.5664 21.6628 54.8887 21.2546 55.1895 20.8105C55.5046 20.3522 55.7767 19.8867 56.0059 19.4141C56.2493 18.9271 56.4141 18.4902 56.5 18.1035C56.6003 17.7168 56.6074 17.4089 56.5215 17.1797C56.4499 16.9362 56.2493 16.8359 55.9199 16.8789ZM60.5176 21.7129L61.3125 16.1914C61.3411 16.0052 61.4199 15.8691 61.5488 15.7832C61.6921 15.6973 61.8496 15.6543 62.0215 15.6543C62.3366 15.6543 62.5872 15.7474 62.7734 15.9336C62.9596 16.1055 63.1172 16.3203 63.2461 16.5781H63.2676C63.4395 16.5781 63.5898 16.5495 63.7188 16.4922C63.862 16.4206 64.0339 16.3848 64.2344 16.3848C64.6927 16.3848 65.0794 16.528 65.3945 16.8145C65.724 17.1009 65.9889 17.4518 66.1895 17.8672C66.39 18.2682 66.5332 18.7051 66.6191 19.1777C66.7194 19.6504 66.7695 20.0658 66.7695 20.4238C66.7695 20.8535 66.6549 21.3333 66.4258 21.8633C66.2109 22.3932 65.9173 22.8945 65.5449 23.3672C65.1868 23.8398 64.7786 24.2337 64.3203 24.5488C63.862 24.8639 63.3965 25.0215 62.9238 25.0215C62.4941 25.0215 62.1217 24.9212 61.8066 24.7207C61.5059 24.5202 61.2552 24.2695 61.0547 23.9688C60.8685 23.6536 60.7324 23.3027 60.6465 22.916C60.5605 22.5293 60.5176 22.1497 60.5176 21.7773V21.7129ZM62.3223 21.8418C62.3509 21.985 62.3796 22.1497 62.4082 22.3359C62.4368 22.5221 62.4798 22.694 62.5371 22.8516C62.5944 22.9948 62.6732 23.1094 62.7734 23.1953C62.888 23.2669 63.0456 23.2669 63.2461 23.1953C63.4323 23.0234 63.6328 22.8301 63.8477 22.6152C64.0625 22.4004 64.263 22.1712 64.4492 21.9277C64.6497 21.6842 64.8145 21.4264 64.9434 21.1543C65.0723 20.8822 65.1367 20.5957 65.1367 20.2949C65.194 19.8079 65.1582 19.3639 65.0293 18.9629C64.9004 18.5475 64.7142 18.2539 64.4707 18.082C64.2415 17.8958 63.9766 17.8743 63.6758 18.0176C63.375 18.1465 63.0742 18.5117 62.7734 19.1133C62.6016 19.4857 62.4798 19.9225 62.4082 20.4238C62.3509 20.9108 62.3223 21.362 62.3223 21.7773V21.8418Z" fill="black"/>
<defs>
<filter id="filter0_i_4585_2588" x="1.95215" y="1.96155" width="81.5928" height="33.5385" filterUnits="userSpaceOnUse" color-interpolation-filters="sRGB">
<feFlood flood-opacity="0" result="BackgroundImageFix"/>
<feBlend mode="normal" in="SourceGraphic" in2="BackgroundImageFix" result="shape"/>
<feColorMatrix in="SourceAlpha" type="matrix" values="0 0 0 0 0 0 0 0 0 0 0 0 0 0 0 0 0 0 127 0" result="hardAlpha"/>
<feOffset dx="4" dy="4"/>
<feComposite in2="hardAlpha" operator="arithmetic" k2="-1" k3="1"/>
<feColorMatrix type="matrix" values="0 0 0 0 0.694118 0 0 0 0 0.721569 0 0 0 0 0.741176 0 0 0 1 0"/>
<feBlend mode="multiply" in2="shape" result="effect1_innerShadow_4585_2588"/>
</filter>
</defs>
</svg>
