<svg width="257" height="37" viewBox="0 0 257 37" fill="none" xmlns="http://www.w3.org/2000/svg">
<g filter="url(#filter0_i_4581_2452)">
<path d="M251.022 7.61228C254.541 11.6933 254.541 20.3656 254.541 20.3656C254.731 28.2124 248.276 34.5 240.02 34.5C240.02 31.5523 240.02 2.00081 240.02 2.00081C243.163 1.66061 247.502 3.53121 251.022 7.61228Z" fill="white"/>
<path d="M18.7676 2H240.02V34.5C240.02 34.5 207.201 34.2049 170.938 34.5C150.703 34.6647 108.22 35.5 93.0234 35.5C50.5915 35.5 18.7676 34.5 18.7676 34.5V2Z" fill="white"/>
<path d="M5.14517 27.9432C0.335274 22.3612 1.47845 11.5 5.14549 8C8.81252 4.5 8.60485 4.5 11.9565 3.5C15.3082 2.5 18.7674 2 18.7674 2V34.5C13.1929 34.5 9.95507 33.5252 5.14517 27.9432Z" fill="white"/>
</g>
<path d="M18.7676 34.5C56.4206 34.5 55.1356 35 92.7687 35C130.422 35 134.959 34.4063 172.612 34.4063C210.265 34.4063 199.223 34 236.876 34" stroke="black" stroke-width="3" stroke-miterlimit="10" stroke-linecap="round" stroke-linejoin="round"/>
<path d="M2.00244 17.5C2.00244 7 9.6485 2 18.555 2C11.2202 2 2.52635 8 2.52635 17.5C2.52635 31.5 14.5763 34.5 18.2437 34.5C10.385 34.5 2.00244 28 2.00244 17.5Z" stroke="black" stroke-width="3" stroke-linecap="round" stroke-linejoin="round"/>
<path d="M255 19C255 29.5 245.782 34 236.876 34C244.211 34 253.33 30.5 254.165 20.5C255.33 6.54422 244.735 2 238.759 1.99999C246.617 2 255 8.49998 255 19Z" stroke="black" stroke-width="3" stroke-linecap="round" stroke-linejoin="round"/>
<path d="M18.7676 2C55.7907 2 51.961 2 88.9645 2C125.988 2 126.101 1.5 163.124 1.5C200.147 1.5 201.949 2.00001 238.972 2.00001" stroke="black" stroke-width="3" stroke-miterlimit="10" stroke-linecap="round" stroke-linejoin="round"/>
<path d="M19.6758 24.5273C19.5326 23.9544 19.4251 23.4173 19.3535 22.916C19.2819 22.4004 19.2318 21.8561 19.2031 21.2832C19.1888 20.9538 19.1888 20.6745 19.2031 20.4453C19.2174 20.2018 19.1888 19.9368 19.1172 19.6504C19.1029 19.5931 19.0671 19.5501 19.0098 19.5215C18.9668 19.4928 18.9167 19.457 18.8594 19.4141C18.8164 19.3711 18.7734 19.321 18.7305 19.2637C18.6875 19.1921 18.666 19.0846 18.666 18.9414C18.666 18.8268 18.6875 18.7266 18.7305 18.6406C18.7878 18.5547 18.8379 18.4759 18.8809 18.4043C18.9382 18.3184 18.9883 18.2324 19.0312 18.1465C19.0885 18.0462 19.1172 17.9316 19.1172 17.8027V17.4805C19.1172 17.3372 19.1029 17.0938 19.0742 16.75C19.0456 16.4062 19.0169 16.041 18.9883 15.6543C18.9596 15.2676 18.931 14.9023 18.9023 14.5586C18.888 14.2148 18.8737 13.9785 18.8594 13.8496C18.8451 13.6061 18.7806 13.3913 18.666 13.2051C18.5514 13.0189 18.4941 12.804 18.4941 12.5605C18.4941 12.1022 18.5872 11.7799 18.7734 11.5938C18.9596 11.4076 19.2891 11.3145 19.7617 11.3145C19.862 11.3145 19.9408 11.3574 19.998 11.4434C20.0697 11.5293 20.1484 11.5723 20.2344 11.5723H20.3203C20.3633 11.5579 20.4277 11.5436 20.5137 11.5293C20.5996 11.5007 20.6569 11.4863 20.6855 11.4863C21.8887 10.9707 22.8268 10.5697 23.5 10.2832C24.1732 9.99674 24.6816 9.78906 25.0254 9.66016C25.3691 9.53125 25.5983 9.45964 25.7129 9.44531C25.8418 9.43099 25.9492 9.44531 26.0352 9.48828C26.207 9.51693 26.3216 9.57422 26.3789 9.66016C26.4505 9.73177 26.4863 9.84635 26.4863 10.0039C26.4863 10.1471 26.4648 10.2904 26.4219 10.4336C26.3789 10.5768 26.2786 10.6842 26.1211 10.7559L23.3066 12.1094L23.2207 12.1953L20.8574 13.2051C20.7715 13.2337 20.7214 13.3053 20.707 13.4199C20.6927 13.5345 20.6855 13.6276 20.6855 13.6992C20.6855 13.8138 20.6999 14.0215 20.7285 14.3223C20.7572 14.623 20.7858 14.9382 20.8145 15.2676C20.8431 15.5827 20.8717 15.8691 20.9004 16.127C20.9434 16.3704 20.972 16.4922 20.9863 16.4922H21.0078C21.0078 16.4922 21.015 16.485 21.0293 16.4707C21.1868 16.3561 21.4375 16.1628 21.7812 15.8906C22.125 15.6042 22.4759 15.3177 22.834 15.0312C23.1921 14.7448 23.5072 14.4941 23.7793 14.2793C24.0514 14.0501 24.1947 13.9355 24.209 13.9355C24.3665 13.9355 24.5098 14.0143 24.6387 14.1719C24.7676 14.3294 24.832 14.4941 24.832 14.666C24.832 14.8379 24.7962 15.0312 24.7246 15.2461C24.653 15.4609 24.5384 15.6257 24.3809 15.7402L21.0293 18.7266C21.0293 18.7266 21.0293 18.7624 21.0293 18.834C21.0293 18.9056 21.0221 18.9844 21.0078 19.0703C21.0078 19.1562 21.0078 19.2493 21.0078 19.3496C21.0078 19.4355 21.0078 19.5072 21.0078 19.5645C21.0078 20.0801 21.0436 20.5957 21.1152 21.1113C21.1868 21.6126 21.2227 22.1211 21.2227 22.6367H21.3086C21.3229 22.6367 21.3874 22.5794 21.502 22.4648C21.6165 22.3503 21.7025 22.2572 21.7598 22.1855C21.7884 22.1426 21.8529 22.0495 21.9531 21.9062C22.0677 21.763 22.2539 21.5267 22.5117 21.1973C22.7695 20.8678 23.1133 20.431 23.543 19.8867C23.9727 19.3424 24.5241 18.6549 25.1973 17.8242C25.2546 17.7669 25.3333 17.681 25.4336 17.5664C25.5482 17.4518 25.6198 17.3945 25.6484 17.3945C25.6914 17.3516 25.7773 17.3372 25.9062 17.3516C26.0495 17.3516 26.1497 17.3659 26.207 17.3945C26.2786 17.4232 26.3717 17.502 26.4863 17.6309C26.6009 17.7598 26.6582 17.8815 26.6582 17.9961C26.6582 18.168 26.5651 18.3971 26.3789 18.6836C26.207 18.9557 25.9993 19.2422 25.7559 19.543C25.5124 19.8438 25.2689 20.1374 25.0254 20.4238C24.7819 20.696 24.5957 20.918 24.4668 21.0898C24.2663 21.4049 24.0228 21.7917 23.7363 22.25C23.4642 22.694 23.1634 23.1237 22.834 23.5391C22.5046 23.9401 22.1393 24.291 21.7383 24.5918C21.3516 24.8783 20.9362 25.0215 20.4922 25.0215C20.2773 25.0215 20.1198 24.9857 20.0195 24.9141C19.9336 24.8424 19.819 24.7135 19.6758 24.5273ZM28.4844 20.3594C28.1693 20.4167 27.9186 20.3952 27.7324 20.2949C27.5605 20.1803 27.4388 20.0443 27.3672 19.8867C27.2956 19.7148 27.2598 19.5501 27.2598 19.3926C27.2741 19.2207 27.3099 19.1133 27.3672 19.0703C27.4102 19.056 27.5033 18.9987 27.6465 18.8984C27.804 18.7982 27.8971 18.7337 27.9258 18.7051C27.9401 18.7051 27.9544 18.6979 27.9688 18.6836C27.9974 18.6549 28.0189 18.6335 28.0332 18.6191V18.2324C28.0332 17.4303 27.9831 16.6426 27.8828 15.8691C27.7969 15.0814 27.7539 14.2936 27.7539 13.5059C27.7539 12.9902 27.7611 12.4531 27.7754 11.8945C27.804 11.3359 27.8971 10.8203 28.0547 10.3477C28.2266 9.875 28.4915 9.48828 28.8496 9.1875C29.2077 8.88672 29.7233 8.73633 30.3965 8.73633C30.5111 8.73633 30.6471 8.73633 30.8047 8.73633C30.9622 8.73633 31.1055 8.75781 31.2344 8.80078C31.3776 8.82943 31.4993 8.89388 31.5996 8.99414C31.6999 9.08008 31.75 9.20898 31.75 9.38086C31.75 9.63867 31.6855 9.81055 31.5566 9.89648C31.4421 9.9681 31.2917 10.0182 31.1055 10.0469C30.9193 10.0612 30.7259 10.0898 30.5254 10.1328C30.3249 10.1615 30.153 10.2689 30.0098 10.4551C29.9811 10.4837 29.9453 10.5625 29.9023 10.6914C29.8594 10.806 29.8379 10.8848 29.8379 10.9277C29.8092 11.028 29.7806 11.1641 29.752 11.3359C29.7233 11.5078 29.6947 11.6797 29.666 11.8516C29.6517 12.0234 29.6302 12.181 29.6016 12.3242C29.5872 12.4531 29.5801 12.5247 29.5801 12.5391C29.5801 12.5534 29.5801 12.6107 29.5801 12.7109C29.5801 12.7969 29.5729 12.9043 29.5586 13.0332C29.5586 13.1621 29.5586 13.2982 29.5586 13.4414C29.5586 13.5703 29.5586 13.6777 29.5586 13.7637C29.5586 14.0645 29.5586 14.3438 29.5586 14.6016C29.5586 14.8594 29.5658 15.1172 29.5801 15.375C29.5944 15.6185 29.6159 15.8691 29.6445 16.127C29.6732 16.3848 29.709 16.6712 29.752 16.9863H29.9238L32.8242 15.2676C33.0247 15.2246 33.2038 15.153 33.3613 15.0527C33.5189 14.9525 33.6979 14.9023 33.8984 14.9023C34.099 14.9023 34.3066 14.9525 34.5215 15.0527C34.7363 15.153 34.8438 15.3105 34.8438 15.5254C34.8438 15.6829 34.8079 15.7975 34.7363 15.8691C34.6647 15.9408 34.6074 16.041 34.5645 16.1699C34.5072 16.1842 34.3997 16.2272 34.2422 16.2988C34.0846 16.3704 33.9772 16.4206 33.9199 16.4492C33.8053 16.5208 33.6191 16.6354 33.3613 16.793C33.1178 16.9362 32.86 17.0938 32.5879 17.2656C32.3158 17.4232 32.0651 17.5736 31.8359 17.7168C31.6068 17.86 31.4564 17.9531 31.3848 17.9961C31.2845 18.0677 31.1628 18.1536 31.0195 18.2539C30.8763 18.3542 30.7331 18.4616 30.5898 18.5762C30.4609 18.6764 30.3464 18.7695 30.2461 18.8555C30.1458 18.9271 30.0957 18.9629 30.0957 18.9629V19.1777L30.6543 21.0039C30.64 21.0469 30.6328 21.097 30.6328 21.1543C30.6471 21.1973 30.6829 21.2331 30.7402 21.2617L31.75 24.334C31.8216 24.5918 31.7643 24.8066 31.5781 24.9785C31.4062 25.1504 31.2057 25.2363 30.9766 25.2363C30.7188 25.2363 30.4681 25.1647 30.2246 25.0215C29.9811 24.8926 29.8236 24.6921 29.752 24.4199L28.5703 20.5312L28.4844 20.3594ZM34.7793 20.3594C34.4642 20.4167 34.2135 20.3952 34.0273 20.2949C33.8555 20.1803 33.7337 20.0443 33.6621 19.8867C33.5905 19.7148 33.5547 19.5501 33.5547 19.3926C33.569 19.2207 33.6048 19.1133 33.6621 19.0703C33.7051 19.056 33.7982 18.9987 33.9414 18.8984C34.099 18.7982 34.1921 18.7337 34.2207 18.7051C34.235 18.7051 34.2493 18.6979 34.2637 18.6836C34.2923 18.6549 34.3138 18.6335 34.3281 18.6191V18.2324C34.3281 17.4303 34.278 16.6426 34.1777 15.8691C34.0918 15.0814 34.0488 14.2936 34.0488 13.5059C34.0488 12.9902 34.056 12.4531 34.0703 11.8945C34.099 11.3359 34.1921 10.8203 34.3496 10.3477C34.5215 9.875 34.7865 9.48828 35.1445 9.1875C35.5026 8.88672 36.0182 8.73633 36.6914 8.73633C36.806 8.73633 36.9421 8.73633 37.0996 8.73633C37.2572 8.73633 37.4004 8.75781 37.5293 8.80078C37.6725 8.82943 37.7943 8.89388 37.8945 8.99414C37.9948 9.08008 38.0449 9.20898 38.0449 9.38086C38.0449 9.63867 37.9805 9.81055 37.8516 9.89648C37.737 9.9681 37.5866 10.0182 37.4004 10.0469C37.2142 10.0612 37.0208 10.0898 36.8203 10.1328C36.6198 10.1615 36.4479 10.2689 36.3047 10.4551C36.276 10.4837 36.2402 10.5625 36.1973 10.6914C36.1543 10.806 36.1328 10.8848 36.1328 10.9277C36.1042 11.028 36.0755 11.1641 36.0469 11.3359C36.0182 11.5078 35.9896 11.6797 35.9609 11.8516C35.9466 12.0234 35.9251 12.181 35.8965 12.3242C35.8822 12.4531 35.875 12.5247 35.875 12.5391C35.875 12.5534 35.875 12.6107 35.875 12.7109C35.875 12.7969 35.8678 12.9043 35.8535 13.0332C35.8535 13.1621 35.8535 13.2982 35.8535 13.4414C35.8535 13.5703 35.8535 13.6777 35.8535 13.7637C35.8535 14.0645 35.8535 14.3438 35.8535 14.6016C35.8535 14.8594 35.8607 15.1172 35.875 15.375C35.8893 15.6185 35.9108 15.8691 35.9395 16.127C35.9681 16.3848 36.0039 16.6712 36.0469 16.9863H36.2188L39.1191 15.2676C39.3197 15.2246 39.4987 15.153 39.6562 15.0527C39.8138 14.9525 39.9928 14.9023 40.1934 14.9023C40.3939 14.9023 40.6016 14.9525 40.8164 15.0527C41.0312 15.153 41.1387 15.3105 41.1387 15.5254C41.1387 15.6829 41.1029 15.7975 41.0312 15.8691C40.9596 15.9408 40.9023 16.041 40.8594 16.1699C40.8021 16.1842 40.6947 16.2272 40.5371 16.2988C40.3796 16.3704 40.2721 16.4206 40.2148 16.4492C40.1003 16.5208 39.9141 16.6354 39.6562 16.793C39.4128 16.9362 39.1549 17.0938 38.8828 17.2656C38.6107 17.4232 38.36 17.5736 38.1309 17.7168C37.9017 17.86 37.7513 17.9531 37.6797 17.9961C37.5794 18.0677 37.4577 18.1536 37.3145 18.2539C37.1712 18.3542 37.028 18.4616 36.8848 18.5762C36.7559 18.6764 36.6413 18.7695 36.541 18.8555C36.4408 18.9271 36.3906 18.9629 36.3906 18.9629V19.1777L36.9492 21.0039C36.9349 21.0469 36.9277 21.097 36.9277 21.1543C36.9421 21.1973 36.9779 21.2331 37.0352 21.2617L38.0449 24.334C38.1165 24.5918 38.0592 24.8066 37.873 24.9785C37.7012 25.1504 37.5007 25.2363 37.2715 25.2363C37.0137 25.2363 36.763 25.1647 36.5195 25.0215C36.276 24.8926 36.1185 24.6921 36.0469 24.4199L34.8652 20.5312L34.7793 20.3594ZM49.1309 18.8984C49.1022 19.1562 49.0664 19.3568 49.0234 19.5C48.9948 19.6432 48.9375 19.7721 48.8516 19.8867C48.7656 20.0013 48.6439 20.123 48.4863 20.252C48.3288 20.3665 48.1139 20.5384 47.8418 20.7676C47.5697 20.9824 47.2331 21.2689 46.832 21.627C46.431 21.985 45.944 22.4505 45.3711 23.0234C45.1419 23.2383 44.9056 23.4603 44.6621 23.6895C44.4186 23.9186 44.1608 24.1263 43.8887 24.3125C43.6309 24.4844 43.3587 24.6276 43.0723 24.7422C42.7858 24.8568 42.485 24.9141 42.1699 24.9141C41.554 24.9141 41.1029 24.7064 40.8164 24.291C40.5299 23.8757 40.3867 23.3958 40.3867 22.8516C40.3867 22.4935 40.3939 22.1927 40.4082 21.9492C40.4368 21.7057 40.4941 21.3906 40.5801 21.0039C40.4225 20.8607 40.2865 20.7389 40.1719 20.6387C40.0573 20.5241 40 20.3737 40 20.1875C40 20.0156 40.0358 19.901 40.1074 19.8438C40.1934 19.7865 40.2865 19.7507 40.3867 19.7363C40.5013 19.7077 40.6087 19.679 40.709 19.6504C40.8092 19.6217 40.8809 19.5645 40.9238 19.4785C40.9525 19.3926 41.0026 19.235 41.0742 19.0059C41.1602 18.7767 41.2461 18.5404 41.332 18.2969C41.418 18.0391 41.4967 17.8027 41.5684 17.5879C41.6543 17.3587 41.7116 17.2012 41.7402 17.1152C41.8405 16.8717 41.9479 16.6283 42.0625 16.3848C42.1914 16.127 42.3346 15.8978 42.4922 15.6973C42.6641 15.4967 42.8574 15.332 43.0723 15.2031C43.3014 15.0742 43.5664 15.0098 43.8672 15.0098C44.0391 15.0098 44.2467 15.0885 44.4902 15.2461C44.748 15.4036 44.9915 15.597 45.2207 15.8262C45.4499 16.041 45.6432 16.2702 45.8008 16.5137C45.9583 16.7572 46.0371 16.9648 46.0371 17.1367C46.0371 17.3516 45.987 17.5521 45.8867 17.7383C45.7865 17.9102 45.6576 18.0749 45.5 18.2324C45.3568 18.3757 45.1992 18.5117 45.0273 18.6406C44.8555 18.7695 44.6979 18.8913 44.5547 19.0059C44.5404 19.0059 44.5117 19.0202 44.4688 19.0488C44.4258 19.0775 44.39 19.099 44.3613 19.1133C44.347 19.1276 44.3112 19.1634 44.2539 19.2207C44.2109 19.2637 44.1608 19.3138 44.1035 19.3711C44.0462 19.4284 43.9889 19.4857 43.9316 19.543C43.8887 19.6003 43.86 19.6361 43.8457 19.6504C43.8027 19.6934 43.7168 19.765 43.5879 19.8652C43.4733 19.9512 43.3444 20.0514 43.2012 20.166C43.0579 20.2663 42.9219 20.3665 42.793 20.4668C42.6784 20.5527 42.5996 20.61 42.5566 20.6387L42.4707 20.8105C42.4421 20.8678 42.4134 20.9967 42.3848 21.1973C42.3704 21.3835 42.349 21.5983 42.3203 21.8418C42.2917 22.0853 42.263 22.3359 42.2344 22.5938C42.2201 22.8372 42.2129 23.0378 42.2129 23.1953C42.2129 23.2096 42.2201 23.224 42.2344 23.2383C42.263 23.2669 42.2845 23.2812 42.2988 23.2812C42.4134 23.2812 42.5208 23.2311 42.6211 23.1309C42.7214 23.0306 42.8288 22.959 42.9434 22.916L46.3809 19.7363L47.2617 18.3828C47.3333 18.2826 47.4694 18.1751 47.6699 18.0605C47.8848 17.9316 48.0996 17.8672 48.3145 17.8672C48.5293 17.8529 48.7155 17.9173 48.873 18.0605C49.0449 18.2038 49.1309 18.4831 49.1309 18.8984ZM44.4043 17.2227C44.4759 17.1654 44.5046 17.0794 44.4902 16.9648C44.4759 16.8503 44.4329 16.75 44.3613 16.6641C44.304 16.5781 44.2253 16.528 44.125 16.5137C44.0247 16.485 43.9316 16.5352 43.8457 16.6641C43.8027 16.7214 43.724 16.8359 43.6094 17.0078C43.5091 17.1797 43.4017 17.3587 43.2871 17.5449C43.1868 17.7168 43.1009 17.8672 43.0293 17.9961C42.9577 18.125 42.9434 18.1751 42.9863 18.1465L44.4043 17.2227ZM49.7109 22.4219C49.6107 21.9922 49.6107 21.4837 49.7109 20.8965C49.8255 20.3092 49.9974 19.722 50.2266 19.1348C50.4701 18.5332 50.7637 17.9674 51.1074 17.4375C51.4655 16.9076 51.8379 16.485 52.2246 16.1699C52.6257 15.8548 53.0267 15.6829 53.4277 15.6543C53.8431 15.6113 54.237 15.7904 54.6094 16.1914C54.6094 16.2057 54.6165 16.2415 54.6309 16.2988C54.6452 16.3561 54.6595 16.4779 54.6738 16.6641C54.6882 16.8359 54.6953 17.0866 54.6953 17.416C54.7096 17.7311 54.7168 18.168 54.7168 18.7266C54.7311 18.7552 54.7454 18.8053 54.7598 18.877C54.7884 18.9342 54.8027 18.9772 54.8027 19.0059C54.7598 19.1634 54.6738 19.3138 54.5449 19.457C54.4303 19.5859 54.2799 19.6504 54.0938 19.6504C53.8503 19.6504 53.6497 19.6146 53.4922 19.543C53.349 19.457 53.2415 19.2637 53.1699 18.9629C53.1986 18.9199 53.2057 18.834 53.1914 18.7051C53.1771 18.5618 53.1484 18.4043 53.1055 18.2324C53.0768 18.0605 53.0482 17.8887 53.0195 17.7168C52.9909 17.5449 52.9766 17.4089 52.9766 17.3086C52.9622 17.3086 52.9408 17.3229 52.9121 17.3516C52.8978 17.3659 52.8835 17.3802 52.8691 17.3945C52.6257 17.8242 52.3965 18.304 52.1816 18.834C51.9811 19.3496 51.8236 19.8796 51.709 20.4238C51.6087 20.9538 51.5729 21.4837 51.6016 22.0137C51.6445 22.5436 51.8021 23.0234 52.0742 23.4531C52.2747 23.4531 52.4609 23.3743 52.6328 23.2168C52.8047 23.0449 52.9479 22.8874 53.0625 22.7441C53.306 22.4577 53.5423 22.1641 53.7715 21.8633C54.015 21.5625 54.237 21.2474 54.4375 20.918C54.5234 20.7747 54.5879 20.6458 54.6309 20.5312C54.6738 20.4167 54.724 20.3236 54.7812 20.252C54.8529 20.1803 54.9388 20.123 55.0391 20.0801C55.1393 20.0371 55.2897 20.0156 55.4902 20.0156C55.7194 20.0156 55.9342 20.0729 56.1348 20.1875C56.3353 20.2878 56.4355 20.4596 56.4355 20.7031C56.4355 21.0326 56.2852 21.4479 55.9844 21.9492C55.6979 22.4362 55.3398 22.9089 54.9102 23.3672C54.4948 23.8255 54.0508 24.2194 53.5781 24.5488C53.1055 24.8639 52.6901 25.0215 52.332 25.0215C51.9883 25.0215 51.6517 24.957 51.3223 24.8281C51.0072 24.6849 50.7279 24.4987 50.4844 24.2695C50.2552 24.0404 50.069 23.7682 49.9258 23.4531C49.7826 23.138 49.7109 22.7943 49.7109 22.4219ZM59.3789 18.7266C59.1784 18.7266 58.9993 18.7767 58.8418 18.877C58.6842 18.9772 58.498 19.0273 58.2832 19.0273C58.2546 19.0273 58.1758 19.0273 58.0469 19.0273C57.9323 19.013 57.8607 19.0059 57.832 19.0059C57.7747 18.9342 57.7103 18.877 57.6387 18.834C57.5671 18.791 57.4954 18.748 57.4238 18.7051C57.3522 18.6478 57.2878 18.5833 57.2305 18.5117C57.1875 18.4401 57.166 18.3398 57.166 18.2109C57.166 17.9961 57.252 17.8242 57.4238 17.6953C57.5957 17.5521 57.7962 17.4303 58.0254 17.3301C58.2546 17.2298 58.4837 17.1367 58.7129 17.0508C58.9564 16.9648 59.1497 16.8646 59.293 16.75V15.8047C59.293 14.7448 59.2428 13.6849 59.1426 12.625C59.0423 11.5508 58.9922 10.4909 58.9922 9.44531C58.9922 9.15885 59.0638 8.97266 59.207 8.88672C59.3503 8.80078 59.5436 8.75781 59.7871 8.75781C60.0736 8.75781 60.2812 8.84375 60.4102 9.01562C60.5534 9.17318 60.6536 9.3737 60.7109 9.61719C60.7682 9.84635 60.7969 10.097 60.7969 10.3691C60.7969 10.627 60.804 10.849 60.8184 11.0352C60.8184 11.2214 60.8327 11.5508 60.8613 12.0234C60.89 12.4961 60.9186 12.9974 60.9473 13.5273C60.9759 14.0573 61.0046 14.5586 61.0332 15.0312C61.0618 15.5039 61.0833 15.8333 61.0977 16.0195C61.1549 16.0052 61.2624 15.9694 61.4199 15.9121C61.5918 15.8405 61.7708 15.776 61.957 15.7188C62.1432 15.6471 62.3151 15.5827 62.4727 15.5254C62.6445 15.4681 62.7663 15.4251 62.8379 15.3965C63.2103 15.2389 63.597 15.0671 63.998 14.8809C64.3991 14.6803 64.8073 14.5801 65.2227 14.5801C65.5091 14.5801 65.724 14.6803 65.8672 14.8809C66.0247 15.0671 66.1035 15.2891 66.1035 15.5469C66.1035 15.7331 66.0319 15.8691 65.8887 15.9551C65.7454 16.041 65.5951 16.1198 65.4375 16.1914L61.5273 17.6523C61.4844 17.681 61.4414 17.7096 61.3984 17.7383C61.3555 17.7526 61.3125 17.7812 61.2695 17.8242V18.5117C61.2695 19.013 61.2767 19.5358 61.291 20.0801C61.3197 20.61 61.3698 21.1257 61.4414 21.627C61.513 22.0566 61.5918 22.4792 61.6777 22.8945C61.7637 23.3099 61.8066 23.7324 61.8066 24.1621C61.8066 24.291 61.7637 24.4629 61.6777 24.6777C61.5918 24.8926 61.4557 25 61.2695 25C60.8828 25 60.5677 24.8854 60.3242 24.6562C60.0807 24.4271 59.9447 24.1191 59.916 23.7324C59.8444 22.9876 59.7656 22.1712 59.6797 21.2832C59.6081 20.3952 59.5365 19.543 59.4648 18.7266H59.3789ZM67.8008 24.1836C67.6576 22.7513 67.5358 21.5267 67.4355 20.5098C67.3353 19.4928 67.2493 18.6406 67.1777 17.9531C67.1061 17.2656 67.0417 16.7214 66.9844 16.3203C66.9414 15.9049 66.9056 15.597 66.877 15.3965C66.8483 15.1816 66.8268 15.0384 66.8125 14.9668C66.7982 14.8952 66.791 14.8522 66.791 14.8379V14.752C66.791 14.5944 66.8555 14.4655 66.9844 14.3652C67.1276 14.2507 67.2708 14.1934 67.4141 14.1934C67.6289 14.1934 67.8581 14.2292 68.1016 14.3008C68.3594 14.3724 68.5312 14.5228 68.6172 14.752C68.7461 15.4538 68.832 16.1628 68.875 16.8789C68.9323 17.5951 68.9753 18.3112 69.0039 19.0273C69.0469 19.7292 69.097 20.4382 69.1543 21.1543C69.2259 21.8704 69.3477 22.5794 69.5195 23.2812C69.5195 23.3099 69.5267 23.3672 69.541 23.4531C69.5697 23.5391 69.5911 23.6322 69.6055 23.7324C69.6341 23.8327 69.6556 23.9258 69.6699 24.0117C69.6842 24.0977 69.6914 24.1549 69.6914 24.1836V24.2266C69.6914 24.2409 69.6986 24.2552 69.7129 24.2695C69.7129 24.4414 69.6341 24.6133 69.4766 24.7852C69.319 24.957 69.1543 25.0286 68.9824 25C68.9395 24.9857 68.832 24.9642 68.6602 24.9355C68.5026 24.8926 68.3952 24.8568 68.3379 24.8281C68.2949 24.8138 68.2376 24.7852 68.166 24.7422C68.0944 24.6849 68.0228 24.6276 67.9512 24.5703C67.8939 24.513 67.8438 24.4486 67.8008 24.377C67.7578 24.3053 67.7578 24.2409 67.8008 24.1836ZM66.5977 8.52148C66.5977 8.42122 66.6764 8.33529 66.834 8.26367C67.0059 8.17773 67.1348 8.13477 67.2207 8.13477C67.4355 8.13477 67.6719 8.19922 67.9297 8.32812C68.2018 8.44271 68.3379 8.62174 68.3379 8.86523C68.3379 9.10872 68.3021 9.27344 68.2305 9.35938C68.1732 9.44531 68.0228 9.48828 67.7793 9.48828C67.5215 9.48828 67.2565 9.40234 66.9844 9.23047C66.7266 9.05859 66.5977 8.82227 66.5977 8.52148ZM72.7422 21.9277L70.3789 16.1914C70.3646 16.1771 70.3574 16.1628 70.3574 16.1484V16.0625C70.3574 15.9336 70.3932 15.8262 70.4648 15.7402C70.5508 15.64 70.651 15.554 70.7656 15.4824C70.7943 15.4824 70.8516 15.4824 70.9375 15.4824C71.0234 15.4681 71.0807 15.4609 71.1094 15.4609C71.3815 15.4609 71.5749 15.5039 71.6895 15.5898C71.8184 15.6758 71.9831 15.7904 72.1836 15.9336C72.2409 16.1484 72.3125 16.3704 72.3984 16.5996C72.4987 16.8288 72.6133 17.1224 72.7422 17.4805C72.8854 17.8242 73.0645 18.2611 73.2793 18.791C73.4941 19.321 73.7663 19.9941 74.0957 20.8105L74.2031 20.918C74.2461 20.8464 74.2819 20.7533 74.3105 20.6387C74.3535 20.5241 74.418 20.3236 74.5039 20.0371C74.6042 19.7507 74.7402 19.3353 74.9121 18.791C75.084 18.2467 75.3275 17.5091 75.6426 16.5781C75.7572 16.3919 75.8359 16.1771 75.8789 15.9336C75.9219 15.6901 75.972 15.4609 76.0293 15.2461C76.0866 15.0312 76.1725 14.8522 76.2871 14.709C76.416 14.5658 76.6094 14.4941 76.8672 14.4941C77.1107 14.4941 77.347 14.5944 77.5762 14.7949C77.8053 14.9811 77.9199 15.2103 77.9199 15.4824C77.9199 15.6113 77.877 15.7546 77.791 15.9121C77.7051 16.0553 77.6191 16.1771 77.5332 16.2773L74.9121 25H74.7832C74.7259 25 74.64 24.9928 74.5254 24.9785C74.4251 24.9642 74.3177 24.9427 74.2031 24.9141C74.0885 24.8711 73.9883 24.8281 73.9023 24.7852C73.8164 24.7422 73.7663 24.6921 73.752 24.6348L72.7422 22.0137V21.9277ZM87.8242 18.8984C87.7956 19.1562 87.7598 19.3568 87.7168 19.5C87.6882 19.6432 87.6309 19.7721 87.5449 19.8867C87.459 20.0013 87.3372 20.123 87.1797 20.252C87.0221 20.3665 86.8073 20.5384 86.5352 20.7676C86.263 20.9824 85.9264 21.2689 85.5254 21.627C85.1243 21.985 84.6374 22.4505 84.0645 23.0234C83.8353 23.2383 83.599 23.4603 83.3555 23.6895C83.112 23.9186 82.8542 24.1263 82.582 24.3125C82.3242 24.4844 82.0521 24.6276 81.7656 24.7422C81.4792 24.8568 81.1784 24.9141 80.8633 24.9141C80.2474 24.9141 79.7962 24.7064 79.5098 24.291C79.2233 23.8757 79.0801 23.3958 79.0801 22.8516C79.0801 22.4935 79.0872 22.1927 79.1016 21.9492C79.1302 21.7057 79.1875 21.3906 79.2734 21.0039C79.1159 20.8607 78.9798 20.7389 78.8652 20.6387C78.7507 20.5241 78.6934 20.3737 78.6934 20.1875C78.6934 20.0156 78.7292 19.901 78.8008 19.8438C78.8867 19.7865 78.9798 19.7507 79.0801 19.7363C79.1947 19.7077 79.3021 19.679 79.4023 19.6504C79.5026 19.6217 79.5742 19.5645 79.6172 19.4785C79.6458 19.3926 79.696 19.235 79.7676 19.0059C79.8535 18.7767 79.9395 18.5404 80.0254 18.2969C80.1113 18.0391 80.1901 17.8027 80.2617 17.5879C80.3477 17.3587 80.4049 17.2012 80.4336 17.1152C80.5339 16.8717 80.6413 16.6283 80.7559 16.3848C80.8848 16.127 81.028 15.8978 81.1855 15.6973C81.3574 15.4967 81.5508 15.332 81.7656 15.2031C81.9948 15.0742 82.2598 15.0098 82.5605 15.0098C82.7324 15.0098 82.9401 15.0885 83.1836 15.2461C83.4414 15.4036 83.6849 15.597 83.9141 15.8262C84.1432 16.041 84.3366 16.2702 84.4941 16.5137C84.6517 16.7572 84.7305 16.9648 84.7305 17.1367C84.7305 17.3516 84.6803 17.5521 84.5801 17.7383C84.4798 17.9102 84.3509 18.0749 84.1934 18.2324C84.0501 18.3757 83.8926 18.5117 83.7207 18.6406C83.5488 18.7695 83.3913 18.8913 83.248 19.0059C83.2337 19.0059 83.2051 19.0202 83.1621 19.0488C83.1191 19.0775 83.0833 19.099 83.0547 19.1133C83.0404 19.1276 83.0046 19.1634 82.9473 19.2207C82.9043 19.2637 82.8542 19.3138 82.7969 19.3711C82.7396 19.4284 82.6823 19.4857 82.625 19.543C82.582 19.6003 82.5534 19.6361 82.5391 19.6504C82.4961 19.6934 82.4102 19.765 82.2812 19.8652C82.1667 19.9512 82.0378 20.0514 81.8945 20.166C81.7513 20.2663 81.6152 20.3665 81.4863 20.4668C81.3717 20.5527 81.293 20.61 81.25 20.6387L81.1641 20.8105C81.1354 20.8678 81.1068 20.9967 81.0781 21.1973C81.0638 21.3835 81.0423 21.5983 81.0137 21.8418C80.985 22.0853 80.9564 22.3359 80.9277 22.5938C80.9134 22.8372 80.9062 23.0378 80.9062 23.1953C80.9062 23.2096 80.9134 23.224 80.9277 23.2383C80.9564 23.2669 80.9779 23.2812 80.9922 23.2812C81.1068 23.2812 81.2142 23.2311 81.3145 23.1309C81.4147 23.0306 81.5221 22.959 81.6367 22.916L85.0742 19.7363L85.9551 18.3828C86.0267 18.2826 86.1628 18.1751 86.3633 18.0605C86.5781 17.9316 86.793 17.8672 87.0078 17.8672C87.2227 17.8529 87.4089 17.9173 87.5664 18.0605C87.7383 18.2038 87.8242 18.4831 87.8242 18.8984ZM83.0977 17.2227C83.1693 17.1654 83.1979 17.0794 83.1836 16.9648C83.1693 16.8503 83.1263 16.75 83.0547 16.6641C82.9974 16.5781 82.9186 16.528 82.8184 16.5137C82.7181 16.485 82.625 16.5352 82.5391 16.6641C82.4961 16.7214 82.4173 16.8359 82.3027 17.0078C82.2025 17.1797 82.0951 17.3587 81.9805 17.5449C81.8802 17.7168 81.7943 17.8672 81.7227 17.9961C81.651 18.125 81.6367 18.1751 81.6797 18.1465L83.0977 17.2227ZM101.402 15.5684C101.388 15.4538 101.367 15.3105 101.338 15.1387C101.324 14.9525 101.302 14.7806 101.273 14.623C101.259 14.4512 101.245 14.3079 101.23 14.1934C101.216 14.0788 101.209 14.0215 101.209 14.0215H101.037L98.5879 14.752C98.5163 14.8665 98.3945 14.9238 98.2227 14.9238C98.0651 14.9238 97.9434 14.9238 97.8574 14.9238C97.6569 14.9238 97.4492 14.8379 97.2344 14.666C97.0339 14.4798 96.9336 14.2793 96.9336 14.0645C96.9336 13.9069 96.9837 13.7565 97.084 13.6133C97.1986 13.4557 97.3346 13.3483 97.4922 13.291L100.951 12.1953C100.994 12.0378 101.073 11.8802 101.188 11.7227C101.316 11.5508 101.481 11.4648 101.682 11.4648C101.882 11.4648 102.047 11.515 102.176 11.6152C102.319 11.7155 102.477 11.7943 102.648 11.8516C102.777 11.8372 102.992 11.7943 103.293 11.7227C103.594 11.651 103.909 11.5794 104.238 11.5078C104.582 11.4219 104.904 11.3431 105.205 11.2715C105.506 11.1999 105.714 11.1497 105.828 11.1211C106 11.0924 106.129 11.0566 106.215 11.0137C106.301 10.9707 106.437 10.9492 106.623 10.9492C106.867 10.9492 107.117 11.0208 107.375 11.1641C107.633 11.3073 107.762 11.5221 107.762 11.8086C107.762 11.9948 107.697 12.1595 107.568 12.3027C107.439 12.4316 107.282 12.5176 107.096 12.5605L103.014 13.5918V13.7852C103.014 14.2292 103.049 14.666 103.121 15.0957C103.207 15.5254 103.236 15.9551 103.207 16.3848L103.938 23.0234V23.4961C103.938 23.668 103.93 23.847 103.916 24.0332C103.916 24.2051 103.887 24.3626 103.83 24.5059C103.787 24.6491 103.708 24.7708 103.594 24.8711C103.479 24.957 103.307 25 103.078 25C102.906 25 102.72 24.9284 102.52 24.7852C102.333 24.6419 102.233 24.4701 102.219 24.2695L101.402 15.7402V15.5684ZM107.869 24.1836C107.726 22.7513 107.604 21.5267 107.504 20.5098C107.404 19.4928 107.318 18.6406 107.246 17.9531C107.174 17.2656 107.11 16.7214 107.053 16.3203C107.01 15.9049 106.974 15.597 106.945 15.3965C106.917 15.1816 106.895 15.0384 106.881 14.9668C106.867 14.8952 106.859 14.8522 106.859 14.8379V14.752C106.859 14.5944 106.924 14.4655 107.053 14.3652C107.196 14.2507 107.339 14.1934 107.482 14.1934C107.697 14.1934 107.926 14.2292 108.17 14.3008C108.428 14.3724 108.6 14.5228 108.686 14.752C108.814 15.4538 108.9 16.1628 108.943 16.8789C109.001 17.5951 109.044 18.3112 109.072 19.0273C109.115 19.7292 109.165 20.4382 109.223 21.1543C109.294 21.8704 109.416 22.5794 109.588 23.2812C109.588 23.3099 109.595 23.3672 109.609 23.4531C109.638 23.5391 109.66 23.6322 109.674 23.7324C109.702 23.8327 109.724 23.9258 109.738 24.0117C109.753 24.0977 109.76 24.1549 109.76 24.1836V24.2266C109.76 24.2409 109.767 24.2552 109.781 24.2695C109.781 24.4414 109.702 24.6133 109.545 24.7852C109.387 24.957 109.223 25.0286 109.051 25C109.008 24.9857 108.9 24.9642 108.729 24.9355C108.571 24.8926 108.464 24.8568 108.406 24.8281C108.363 24.8138 108.306 24.7852 108.234 24.7422C108.163 24.6849 108.091 24.6276 108.02 24.5703C107.962 24.513 107.912 24.4486 107.869 24.377C107.826 24.3053 107.826 24.2409 107.869 24.1836ZM106.666 8.52148C106.666 8.42122 106.745 8.33529 106.902 8.26367C107.074 8.17773 107.203 8.13477 107.289 8.13477C107.504 8.13477 107.74 8.19922 107.998 8.32812C108.27 8.44271 108.406 8.62174 108.406 8.86523C108.406 9.10872 108.37 9.27344 108.299 9.35938C108.242 9.44531 108.091 9.48828 107.848 9.48828C107.59 9.48828 107.325 9.40234 107.053 9.23047C106.795 9.05859 106.666 8.82227 106.666 8.52148ZM110.898 17.9961C110.87 17.6237 110.834 17.2513 110.791 16.8789C110.762 16.4922 110.712 16.1126 110.641 15.7402C110.641 15.4251 110.741 15.2246 110.941 15.1387C111.156 15.0527 111.385 15.0098 111.629 15.0098H112.059C112.273 15.11 112.424 15.2318 112.51 15.375C112.596 15.5182 112.653 15.6758 112.682 15.8477C112.71 16.0195 112.717 16.1986 112.703 16.3848C112.703 16.571 112.71 16.75 112.725 16.9219C112.739 16.9935 112.746 17.1152 112.746 17.2871C112.746 17.459 112.746 17.638 112.746 17.8242C112.76 18.0104 112.775 18.1823 112.789 18.3398C112.818 18.4974 112.854 18.5977 112.896 18.6406L114.787 15.0957C114.873 14.9382 114.995 14.8092 115.152 14.709C115.324 14.5944 115.51 14.5514 115.711 14.5801C116.026 14.6087 116.262 14.6732 116.42 14.7734C116.577 14.8594 116.685 14.9811 116.742 15.1387C116.814 15.2819 116.85 15.4609 116.85 15.6758C116.864 15.8906 116.878 16.127 116.893 16.3848C116.893 16.4707 116.9 16.6354 116.914 16.8789C116.928 17.1081 116.943 17.3516 116.957 17.6094C116.986 17.8672 117.007 18.1107 117.021 18.3398C117.05 18.569 117.072 18.7266 117.086 18.8125H117.172C117.201 18.7122 117.251 18.5189 117.322 18.2324C117.408 17.946 117.501 17.6452 117.602 17.3301C117.702 17.015 117.795 16.7142 117.881 16.4277C117.967 16.1413 118.031 15.9408 118.074 15.8262C118.089 15.7975 118.117 15.7402 118.16 15.6543C118.203 15.554 118.246 15.4538 118.289 15.3535C118.332 15.2389 118.375 15.1387 118.418 15.0527C118.461 14.9525 118.49 14.8809 118.504 14.8379C118.604 14.6803 118.704 14.6016 118.805 14.6016C118.919 14.5872 119.041 14.5801 119.17 14.5801C119.528 14.5801 119.8 14.6732 119.986 14.8594C120.187 15.0312 120.33 15.2533 120.416 15.5254C120.516 15.7975 120.588 16.0983 120.631 16.4277C120.674 16.7428 120.724 17.0365 120.781 17.3086C120.796 17.3086 120.803 17.3229 120.803 17.3516C120.803 17.3659 120.796 17.3802 120.781 17.3945L121.963 23.6465C122.02 23.7038 122.049 23.7539 122.049 23.7969C122.063 23.8398 122.07 23.8971 122.07 23.9688C122.07 24.1263 121.992 24.2839 121.834 24.4414C121.691 24.5846 121.54 24.6562 121.383 24.6562C121.168 24.6562 120.917 24.5775 120.631 24.4199C120.359 24.2624 120.201 24.0618 120.158 23.8184L119.17 18.7266L119.062 18.5547C119.034 18.6263 118.969 18.834 118.869 19.1777C118.783 19.5072 118.676 19.9297 118.547 20.4453C118.418 20.9466 118.268 21.5124 118.096 22.1426C117.938 22.7728 117.773 23.4173 117.602 24.0762C117.573 24.2051 117.487 24.3053 117.344 24.377C117.215 24.4342 117.1 24.4629 117 24.4629C116.699 24.4629 116.456 24.4271 116.27 24.3555C116.083 24.2839 115.94 24.1764 115.84 24.0332C115.74 23.89 115.668 23.7181 115.625 23.5176C115.582 23.3171 115.546 23.0879 115.518 22.8301C115.518 22.7728 115.503 22.5723 115.475 22.2285C115.446 21.8704 115.41 21.4694 115.367 21.0254C115.339 20.5671 115.303 20.1087 115.26 19.6504C115.217 19.1921 115.188 18.8268 115.174 18.5547C115.174 18.4974 115.174 18.4544 115.174 18.4258C115.174 18.3971 115.174 18.3757 115.174 18.3613C115.174 18.3327 115.167 18.304 115.152 18.2754C115.138 18.2324 115.109 18.168 115.066 18.082L114.443 19.5645L113.455 23.1953L113.24 24.5273C113.226 24.6133 113.183 24.6921 113.111 24.7637C113.054 24.821 112.982 24.8711 112.896 24.9141C112.811 24.9427 112.725 24.9642 112.639 24.9785C112.553 24.9928 112.481 25 112.424 25C112.109 25 111.837 24.8854 111.607 24.6562C111.393 24.4271 111.278 24.1764 111.264 23.9043C111.249 23.804 111.235 23.6107 111.221 23.3242C111.206 23.0234 111.185 22.6725 111.156 22.2715C111.128 21.8704 111.099 21.4479 111.07 21.0039C111.056 20.5599 111.035 20.1374 111.006 19.7363C110.977 19.3353 110.949 18.9844 110.92 18.6836C110.906 18.3828 110.898 18.1823 110.898 18.082V17.9961ZM132.039 18.8984C132.01 19.1562 131.975 19.3568 131.932 19.5C131.903 19.6432 131.846 19.7721 131.76 19.8867C131.674 20.0013 131.552 20.123 131.395 20.252C131.237 20.3665 131.022 20.5384 130.75 20.7676C130.478 20.9824 130.141 21.2689 129.74 21.627C129.339 21.985 128.852 22.4505 128.279 23.0234C128.05 23.2383 127.814 23.4603 127.57 23.6895C127.327 23.9186 127.069 24.1263 126.797 24.3125C126.539 24.4844 126.267 24.6276 125.98 24.7422C125.694 24.8568 125.393 24.9141 125.078 24.9141C124.462 24.9141 124.011 24.7064 123.725 24.291C123.438 23.8757 123.295 23.3958 123.295 22.8516C123.295 22.4935 123.302 22.1927 123.316 21.9492C123.345 21.7057 123.402 21.3906 123.488 21.0039C123.331 20.8607 123.195 20.7389 123.08 20.6387C122.965 20.5241 122.908 20.3737 122.908 20.1875C122.908 20.0156 122.944 19.901 123.016 19.8438C123.102 19.7865 123.195 19.7507 123.295 19.7363C123.41 19.7077 123.517 19.679 123.617 19.6504C123.717 19.6217 123.789 19.5645 123.832 19.4785C123.861 19.3926 123.911 19.235 123.982 19.0059C124.068 18.7767 124.154 18.5404 124.24 18.2969C124.326 18.0391 124.405 17.8027 124.477 17.5879C124.562 17.3587 124.62 17.2012 124.648 17.1152C124.749 16.8717 124.856 16.6283 124.971 16.3848C125.1 16.127 125.243 15.8978 125.4 15.6973C125.572 15.4967 125.766 15.332 125.98 15.2031C126.21 15.0742 126.475 15.0098 126.775 15.0098C126.947 15.0098 127.155 15.0885 127.398 15.2461C127.656 15.4036 127.9 15.597 128.129 15.8262C128.358 16.041 128.551 16.2702 128.709 16.5137C128.867 16.7572 128.945 16.9648 128.945 17.1367C128.945 17.3516 128.895 17.5521 128.795 17.7383C128.695 17.9102 128.566 18.0749 128.408 18.2324C128.265 18.3757 128.107 18.5117 127.936 18.6406C127.764 18.7695 127.606 18.8913 127.463 19.0059C127.449 19.0059 127.42 19.0202 127.377 19.0488C127.334 19.0775 127.298 19.099 127.27 19.1133C127.255 19.1276 127.219 19.1634 127.162 19.2207C127.119 19.2637 127.069 19.3138 127.012 19.3711C126.954 19.4284 126.897 19.4857 126.84 19.543C126.797 19.6003 126.768 19.6361 126.754 19.6504C126.711 19.6934 126.625 19.765 126.496 19.8652C126.382 19.9512 126.253 20.0514 126.109 20.166C125.966 20.2663 125.83 20.3665 125.701 20.4668C125.587 20.5527 125.508 20.61 125.465 20.6387L125.379 20.8105C125.35 20.8678 125.322 20.9967 125.293 21.1973C125.279 21.3835 125.257 21.5983 125.229 21.8418C125.2 22.0853 125.171 22.3359 125.143 22.5938C125.128 22.8372 125.121 23.0378 125.121 23.1953C125.121 23.2096 125.128 23.224 125.143 23.2383C125.171 23.2669 125.193 23.2812 125.207 23.2812C125.322 23.2812 125.429 23.2311 125.529 23.1309C125.63 23.0306 125.737 22.959 125.852 22.916L129.289 19.7363L130.17 18.3828C130.242 18.2826 130.378 18.1751 130.578 18.0605C130.793 17.9316 131.008 17.8672 131.223 17.8672C131.438 17.8529 131.624 17.9173 131.781 18.0605C131.953 18.2038 132.039 18.4831 132.039 18.8984ZM127.312 17.2227C127.384 17.1654 127.413 17.0794 127.398 16.9648C127.384 16.8503 127.341 16.75 127.27 16.6641C127.212 16.5781 127.133 16.528 127.033 16.5137C126.933 16.485 126.84 16.5352 126.754 16.6641C126.711 16.7214 126.632 16.8359 126.518 17.0078C126.417 17.1797 126.31 17.3587 126.195 17.5449C126.095 17.7168 126.009 17.8672 125.938 17.9961C125.866 18.125 125.852 18.1751 125.895 18.1465L127.312 17.2227ZM141.664 24.3555C141.635 22.7656 141.592 21.1829 141.535 19.6074C141.492 18.0176 141.471 16.4277 141.471 14.8379C141.471 14.7233 141.471 14.5228 141.471 14.2363C141.471 13.9355 141.471 13.6204 141.471 13.291C141.485 12.9616 141.492 12.6536 141.492 12.3672C141.492 12.0807 141.492 11.8802 141.492 11.7656C141.549 11.5365 141.635 11.3574 141.75 11.2285C141.865 11.0853 142.044 11.0137 142.287 11.0137C142.531 11.0137 142.745 11.0924 142.932 11.25C143.118 11.3932 143.268 11.5651 143.383 11.7656L146.477 17.7383C146.491 17.7669 146.541 17.8529 146.627 17.9961C146.713 18.1393 146.777 18.2396 146.82 18.2969C146.835 18.3112 146.856 18.3255 146.885 18.3398C146.913 18.3542 146.928 18.3685 146.928 18.3828L147.014 18.1895L148.84 11.7656C148.969 11.5651 149.062 11.3431 149.119 11.0996C149.191 10.8418 149.262 10.5911 149.334 10.3477C149.42 10.1042 149.52 9.875 149.635 9.66016C149.764 9.44531 149.95 9.26628 150.193 9.12305H150.365C150.752 9.12305 151.038 9.23763 151.225 9.4668C151.411 9.68164 151.54 9.95378 151.611 10.2832C151.683 10.5983 151.712 10.9349 151.697 11.293C151.697 11.6367 151.704 11.9375 151.719 12.1953C151.719 12.2956 151.726 12.4889 151.74 12.7754C151.769 13.0618 151.798 13.3984 151.826 13.7852C151.855 14.1719 151.883 14.5872 151.912 15.0312C151.941 15.4609 151.962 15.8691 151.977 16.2559C152.005 16.6426 152.027 16.9792 152.041 17.2656C152.07 17.5521 152.084 17.7383 152.084 17.8242V17.9102C152.098 18.0391 152.127 18.2539 152.17 18.5547C152.213 18.8555 152.256 19.1777 152.299 19.5215C152.356 19.8509 152.406 20.166 152.449 20.4668C152.492 20.7676 152.528 20.9753 152.557 21.0898C152.571 21.1615 152.592 21.2689 152.621 21.4121C152.664 21.5553 152.707 21.7129 152.75 21.8848C152.807 22.0423 152.857 22.1927 152.9 22.3359C152.943 22.4792 152.979 22.5794 153.008 22.6367C152.951 22.9661 152.865 23.224 152.75 23.4102C152.65 23.582 152.421 23.668 152.062 23.668C152.02 23.668 151.955 23.668 151.869 23.668C151.783 23.6536 151.733 23.6465 151.719 23.6465C151.676 23.6178 151.59 23.5462 151.461 23.4316C151.346 23.3171 151.282 23.2383 151.268 23.1953L150.924 22.0137L150.279 17.1152V16.9219C150.265 16.6641 150.258 16.3919 150.258 16.1055C150.258 15.8047 150.251 15.5039 150.236 15.2031C150.236 14.9023 150.222 14.6016 150.193 14.3008C150.165 14 150.107 13.7207 150.021 13.4629L149.914 13.5918L148.367 19.8223C148.353 19.9798 148.339 20.1517 148.324 20.3379C148.31 20.5098 148.274 20.6816 148.217 20.8535C148.16 21.0111 148.074 21.1471 147.959 21.2617C147.844 21.3763 147.68 21.4408 147.465 21.4551C147.379 21.4694 147.286 21.4551 147.186 21.4121C147.085 21.3691 146.985 21.3118 146.885 21.2402C146.785 21.1686 146.691 21.0898 146.605 21.0039C146.534 20.9036 146.491 20.8105 146.477 20.7246L143.748 16.3848L143.297 15.4824V17.3301C143.297 18.2038 143.311 19.0632 143.34 19.9082C143.383 20.7389 143.404 21.5911 143.404 22.4648C143.404 22.5365 143.404 22.6654 143.404 22.8516C143.404 23.0234 143.397 23.2096 143.383 23.4102C143.383 23.6107 143.383 23.804 143.383 23.9902C143.383 24.1621 143.383 24.2839 143.383 24.3555C143.326 24.5273 143.24 24.6777 143.125 24.8066C143.025 24.9355 142.874 25 142.674 25C142.402 25 142.187 24.957 142.029 24.8711C141.886 24.7708 141.764 24.599 141.664 24.3555ZM159.002 19.0059C158.873 19.235 158.723 19.5143 158.551 19.8438C158.393 20.1589 158.221 20.5026 158.035 20.875C157.849 21.2331 157.641 21.5983 157.412 21.9707C157.197 22.3288 156.968 22.6582 156.725 22.959C156.495 23.2598 156.252 23.5176 155.994 23.7324C155.736 23.9329 155.471 24.0547 155.199 24.0977C155.085 24.0977 154.956 24.0905 154.812 24.0762C154.669 24.0475 154.526 24.0117 154.383 23.9688C154.24 23.9115 154.118 23.8398 154.018 23.7539C153.932 23.6536 153.889 23.5247 153.889 23.3672C153.903 21.9062 154.01 20.5814 154.211 19.3926C154.411 18.1895 154.727 17.1367 155.156 16.2344C155.586 15.3177 156.137 14.5586 156.811 13.957C157.484 13.3555 158.3 12.9258 159.26 12.668C159.288 12.668 159.339 12.668 159.41 12.668C159.496 12.6536 159.553 12.6465 159.582 12.6465C160.012 12.6322 160.32 12.8327 160.506 13.248C160.706 13.6491 160.85 14.2936 160.936 15.1816C161.036 16.0553 161.1 17.1868 161.129 18.5762C161.172 19.9512 161.251 21.6055 161.365 23.5391C161.408 23.6966 161.43 23.8327 161.43 23.9473C161.444 24.0618 161.451 24.1979 161.451 24.3555C161.451 24.5703 161.387 24.735 161.258 24.8496C161.129 24.9499 160.964 25 160.764 25C160.348 25 160.055 24.8854 159.883 24.6562C159.711 24.4271 159.596 24.1191 159.539 23.7324C159.539 23.7181 159.525 23.6035 159.496 23.3887C159.482 23.1738 159.453 22.9303 159.41 22.6582C159.382 22.3717 159.353 22.0853 159.324 21.7988C159.296 21.5124 159.274 21.276 159.26 21.0898V21.0039C159.231 20.8607 159.21 20.6816 159.195 20.4668C159.195 20.252 159.181 20.0443 159.152 19.8438C159.124 19.6003 159.102 19.3568 159.088 19.1133L159.002 19.0059ZM158.529 14.752C158.143 15.0384 157.763 15.4251 157.391 15.9121C157.018 16.3991 156.753 16.8717 156.596 17.3301C156.524 17.5449 156.445 17.8385 156.359 18.2109C156.273 18.5833 156.195 18.9557 156.123 19.3281C156.066 19.6862 156.016 20.0228 155.973 20.3379C155.93 20.6387 155.908 20.832 155.908 20.918C155.923 20.918 155.937 20.9036 155.951 20.875C155.98 20.8464 156.001 20.8249 156.016 20.8105C156.904 19.9512 157.527 19.0273 157.885 18.0391C158.257 17.0365 158.472 15.9408 158.529 14.752ZM168.691 24.2695C168.491 23.9831 168.319 23.5892 168.176 23.0879C168.047 22.5723 167.918 22.0352 167.789 21.4766C167.674 20.9036 167.567 20.3522 167.467 19.8223C167.367 19.278 167.259 18.8483 167.145 18.5332C167.044 18.2038 166.93 18.0176 166.801 17.9746C166.672 17.9316 166.521 18.125 166.35 18.5547L164.48 24.3125C164.409 24.513 164.323 24.6562 164.223 24.7422C164.122 24.8138 163.958 24.8496 163.729 24.8496C163.614 24.8496 163.492 24.8353 163.363 24.8066C163.234 24.7637 163.113 24.7064 162.998 24.6348C162.883 24.5632 162.783 24.4772 162.697 24.377C162.626 24.2767 162.583 24.1621 162.568 24.0332C162.611 23.8613 162.647 23.5462 162.676 23.0879C162.719 22.6296 162.747 22.0996 162.762 21.498C162.776 20.8965 162.783 20.2663 162.783 19.6074C162.798 18.9342 162.798 18.3112 162.783 17.7383C162.783 17.151 162.776 16.6497 162.762 16.2344C162.747 15.8047 162.733 15.5254 162.719 15.3965C162.719 15.2533 162.719 15.11 162.719 14.9668C162.733 14.8092 162.755 14.666 162.783 14.5371C162.826 14.4082 162.891 14.3079 162.977 14.2363C163.077 14.1504 163.227 14.1074 163.428 14.1074C163.7 14.1074 163.951 14.222 164.18 14.4512C164.423 14.6803 164.545 14.9238 164.545 15.1816C164.545 15.554 164.523 15.9264 164.48 16.2988C164.452 16.6569 164.438 17.0221 164.438 17.3945C164.438 17.6237 164.438 17.8171 164.438 17.9746C164.438 18.1322 164.466 18.3255 164.523 18.5547C164.566 18.4401 164.638 18.2396 164.738 17.9531C164.839 17.6667 164.946 17.3659 165.061 17.0508C165.189 16.7357 165.304 16.4421 165.404 16.1699C165.505 15.8835 165.576 15.6829 165.619 15.5684C165.719 15.2819 165.87 15.0098 166.07 14.752C166.271 14.4798 166.536 14.3294 166.865 14.3008C167.08 14.2865 167.273 14.3438 167.445 14.4727C167.632 14.6016 167.789 14.7734 167.918 14.9883C168.047 15.1888 168.154 15.4036 168.24 15.6328C168.326 15.8477 168.391 16.0339 168.434 16.1914L169.594 21.541L170.496 23.9902C170.51 24.0046 170.518 24.0475 170.518 24.1191C170.518 24.1764 170.518 24.2194 170.518 24.248C170.518 24.4199 170.475 24.5918 170.389 24.7637C170.317 24.9212 170.181 25 169.98 25C169.737 25 169.486 24.9355 169.229 24.8066C168.971 24.6634 168.792 24.4844 168.691 24.2695ZM176.469 19.0059C176.34 19.235 176.189 19.5143 176.018 19.8438C175.86 20.1589 175.688 20.5026 175.502 20.875C175.316 21.2331 175.108 21.5983 174.879 21.9707C174.664 22.3288 174.435 22.6582 174.191 22.959C173.962 23.2598 173.719 23.5176 173.461 23.7324C173.203 23.9329 172.938 24.0547 172.666 24.0977C172.551 24.0977 172.423 24.0905 172.279 24.0762C172.136 24.0475 171.993 24.0117 171.85 23.9688C171.706 23.9115 171.585 23.8398 171.484 23.7539C171.398 23.6536 171.355 23.5247 171.355 23.3672C171.37 21.9062 171.477 20.5814 171.678 19.3926C171.878 18.1895 172.193 17.1367 172.623 16.2344C173.053 15.3177 173.604 14.5586 174.277 13.957C174.951 13.3555 175.767 12.9258 176.727 12.668C176.755 12.668 176.805 12.668 176.877 12.668C176.963 12.6536 177.02 12.6465 177.049 12.6465C177.479 12.6322 177.786 12.8327 177.973 13.248C178.173 13.6491 178.316 14.2936 178.402 15.1816C178.503 16.0553 178.567 17.1868 178.596 18.5762C178.639 19.9512 178.717 21.6055 178.832 23.5391C178.875 23.6966 178.896 23.8327 178.896 23.9473C178.911 24.0618 178.918 24.1979 178.918 24.3555C178.918 24.5703 178.854 24.735 178.725 24.8496C178.596 24.9499 178.431 25 178.23 25C177.815 25 177.521 24.8854 177.35 24.6562C177.178 24.4271 177.063 24.1191 177.006 23.7324C177.006 23.7181 176.992 23.6035 176.963 23.3887C176.949 23.1738 176.92 22.9303 176.877 22.6582C176.848 22.3717 176.82 22.0853 176.791 21.7988C176.762 21.5124 176.741 21.276 176.727 21.0898V21.0039C176.698 20.8607 176.676 20.6816 176.662 20.4668C176.662 20.252 176.648 20.0443 176.619 19.8438C176.59 19.6003 176.569 19.3568 176.555 19.1133L176.469 19.0059ZM175.996 14.752C175.609 15.0384 175.23 15.4251 174.857 15.9121C174.485 16.3991 174.22 16.8717 174.062 17.3301C173.991 17.5449 173.912 17.8385 173.826 18.2109C173.74 18.5833 173.661 18.9557 173.59 19.3281C173.533 19.6862 173.482 20.0228 173.439 20.3379C173.396 20.6387 173.375 20.832 173.375 20.918C173.389 20.918 173.404 20.9036 173.418 20.875C173.447 20.8464 173.468 20.8249 173.482 20.8105C174.37 19.9512 174.993 19.0273 175.352 18.0391C175.724 17.0365 175.939 15.9408 175.996 14.752ZM181.088 32.498C181.031 32.3405 181.031 32.1615 181.088 31.9609C181.16 31.7604 181.296 31.6315 181.496 31.5742C181.826 31.7174 182.169 31.8105 182.527 31.8535C182.885 31.8965 183.243 31.9036 183.602 31.875C183.974 31.8464 184.339 31.7891 184.697 31.7031C185.055 31.6172 185.399 31.5169 185.729 31.4023C186.058 31.1302 186.287 30.7721 186.416 30.3281C186.545 29.8984 186.595 29.304 186.566 28.5449C186.538 27.8001 186.438 26.862 186.266 25.7305C186.108 24.6133 185.9 23.2383 185.643 21.6055C185.643 21.5625 185.643 21.498 185.643 21.4121C185.657 21.3262 185.657 21.2474 185.643 21.1758C185.628 21.0898 185.6 21.0254 185.557 20.9824C185.528 20.9395 185.485 20.9395 185.428 20.9824C185.242 21.3405 185.02 21.7344 184.762 22.1641C184.518 22.5794 184.232 22.9733 183.902 23.3457C183.587 23.7038 183.229 24.0046 182.828 24.248C182.441 24.4915 182.005 24.6133 181.518 24.6133C181.088 24.6133 180.708 24.4915 180.379 24.248C180.064 23.9902 179.906 23.625 179.906 23.1523C179.906 22.7943 179.978 22.3431 180.121 21.7988C180.279 21.2546 180.486 20.6816 180.744 20.0801C181.002 19.4642 181.303 18.8555 181.646 18.2539C181.99 17.6523 182.348 17.1081 182.721 16.6211C183.093 16.1341 183.473 15.7402 183.859 15.4395C184.246 15.1243 184.618 14.9668 184.977 14.9668C185.12 14.9668 185.306 14.9954 185.535 15.0527C185.779 15.0957 186.008 15.1673 186.223 15.2676C186.452 15.3678 186.645 15.4824 186.803 15.6113C186.975 15.7402 187.061 15.8906 187.061 16.0625V17.8027L188.457 27.9434C188.457 28.5163 188.443 29.0605 188.414 29.5762C188.4 30.1061 188.307 30.5931 188.135 31.0371C187.977 31.4811 187.719 31.875 187.361 32.2188C187.003 32.5625 186.488 32.8418 185.814 33.0566C185.729 33.0996 185.549 33.1354 185.277 33.1641C185.005 33.1927 184.69 33.2142 184.332 33.2285C183.988 33.2428 183.616 33.2428 183.215 33.2285C182.828 33.2142 182.47 33.1784 182.141 33.1211C181.826 33.0781 181.568 33.0065 181.367 32.9062C181.167 32.806 181.074 32.6699 181.088 32.498ZM184.439 16.8789C184.296 17.0365 184.103 17.2871 183.859 17.6309C183.63 17.9746 183.394 18.3542 183.15 18.7695C182.907 19.1849 182.663 19.6217 182.42 20.0801C182.191 20.5241 182.005 20.9395 181.861 21.3262C181.718 21.7129 181.625 22.0423 181.582 22.3145C181.553 22.5866 181.618 22.7513 181.775 22.8086C182.076 22.651 182.398 22.3932 182.742 22.0352C183.086 21.6628 183.408 21.2546 183.709 20.8105C184.024 20.3522 184.296 19.8867 184.525 19.4141C184.769 18.9271 184.934 18.4902 185.02 18.1035C185.12 17.7168 185.127 17.4089 185.041 17.1797C184.969 16.9362 184.769 16.8359 184.439 16.8789ZM197.953 18.8984C197.924 19.1562 197.889 19.3568 197.846 19.5C197.817 19.6432 197.76 19.7721 197.674 19.8867C197.588 20.0013 197.466 20.123 197.309 20.252C197.151 20.3665 196.936 20.5384 196.664 20.7676C196.392 20.9824 196.055 21.2689 195.654 21.627C195.253 21.985 194.766 22.4505 194.193 23.0234C193.964 23.2383 193.728 23.4603 193.484 23.6895C193.241 23.9186 192.983 24.1263 192.711 24.3125C192.453 24.4844 192.181 24.6276 191.895 24.7422C191.608 24.8568 191.307 24.9141 190.992 24.9141C190.376 24.9141 189.925 24.7064 189.639 24.291C189.352 23.8757 189.209 23.3958 189.209 22.8516C189.209 22.4935 189.216 22.1927 189.23 21.9492C189.259 21.7057 189.316 21.3906 189.402 21.0039C189.245 20.8607 189.109 20.7389 188.994 20.6387C188.88 20.5241 188.822 20.3737 188.822 20.1875C188.822 20.0156 188.858 19.901 188.93 19.8438C189.016 19.7865 189.109 19.7507 189.209 19.7363C189.324 19.7077 189.431 19.679 189.531 19.6504C189.632 19.6217 189.703 19.5645 189.746 19.4785C189.775 19.3926 189.825 19.235 189.896 19.0059C189.982 18.7767 190.068 18.5404 190.154 18.2969C190.24 18.0391 190.319 17.8027 190.391 17.5879C190.477 17.3587 190.534 17.2012 190.562 17.1152C190.663 16.8717 190.77 16.6283 190.885 16.3848C191.014 16.127 191.157 15.8978 191.314 15.6973C191.486 15.4967 191.68 15.332 191.895 15.2031C192.124 15.0742 192.389 15.0098 192.689 15.0098C192.861 15.0098 193.069 15.0885 193.312 15.2461C193.57 15.4036 193.814 15.597 194.043 15.8262C194.272 16.041 194.465 16.2702 194.623 16.5137C194.781 16.7572 194.859 16.9648 194.859 17.1367C194.859 17.3516 194.809 17.5521 194.709 17.7383C194.609 17.9102 194.48 18.0749 194.322 18.2324C194.179 18.3757 194.021 18.5117 193.85 18.6406C193.678 18.7695 193.52 18.8913 193.377 19.0059C193.363 19.0059 193.334 19.0202 193.291 19.0488C193.248 19.0775 193.212 19.099 193.184 19.1133C193.169 19.1276 193.133 19.1634 193.076 19.2207C193.033 19.2637 192.983 19.3138 192.926 19.3711C192.868 19.4284 192.811 19.4857 192.754 19.543C192.711 19.6003 192.682 19.6361 192.668 19.6504C192.625 19.6934 192.539 19.765 192.41 19.8652C192.296 19.9512 192.167 20.0514 192.023 20.166C191.88 20.2663 191.744 20.3665 191.615 20.4668C191.501 20.5527 191.422 20.61 191.379 20.6387L191.293 20.8105C191.264 20.8678 191.236 20.9967 191.207 21.1973C191.193 21.3835 191.171 21.5983 191.143 21.8418C191.114 22.0853 191.085 22.3359 191.057 22.5938C191.042 22.8372 191.035 23.0378 191.035 23.1953C191.035 23.2096 191.042 23.224 191.057 23.2383C191.085 23.2669 191.107 23.2812 191.121 23.2812C191.236 23.2812 191.343 23.2311 191.443 23.1309C191.544 23.0306 191.651 22.959 191.766 22.916L195.203 19.7363L196.084 18.3828C196.156 18.2826 196.292 18.1751 196.492 18.0605C196.707 17.9316 196.922 17.8672 197.137 17.8672C197.352 17.8529 197.538 17.9173 197.695 18.0605C197.867 18.2038 197.953 18.4831 197.953 18.8984ZM193.227 17.2227C193.298 17.1654 193.327 17.0794 193.312 16.9648C193.298 16.8503 193.255 16.75 193.184 16.6641C193.126 16.5781 193.048 16.528 192.947 16.5137C192.847 16.485 192.754 16.5352 192.668 16.6641C192.625 16.7214 192.546 16.8359 192.432 17.0078C192.331 17.1797 192.224 17.3587 192.109 17.5449C192.009 17.7168 191.923 17.8672 191.852 17.9961C191.78 18.125 191.766 18.1751 191.809 18.1465L193.227 17.2227ZM198.855 17.9961C198.827 17.6237 198.791 17.2513 198.748 16.8789C198.719 16.4922 198.669 16.1126 198.598 15.7402C198.598 15.4251 198.698 15.2246 198.898 15.1387C199.113 15.0527 199.342 15.0098 199.586 15.0098H200.016C200.23 15.11 200.381 15.2318 200.467 15.375C200.553 15.5182 200.61 15.6758 200.639 15.8477C200.667 16.0195 200.674 16.1986 200.66 16.3848C200.66 16.571 200.667 16.75 200.682 16.9219C200.696 16.9935 200.703 17.1152 200.703 17.2871C200.703 17.459 200.703 17.638 200.703 17.8242C200.717 18.0104 200.732 18.1823 200.746 18.3398C200.775 18.4974 200.811 18.5977 200.854 18.6406L202.744 15.0957C202.83 14.9382 202.952 14.8092 203.109 14.709C203.281 14.5944 203.467 14.5514 203.668 14.5801C203.983 14.6087 204.219 14.6732 204.377 14.7734C204.535 14.8594 204.642 14.9811 204.699 15.1387C204.771 15.2819 204.807 15.4609 204.807 15.6758C204.821 15.8906 204.835 16.127 204.85 16.3848C204.85 16.4707 204.857 16.6354 204.871 16.8789C204.885 17.1081 204.9 17.3516 204.914 17.6094C204.943 17.8672 204.964 18.1107 204.979 18.3398C205.007 18.569 205.029 18.7266 205.043 18.8125H205.129C205.158 18.7122 205.208 18.5189 205.279 18.2324C205.365 17.946 205.458 17.6452 205.559 17.3301C205.659 17.015 205.752 16.7142 205.838 16.4277C205.924 16.1413 205.988 15.9408 206.031 15.8262C206.046 15.7975 206.074 15.7402 206.117 15.6543C206.16 15.554 206.203 15.4538 206.246 15.3535C206.289 15.2389 206.332 15.1387 206.375 15.0527C206.418 14.9525 206.447 14.8809 206.461 14.8379C206.561 14.6803 206.661 14.6016 206.762 14.6016C206.876 14.5872 206.998 14.5801 207.127 14.5801C207.485 14.5801 207.757 14.6732 207.943 14.8594C208.144 15.0312 208.287 15.2533 208.373 15.5254C208.473 15.7975 208.545 16.0983 208.588 16.4277C208.631 16.7428 208.681 17.0365 208.738 17.3086C208.753 17.3086 208.76 17.3229 208.76 17.3516C208.76 17.3659 208.753 17.3802 208.738 17.3945L209.92 23.6465C209.977 23.7038 210.006 23.7539 210.006 23.7969C210.02 23.8398 210.027 23.8971 210.027 23.9688C210.027 24.1263 209.949 24.2839 209.791 24.4414C209.648 24.5846 209.497 24.6562 209.34 24.6562C209.125 24.6562 208.874 24.5775 208.588 24.4199C208.316 24.2624 208.158 24.0618 208.115 23.8184L207.127 18.7266L207.02 18.5547C206.991 18.6263 206.926 18.834 206.826 19.1777C206.74 19.5072 206.633 19.9297 206.504 20.4453C206.375 20.9466 206.225 21.5124 206.053 22.1426C205.895 22.7728 205.73 23.4173 205.559 24.0762C205.53 24.2051 205.444 24.3053 205.301 24.377C205.172 24.4342 205.057 24.4629 204.957 24.4629C204.656 24.4629 204.413 24.4271 204.227 24.3555C204.04 24.2839 203.897 24.1764 203.797 24.0332C203.697 23.89 203.625 23.7181 203.582 23.5176C203.539 23.3171 203.503 23.0879 203.475 22.8301C203.475 22.7728 203.46 22.5723 203.432 22.2285C203.403 21.8704 203.367 21.4694 203.324 21.0254C203.296 20.5671 203.26 20.1087 203.217 19.6504C203.174 19.1921 203.145 18.8268 203.131 18.5547C203.131 18.4974 203.131 18.4544 203.131 18.4258C203.131 18.3971 203.131 18.3757 203.131 18.3613C203.131 18.3327 203.124 18.304 203.109 18.2754C203.095 18.2324 203.066 18.168 203.023 18.082L202.4 19.5645L201.412 23.1953L201.197 24.5273C201.183 24.6133 201.14 24.6921 201.068 24.7637C201.011 24.821 200.939 24.8711 200.854 24.9141C200.768 24.9427 200.682 24.9642 200.596 24.9785C200.51 24.9928 200.438 25 200.381 25C200.066 25 199.794 24.8854 199.564 24.6562C199.35 24.4271 199.235 24.1764 199.221 23.9043C199.206 23.804 199.192 23.6107 199.178 23.3242C199.163 23.0234 199.142 22.6725 199.113 22.2715C199.085 21.8704 199.056 21.4479 199.027 21.0039C199.013 20.5599 198.992 20.1374 198.963 19.7363C198.934 19.3353 198.906 18.9844 198.877 18.6836C198.863 18.3828 198.855 18.1823 198.855 18.082V17.9961ZM219.996 18.8984C219.967 19.1562 219.932 19.3568 219.889 19.5C219.86 19.6432 219.803 19.7721 219.717 19.8867C219.631 20.0013 219.509 20.123 219.352 20.252C219.194 20.3665 218.979 20.5384 218.707 20.7676C218.435 20.9824 218.098 21.2689 217.697 21.627C217.296 21.985 216.809 22.4505 216.236 23.0234C216.007 23.2383 215.771 23.4603 215.527 23.6895C215.284 23.9186 215.026 24.1263 214.754 24.3125C214.496 24.4844 214.224 24.6276 213.938 24.7422C213.651 24.8568 213.35 24.9141 213.035 24.9141C212.419 24.9141 211.968 24.7064 211.682 24.291C211.395 23.8757 211.252 23.3958 211.252 22.8516C211.252 22.4935 211.259 22.1927 211.273 21.9492C211.302 21.7057 211.359 21.3906 211.445 21.0039C211.288 20.8607 211.152 20.7389 211.037 20.6387C210.923 20.5241 210.865 20.3737 210.865 20.1875C210.865 20.0156 210.901 19.901 210.973 19.8438C211.059 19.7865 211.152 19.7507 211.252 19.7363C211.367 19.7077 211.474 19.679 211.574 19.6504C211.674 19.6217 211.746 19.5645 211.789 19.4785C211.818 19.3926 211.868 19.235 211.939 19.0059C212.025 18.7767 212.111 18.5404 212.197 18.2969C212.283 18.0391 212.362 17.8027 212.434 17.5879C212.52 17.3587 212.577 17.2012 212.605 17.1152C212.706 16.8717 212.813 16.6283 212.928 16.3848C213.057 16.127 213.2 15.8978 213.357 15.6973C213.529 15.4967 213.723 15.332 213.938 15.2031C214.167 15.0742 214.432 15.0098 214.732 15.0098C214.904 15.0098 215.112 15.0885 215.355 15.2461C215.613 15.4036 215.857 15.597 216.086 15.8262C216.315 16.041 216.508 16.2702 216.666 16.5137C216.824 16.7572 216.902 16.9648 216.902 17.1367C216.902 17.3516 216.852 17.5521 216.752 17.7383C216.652 17.9102 216.523 18.0749 216.365 18.2324C216.222 18.3757 216.064 18.5117 215.893 18.6406C215.721 18.7695 215.563 18.8913 215.42 19.0059C215.406 19.0059 215.377 19.0202 215.334 19.0488C215.291 19.0775 215.255 19.099 215.227 19.1133C215.212 19.1276 215.176 19.1634 215.119 19.2207C215.076 19.2637 215.026 19.3138 214.969 19.3711C214.911 19.4284 214.854 19.4857 214.797 19.543C214.754 19.6003 214.725 19.6361 214.711 19.6504C214.668 19.6934 214.582 19.765 214.453 19.8652C214.339 19.9512 214.21 20.0514 214.066 20.166C213.923 20.2663 213.787 20.3665 213.658 20.4668C213.544 20.5527 213.465 20.61 213.422 20.6387L213.336 20.8105C213.307 20.8678 213.279 20.9967 213.25 21.1973C213.236 21.3835 213.214 21.5983 213.186 21.8418C213.157 22.0853 213.128 22.3359 213.1 22.5938C213.085 22.8372 213.078 23.0378 213.078 23.1953C213.078 23.2096 213.085 23.224 213.1 23.2383C213.128 23.2669 213.15 23.2812 213.164 23.2812C213.279 23.2812 213.386 23.2311 213.486 23.1309C213.587 23.0306 213.694 22.959 213.809 22.916L217.246 19.7363L218.127 18.3828C218.199 18.2826 218.335 18.1751 218.535 18.0605C218.75 17.9316 218.965 17.8672 219.18 17.8672C219.395 17.8529 219.581 17.9173 219.738 18.0605C219.91 18.2038 219.996 18.4831 219.996 18.8984ZM215.27 17.2227C215.341 17.1654 215.37 17.0794 215.355 16.9648C215.341 16.8503 215.298 16.75 215.227 16.6641C215.169 16.5781 215.09 16.528 214.99 16.5137C214.89 16.485 214.797 16.5352 214.711 16.6641C214.668 16.7214 214.589 16.8359 214.475 17.0078C214.374 17.1797 214.267 17.3587 214.152 17.5449C214.052 17.7168 213.966 17.8672 213.895 17.9961C213.823 18.125 213.809 18.1751 213.852 18.1465L215.27 17.2227ZM226.699 24.2695C226.499 23.9831 226.327 23.5892 226.184 23.0879C226.055 22.5723 225.926 22.0352 225.797 21.4766C225.682 20.9036 225.575 20.3522 225.475 19.8223C225.374 19.278 225.267 18.8483 225.152 18.5332C225.052 18.2038 224.938 18.0176 224.809 17.9746C224.68 17.9316 224.529 18.125 224.357 18.5547L222.488 24.3125C222.417 24.513 222.331 24.6562 222.23 24.7422C222.13 24.8138 221.965 24.8496 221.736 24.8496C221.622 24.8496 221.5 24.8353 221.371 24.8066C221.242 24.7637 221.12 24.7064 221.006 24.6348C220.891 24.5632 220.791 24.4772 220.705 24.377C220.633 24.2767 220.59 24.1621 220.576 24.0332C220.619 23.8613 220.655 23.5462 220.684 23.0879C220.727 22.6296 220.755 22.0996 220.77 21.498C220.784 20.8965 220.791 20.2663 220.791 19.6074C220.805 18.9342 220.805 18.3112 220.791 17.7383C220.791 17.151 220.784 16.6497 220.77 16.2344C220.755 15.8047 220.741 15.5254 220.727 15.3965C220.727 15.2533 220.727 15.11 220.727 14.9668C220.741 14.8092 220.762 14.666 220.791 14.5371C220.834 14.4082 220.898 14.3079 220.984 14.2363C221.085 14.1504 221.235 14.1074 221.436 14.1074C221.708 14.1074 221.958 14.222 222.188 14.4512C222.431 14.6803 222.553 14.9238 222.553 15.1816C222.553 15.554 222.531 15.9264 222.488 16.2988C222.46 16.6569 222.445 17.0221 222.445 17.3945C222.445 17.6237 222.445 17.8171 222.445 17.9746C222.445 18.1322 222.474 18.3255 222.531 18.5547C222.574 18.4401 222.646 18.2396 222.746 17.9531C222.846 17.6667 222.954 17.3659 223.068 17.0508C223.197 16.7357 223.312 16.4421 223.412 16.1699C223.512 15.8835 223.584 15.6829 223.627 15.5684C223.727 15.2819 223.878 15.0098 224.078 14.752C224.279 14.4798 224.544 14.3294 224.873 14.3008C225.088 14.2865 225.281 14.3438 225.453 14.4727C225.639 14.6016 225.797 14.7734 225.926 14.9883C226.055 15.1888 226.162 15.4036 226.248 15.6328C226.334 15.8477 226.398 16.0339 226.441 16.1914L227.602 21.541L228.504 23.9902C228.518 24.0046 228.525 24.0475 228.525 24.1191C228.525 24.1764 228.525 24.2194 228.525 24.248C228.525 24.4199 228.482 24.5918 228.396 24.7637C228.325 24.9212 228.189 25 227.988 25C227.745 25 227.494 24.9355 227.236 24.8066C226.979 24.6634 226.799 24.4844 226.699 24.2695ZM231.533 18.7266C231.333 18.7266 231.154 18.7767 230.996 18.877C230.839 18.9772 230.652 19.0273 230.438 19.0273C230.409 19.0273 230.33 19.0273 230.201 19.0273C230.087 19.013 230.015 19.0059 229.986 19.0059C229.929 18.9342 229.865 18.877 229.793 18.834C229.721 18.791 229.65 18.748 229.578 18.7051C229.507 18.6478 229.442 18.5833 229.385 18.5117C229.342 18.4401 229.32 18.3398 229.32 18.2109C229.32 17.9961 229.406 17.8242 229.578 17.6953C229.75 17.5521 229.951 17.4303 230.18 17.3301C230.409 17.2298 230.638 17.1367 230.867 17.0508C231.111 16.9648 231.304 16.8646 231.447 16.75V15.8047C231.447 14.7448 231.397 13.6849 231.297 12.625C231.197 11.5508 231.146 10.4909 231.146 9.44531C231.146 9.15885 231.218 8.97266 231.361 8.88672C231.505 8.80078 231.698 8.75781 231.941 8.75781C232.228 8.75781 232.436 8.84375 232.564 9.01562C232.708 9.17318 232.808 9.3737 232.865 9.61719C232.923 9.84635 232.951 10.097 232.951 10.3691C232.951 10.627 232.958 10.849 232.973 11.0352C232.973 11.2214 232.987 11.5508 233.016 12.0234C233.044 12.4961 233.073 12.9974 233.102 13.5273C233.13 14.0573 233.159 14.5586 233.188 15.0312C233.216 15.5039 233.238 15.8333 233.252 16.0195C233.309 16.0052 233.417 15.9694 233.574 15.9121C233.746 15.8405 233.925 15.776 234.111 15.7188C234.298 15.6471 234.469 15.5827 234.627 15.5254C234.799 15.4681 234.921 15.4251 234.992 15.3965C235.365 15.2389 235.751 15.0671 236.152 14.8809C236.553 14.6803 236.962 14.5801 237.377 14.5801C237.663 14.5801 237.878 14.6803 238.021 14.8809C238.179 15.0671 238.258 15.2891 238.258 15.5469C238.258 15.7331 238.186 15.8691 238.043 15.9551C237.9 16.041 237.749 16.1198 237.592 16.1914L233.682 17.6523C233.639 17.681 233.596 17.7096 233.553 17.7383C233.51 17.7526 233.467 17.7812 233.424 17.8242V18.5117C233.424 19.013 233.431 19.5358 233.445 20.0801C233.474 20.61 233.524 21.1257 233.596 21.627C233.667 22.0566 233.746 22.4792 233.832 22.8945C233.918 23.3099 233.961 23.7324 233.961 24.1621C233.961 24.291 233.918 24.4629 233.832 24.6777C233.746 24.8926 233.61 25 233.424 25C233.037 25 232.722 24.8854 232.479 24.6562C232.235 24.4271 232.099 24.1191 232.07 23.7324C231.999 22.9876 231.92 22.1712 231.834 21.2832C231.762 20.3952 231.691 19.543 231.619 18.7266H231.533Z" fill="black"/>
<defs>
<filter id="filter0_i_4581_2452" x="1.95215" y="1.96155" width="252.593" height="33.5385" filterUnits="userSpaceOnUse" color-interpolation-filters="sRGB">
<feFlood flood-opacity="0" result="BackgroundImageFix"/>
<feBlend mode="normal" in="SourceGraphic" in2="BackgroundImageFix" result="shape"/>
<feColorMatrix in="SourceAlpha" type="matrix" values="0 0 0 0 0 0 0 0 0 0 0 0 0 0 0 0 0 0 127 0" result="hardAlpha"/>
<feOffset dx="4" dy="4"/>
<feComposite in2="hardAlpha" operator="arithmetic" k2="-1" k3="1"/>
<feColorMatrix type="matrix" values="0 0 0 0 0.694118 0 0 0 0 0.721569 0 0 0 0 0.741176 0 0 0 1 0"/>
<feBlend mode="multiply" in2="shape" result="effect1_innerShadow_4581_2452"/>
</filter>
</defs>
</svg>
