<svg width="93" height="37" viewBox="0 0 93 37" fill="none" xmlns="http://www.w3.org/2000/svg">
<g filter="url(#filter0_i_4585_2673)">
<path d="M87.0216 7.61228C90.541 11.6933 90.541 20.3656 90.541 20.3656C90.7307 28.2124 84.2761 34.5 76.0197 34.5C76.0198 31.5523 76.0195 2.00081 76.0195 2.00081C79.1629 1.66061 83.5022 3.53121 87.0216 7.61228Z" fill="white"/>
<path d="M18.7676 2H76.0195V34.5C76.0195 34.5 67.5272 34.2049 58.1436 34.5C52.9077 34.6647 41.9147 35.5 37.9823 35.5C27.0024 35.5 18.7676 34.5 18.7676 34.5V2Z" fill="white"/>
<path d="M5.14517 27.9432C0.335274 22.3612 1.47845 11.5 5.14549 8C8.81252 4.5 8.60485 4.5 11.9565 3.5C15.3082 2.5 18.7674 2 18.7674 2V34.5C13.1929 34.5 9.95507 33.5252 5.14517 27.9432Z" fill="white"/>
</g>
<path d="M18.7676 34.5C28.1086 34.5 27.7898 35 37.1258 35C46.4668 35 47.5924 34.4063 56.9334 34.4063C66.2744 34.4063 63.5351 34 72.8761 34" stroke="black" stroke-width="3" stroke-miterlimit="10" stroke-linecap="round" stroke-linejoin="round"/>
<path d="M2.00244 17.5C2.00244 7 9.6485 2 18.555 2C11.2202 2 2.52635 8 2.52635 17.5C2.52635 31.5 14.5763 34.5 18.2437 34.5C10.385 34.5 2.00244 28 2.00244 17.5Z" stroke="black" stroke-width="3" stroke-linecap="round" stroke-linejoin="round"/>
<path d="M91 19C91 29.5 81.7824 34 72.8759 34C80.2107 34 89.33 30.5 90.165 20.5C91.3303 6.54422 80.7346 2 74.7587 1.99999C82.6174 2 91 8.49998 91 19Z" stroke="black" stroke-width="3" stroke-linecap="round" stroke-linejoin="round"/>
<path d="M18.7676 2C28.2172 2 27.2398 2 36.6844 2C46.134 2 46.1629 1.5 55.6125 1.5C65.0622 1.5 65.5221 2.00001 74.9717 2.00001" stroke="black" stroke-width="3" stroke-miterlimit="10" stroke-linecap="round" stroke-linejoin="round"/>
<path d="M18.7305 19.6504C18.7305 19.5215 18.7448 19.4141 18.7734 19.3281C18.8164 19.2422 18.8594 19.1634 18.9023 19.0918C18.9596 19.0059 19.0026 18.9271 19.0312 18.8555C19.0742 18.7695 19.0957 18.6693 19.0957 18.5547C19.0957 18.125 19.0671 17.7025 19.0098 17.2871C18.9525 16.8574 18.888 16.4277 18.8164 15.998C18.7591 15.5684 18.7018 15.1458 18.6445 14.7305C18.5872 14.3008 18.5586 13.8711 18.5586 13.4414C18.5586 13.1406 18.6087 12.9329 18.709 12.8184C18.8236 12.7038 19.0384 12.6465 19.3535 12.6465C19.597 12.6465 19.7975 12.7109 19.9551 12.8398C20.127 12.9544 20.2917 13.1048 20.4492 13.291H20.5566C20.6569 13.2337 20.8431 13.1263 21.1152 12.9688C21.3874 12.8112 21.6738 12.6465 21.9746 12.4746C22.2897 12.3027 22.5833 12.1452 22.8555 12.002C23.1419 11.8444 23.3424 11.7298 23.457 11.6582C23.7005 11.5293 23.9368 11.4219 24.166 11.3359C24.3952 11.25 24.6458 11.207 24.918 11.207C25.0612 11.207 25.1686 11.2285 25.2402 11.2715C25.3118 11.3145 25.3477 11.429 25.3477 11.6152V11.6582C25.2904 11.9447 25.1901 12.181 25.0469 12.3672C24.9036 12.5391 24.7318 12.6895 24.5312 12.8184C24.3451 12.9473 24.1445 13.0618 23.9297 13.1621C23.7292 13.248 23.5358 13.3483 23.3496 13.4629C22.9199 13.7637 22.5547 14.0072 22.2539 14.1934C21.9674 14.3796 21.7168 14.5299 21.502 14.6445C21.3014 14.7591 21.1367 14.8594 21.0078 14.9453C20.8932 15.0169 20.8001 15.0957 20.7285 15.1816C20.7285 15.2246 20.7214 15.3105 20.707 15.4395C20.707 15.554 20.707 15.6257 20.707 15.6543C20.707 16.084 20.7142 16.5137 20.7285 16.9434C20.7428 17.373 20.8288 17.7884 20.9863 18.1895L25.9922 15.8262C26.0924 15.7832 26.1641 15.7617 26.207 15.7617C26.2643 15.7474 26.3431 15.7402 26.4434 15.7402C26.5007 15.7402 26.5938 15.7617 26.7227 15.8047C26.8516 15.8477 26.916 15.9049 26.916 15.9766C26.916 16.306 26.8014 16.5996 26.5723 16.8574C26.3574 17.1152 26.0924 17.3516 25.7773 17.5664C25.4622 17.7812 25.1328 17.9674 24.7891 18.125C24.4453 18.2826 24.1445 18.4258 23.8867 18.5547C23.8294 18.5833 23.765 18.6048 23.6934 18.6191C23.6217 18.6335 23.5716 18.6693 23.543 18.7266L21.2871 19.9082C21.2155 19.9512 21.1725 19.9941 21.1582 20.0371C21.1582 20.0658 21.1582 20.1159 21.1582 20.1875C21.1582 20.2161 21.1582 20.252 21.1582 20.2949C21.1725 20.3379 21.1797 20.3665 21.1797 20.3809L21.6309 23.9043C21.6738 24.248 21.5879 24.5202 21.373 24.7207C21.1725 24.9212 20.9219 25.0215 20.6211 25.0215C20.5638 25.0215 20.4922 25.0143 20.4062 25C20.3203 24.9714 20.2344 24.9427 20.1484 24.9141C20.0625 24.8711 19.9837 24.821 19.9121 24.7637C19.8548 24.6921 19.819 24.6133 19.8047 24.5273L19.2676 20.2949C19.2676 20.2376 19.2389 20.1875 19.1816 20.1445C19.1243 20.1016 19.0599 20.0586 18.9883 20.0156C18.931 19.9727 18.8737 19.9225 18.8164 19.8652C18.7591 19.8079 18.7305 19.7363 18.7305 19.6504ZM27.8398 23.4961C27.8398 22.8945 27.8542 22.3073 27.8828 21.7344C27.9115 21.1615 27.9258 20.5742 27.9258 19.9727C27.8828 18.3398 27.8685 16.7428 27.8828 15.1816C27.8971 13.6061 27.8255 11.9948 27.668 10.3477C27.668 10.0755 27.7324 9.89648 27.8613 9.81055C27.9902 9.71029 28.1836 9.66016 28.4414 9.66016C28.7708 9.66016 29.0501 9.76042 29.2793 9.96094C29.5228 10.1471 29.6517 10.4121 29.666 10.7559C29.6374 12.7897 29.6589 14.8092 29.7305 16.8145C29.8164 18.8053 29.8594 20.8249 29.8594 22.873V24.5273C29.7734 24.6419 29.6517 24.7565 29.4941 24.8711C29.3366 24.9857 29.179 25.0286 29.0215 25C28.6061 24.9284 28.3053 24.7637 28.1191 24.5059C27.9329 24.2337 27.8398 23.8971 27.8398 23.4961ZM35.209 22.959C35.1087 23.1738 35.0085 23.4102 34.9082 23.668C34.8079 23.9115 34.6934 24.1335 34.5645 24.334C34.4355 24.5345 34.278 24.7064 34.0918 24.8496C33.9056 24.9785 33.6693 25.043 33.3828 25.043C32.8815 25.043 32.4661 24.9212 32.1367 24.6777C31.8073 24.4199 31.5352 24.1048 31.3203 23.7324C31.1198 23.3457 30.9766 22.9303 30.8906 22.4863C30.8047 22.0423 30.7617 21.627 30.7617 21.2402L30.9336 16.041C30.9193 15.9408 30.9408 15.8405 30.998 15.7402C31.0697 15.6257 31.1556 15.5254 31.2559 15.4395C31.3704 15.3392 31.4922 15.2604 31.6211 15.2031C31.7643 15.1458 31.8932 15.1172 32.0078 15.1172C32.3372 15.1172 32.6165 15.2246 32.8457 15.4395C33.0749 15.64 33.1895 15.9049 33.1895 16.2344V16.4492C33.0319 16.707 32.8958 17.0436 32.7812 17.459C32.6667 17.8743 32.5736 18.3255 32.502 18.8125C32.4447 19.2852 32.4089 19.7721 32.3945 20.2734C32.3802 20.7747 32.3945 21.2331 32.4375 21.6484C32.4948 22.0638 32.5807 22.4219 32.6953 22.7227C32.8099 23.0091 32.9603 23.181 33.1465 23.2383C33.2181 23.2383 33.3255 23.2025 33.4688 23.1309C33.6263 23.0592 33.791 22.9232 33.9629 22.7227C34.1348 22.5221 34.3138 22.2428 34.5 21.8848C34.6862 21.5124 34.8509 21.0254 34.9941 20.4238C35.1374 19.8223 35.2448 19.0918 35.3164 18.2324C35.388 17.373 35.4095 16.3418 35.3809 15.1387C35.4382 14.9811 35.5169 14.8952 35.6172 14.8809C35.7318 14.8665 35.8464 14.8594 35.9609 14.8594C36.0898 14.8594 36.1973 14.8665 36.2832 14.8809C36.3691 14.8809 36.4622 14.931 36.5625 15.0312C36.6341 15.1029 36.7129 15.2103 36.7988 15.3535C36.8848 15.4967 36.9277 15.5755 36.9277 15.5898L37.293 25.1074C37.293 25.3223 37.2357 25.5013 37.1211 25.6445C37.0065 25.7878 36.8418 25.8594 36.627 25.8594C36.5553 25.8594 36.4694 25.8522 36.3691 25.8379C36.2689 25.8236 36.1686 25.7949 36.0684 25.752C35.9681 25.709 35.875 25.6517 35.7891 25.5801C35.7174 25.5228 35.6745 25.4512 35.6602 25.3652L35.2949 23.2168L35.209 22.959ZM40.5371 18.7266C40.3366 18.7266 40.1576 18.7767 40 18.877C39.8424 18.9772 39.6562 19.0273 39.4414 19.0273C39.4128 19.0273 39.334 19.0273 39.2051 19.0273C39.0905 19.013 39.0189 19.0059 38.9902 19.0059C38.9329 18.9342 38.8685 18.877 38.7969 18.834C38.7253 18.791 38.6536 18.748 38.582 18.7051C38.5104 18.6478 38.446 18.5833 38.3887 18.5117C38.3457 18.4401 38.3242 18.3398 38.3242 18.2109C38.3242 17.9961 38.4102 17.8242 38.582 17.6953C38.7539 17.5521 38.9544 17.4303 39.1836 17.3301C39.4128 17.2298 39.6419 17.1367 39.8711 17.0508C40.1146 16.9648 40.3079 16.8646 40.4512 16.75V15.8047C40.4512 14.7448 40.401 13.6849 40.3008 12.625C40.2005 11.5508 40.1504 10.4909 40.1504 9.44531C40.1504 9.15885 40.222 8.97266 40.3652 8.88672C40.5085 8.80078 40.7018 8.75781 40.9453 8.75781C41.2318 8.75781 41.4395 8.84375 41.5684 9.01562C41.7116 9.17318 41.8118 9.3737 41.8691 9.61719C41.9264 9.84635 41.9551 10.097 41.9551 10.3691C41.9551 10.627 41.9622 10.849 41.9766 11.0352C41.9766 11.2214 41.9909 11.5508 42.0195 12.0234C42.0482 12.4961 42.0768 12.9974 42.1055 13.5273C42.1341 14.0573 42.1628 14.5586 42.1914 15.0312C42.2201 15.5039 42.2415 15.8333 42.2559 16.0195C42.3132 16.0052 42.4206 15.9694 42.5781 15.9121C42.75 15.8405 42.929 15.776 43.1152 15.7188C43.3014 15.6471 43.4733 15.5827 43.6309 15.5254C43.8027 15.4681 43.9245 15.4251 43.9961 15.3965C44.3685 15.2389 44.7552 15.0671 45.1562 14.8809C45.5573 14.6803 45.9655 14.5801 46.3809 14.5801C46.6673 14.5801 46.8822 14.6803 47.0254 14.8809C47.1829 15.0671 47.2617 15.2891 47.2617 15.5469C47.2617 15.7331 47.1901 15.8691 47.0469 15.9551C46.9036 16.041 46.7533 16.1198 46.5957 16.1914L42.6855 17.6523C42.6426 17.681 42.5996 17.7096 42.5566 17.7383C42.5137 17.7526 42.4707 17.7812 42.4277 17.8242V18.5117C42.4277 19.013 42.4349 19.5358 42.4492 20.0801C42.4779 20.61 42.528 21.1257 42.5996 21.627C42.6712 22.0566 42.75 22.4792 42.8359 22.8945C42.9219 23.3099 42.9648 23.7324 42.9648 24.1621C42.9648 24.291 42.9219 24.4629 42.8359 24.6777C42.75 24.8926 42.6139 25 42.4277 25C42.041 25 41.7259 24.8854 41.4824 24.6562C41.2389 24.4271 41.1029 24.1191 41.0742 23.7324C41.0026 22.9876 40.9238 22.1712 40.8379 21.2832C40.7663 20.3952 40.6947 19.543 40.623 18.7266H40.5371ZM50.0117 18.7266C49.8112 18.7266 49.6322 18.7767 49.4746 18.877C49.3171 18.9772 49.1309 19.0273 48.916 19.0273C48.8874 19.0273 48.8086 19.0273 48.6797 19.0273C48.5651 19.013 48.4935 19.0059 48.4648 19.0059C48.4076 18.9342 48.3431 18.877 48.2715 18.834C48.1999 18.791 48.1283 18.748 48.0566 18.7051C47.985 18.6478 47.9206 18.5833 47.8633 18.5117C47.8203 18.4401 47.7988 18.3398 47.7988 18.2109C47.7988 17.9961 47.8848 17.8242 48.0566 17.6953C48.2285 17.5521 48.429 17.4303 48.6582 17.3301C48.8874 17.2298 49.1165 17.1367 49.3457 17.0508C49.5892 16.9648 49.7826 16.8646 49.9258 16.75V15.8047C49.9258 14.7448 49.8757 13.6849 49.7754 12.625C49.6751 11.5508 49.625 10.4909 49.625 9.44531C49.625 9.15885 49.6966 8.97266 49.8398 8.88672C49.9831 8.80078 50.1764 8.75781 50.4199 8.75781C50.7064 8.75781 50.9141 8.84375 51.043 9.01562C51.1862 9.17318 51.2865 9.3737 51.3438 9.61719C51.401 9.84635 51.4297 10.097 51.4297 10.3691C51.4297 10.627 51.4368 10.849 51.4512 11.0352C51.4512 11.2214 51.4655 11.5508 51.4941 12.0234C51.5228 12.4961 51.5514 12.9974 51.5801 13.5273C51.6087 14.0573 51.6374 14.5586 51.666 15.0312C51.6947 15.5039 51.7161 15.8333 51.7305 16.0195C51.7878 16.0052 51.8952 15.9694 52.0527 15.9121C52.2246 15.8405 52.4036 15.776 52.5898 15.7188C52.776 15.6471 52.9479 15.5827 53.1055 15.5254C53.2773 15.4681 53.3991 15.4251 53.4707 15.3965C53.8431 15.2389 54.2298 15.0671 54.6309 14.8809C55.0319 14.6803 55.4401 14.5801 55.8555 14.5801C56.1419 14.5801 56.3568 14.6803 56.5 14.8809C56.6576 15.0671 56.7363 15.2891 56.7363 15.5469C56.7363 15.7331 56.6647 15.8691 56.5215 15.9551C56.3783 16.041 56.2279 16.1198 56.0703 16.1914L52.1602 17.6523C52.1172 17.681 52.0742 17.7096 52.0312 17.7383C51.9883 17.7526 51.9453 17.7812 51.9023 17.8242V18.5117C51.9023 19.013 51.9095 19.5358 51.9238 20.0801C51.9525 20.61 52.0026 21.1257 52.0742 21.627C52.1458 22.0566 52.2246 22.4792 52.3105 22.8945C52.3965 23.3099 52.4395 23.7324 52.4395 24.1621C52.4395 24.291 52.3965 24.4629 52.3105 24.6777C52.2246 24.8926 52.0885 25 51.9023 25C51.5156 25 51.2005 24.8854 50.957 24.6562C50.7135 24.4271 50.5775 24.1191 50.5488 23.7324C50.4772 22.9876 50.3984 22.1712 50.3125 21.2832C50.2409 20.3952 50.1693 19.543 50.0977 18.7266H50.0117ZM66.4043 18.8984C66.3757 19.1562 66.3398 19.3568 66.2969 19.5C66.2682 19.6432 66.2109 19.7721 66.125 19.8867C66.0391 20.0013 65.9173 20.123 65.7598 20.252C65.6022 20.3665 65.3874 20.5384 65.1152 20.7676C64.8431 20.9824 64.5065 21.2689 64.1055 21.627C63.7044 21.985 63.2174 22.4505 62.6445 23.0234C62.4154 23.2383 62.179 23.4603 61.9355 23.6895C61.6921 23.9186 61.4342 24.1263 61.1621 24.3125C60.9043 24.4844 60.6322 24.6276 60.3457 24.7422C60.0592 24.8568 59.7585 24.9141 59.4434 24.9141C58.8275 24.9141 58.3763 24.7064 58.0898 24.291C57.8034 23.8757 57.6602 23.3958 57.6602 22.8516C57.6602 22.4935 57.6673 22.1927 57.6816 21.9492C57.7103 21.7057 57.7676 21.3906 57.8535 21.0039C57.696 20.8607 57.5599 20.7389 57.4453 20.6387C57.3307 20.5241 57.2734 20.3737 57.2734 20.1875C57.2734 20.0156 57.3092 19.901 57.3809 19.8438C57.4668 19.7865 57.5599 19.7507 57.6602 19.7363C57.7747 19.7077 57.8822 19.679 57.9824 19.6504C58.0827 19.6217 58.1543 19.5645 58.1973 19.4785C58.2259 19.3926 58.276 19.235 58.3477 19.0059C58.4336 18.7767 58.5195 18.5404 58.6055 18.2969C58.6914 18.0391 58.7702 17.8027 58.8418 17.5879C58.9277 17.3587 58.985 17.2012 59.0137 17.1152C59.1139 16.8717 59.2214 16.6283 59.3359 16.3848C59.4648 16.127 59.6081 15.8978 59.7656 15.6973C59.9375 15.4967 60.1309 15.332 60.3457 15.2031C60.5749 15.0742 60.8398 15.0098 61.1406 15.0098C61.3125 15.0098 61.5202 15.0885 61.7637 15.2461C62.0215 15.4036 62.265 15.597 62.4941 15.8262C62.7233 16.041 62.9167 16.2702 63.0742 16.5137C63.2318 16.7572 63.3105 16.9648 63.3105 17.1367C63.3105 17.3516 63.2604 17.5521 63.1602 17.7383C63.0599 17.9102 62.931 18.0749 62.7734 18.2324C62.6302 18.3757 62.4727 18.5117 62.3008 18.6406C62.1289 18.7695 61.9714 18.8913 61.8281 19.0059C61.8138 19.0059 61.7852 19.0202 61.7422 19.0488C61.6992 19.0775 61.6634 19.099 61.6348 19.1133C61.6204 19.1276 61.5846 19.1634 61.5273 19.2207C61.4844 19.2637 61.4342 19.3138 61.377 19.3711C61.3197 19.4284 61.2624 19.4857 61.2051 19.543C61.1621 19.6003 61.1335 19.6361 61.1191 19.6504C61.0762 19.6934 60.9902 19.765 60.8613 19.8652C60.7467 19.9512 60.6178 20.0514 60.4746 20.166C60.3314 20.2663 60.1953 20.3665 60.0664 20.4668C59.9518 20.5527 59.873 20.61 59.8301 20.6387L59.7441 20.8105C59.7155 20.8678 59.6868 20.9967 59.6582 21.1973C59.6439 21.3835 59.6224 21.5983 59.5938 21.8418C59.5651 22.0853 59.5365 22.3359 59.5078 22.5938C59.4935 22.8372 59.4863 23.0378 59.4863 23.1953C59.4863 23.2096 59.4935 23.224 59.5078 23.2383C59.5365 23.2669 59.5579 23.2812 59.5723 23.2812C59.6868 23.2812 59.7943 23.2311 59.8945 23.1309C59.9948 23.0306 60.1022 22.959 60.2168 22.916L63.6543 19.7363L64.5352 18.3828C64.6068 18.2826 64.7428 18.1751 64.9434 18.0605C65.1582 17.9316 65.373 17.8672 65.5879 17.8672C65.8027 17.8529 65.9889 17.9173 66.1465 18.0605C66.3184 18.2038 66.4043 18.4831 66.4043 18.8984ZM61.6777 17.2227C61.7493 17.1654 61.778 17.0794 61.7637 16.9648C61.7493 16.8503 61.7064 16.75 61.6348 16.6641C61.5775 16.5781 61.4987 16.528 61.3984 16.5137C61.2982 16.485 61.2051 16.5352 61.1191 16.6641C61.0762 16.7214 60.9974 16.8359 60.8828 17.0078C60.7826 17.1797 60.6751 17.3587 60.5605 17.5449C60.4603 17.7168 60.3743 17.8672 60.3027 17.9961C60.2311 18.125 60.2168 18.1751 60.2598 18.1465L61.6777 17.2227ZM67.9512 24.0762C67.9225 23.5605 67.8724 22.873 67.8008 22.0137C67.7435 21.14 67.6719 20.2376 67.5859 19.3066C67.5143 18.3757 67.4355 17.4948 67.3496 16.6641C67.2637 15.8333 67.1921 15.1888 67.1348 14.7305C67.1348 14.5443 67.2207 14.4225 67.3926 14.3652C67.5645 14.3079 67.7292 14.2793 67.8867 14.2793C68.0872 14.2793 68.2949 14.3366 68.5098 14.4512C68.7389 14.5658 68.8822 14.7233 68.9395 14.9238C68.9395 14.9811 68.9466 15.0885 68.9609 15.2461C68.9753 15.3893 68.9824 15.5397 68.9824 15.6973C68.9967 15.8548 69.0111 16.0124 69.0254 16.1699C69.0397 16.3132 69.0469 16.4134 69.0469 16.4707C69.0469 16.5566 69.0469 16.6211 69.0469 16.6641C69.0469 16.707 69.0469 16.75 69.0469 16.793C69.0469 16.8216 69.054 16.8574 69.0684 16.9004C69.0827 16.9434 69.1042 17.015 69.1328 17.1152C69.1615 17.0866 69.1901 17.0508 69.2188 17.0078C69.2617 16.9648 69.2904 16.9362 69.3047 16.9219C69.5339 16.5924 69.7559 16.306 69.9707 16.0625C70.1855 15.8047 70.4076 15.5684 70.6367 15.3535C70.8659 15.1243 71.1165 14.888 71.3887 14.6445C71.6751 14.3867 72.0046 14.0931 72.377 13.7637C72.4629 13.6921 72.5273 13.6419 72.5703 13.6133C72.6133 13.5703 72.6491 13.5417 72.6777 13.5273C72.7207 13.4987 72.7637 13.4844 72.8066 13.4844C72.8496 13.4701 72.9069 13.4629 72.9785 13.4629C73.222 13.4629 73.4655 13.5488 73.709 13.7207C73.9668 13.8783 74.0957 14.1003 74.0957 14.3867C74.0957 14.487 74.0599 14.5944 73.9883 14.709C73.9167 14.8092 73.8307 14.9095 73.7305 15.0098C73.6302 15.0957 73.5228 15.1745 73.4082 15.2461C73.3079 15.3177 73.2148 15.3678 73.1289 15.3965C72.7565 15.7259 72.3626 16.1055 71.9473 16.5352C71.5319 16.9505 71.1452 17.4017 70.7871 17.8887C70.429 18.3757 70.1354 18.8841 69.9062 19.4141C69.6771 19.944 69.5625 20.474 69.5625 21.0039C69.5625 21.4909 69.5983 21.9707 69.6699 22.4434C69.7415 22.916 69.7773 23.3958 69.7773 23.8828V24.6348C69.6628 24.7493 69.5625 24.8424 69.4766 24.9141C69.3906 24.9857 69.2689 25.0215 69.1113 25.0215C68.8678 25.0215 68.6315 24.9212 68.4023 24.7207C68.1732 24.5059 68.0228 24.291 67.9512 24.0762Z" fill="black"/>
<defs>
<filter id="filter0_i_4585_2673" x="1.95215" y="1.96155" width="88.5928" height="33.5385" filterUnits="userSpaceOnUse" color-interpolation-filters="sRGB">
<feFlood flood-opacity="0" result="BackgroundImageFix"/>
<feBlend mode="normal" in="SourceGraphic" in2="BackgroundImageFix" result="shape"/>
<feColorMatrix in="SourceAlpha" type="matrix" values="0 0 0 0 0 0 0 0 0 0 0 0 0 0 0 0 0 0 127 0" result="hardAlpha"/>
<feOffset dx="4" dy="4"/>
<feComposite in2="hardAlpha" operator="arithmetic" k2="-1" k3="1"/>
<feColorMatrix type="matrix" values="0 0 0 0 0.694118 0 0 0 0 0.721569 0 0 0 0 0.741176 0 0 0 1 0"/>
<feBlend mode="multiply" in2="shape" result="effect1_innerShadow_4585_2673"/>
</filter>
</defs>
</svg>
