<svg width="115" height="37" viewBox="0 0 115 37" fill="none" xmlns="http://www.w3.org/2000/svg">
<g filter="url(#filter0_i_4585_2503)">
<path d="M109.022 7.61228C112.541 11.6933 112.541 20.3656 112.541 20.3656C112.731 28.2124 106.276 34.5 98.0197 34.5C98.0198 31.5523 98.0195 2.00081 98.0195 2.00081C101.163 1.66061 105.502 3.53121 109.022 7.61228Z" fill="white"/>
<path d="M18.7676 2H98.0195V34.5C98.0195 34.5 86.2639 34.2049 73.2745 34.5C66.0266 34.6647 50.8093 35.5 45.3658 35.5C30.1668 35.5 18.7676 34.5 18.7676 34.5V2Z" fill="white"/>
<path d="M5.14517 27.9432C0.335274 22.3612 1.47845 11.5 5.14549 8C8.81252 4.5 8.60485 4.5 11.9565 3.5C15.3082 2.5 18.7674 2 18.7674 2V34.5C13.1929 34.5 9.95507 33.5252 5.14517 27.9432Z" fill="white"/>
</g>
<path d="M18.7676 34.5C31.9065 34.5 31.4581 35 44.5901 35C57.729 35 59.3123 34.4063 72.4512 34.4063C85.5902 34.4063 81.7371 34 94.8761 34" stroke="black" stroke-width="3" stroke-miterlimit="10" stroke-linecap="round" stroke-linejoin="round"/>
<path d="M2.00244 17.5C2.00244 7 9.6485 2 18.555 2C11.2202 2 2.52635 8 2.52635 17.5C2.52635 31.5 14.5763 34.5 18.2437 34.5C10.385 34.5 2.00244 28 2.00244 17.5Z" stroke="black" stroke-width="3" stroke-linecap="round" stroke-linejoin="round"/>
<path d="M113 19C113 29.5 103.782 34 94.8759 34C102.211 34 111.33 30.5 112.165 20.5C113.33 6.54422 102.735 2 96.7587 1.99999C104.617 2 113 8.49998 113 19Z" stroke="black" stroke-width="3" stroke-linecap="round" stroke-linejoin="round"/>
<path d="M18.7676 2C31.9161 2 30.556 2 43.6976 2C56.8461 2 56.8862 1.5 70.0347 1.5C83.1833 1.5 83.8232 2.00001 96.9717 2.00001" stroke="black" stroke-width="3" stroke-miterlimit="10" stroke-linecap="round" stroke-linejoin="round"/>
<path d="M18.2148 19.5215C18.2148 19.3353 18.265 19.1562 18.3652 18.9844C18.4655 18.8125 18.6302 18.7266 18.8594 18.7266C18.9883 18.7266 19.0957 18.7695 19.1816 18.8555C19.2676 18.9414 19.3392 19.0488 19.3965 19.1777C19.4681 19.2923 19.5326 19.4141 19.5898 19.543C19.6471 19.6576 19.7116 19.7507 19.7832 19.8223C19.8835 19.9082 20.0553 20.0944 20.2988 20.3809C20.5566 20.6673 20.8145 20.9681 21.0723 21.2832C21.3301 21.5983 21.5664 21.8919 21.7812 22.1641C21.9961 22.4219 22.1178 22.5794 22.1465 22.6367C22.1751 22.6654 22.2181 22.7155 22.2754 22.7871C22.3327 22.8444 22.3757 22.8874 22.4043 22.916L22.4902 22.8301C22.4902 22.8158 22.4902 22.7441 22.4902 22.6152C22.5046 22.4863 22.5117 22.3431 22.5117 22.1855C22.5117 22.028 22.5117 21.8704 22.5117 21.7129C22.5117 21.541 22.5117 21.4049 22.5117 21.3047C22.5117 20.0729 22.4902 18.8555 22.4473 17.6523C22.4186 16.4349 22.4043 15.2103 22.4043 13.9785V10.9492C22.4473 10.7487 22.5332 10.6055 22.6621 10.5195C22.8053 10.4193 22.9701 10.3691 23.1562 10.3691C23.3568 10.3691 23.5501 10.4121 23.7363 10.498C23.9368 10.584 24.0658 10.7344 24.123 10.9492C24.0944 12.7396 24.1159 14.5013 24.1875 16.2344C24.2734 17.9674 24.3164 19.722 24.3164 21.498C24.3164 21.7129 24.3164 22.0208 24.3164 22.4219C24.3164 22.8086 24.2806 23.1953 24.209 23.582C24.1517 23.9688 24.0299 24.3053 23.8438 24.5918C23.6719 24.8783 23.4141 25.0215 23.0703 25.0215C23.0417 25.0215 22.9987 25.0143 22.9414 25C22.8984 25 22.8698 25 22.8555 25C22.7839 24.9714 22.6549 24.8997 22.4688 24.7852C22.2826 24.6706 22.1751 24.5846 22.1465 24.5273L18.6016 20.5527C18.4297 20.3665 18.3223 20.2018 18.2793 20.0586C18.2363 19.901 18.2148 19.722 18.2148 19.5215ZM30.4395 19.0059C30.3105 19.235 30.1602 19.5143 29.9883 19.8438C29.8307 20.1589 29.6589 20.5026 29.4727 20.875C29.2865 21.2331 29.0788 21.5983 28.8496 21.9707C28.6348 22.3288 28.4056 22.6582 28.1621 22.959C27.9329 23.2598 27.6895 23.5176 27.4316 23.7324C27.1738 23.9329 26.9089 24.0547 26.6367 24.0977C26.5221 24.0977 26.3932 24.0905 26.25 24.0762C26.1068 24.0475 25.9635 24.0117 25.8203 23.9688C25.6771 23.9115 25.5553 23.8398 25.4551 23.7539C25.3691 23.6536 25.3262 23.5247 25.3262 23.3672C25.3405 21.9062 25.4479 20.5814 25.6484 19.3926C25.849 18.1895 26.1641 17.1367 26.5938 16.2344C27.0234 15.3177 27.5749 14.5586 28.248 13.957C28.9212 13.3555 29.7376 12.9258 30.6973 12.668C30.7259 12.668 30.776 12.668 30.8477 12.668C30.9336 12.6536 30.9909 12.6465 31.0195 12.6465C31.4492 12.6322 31.7572 12.8327 31.9434 13.248C32.1439 13.6491 32.2871 14.2936 32.373 15.1816C32.4733 16.0553 32.5378 17.1868 32.5664 18.5762C32.6094 19.9512 32.6882 21.6055 32.8027 23.5391C32.8457 23.6966 32.8672 23.8327 32.8672 23.9473C32.8815 24.0618 32.8887 24.1979 32.8887 24.3555C32.8887 24.5703 32.8242 24.735 32.6953 24.8496C32.5664 24.9499 32.4017 25 32.2012 25C31.7858 25 31.4922 24.8854 31.3203 24.6562C31.1484 24.4271 31.0339 24.1191 30.9766 23.7324C30.9766 23.7181 30.9622 23.6035 30.9336 23.3887C30.9193 23.1738 30.8906 22.9303 30.8477 22.6582C30.819 22.3717 30.7904 22.0853 30.7617 21.7988C30.7331 21.5124 30.7116 21.276 30.6973 21.0898V21.0039C30.6686 20.8607 30.6471 20.6816 30.6328 20.4668C30.6328 20.252 30.6185 20.0443 30.5898 19.8438C30.5612 19.6003 30.5397 19.3568 30.5254 19.1133L30.4395 19.0059ZM29.9668 14.752C29.5801 15.0384 29.2005 15.4251 28.8281 15.9121C28.4557 16.3991 28.1908 16.8717 28.0332 17.3301C27.9616 17.5449 27.8828 17.8385 27.7969 18.2109C27.7109 18.5833 27.6322 18.9557 27.5605 19.3281C27.5033 19.6862 27.4531 20.0228 27.4102 20.3379C27.3672 20.6387 27.3457 20.832 27.3457 20.918C27.36 20.918 27.3743 20.9036 27.3887 20.875C27.4173 20.8464 27.4388 20.8249 27.4531 20.8105C28.3411 19.9512 28.9642 19.0273 29.3223 18.0391C29.6947 17.0365 29.9095 15.9408 29.9668 14.752ZM36.2402 21.9277L33.877 16.1914C33.8626 16.1771 33.8555 16.1628 33.8555 16.1484V16.0625C33.8555 15.9336 33.8913 15.8262 33.9629 15.7402C34.0488 15.64 34.1491 15.554 34.2637 15.4824C34.2923 15.4824 34.3496 15.4824 34.4355 15.4824C34.5215 15.4681 34.5788 15.4609 34.6074 15.4609C34.8796 15.4609 35.0729 15.5039 35.1875 15.5898C35.3164 15.6758 35.4811 15.7904 35.6816 15.9336C35.7389 16.1484 35.8105 16.3704 35.8965 16.5996C35.9967 16.8288 36.1113 17.1224 36.2402 17.4805C36.3835 17.8242 36.5625 18.2611 36.7773 18.791C36.9922 19.321 37.2643 19.9941 37.5938 20.8105L37.7012 20.918C37.7441 20.8464 37.7799 20.7533 37.8086 20.6387C37.8516 20.5241 37.916 20.3236 38.002 20.0371C38.1022 19.7507 38.2383 19.3353 38.4102 18.791C38.582 18.2467 38.8255 17.5091 39.1406 16.5781C39.2552 16.3919 39.334 16.1771 39.377 15.9336C39.4199 15.6901 39.4701 15.4609 39.5273 15.2461C39.5846 15.0312 39.6706 14.8522 39.7852 14.709C39.9141 14.5658 40.1074 14.4941 40.3652 14.4941C40.6087 14.4941 40.8451 14.5944 41.0742 14.7949C41.3034 14.9811 41.418 15.2103 41.418 15.4824C41.418 15.6113 41.375 15.7546 41.2891 15.9121C41.2031 16.0553 41.1172 16.1771 41.0312 16.2773L38.4102 25H38.2812C38.224 25 38.138 24.9928 38.0234 24.9785C37.9232 24.9642 37.8158 24.9427 37.7012 24.9141C37.5866 24.8711 37.4863 24.8281 37.4004 24.7852C37.3145 24.7422 37.2643 24.6921 37.25 24.6348L36.2402 22.0137V21.9277ZM47.3477 19.0059C47.2188 19.235 47.0684 19.5143 46.8965 19.8438C46.7389 20.1589 46.5671 20.5026 46.3809 20.875C46.1947 21.2331 45.987 21.5983 45.7578 21.9707C45.543 22.3288 45.3138 22.6582 45.0703 22.959C44.8411 23.2598 44.5977 23.5176 44.3398 23.7324C44.082 23.9329 43.8171 24.0547 43.5449 24.0977C43.4303 24.0977 43.3014 24.0905 43.1582 24.0762C43.015 24.0475 42.8717 24.0117 42.7285 23.9688C42.5853 23.9115 42.4635 23.8398 42.3633 23.7539C42.2773 23.6536 42.2344 23.5247 42.2344 23.3672C42.2487 21.9062 42.3561 20.5814 42.5566 19.3926C42.7572 18.1895 43.0723 17.1367 43.502 16.2344C43.9316 15.3177 44.4831 14.5586 45.1562 13.957C45.8294 13.3555 46.6458 12.9258 47.6055 12.668C47.6341 12.668 47.6842 12.668 47.7559 12.668C47.8418 12.6536 47.8991 12.6465 47.9277 12.6465C48.3574 12.6322 48.6654 12.8327 48.8516 13.248C49.0521 13.6491 49.1953 14.2936 49.2812 15.1816C49.3815 16.0553 49.446 17.1868 49.4746 18.5762C49.5176 19.9512 49.5964 21.6055 49.7109 23.5391C49.7539 23.6966 49.7754 23.8327 49.7754 23.9473C49.7897 24.0618 49.7969 24.1979 49.7969 24.3555C49.7969 24.5703 49.7324 24.735 49.6035 24.8496C49.4746 24.9499 49.3099 25 49.1094 25C48.694 25 48.4004 24.8854 48.2285 24.6562C48.0566 24.4271 47.9421 24.1191 47.8848 23.7324C47.8848 23.7181 47.8704 23.6035 47.8418 23.3887C47.8275 23.1738 47.7988 22.9303 47.7559 22.6582C47.7272 22.3717 47.6986 22.0853 47.6699 21.7988C47.6413 21.5124 47.6198 21.276 47.6055 21.0898V21.0039C47.5768 20.8607 47.5553 20.6816 47.541 20.4668C47.541 20.252 47.5267 20.0443 47.498 19.8438C47.4694 19.6003 47.4479 19.3568 47.4336 19.1133L47.3477 19.0059ZM46.875 14.752C46.4883 15.0384 46.1087 15.4251 45.7363 15.9121C45.3639 16.3991 45.099 16.8717 44.9414 17.3301C44.8698 17.5449 44.791 17.8385 44.7051 18.2109C44.6191 18.5833 44.5404 18.9557 44.4688 19.3281C44.4115 19.6862 44.3613 20.0228 44.3184 20.3379C44.2754 20.6387 44.2539 20.832 44.2539 20.918C44.2682 20.918 44.2826 20.9036 44.2969 20.875C44.3255 20.8464 44.347 20.8249 44.3613 20.8105C45.2493 19.9512 45.8724 19.0273 46.2305 18.0391C46.6029 17.0365 46.8177 15.9408 46.875 14.752ZM54.1582 24.1836C54.1582 24.112 54.1582 24.0475 54.1582 23.9902C54.1725 23.9329 54.2083 23.8757 54.2656 23.8184C54.4375 23.6035 54.6309 23.3815 54.8457 23.1523C55.0605 22.9089 55.2682 22.6725 55.4688 22.4434C55.6693 22.1999 55.8555 21.9492 56.0273 21.6914C56.1992 21.4336 56.3424 21.1758 56.457 20.918V20.7891L53.6426 21.3691H53.3203C53.1198 21.3691 52.8691 21.3548 52.5684 21.3262C52.2819 21.2975 51.9954 21.2402 51.709 21.1543C51.4368 21.054 51.2005 20.918 51 20.7461C50.8138 20.5742 50.7207 20.3451 50.7207 20.0586C50.735 19.7292 50.9069 19.3639 51.2363 18.9629C51.5658 18.5618 51.9525 18.168 52.3965 17.7812C52.8405 17.3945 53.2845 17.0365 53.7285 16.707C54.1868 16.3776 54.5521 16.1198 54.8242 15.9336C55.125 15.7617 55.4831 15.6257 55.8984 15.5254C56.3138 15.4108 56.6934 15.3535 57.0371 15.3535C57.3236 15.3535 57.5742 15.4108 57.7891 15.5254C58.0039 15.6257 58.1113 15.8333 58.1113 16.1484C58.1113 16.2773 58.097 16.3991 58.0684 16.5137C58.054 16.6283 57.9681 16.707 57.8105 16.75C57.3522 16.707 56.9225 16.7428 56.5215 16.8574C56.1204 16.9577 55.7409 17.1152 55.3828 17.3301C55.0247 17.5449 54.6882 17.8027 54.373 18.1035C54.0579 18.39 53.75 18.6908 53.4492 19.0059C53.3633 19.1061 53.2559 19.2493 53.127 19.4355C52.998 19.6074 52.9336 19.7077 52.9336 19.7363V19.7578C53.306 19.7578 53.6712 19.722 54.0293 19.6504C54.4017 19.5788 54.7669 19.5072 55.125 19.4355C55.4974 19.3496 55.8626 19.2708 56.2207 19.1992C56.5931 19.1276 56.9727 19.0918 57.3594 19.0918C57.5026 19.0918 57.6602 19.1061 57.832 19.1348C58.0039 19.1491 58.1615 19.1921 58.3047 19.2637C58.4622 19.3353 58.584 19.4355 58.6699 19.5645C58.7702 19.679 58.8203 19.8294 58.8203 20.0156C58.8203 20.2878 58.7487 20.5527 58.6055 20.8105C58.4766 21.054 58.276 21.3548 58.0039 21.7129C57.7461 22.0566 57.4095 22.4792 56.9941 22.9805C56.5931 23.4818 56.1133 24.1263 55.5547 24.9141C55.526 24.957 55.4544 24.9857 55.3398 25C55.2396 25.0143 55.1536 25.0215 55.082 25.0215C54.8815 25.0215 54.6738 24.9355 54.459 24.7637C54.2585 24.5918 54.1582 24.3984 54.1582 24.1836ZM59.7656 22.4219C59.6654 21.9922 59.6654 21.4837 59.7656 20.8965C59.8802 20.3092 60.0521 19.722 60.2812 19.1348C60.5247 18.5332 60.8184 17.9674 61.1621 17.4375C61.5202 16.9076 61.8926 16.485 62.2793 16.1699C62.6803 15.8548 63.0814 15.6829 63.4824 15.6543C63.8978 15.6113 64.2917 15.7904 64.6641 16.1914C64.6641 16.2057 64.6712 16.2415 64.6855 16.2988C64.6999 16.3561 64.7142 16.4779 64.7285 16.6641C64.7428 16.8359 64.75 17.0866 64.75 17.416C64.7643 17.7311 64.7715 18.168 64.7715 18.7266C64.7858 18.7552 64.8001 18.8053 64.8145 18.877C64.8431 18.9342 64.8574 18.9772 64.8574 19.0059C64.8145 19.1634 64.7285 19.3138 64.5996 19.457C64.485 19.5859 64.3346 19.6504 64.1484 19.6504C63.9049 19.6504 63.7044 19.6146 63.5469 19.543C63.4036 19.457 63.2962 19.2637 63.2246 18.9629C63.2533 18.9199 63.2604 18.834 63.2461 18.7051C63.2318 18.5618 63.2031 18.4043 63.1602 18.2324C63.1315 18.0605 63.1029 17.8887 63.0742 17.7168C63.0456 17.5449 63.0312 17.4089 63.0312 17.3086C63.0169 17.3086 62.9954 17.3229 62.9668 17.3516C62.9525 17.3659 62.9382 17.3802 62.9238 17.3945C62.6803 17.8242 62.4512 18.304 62.2363 18.834C62.0358 19.3496 61.8783 19.8796 61.7637 20.4238C61.6634 20.9538 61.6276 21.4837 61.6562 22.0137C61.6992 22.5436 61.8568 23.0234 62.1289 23.4531C62.3294 23.4531 62.5156 23.3743 62.6875 23.2168C62.8594 23.0449 63.0026 22.8874 63.1172 22.7441C63.3607 22.4577 63.597 22.1641 63.8262 21.8633C64.0697 21.5625 64.2917 21.2474 64.4922 20.918C64.5781 20.7747 64.6426 20.6458 64.6855 20.5312C64.7285 20.4167 64.7786 20.3236 64.8359 20.252C64.9076 20.1803 64.9935 20.123 65.0938 20.0801C65.194 20.0371 65.3444 20.0156 65.5449 20.0156C65.7741 20.0156 65.9889 20.0729 66.1895 20.1875C66.39 20.2878 66.4902 20.4596 66.4902 20.7031C66.4902 21.0326 66.3398 21.4479 66.0391 21.9492C65.7526 22.4362 65.3945 22.9089 64.9648 23.3672C64.5495 23.8255 64.1055 24.2194 63.6328 24.5488C63.1602 24.8639 62.7448 25.0215 62.3867 25.0215C62.043 25.0215 61.7064 24.957 61.377 24.8281C61.0618 24.6849 60.7826 24.4987 60.5391 24.2695C60.3099 24.0404 60.1237 23.7682 59.9805 23.4531C59.8372 23.138 59.7656 22.7943 59.7656 22.4219ZM68.3379 24.0762C68.3092 23.5605 68.2591 22.873 68.1875 22.0137C68.1302 21.14 68.0586 20.2376 67.9727 19.3066C67.901 18.3757 67.8223 17.4948 67.7363 16.6641C67.6504 15.8333 67.5788 15.1888 67.5215 14.7305C67.5215 14.5443 67.6074 14.4225 67.7793 14.3652C67.9512 14.3079 68.1159 14.2793 68.2734 14.2793C68.474 14.2793 68.6816 14.3366 68.8965 14.4512C69.1257 14.5658 69.2689 14.7233 69.3262 14.9238C69.3262 14.9811 69.3333 15.0885 69.3477 15.2461C69.362 15.3893 69.3691 15.5397 69.3691 15.6973C69.3835 15.8548 69.3978 16.0124 69.4121 16.1699C69.4264 16.3132 69.4336 16.4134 69.4336 16.4707C69.4336 16.5566 69.4336 16.6211 69.4336 16.6641C69.4336 16.707 69.4336 16.75 69.4336 16.793C69.4336 16.8216 69.4408 16.8574 69.4551 16.9004C69.4694 16.9434 69.4909 17.015 69.5195 17.1152C69.5482 17.0866 69.5768 17.0508 69.6055 17.0078C69.6484 16.9648 69.6771 16.9362 69.6914 16.9219C69.9206 16.5924 70.1426 16.306 70.3574 16.0625C70.5723 15.8047 70.7943 15.5684 71.0234 15.3535C71.2526 15.1243 71.5033 14.888 71.7754 14.6445C72.0618 14.3867 72.3913 14.0931 72.7637 13.7637C72.8496 13.6921 72.9141 13.6419 72.957 13.6133C73 13.5703 73.0358 13.5417 73.0645 13.5273C73.1074 13.4987 73.1504 13.4844 73.1934 13.4844C73.2363 13.4701 73.2936 13.4629 73.3652 13.4629C73.6087 13.4629 73.8522 13.5488 74.0957 13.7207C74.3535 13.8783 74.4824 14.1003 74.4824 14.3867C74.4824 14.487 74.4466 14.5944 74.375 14.709C74.3034 14.8092 74.2174 14.9095 74.1172 15.0098C74.0169 15.0957 73.9095 15.1745 73.7949 15.2461C73.6947 15.3177 73.6016 15.3678 73.5156 15.3965C73.1432 15.7259 72.7493 16.1055 72.334 16.5352C71.9186 16.9505 71.5319 17.4017 71.1738 17.8887C70.8158 18.3757 70.5221 18.8841 70.293 19.4141C70.0638 19.944 69.9492 20.474 69.9492 21.0039C69.9492 21.4909 69.985 21.9707 70.0566 22.4434C70.1283 22.916 70.1641 23.3958 70.1641 23.8828V24.6348C70.0495 24.7493 69.9492 24.8424 69.8633 24.9141C69.7773 24.9857 69.6556 25.0215 69.498 25.0215C69.2546 25.0215 69.0182 24.9212 68.7891 24.7207C68.5599 24.5059 68.4095 24.291 68.3379 24.0762ZM76.0508 24.1836C75.9076 22.7513 75.7858 21.5267 75.6855 20.5098C75.5853 19.4928 75.4993 18.6406 75.4277 17.9531C75.3561 17.2656 75.2917 16.7214 75.2344 16.3203C75.1914 15.9049 75.1556 15.597 75.127 15.3965C75.0983 15.1816 75.0768 15.0384 75.0625 14.9668C75.0482 14.8952 75.041 14.8522 75.041 14.8379V14.752C75.041 14.5944 75.1055 14.4655 75.2344 14.3652C75.3776 14.2507 75.5208 14.1934 75.6641 14.1934C75.8789 14.1934 76.1081 14.2292 76.3516 14.3008C76.6094 14.3724 76.7812 14.5228 76.8672 14.752C76.9961 15.4538 77.082 16.1628 77.125 16.8789C77.1823 17.5951 77.2253 18.3112 77.2539 19.0273C77.2969 19.7292 77.347 20.4382 77.4043 21.1543C77.4759 21.8704 77.5977 22.5794 77.7695 23.2812C77.7695 23.3099 77.7767 23.3672 77.791 23.4531C77.8197 23.5391 77.8411 23.6322 77.8555 23.7324C77.8841 23.8327 77.9056 23.9258 77.9199 24.0117C77.9342 24.0977 77.9414 24.1549 77.9414 24.1836V24.2266C77.9414 24.2409 77.9486 24.2552 77.9629 24.2695C77.9629 24.4414 77.8841 24.6133 77.7266 24.7852C77.569 24.957 77.4043 25.0286 77.2324 25C77.1895 24.9857 77.082 24.9642 76.9102 24.9355C76.7526 24.8926 76.6452 24.8568 76.5879 24.8281C76.5449 24.8138 76.4876 24.7852 76.416 24.7422C76.3444 24.6849 76.2728 24.6276 76.2012 24.5703C76.1439 24.513 76.0938 24.4486 76.0508 24.377C76.0078 24.3053 76.0078 24.2409 76.0508 24.1836ZM74.8477 8.52148C74.8477 8.42122 74.9264 8.33529 75.084 8.26367C75.2559 8.17773 75.3848 8.13477 75.4707 8.13477C75.6855 8.13477 75.9219 8.19922 76.1797 8.32812C76.4518 8.44271 76.5879 8.62174 76.5879 8.86523C76.5879 9.10872 76.5521 9.27344 76.4805 9.35938C76.4232 9.44531 76.2728 9.48828 76.0293 9.48828C75.7715 9.48828 75.5065 9.40234 75.2344 9.23047C74.9766 9.05859 74.8477 8.82227 74.8477 8.52148ZM79.4453 21.1328C79.1732 21.0326 78.9225 20.9108 78.6934 20.7676C78.4785 20.6243 78.3711 20.388 78.3711 20.0586C78.3711 19.9727 78.3926 19.9154 78.4355 19.8867C78.4785 19.8581 78.5143 19.8151 78.543 19.7578C78.5716 19.7148 78.6289 19.6361 78.7148 19.5215C78.8008 19.4069 78.8939 19.2852 78.9941 19.1562C79.0944 19.013 79.1875 18.8841 79.2734 18.7695C79.3594 18.6406 79.4167 18.5547 79.4453 18.5117C79.4453 18.3255 79.431 18.1035 79.4023 17.8457C79.388 17.5736 79.3952 17.3229 79.4238 17.0938C79.4668 16.8503 79.5527 16.6497 79.6816 16.4922C79.8105 16.3203 80.0254 16.2344 80.3262 16.2344C80.498 16.2344 80.6413 16.2988 80.7559 16.4277C80.8704 16.5423 81.0137 16.5996 81.1855 16.5996H81.2715C81.8587 16.1413 82.4603 15.7402 83.0762 15.3965C83.7064 15.0384 84.4082 14.8594 85.1816 14.8594C85.6829 14.8594 86.0911 15.0098 86.4062 15.3105C86.7357 15.597 86.9004 16.0052 86.9004 16.5352C86.9004 17.194 86.75 17.8743 86.4492 18.5762C86.1484 19.278 85.7689 19.9655 85.3105 20.6387C84.8665 21.2975 84.3796 21.9206 83.8496 22.5078C83.334 23.0951 82.8613 23.6035 82.4316 24.0332C82.3887 24.0905 82.3242 24.1549 82.2383 24.2266C82.1523 24.2839 82.0736 24.3483 82.002 24.4199C81.916 24.4915 81.8229 24.5775 81.7227 24.6777L81.5508 29.6191C81.5508 29.748 81.5436 29.8841 81.5293 30.0273C81.5293 30.1706 81.5007 30.2995 81.4434 30.4141C81.4004 30.543 81.3288 30.6432 81.2285 30.7148C81.1426 30.8008 81.0137 30.8438 80.8418 30.8438C80.7559 30.8438 80.6413 30.8223 80.498 30.7793C80.3548 30.7507 80.2188 30.7005 80.0898 30.6289C79.9609 30.5573 79.8464 30.4714 79.7461 30.3711C79.6602 30.2708 79.6172 30.1562 79.6172 30.0273L79.4453 21.1328ZM81.4434 22.4863H81.5293C81.5436 22.4863 81.5866 22.4434 81.6582 22.3574C81.7441 22.2715 81.8372 22.1712 81.9375 22.0566C82.0521 21.9421 82.1595 21.8275 82.2598 21.7129C82.3743 21.584 82.4603 21.4837 82.5176 21.4121C82.9473 21.097 83.3411 20.7031 83.6992 20.2305C84.0573 19.7578 84.3438 19.2852 84.5586 18.8125C84.7878 18.3255 84.9238 17.8887 84.9668 17.502C85.0241 17.1152 84.9596 16.8503 84.7734 16.707C84.6016 16.5495 84.2936 16.5638 83.8496 16.75C83.4199 16.9362 82.8327 17.3659 82.0879 18.0391C81.916 18.1823 81.7585 18.347 81.6152 18.5332C81.472 18.7194 81.3861 18.9271 81.3574 19.1562L81.4434 22.4863ZM89.8867 18.7266C89.6862 18.7266 89.5072 18.7767 89.3496 18.877C89.1921 18.9772 89.0059 19.0273 88.791 19.0273C88.7624 19.0273 88.6836 19.0273 88.5547 19.0273C88.4401 19.013 88.3685 19.0059 88.3398 19.0059C88.2826 18.9342 88.2181 18.877 88.1465 18.834C88.0749 18.791 88.0033 18.748 87.9316 18.7051C87.86 18.6478 87.7956 18.5833 87.7383 18.5117C87.6953 18.4401 87.6738 18.3398 87.6738 18.2109C87.6738 17.9961 87.7598 17.8242 87.9316 17.6953C88.1035 17.5521 88.304 17.4303 88.5332 17.3301C88.7624 17.2298 88.9915 17.1367 89.2207 17.0508C89.4642 16.9648 89.6576 16.8646 89.8008 16.75V15.8047C89.8008 14.7448 89.7507 13.6849 89.6504 12.625C89.5501 11.5508 89.5 10.4909 89.5 9.44531C89.5 9.15885 89.5716 8.97266 89.7148 8.88672C89.8581 8.80078 90.0514 8.75781 90.2949 8.75781C90.5814 8.75781 90.7891 8.84375 90.918 9.01562C91.0612 9.17318 91.1615 9.3737 91.2188 9.61719C91.276 9.84635 91.3047 10.097 91.3047 10.3691C91.3047 10.627 91.3118 10.849 91.3262 11.0352C91.3262 11.2214 91.3405 11.5508 91.3691 12.0234C91.3978 12.4961 91.4264 12.9974 91.4551 13.5273C91.4837 14.0573 91.5124 14.5586 91.541 15.0312C91.5697 15.5039 91.5911 15.8333 91.6055 16.0195C91.6628 16.0052 91.7702 15.9694 91.9277 15.9121C92.0996 15.8405 92.2786 15.776 92.4648 15.7188C92.651 15.6471 92.8229 15.5827 92.9805 15.5254C93.1523 15.4681 93.2741 15.4251 93.3457 15.3965C93.7181 15.2389 94.1048 15.0671 94.5059 14.8809C94.9069 14.6803 95.3151 14.5801 95.7305 14.5801C96.0169 14.5801 96.2318 14.6803 96.375 14.8809C96.5326 15.0671 96.6113 15.2891 96.6113 15.5469C96.6113 15.7331 96.5397 15.8691 96.3965 15.9551C96.2533 16.041 96.1029 16.1198 95.9453 16.1914L92.0352 17.6523C91.9922 17.681 91.9492 17.7096 91.9062 17.7383C91.8633 17.7526 91.8203 17.7812 91.7773 17.8242V18.5117C91.7773 19.013 91.7845 19.5358 91.7988 20.0801C91.8275 20.61 91.8776 21.1257 91.9492 21.627C92.0208 22.0566 92.0996 22.4792 92.1855 22.8945C92.2715 23.3099 92.3145 23.7324 92.3145 24.1621C92.3145 24.291 92.2715 24.4629 92.1855 24.6777C92.0996 24.8926 91.9635 25 91.7773 25C91.3906 25 91.0755 24.8854 90.832 24.6562C90.5885 24.4271 90.4525 24.1191 90.4238 23.7324C90.3522 22.9876 90.2734 22.1712 90.1875 21.2832C90.1159 20.3952 90.0443 19.543 89.9727 18.7266H89.8867Z" fill="black"/>
<defs>
<filter id="filter0_i_4585_2503" x="1.95215" y="1.96155" width="110.593" height="33.5385" filterUnits="userSpaceOnUse" color-interpolation-filters="sRGB">
<feFlood flood-opacity="0" result="BackgroundImageFix"/>
<feBlend mode="normal" in="SourceGraphic" in2="BackgroundImageFix" result="shape"/>
<feColorMatrix in="SourceAlpha" type="matrix" values="0 0 0 0 0 0 0 0 0 0 0 0 0 0 0 0 0 0 127 0" result="hardAlpha"/>
<feOffset dx="4" dy="4"/>
<feComposite in2="hardAlpha" operator="arithmetic" k2="-1" k3="1"/>
<feColorMatrix type="matrix" values="0 0 0 0 0.694118 0 0 0 0 0.721569 0 0 0 0 0.741176 0 0 0 1 0"/>
<feBlend mode="multiply" in2="shape" result="effect1_innerShadow_4585_2503"/>
</filter>
</defs>
</svg>
