<svg width="69" height="37" viewBox="0 0 69 37" fill="none" xmlns="http://www.w3.org/2000/svg">
<g filter="url(#filter0_i_4585_2486)">
<path d="M63.0216 7.61228C66.541 11.6933 66.541 20.3656 66.541 20.3656C66.7307 28.2124 60.2761 34.5 52.0197 34.5C52.0198 31.5523 52.0195 2.00081 52.0195 2.00081C55.1629 1.66061 59.5022 3.53121 63.0216 7.61228Z" fill="white"/>
<path d="M18.7676 2H52.0195V34.5C52.0195 34.5 47.0872 34.2049 41.6372 34.5C38.5962 34.6647 32.2114 35.5 29.9275 35.5C23.5504 35.5 18.7676 34.5 18.7676 34.5V2Z" fill="white"/>
<path d="M5.14517 27.9432C0.335274 22.3612 1.47845 11.5 5.14549 8C8.81252 4.5 8.60485 4.5 11.9565 3.5C15.3082 2.5 18.7674 2 18.7674 2V34.5C13.1929 34.5 9.95507 33.5252 5.14517 27.9432Z" fill="white"/>
</g>
<path d="M18.7676 34.5C23.9653 34.5 23.788 35 28.983 35C34.1807 35 34.8071 34.4063 40.0048 34.4063C45.2026 34.4063 43.6783 34 48.8761 34" stroke="black" stroke-width="3" stroke-miterlimit="10" stroke-linecap="round" stroke-linejoin="round"/>
<path d="M2.00244 17.5C2.00244 7 9.6485 2 18.555 2C11.2202 2 2.52635 8 2.52635 17.5C2.52635 31.5 14.5763 34.5 18.2437 34.5C10.385 34.5 2.00244 28 2.00244 17.5Z" stroke="black" stroke-width="3" stroke-linecap="round" stroke-linejoin="round"/>
<path d="M67 19C67 29.5 57.7824 34 48.8759 34C56.2107 34 65.33 30.5 66.165 20.5C67.3303 6.54422 56.7346 2 50.7587 1.99999C58.6174 2 67 8.49998 67 19Z" stroke="black" stroke-width="3" stroke-linecap="round" stroke-linejoin="round"/>
<path d="M18.7676 2C24.1821 2 23.622 2 29.0337 2C34.4482 2 34.4647 1.5 39.8792 1.5C45.2937 1.5 45.5572 2.00001 50.9717 2.00001" stroke="black" stroke-width="3" stroke-miterlimit="10" stroke-linecap="round" stroke-linejoin="round"/>
<path d="M18.2148 19.5215C18.2148 19.3353 18.265 19.1562 18.3652 18.9844C18.4655 18.8125 18.6302 18.7266 18.8594 18.7266C18.9883 18.7266 19.0957 18.7695 19.1816 18.8555C19.2676 18.9414 19.3392 19.0488 19.3965 19.1777C19.4681 19.2923 19.5326 19.4141 19.5898 19.543C19.6471 19.6576 19.7116 19.7507 19.7832 19.8223C19.8835 19.9082 20.0553 20.0944 20.2988 20.3809C20.5566 20.6673 20.8145 20.9681 21.0723 21.2832C21.3301 21.5983 21.5664 21.8919 21.7812 22.1641C21.9961 22.4219 22.1178 22.5794 22.1465 22.6367C22.1751 22.6654 22.2181 22.7155 22.2754 22.7871C22.3327 22.8444 22.3757 22.8874 22.4043 22.916L22.4902 22.8301C22.4902 22.8158 22.4902 22.7441 22.4902 22.6152C22.5046 22.4863 22.5117 22.3431 22.5117 22.1855C22.5117 22.028 22.5117 21.8704 22.5117 21.7129C22.5117 21.541 22.5117 21.4049 22.5117 21.3047C22.5117 20.0729 22.4902 18.8555 22.4473 17.6523C22.4186 16.4349 22.4043 15.2103 22.4043 13.9785V10.9492C22.4473 10.7487 22.5332 10.6055 22.6621 10.5195C22.8053 10.4193 22.9701 10.3691 23.1562 10.3691C23.3568 10.3691 23.5501 10.4121 23.7363 10.498C23.9368 10.584 24.0658 10.7344 24.123 10.9492C24.0944 12.7396 24.1159 14.5013 24.1875 16.2344C24.2734 17.9674 24.3164 19.722 24.3164 21.498C24.3164 21.7129 24.3164 22.0208 24.3164 22.4219C24.3164 22.8086 24.2806 23.1953 24.209 23.582C24.1517 23.9688 24.0299 24.3053 23.8438 24.5918C23.6719 24.8783 23.4141 25.0215 23.0703 25.0215C23.0417 25.0215 22.9987 25.0143 22.9414 25C22.8984 25 22.8698 25 22.8555 25C22.7839 24.9714 22.6549 24.8997 22.4688 24.7852C22.2826 24.6706 22.1751 24.5846 22.1465 24.5273L18.6016 20.5527C18.4297 20.3665 18.3223 20.2018 18.2793 20.0586C18.2363 19.901 18.2148 19.722 18.2148 19.5215ZM30.4395 19.0059C30.3105 19.235 30.1602 19.5143 29.9883 19.8438C29.8307 20.1589 29.6589 20.5026 29.4727 20.875C29.2865 21.2331 29.0788 21.5983 28.8496 21.9707C28.6348 22.3288 28.4056 22.6582 28.1621 22.959C27.9329 23.2598 27.6895 23.5176 27.4316 23.7324C27.1738 23.9329 26.9089 24.0547 26.6367 24.0977C26.5221 24.0977 26.3932 24.0905 26.25 24.0762C26.1068 24.0475 25.9635 24.0117 25.8203 23.9688C25.6771 23.9115 25.5553 23.8398 25.4551 23.7539C25.3691 23.6536 25.3262 23.5247 25.3262 23.3672C25.3405 21.9062 25.4479 20.5814 25.6484 19.3926C25.849 18.1895 26.1641 17.1367 26.5938 16.2344C27.0234 15.3177 27.5749 14.5586 28.248 13.957C28.9212 13.3555 29.7376 12.9258 30.6973 12.668C30.7259 12.668 30.776 12.668 30.8477 12.668C30.9336 12.6536 30.9909 12.6465 31.0195 12.6465C31.4492 12.6322 31.7572 12.8327 31.9434 13.248C32.1439 13.6491 32.2871 14.2936 32.373 15.1816C32.4733 16.0553 32.5378 17.1868 32.5664 18.5762C32.6094 19.9512 32.6882 21.6055 32.8027 23.5391C32.8457 23.6966 32.8672 23.8327 32.8672 23.9473C32.8815 24.0618 32.8887 24.1979 32.8887 24.3555C32.8887 24.5703 32.8242 24.735 32.6953 24.8496C32.5664 24.9499 32.4017 25 32.2012 25C31.7858 25 31.4922 24.8854 31.3203 24.6562C31.1484 24.4271 31.0339 24.1191 30.9766 23.7324C30.9766 23.7181 30.9622 23.6035 30.9336 23.3887C30.9193 23.1738 30.8906 22.9303 30.8477 22.6582C30.819 22.3717 30.7904 22.0853 30.7617 21.7988C30.7331 21.5124 30.7116 21.276 30.6973 21.0898V21.0039C30.6686 20.8607 30.6471 20.6816 30.6328 20.4668C30.6328 20.252 30.6185 20.0443 30.5898 19.8438C30.5612 19.6003 30.5397 19.3568 30.5254 19.1133L30.4395 19.0059ZM29.9668 14.752C29.5801 15.0384 29.2005 15.4251 28.8281 15.9121C28.4557 16.3991 28.1908 16.8717 28.0332 17.3301C27.9616 17.5449 27.8828 17.8385 27.7969 18.2109C27.7109 18.5833 27.6322 18.9557 27.5605 19.3281C27.5033 19.6862 27.4531 20.0228 27.4102 20.3379C27.3672 20.6387 27.3457 20.832 27.3457 20.918C27.36 20.918 27.3743 20.9036 27.3887 20.875C27.4173 20.8464 27.4388 20.8249 27.4531 20.8105C28.3411 19.9512 28.9642 19.0273 29.3223 18.0391C29.6947 17.0365 29.9095 15.9408 29.9668 14.752ZM36.2402 21.9277L33.877 16.1914C33.8626 16.1771 33.8555 16.1628 33.8555 16.1484V16.0625C33.8555 15.9336 33.8913 15.8262 33.9629 15.7402C34.0488 15.64 34.1491 15.554 34.2637 15.4824C34.2923 15.4824 34.3496 15.4824 34.4355 15.4824C34.5215 15.4681 34.5788 15.4609 34.6074 15.4609C34.8796 15.4609 35.0729 15.5039 35.1875 15.5898C35.3164 15.6758 35.4811 15.7904 35.6816 15.9336C35.7389 16.1484 35.8105 16.3704 35.8965 16.5996C35.9967 16.8288 36.1113 17.1224 36.2402 17.4805C36.3835 17.8242 36.5625 18.2611 36.7773 18.791C36.9922 19.321 37.2643 19.9941 37.5938 20.8105L37.7012 20.918C37.7441 20.8464 37.7799 20.7533 37.8086 20.6387C37.8516 20.5241 37.916 20.3236 38.002 20.0371C38.1022 19.7507 38.2383 19.3353 38.4102 18.791C38.582 18.2467 38.8255 17.5091 39.1406 16.5781C39.2552 16.3919 39.334 16.1771 39.377 15.9336C39.4199 15.6901 39.4701 15.4609 39.5273 15.2461C39.5846 15.0312 39.6706 14.8522 39.7852 14.709C39.9141 14.5658 40.1074 14.4941 40.3652 14.4941C40.6087 14.4941 40.8451 14.5944 41.0742 14.7949C41.3034 14.9811 41.418 15.2103 41.418 15.4824C41.418 15.6113 41.375 15.7546 41.2891 15.9121C41.2031 16.0553 41.1172 16.1771 41.0312 16.2773L38.4102 25H38.2812C38.224 25 38.138 24.9928 38.0234 24.9785C37.9232 24.9642 37.8158 24.9427 37.7012 24.9141C37.5866 24.8711 37.4863 24.8281 37.4004 24.7852C37.3145 24.7422 37.2643 24.6921 37.25 24.6348L36.2402 22.0137V21.9277ZM47.3477 19.0059C47.2188 19.235 47.0684 19.5143 46.8965 19.8438C46.7389 20.1589 46.5671 20.5026 46.3809 20.875C46.1947 21.2331 45.987 21.5983 45.7578 21.9707C45.543 22.3288 45.3138 22.6582 45.0703 22.959C44.8411 23.2598 44.5977 23.5176 44.3398 23.7324C44.082 23.9329 43.8171 24.0547 43.5449 24.0977C43.4303 24.0977 43.3014 24.0905 43.1582 24.0762C43.015 24.0475 42.8717 24.0117 42.7285 23.9688C42.5853 23.9115 42.4635 23.8398 42.3633 23.7539C42.2773 23.6536 42.2344 23.5247 42.2344 23.3672C42.2487 21.9062 42.3561 20.5814 42.5566 19.3926C42.7572 18.1895 43.0723 17.1367 43.502 16.2344C43.9316 15.3177 44.4831 14.5586 45.1562 13.957C45.8294 13.3555 46.6458 12.9258 47.6055 12.668C47.6341 12.668 47.6842 12.668 47.7559 12.668C47.8418 12.6536 47.8991 12.6465 47.9277 12.6465C48.3574 12.6322 48.6654 12.8327 48.8516 13.248C49.0521 13.6491 49.1953 14.2936 49.2812 15.1816C49.3815 16.0553 49.446 17.1868 49.4746 18.5762C49.5176 19.9512 49.5964 21.6055 49.7109 23.5391C49.7539 23.6966 49.7754 23.8327 49.7754 23.9473C49.7897 24.0618 49.7969 24.1979 49.7969 24.3555C49.7969 24.5703 49.7324 24.735 49.6035 24.8496C49.4746 24.9499 49.3099 25 49.1094 25C48.694 25 48.4004 24.8854 48.2285 24.6562C48.0566 24.4271 47.9421 24.1191 47.8848 23.7324C47.8848 23.7181 47.8704 23.6035 47.8418 23.3887C47.8275 23.1738 47.7988 22.9303 47.7559 22.6582C47.7272 22.3717 47.6986 22.0853 47.6699 21.7988C47.6413 21.5124 47.6198 21.276 47.6055 21.0898V21.0039C47.5768 20.8607 47.5553 20.6816 47.541 20.4668C47.541 20.252 47.5267 20.0443 47.498 19.8438C47.4694 19.6003 47.4479 19.3568 47.4336 19.1133L47.3477 19.0059ZM46.875 14.752C46.4883 15.0384 46.1087 15.4251 45.7363 15.9121C45.3639 16.3991 45.099 16.8717 44.9414 17.3301C44.8698 17.5449 44.791 17.8385 44.7051 18.2109C44.6191 18.5833 44.5404 18.9557 44.4688 19.3281C44.4115 19.6862 44.3613 20.0228 44.3184 20.3379C44.2754 20.6387 44.2539 20.832 44.2539 20.918C44.2682 20.918 44.2826 20.9036 44.2969 20.875C44.3255 20.8464 44.347 20.8249 44.3613 20.8105C45.2493 19.9512 45.8724 19.0273 46.2305 18.0391C46.6029 17.0365 46.8177 15.9408 46.875 14.752Z" fill="black"/>
<defs>
<filter id="filter0_i_4585_2486" x="1.95215" y="1.96155" width="64.5928" height="33.5385" filterUnits="userSpaceOnUse" color-interpolation-filters="sRGB">
<feFlood flood-opacity="0" result="BackgroundImageFix"/>
<feBlend mode="normal" in="SourceGraphic" in2="BackgroundImageFix" result="shape"/>
<feColorMatrix in="SourceAlpha" type="matrix" values="0 0 0 0 0 0 0 0 0 0 0 0 0 0 0 0 0 0 127 0" result="hardAlpha"/>
<feOffset dx="4" dy="4"/>
<feComposite in2="hardAlpha" operator="arithmetic" k2="-1" k3="1"/>
<feColorMatrix type="matrix" values="0 0 0 0 0.694118 0 0 0 0 0.721569 0 0 0 0 0.741176 0 0 0 1 0"/>
<feBlend mode="multiply" in2="shape" result="effect1_innerShadow_4585_2486"/>
</filter>
</defs>
</svg>
