<svg width="239" height="37" viewBox="0 0 239 37" fill="none" xmlns="http://www.w3.org/2000/svg">
<g filter="url(#filter0_i_4585_2775)">
<path d="M233.022 7.61228C236.541 11.6933 236.541 20.3656 236.541 20.3656C236.731 28.2124 230.276 34.5 222.02 34.5C222.02 31.5523 222.02 2.00081 222.02 2.00081C225.163 1.66061 229.502 3.53121 233.022 7.61228Z" fill="white"/>
<path d="M18.7676 2H222.02V34.5C222.02 34.5 191.871 34.2049 158.558 34.5C139.97 34.6647 100.943 35.5 86.9823 35.5C48.0024 35.5 18.7676 34.5 18.7676 34.5V2Z" fill="white"/>
<path d="M5.14517 27.9432C0.335274 22.3612 1.47845 11.5 5.14549 8C8.81252 4.5 8.60485 4.5 11.9565 3.5C15.3082 2.5 18.7674 2 18.7674 2V34.5C13.1929 34.5 9.95507 33.5252 5.14517 27.9432Z" fill="white"/>
</g>
<path d="M18.7676 34.5C53.3132 34.5 52.1342 35 86.6615 35C121.207 35 125.37 34.4063 159.916 34.4063C194.461 34.4063 184.33 34 218.876 34" stroke="black" stroke-width="3" stroke-miterlimit="10" stroke-linecap="round" stroke-linejoin="round"/>
<path d="M2.00244 17.5C2.00244 7 9.6485 2 18.555 2C11.2202 2 2.52635 8 2.52635 17.5C2.52635 31.5 14.5763 34.5 18.2437 34.5C10.385 34.5 2.00244 28 2.00244 17.5Z" stroke="black" stroke-width="3" stroke-linecap="round" stroke-linejoin="round"/>
<path d="M237 19C237 29.5 227.782 34 218.876 34C226.211 34 235.33 30.5 236.165 20.5C237.33 6.54422 226.735 2 220.759 1.99999C228.617 2 237 8.49998 237 19Z" stroke="black" stroke-width="3" stroke-linecap="round" stroke-linejoin="round"/>
<path d="M18.7676 2C52.7643 2 49.2477 2 83.2265 2C117.223 2 117.327 1.5 151.324 1.5C185.32 1.5 186.975 2.00001 220.972 2.00001" stroke="black" stroke-width="3" stroke-miterlimit="10" stroke-linecap="round" stroke-linejoin="round"/>
<path d="M18.6875 21.6699C18.6875 20.5671 18.7018 19.4714 18.7305 18.3828C18.7734 17.2943 18.7949 16.1914 18.7949 15.0742C18.7949 14.4297 18.7591 13.7852 18.6875 13.1406C18.6302 12.4961 18.6016 11.8516 18.6016 11.207C18.6016 11.0065 18.6589 10.8346 18.7734 10.6914C18.9023 10.5482 19.0671 10.4766 19.2676 10.4766C19.6113 10.4766 19.8691 10.5482 20.041 10.6914C20.2129 10.8346 20.3346 11.0137 20.4062 11.2285C20.4779 11.4434 20.5137 11.6868 20.5137 11.959C20.5137 12.2311 20.5137 12.4961 20.5137 12.7539C20.5137 12.8112 20.5137 12.9544 20.5137 13.1836C20.528 13.4128 20.5423 13.6634 20.5566 13.9355C20.571 14.1934 20.5781 14.4368 20.5781 14.666C20.5924 14.8952 20.5996 15.0384 20.5996 15.0957V15.8047C20.5996 16.7357 20.5853 17.6595 20.5566 18.5762C20.528 19.4928 20.5137 20.4238 20.5137 21.3691V22.2715C20.5137 22.3431 20.5208 22.4434 20.5352 22.5723C20.5638 22.6868 20.5853 22.7441 20.5996 22.7441H20.7715L25.8633 20.7246C25.9779 20.6243 26.0781 20.5742 26.1641 20.5742C26.25 20.5599 26.3503 20.5527 26.4648 20.5527C26.5365 20.5527 26.6296 20.5599 26.7441 20.5742C26.8587 20.5742 26.9661 20.5957 27.0664 20.6387C27.181 20.6673 27.2741 20.7174 27.3457 20.7891C27.4316 20.8464 27.4746 20.9395 27.4746 21.0684C27.4746 21.3978 27.2956 21.6842 26.9375 21.9277C26.4792 22.1712 26.0065 22.4004 25.5195 22.6152C25.0326 22.8158 24.5384 22.9805 24.0371 23.1094L23.9297 23.1953C23.2422 23.3815 22.5977 23.6536 21.9961 24.0117C21.4089 24.3698 20.793 24.6992 20.1484 25H19.9551C19.5684 25 19.2819 24.8711 19.0957 24.6133C18.9095 24.3555 18.7878 24.0547 18.7305 23.7109C18.6732 23.3529 18.6517 22.9876 18.666 22.6152C18.6803 22.2285 18.6875 21.9134 18.6875 21.6699ZM37.0781 18.8984C37.0495 19.1562 37.0137 19.3568 36.9707 19.5C36.9421 19.6432 36.8848 19.7721 36.7988 19.8867C36.7129 20.0013 36.5911 20.123 36.4336 20.252C36.276 20.3665 36.0612 20.5384 35.7891 20.7676C35.5169 20.9824 35.1803 21.2689 34.7793 21.627C34.3783 21.985 33.8913 22.4505 33.3184 23.0234C33.0892 23.2383 32.8529 23.4603 32.6094 23.6895C32.3659 23.9186 32.1081 24.1263 31.8359 24.3125C31.5781 24.4844 31.306 24.6276 31.0195 24.7422C30.7331 24.8568 30.4323 24.9141 30.1172 24.9141C29.5013 24.9141 29.0501 24.7064 28.7637 24.291C28.4772 23.8757 28.334 23.3958 28.334 22.8516C28.334 22.4935 28.3411 22.1927 28.3555 21.9492C28.3841 21.7057 28.4414 21.3906 28.5273 21.0039C28.3698 20.8607 28.2337 20.7389 28.1191 20.6387C28.0046 20.5241 27.9473 20.3737 27.9473 20.1875C27.9473 20.0156 27.9831 19.901 28.0547 19.8438C28.1406 19.7865 28.2337 19.7507 28.334 19.7363C28.4486 19.7077 28.556 19.679 28.6562 19.6504C28.7565 19.6217 28.8281 19.5645 28.8711 19.4785C28.8997 19.3926 28.9499 19.235 29.0215 19.0059C29.1074 18.7767 29.1934 18.5404 29.2793 18.2969C29.3652 18.0391 29.444 17.8027 29.5156 17.5879C29.6016 17.3587 29.6589 17.2012 29.6875 17.1152C29.7878 16.8717 29.8952 16.6283 30.0098 16.3848C30.1387 16.127 30.2819 15.8978 30.4395 15.6973C30.6113 15.4967 30.8047 15.332 31.0195 15.2031C31.2487 15.0742 31.5137 15.0098 31.8145 15.0098C31.9863 15.0098 32.194 15.0885 32.4375 15.2461C32.6953 15.4036 32.9388 15.597 33.168 15.8262C33.3971 16.041 33.5905 16.2702 33.748 16.5137C33.9056 16.7572 33.9844 16.9648 33.9844 17.1367C33.9844 17.3516 33.9342 17.5521 33.834 17.7383C33.7337 17.9102 33.6048 18.0749 33.4473 18.2324C33.304 18.3757 33.1465 18.5117 32.9746 18.6406C32.8027 18.7695 32.6452 18.8913 32.502 19.0059C32.4876 19.0059 32.459 19.0202 32.416 19.0488C32.373 19.0775 32.3372 19.099 32.3086 19.1133C32.2943 19.1276 32.2585 19.1634 32.2012 19.2207C32.1582 19.2637 32.1081 19.3138 32.0508 19.3711C31.9935 19.4284 31.9362 19.4857 31.8789 19.543C31.8359 19.6003 31.8073 19.6361 31.793 19.6504C31.75 19.6934 31.6641 19.765 31.5352 19.8652C31.4206 19.9512 31.2917 20.0514 31.1484 20.166C31.0052 20.2663 30.8691 20.3665 30.7402 20.4668C30.6257 20.5527 30.5469 20.61 30.5039 20.6387L30.418 20.8105C30.3893 20.8678 30.3607 20.9967 30.332 21.1973C30.3177 21.3835 30.2962 21.5983 30.2676 21.8418C30.2389 22.0853 30.2103 22.3359 30.1816 22.5938C30.1673 22.8372 30.1602 23.0378 30.1602 23.1953C30.1602 23.2096 30.1673 23.224 30.1816 23.2383C30.2103 23.2669 30.2318 23.2812 30.2461 23.2812C30.3607 23.2812 30.4681 23.2311 30.5684 23.1309C30.6686 23.0306 30.776 22.959 30.8906 22.916L34.3281 19.7363L35.209 18.3828C35.2806 18.2826 35.4167 18.1751 35.6172 18.0605C35.832 17.9316 36.0469 17.8672 36.2617 17.8672C36.4766 17.8529 36.6628 17.9173 36.8203 18.0605C36.9922 18.2038 37.0781 18.4831 37.0781 18.8984ZM32.3516 17.2227C32.4232 17.1654 32.4518 17.0794 32.4375 16.9648C32.4232 16.8503 32.3802 16.75 32.3086 16.6641C32.2513 16.5781 32.1725 16.528 32.0723 16.5137C31.972 16.485 31.8789 16.5352 31.793 16.6641C31.75 16.7214 31.6712 16.8359 31.5566 17.0078C31.4564 17.1797 31.349 17.3587 31.2344 17.5449C31.1341 17.7168 31.0482 17.8672 30.9766 17.9961C30.9049 18.125 30.8906 18.1751 30.9336 18.1465L32.3516 17.2227ZM42.6641 19.0059C42.5352 19.235 42.3848 19.5143 42.2129 19.8438C42.0553 20.1589 41.8835 20.5026 41.6973 20.875C41.5111 21.2331 41.3034 21.5983 41.0742 21.9707C40.8594 22.3288 40.6302 22.6582 40.3867 22.959C40.1576 23.2598 39.9141 23.5176 39.6562 23.7324C39.3984 23.9329 39.1335 24.0547 38.8613 24.0977C38.7467 24.0977 38.6178 24.0905 38.4746 24.0762C38.3314 24.0475 38.1882 24.0117 38.0449 23.9688C37.9017 23.9115 37.7799 23.8398 37.6797 23.7539C37.5938 23.6536 37.5508 23.5247 37.5508 23.3672C37.5651 21.9062 37.6725 20.5814 37.873 19.3926C38.0736 18.1895 38.3887 17.1367 38.8184 16.2344C39.248 15.3177 39.7995 14.5586 40.4727 13.957C41.1458 13.3555 41.9622 12.9258 42.9219 12.668C42.9505 12.668 43.0007 12.668 43.0723 12.668C43.1582 12.6536 43.2155 12.6465 43.2441 12.6465C43.6738 12.6322 43.9818 12.8327 44.168 13.248C44.3685 13.6491 44.5117 14.2936 44.5977 15.1816C44.6979 16.0553 44.7624 17.1868 44.791 18.5762C44.834 19.9512 44.9128 21.6055 45.0273 23.5391C45.0703 23.6966 45.0918 23.8327 45.0918 23.9473C45.1061 24.0618 45.1133 24.1979 45.1133 24.3555C45.1133 24.5703 45.0488 24.735 44.9199 24.8496C44.791 24.9499 44.6263 25 44.4258 25C44.0104 25 43.7168 24.8854 43.5449 24.6562C43.373 24.4271 43.2585 24.1191 43.2012 23.7324C43.2012 23.7181 43.1868 23.6035 43.1582 23.3887C43.1439 23.1738 43.1152 22.9303 43.0723 22.6582C43.0436 22.3717 43.015 22.0853 42.9863 21.7988C42.9577 21.5124 42.9362 21.276 42.9219 21.0898V21.0039C42.8932 20.8607 42.8717 20.6816 42.8574 20.4668C42.8574 20.252 42.8431 20.0443 42.8145 19.8438C42.7858 19.6003 42.7643 19.3568 42.75 19.1133L42.6641 19.0059ZM42.1914 14.752C41.8047 15.0384 41.4251 15.4251 41.0527 15.9121C40.6803 16.3991 40.4154 16.8717 40.2578 17.3301C40.1862 17.5449 40.1074 17.8385 40.0215 18.2109C39.9355 18.5833 39.8568 18.9557 39.7852 19.3281C39.7279 19.6862 39.6777 20.0228 39.6348 20.3379C39.5918 20.6387 39.5703 20.832 39.5703 20.918C39.5846 20.918 39.599 20.9036 39.6133 20.875C39.6419 20.8464 39.6634 20.8249 39.6777 20.8105C40.5658 19.9512 41.1888 19.0273 41.5469 18.0391C41.9193 17.0365 42.1341 15.9408 42.1914 14.752ZM51.623 21.6055C51.6087 21.6055 51.5085 21.763 51.3223 22.0781C51.1504 22.3932 50.9141 22.737 50.6133 23.1094C50.3125 23.4818 49.9544 23.8255 49.5391 24.1406C49.138 24.4557 48.7083 24.6133 48.25 24.6133C47.6198 24.6133 47.0898 24.4199 46.6602 24.0332C46.2448 23.6465 46.0371 23.1165 46.0371 22.4434C46.0085 22.0996 46.0514 21.6914 46.166 21.2188C46.2949 20.7461 46.474 20.2591 46.7031 19.7578C46.9466 19.2422 47.2331 18.748 47.5625 18.2754C47.9062 17.7884 48.2715 17.373 48.6582 17.0293C49.0449 16.6712 49.446 16.4062 49.8613 16.2344C50.291 16.0625 50.7207 16.0339 51.1504 16.1484V15.8477C51.1504 15.4753 51.1361 15.0957 51.1074 14.709C51.0931 14.3079 51.0716 13.8568 51.043 13.3555C51.0286 12.8398 51.0072 12.2526 50.9785 11.5938C50.9642 10.9206 50.957 10.1185 50.957 9.1875C51 9.02995 51.0716 8.92969 51.1719 8.88672C51.2865 8.82943 51.4082 8.80078 51.5371 8.80078C51.8665 8.80078 52.1243 8.9082 52.3105 9.12305C52.5111 9.33789 52.6328 9.60286 52.6758 9.91797C52.6471 10.4049 52.6328 10.9062 52.6328 11.4219C52.6471 11.9232 52.6758 12.4961 52.7188 13.1406C52.7617 13.7852 52.8262 14.5156 52.9121 15.332C53.0124 16.1484 53.1341 17.1152 53.2773 18.2324C53.4206 19.3353 53.5924 20.61 53.793 22.0566C53.9935 23.4889 54.2298 25.1504 54.502 27.041V27.7715C54.502 27.8574 54.4661 27.9219 54.3945 27.9648C54.3372 28.0078 54.2585 28.0365 54.1582 28.0508C54.0723 28.0794 53.9792 28.0938 53.8789 28.0938C53.793 28.1081 53.7285 28.1152 53.6855 28.1152C53.4707 28.1152 53.2415 28.0508 52.998 27.9219C52.7546 27.8073 52.6113 27.6426 52.5684 27.4277L51.7734 21.6914C51.7734 21.6484 51.752 21.627 51.709 21.627C51.6803 21.6126 51.6517 21.6055 51.623 21.6055ZM47.8418 22.0781C47.8418 22.1211 47.8346 22.1999 47.8203 22.3145C47.8203 22.4147 47.8203 22.5221 47.8203 22.6367C47.8346 22.7513 47.8561 22.8516 47.8848 22.9375C47.9134 23.0234 47.9707 23.0664 48.0566 23.0664C48.4147 23.0807 48.7799 22.9447 49.1523 22.6582C49.5391 22.3717 49.89 22.0208 50.2051 21.6055C50.5202 21.1758 50.778 20.7174 50.9785 20.2305C51.1934 19.7435 51.3079 19.3066 51.3223 18.9199C51.3509 18.5332 51.2578 18.2396 51.043 18.0391C50.8424 17.8242 50.4915 17.7741 49.9902 17.8887C49.3743 18.4329 48.8587 19.056 48.4434 19.7578C48.0423 20.4596 47.8418 21.2331 47.8418 22.0781ZM64.0625 18.8984C64.0339 19.1562 63.998 19.3568 63.9551 19.5C63.9264 19.6432 63.8691 19.7721 63.7832 19.8867C63.6973 20.0013 63.5755 20.123 63.418 20.252C63.2604 20.3665 63.0456 20.5384 62.7734 20.7676C62.5013 20.9824 62.1647 21.2689 61.7637 21.627C61.3626 21.985 60.8757 22.4505 60.3027 23.0234C60.0736 23.2383 59.8372 23.4603 59.5938 23.6895C59.3503 23.9186 59.0924 24.1263 58.8203 24.3125C58.5625 24.4844 58.2904 24.6276 58.0039 24.7422C57.7174 24.8568 57.4167 24.9141 57.1016 24.9141C56.4857 24.9141 56.0345 24.7064 55.748 24.291C55.4616 23.8757 55.3184 23.3958 55.3184 22.8516C55.3184 22.4935 55.3255 22.1927 55.3398 21.9492C55.3685 21.7057 55.4258 21.3906 55.5117 21.0039C55.3542 20.8607 55.2181 20.7389 55.1035 20.6387C54.9889 20.5241 54.9316 20.3737 54.9316 20.1875C54.9316 20.0156 54.9674 19.901 55.0391 19.8438C55.125 19.7865 55.2181 19.7507 55.3184 19.7363C55.4329 19.7077 55.5404 19.679 55.6406 19.6504C55.7409 19.6217 55.8125 19.5645 55.8555 19.4785C55.8841 19.3926 55.9342 19.235 56.0059 19.0059C56.0918 18.7767 56.1777 18.5404 56.2637 18.2969C56.3496 18.0391 56.4284 17.8027 56.5 17.5879C56.5859 17.3587 56.6432 17.2012 56.6719 17.1152C56.7721 16.8717 56.8796 16.6283 56.9941 16.3848C57.123 16.127 57.2663 15.8978 57.4238 15.6973C57.5957 15.4967 57.7891 15.332 58.0039 15.2031C58.2331 15.0742 58.498 15.0098 58.7988 15.0098C58.9707 15.0098 59.1784 15.0885 59.4219 15.2461C59.6797 15.4036 59.9232 15.597 60.1523 15.8262C60.3815 16.041 60.5749 16.2702 60.7324 16.5137C60.89 16.7572 60.9688 16.9648 60.9688 17.1367C60.9688 17.3516 60.9186 17.5521 60.8184 17.7383C60.7181 17.9102 60.5892 18.0749 60.4316 18.2324C60.2884 18.3757 60.1309 18.5117 59.959 18.6406C59.7871 18.7695 59.6296 18.8913 59.4863 19.0059C59.472 19.0059 59.4434 19.0202 59.4004 19.0488C59.3574 19.0775 59.3216 19.099 59.293 19.1133C59.2786 19.1276 59.2428 19.1634 59.1855 19.2207C59.1426 19.2637 59.0924 19.3138 59.0352 19.3711C58.9779 19.4284 58.9206 19.4857 58.8633 19.543C58.8203 19.6003 58.7917 19.6361 58.7773 19.6504C58.7344 19.6934 58.6484 19.765 58.5195 19.8652C58.4049 19.9512 58.276 20.0514 58.1328 20.166C57.9896 20.2663 57.8535 20.3665 57.7246 20.4668C57.61 20.5527 57.5312 20.61 57.4883 20.6387L57.4023 20.8105C57.3737 20.8678 57.3451 20.9967 57.3164 21.1973C57.3021 21.3835 57.2806 21.5983 57.252 21.8418C57.2233 22.0853 57.1947 22.3359 57.166 22.5938C57.1517 22.8372 57.1445 23.0378 57.1445 23.1953C57.1445 23.2096 57.1517 23.224 57.166 23.2383C57.1947 23.2669 57.2161 23.2812 57.2305 23.2812C57.3451 23.2812 57.4525 23.2311 57.5527 23.1309C57.653 23.0306 57.7604 22.959 57.875 22.916L61.3125 19.7363L62.1934 18.3828C62.265 18.2826 62.401 18.1751 62.6016 18.0605C62.8164 17.9316 63.0312 17.8672 63.2461 17.8672C63.4609 17.8529 63.6471 17.9173 63.8047 18.0605C63.9766 18.2038 64.0625 18.4831 64.0625 18.8984ZM59.3359 17.2227C59.4076 17.1654 59.4362 17.0794 59.4219 16.9648C59.4076 16.8503 59.3646 16.75 59.293 16.6641C59.2357 16.5781 59.1569 16.528 59.0566 16.5137C58.9564 16.485 58.8633 16.5352 58.7773 16.6641C58.7344 16.7214 58.6556 16.8359 58.541 17.0078C58.4408 17.1797 58.3333 17.3587 58.2188 17.5449C58.1185 17.7168 58.0326 17.8672 57.9609 17.9961C57.8893 18.125 57.875 18.1751 57.918 18.1465L59.3359 17.2227ZM65.6094 24.0762C65.5807 23.5605 65.5306 22.873 65.459 22.0137C65.4017 21.14 65.3301 20.2376 65.2441 19.3066C65.1725 18.3757 65.0938 17.4948 65.0078 16.6641C64.9219 15.8333 64.8503 15.1888 64.793 14.7305C64.793 14.5443 64.8789 14.4225 65.0508 14.3652C65.2227 14.3079 65.3874 14.2793 65.5449 14.2793C65.7454 14.2793 65.9531 14.3366 66.168 14.4512C66.3971 14.5658 66.5404 14.7233 66.5977 14.9238C66.5977 14.9811 66.6048 15.0885 66.6191 15.2461C66.6335 15.3893 66.6406 15.5397 66.6406 15.6973C66.6549 15.8548 66.6693 16.0124 66.6836 16.1699C66.6979 16.3132 66.7051 16.4134 66.7051 16.4707C66.7051 16.5566 66.7051 16.6211 66.7051 16.6641C66.7051 16.707 66.7051 16.75 66.7051 16.793C66.7051 16.8216 66.7122 16.8574 66.7266 16.9004C66.7409 16.9434 66.7624 17.015 66.791 17.1152C66.8197 17.0866 66.8483 17.0508 66.877 17.0078C66.9199 16.9648 66.9486 16.9362 66.9629 16.9219C67.1921 16.5924 67.4141 16.306 67.6289 16.0625C67.8438 15.8047 68.0658 15.5684 68.2949 15.3535C68.5241 15.1243 68.7747 14.888 69.0469 14.6445C69.3333 14.3867 69.6628 14.0931 70.0352 13.7637C70.1211 13.6921 70.1855 13.6419 70.2285 13.6133C70.2715 13.5703 70.3073 13.5417 70.3359 13.5273C70.3789 13.4987 70.4219 13.4844 70.4648 13.4844C70.5078 13.4701 70.5651 13.4629 70.6367 13.4629C70.8802 13.4629 71.1237 13.5488 71.3672 13.7207C71.625 13.8783 71.7539 14.1003 71.7539 14.3867C71.7539 14.487 71.7181 14.5944 71.6465 14.709C71.5749 14.8092 71.4889 14.9095 71.3887 15.0098C71.2884 15.0957 71.181 15.1745 71.0664 15.2461C70.9661 15.3177 70.873 15.3678 70.7871 15.3965C70.4147 15.7259 70.0208 16.1055 69.6055 16.5352C69.1901 16.9505 68.8034 17.4017 68.4453 17.8887C68.0872 18.3757 67.7936 18.8841 67.5645 19.4141C67.3353 19.944 67.2207 20.474 67.2207 21.0039C67.2207 21.4909 67.2565 21.9707 67.3281 22.4434C67.3997 22.916 67.4355 23.3958 67.4355 23.8828V24.6348C67.321 24.7493 67.2207 24.8424 67.1348 24.9141C67.0488 24.9857 66.9271 25.0215 66.7695 25.0215C66.526 25.0215 66.2897 24.9212 66.0605 24.7207C65.8314 24.5059 65.681 24.291 65.6094 24.0762ZM75.5566 24.1836C75.5566 24.112 75.5566 24.0475 75.5566 23.9902C75.571 23.9329 75.6068 23.8757 75.6641 23.8184C75.8359 23.6035 76.0293 23.3815 76.2441 23.1523C76.459 22.9089 76.6667 22.6725 76.8672 22.4434C77.0677 22.1999 77.2539 21.9492 77.4258 21.6914C77.5977 21.4336 77.7409 21.1758 77.8555 20.918V20.7891L75.041 21.3691H74.7188C74.5182 21.3691 74.2676 21.3548 73.9668 21.3262C73.6803 21.2975 73.3939 21.2402 73.1074 21.1543C72.8353 21.054 72.599 20.918 72.3984 20.7461C72.2122 20.5742 72.1191 20.3451 72.1191 20.0586C72.1335 19.7292 72.3053 19.3639 72.6348 18.9629C72.9642 18.5618 73.3509 18.168 73.7949 17.7812C74.2389 17.3945 74.6829 17.0365 75.127 16.707C75.5853 16.3776 75.9505 16.1198 76.2227 15.9336C76.5234 15.7617 76.8815 15.6257 77.2969 15.5254C77.7122 15.4108 78.0918 15.3535 78.4355 15.3535C78.722 15.3535 78.9727 15.4108 79.1875 15.5254C79.4023 15.6257 79.5098 15.8333 79.5098 16.1484C79.5098 16.2773 79.4954 16.3991 79.4668 16.5137C79.4525 16.6283 79.3665 16.707 79.209 16.75C78.7507 16.707 78.321 16.7428 77.9199 16.8574C77.5189 16.9577 77.1393 17.1152 76.7812 17.3301C76.4232 17.5449 76.0866 17.8027 75.7715 18.1035C75.4564 18.39 75.1484 18.6908 74.8477 19.0059C74.7617 19.1061 74.6543 19.2493 74.5254 19.4355C74.3965 19.6074 74.332 19.7077 74.332 19.7363V19.7578C74.7044 19.7578 75.0697 19.722 75.4277 19.6504C75.8001 19.5788 76.1654 19.5072 76.5234 19.4355C76.8958 19.3496 77.2611 19.2708 77.6191 19.1992C77.9915 19.1276 78.3711 19.0918 78.7578 19.0918C78.901 19.0918 79.0586 19.1061 79.2305 19.1348C79.4023 19.1491 79.5599 19.1921 79.7031 19.2637C79.8607 19.3353 79.9824 19.4355 80.0684 19.5645C80.1686 19.679 80.2188 19.8294 80.2188 20.0156C80.2188 20.2878 80.1471 20.5527 80.0039 20.8105C79.875 21.054 79.6745 21.3548 79.4023 21.7129C79.1445 22.0566 78.8079 22.4792 78.3926 22.9805C77.9915 23.4818 77.5117 24.1263 76.9531 24.9141C76.9245 24.957 76.8529 24.9857 76.7383 25C76.638 25.0143 76.5521 25.0215 76.4805 25.0215C76.2799 25.0215 76.0723 24.9355 75.8574 24.7637C75.6569 24.5918 75.5566 24.3984 75.5566 24.1836ZM81.4863 14.4941C81.515 13.6348 81.4792 12.7754 81.3789 11.916C81.2786 11.0566 81.2285 10.2044 81.2285 9.35938C81.2285 9.08724 81.3073 8.92253 81.4648 8.86523C81.6224 8.79362 81.8014 8.75781 82.002 8.75781C82.2884 8.75781 82.5247 8.83659 82.7109 8.99414C82.8971 9.15169 83.0046 9.3737 83.0332 9.66016C83.1621 11.2214 83.2337 12.7682 83.248 14.3008C83.2767 15.819 83.3841 17.3587 83.5703 18.9199C84 18.1035 84.444 17.4303 84.9023 16.9004C85.3607 16.3704 85.7975 16.0195 86.2129 15.8477C86.6426 15.6758 87.0293 15.7116 87.373 15.9551C87.7311 16.1842 88.0176 16.6497 88.2324 17.3516C88.4473 18.0391 88.5762 18.9844 88.6191 20.1875C88.6621 21.3763 88.5905 22.8587 88.4043 24.6348C88.304 24.6348 88.1823 24.6419 88.0391 24.6562C87.8958 24.6562 87.7526 24.6491 87.6094 24.6348C87.4805 24.6204 87.3659 24.5918 87.2656 24.5488C87.1654 24.5059 87.1081 24.4271 87.0938 24.3125C87.2083 23.2383 87.2728 22.3359 87.2871 21.6055C87.3014 20.875 87.2799 20.2734 87.2227 19.8008C87.1654 19.3281 87.0866 18.9701 86.9863 18.7266C86.8861 18.4688 86.7786 18.2826 86.6641 18.168C86.5495 18.0534 86.4349 17.9961 86.3203 17.9961C86.2201 17.9818 86.1413 17.9818 86.084 17.9961C85.7689 18.1107 85.4681 18.39 85.1816 18.834C84.9095 19.278 84.6732 19.7936 84.4727 20.3809C84.2721 20.9681 84.1217 21.5911 84.0215 22.25C83.9355 22.8945 83.9141 23.4746 83.957 23.9902C83.9427 24.1048 83.9284 24.2194 83.9141 24.334C83.8997 24.4486 83.8711 24.556 83.8281 24.6562C83.7995 24.7565 83.7422 24.8424 83.6562 24.9141C83.5846 24.9714 83.4701 25 83.3125 25C83.0117 25 82.7682 24.9499 82.582 24.8496C82.4102 24.735 82.2741 24.5918 82.1738 24.4199C82.0879 24.248 82.0306 24.0475 82.002 23.8184C81.9876 23.5892 81.9948 23.3529 82.0234 23.1094L81.4863 14.4941ZM90.5098 24.1836C90.3665 22.7513 90.2448 21.5267 90.1445 20.5098C90.0443 19.4928 89.9583 18.6406 89.8867 17.9531C89.8151 17.2656 89.7507 16.7214 89.6934 16.3203C89.6504 15.9049 89.6146 15.597 89.5859 15.3965C89.5573 15.1816 89.5358 15.0384 89.5215 14.9668C89.5072 14.8952 89.5 14.8522 89.5 14.8379V14.752C89.5 14.5944 89.5645 14.4655 89.6934 14.3652C89.8366 14.2507 89.9798 14.1934 90.123 14.1934C90.3379 14.1934 90.5671 14.2292 90.8105 14.3008C91.0684 14.3724 91.2402 14.5228 91.3262 14.752C91.4551 15.4538 91.541 16.1628 91.584 16.8789C91.6413 17.5951 91.6842 18.3112 91.7129 19.0273C91.7559 19.7292 91.806 20.4382 91.8633 21.1543C91.9349 21.8704 92.0566 22.5794 92.2285 23.2812C92.2285 23.3099 92.2357 23.3672 92.25 23.4531C92.2786 23.5391 92.3001 23.6322 92.3145 23.7324C92.3431 23.8327 92.3646 23.9258 92.3789 24.0117C92.3932 24.0977 92.4004 24.1549 92.4004 24.1836V24.2266C92.4004 24.2409 92.4076 24.2552 92.4219 24.2695C92.4219 24.4414 92.3431 24.6133 92.1855 24.7852C92.028 24.957 91.8633 25.0286 91.6914 25C91.6484 24.9857 91.541 24.9642 91.3691 24.9355C91.2116 24.8926 91.1042 24.8568 91.0469 24.8281C91.0039 24.8138 90.9466 24.7852 90.875 24.7422C90.8034 24.6849 90.7318 24.6276 90.6602 24.5703C90.6029 24.513 90.5527 24.4486 90.5098 24.377C90.4668 24.3053 90.4668 24.2409 90.5098 24.1836ZM89.3066 8.52148C89.3066 8.42122 89.3854 8.33529 89.543 8.26367C89.7148 8.17773 89.8438 8.13477 89.9297 8.13477C90.1445 8.13477 90.3809 8.19922 90.6387 8.32812C90.9108 8.44271 91.0469 8.62174 91.0469 8.86523C91.0469 9.10872 91.0111 9.27344 90.9395 9.35938C90.8822 9.44531 90.7318 9.48828 90.4883 9.48828C90.2305 9.48828 89.9655 9.40234 89.6934 9.23047C89.4355 9.05859 89.3066 8.82227 89.3066 8.52148ZM93.9043 21.1328C93.6322 21.0326 93.3815 20.9108 93.1523 20.7676C92.9375 20.6243 92.8301 20.388 92.8301 20.0586C92.8301 19.9727 92.8516 19.9154 92.8945 19.8867C92.9375 19.8581 92.9733 19.8151 93.002 19.7578C93.0306 19.7148 93.0879 19.6361 93.1738 19.5215C93.2598 19.4069 93.3529 19.2852 93.4531 19.1562C93.5534 19.013 93.6465 18.8841 93.7324 18.7695C93.8184 18.6406 93.8757 18.5547 93.9043 18.5117C93.9043 18.3255 93.89 18.1035 93.8613 17.8457C93.847 17.5736 93.8542 17.3229 93.8828 17.0938C93.9258 16.8503 94.0117 16.6497 94.1406 16.4922C94.2695 16.3203 94.4844 16.2344 94.7852 16.2344C94.957 16.2344 95.1003 16.2988 95.2148 16.4277C95.3294 16.5423 95.4727 16.5996 95.6445 16.5996H95.7305C96.3177 16.1413 96.9193 15.7402 97.5352 15.3965C98.1654 15.0384 98.8672 14.8594 99.6406 14.8594C100.142 14.8594 100.55 15.0098 100.865 15.3105C101.195 15.597 101.359 16.0052 101.359 16.5352C101.359 17.194 101.209 17.8743 100.908 18.5762C100.607 19.278 100.228 19.9655 99.7695 20.6387C99.3255 21.2975 98.8385 21.9206 98.3086 22.5078C97.793 23.0951 97.3203 23.6035 96.8906 24.0332C96.8477 24.0905 96.7832 24.1549 96.6973 24.2266C96.6113 24.2839 96.5326 24.3483 96.4609 24.4199C96.375 24.4915 96.2819 24.5775 96.1816 24.6777L96.0098 29.6191C96.0098 29.748 96.0026 29.8841 95.9883 30.0273C95.9883 30.1706 95.9596 30.2995 95.9023 30.4141C95.8594 30.543 95.7878 30.6432 95.6875 30.7148C95.6016 30.8008 95.4727 30.8438 95.3008 30.8438C95.2148 30.8438 95.1003 30.8223 94.957 30.7793C94.8138 30.7507 94.6777 30.7005 94.5488 30.6289C94.4199 30.5573 94.3053 30.4714 94.2051 30.3711C94.1191 30.2708 94.0762 30.1562 94.0762 30.0273L93.9043 21.1328ZM95.9023 22.4863H95.9883C96.0026 22.4863 96.0456 22.4434 96.1172 22.3574C96.2031 22.2715 96.2962 22.1712 96.3965 22.0566C96.5111 21.9421 96.6185 21.8275 96.7188 21.7129C96.8333 21.584 96.9193 21.4837 96.9766 21.4121C97.4062 21.097 97.8001 20.7031 98.1582 20.2305C98.5163 19.7578 98.8027 19.2852 99.0176 18.8125C99.2467 18.3255 99.3828 17.8887 99.4258 17.502C99.4831 17.1152 99.4186 16.8503 99.2324 16.707C99.0605 16.5495 98.7526 16.5638 98.3086 16.75C97.8789 16.9362 97.2917 17.3659 96.5469 18.0391C96.375 18.1823 96.2174 18.347 96.0742 18.5332C95.931 18.7194 95.8451 18.9271 95.8164 19.1562L95.9023 22.4863ZM116.098 19.0059C115.969 19.235 115.818 19.5143 115.646 19.8438C115.489 20.1589 115.317 20.5026 115.131 20.875C114.945 21.2331 114.737 21.5983 114.508 21.9707C114.293 22.3288 114.064 22.6582 113.82 22.959C113.591 23.2598 113.348 23.5176 113.09 23.7324C112.832 23.9329 112.567 24.0547 112.295 24.0977C112.18 24.0977 112.051 24.0905 111.908 24.0762C111.765 24.0475 111.622 24.0117 111.479 23.9688C111.335 23.9115 111.214 23.8398 111.113 23.7539C111.027 23.6536 110.984 23.5247 110.984 23.3672C110.999 21.9062 111.106 20.5814 111.307 19.3926C111.507 18.1895 111.822 17.1367 112.252 16.2344C112.682 15.3177 113.233 14.5586 113.906 13.957C114.579 13.3555 115.396 12.9258 116.355 12.668C116.384 12.668 116.434 12.668 116.506 12.668C116.592 12.6536 116.649 12.6465 116.678 12.6465C117.107 12.6322 117.415 12.8327 117.602 13.248C117.802 13.6491 117.945 14.2936 118.031 15.1816C118.132 16.0553 118.196 17.1868 118.225 18.5762C118.268 19.9512 118.346 21.6055 118.461 23.5391C118.504 23.6966 118.525 23.8327 118.525 23.9473C118.54 24.0618 118.547 24.1979 118.547 24.3555C118.547 24.5703 118.482 24.735 118.354 24.8496C118.225 24.9499 118.06 25 117.859 25C117.444 25 117.15 24.8854 116.979 24.6562C116.807 24.4271 116.692 24.1191 116.635 23.7324C116.635 23.7181 116.62 23.6035 116.592 23.3887C116.577 23.1738 116.549 22.9303 116.506 22.6582C116.477 22.3717 116.449 22.0853 116.42 21.7988C116.391 21.5124 116.37 21.276 116.355 21.0898V21.0039C116.327 20.8607 116.305 20.6816 116.291 20.4668C116.291 20.252 116.277 20.0443 116.248 19.8438C116.219 19.6003 116.198 19.3568 116.184 19.1133L116.098 19.0059ZM115.625 14.752C115.238 15.0384 114.859 15.4251 114.486 15.9121C114.114 16.3991 113.849 16.8717 113.691 17.3301C113.62 17.5449 113.541 17.8385 113.455 18.2109C113.369 18.5833 113.29 18.9557 113.219 19.3281C113.161 19.6862 113.111 20.0228 113.068 20.3379C113.025 20.6387 113.004 20.832 113.004 20.918C113.018 20.918 113.033 20.9036 113.047 20.875C113.076 20.8464 113.097 20.8249 113.111 20.8105C113.999 19.9512 114.622 19.0273 114.98 18.0391C115.353 17.0365 115.568 15.9408 115.625 14.752ZM125.787 24.2695C125.587 23.9831 125.415 23.5892 125.271 23.0879C125.143 22.5723 125.014 22.0352 124.885 21.4766C124.77 20.9036 124.663 20.3522 124.562 19.8223C124.462 19.278 124.355 18.8483 124.24 18.5332C124.14 18.2038 124.025 18.0176 123.896 17.9746C123.768 17.9316 123.617 18.125 123.445 18.5547L121.576 24.3125C121.505 24.513 121.419 24.6562 121.318 24.7422C121.218 24.8138 121.053 24.8496 120.824 24.8496C120.71 24.8496 120.588 24.8353 120.459 24.8066C120.33 24.7637 120.208 24.7064 120.094 24.6348C119.979 24.5632 119.879 24.4772 119.793 24.377C119.721 24.2767 119.678 24.1621 119.664 24.0332C119.707 23.8613 119.743 23.5462 119.771 23.0879C119.814 22.6296 119.843 22.0996 119.857 21.498C119.872 20.8965 119.879 20.2663 119.879 19.6074C119.893 18.9342 119.893 18.3112 119.879 17.7383C119.879 17.151 119.872 16.6497 119.857 16.2344C119.843 15.8047 119.829 15.5254 119.814 15.3965C119.814 15.2533 119.814 15.11 119.814 14.9668C119.829 14.8092 119.85 14.666 119.879 14.5371C119.922 14.4082 119.986 14.3079 120.072 14.2363C120.173 14.1504 120.323 14.1074 120.523 14.1074C120.796 14.1074 121.046 14.222 121.275 14.4512C121.519 14.6803 121.641 14.9238 121.641 15.1816C121.641 15.554 121.619 15.9264 121.576 16.2988C121.548 16.6569 121.533 17.0221 121.533 17.3945C121.533 17.6237 121.533 17.8171 121.533 17.9746C121.533 18.1322 121.562 18.3255 121.619 18.5547C121.662 18.4401 121.734 18.2396 121.834 17.9531C121.934 17.6667 122.042 17.3659 122.156 17.0508C122.285 16.7357 122.4 16.4421 122.5 16.1699C122.6 15.8835 122.672 15.6829 122.715 15.5684C122.815 15.2819 122.965 15.0098 123.166 14.752C123.367 14.4798 123.632 14.3294 123.961 14.3008C124.176 14.2865 124.369 14.3438 124.541 14.4727C124.727 14.6016 124.885 14.7734 125.014 14.9883C125.143 15.1888 125.25 15.4036 125.336 15.6328C125.422 15.8477 125.486 16.0339 125.529 16.1914L126.689 21.541L127.592 23.9902C127.606 24.0046 127.613 24.0475 127.613 24.1191C127.613 24.1764 127.613 24.2194 127.613 24.248C127.613 24.4199 127.57 24.5918 127.484 24.7637C127.413 24.9212 127.277 25 127.076 25C126.833 25 126.582 24.9355 126.324 24.8066C126.066 24.6634 125.887 24.4844 125.787 24.2695ZM133.951 21.6055C133.937 21.6055 133.837 21.763 133.65 22.0781C133.479 22.3932 133.242 22.737 132.941 23.1094C132.641 23.4818 132.283 23.8255 131.867 24.1406C131.466 24.4557 131.036 24.6133 130.578 24.6133C129.948 24.6133 129.418 24.4199 128.988 24.0332C128.573 23.6465 128.365 23.1165 128.365 22.4434C128.337 22.0996 128.38 21.6914 128.494 21.2188C128.623 20.7461 128.802 20.2591 129.031 19.7578C129.275 19.2422 129.561 18.748 129.891 18.2754C130.234 17.7884 130.6 17.373 130.986 17.0293C131.373 16.6712 131.774 16.4062 132.189 16.2344C132.619 16.0625 133.049 16.0339 133.479 16.1484V15.8477C133.479 15.4753 133.464 15.0957 133.436 14.709C133.421 14.3079 133.4 13.8568 133.371 13.3555C133.357 12.8398 133.335 12.2526 133.307 11.5938C133.292 10.9206 133.285 10.1185 133.285 9.1875C133.328 9.02995 133.4 8.92969 133.5 8.88672C133.615 8.82943 133.736 8.80078 133.865 8.80078C134.195 8.80078 134.452 8.9082 134.639 9.12305C134.839 9.33789 134.961 9.60286 135.004 9.91797C134.975 10.4049 134.961 10.9062 134.961 11.4219C134.975 11.9232 135.004 12.4961 135.047 13.1406C135.09 13.7852 135.154 14.5156 135.24 15.332C135.34 16.1484 135.462 17.1152 135.605 18.2324C135.749 19.3353 135.921 20.61 136.121 22.0566C136.322 23.4889 136.558 25.1504 136.83 27.041V27.7715C136.83 27.8574 136.794 27.9219 136.723 27.9648C136.665 28.0078 136.587 28.0365 136.486 28.0508C136.4 28.0794 136.307 28.0938 136.207 28.0938C136.121 28.1081 136.057 28.1152 136.014 28.1152C135.799 28.1152 135.57 28.0508 135.326 27.9219C135.083 27.8073 134.939 27.6426 134.896 27.4277L134.102 21.6914C134.102 21.6484 134.08 21.627 134.037 21.627C134.008 21.6126 133.98 21.6055 133.951 21.6055ZM130.17 22.0781C130.17 22.1211 130.163 22.1999 130.148 22.3145C130.148 22.4147 130.148 22.5221 130.148 22.6367C130.163 22.7513 130.184 22.8516 130.213 22.9375C130.242 23.0234 130.299 23.0664 130.385 23.0664C130.743 23.0807 131.108 22.9447 131.48 22.6582C131.867 22.3717 132.218 22.0208 132.533 21.6055C132.848 21.1758 133.106 20.7174 133.307 20.2305C133.521 19.7435 133.636 19.3066 133.65 18.9199C133.679 18.5332 133.586 18.2396 133.371 18.0391C133.171 17.8242 132.82 17.7741 132.318 17.8887C131.702 18.4329 131.187 19.056 130.771 19.7578C130.37 20.4596 130.17 21.2331 130.17 22.0781ZM150.408 15.5684C150.394 15.4538 150.372 15.3105 150.344 15.1387C150.329 14.9525 150.308 14.7806 150.279 14.623C150.265 14.4512 150.251 14.3079 150.236 14.1934C150.222 14.0788 150.215 14.0215 150.215 14.0215H150.043L147.594 14.752C147.522 14.8665 147.4 14.9238 147.229 14.9238C147.071 14.9238 146.949 14.9238 146.863 14.9238C146.663 14.9238 146.455 14.8379 146.24 14.666C146.04 14.4798 145.939 14.2793 145.939 14.0645C145.939 13.9069 145.99 13.7565 146.09 13.6133C146.204 13.4557 146.34 13.3483 146.498 13.291L149.957 12.1953C150 12.0378 150.079 11.8802 150.193 11.7227C150.322 11.5508 150.487 11.4648 150.688 11.4648C150.888 11.4648 151.053 11.515 151.182 11.6152C151.325 11.7155 151.482 11.7943 151.654 11.8516C151.783 11.8372 151.998 11.7943 152.299 11.7227C152.6 11.651 152.915 11.5794 153.244 11.5078C153.588 11.4219 153.91 11.3431 154.211 11.2715C154.512 11.1999 154.719 11.1497 154.834 11.1211C155.006 11.0924 155.135 11.0566 155.221 11.0137C155.307 10.9707 155.443 10.9492 155.629 10.9492C155.872 10.9492 156.123 11.0208 156.381 11.1641C156.639 11.3073 156.768 11.5221 156.768 11.8086C156.768 11.9948 156.703 12.1595 156.574 12.3027C156.445 12.4316 156.288 12.5176 156.102 12.5605L152.02 13.5918V13.7852C152.02 14.2292 152.055 14.666 152.127 15.0957C152.213 15.5254 152.242 15.9551 152.213 16.3848L152.943 23.0234V23.4961C152.943 23.668 152.936 23.847 152.922 24.0332C152.922 24.2051 152.893 24.3626 152.836 24.5059C152.793 24.6491 152.714 24.7708 152.6 24.8711C152.485 24.957 152.313 25 152.084 25C151.912 25 151.726 24.9284 151.525 24.7852C151.339 24.6419 151.239 24.4701 151.225 24.2695L150.408 15.7402V15.5684ZM164.846 18.8984C164.817 19.1562 164.781 19.3568 164.738 19.5C164.71 19.6432 164.652 19.7721 164.566 19.8867C164.48 20.0013 164.359 20.123 164.201 20.252C164.044 20.3665 163.829 20.5384 163.557 20.7676C163.285 20.9824 162.948 21.2689 162.547 21.627C162.146 21.985 161.659 22.4505 161.086 23.0234C160.857 23.2383 160.62 23.4603 160.377 23.6895C160.133 23.9186 159.876 24.1263 159.604 24.3125C159.346 24.4844 159.074 24.6276 158.787 24.7422C158.501 24.8568 158.2 24.9141 157.885 24.9141C157.269 24.9141 156.818 24.7064 156.531 24.291C156.245 23.8757 156.102 23.3958 156.102 22.8516C156.102 22.4935 156.109 22.1927 156.123 21.9492C156.152 21.7057 156.209 21.3906 156.295 21.0039C156.137 20.8607 156.001 20.7389 155.887 20.6387C155.772 20.5241 155.715 20.3737 155.715 20.1875C155.715 20.0156 155.751 19.901 155.822 19.8438C155.908 19.7865 156.001 19.7507 156.102 19.7363C156.216 19.7077 156.324 19.679 156.424 19.6504C156.524 19.6217 156.596 19.5645 156.639 19.4785C156.667 19.3926 156.717 19.235 156.789 19.0059C156.875 18.7767 156.961 18.5404 157.047 18.2969C157.133 18.0391 157.212 17.8027 157.283 17.5879C157.369 17.3587 157.426 17.2012 157.455 17.1152C157.555 16.8717 157.663 16.6283 157.777 16.3848C157.906 16.127 158.049 15.8978 158.207 15.6973C158.379 15.4967 158.572 15.332 158.787 15.2031C159.016 15.0742 159.281 15.0098 159.582 15.0098C159.754 15.0098 159.962 15.0885 160.205 15.2461C160.463 15.4036 160.706 15.597 160.936 15.8262C161.165 16.041 161.358 16.2702 161.516 16.5137C161.673 16.7572 161.752 16.9648 161.752 17.1367C161.752 17.3516 161.702 17.5521 161.602 17.7383C161.501 17.9102 161.372 18.0749 161.215 18.2324C161.072 18.3757 160.914 18.5117 160.742 18.6406C160.57 18.7695 160.413 18.8913 160.27 19.0059C160.255 19.0059 160.227 19.0202 160.184 19.0488C160.141 19.0775 160.105 19.099 160.076 19.1133C160.062 19.1276 160.026 19.1634 159.969 19.2207C159.926 19.2637 159.876 19.3138 159.818 19.3711C159.761 19.4284 159.704 19.4857 159.646 19.543C159.604 19.6003 159.575 19.6361 159.561 19.6504C159.518 19.6934 159.432 19.765 159.303 19.8652C159.188 19.9512 159.059 20.0514 158.916 20.166C158.773 20.2663 158.637 20.3665 158.508 20.4668C158.393 20.5527 158.314 20.61 158.271 20.6387L158.186 20.8105C158.157 20.8678 158.128 20.9967 158.1 21.1973C158.085 21.3835 158.064 21.5983 158.035 21.8418C158.007 22.0853 157.978 22.3359 157.949 22.5938C157.935 22.8372 157.928 23.0378 157.928 23.1953C157.928 23.2096 157.935 23.224 157.949 23.2383C157.978 23.2669 157.999 23.2812 158.014 23.2812C158.128 23.2812 158.236 23.2311 158.336 23.1309C158.436 23.0306 158.544 22.959 158.658 22.916L162.096 19.7363L162.977 18.3828C163.048 18.2826 163.184 18.1751 163.385 18.0605C163.6 17.9316 163.814 17.8672 164.029 17.8672C164.244 17.8529 164.43 17.9173 164.588 18.0605C164.76 18.2038 164.846 18.4831 164.846 18.8984ZM160.119 17.2227C160.191 17.1654 160.219 17.0794 160.205 16.9648C160.191 16.8503 160.148 16.75 160.076 16.6641C160.019 16.5781 159.94 16.528 159.84 16.5137C159.74 16.485 159.646 16.5352 159.561 16.6641C159.518 16.7214 159.439 16.8359 159.324 17.0078C159.224 17.1797 159.117 17.3587 159.002 17.5449C158.902 17.7168 158.816 17.8672 158.744 17.9961C158.673 18.125 158.658 18.1751 158.701 18.1465L160.119 17.2227ZM170.432 19.0059C170.303 19.235 170.152 19.5143 169.98 19.8438C169.823 20.1589 169.651 20.5026 169.465 20.875C169.279 21.2331 169.071 21.5983 168.842 21.9707C168.627 22.3288 168.398 22.6582 168.154 22.959C167.925 23.2598 167.682 23.5176 167.424 23.7324C167.166 23.9329 166.901 24.0547 166.629 24.0977C166.514 24.0977 166.385 24.0905 166.242 24.0762C166.099 24.0475 165.956 24.0117 165.812 23.9688C165.669 23.9115 165.548 23.8398 165.447 23.7539C165.361 23.6536 165.318 23.5247 165.318 23.3672C165.333 21.9062 165.44 20.5814 165.641 19.3926C165.841 18.1895 166.156 17.1367 166.586 16.2344C167.016 15.3177 167.567 14.5586 168.24 13.957C168.913 13.3555 169.73 12.9258 170.689 12.668C170.718 12.668 170.768 12.668 170.84 12.668C170.926 12.6536 170.983 12.6465 171.012 12.6465C171.441 12.6322 171.749 12.8327 171.936 13.248C172.136 13.6491 172.279 14.2936 172.365 15.1816C172.465 16.0553 172.53 17.1868 172.559 18.5762C172.602 19.9512 172.68 21.6055 172.795 23.5391C172.838 23.6966 172.859 23.8327 172.859 23.9473C172.874 24.0618 172.881 24.1979 172.881 24.3555C172.881 24.5703 172.816 24.735 172.688 24.8496C172.559 24.9499 172.394 25 172.193 25C171.778 25 171.484 24.8854 171.312 24.6562C171.141 24.4271 171.026 24.1191 170.969 23.7324C170.969 23.7181 170.954 23.6035 170.926 23.3887C170.911 23.1738 170.883 22.9303 170.84 22.6582C170.811 22.3717 170.783 22.0853 170.754 21.7988C170.725 21.5124 170.704 21.276 170.689 21.0898V21.0039C170.661 20.8607 170.639 20.6816 170.625 20.4668C170.625 20.252 170.611 20.0443 170.582 19.8438C170.553 19.6003 170.532 19.3568 170.518 19.1133L170.432 19.0059ZM169.959 14.752C169.572 15.0384 169.193 15.4251 168.82 15.9121C168.448 16.3991 168.183 16.8717 168.025 17.3301C167.954 17.5449 167.875 17.8385 167.789 18.2109C167.703 18.5833 167.624 18.9557 167.553 19.3281C167.495 19.6862 167.445 20.0228 167.402 20.3379C167.359 20.6387 167.338 20.832 167.338 20.918C167.352 20.918 167.367 20.9036 167.381 20.875C167.41 20.8464 167.431 20.8249 167.445 20.8105C168.333 19.9512 168.956 19.0273 169.314 18.0391C169.687 17.0365 169.902 15.9408 169.959 14.752ZM174.32 17.9961C174.292 17.6237 174.256 17.2513 174.213 16.8789C174.184 16.4922 174.134 16.1126 174.062 15.7402C174.062 15.4251 174.163 15.2246 174.363 15.1387C174.578 15.0527 174.807 15.0098 175.051 15.0098H175.48C175.695 15.11 175.846 15.2318 175.932 15.375C176.018 15.5182 176.075 15.6758 176.104 15.8477C176.132 16.0195 176.139 16.1986 176.125 16.3848C176.125 16.571 176.132 16.75 176.146 16.9219C176.161 16.9935 176.168 17.1152 176.168 17.2871C176.168 17.459 176.168 17.638 176.168 17.8242C176.182 18.0104 176.197 18.1823 176.211 18.3398C176.24 18.4974 176.275 18.5977 176.318 18.6406L178.209 15.0957C178.295 14.9382 178.417 14.8092 178.574 14.709C178.746 14.5944 178.932 14.5514 179.133 14.5801C179.448 14.6087 179.684 14.6732 179.842 14.7734C179.999 14.8594 180.107 14.9811 180.164 15.1387C180.236 15.2819 180.271 15.4609 180.271 15.6758C180.286 15.8906 180.3 16.127 180.314 16.3848C180.314 16.4707 180.322 16.6354 180.336 16.8789C180.35 17.1081 180.365 17.3516 180.379 17.6094C180.408 17.8672 180.429 18.1107 180.443 18.3398C180.472 18.569 180.493 18.7266 180.508 18.8125H180.594C180.622 18.7122 180.673 18.5189 180.744 18.2324C180.83 17.946 180.923 17.6452 181.023 17.3301C181.124 17.015 181.217 16.7142 181.303 16.4277C181.389 16.1413 181.453 15.9408 181.496 15.8262C181.51 15.7975 181.539 15.7402 181.582 15.6543C181.625 15.554 181.668 15.4538 181.711 15.3535C181.754 15.2389 181.797 15.1387 181.84 15.0527C181.883 14.9525 181.911 14.8809 181.926 14.8379C182.026 14.6803 182.126 14.6016 182.227 14.6016C182.341 14.5872 182.463 14.5801 182.592 14.5801C182.95 14.5801 183.222 14.6732 183.408 14.8594C183.609 15.0312 183.752 15.2533 183.838 15.5254C183.938 15.7975 184.01 16.0983 184.053 16.4277C184.096 16.7428 184.146 17.0365 184.203 17.3086C184.217 17.3086 184.225 17.3229 184.225 17.3516C184.225 17.3659 184.217 17.3802 184.203 17.3945L185.385 23.6465C185.442 23.7038 185.471 23.7539 185.471 23.7969C185.485 23.8398 185.492 23.8971 185.492 23.9688C185.492 24.1263 185.413 24.2839 185.256 24.4414C185.113 24.5846 184.962 24.6562 184.805 24.6562C184.59 24.6562 184.339 24.5775 184.053 24.4199C183.781 24.2624 183.623 24.0618 183.58 23.8184L182.592 18.7266L182.484 18.5547C182.456 18.6263 182.391 18.834 182.291 19.1777C182.205 19.5072 182.098 19.9297 181.969 20.4453C181.84 20.9466 181.689 21.5124 181.518 22.1426C181.36 22.7728 181.195 23.4173 181.023 24.0762C180.995 24.2051 180.909 24.3053 180.766 24.377C180.637 24.4342 180.522 24.4629 180.422 24.4629C180.121 24.4629 179.878 24.4271 179.691 24.3555C179.505 24.2839 179.362 24.1764 179.262 24.0332C179.161 23.89 179.09 23.7181 179.047 23.5176C179.004 23.3171 178.968 23.0879 178.939 22.8301C178.939 22.7728 178.925 22.5723 178.896 22.2285C178.868 21.8704 178.832 21.4694 178.789 21.0254C178.76 20.5671 178.725 20.1087 178.682 19.6504C178.639 19.1921 178.61 18.8268 178.596 18.5547C178.596 18.4974 178.596 18.4544 178.596 18.4258C178.596 18.3971 178.596 18.3757 178.596 18.3613C178.596 18.3327 178.589 18.304 178.574 18.2754C178.56 18.2324 178.531 18.168 178.488 18.082L177.865 19.5645L176.877 23.1953L176.662 24.5273C176.648 24.6133 176.605 24.6921 176.533 24.7637C176.476 24.821 176.404 24.8711 176.318 24.9141C176.232 24.9427 176.146 24.9642 176.061 24.9785C175.975 24.9928 175.903 25 175.846 25C175.531 25 175.258 24.8854 175.029 24.6562C174.814 24.4271 174.7 24.1764 174.686 23.9043C174.671 23.804 174.657 23.6107 174.643 23.3242C174.628 23.0234 174.607 22.6725 174.578 22.2715C174.549 21.8704 174.521 21.4479 174.492 21.0039C174.478 20.5599 174.456 20.1374 174.428 19.7363C174.399 19.3353 174.37 18.9844 174.342 18.6836C174.327 18.3828 174.32 18.1823 174.32 18.082V17.9961ZM189.016 23.9688C188.93 23.6393 188.679 22.8014 188.264 21.4551C187.848 20.0944 187.268 18.1322 186.523 15.5684C186.523 15.5397 186.509 15.4824 186.48 15.3965C186.466 15.2962 186.459 15.2318 186.459 15.2031C186.488 15.0312 186.617 14.931 186.846 14.9023C187.075 14.8594 187.247 14.8451 187.361 14.8594C187.676 14.9023 187.906 15.0026 188.049 15.1602C188.206 15.3177 188.335 15.5469 188.436 15.8477L189.682 19.9512L189.768 20.0586C189.939 19.7721 190.04 19.4427 190.068 19.0703C190.097 18.6979 190.133 18.3398 190.176 17.9961C190.233 17.638 190.333 17.3158 190.477 17.0293C190.62 16.7428 190.892 16.5423 191.293 16.4277C191.379 16.4277 191.472 16.4492 191.572 16.4922C191.673 16.5208 191.766 16.571 191.852 16.6426C191.952 16.6999 192.038 16.7715 192.109 16.8574C192.181 16.929 192.231 17.0078 192.26 17.0938L193.42 20.8105L193.656 21.1328C193.714 20.875 193.785 20.4596 193.871 19.8867C193.971 19.3138 194.064 18.7194 194.15 18.1035C194.251 17.4733 194.337 16.8932 194.408 16.3633C194.48 15.819 194.53 15.4466 194.559 15.2461C194.559 15.2174 194.559 15.1673 194.559 15.0957C194.573 15.0241 194.58 14.974 194.58 14.9453C194.695 14.8164 194.852 14.7233 195.053 14.666C195.253 14.5944 195.432 14.5729 195.59 14.6016C195.647 14.6159 195.719 14.6517 195.805 14.709C195.905 14.752 195.998 14.8164 196.084 14.9023C196.17 14.974 196.234 15.0527 196.277 15.1387C196.335 15.2246 196.363 15.3034 196.363 15.375L195.139 24.1836C195.124 24.2695 195.074 24.3411 194.988 24.3984C194.902 24.4414 194.802 24.4844 194.688 24.5273C194.587 24.556 194.48 24.5775 194.365 24.5918C194.265 24.5918 194.186 24.5918 194.129 24.5918C193.785 24.4629 193.484 24.2552 193.227 23.9688C192.983 23.668 192.761 23.3385 192.561 22.9805C192.374 22.6224 192.202 22.2572 192.045 21.8848C191.902 21.498 191.744 21.1543 191.572 20.8535L191.486 20.832C191.386 20.9323 191.3 21.1543 191.229 21.498C191.171 21.8418 191.121 22.207 191.078 22.5938C191.035 22.9805 190.999 23.3314 190.971 23.6465C190.942 23.9473 190.928 24.112 190.928 24.1406C190.899 24.3411 190.763 24.4987 190.52 24.6133C190.29 24.7279 190.083 24.7708 189.896 24.7422C189.696 24.7135 189.517 24.6204 189.359 24.4629C189.216 24.291 189.102 24.1263 189.016 23.9688ZM197.438 21.7129L198.232 16.1914C198.261 16.0052 198.34 15.8691 198.469 15.7832C198.612 15.6973 198.77 15.6543 198.941 15.6543C199.257 15.6543 199.507 15.7474 199.693 15.9336C199.88 16.1055 200.037 16.3203 200.166 16.5781H200.188C200.359 16.5781 200.51 16.5495 200.639 16.4922C200.782 16.4206 200.954 16.3848 201.154 16.3848C201.613 16.3848 201.999 16.528 202.314 16.8145C202.644 17.1009 202.909 17.4518 203.109 17.8672C203.31 18.2682 203.453 18.7051 203.539 19.1777C203.639 19.6504 203.689 20.0658 203.689 20.4238C203.689 20.8535 203.575 21.3333 203.346 21.8633C203.131 22.3932 202.837 22.8945 202.465 23.3672C202.107 23.8398 201.699 24.2337 201.24 24.5488C200.782 24.8639 200.316 25.0215 199.844 25.0215C199.414 25.0215 199.042 24.9212 198.727 24.7207C198.426 24.5202 198.175 24.2695 197.975 23.9688C197.788 23.6536 197.652 23.3027 197.566 22.916C197.48 22.5293 197.438 22.1497 197.438 21.7773V21.7129ZM199.242 21.8418C199.271 21.985 199.299 22.1497 199.328 22.3359C199.357 22.5221 199.4 22.694 199.457 22.8516C199.514 22.9948 199.593 23.1094 199.693 23.1953C199.808 23.2669 199.965 23.2669 200.166 23.1953C200.352 23.0234 200.553 22.8301 200.768 22.6152C200.982 22.4004 201.183 22.1712 201.369 21.9277C201.57 21.6842 201.734 21.4264 201.863 21.1543C201.992 20.8822 202.057 20.5957 202.057 20.2949C202.114 19.8079 202.078 19.3639 201.949 18.9629C201.82 18.5475 201.634 18.2539 201.391 18.082C201.161 17.8958 200.896 17.8743 200.596 18.0176C200.295 18.1465 199.994 18.5117 199.693 19.1133C199.521 19.4857 199.4 19.9225 199.328 20.4238C199.271 20.9108 199.242 21.362 199.242 21.7773V21.8418ZM205.602 24.0762C205.573 23.5605 205.523 22.873 205.451 22.0137C205.394 21.14 205.322 20.2376 205.236 19.3066C205.165 18.3757 205.086 17.4948 205 16.6641C204.914 15.8333 204.842 15.1888 204.785 14.7305C204.785 14.5443 204.871 14.4225 205.043 14.3652C205.215 14.3079 205.38 14.2793 205.537 14.2793C205.738 14.2793 205.945 14.3366 206.16 14.4512C206.389 14.5658 206.533 14.7233 206.59 14.9238C206.59 14.9811 206.597 15.0885 206.611 15.2461C206.626 15.3893 206.633 15.5397 206.633 15.6973C206.647 15.8548 206.661 16.0124 206.676 16.1699C206.69 16.3132 206.697 16.4134 206.697 16.4707C206.697 16.5566 206.697 16.6211 206.697 16.6641C206.697 16.707 206.697 16.75 206.697 16.793C206.697 16.8216 206.704 16.8574 206.719 16.9004C206.733 16.9434 206.755 17.015 206.783 17.1152C206.812 17.0866 206.84 17.0508 206.869 17.0078C206.912 16.9648 206.941 16.9362 206.955 16.9219C207.184 16.5924 207.406 16.306 207.621 16.0625C207.836 15.8047 208.058 15.5684 208.287 15.3535C208.516 15.1243 208.767 14.888 209.039 14.6445C209.326 14.3867 209.655 14.0931 210.027 13.7637C210.113 13.6921 210.178 13.6419 210.221 13.6133C210.264 13.5703 210.299 13.5417 210.328 13.5273C210.371 13.4987 210.414 13.4844 210.457 13.4844C210.5 13.4701 210.557 13.4629 210.629 13.4629C210.872 13.4629 211.116 13.5488 211.359 13.7207C211.617 13.8783 211.746 14.1003 211.746 14.3867C211.746 14.487 211.71 14.5944 211.639 14.709C211.567 14.8092 211.481 14.9095 211.381 15.0098C211.281 15.0957 211.173 15.1745 211.059 15.2461C210.958 15.3177 210.865 15.3678 210.779 15.3965C210.407 15.7259 210.013 16.1055 209.598 16.5352C209.182 16.9505 208.796 17.4017 208.438 17.8887C208.079 18.3757 207.786 18.8841 207.557 19.4141C207.327 19.944 207.213 20.474 207.213 21.0039C207.213 21.4909 207.249 21.9707 207.32 22.4434C207.392 22.916 207.428 23.3958 207.428 23.8828V24.6348C207.313 24.7493 207.213 24.8424 207.127 24.9141C207.041 24.9857 206.919 25.0215 206.762 25.0215C206.518 25.0215 206.282 24.9212 206.053 24.7207C205.824 24.5059 205.673 24.291 205.602 24.0762ZM212.605 25.7949C212.605 25.7233 212.598 25.6016 212.584 25.4297C212.57 25.2578 212.555 25.0788 212.541 24.8926C212.541 24.6921 212.534 24.513 212.52 24.3555C212.52 24.1836 212.52 24.0618 212.52 23.9902C212.505 23.5892 212.498 22.9805 212.498 22.1641C212.512 21.3477 212.52 20.4525 212.52 19.4785C212.534 18.4902 212.548 17.4805 212.562 16.4492C212.577 15.418 212.584 14.4798 212.584 13.6348C212.584 12.7754 212.577 12.0664 212.562 11.5078C212.562 10.9492 212.548 10.6628 212.52 10.6484C212.52 10.5052 212.57 10.362 212.67 10.2188C212.77 10.0612 212.899 9.99674 213.057 10.0254C213.171 10.0254 213.3 10.0469 213.443 10.0898C213.601 10.1185 213.744 10.1686 213.873 10.2402C214.002 10.3118 214.109 10.4049 214.195 10.5195C214.296 10.6198 214.346 10.7487 214.346 10.9062V17.1797H214.432L216.902 14.3652C217.003 14.2363 217.096 14.0859 217.182 13.9141C217.282 13.7422 217.382 13.5775 217.482 13.4199C217.583 13.2624 217.697 13.1191 217.826 12.9902C217.955 12.8613 218.12 12.7754 218.32 12.7324C218.621 12.804 218.879 12.9043 219.094 13.0332C219.309 13.1621 219.416 13.3913 219.416 13.7207C219.416 13.7493 219.402 13.7995 219.373 13.8711C219.359 13.9284 219.344 13.9714 219.33 14C219.287 14.0573 219.194 14.1719 219.051 14.3438C218.922 14.5013 218.7 14.7734 218.385 15.1602C218.084 15.5326 217.669 16.0339 217.139 16.6641C216.623 17.2799 215.957 18.082 215.141 19.0703L215.334 19.1777L219.502 19.6074C219.688 19.6361 219.853 19.7435 219.996 19.9297C220.154 20.1016 220.232 20.2663 220.232 20.4238C220.232 20.7103 220.125 20.918 219.91 21.0469C219.71 21.1615 219.488 21.2331 219.244 21.2617C219.23 21.2044 219.18 21.1758 219.094 21.1758C219.022 21.1615 218.829 21.14 218.514 21.1113C218.199 21.0827 217.719 21.0397 217.074 20.9824C216.444 20.9108 215.563 20.7891 214.432 20.6172L214.518 25.7305C214.518 26.0169 214.467 26.2318 214.367 26.375C214.267 26.5326 214.045 26.6113 213.701 26.6113C213.443 26.6113 213.214 26.5254 213.014 26.3535C212.827 26.196 212.691 26.0098 212.605 25.7949Z" fill="black"/>
<defs>
<filter id="filter0_i_4585_2775" x="1.95215" y="1.96155" width="234.593" height="33.5385" filterUnits="userSpaceOnUse" color-interpolation-filters="sRGB">
<feFlood flood-opacity="0" result="BackgroundImageFix"/>
<feBlend mode="normal" in="SourceGraphic" in2="BackgroundImageFix" result="shape"/>
<feColorMatrix in="SourceAlpha" type="matrix" values="0 0 0 0 0 0 0 0 0 0 0 0 0 0 0 0 0 0 127 0" result="hardAlpha"/>
<feOffset dx="4" dy="4"/>
<feComposite in2="hardAlpha" operator="arithmetic" k2="-1" k3="1"/>
<feColorMatrix type="matrix" values="0 0 0 0 0.694118 0 0 0 0 0.721569 0 0 0 0 0.741176 0 0 0 1 0"/>
<feBlend mode="multiply" in2="shape" result="effect1_innerShadow_4585_2775"/>
</filter>
</defs>
</svg>
