<svg width="205" height="37" viewBox="0 0 205 37" fill="none" xmlns="http://www.w3.org/2000/svg">
<g filter="url(#filter0_i_4598_1913)">
<path d="M199.022 7.61228C202.541 11.6933 202.541 20.3656 202.541 20.3656C202.731 28.2124 196.276 34.5 188.02 34.5C188.02 31.5523 188.02 2.00081 188.02 2.00081C191.163 1.66061 195.502 3.53121 199.022 7.61228Z" fill="#FEDDC6"/>
<path d="M18.7676 2H188.02V34.5C188.02 34.5 162.914 34.2049 135.174 34.5C119.695 34.6647 87.1965 35.5 75.5713 35.5C43.112 35.5 18.7676 34.5 18.7676 34.5V2Z" fill="#FEDDC6"/>
<path d="M5.14517 27.9432C0.335274 22.3612 1.47845 11.5 5.14549 8C8.81252 4.5 8.60485 4.5 11.9565 3.5C15.3082 2.5 18.7674 2 18.7674 2V34.5C13.1929 34.5 9.95507 33.5252 5.14517 27.9432Z" fill="#FEDDC6"/>
</g>
<path d="M18.7676 34.5C47.4436 34.5 46.465 35 75.1258 35C103.802 35 107.257 34.4063 135.933 34.4063C164.609 34.4063 156.2 34 184.876 34" stroke="black" stroke-width="3" stroke-miterlimit="10" stroke-linecap="round" stroke-linejoin="round"/>
<path d="M2.00244 17.5C2.00244 7 9.6485 2 18.555 2C11.2202 2 2.52635 8 2.52635 17.5C2.52635 31.5 14.5763 34.5 18.2437 34.5C10.385 34.5 2.00244 28 2.00244 17.5Z" stroke="black" stroke-width="3" stroke-linecap="round" stroke-linejoin="round"/>
<path d="M203 19C203 29.5 193.782 34 184.876 34C192.211 34 201.33 30.5 202.165 20.5C203.33 6.54422 192.735 2 186.759 1.99999C194.617 2 203 8.49998 203 19Z" stroke="black" stroke-width="3" stroke-linecap="round" stroke-linejoin="round"/>
<path d="M18.7676 2C47.0479 2 44.1226 2 72.3879 2C100.668 2 100.754 1.5 129.035 1.5C157.315 1.5 158.691 2.00001 186.972 2.00001" stroke="black" stroke-width="3" stroke-miterlimit="10" stroke-linecap="round" stroke-linejoin="round"/>
<path d="M36.2305 24.3555C36.2018 22.7656 36.1589 21.1829 36.1016 19.6074C36.0586 18.0176 36.0371 16.4277 36.0371 14.8379C36.0371 14.7233 36.0371 14.5228 36.0371 14.2363C36.0371 13.9355 36.0371 13.6204 36.0371 13.291C36.0514 12.9616 36.0586 12.6536 36.0586 12.3672C36.0586 12.0807 36.0586 11.8802 36.0586 11.7656C36.1159 11.5365 36.2018 11.3574 36.3164 11.2285C36.431 11.0853 36.61 11.0137 36.8535 11.0137C37.097 11.0137 37.3118 11.0924 37.498 11.25C37.6842 11.3932 37.8346 11.5651 37.9492 11.7656L41.043 17.7383C41.0573 17.7669 41.1074 17.8529 41.1934 17.9961C41.2793 18.1393 41.3438 18.2396 41.3867 18.2969C41.401 18.3112 41.4225 18.3255 41.4512 18.3398C41.4798 18.3542 41.4941 18.3685 41.4941 18.3828L41.5801 18.1895L43.4062 11.7656C43.5352 11.5651 43.6283 11.3431 43.6855 11.0996C43.7572 10.8418 43.8288 10.5911 43.9004 10.3477C43.9863 10.1042 44.0866 9.875 44.2012 9.66016C44.3301 9.44531 44.5163 9.26628 44.7598 9.12305H44.9316C45.3184 9.12305 45.6048 9.23763 45.791 9.4668C45.9772 9.68164 46.1061 9.95378 46.1777 10.2832C46.2493 10.5983 46.278 10.9349 46.2637 11.293C46.2637 11.6367 46.2708 11.9375 46.2852 12.1953C46.2852 12.2956 46.2923 12.4889 46.3066 12.7754C46.3353 13.0618 46.3639 13.3984 46.3926 13.7852C46.4212 14.1719 46.4499 14.5872 46.4785 15.0312C46.5072 15.4609 46.5286 15.8691 46.543 16.2559C46.5716 16.6426 46.5931 16.9792 46.6074 17.2656C46.6361 17.5521 46.6504 17.7383 46.6504 17.8242V17.9102C46.6647 18.0391 46.6934 18.2539 46.7363 18.5547C46.7793 18.8555 46.8223 19.1777 46.8652 19.5215C46.9225 19.8509 46.9727 20.166 47.0156 20.4668C47.0586 20.7676 47.0944 20.9753 47.123 21.0898C47.1374 21.1615 47.1589 21.2689 47.1875 21.4121C47.2305 21.5553 47.2734 21.7129 47.3164 21.8848C47.3737 22.0423 47.4238 22.1927 47.4668 22.3359C47.5098 22.4792 47.5456 22.5794 47.5742 22.6367C47.5169 22.9661 47.431 23.224 47.3164 23.4102C47.2161 23.582 46.987 23.668 46.6289 23.668C46.5859 23.668 46.5215 23.668 46.4355 23.668C46.3496 23.6536 46.2995 23.6465 46.2852 23.6465C46.2422 23.6178 46.1562 23.5462 46.0273 23.4316C45.9128 23.3171 45.8483 23.2383 45.834 23.1953L45.4902 22.0137L44.8457 17.1152V16.9219C44.8314 16.6641 44.8242 16.3919 44.8242 16.1055C44.8242 15.8047 44.8171 15.5039 44.8027 15.2031C44.8027 14.9023 44.7884 14.6016 44.7598 14.3008C44.7311 14 44.6738 13.7207 44.5879 13.4629L44.4805 13.5918L42.9336 19.8223C42.9193 19.9798 42.9049 20.1517 42.8906 20.3379C42.8763 20.5098 42.8405 20.6816 42.7832 20.8535C42.7259 21.0111 42.64 21.1471 42.5254 21.2617C42.4108 21.3763 42.2461 21.4408 42.0312 21.4551C41.9453 21.4694 41.8522 21.4551 41.752 21.4121C41.6517 21.3691 41.5514 21.3118 41.4512 21.2402C41.3509 21.1686 41.2578 21.0898 41.1719 21.0039C41.1003 20.9036 41.0573 20.8105 41.043 20.7246L38.3145 16.3848L37.8633 15.4824V17.3301C37.8633 18.2038 37.8776 19.0632 37.9062 19.9082C37.9492 20.7389 37.9707 21.5911 37.9707 22.4648C37.9707 22.5365 37.9707 22.6654 37.9707 22.8516C37.9707 23.0234 37.9635 23.2096 37.9492 23.4102C37.9492 23.6107 37.9492 23.804 37.9492 23.9902C37.9492 24.1621 37.9492 24.2839 37.9492 24.3555C37.8919 24.5273 37.806 24.6777 37.6914 24.8066C37.5911 24.9355 37.4408 25 37.2402 25C36.9681 25 36.7533 24.957 36.5957 24.8711C36.4525 24.7708 36.3307 24.599 36.2305 24.3555ZM53.5684 19.0059C53.4395 19.235 53.2891 19.5143 53.1172 19.8438C52.9596 20.1589 52.7878 20.5026 52.6016 20.875C52.4154 21.2331 52.2077 21.5983 51.9785 21.9707C51.7637 22.3288 51.5345 22.6582 51.291 22.959C51.0618 23.2598 50.8184 23.5176 50.5605 23.7324C50.3027 23.9329 50.0378 24.0547 49.7656 24.0977C49.651 24.0977 49.5221 24.0905 49.3789 24.0762C49.2357 24.0475 49.0924 24.0117 48.9492 23.9688C48.806 23.9115 48.6842 23.8398 48.584 23.7539C48.498 23.6536 48.4551 23.5247 48.4551 23.3672C48.4694 21.9062 48.5768 20.5814 48.7773 19.3926C48.9779 18.1895 49.293 17.1367 49.7227 16.2344C50.1523 15.3177 50.7038 14.5586 51.377 13.957C52.0501 13.3555 52.8665 12.9258 53.8262 12.668C53.8548 12.668 53.9049 12.668 53.9766 12.668C54.0625 12.6536 54.1198 12.6465 54.1484 12.6465C54.5781 12.6322 54.8861 12.8327 55.0723 13.248C55.2728 13.6491 55.416 14.2936 55.502 15.1816C55.6022 16.0553 55.6667 17.1868 55.6953 18.5762C55.7383 19.9512 55.8171 21.6055 55.9316 23.5391C55.9746 23.6966 55.9961 23.8327 55.9961 23.9473C56.0104 24.0618 56.0176 24.1979 56.0176 24.3555C56.0176 24.5703 55.9531 24.735 55.8242 24.8496C55.6953 24.9499 55.5306 25 55.3301 25C54.9147 25 54.6211 24.8854 54.4492 24.6562C54.2773 24.4271 54.1628 24.1191 54.1055 23.7324C54.1055 23.7181 54.0911 23.6035 54.0625 23.3887C54.0482 23.1738 54.0195 22.9303 53.9766 22.6582C53.9479 22.3717 53.9193 22.0853 53.8906 21.7988C53.862 21.5124 53.8405 21.276 53.8262 21.0898V21.0039C53.7975 20.8607 53.776 20.6816 53.7617 20.4668C53.7617 20.252 53.7474 20.0443 53.7188 19.8438C53.6901 19.6003 53.6686 19.3568 53.6543 19.1133L53.5684 19.0059ZM53.0957 14.752C52.709 15.0384 52.3294 15.4251 51.957 15.9121C51.5846 16.3991 51.3197 16.8717 51.1621 17.3301C51.0905 17.5449 51.0117 17.8385 50.9258 18.2109C50.8398 18.5833 50.7611 18.9557 50.6895 19.3281C50.6322 19.6862 50.582 20.0228 50.5391 20.3379C50.4961 20.6387 50.4746 20.832 50.4746 20.918C50.4889 20.918 50.5033 20.9036 50.5176 20.875C50.5462 20.8464 50.5677 20.8249 50.582 20.8105C51.4701 19.9512 52.0931 19.0273 52.4512 18.0391C52.8236 17.0365 53.0384 15.9408 53.0957 14.752ZM57.1348 22.4219C57.0345 21.9922 57.0345 21.4837 57.1348 20.8965C57.2493 20.3092 57.4212 19.722 57.6504 19.1348C57.8939 18.5332 58.1875 17.9674 58.5312 17.4375C58.8893 16.9076 59.2617 16.485 59.6484 16.1699C60.0495 15.8548 60.4505 15.6829 60.8516 15.6543C61.2669 15.6113 61.6608 15.7904 62.0332 16.1914C62.0332 16.2057 62.0404 16.2415 62.0547 16.2988C62.069 16.3561 62.0833 16.4779 62.0977 16.6641C62.112 16.8359 62.1191 17.0866 62.1191 17.416C62.1335 17.7311 62.1406 18.168 62.1406 18.7266C62.1549 18.7552 62.1693 18.8053 62.1836 18.877C62.2122 18.9342 62.2266 18.9772 62.2266 19.0059C62.1836 19.1634 62.0977 19.3138 61.9688 19.457C61.8542 19.5859 61.7038 19.6504 61.5176 19.6504C61.2741 19.6504 61.0736 19.6146 60.916 19.543C60.7728 19.457 60.6654 19.2637 60.5938 18.9629C60.6224 18.9199 60.6296 18.834 60.6152 18.7051C60.6009 18.5618 60.5723 18.4043 60.5293 18.2324C60.5007 18.0605 60.472 17.8887 60.4434 17.7168C60.4147 17.5449 60.4004 17.4089 60.4004 17.3086C60.3861 17.3086 60.3646 17.3229 60.3359 17.3516C60.3216 17.3659 60.3073 17.3802 60.293 17.3945C60.0495 17.8242 59.8203 18.304 59.6055 18.834C59.4049 19.3496 59.2474 19.8796 59.1328 20.4238C59.0326 20.9538 58.9967 21.4837 59.0254 22.0137C59.0684 22.5436 59.2259 23.0234 59.498 23.4531C59.6986 23.4531 59.8848 23.3743 60.0566 23.2168C60.2285 23.0449 60.3717 22.8874 60.4863 22.7441C60.7298 22.4577 60.9661 22.1641 61.1953 21.8633C61.4388 21.5625 61.6608 21.2474 61.8613 20.918C61.9473 20.7747 62.0117 20.6458 62.0547 20.5312C62.0977 20.4167 62.1478 20.3236 62.2051 20.252C62.2767 20.1803 62.3626 20.123 62.4629 20.0801C62.5632 20.0371 62.7135 20.0156 62.9141 20.0156C63.1432 20.0156 63.3581 20.0729 63.5586 20.1875C63.7591 20.2878 63.8594 20.4596 63.8594 20.7031C63.8594 21.0326 63.709 21.4479 63.4082 21.9492C63.1217 22.4362 62.7637 22.9089 62.334 23.3672C61.9186 23.8255 61.4746 24.2194 61.002 24.5488C60.5293 24.8639 60.1139 25.0215 59.7559 25.0215C59.4121 25.0215 59.0755 24.957 58.7461 24.8281C58.431 24.6849 58.1517 24.4987 57.9082 24.2695C57.679 24.0404 57.4928 23.7682 57.3496 23.4531C57.2064 23.138 57.1348 22.7943 57.1348 22.4219ZM65.0625 14.4941C65.0911 13.6348 65.0553 12.7754 64.9551 11.916C64.8548 11.0566 64.8047 10.2044 64.8047 9.35938C64.8047 9.08724 64.8835 8.92253 65.041 8.86523C65.1986 8.79362 65.3776 8.75781 65.5781 8.75781C65.8646 8.75781 66.1009 8.83659 66.2871 8.99414C66.4733 9.15169 66.5807 9.3737 66.6094 9.66016C66.7383 11.2214 66.8099 12.7682 66.8242 14.3008C66.8529 15.819 66.9603 17.3587 67.1465 18.9199C67.5762 18.1035 68.0202 17.4303 68.4785 16.9004C68.9368 16.3704 69.3737 16.0195 69.7891 15.8477C70.2188 15.6758 70.6055 15.7116 70.9492 15.9551C71.3073 16.1842 71.5938 16.6497 71.8086 17.3516C72.0234 18.0391 72.1523 18.9844 72.1953 20.1875C72.2383 21.3763 72.1667 22.8587 71.9805 24.6348C71.8802 24.6348 71.7585 24.6419 71.6152 24.6562C71.472 24.6562 71.3288 24.6491 71.1855 24.6348C71.0566 24.6204 70.9421 24.5918 70.8418 24.5488C70.7415 24.5059 70.6842 24.4271 70.6699 24.3125C70.7845 23.2383 70.849 22.3359 70.8633 21.6055C70.8776 20.875 70.8561 20.2734 70.7988 19.8008C70.7415 19.3281 70.6628 18.9701 70.5625 18.7266C70.4622 18.4688 70.3548 18.2826 70.2402 18.168C70.1257 18.0534 70.0111 17.9961 69.8965 17.9961C69.7962 17.9818 69.7174 17.9818 69.6602 17.9961C69.3451 18.1107 69.0443 18.39 68.7578 18.834C68.4857 19.278 68.2493 19.7936 68.0488 20.3809C67.8483 20.9681 67.6979 21.5911 67.5977 22.25C67.5117 22.8945 67.4902 23.4746 67.5332 23.9902C67.5189 24.1048 67.5046 24.2194 67.4902 24.334C67.4759 24.4486 67.4473 24.556 67.4043 24.6562C67.3757 24.7565 67.3184 24.8424 67.2324 24.9141C67.1608 24.9714 67.0462 25 66.8887 25C66.5879 25 66.3444 24.9499 66.1582 24.8496C65.9863 24.735 65.8503 24.5918 65.75 24.4199C65.6641 24.248 65.6068 24.0475 65.5781 23.8184C65.5638 23.5892 65.571 23.3529 65.5996 23.1094L65.0625 14.4941ZM74.0859 24.1836C73.9427 22.7513 73.821 21.5267 73.7207 20.5098C73.6204 19.4928 73.5345 18.6406 73.4629 17.9531C73.3913 17.2656 73.3268 16.7214 73.2695 16.3203C73.2266 15.9049 73.1908 15.597 73.1621 15.3965C73.1335 15.1816 73.112 15.0384 73.0977 14.9668C73.0833 14.8952 73.0762 14.8522 73.0762 14.8379V14.752C73.0762 14.5944 73.1406 14.4655 73.2695 14.3652C73.4128 14.2507 73.556 14.1934 73.6992 14.1934C73.9141 14.1934 74.1432 14.2292 74.3867 14.3008C74.6445 14.3724 74.8164 14.5228 74.9023 14.752C75.0312 15.4538 75.1172 16.1628 75.1602 16.8789C75.2174 17.5951 75.2604 18.3112 75.2891 19.0273C75.332 19.7292 75.3822 20.4382 75.4395 21.1543C75.5111 21.8704 75.6328 22.5794 75.8047 23.2812C75.8047 23.3099 75.8118 23.3672 75.8262 23.4531C75.8548 23.5391 75.8763 23.6322 75.8906 23.7324C75.9193 23.8327 75.9408 23.9258 75.9551 24.0117C75.9694 24.0977 75.9766 24.1549 75.9766 24.1836V24.2266C75.9766 24.2409 75.9837 24.2552 75.998 24.2695C75.998 24.4414 75.9193 24.6133 75.7617 24.7852C75.6042 24.957 75.4395 25.0286 75.2676 25C75.2246 24.9857 75.1172 24.9642 74.9453 24.9355C74.7878 24.8926 74.6803 24.8568 74.623 24.8281C74.5801 24.8138 74.5228 24.7852 74.4512 24.7422C74.3796 24.6849 74.3079 24.6276 74.2363 24.5703C74.179 24.513 74.1289 24.4486 74.0859 24.377C74.043 24.3053 74.043 24.2409 74.0859 24.1836ZM72.8828 8.52148C72.8828 8.42122 72.9616 8.33529 73.1191 8.26367C73.291 8.17773 73.4199 8.13477 73.5059 8.13477C73.7207 8.13477 73.957 8.19922 74.2148 8.32812C74.487 8.44271 74.623 8.62174 74.623 8.86523C74.623 9.10872 74.5872 9.27344 74.5156 9.35938C74.4583 9.44531 74.3079 9.48828 74.0645 9.48828C73.8066 9.48828 73.5417 9.40234 73.2695 9.23047C73.0117 9.05859 72.8828 8.82227 72.8828 8.52148ZM82.916 24.2695C82.7155 23.9831 82.5436 23.5892 82.4004 23.0879C82.2715 22.5723 82.1426 22.0352 82.0137 21.4766C81.8991 20.9036 81.7917 20.3522 81.6914 19.8223C81.5911 19.278 81.4837 18.8483 81.3691 18.5332C81.2689 18.2038 81.1543 18.0176 81.0254 17.9746C80.8965 17.9316 80.7461 18.125 80.5742 18.5547L78.7051 24.3125C78.6335 24.513 78.5475 24.6562 78.4473 24.7422C78.347 24.8138 78.1823 24.8496 77.9531 24.8496C77.8385 24.8496 77.7168 24.8353 77.5879 24.8066C77.459 24.7637 77.3372 24.7064 77.2227 24.6348C77.1081 24.5632 77.0078 24.4772 76.9219 24.377C76.8503 24.2767 76.8073 24.1621 76.793 24.0332C76.8359 23.8613 76.8717 23.5462 76.9004 23.0879C76.9434 22.6296 76.972 22.0996 76.9863 21.498C77.0007 20.8965 77.0078 20.2663 77.0078 19.6074C77.0221 18.9342 77.0221 18.3112 77.0078 17.7383C77.0078 17.151 77.0007 16.6497 76.9863 16.2344C76.972 15.8047 76.9577 15.5254 76.9434 15.3965C76.9434 15.2533 76.9434 15.11 76.9434 14.9668C76.9577 14.8092 76.9792 14.666 77.0078 14.5371C77.0508 14.4082 77.1152 14.3079 77.2012 14.2363C77.3014 14.1504 77.4518 14.1074 77.6523 14.1074C77.9245 14.1074 78.1751 14.222 78.4043 14.4512C78.6478 14.6803 78.7695 14.9238 78.7695 15.1816C78.7695 15.554 78.748 15.9264 78.7051 16.2988C78.6764 16.6569 78.6621 17.0221 78.6621 17.3945C78.6621 17.6237 78.6621 17.8171 78.6621 17.9746C78.6621 18.1322 78.6908 18.3255 78.748 18.5547C78.791 18.4401 78.8626 18.2396 78.9629 17.9531C79.0632 17.6667 79.1706 17.3659 79.2852 17.0508C79.4141 16.7357 79.5286 16.4421 79.6289 16.1699C79.7292 15.8835 79.8008 15.6829 79.8438 15.5684C79.944 15.2819 80.0944 15.0098 80.2949 14.752C80.4954 14.4798 80.7604 14.3294 81.0898 14.3008C81.3047 14.2865 81.498 14.3438 81.6699 14.4727C81.8561 14.6016 82.0137 14.7734 82.1426 14.9883C82.2715 15.1888 82.3789 15.4036 82.4648 15.6328C82.5508 15.8477 82.6152 16.0339 82.6582 16.1914L83.8184 21.541L84.7207 23.9902C84.735 24.0046 84.7422 24.0475 84.7422 24.1191C84.7422 24.1764 84.7422 24.2194 84.7422 24.248C84.7422 24.4199 84.6992 24.5918 84.6133 24.7637C84.5417 24.9212 84.4056 25 84.2051 25C83.9616 25 83.7109 24.9355 83.4531 24.8066C83.1953 24.6634 83.0163 24.4844 82.916 24.2695ZM94.668 18.8984C94.6393 19.1562 94.6035 19.3568 94.5605 19.5C94.5319 19.6432 94.4746 19.7721 94.3887 19.8867C94.3027 20.0013 94.181 20.123 94.0234 20.252C93.8659 20.3665 93.651 20.5384 93.3789 20.7676C93.1068 20.9824 92.7702 21.2689 92.3691 21.627C91.9681 21.985 91.4811 22.4505 90.9082 23.0234C90.679 23.2383 90.4427 23.4603 90.1992 23.6895C89.9557 23.9186 89.6979 24.1263 89.4258 24.3125C89.168 24.4844 88.8958 24.6276 88.6094 24.7422C88.3229 24.8568 88.0221 24.9141 87.707 24.9141C87.0911 24.9141 86.64 24.7064 86.3535 24.291C86.0671 23.8757 85.9238 23.3958 85.9238 22.8516C85.9238 22.4935 85.931 22.1927 85.9453 21.9492C85.974 21.7057 86.0312 21.3906 86.1172 21.0039C85.9596 20.8607 85.8236 20.7389 85.709 20.6387C85.5944 20.5241 85.5371 20.3737 85.5371 20.1875C85.5371 20.0156 85.5729 19.901 85.6445 19.8438C85.7305 19.7865 85.8236 19.7507 85.9238 19.7363C86.0384 19.7077 86.1458 19.679 86.2461 19.6504C86.3464 19.6217 86.418 19.5645 86.4609 19.4785C86.4896 19.3926 86.5397 19.235 86.6113 19.0059C86.6973 18.7767 86.7832 18.5404 86.8691 18.2969C86.9551 18.0391 87.0339 17.8027 87.1055 17.5879C87.1914 17.3587 87.2487 17.2012 87.2773 17.1152C87.3776 16.8717 87.485 16.6283 87.5996 16.3848C87.7285 16.127 87.8717 15.8978 88.0293 15.6973C88.2012 15.4967 88.3945 15.332 88.6094 15.2031C88.8385 15.0742 89.1035 15.0098 89.4043 15.0098C89.5762 15.0098 89.7839 15.0885 90.0273 15.2461C90.2852 15.4036 90.5286 15.597 90.7578 15.8262C90.987 16.041 91.1803 16.2702 91.3379 16.5137C91.4954 16.7572 91.5742 16.9648 91.5742 17.1367C91.5742 17.3516 91.5241 17.5521 91.4238 17.7383C91.3236 17.9102 91.1947 18.0749 91.0371 18.2324C90.8939 18.3757 90.7363 18.5117 90.5645 18.6406C90.3926 18.7695 90.235 18.8913 90.0918 19.0059C90.0775 19.0059 90.0488 19.0202 90.0059 19.0488C89.9629 19.0775 89.9271 19.099 89.8984 19.1133C89.8841 19.1276 89.8483 19.1634 89.791 19.2207C89.748 19.2637 89.6979 19.3138 89.6406 19.3711C89.5833 19.4284 89.526 19.4857 89.4688 19.543C89.4258 19.6003 89.3971 19.6361 89.3828 19.6504C89.3398 19.6934 89.2539 19.765 89.125 19.8652C89.0104 19.9512 88.8815 20.0514 88.7383 20.166C88.5951 20.2663 88.459 20.3665 88.3301 20.4668C88.2155 20.5527 88.1367 20.61 88.0938 20.6387L88.0078 20.8105C87.9792 20.8678 87.9505 20.9967 87.9219 21.1973C87.9076 21.3835 87.8861 21.5983 87.8574 21.8418C87.8288 22.0853 87.8001 22.3359 87.7715 22.5938C87.7572 22.8372 87.75 23.0378 87.75 23.1953C87.75 23.2096 87.7572 23.224 87.7715 23.2383C87.8001 23.2669 87.8216 23.2812 87.8359 23.2812C87.9505 23.2812 88.0579 23.2311 88.1582 23.1309C88.2585 23.0306 88.3659 22.959 88.4805 22.916L91.918 19.7363L92.7988 18.3828C92.8704 18.2826 93.0065 18.1751 93.207 18.0605C93.4219 17.9316 93.6367 17.8672 93.8516 17.8672C94.0664 17.8529 94.2526 17.9173 94.4102 18.0605C94.582 18.2038 94.668 18.4831 94.668 18.8984ZM89.9414 17.2227C90.013 17.1654 90.0417 17.0794 90.0273 16.9648C90.013 16.8503 89.9701 16.75 89.8984 16.6641C89.8411 16.5781 89.7624 16.528 89.6621 16.5137C89.5618 16.485 89.4688 16.5352 89.3828 16.6641C89.3398 16.7214 89.2611 16.8359 89.1465 17.0078C89.0462 17.1797 88.9388 17.3587 88.8242 17.5449C88.724 17.7168 88.638 17.8672 88.5664 17.9961C88.4948 18.125 88.4805 18.1751 88.5234 18.1465L89.9414 17.2227ZM104.25 21.6699C104.25 20.5671 104.264 19.4714 104.293 18.3828C104.336 17.2943 104.357 16.1914 104.357 15.0742C104.357 14.4297 104.322 13.7852 104.25 13.1406C104.193 12.4961 104.164 11.8516 104.164 11.207C104.164 11.0065 104.221 10.8346 104.336 10.6914C104.465 10.5482 104.63 10.4766 104.83 10.4766C105.174 10.4766 105.432 10.5482 105.604 10.6914C105.775 10.8346 105.897 11.0137 105.969 11.2285C106.04 11.4434 106.076 11.6868 106.076 11.959C106.076 12.2311 106.076 12.4961 106.076 12.7539C106.076 12.8112 106.076 12.9544 106.076 13.1836C106.09 13.4128 106.105 13.6634 106.119 13.9355C106.133 14.1934 106.141 14.4368 106.141 14.666C106.155 14.8952 106.162 15.0384 106.162 15.0957V15.8047C106.162 16.7357 106.148 17.6595 106.119 18.5762C106.09 19.4928 106.076 20.4238 106.076 21.3691V22.2715C106.076 22.3431 106.083 22.4434 106.098 22.5723C106.126 22.6868 106.148 22.7441 106.162 22.7441H106.334L111.426 20.7246C111.54 20.6243 111.641 20.5742 111.727 20.5742C111.812 20.5599 111.913 20.5527 112.027 20.5527C112.099 20.5527 112.192 20.5599 112.307 20.5742C112.421 20.5742 112.529 20.5957 112.629 20.6387C112.743 20.6673 112.837 20.7174 112.908 20.7891C112.994 20.8464 113.037 20.9395 113.037 21.0684C113.037 21.3978 112.858 21.6842 112.5 21.9277C112.042 22.1712 111.569 22.4004 111.082 22.6152C110.595 22.8158 110.101 22.9805 109.6 23.1094L109.492 23.1953C108.805 23.3815 108.16 23.6536 107.559 24.0117C106.971 24.3698 106.355 24.6992 105.711 25H105.518C105.131 25 104.844 24.8711 104.658 24.6133C104.472 24.3555 104.35 24.0547 104.293 23.7109C104.236 23.3529 104.214 22.9876 104.229 22.6152C104.243 22.2285 104.25 21.9134 104.25 21.6699ZM122.641 18.8984C122.612 19.1562 122.576 19.3568 122.533 19.5C122.505 19.6432 122.447 19.7721 122.361 19.8867C122.275 20.0013 122.154 20.123 121.996 20.252C121.839 20.3665 121.624 20.5384 121.352 20.7676C121.079 20.9824 120.743 21.2689 120.342 21.627C119.941 21.985 119.454 22.4505 118.881 23.0234C118.652 23.2383 118.415 23.4603 118.172 23.6895C117.928 23.9186 117.671 24.1263 117.398 24.3125C117.141 24.4844 116.868 24.6276 116.582 24.7422C116.296 24.8568 115.995 24.9141 115.68 24.9141C115.064 24.9141 114.613 24.7064 114.326 24.291C114.04 23.8757 113.896 23.3958 113.896 22.8516C113.896 22.4935 113.904 22.1927 113.918 21.9492C113.947 21.7057 114.004 21.3906 114.09 21.0039C113.932 20.8607 113.796 20.7389 113.682 20.6387C113.567 20.5241 113.51 20.3737 113.51 20.1875C113.51 20.0156 113.546 19.901 113.617 19.8438C113.703 19.7865 113.796 19.7507 113.896 19.7363C114.011 19.7077 114.118 19.679 114.219 19.6504C114.319 19.6217 114.391 19.5645 114.434 19.4785C114.462 19.3926 114.512 19.235 114.584 19.0059C114.67 18.7767 114.756 18.5404 114.842 18.2969C114.928 18.0391 115.007 17.8027 115.078 17.5879C115.164 17.3587 115.221 17.2012 115.25 17.1152C115.35 16.8717 115.458 16.6283 115.572 16.3848C115.701 16.127 115.844 15.8978 116.002 15.6973C116.174 15.4967 116.367 15.332 116.582 15.2031C116.811 15.0742 117.076 15.0098 117.377 15.0098C117.549 15.0098 117.757 15.0885 118 15.2461C118.258 15.4036 118.501 15.597 118.73 15.8262C118.96 16.041 119.153 16.2702 119.311 16.5137C119.468 16.7572 119.547 16.9648 119.547 17.1367C119.547 17.3516 119.497 17.5521 119.396 17.7383C119.296 17.9102 119.167 18.0749 119.01 18.2324C118.867 18.3757 118.709 18.5117 118.537 18.6406C118.365 18.7695 118.208 18.8913 118.064 19.0059C118.05 19.0059 118.021 19.0202 117.979 19.0488C117.936 19.0775 117.9 19.099 117.871 19.1133C117.857 19.1276 117.821 19.1634 117.764 19.2207C117.721 19.2637 117.671 19.3138 117.613 19.3711C117.556 19.4284 117.499 19.4857 117.441 19.543C117.398 19.6003 117.37 19.6361 117.355 19.6504C117.312 19.6934 117.227 19.765 117.098 19.8652C116.983 19.9512 116.854 20.0514 116.711 20.166C116.568 20.2663 116.432 20.3665 116.303 20.4668C116.188 20.5527 116.109 20.61 116.066 20.6387L115.98 20.8105C115.952 20.8678 115.923 20.9967 115.895 21.1973C115.88 21.3835 115.859 21.5983 115.83 21.8418C115.801 22.0853 115.773 22.3359 115.744 22.5938C115.73 22.8372 115.723 23.0378 115.723 23.1953C115.723 23.2096 115.73 23.224 115.744 23.2383C115.773 23.2669 115.794 23.2812 115.809 23.2812C115.923 23.2812 116.031 23.2311 116.131 23.1309C116.231 23.0306 116.339 22.959 116.453 22.916L119.891 19.7363L120.771 18.3828C120.843 18.2826 120.979 18.1751 121.18 18.0605C121.395 17.9316 121.609 17.8672 121.824 17.8672C122.039 17.8529 122.225 17.9173 122.383 18.0605C122.555 18.2038 122.641 18.4831 122.641 18.8984ZM117.914 17.2227C117.986 17.1654 118.014 17.0794 118 16.9648C117.986 16.8503 117.943 16.75 117.871 16.6641C117.814 16.5781 117.735 16.528 117.635 16.5137C117.535 16.485 117.441 16.5352 117.355 16.6641C117.312 16.7214 117.234 16.8359 117.119 17.0078C117.019 17.1797 116.911 17.3587 116.797 17.5449C116.697 17.7168 116.611 17.8672 116.539 17.9961C116.467 18.125 116.453 18.1751 116.496 18.1465L117.914 17.2227ZM128.227 19.0059C128.098 19.235 127.947 19.5143 127.775 19.8438C127.618 20.1589 127.446 20.5026 127.26 20.875C127.074 21.2331 126.866 21.5983 126.637 21.9707C126.422 22.3288 126.193 22.6582 125.949 22.959C125.72 23.2598 125.477 23.5176 125.219 23.7324C124.961 23.9329 124.696 24.0547 124.424 24.0977C124.309 24.0977 124.18 24.0905 124.037 24.0762C123.894 24.0475 123.751 24.0117 123.607 23.9688C123.464 23.9115 123.342 23.8398 123.242 23.7539C123.156 23.6536 123.113 23.5247 123.113 23.3672C123.128 21.9062 123.235 20.5814 123.436 19.3926C123.636 18.1895 123.951 17.1367 124.381 16.2344C124.811 15.3177 125.362 14.5586 126.035 13.957C126.708 13.3555 127.525 12.9258 128.484 12.668C128.513 12.668 128.563 12.668 128.635 12.668C128.721 12.6536 128.778 12.6465 128.807 12.6465C129.236 12.6322 129.544 12.8327 129.73 13.248C129.931 13.6491 130.074 14.2936 130.16 15.1816C130.26 16.0553 130.325 17.1868 130.354 18.5762C130.396 19.9512 130.475 21.6055 130.59 23.5391C130.633 23.6966 130.654 23.8327 130.654 23.9473C130.669 24.0618 130.676 24.1979 130.676 24.3555C130.676 24.5703 130.611 24.735 130.482 24.8496C130.354 24.9499 130.189 25 129.988 25C129.573 25 129.279 24.8854 129.107 24.6562C128.936 24.4271 128.821 24.1191 128.764 23.7324C128.764 23.7181 128.749 23.6035 128.721 23.3887C128.706 23.1738 128.678 22.9303 128.635 22.6582C128.606 22.3717 128.577 22.0853 128.549 21.7988C128.52 21.5124 128.499 21.276 128.484 21.0898V21.0039C128.456 20.8607 128.434 20.6816 128.42 20.4668C128.42 20.252 128.406 20.0443 128.377 19.8438C128.348 19.6003 128.327 19.3568 128.312 19.1133L128.227 19.0059ZM127.754 14.752C127.367 15.0384 126.988 15.4251 126.615 15.9121C126.243 16.3991 125.978 16.8717 125.82 17.3301C125.749 17.5449 125.67 17.8385 125.584 18.2109C125.498 18.5833 125.419 18.9557 125.348 19.3281C125.29 19.6862 125.24 20.0228 125.197 20.3379C125.154 20.6387 125.133 20.832 125.133 20.918C125.147 20.918 125.161 20.9036 125.176 20.875C125.204 20.8464 125.226 20.8249 125.24 20.8105C126.128 19.9512 126.751 19.0273 127.109 18.0391C127.482 17.0365 127.697 15.9408 127.754 14.752ZM132.76 24.0762C132.731 23.5605 132.681 22.873 132.609 22.0137C132.552 21.14 132.48 20.2376 132.395 19.3066C132.323 18.3757 132.244 17.4948 132.158 16.6641C132.072 15.8333 132.001 15.1888 131.943 14.7305C131.943 14.5443 132.029 14.4225 132.201 14.3652C132.373 14.3079 132.538 14.2793 132.695 14.2793C132.896 14.2793 133.104 14.3366 133.318 14.4512C133.548 14.5658 133.691 14.7233 133.748 14.9238C133.748 14.9811 133.755 15.0885 133.77 15.2461C133.784 15.3893 133.791 15.5397 133.791 15.6973C133.805 15.8548 133.82 16.0124 133.834 16.1699C133.848 16.3132 133.855 16.4134 133.855 16.4707C133.855 16.5566 133.855 16.6211 133.855 16.6641C133.855 16.707 133.855 16.75 133.855 16.793C133.855 16.8216 133.863 16.8574 133.877 16.9004C133.891 16.9434 133.913 17.015 133.941 17.1152C133.97 17.0866 133.999 17.0508 134.027 17.0078C134.07 16.9648 134.099 16.9362 134.113 16.9219C134.342 16.5924 134.564 16.306 134.779 16.0625C134.994 15.8047 135.216 15.5684 135.445 15.3535C135.674 15.1243 135.925 14.888 136.197 14.6445C136.484 14.3867 136.813 14.0931 137.186 13.7637C137.271 13.6921 137.336 13.6419 137.379 13.6133C137.422 13.5703 137.458 13.5417 137.486 13.5273C137.529 13.4987 137.572 13.4844 137.615 13.4844C137.658 13.4701 137.715 13.4629 137.787 13.4629C138.031 13.4629 138.274 13.5488 138.518 13.7207C138.775 13.8783 138.904 14.1003 138.904 14.3867C138.904 14.487 138.868 14.5944 138.797 14.709C138.725 14.8092 138.639 14.9095 138.539 15.0098C138.439 15.0957 138.331 15.1745 138.217 15.2461C138.117 15.3177 138.023 15.3678 137.938 15.3965C137.565 15.7259 137.171 16.1055 136.756 16.5352C136.34 16.9505 135.954 17.4017 135.596 17.8887C135.238 18.3757 134.944 18.8841 134.715 19.4141C134.486 19.944 134.371 20.474 134.371 21.0039C134.371 21.4909 134.407 21.9707 134.479 22.4434C134.55 22.916 134.586 23.3958 134.586 23.8828V24.6348C134.471 24.7493 134.371 24.8424 134.285 24.9141C134.199 24.9857 134.077 25.0215 133.92 25.0215C133.676 25.0215 133.44 24.9212 133.211 24.7207C132.982 24.5059 132.831 24.291 132.76 24.0762ZM145.586 24.2695C145.385 23.9831 145.214 23.5892 145.07 23.0879C144.941 22.5723 144.812 22.0352 144.684 21.4766C144.569 20.9036 144.462 20.3522 144.361 19.8223C144.261 19.278 144.154 18.8483 144.039 18.5332C143.939 18.2038 143.824 18.0176 143.695 17.9746C143.566 17.9316 143.416 18.125 143.244 18.5547L141.375 24.3125C141.303 24.513 141.217 24.6562 141.117 24.7422C141.017 24.8138 140.852 24.8496 140.623 24.8496C140.508 24.8496 140.387 24.8353 140.258 24.8066C140.129 24.7637 140.007 24.7064 139.893 24.6348C139.778 24.5632 139.678 24.4772 139.592 24.377C139.52 24.2767 139.477 24.1621 139.463 24.0332C139.506 23.8613 139.542 23.5462 139.57 23.0879C139.613 22.6296 139.642 22.0996 139.656 21.498C139.671 20.8965 139.678 20.2663 139.678 19.6074C139.692 18.9342 139.692 18.3112 139.678 17.7383C139.678 17.151 139.671 16.6497 139.656 16.2344C139.642 15.8047 139.628 15.5254 139.613 15.3965C139.613 15.2533 139.613 15.11 139.613 14.9668C139.628 14.8092 139.649 14.666 139.678 14.5371C139.721 14.4082 139.785 14.3079 139.871 14.2363C139.971 14.1504 140.122 14.1074 140.322 14.1074C140.594 14.1074 140.845 14.222 141.074 14.4512C141.318 14.6803 141.439 14.9238 141.439 15.1816C141.439 15.554 141.418 15.9264 141.375 16.2988C141.346 16.6569 141.332 17.0221 141.332 17.3945C141.332 17.6237 141.332 17.8171 141.332 17.9746C141.332 18.1322 141.361 18.3255 141.418 18.5547C141.461 18.4401 141.533 18.2396 141.633 17.9531C141.733 17.6667 141.84 17.3659 141.955 17.0508C142.084 16.7357 142.199 16.4421 142.299 16.1699C142.399 15.8835 142.471 15.6829 142.514 15.5684C142.614 15.2819 142.764 15.0098 142.965 14.752C143.165 14.4798 143.43 14.3294 143.76 14.3008C143.975 14.2865 144.168 14.3438 144.34 14.4727C144.526 14.6016 144.684 14.7734 144.812 14.9883C144.941 15.1888 145.049 15.4036 145.135 15.6328C145.221 15.8477 145.285 16.0339 145.328 16.1914L146.488 21.541L147.391 23.9902C147.405 24.0046 147.412 24.0475 147.412 24.1191C147.412 24.1764 147.412 24.2194 147.412 24.248C147.412 24.4199 147.369 24.5918 147.283 24.7637C147.212 24.9212 147.076 25 146.875 25C146.632 25 146.381 24.9355 146.123 24.8066C145.865 24.6634 145.686 24.4844 145.586 24.2695ZM149.367 24.1836C149.224 22.7513 149.102 21.5267 149.002 20.5098C148.902 19.4928 148.816 18.6406 148.744 17.9531C148.673 17.2656 148.608 16.7214 148.551 16.3203C148.508 15.9049 148.472 15.597 148.443 15.3965C148.415 15.1816 148.393 15.0384 148.379 14.9668C148.365 14.8952 148.357 14.8522 148.357 14.8379V14.752C148.357 14.5944 148.422 14.4655 148.551 14.3652C148.694 14.2507 148.837 14.1934 148.98 14.1934C149.195 14.1934 149.424 14.2292 149.668 14.3008C149.926 14.3724 150.098 14.5228 150.184 14.752C150.312 15.4538 150.398 16.1628 150.441 16.8789C150.499 17.5951 150.542 18.3112 150.57 19.0273C150.613 19.7292 150.663 20.4382 150.721 21.1543C150.792 21.8704 150.914 22.5794 151.086 23.2812C151.086 23.3099 151.093 23.3672 151.107 23.4531C151.136 23.5391 151.158 23.6322 151.172 23.7324C151.201 23.8327 151.222 23.9258 151.236 24.0117C151.251 24.0977 151.258 24.1549 151.258 24.1836V24.2266C151.258 24.2409 151.265 24.2552 151.279 24.2695C151.279 24.4414 151.201 24.6133 151.043 24.7852C150.885 24.957 150.721 25.0286 150.549 25C150.506 24.9857 150.398 24.9642 150.227 24.9355C150.069 24.8926 149.962 24.8568 149.904 24.8281C149.861 24.8138 149.804 24.7852 149.732 24.7422C149.661 24.6849 149.589 24.6276 149.518 24.5703C149.46 24.513 149.41 24.4486 149.367 24.377C149.324 24.3053 149.324 24.2409 149.367 24.1836ZM148.164 8.52148C148.164 8.42122 148.243 8.33529 148.4 8.26367C148.572 8.17773 148.701 8.13477 148.787 8.13477C149.002 8.13477 149.238 8.19922 149.496 8.32812C149.768 8.44271 149.904 8.62174 149.904 8.86523C149.904 9.10872 149.868 9.27344 149.797 9.35938C149.74 9.44531 149.589 9.48828 149.346 9.48828C149.088 9.48828 148.823 9.40234 148.551 9.23047C148.293 9.05859 148.164 8.82227 148.164 8.52148ZM158.197 24.2695C157.997 23.9831 157.825 23.5892 157.682 23.0879C157.553 22.5723 157.424 22.0352 157.295 21.4766C157.18 20.9036 157.073 20.3522 156.973 19.8223C156.872 19.278 156.765 18.8483 156.65 18.5332C156.55 18.2038 156.436 18.0176 156.307 17.9746C156.178 17.9316 156.027 18.125 155.855 18.5547L153.986 24.3125C153.915 24.513 153.829 24.6562 153.729 24.7422C153.628 24.8138 153.464 24.8496 153.234 24.8496C153.12 24.8496 152.998 24.8353 152.869 24.8066C152.74 24.7637 152.618 24.7064 152.504 24.6348C152.389 24.5632 152.289 24.4772 152.203 24.377C152.132 24.2767 152.089 24.1621 152.074 24.0332C152.117 23.8613 152.153 23.5462 152.182 23.0879C152.225 22.6296 152.253 22.0996 152.268 21.498C152.282 20.8965 152.289 20.2663 152.289 19.6074C152.303 18.9342 152.303 18.3112 152.289 17.7383C152.289 17.151 152.282 16.6497 152.268 16.2344C152.253 15.8047 152.239 15.5254 152.225 15.3965C152.225 15.2533 152.225 15.11 152.225 14.9668C152.239 14.8092 152.26 14.666 152.289 14.5371C152.332 14.4082 152.396 14.3079 152.482 14.2363C152.583 14.1504 152.733 14.1074 152.934 14.1074C153.206 14.1074 153.456 14.222 153.686 14.4512C153.929 14.6803 154.051 14.9238 154.051 15.1816C154.051 15.554 154.029 15.9264 153.986 16.2988C153.958 16.6569 153.943 17.0221 153.943 17.3945C153.943 17.6237 153.943 17.8171 153.943 17.9746C153.943 18.1322 153.972 18.3255 154.029 18.5547C154.072 18.4401 154.144 18.2396 154.244 17.9531C154.344 17.6667 154.452 17.3659 154.566 17.0508C154.695 16.7357 154.81 16.4421 154.91 16.1699C155.01 15.8835 155.082 15.6829 155.125 15.5684C155.225 15.2819 155.376 15.0098 155.576 14.752C155.777 14.4798 156.042 14.3294 156.371 14.3008C156.586 14.2865 156.779 14.3438 156.951 14.4727C157.137 14.6016 157.295 14.7734 157.424 14.9883C157.553 15.1888 157.66 15.4036 157.746 15.6328C157.832 15.8477 157.896 16.0339 157.939 16.1914L159.1 21.541L160.002 23.9902C160.016 24.0046 160.023 24.0475 160.023 24.1191C160.023 24.1764 160.023 24.2194 160.023 24.248C160.023 24.4199 159.98 24.5918 159.895 24.7637C159.823 24.9212 159.687 25 159.486 25C159.243 25 158.992 24.9355 158.734 24.8066C158.477 24.6634 158.298 24.4844 158.197 24.2695ZM162.021 32.498C161.964 32.3405 161.964 32.1615 162.021 31.9609C162.093 31.7604 162.229 31.6315 162.43 31.5742C162.759 31.7174 163.103 31.8105 163.461 31.8535C163.819 31.8965 164.177 31.9036 164.535 31.875C164.908 31.8464 165.273 31.7891 165.631 31.7031C165.989 31.6172 166.333 31.5169 166.662 31.4023C166.992 31.1302 167.221 30.7721 167.35 30.3281C167.479 29.8984 167.529 29.304 167.5 28.5449C167.471 27.8001 167.371 26.862 167.199 25.7305C167.042 24.6133 166.834 23.2383 166.576 21.6055C166.576 21.5625 166.576 21.498 166.576 21.4121C166.59 21.3262 166.59 21.2474 166.576 21.1758C166.562 21.0898 166.533 21.0254 166.49 20.9824C166.462 20.9395 166.419 20.9395 166.361 20.9824C166.175 21.3405 165.953 21.7344 165.695 22.1641C165.452 22.5794 165.165 22.9733 164.836 23.3457C164.521 23.7038 164.163 24.0046 163.762 24.248C163.375 24.4915 162.938 24.6133 162.451 24.6133C162.021 24.6133 161.642 24.4915 161.312 24.248C160.997 23.9902 160.84 23.625 160.84 23.1523C160.84 22.7943 160.911 22.3431 161.055 21.7988C161.212 21.2546 161.42 20.6816 161.678 20.0801C161.936 19.4642 162.236 18.8555 162.58 18.2539C162.924 17.6523 163.282 17.1081 163.654 16.6211C164.027 16.1341 164.406 15.7402 164.793 15.4395C165.18 15.1243 165.552 14.9668 165.91 14.9668C166.053 14.9668 166.24 14.9954 166.469 15.0527C166.712 15.0957 166.941 15.1673 167.156 15.2676C167.385 15.3678 167.579 15.4824 167.736 15.6113C167.908 15.7402 167.994 15.8906 167.994 16.0625V17.8027L169.391 27.9434C169.391 28.5163 169.376 29.0605 169.348 29.5762C169.333 30.1061 169.24 30.5931 169.068 31.0371C168.911 31.4811 168.653 31.875 168.295 32.2188C167.937 32.5625 167.421 32.8418 166.748 33.0566C166.662 33.0996 166.483 33.1354 166.211 33.1641C165.939 33.1927 165.624 33.2142 165.266 33.2285C164.922 33.2428 164.549 33.2428 164.148 33.2285C163.762 33.2142 163.404 33.1784 163.074 33.1211C162.759 33.0781 162.501 33.0065 162.301 32.9062C162.1 32.806 162.007 32.6699 162.021 32.498ZM165.373 16.8789C165.23 17.0365 165.036 17.2871 164.793 17.6309C164.564 17.9746 164.327 18.3542 164.084 18.7695C163.84 19.1849 163.597 19.6217 163.354 20.0801C163.124 20.5241 162.938 20.9395 162.795 21.3262C162.652 21.7129 162.559 22.0423 162.516 22.3145C162.487 22.5866 162.551 22.7513 162.709 22.8086C163.01 22.651 163.332 22.3932 163.676 22.0352C164.02 21.6628 164.342 21.2546 164.643 20.8105C164.958 20.3522 165.23 19.8867 165.459 19.4141C165.702 18.9271 165.867 18.4902 165.953 18.1035C166.053 17.7168 166.061 17.4089 165.975 17.1797C165.903 16.9362 165.702 16.8359 165.373 16.8789Z" fill="black"/>
<defs>
<filter id="filter0_i_4598_1913" x="1.95215" y="1.96155" width="200.593" height="33.5385" filterUnits="userSpaceOnUse" color-interpolation-filters="sRGB">
<feFlood flood-opacity="0" result="BackgroundImageFix"/>
<feBlend mode="normal" in="SourceGraphic" in2="BackgroundImageFix" result="shape"/>
<feColorMatrix in="SourceAlpha" type="matrix" values="0 0 0 0 0 0 0 0 0 0 0 0 0 0 0 0 0 0 127 0" result="hardAlpha"/>
<feOffset dx="4" dy="4"/>
<feComposite in2="hardAlpha" operator="arithmetic" k2="-1" k3="1"/>
<feColorMatrix type="matrix" values="0 0 0 0 0.694118 0 0 0 0 0.721569 0 0 0 0 0.741176 0 0 0 1 0"/>
<feBlend mode="multiply" in2="shape" result="effect1_innerShadow_4598_1913"/>
</filter>
</defs>
</svg>
