<svg width="204" height="37" viewBox="0 0 204 37" fill="none" xmlns="http://www.w3.org/2000/svg">
<g filter="url(#filter0_i_4581_2382)">
<path d="M198.022 7.61228C201.541 11.6933 201.541 20.3656 201.541 20.3656C201.731 28.2124 195.276 34.5 187.02 34.5C187.02 31.5523 187.02 2.00081 187.02 2.00081C190.163 1.66061 194.502 3.53121 198.022 7.61228Z" fill="white"/>
<path d="M18.7676 2H187.02V34.5C187.02 34.5 162.062 34.2049 134.486 34.5C119.099 34.6647 86.7922 35.5 75.2357 35.5C42.9682 35.5 18.7676 34.5 18.7676 34.5V2Z" fill="white"/>
<path d="M5.14517 27.9432C0.335274 22.3612 1.47845 11.5 5.14549 8C8.81252 4.5 8.60485 4.5 11.9565 3.5C15.3082 2.5 18.7674 2 18.7674 2V34.5C13.1929 34.5 9.95507 33.5252 5.14517 27.9432Z" fill="white"/>
</g>
<path d="M18.7676 34.5C47.271 34.5 46.2982 35 74.7865 35C103.29 35 106.725 34.4063 135.228 34.4063C163.731 34.4063 155.373 34 183.876 34" stroke="black" stroke-width="3" stroke-miterlimit="10" stroke-linecap="round" stroke-linejoin="round"/>
<path d="M2.00244 17.5C2.00244 7 9.6485 2 18.555 2C11.2202 2 2.52635 8 2.52635 17.5C2.52635 31.5 14.5763 34.5 18.2437 34.5C10.385 34.5 2.00244 28 2.00244 17.5Z" stroke="black" stroke-width="3" stroke-linecap="round" stroke-linejoin="round"/>
<path d="M202 19C202 29.5 192.782 34 183.876 34C191.211 34 200.33 30.5 201.165 20.5C202.33 6.54422 191.735 2 185.759 1.99999C193.617 2 202 8.49998 202 19Z" stroke="black" stroke-width="3" stroke-linecap="round" stroke-linejoin="round"/>
<path d="M18.7676 2C46.8797 2 43.9718 2 72.0691 2C100.181 2 100.267 1.5 128.379 1.5C156.491 1.5 157.86 2.00001 185.972 2.00001" stroke="black" stroke-width="3" stroke-miterlimit="10" stroke-linecap="round" stroke-linejoin="round"/>
<path d="M35.7305 24.3555C35.7018 22.7656 35.6589 21.1829 35.6016 19.6074C35.5586 18.0176 35.5371 16.4277 35.5371 14.8379C35.5371 14.7233 35.5371 14.5228 35.5371 14.2363C35.5371 13.9355 35.5371 13.6204 35.5371 13.291C35.5514 12.9616 35.5586 12.6536 35.5586 12.3672C35.5586 12.0807 35.5586 11.8802 35.5586 11.7656C35.6159 11.5365 35.7018 11.3574 35.8164 11.2285C35.931 11.0853 36.11 11.0137 36.3535 11.0137C36.597 11.0137 36.8118 11.0924 36.998 11.25C37.1842 11.3932 37.3346 11.5651 37.4492 11.7656L40.543 17.7383C40.5573 17.7669 40.6074 17.8529 40.6934 17.9961C40.7793 18.1393 40.8438 18.2396 40.8867 18.2969C40.901 18.3112 40.9225 18.3255 40.9512 18.3398C40.9798 18.3542 40.9941 18.3685 40.9941 18.3828L41.0801 18.1895L42.9062 11.7656C43.0352 11.5651 43.1283 11.3431 43.1855 11.0996C43.2572 10.8418 43.3288 10.5911 43.4004 10.3477C43.4863 10.1042 43.5866 9.875 43.7012 9.66016C43.8301 9.44531 44.0163 9.26628 44.2598 9.12305H44.4316C44.8184 9.12305 45.1048 9.23763 45.291 9.4668C45.4772 9.68164 45.6061 9.95378 45.6777 10.2832C45.7493 10.5983 45.778 10.9349 45.7637 11.293C45.7637 11.6367 45.7708 11.9375 45.7852 12.1953C45.7852 12.2956 45.7923 12.4889 45.8066 12.7754C45.8353 13.0618 45.8639 13.3984 45.8926 13.7852C45.9212 14.1719 45.9499 14.5872 45.9785 15.0312C46.0072 15.4609 46.0286 15.8691 46.043 16.2559C46.0716 16.6426 46.0931 16.9792 46.1074 17.2656C46.1361 17.5521 46.1504 17.7383 46.1504 17.8242V17.9102C46.1647 18.0391 46.1934 18.2539 46.2363 18.5547C46.2793 18.8555 46.3223 19.1777 46.3652 19.5215C46.4225 19.8509 46.4727 20.166 46.5156 20.4668C46.5586 20.7676 46.5944 20.9753 46.623 21.0898C46.6374 21.1615 46.6589 21.2689 46.6875 21.4121C46.7305 21.5553 46.7734 21.7129 46.8164 21.8848C46.8737 22.0423 46.9238 22.1927 46.9668 22.3359C47.0098 22.4792 47.0456 22.5794 47.0742 22.6367C47.0169 22.9661 46.931 23.224 46.8164 23.4102C46.7161 23.582 46.487 23.668 46.1289 23.668C46.0859 23.668 46.0215 23.668 45.9355 23.668C45.8496 23.6536 45.7995 23.6465 45.7852 23.6465C45.7422 23.6178 45.6562 23.5462 45.5273 23.4316C45.4128 23.3171 45.3483 23.2383 45.334 23.1953L44.9902 22.0137L44.3457 17.1152V16.9219C44.3314 16.6641 44.3242 16.3919 44.3242 16.1055C44.3242 15.8047 44.3171 15.5039 44.3027 15.2031C44.3027 14.9023 44.2884 14.6016 44.2598 14.3008C44.2311 14 44.1738 13.7207 44.0879 13.4629L43.9805 13.5918L42.4336 19.8223C42.4193 19.9798 42.4049 20.1517 42.3906 20.3379C42.3763 20.5098 42.3405 20.6816 42.2832 20.8535C42.2259 21.0111 42.14 21.1471 42.0254 21.2617C41.9108 21.3763 41.7461 21.4408 41.5312 21.4551C41.4453 21.4694 41.3522 21.4551 41.252 21.4121C41.1517 21.3691 41.0514 21.3118 40.9512 21.2402C40.8509 21.1686 40.7578 21.0898 40.6719 21.0039C40.6003 20.9036 40.5573 20.8105 40.543 20.7246L37.8145 16.3848L37.3633 15.4824V17.3301C37.3633 18.2038 37.3776 19.0632 37.4062 19.9082C37.4492 20.7389 37.4707 21.5911 37.4707 22.4648C37.4707 22.5365 37.4707 22.6654 37.4707 22.8516C37.4707 23.0234 37.4635 23.2096 37.4492 23.4102C37.4492 23.6107 37.4492 23.804 37.4492 23.9902C37.4492 24.1621 37.4492 24.2839 37.4492 24.3555C37.3919 24.5273 37.306 24.6777 37.1914 24.8066C37.0911 24.9355 36.9408 25 36.7402 25C36.4681 25 36.2533 24.957 36.0957 24.8711C35.9525 24.7708 35.8307 24.599 35.7305 24.3555ZM53.0684 19.0059C52.9395 19.235 52.7891 19.5143 52.6172 19.8438C52.4596 20.1589 52.2878 20.5026 52.1016 20.875C51.9154 21.2331 51.7077 21.5983 51.4785 21.9707C51.2637 22.3288 51.0345 22.6582 50.791 22.959C50.5618 23.2598 50.3184 23.5176 50.0605 23.7324C49.8027 23.9329 49.5378 24.0547 49.2656 24.0977C49.151 24.0977 49.0221 24.0905 48.8789 24.0762C48.7357 24.0475 48.5924 24.0117 48.4492 23.9688C48.306 23.9115 48.1842 23.8398 48.084 23.7539C47.998 23.6536 47.9551 23.5247 47.9551 23.3672C47.9694 21.9062 48.0768 20.5814 48.2773 19.3926C48.4779 18.1895 48.793 17.1367 49.2227 16.2344C49.6523 15.3177 50.2038 14.5586 50.877 13.957C51.5501 13.3555 52.3665 12.9258 53.3262 12.668C53.3548 12.668 53.4049 12.668 53.4766 12.668C53.5625 12.6536 53.6198 12.6465 53.6484 12.6465C54.0781 12.6322 54.3861 12.8327 54.5723 13.248C54.7728 13.6491 54.916 14.2936 55.002 15.1816C55.1022 16.0553 55.1667 17.1868 55.1953 18.5762C55.2383 19.9512 55.3171 21.6055 55.4316 23.5391C55.4746 23.6966 55.4961 23.8327 55.4961 23.9473C55.5104 24.0618 55.5176 24.1979 55.5176 24.3555C55.5176 24.5703 55.4531 24.735 55.3242 24.8496C55.1953 24.9499 55.0306 25 54.8301 25C54.4147 25 54.1211 24.8854 53.9492 24.6562C53.7773 24.4271 53.6628 24.1191 53.6055 23.7324C53.6055 23.7181 53.5911 23.6035 53.5625 23.3887C53.5482 23.1738 53.5195 22.9303 53.4766 22.6582C53.4479 22.3717 53.4193 22.0853 53.3906 21.7988C53.362 21.5124 53.3405 21.276 53.3262 21.0898V21.0039C53.2975 20.8607 53.276 20.6816 53.2617 20.4668C53.2617 20.252 53.2474 20.0443 53.2188 19.8438C53.1901 19.6003 53.1686 19.3568 53.1543 19.1133L53.0684 19.0059ZM52.5957 14.752C52.209 15.0384 51.8294 15.4251 51.457 15.9121C51.0846 16.3991 50.8197 16.8717 50.6621 17.3301C50.5905 17.5449 50.5117 17.8385 50.4258 18.2109C50.3398 18.5833 50.2611 18.9557 50.1895 19.3281C50.1322 19.6862 50.082 20.0228 50.0391 20.3379C49.9961 20.6387 49.9746 20.832 49.9746 20.918C49.9889 20.918 50.0033 20.9036 50.0176 20.875C50.0462 20.8464 50.0677 20.8249 50.082 20.8105C50.9701 19.9512 51.5931 19.0273 51.9512 18.0391C52.3236 17.0365 52.5384 15.9408 52.5957 14.752ZM56.6348 22.4219C56.5345 21.9922 56.5345 21.4837 56.6348 20.8965C56.7493 20.3092 56.9212 19.722 57.1504 19.1348C57.3939 18.5332 57.6875 17.9674 58.0312 17.4375C58.3893 16.9076 58.7617 16.485 59.1484 16.1699C59.5495 15.8548 59.9505 15.6829 60.3516 15.6543C60.7669 15.6113 61.1608 15.7904 61.5332 16.1914C61.5332 16.2057 61.5404 16.2415 61.5547 16.2988C61.569 16.3561 61.5833 16.4779 61.5977 16.6641C61.612 16.8359 61.6191 17.0866 61.6191 17.416C61.6335 17.7311 61.6406 18.168 61.6406 18.7266C61.6549 18.7552 61.6693 18.8053 61.6836 18.877C61.7122 18.9342 61.7266 18.9772 61.7266 19.0059C61.6836 19.1634 61.5977 19.3138 61.4688 19.457C61.3542 19.5859 61.2038 19.6504 61.0176 19.6504C60.7741 19.6504 60.5736 19.6146 60.416 19.543C60.2728 19.457 60.1654 19.2637 60.0938 18.9629C60.1224 18.9199 60.1296 18.834 60.1152 18.7051C60.1009 18.5618 60.0723 18.4043 60.0293 18.2324C60.0007 18.0605 59.972 17.8887 59.9434 17.7168C59.9147 17.5449 59.9004 17.4089 59.9004 17.3086C59.8861 17.3086 59.8646 17.3229 59.8359 17.3516C59.8216 17.3659 59.8073 17.3802 59.793 17.3945C59.5495 17.8242 59.3203 18.304 59.1055 18.834C58.9049 19.3496 58.7474 19.8796 58.6328 20.4238C58.5326 20.9538 58.4967 21.4837 58.5254 22.0137C58.5684 22.5436 58.7259 23.0234 58.998 23.4531C59.1986 23.4531 59.3848 23.3743 59.5566 23.2168C59.7285 23.0449 59.8717 22.8874 59.9863 22.7441C60.2298 22.4577 60.4661 22.1641 60.6953 21.8633C60.9388 21.5625 61.1608 21.2474 61.3613 20.918C61.4473 20.7747 61.5117 20.6458 61.5547 20.5312C61.5977 20.4167 61.6478 20.3236 61.7051 20.252C61.7767 20.1803 61.8626 20.123 61.9629 20.0801C62.0632 20.0371 62.2135 20.0156 62.4141 20.0156C62.6432 20.0156 62.8581 20.0729 63.0586 20.1875C63.2591 20.2878 63.3594 20.4596 63.3594 20.7031C63.3594 21.0326 63.209 21.4479 62.9082 21.9492C62.6217 22.4362 62.2637 22.9089 61.834 23.3672C61.4186 23.8255 60.9746 24.2194 60.502 24.5488C60.0293 24.8639 59.6139 25.0215 59.2559 25.0215C58.9121 25.0215 58.5755 24.957 58.2461 24.8281C57.931 24.6849 57.6517 24.4987 57.4082 24.2695C57.179 24.0404 56.9928 23.7682 56.8496 23.4531C56.7064 23.138 56.6348 22.7943 56.6348 22.4219ZM64.5625 14.4941C64.5911 13.6348 64.5553 12.7754 64.4551 11.916C64.3548 11.0566 64.3047 10.2044 64.3047 9.35938C64.3047 9.08724 64.3835 8.92253 64.541 8.86523C64.6986 8.79362 64.8776 8.75781 65.0781 8.75781C65.3646 8.75781 65.6009 8.83659 65.7871 8.99414C65.9733 9.15169 66.0807 9.3737 66.1094 9.66016C66.2383 11.2214 66.3099 12.7682 66.3242 14.3008C66.3529 15.819 66.4603 17.3587 66.6465 18.9199C67.0762 18.1035 67.5202 17.4303 67.9785 16.9004C68.4368 16.3704 68.8737 16.0195 69.2891 15.8477C69.7188 15.6758 70.1055 15.7116 70.4492 15.9551C70.8073 16.1842 71.0938 16.6497 71.3086 17.3516C71.5234 18.0391 71.6523 18.9844 71.6953 20.1875C71.7383 21.3763 71.6667 22.8587 71.4805 24.6348C71.3802 24.6348 71.2585 24.6419 71.1152 24.6562C70.972 24.6562 70.8288 24.6491 70.6855 24.6348C70.5566 24.6204 70.4421 24.5918 70.3418 24.5488C70.2415 24.5059 70.1842 24.4271 70.1699 24.3125C70.2845 23.2383 70.349 22.3359 70.3633 21.6055C70.3776 20.875 70.3561 20.2734 70.2988 19.8008C70.2415 19.3281 70.1628 18.9701 70.0625 18.7266C69.9622 18.4688 69.8548 18.2826 69.7402 18.168C69.6257 18.0534 69.5111 17.9961 69.3965 17.9961C69.2962 17.9818 69.2174 17.9818 69.1602 17.9961C68.8451 18.1107 68.5443 18.39 68.2578 18.834C67.9857 19.278 67.7493 19.7936 67.5488 20.3809C67.3483 20.9681 67.1979 21.5911 67.0977 22.25C67.0117 22.8945 66.9902 23.4746 67.0332 23.9902C67.0189 24.1048 67.0046 24.2194 66.9902 24.334C66.9759 24.4486 66.9473 24.556 66.9043 24.6562C66.8757 24.7565 66.8184 24.8424 66.7324 24.9141C66.6608 24.9714 66.5462 25 66.3887 25C66.0879 25 65.8444 24.9499 65.6582 24.8496C65.4863 24.735 65.3503 24.5918 65.25 24.4199C65.1641 24.248 65.1068 24.0475 65.0781 23.8184C65.0638 23.5892 65.071 23.3529 65.0996 23.1094L64.5625 14.4941ZM73.5859 24.1836C73.4427 22.7513 73.321 21.5267 73.2207 20.5098C73.1204 19.4928 73.0345 18.6406 72.9629 17.9531C72.8913 17.2656 72.8268 16.7214 72.7695 16.3203C72.7266 15.9049 72.6908 15.597 72.6621 15.3965C72.6335 15.1816 72.612 15.0384 72.5977 14.9668C72.5833 14.8952 72.5762 14.8522 72.5762 14.8379V14.752C72.5762 14.5944 72.6406 14.4655 72.7695 14.3652C72.9128 14.2507 73.056 14.1934 73.1992 14.1934C73.4141 14.1934 73.6432 14.2292 73.8867 14.3008C74.1445 14.3724 74.3164 14.5228 74.4023 14.752C74.5312 15.4538 74.6172 16.1628 74.6602 16.8789C74.7174 17.5951 74.7604 18.3112 74.7891 19.0273C74.832 19.7292 74.8822 20.4382 74.9395 21.1543C75.0111 21.8704 75.1328 22.5794 75.3047 23.2812C75.3047 23.3099 75.3118 23.3672 75.3262 23.4531C75.3548 23.5391 75.3763 23.6322 75.3906 23.7324C75.4193 23.8327 75.4408 23.9258 75.4551 24.0117C75.4694 24.0977 75.4766 24.1549 75.4766 24.1836V24.2266C75.4766 24.2409 75.4837 24.2552 75.498 24.2695C75.498 24.4414 75.4193 24.6133 75.2617 24.7852C75.1042 24.957 74.9395 25.0286 74.7676 25C74.7246 24.9857 74.6172 24.9642 74.4453 24.9355C74.2878 24.8926 74.1803 24.8568 74.123 24.8281C74.0801 24.8138 74.0228 24.7852 73.9512 24.7422C73.8796 24.6849 73.8079 24.6276 73.7363 24.5703C73.679 24.513 73.6289 24.4486 73.5859 24.377C73.543 24.3053 73.543 24.2409 73.5859 24.1836ZM72.3828 8.52148C72.3828 8.42122 72.4616 8.33529 72.6191 8.26367C72.791 8.17773 72.9199 8.13477 73.0059 8.13477C73.2207 8.13477 73.457 8.19922 73.7148 8.32812C73.987 8.44271 74.123 8.62174 74.123 8.86523C74.123 9.10872 74.0872 9.27344 74.0156 9.35938C73.9583 9.44531 73.8079 9.48828 73.5645 9.48828C73.3066 9.48828 73.0417 9.40234 72.7695 9.23047C72.5117 9.05859 72.3828 8.82227 72.3828 8.52148ZM82.416 24.2695C82.2155 23.9831 82.0436 23.5892 81.9004 23.0879C81.7715 22.5723 81.6426 22.0352 81.5137 21.4766C81.3991 20.9036 81.2917 20.3522 81.1914 19.8223C81.0911 19.278 80.9837 18.8483 80.8691 18.5332C80.7689 18.2038 80.6543 18.0176 80.5254 17.9746C80.3965 17.9316 80.2461 18.125 80.0742 18.5547L78.2051 24.3125C78.1335 24.513 78.0475 24.6562 77.9473 24.7422C77.847 24.8138 77.6823 24.8496 77.4531 24.8496C77.3385 24.8496 77.2168 24.8353 77.0879 24.8066C76.959 24.7637 76.8372 24.7064 76.7227 24.6348C76.6081 24.5632 76.5078 24.4772 76.4219 24.377C76.3503 24.2767 76.3073 24.1621 76.293 24.0332C76.3359 23.8613 76.3717 23.5462 76.4004 23.0879C76.4434 22.6296 76.472 22.0996 76.4863 21.498C76.5007 20.8965 76.5078 20.2663 76.5078 19.6074C76.5221 18.9342 76.5221 18.3112 76.5078 17.7383C76.5078 17.151 76.5007 16.6497 76.4863 16.2344C76.472 15.8047 76.4577 15.5254 76.4434 15.3965C76.4434 15.2533 76.4434 15.11 76.4434 14.9668C76.4577 14.8092 76.4792 14.666 76.5078 14.5371C76.5508 14.4082 76.6152 14.3079 76.7012 14.2363C76.8014 14.1504 76.9518 14.1074 77.1523 14.1074C77.4245 14.1074 77.6751 14.222 77.9043 14.4512C78.1478 14.6803 78.2695 14.9238 78.2695 15.1816C78.2695 15.554 78.248 15.9264 78.2051 16.2988C78.1764 16.6569 78.1621 17.0221 78.1621 17.3945C78.1621 17.6237 78.1621 17.8171 78.1621 17.9746C78.1621 18.1322 78.1908 18.3255 78.248 18.5547C78.291 18.4401 78.3626 18.2396 78.4629 17.9531C78.5632 17.6667 78.6706 17.3659 78.7852 17.0508C78.9141 16.7357 79.0286 16.4421 79.1289 16.1699C79.2292 15.8835 79.3008 15.6829 79.3438 15.5684C79.444 15.2819 79.5944 15.0098 79.7949 14.752C79.9954 14.4798 80.2604 14.3294 80.5898 14.3008C80.8047 14.2865 80.998 14.3438 81.1699 14.4727C81.3561 14.6016 81.5137 14.7734 81.6426 14.9883C81.7715 15.1888 81.8789 15.4036 81.9648 15.6328C82.0508 15.8477 82.1152 16.0339 82.1582 16.1914L83.3184 21.541L84.2207 23.9902C84.235 24.0046 84.2422 24.0475 84.2422 24.1191C84.2422 24.1764 84.2422 24.2194 84.2422 24.248C84.2422 24.4199 84.1992 24.5918 84.1133 24.7637C84.0417 24.9212 83.9056 25 83.7051 25C83.4616 25 83.2109 24.9355 82.9531 24.8066C82.6953 24.6634 82.5163 24.4844 82.416 24.2695ZM94.168 18.8984C94.1393 19.1562 94.1035 19.3568 94.0605 19.5C94.0319 19.6432 93.9746 19.7721 93.8887 19.8867C93.8027 20.0013 93.681 20.123 93.5234 20.252C93.3659 20.3665 93.151 20.5384 92.8789 20.7676C92.6068 20.9824 92.2702 21.2689 91.8691 21.627C91.4681 21.985 90.9811 22.4505 90.4082 23.0234C90.179 23.2383 89.9427 23.4603 89.6992 23.6895C89.4557 23.9186 89.1979 24.1263 88.9258 24.3125C88.668 24.4844 88.3958 24.6276 88.1094 24.7422C87.8229 24.8568 87.5221 24.9141 87.207 24.9141C86.5911 24.9141 86.14 24.7064 85.8535 24.291C85.5671 23.8757 85.4238 23.3958 85.4238 22.8516C85.4238 22.4935 85.431 22.1927 85.4453 21.9492C85.474 21.7057 85.5312 21.3906 85.6172 21.0039C85.4596 20.8607 85.3236 20.7389 85.209 20.6387C85.0944 20.5241 85.0371 20.3737 85.0371 20.1875C85.0371 20.0156 85.0729 19.901 85.1445 19.8438C85.2305 19.7865 85.3236 19.7507 85.4238 19.7363C85.5384 19.7077 85.6458 19.679 85.7461 19.6504C85.8464 19.6217 85.918 19.5645 85.9609 19.4785C85.9896 19.3926 86.0397 19.235 86.1113 19.0059C86.1973 18.7767 86.2832 18.5404 86.3691 18.2969C86.4551 18.0391 86.5339 17.8027 86.6055 17.5879C86.6914 17.3587 86.7487 17.2012 86.7773 17.1152C86.8776 16.8717 86.985 16.6283 87.0996 16.3848C87.2285 16.127 87.3717 15.8978 87.5293 15.6973C87.7012 15.4967 87.8945 15.332 88.1094 15.2031C88.3385 15.0742 88.6035 15.0098 88.9043 15.0098C89.0762 15.0098 89.2839 15.0885 89.5273 15.2461C89.7852 15.4036 90.0286 15.597 90.2578 15.8262C90.487 16.041 90.6803 16.2702 90.8379 16.5137C90.9954 16.7572 91.0742 16.9648 91.0742 17.1367C91.0742 17.3516 91.0241 17.5521 90.9238 17.7383C90.8236 17.9102 90.6947 18.0749 90.5371 18.2324C90.3939 18.3757 90.2363 18.5117 90.0645 18.6406C89.8926 18.7695 89.735 18.8913 89.5918 19.0059C89.5775 19.0059 89.5488 19.0202 89.5059 19.0488C89.4629 19.0775 89.4271 19.099 89.3984 19.1133C89.3841 19.1276 89.3483 19.1634 89.291 19.2207C89.248 19.2637 89.1979 19.3138 89.1406 19.3711C89.0833 19.4284 89.026 19.4857 88.9688 19.543C88.9258 19.6003 88.8971 19.6361 88.8828 19.6504C88.8398 19.6934 88.7539 19.765 88.625 19.8652C88.5104 19.9512 88.3815 20.0514 88.2383 20.166C88.0951 20.2663 87.959 20.3665 87.8301 20.4668C87.7155 20.5527 87.6367 20.61 87.5938 20.6387L87.5078 20.8105C87.4792 20.8678 87.4505 20.9967 87.4219 21.1973C87.4076 21.3835 87.3861 21.5983 87.3574 21.8418C87.3288 22.0853 87.3001 22.3359 87.2715 22.5938C87.2572 22.8372 87.25 23.0378 87.25 23.1953C87.25 23.2096 87.2572 23.224 87.2715 23.2383C87.3001 23.2669 87.3216 23.2812 87.3359 23.2812C87.4505 23.2812 87.5579 23.2311 87.6582 23.1309C87.7585 23.0306 87.8659 22.959 87.9805 22.916L91.418 19.7363L92.2988 18.3828C92.3704 18.2826 92.5065 18.1751 92.707 18.0605C92.9219 17.9316 93.1367 17.8672 93.3516 17.8672C93.5664 17.8529 93.7526 17.9173 93.9102 18.0605C94.082 18.2038 94.168 18.4831 94.168 18.8984ZM89.4414 17.2227C89.513 17.1654 89.5417 17.0794 89.5273 16.9648C89.513 16.8503 89.4701 16.75 89.3984 16.6641C89.3411 16.5781 89.2624 16.528 89.1621 16.5137C89.0618 16.485 88.9688 16.5352 88.8828 16.6641C88.8398 16.7214 88.7611 16.8359 88.6465 17.0078C88.5462 17.1797 88.4388 17.3587 88.3242 17.5449C88.224 17.7168 88.138 17.8672 88.0664 17.9961C87.9948 18.125 87.9805 18.1751 88.0234 18.1465L89.4414 17.2227ZM103.75 21.6699C103.75 20.5671 103.764 19.4714 103.793 18.3828C103.836 17.2943 103.857 16.1914 103.857 15.0742C103.857 14.4297 103.822 13.7852 103.75 13.1406C103.693 12.4961 103.664 11.8516 103.664 11.207C103.664 11.0065 103.721 10.8346 103.836 10.6914C103.965 10.5482 104.13 10.4766 104.33 10.4766C104.674 10.4766 104.932 10.5482 105.104 10.6914C105.275 10.8346 105.397 11.0137 105.469 11.2285C105.54 11.4434 105.576 11.6868 105.576 11.959C105.576 12.2311 105.576 12.4961 105.576 12.7539C105.576 12.8112 105.576 12.9544 105.576 13.1836C105.59 13.4128 105.605 13.6634 105.619 13.9355C105.633 14.1934 105.641 14.4368 105.641 14.666C105.655 14.8952 105.662 15.0384 105.662 15.0957V15.8047C105.662 16.7357 105.648 17.6595 105.619 18.5762C105.59 19.4928 105.576 20.4238 105.576 21.3691V22.2715C105.576 22.3431 105.583 22.4434 105.598 22.5723C105.626 22.6868 105.648 22.7441 105.662 22.7441H105.834L110.926 20.7246C111.04 20.6243 111.141 20.5742 111.227 20.5742C111.312 20.5599 111.413 20.5527 111.527 20.5527C111.599 20.5527 111.692 20.5599 111.807 20.5742C111.921 20.5742 112.029 20.5957 112.129 20.6387C112.243 20.6673 112.337 20.7174 112.408 20.7891C112.494 20.8464 112.537 20.9395 112.537 21.0684C112.537 21.3978 112.358 21.6842 112 21.9277C111.542 22.1712 111.069 22.4004 110.582 22.6152C110.095 22.8158 109.601 22.9805 109.1 23.1094L108.992 23.1953C108.305 23.3815 107.66 23.6536 107.059 24.0117C106.471 24.3698 105.855 24.6992 105.211 25H105.018C104.631 25 104.344 24.8711 104.158 24.6133C103.972 24.3555 103.85 24.0547 103.793 23.7109C103.736 23.3529 103.714 22.9876 103.729 22.6152C103.743 22.2285 103.75 21.9134 103.75 21.6699ZM122.141 18.8984C122.112 19.1562 122.076 19.3568 122.033 19.5C122.005 19.6432 121.947 19.7721 121.861 19.8867C121.775 20.0013 121.654 20.123 121.496 20.252C121.339 20.3665 121.124 20.5384 120.852 20.7676C120.579 20.9824 120.243 21.2689 119.842 21.627C119.441 21.985 118.954 22.4505 118.381 23.0234C118.152 23.2383 117.915 23.4603 117.672 23.6895C117.428 23.9186 117.171 24.1263 116.898 24.3125C116.641 24.4844 116.368 24.6276 116.082 24.7422C115.796 24.8568 115.495 24.9141 115.18 24.9141C114.564 24.9141 114.113 24.7064 113.826 24.291C113.54 23.8757 113.396 23.3958 113.396 22.8516C113.396 22.4935 113.404 22.1927 113.418 21.9492C113.447 21.7057 113.504 21.3906 113.59 21.0039C113.432 20.8607 113.296 20.7389 113.182 20.6387C113.067 20.5241 113.01 20.3737 113.01 20.1875C113.01 20.0156 113.046 19.901 113.117 19.8438C113.203 19.7865 113.296 19.7507 113.396 19.7363C113.511 19.7077 113.618 19.679 113.719 19.6504C113.819 19.6217 113.891 19.5645 113.934 19.4785C113.962 19.3926 114.012 19.235 114.084 19.0059C114.17 18.7767 114.256 18.5404 114.342 18.2969C114.428 18.0391 114.507 17.8027 114.578 17.5879C114.664 17.3587 114.721 17.2012 114.75 17.1152C114.85 16.8717 114.958 16.6283 115.072 16.3848C115.201 16.127 115.344 15.8978 115.502 15.6973C115.674 15.4967 115.867 15.332 116.082 15.2031C116.311 15.0742 116.576 15.0098 116.877 15.0098C117.049 15.0098 117.257 15.0885 117.5 15.2461C117.758 15.4036 118.001 15.597 118.23 15.8262C118.46 16.041 118.653 16.2702 118.811 16.5137C118.968 16.7572 119.047 16.9648 119.047 17.1367C119.047 17.3516 118.997 17.5521 118.896 17.7383C118.796 17.9102 118.667 18.0749 118.51 18.2324C118.367 18.3757 118.209 18.5117 118.037 18.6406C117.865 18.7695 117.708 18.8913 117.564 19.0059C117.55 19.0059 117.521 19.0202 117.479 19.0488C117.436 19.0775 117.4 19.099 117.371 19.1133C117.357 19.1276 117.321 19.1634 117.264 19.2207C117.221 19.2637 117.171 19.3138 117.113 19.3711C117.056 19.4284 116.999 19.4857 116.941 19.543C116.898 19.6003 116.87 19.6361 116.855 19.6504C116.812 19.6934 116.727 19.765 116.598 19.8652C116.483 19.9512 116.354 20.0514 116.211 20.166C116.068 20.2663 115.932 20.3665 115.803 20.4668C115.688 20.5527 115.609 20.61 115.566 20.6387L115.48 20.8105C115.452 20.8678 115.423 20.9967 115.395 21.1973C115.38 21.3835 115.359 21.5983 115.33 21.8418C115.301 22.0853 115.273 22.3359 115.244 22.5938C115.23 22.8372 115.223 23.0378 115.223 23.1953C115.223 23.2096 115.23 23.224 115.244 23.2383C115.273 23.2669 115.294 23.2812 115.309 23.2812C115.423 23.2812 115.531 23.2311 115.631 23.1309C115.731 23.0306 115.839 22.959 115.953 22.916L119.391 19.7363L120.271 18.3828C120.343 18.2826 120.479 18.1751 120.68 18.0605C120.895 17.9316 121.109 17.8672 121.324 17.8672C121.539 17.8529 121.725 17.9173 121.883 18.0605C122.055 18.2038 122.141 18.4831 122.141 18.8984ZM117.414 17.2227C117.486 17.1654 117.514 17.0794 117.5 16.9648C117.486 16.8503 117.443 16.75 117.371 16.6641C117.314 16.5781 117.235 16.528 117.135 16.5137C117.035 16.485 116.941 16.5352 116.855 16.6641C116.812 16.7214 116.734 16.8359 116.619 17.0078C116.519 17.1797 116.411 17.3587 116.297 17.5449C116.197 17.7168 116.111 17.8672 116.039 17.9961C115.967 18.125 115.953 18.1751 115.996 18.1465L117.414 17.2227ZM127.727 19.0059C127.598 19.235 127.447 19.5143 127.275 19.8438C127.118 20.1589 126.946 20.5026 126.76 20.875C126.574 21.2331 126.366 21.5983 126.137 21.9707C125.922 22.3288 125.693 22.6582 125.449 22.959C125.22 23.2598 124.977 23.5176 124.719 23.7324C124.461 23.9329 124.196 24.0547 123.924 24.0977C123.809 24.0977 123.68 24.0905 123.537 24.0762C123.394 24.0475 123.251 24.0117 123.107 23.9688C122.964 23.9115 122.842 23.8398 122.742 23.7539C122.656 23.6536 122.613 23.5247 122.613 23.3672C122.628 21.9062 122.735 20.5814 122.936 19.3926C123.136 18.1895 123.451 17.1367 123.881 16.2344C124.311 15.3177 124.862 14.5586 125.535 13.957C126.208 13.3555 127.025 12.9258 127.984 12.668C128.013 12.668 128.063 12.668 128.135 12.668C128.221 12.6536 128.278 12.6465 128.307 12.6465C128.736 12.6322 129.044 12.8327 129.23 13.248C129.431 13.6491 129.574 14.2936 129.66 15.1816C129.76 16.0553 129.825 17.1868 129.854 18.5762C129.896 19.9512 129.975 21.6055 130.09 23.5391C130.133 23.6966 130.154 23.8327 130.154 23.9473C130.169 24.0618 130.176 24.1979 130.176 24.3555C130.176 24.5703 130.111 24.735 129.982 24.8496C129.854 24.9499 129.689 25 129.488 25C129.073 25 128.779 24.8854 128.607 24.6562C128.436 24.4271 128.321 24.1191 128.264 23.7324C128.264 23.7181 128.249 23.6035 128.221 23.3887C128.206 23.1738 128.178 22.9303 128.135 22.6582C128.106 22.3717 128.077 22.0853 128.049 21.7988C128.02 21.5124 127.999 21.276 127.984 21.0898V21.0039C127.956 20.8607 127.934 20.6816 127.92 20.4668C127.92 20.252 127.906 20.0443 127.877 19.8438C127.848 19.6003 127.827 19.3568 127.812 19.1133L127.727 19.0059ZM127.254 14.752C126.867 15.0384 126.488 15.4251 126.115 15.9121C125.743 16.3991 125.478 16.8717 125.32 17.3301C125.249 17.5449 125.17 17.8385 125.084 18.2109C124.998 18.5833 124.919 18.9557 124.848 19.3281C124.79 19.6862 124.74 20.0228 124.697 20.3379C124.654 20.6387 124.633 20.832 124.633 20.918C124.647 20.918 124.661 20.9036 124.676 20.875C124.704 20.8464 124.726 20.8249 124.74 20.8105C125.628 19.9512 126.251 19.0273 126.609 18.0391C126.982 17.0365 127.197 15.9408 127.254 14.752ZM132.26 24.0762C132.231 23.5605 132.181 22.873 132.109 22.0137C132.052 21.14 131.98 20.2376 131.895 19.3066C131.823 18.3757 131.744 17.4948 131.658 16.6641C131.572 15.8333 131.501 15.1888 131.443 14.7305C131.443 14.5443 131.529 14.4225 131.701 14.3652C131.873 14.3079 132.038 14.2793 132.195 14.2793C132.396 14.2793 132.604 14.3366 132.818 14.4512C133.048 14.5658 133.191 14.7233 133.248 14.9238C133.248 14.9811 133.255 15.0885 133.27 15.2461C133.284 15.3893 133.291 15.5397 133.291 15.6973C133.305 15.8548 133.32 16.0124 133.334 16.1699C133.348 16.3132 133.355 16.4134 133.355 16.4707C133.355 16.5566 133.355 16.6211 133.355 16.6641C133.355 16.707 133.355 16.75 133.355 16.793C133.355 16.8216 133.363 16.8574 133.377 16.9004C133.391 16.9434 133.413 17.015 133.441 17.1152C133.47 17.0866 133.499 17.0508 133.527 17.0078C133.57 16.9648 133.599 16.9362 133.613 16.9219C133.842 16.5924 134.064 16.306 134.279 16.0625C134.494 15.8047 134.716 15.5684 134.945 15.3535C135.174 15.1243 135.425 14.888 135.697 14.6445C135.984 14.3867 136.313 14.0931 136.686 13.7637C136.771 13.6921 136.836 13.6419 136.879 13.6133C136.922 13.5703 136.958 13.5417 136.986 13.5273C137.029 13.4987 137.072 13.4844 137.115 13.4844C137.158 13.4701 137.215 13.4629 137.287 13.4629C137.531 13.4629 137.774 13.5488 138.018 13.7207C138.275 13.8783 138.404 14.1003 138.404 14.3867C138.404 14.487 138.368 14.5944 138.297 14.709C138.225 14.8092 138.139 14.9095 138.039 15.0098C137.939 15.0957 137.831 15.1745 137.717 15.2461C137.617 15.3177 137.523 15.3678 137.438 15.3965C137.065 15.7259 136.671 16.1055 136.256 16.5352C135.84 16.9505 135.454 17.4017 135.096 17.8887C134.738 18.3757 134.444 18.8841 134.215 19.4141C133.986 19.944 133.871 20.474 133.871 21.0039C133.871 21.4909 133.907 21.9707 133.979 22.4434C134.05 22.916 134.086 23.3958 134.086 23.8828V24.6348C133.971 24.7493 133.871 24.8424 133.785 24.9141C133.699 24.9857 133.577 25.0215 133.42 25.0215C133.176 25.0215 132.94 24.9212 132.711 24.7207C132.482 24.5059 132.331 24.291 132.26 24.0762ZM145.086 24.2695C144.885 23.9831 144.714 23.5892 144.57 23.0879C144.441 22.5723 144.312 22.0352 144.184 21.4766C144.069 20.9036 143.962 20.3522 143.861 19.8223C143.761 19.278 143.654 18.8483 143.539 18.5332C143.439 18.2038 143.324 18.0176 143.195 17.9746C143.066 17.9316 142.916 18.125 142.744 18.5547L140.875 24.3125C140.803 24.513 140.717 24.6562 140.617 24.7422C140.517 24.8138 140.352 24.8496 140.123 24.8496C140.008 24.8496 139.887 24.8353 139.758 24.8066C139.629 24.7637 139.507 24.7064 139.393 24.6348C139.278 24.5632 139.178 24.4772 139.092 24.377C139.02 24.2767 138.977 24.1621 138.963 24.0332C139.006 23.8613 139.042 23.5462 139.07 23.0879C139.113 22.6296 139.142 22.0996 139.156 21.498C139.171 20.8965 139.178 20.2663 139.178 19.6074C139.192 18.9342 139.192 18.3112 139.178 17.7383C139.178 17.151 139.171 16.6497 139.156 16.2344C139.142 15.8047 139.128 15.5254 139.113 15.3965C139.113 15.2533 139.113 15.11 139.113 14.9668C139.128 14.8092 139.149 14.666 139.178 14.5371C139.221 14.4082 139.285 14.3079 139.371 14.2363C139.471 14.1504 139.622 14.1074 139.822 14.1074C140.094 14.1074 140.345 14.222 140.574 14.4512C140.818 14.6803 140.939 14.9238 140.939 15.1816C140.939 15.554 140.918 15.9264 140.875 16.2988C140.846 16.6569 140.832 17.0221 140.832 17.3945C140.832 17.6237 140.832 17.8171 140.832 17.9746C140.832 18.1322 140.861 18.3255 140.918 18.5547C140.961 18.4401 141.033 18.2396 141.133 17.9531C141.233 17.6667 141.34 17.3659 141.455 17.0508C141.584 16.7357 141.699 16.4421 141.799 16.1699C141.899 15.8835 141.971 15.6829 142.014 15.5684C142.114 15.2819 142.264 15.0098 142.465 14.752C142.665 14.4798 142.93 14.3294 143.26 14.3008C143.475 14.2865 143.668 14.3438 143.84 14.4727C144.026 14.6016 144.184 14.7734 144.312 14.9883C144.441 15.1888 144.549 15.4036 144.635 15.6328C144.721 15.8477 144.785 16.0339 144.828 16.1914L145.988 21.541L146.891 23.9902C146.905 24.0046 146.912 24.0475 146.912 24.1191C146.912 24.1764 146.912 24.2194 146.912 24.248C146.912 24.4199 146.869 24.5918 146.783 24.7637C146.712 24.9212 146.576 25 146.375 25C146.132 25 145.881 24.9355 145.623 24.8066C145.365 24.6634 145.186 24.4844 145.086 24.2695ZM148.867 24.1836C148.724 22.7513 148.602 21.5267 148.502 20.5098C148.402 19.4928 148.316 18.6406 148.244 17.9531C148.173 17.2656 148.108 16.7214 148.051 16.3203C148.008 15.9049 147.972 15.597 147.943 15.3965C147.915 15.1816 147.893 15.0384 147.879 14.9668C147.865 14.8952 147.857 14.8522 147.857 14.8379V14.752C147.857 14.5944 147.922 14.4655 148.051 14.3652C148.194 14.2507 148.337 14.1934 148.48 14.1934C148.695 14.1934 148.924 14.2292 149.168 14.3008C149.426 14.3724 149.598 14.5228 149.684 14.752C149.812 15.4538 149.898 16.1628 149.941 16.8789C149.999 17.5951 150.042 18.3112 150.07 19.0273C150.113 19.7292 150.163 20.4382 150.221 21.1543C150.292 21.8704 150.414 22.5794 150.586 23.2812C150.586 23.3099 150.593 23.3672 150.607 23.4531C150.636 23.5391 150.658 23.6322 150.672 23.7324C150.701 23.8327 150.722 23.9258 150.736 24.0117C150.751 24.0977 150.758 24.1549 150.758 24.1836V24.2266C150.758 24.2409 150.765 24.2552 150.779 24.2695C150.779 24.4414 150.701 24.6133 150.543 24.7852C150.385 24.957 150.221 25.0286 150.049 25C150.006 24.9857 149.898 24.9642 149.727 24.9355C149.569 24.8926 149.462 24.8568 149.404 24.8281C149.361 24.8138 149.304 24.7852 149.232 24.7422C149.161 24.6849 149.089 24.6276 149.018 24.5703C148.96 24.513 148.91 24.4486 148.867 24.377C148.824 24.3053 148.824 24.2409 148.867 24.1836ZM147.664 8.52148C147.664 8.42122 147.743 8.33529 147.9 8.26367C148.072 8.17773 148.201 8.13477 148.287 8.13477C148.502 8.13477 148.738 8.19922 148.996 8.32812C149.268 8.44271 149.404 8.62174 149.404 8.86523C149.404 9.10872 149.368 9.27344 149.297 9.35938C149.24 9.44531 149.089 9.48828 148.846 9.48828C148.588 9.48828 148.323 9.40234 148.051 9.23047C147.793 9.05859 147.664 8.82227 147.664 8.52148ZM157.697 24.2695C157.497 23.9831 157.325 23.5892 157.182 23.0879C157.053 22.5723 156.924 22.0352 156.795 21.4766C156.68 20.9036 156.573 20.3522 156.473 19.8223C156.372 19.278 156.265 18.8483 156.15 18.5332C156.05 18.2038 155.936 18.0176 155.807 17.9746C155.678 17.9316 155.527 18.125 155.355 18.5547L153.486 24.3125C153.415 24.513 153.329 24.6562 153.229 24.7422C153.128 24.8138 152.964 24.8496 152.734 24.8496C152.62 24.8496 152.498 24.8353 152.369 24.8066C152.24 24.7637 152.118 24.7064 152.004 24.6348C151.889 24.5632 151.789 24.4772 151.703 24.377C151.632 24.2767 151.589 24.1621 151.574 24.0332C151.617 23.8613 151.653 23.5462 151.682 23.0879C151.725 22.6296 151.753 22.0996 151.768 21.498C151.782 20.8965 151.789 20.2663 151.789 19.6074C151.803 18.9342 151.803 18.3112 151.789 17.7383C151.789 17.151 151.782 16.6497 151.768 16.2344C151.753 15.8047 151.739 15.5254 151.725 15.3965C151.725 15.2533 151.725 15.11 151.725 14.9668C151.739 14.8092 151.76 14.666 151.789 14.5371C151.832 14.4082 151.896 14.3079 151.982 14.2363C152.083 14.1504 152.233 14.1074 152.434 14.1074C152.706 14.1074 152.956 14.222 153.186 14.4512C153.429 14.6803 153.551 14.9238 153.551 15.1816C153.551 15.554 153.529 15.9264 153.486 16.2988C153.458 16.6569 153.443 17.0221 153.443 17.3945C153.443 17.6237 153.443 17.8171 153.443 17.9746C153.443 18.1322 153.472 18.3255 153.529 18.5547C153.572 18.4401 153.644 18.2396 153.744 17.9531C153.844 17.6667 153.952 17.3659 154.066 17.0508C154.195 16.7357 154.31 16.4421 154.41 16.1699C154.51 15.8835 154.582 15.6829 154.625 15.5684C154.725 15.2819 154.876 15.0098 155.076 14.752C155.277 14.4798 155.542 14.3294 155.871 14.3008C156.086 14.2865 156.279 14.3438 156.451 14.4727C156.637 14.6016 156.795 14.7734 156.924 14.9883C157.053 15.1888 157.16 15.4036 157.246 15.6328C157.332 15.8477 157.396 16.0339 157.439 16.1914L158.6 21.541L159.502 23.9902C159.516 24.0046 159.523 24.0475 159.523 24.1191C159.523 24.1764 159.523 24.2194 159.523 24.248C159.523 24.4199 159.48 24.5918 159.395 24.7637C159.323 24.9212 159.187 25 158.986 25C158.743 25 158.492 24.9355 158.234 24.8066C157.977 24.6634 157.798 24.4844 157.697 24.2695ZM161.521 32.498C161.464 32.3405 161.464 32.1615 161.521 31.9609C161.593 31.7604 161.729 31.6315 161.93 31.5742C162.259 31.7174 162.603 31.8105 162.961 31.8535C163.319 31.8965 163.677 31.9036 164.035 31.875C164.408 31.8464 164.773 31.7891 165.131 31.7031C165.489 31.6172 165.833 31.5169 166.162 31.4023C166.492 31.1302 166.721 30.7721 166.85 30.3281C166.979 29.8984 167.029 29.304 167 28.5449C166.971 27.8001 166.871 26.862 166.699 25.7305C166.542 24.6133 166.334 23.2383 166.076 21.6055C166.076 21.5625 166.076 21.498 166.076 21.4121C166.09 21.3262 166.09 21.2474 166.076 21.1758C166.062 21.0898 166.033 21.0254 165.99 20.9824C165.962 20.9395 165.919 20.9395 165.861 20.9824C165.675 21.3405 165.453 21.7344 165.195 22.1641C164.952 22.5794 164.665 22.9733 164.336 23.3457C164.021 23.7038 163.663 24.0046 163.262 24.248C162.875 24.4915 162.438 24.6133 161.951 24.6133C161.521 24.6133 161.142 24.4915 160.812 24.248C160.497 23.9902 160.34 23.625 160.34 23.1523C160.34 22.7943 160.411 22.3431 160.555 21.7988C160.712 21.2546 160.92 20.6816 161.178 20.0801C161.436 19.4642 161.736 18.8555 162.08 18.2539C162.424 17.6523 162.782 17.1081 163.154 16.6211C163.527 16.1341 163.906 15.7402 164.293 15.4395C164.68 15.1243 165.052 14.9668 165.41 14.9668C165.553 14.9668 165.74 14.9954 165.969 15.0527C166.212 15.0957 166.441 15.1673 166.656 15.2676C166.885 15.3678 167.079 15.4824 167.236 15.6113C167.408 15.7402 167.494 15.8906 167.494 16.0625V17.8027L168.891 27.9434C168.891 28.5163 168.876 29.0605 168.848 29.5762C168.833 30.1061 168.74 30.5931 168.568 31.0371C168.411 31.4811 168.153 31.875 167.795 32.2188C167.437 32.5625 166.921 32.8418 166.248 33.0566C166.162 33.0996 165.983 33.1354 165.711 33.1641C165.439 33.1927 165.124 33.2142 164.766 33.2285C164.422 33.2428 164.049 33.2428 163.648 33.2285C163.262 33.2142 162.904 33.1784 162.574 33.1211C162.259 33.0781 162.001 33.0065 161.801 32.9062C161.6 32.806 161.507 32.6699 161.521 32.498ZM164.873 16.8789C164.73 17.0365 164.536 17.2871 164.293 17.6309C164.064 17.9746 163.827 18.3542 163.584 18.7695C163.34 19.1849 163.097 19.6217 162.854 20.0801C162.624 20.5241 162.438 20.9395 162.295 21.3262C162.152 21.7129 162.059 22.0423 162.016 22.3145C161.987 22.5866 162.051 22.7513 162.209 22.8086C162.51 22.651 162.832 22.3932 163.176 22.0352C163.52 21.6628 163.842 21.2546 164.143 20.8105C164.458 20.3522 164.73 19.8867 164.959 19.4141C165.202 18.9271 165.367 18.4902 165.453 18.1035C165.553 17.7168 165.561 17.4089 165.475 17.1797C165.403 16.9362 165.202 16.8359 164.873 16.8789Z" fill="black"/>
<defs>
<filter id="filter0_i_4581_2382" x="1.95215" y="1.96155" width="199.593" height="33.5385" filterUnits="userSpaceOnUse" color-interpolation-filters="sRGB">
<feFlood flood-opacity="0" result="BackgroundImageFix"/>
<feBlend mode="normal" in="SourceGraphic" in2="BackgroundImageFix" result="shape"/>
<feColorMatrix in="SourceAlpha" type="matrix" values="0 0 0 0 0 0 0 0 0 0 0 0 0 0 0 0 0 0 127 0" result="hardAlpha"/>
<feOffset dx="4" dy="4"/>
<feComposite in2="hardAlpha" operator="arithmetic" k2="-1" k3="1"/>
<feColorMatrix type="matrix" values="0 0 0 0 0.694118 0 0 0 0 0.721569 0 0 0 0 0.741176 0 0 0 1 0"/>
<feBlend mode="multiply" in2="shape" result="effect1_innerShadow_4581_2382"/>
</filter>
</defs>
</svg>
