<svg width="262" height="37" viewBox="0 0 262 37" fill="none" xmlns="http://www.w3.org/2000/svg">
<g filter="url(#filter0_i_4585_2724)">
<path d="M256.022 7.61228C259.541 11.6933 259.541 20.3656 259.541 20.3656C259.731 28.2124 253.276 34.5 245.02 34.5C245.02 31.5523 245.02 2.00081 245.02 2.00081C248.163 1.66061 252.502 3.53121 256.022 7.61228Z" fill="white"/>
<path d="M18.7676 2H245.02V34.5C245.02 34.5 211.459 34.2049 174.376 34.5C153.685 34.6647 110.242 35.5 94.7015 35.5C51.3107 35.5 18.7676 34.5 18.7676 34.5V2Z" fill="white"/>
<path d="M5.14517 27.9432C0.335274 22.3612 1.47845 11.5 5.14549 8C8.81252 4.5 8.60485 4.5 11.9565 3.5C15.3082 2.5 18.7674 2 18.7674 2V34.5C13.1929 34.5 9.95507 33.5252 5.14517 27.9432Z" fill="white"/>
</g>
<path d="M18.7676 34.5C57.2837 34.5 55.9693 35 94.4651 35C132.981 35 137.623 34.4063 176.139 34.4063C214.655 34.4063 203.36 34 241.876 34" stroke="black" stroke-width="3" stroke-miterlimit="10" stroke-linecap="round" stroke-linejoin="round"/>
<path d="M2.00244 17.5C2.00244 7 9.6485 2 18.555 2C11.2202 2 2.52635 8 2.52635 17.5C2.52635 31.5 14.5763 34.5 18.2437 34.5C10.385 34.5 2.00244 28 2.00244 17.5Z" stroke="black" stroke-width="3" stroke-linecap="round" stroke-linejoin="round"/>
<path d="M260 19C260 29.5 250.782 34 241.876 34C249.211 34 258.33 30.5 259.165 20.5C260.33 6.54422 249.735 2 243.759 1.99999C251.617 2 260 8.49998 260 19Z" stroke="black" stroke-width="3" stroke-linecap="round" stroke-linejoin="round"/>
<path d="M18.7676 2C56.6313 2 52.7147 2 90.5584 2C128.422 2 128.538 1.5 166.401 1.5C204.265 1.5 206.108 2.00001 243.972 2.00001" stroke="black" stroke-width="3" stroke-miterlimit="10" stroke-linecap="round" stroke-linejoin="round"/>
<path d="M18.4941 22.3145C18.4941 21.4408 18.5085 20.5671 18.5371 19.6934C18.5801 18.8053 18.623 17.9245 18.666 17.0508C18.709 16.1628 18.7376 15.2819 18.752 14.4082C18.7806 13.5202 18.7806 12.6393 18.752 11.7656C18.7949 11.6081 18.8737 11.4935 18.9883 11.4219C19.1029 11.3359 19.2389 11.293 19.3965 11.293C19.6973 11.293 19.9264 11.3503 20.084 11.4648C20.2415 11.5651 20.3561 11.7083 20.4277 11.8945C20.4993 12.0807 20.5423 12.2884 20.5566 12.5176C20.571 12.7467 20.5853 12.9759 20.5996 13.2051C20.7715 13.5202 20.972 13.8281 21.2012 14.1289C21.4447 14.4154 21.6595 14.709 21.8457 15.0098C21.8457 15.0241 21.8529 15.0599 21.8672 15.1172C21.8958 15.1602 21.9173 15.1816 21.9316 15.1816C22.0176 15.3105 22.125 15.4824 22.2539 15.6973C22.3971 15.8978 22.5332 16.0983 22.6621 16.2988C22.791 16.485 22.8984 16.6497 22.9844 16.793C23.0846 16.9362 23.1348 17.0078 23.1348 17.0078L23.2207 17.1152L24.4668 18.9199C24.5241 18.9772 24.5742 19.0059 24.6172 19.0059H24.6602C24.474 17.4876 24.3236 15.9408 24.209 14.3652C24.0944 12.7754 24.0371 11.207 24.0371 9.66016V8.58594C24.1517 8.39974 24.3451 8.30664 24.6172 8.30664C24.8893 8.30664 25.0898 8.37109 25.2188 8.5C25.3477 8.62891 25.4336 8.79362 25.4766 8.99414C25.5195 9.18034 25.541 9.38802 25.541 9.61719C25.541 9.83203 25.5482 10.0326 25.5625 10.2188C25.5625 10.2331 25.5697 10.2617 25.584 10.3047C25.5983 10.3333 25.6126 10.4121 25.627 10.541C25.6556 10.6556 25.6771 10.8418 25.6914 11.0996C25.7201 11.3431 25.7487 11.6868 25.7773 12.1309C25.8203 12.5749 25.8561 13.1335 25.8848 13.8066C25.9277 14.4798 25.9779 15.3034 26.0352 16.2773V16.6641L26.7656 21.4551C26.7799 21.5697 26.8372 21.7487 26.9375 21.9922C27.0521 22.2214 27.1094 22.4004 27.1094 22.5293C27.1094 22.8301 27.0234 23.0736 26.8516 23.2598C26.6797 23.446 26.4362 23.5391 26.1211 23.5391C26.0781 23.5391 26.0208 23.5247 25.9492 23.4961C25.8776 23.4531 25.806 23.4102 25.7344 23.3672C25.6628 23.3242 25.5911 23.2812 25.5195 23.2383C25.4622 23.181 25.4193 23.138 25.3906 23.1094L21.9316 18.1895C21.9173 18.1895 21.903 18.168 21.8887 18.125C21.8743 18.0677 21.86 18.0247 21.8457 17.9961C21.7598 17.8672 21.6452 17.7096 21.502 17.5234C21.3587 17.3229 21.2227 17.1296 21.0938 16.9434C20.9648 16.7428 20.8503 16.571 20.75 16.4277C20.6497 16.2845 20.5996 16.2057 20.5996 16.1914L20.4922 16.1055C20.4206 17.4661 20.3633 18.8411 20.3203 20.2305C20.2773 21.6055 20.2773 22.9805 20.3203 24.3555C20.2917 24.5273 20.1986 24.6777 20.041 24.8066C19.8978 24.9355 19.7474 25 19.5898 25C19.3034 25 19.0742 24.9284 18.9023 24.7852C18.7448 24.6276 18.6087 24.4271 18.4941 24.1836V22.3145ZM33.0605 19.0059C32.9316 19.235 32.7812 19.5143 32.6094 19.8438C32.4518 20.1589 32.2799 20.5026 32.0938 20.875C31.9076 21.2331 31.6999 21.5983 31.4707 21.9707C31.2559 22.3288 31.0267 22.6582 30.7832 22.959C30.554 23.2598 30.3105 23.5176 30.0527 23.7324C29.7949 23.9329 29.5299 24.0547 29.2578 24.0977C29.1432 24.0977 29.0143 24.0905 28.8711 24.0762C28.7279 24.0475 28.5846 24.0117 28.4414 23.9688C28.2982 23.9115 28.1764 23.8398 28.0762 23.7539C27.9902 23.6536 27.9473 23.5247 27.9473 23.3672C27.9616 21.9062 28.069 20.5814 28.2695 19.3926C28.4701 18.1895 28.7852 17.1367 29.2148 16.2344C29.6445 15.3177 30.196 14.5586 30.8691 13.957C31.5423 13.3555 32.3587 12.9258 33.3184 12.668C33.347 12.668 33.3971 12.668 33.4688 12.668C33.5547 12.6536 33.612 12.6465 33.6406 12.6465C34.0703 12.6322 34.3783 12.8327 34.5645 13.248C34.765 13.6491 34.9082 14.2936 34.9941 15.1816C35.0944 16.0553 35.1589 17.1868 35.1875 18.5762C35.2305 19.9512 35.3092 21.6055 35.4238 23.5391C35.4668 23.6966 35.4883 23.8327 35.4883 23.9473C35.5026 24.0618 35.5098 24.1979 35.5098 24.3555C35.5098 24.5703 35.4453 24.735 35.3164 24.8496C35.1875 24.9499 35.0228 25 34.8223 25C34.4069 25 34.1133 24.8854 33.9414 24.6562C33.7695 24.4271 33.6549 24.1191 33.5977 23.7324C33.5977 23.7181 33.5833 23.6035 33.5547 23.3887C33.5404 23.1738 33.5117 22.9303 33.4688 22.6582C33.4401 22.3717 33.4115 22.0853 33.3828 21.7988C33.3542 21.5124 33.3327 21.276 33.3184 21.0898V21.0039C33.2897 20.8607 33.2682 20.6816 33.2539 20.4668C33.2539 20.252 33.2396 20.0443 33.2109 19.8438C33.1823 19.6003 33.1608 19.3568 33.1465 19.1133L33.0605 19.0059ZM32.5879 14.752C32.2012 15.0384 31.8216 15.4251 31.4492 15.9121C31.0768 16.3991 30.8118 16.8717 30.6543 17.3301C30.5827 17.5449 30.5039 17.8385 30.418 18.2109C30.332 18.5833 30.2533 18.9557 30.1816 19.3281C30.1243 19.6862 30.0742 20.0228 30.0312 20.3379C29.9883 20.6387 29.9668 20.832 29.9668 20.918C29.9811 20.918 29.9954 20.9036 30.0098 20.875C30.0384 20.8464 30.0599 20.8249 30.0742 20.8105C30.9622 19.9512 31.5853 19.0273 31.9434 18.0391C32.3158 17.0365 32.5306 15.9408 32.5879 14.752ZM38.6895 18.7266C38.4889 18.7266 38.3099 18.7767 38.1523 18.877C37.9948 18.9772 37.8086 19.0273 37.5938 19.0273C37.5651 19.0273 37.4863 19.0273 37.3574 19.0273C37.2428 19.013 37.1712 19.0059 37.1426 19.0059C37.0853 18.9342 37.0208 18.877 36.9492 18.834C36.8776 18.791 36.806 18.748 36.7344 18.7051C36.6628 18.6478 36.5983 18.5833 36.541 18.5117C36.498 18.4401 36.4766 18.3398 36.4766 18.2109C36.4766 17.9961 36.5625 17.8242 36.7344 17.6953C36.9062 17.5521 37.1068 17.4303 37.3359 17.3301C37.5651 17.2298 37.7943 17.1367 38.0234 17.0508C38.2669 16.9648 38.4603 16.8646 38.6035 16.75V15.8047C38.6035 14.7448 38.5534 13.6849 38.4531 12.625C38.3529 11.5508 38.3027 10.4909 38.3027 9.44531C38.3027 9.15885 38.3743 8.97266 38.5176 8.88672C38.6608 8.80078 38.8542 8.75781 39.0977 8.75781C39.3841 8.75781 39.5918 8.84375 39.7207 9.01562C39.8639 9.17318 39.9642 9.3737 40.0215 9.61719C40.0788 9.84635 40.1074 10.097 40.1074 10.3691C40.1074 10.627 40.1146 10.849 40.1289 11.0352C40.1289 11.2214 40.1432 11.5508 40.1719 12.0234C40.2005 12.4961 40.2292 12.9974 40.2578 13.5273C40.2865 14.0573 40.3151 14.5586 40.3438 15.0312C40.3724 15.5039 40.3939 15.8333 40.4082 16.0195C40.4655 16.0052 40.5729 15.9694 40.7305 15.9121C40.9023 15.8405 41.0814 15.776 41.2676 15.7188C41.4538 15.6471 41.6257 15.5827 41.7832 15.5254C41.9551 15.4681 42.0768 15.4251 42.1484 15.3965C42.5208 15.2389 42.9076 15.0671 43.3086 14.8809C43.7096 14.6803 44.1178 14.5801 44.5332 14.5801C44.8197 14.5801 45.0345 14.6803 45.1777 14.8809C45.3353 15.0671 45.4141 15.2891 45.4141 15.5469C45.4141 15.7331 45.3424 15.8691 45.1992 15.9551C45.056 16.041 44.9056 16.1198 44.748 16.1914L40.8379 17.6523C40.7949 17.681 40.752 17.7096 40.709 17.7383C40.666 17.7526 40.623 17.7812 40.5801 17.8242V18.5117C40.5801 19.013 40.5872 19.5358 40.6016 20.0801C40.6302 20.61 40.6803 21.1257 40.752 21.627C40.8236 22.0566 40.9023 22.4792 40.9883 22.8945C41.0742 23.3099 41.1172 23.7324 41.1172 24.1621C41.1172 24.291 41.0742 24.4629 40.9883 24.6777C40.9023 24.8926 40.7663 25 40.5801 25C40.1934 25 39.8783 24.8854 39.6348 24.6562C39.3913 24.4271 39.2552 24.1191 39.2266 23.7324C39.1549 22.9876 39.0762 22.1712 38.9902 21.2832C38.9186 20.3952 38.847 19.543 38.7754 18.7266H38.6895ZM50.3555 22.959C50.2552 23.1738 50.1549 23.4102 50.0547 23.668C49.9544 23.9115 49.8398 24.1335 49.7109 24.334C49.582 24.5345 49.4245 24.7064 49.2383 24.8496C49.0521 24.9785 48.8158 25.043 48.5293 25.043C48.028 25.043 47.6126 24.9212 47.2832 24.6777C46.9538 24.4199 46.6816 24.1048 46.4668 23.7324C46.2663 23.3457 46.123 22.9303 46.0371 22.4863C45.9512 22.0423 45.9082 21.627 45.9082 21.2402L46.0801 16.041C46.0658 15.9408 46.0872 15.8405 46.1445 15.7402C46.2161 15.6257 46.3021 15.5254 46.4023 15.4395C46.5169 15.3392 46.6387 15.2604 46.7676 15.2031C46.9108 15.1458 47.0397 15.1172 47.1543 15.1172C47.4837 15.1172 47.763 15.2246 47.9922 15.4395C48.2214 15.64 48.3359 15.9049 48.3359 16.2344V16.4492C48.1784 16.707 48.0423 17.0436 47.9277 17.459C47.8132 17.8743 47.7201 18.3255 47.6484 18.8125C47.5911 19.2852 47.5553 19.7721 47.541 20.2734C47.5267 20.7747 47.541 21.2331 47.584 21.6484C47.6413 22.0638 47.7272 22.4219 47.8418 22.7227C47.9564 23.0091 48.1068 23.181 48.293 23.2383C48.3646 23.2383 48.472 23.2025 48.6152 23.1309C48.7728 23.0592 48.9375 22.9232 49.1094 22.7227C49.2812 22.5221 49.4603 22.2428 49.6465 21.8848C49.8327 21.5124 49.9974 21.0254 50.1406 20.4238C50.2839 19.8223 50.3913 19.0918 50.4629 18.2324C50.5345 17.373 50.556 16.3418 50.5273 15.1387C50.5846 14.9811 50.6634 14.8952 50.7637 14.8809C50.8783 14.8665 50.9928 14.8594 51.1074 14.8594C51.2363 14.8594 51.3438 14.8665 51.4297 14.8809C51.5156 14.8809 51.6087 14.931 51.709 15.0312C51.7806 15.1029 51.8594 15.2103 51.9453 15.3535C52.0312 15.4967 52.0742 15.5755 52.0742 15.5898L52.4395 25.1074C52.4395 25.3223 52.3822 25.5013 52.2676 25.6445C52.153 25.7878 51.9883 25.8594 51.7734 25.8594C51.7018 25.8594 51.6159 25.8522 51.5156 25.8379C51.4154 25.8236 51.3151 25.7949 51.2148 25.752C51.1146 25.709 51.0215 25.6517 50.9355 25.5801C50.8639 25.5228 50.821 25.4512 50.8066 25.3652L50.4414 23.2168L50.3555 22.959ZM54.5879 24.0762C54.5592 23.5605 54.5091 22.873 54.4375 22.0137C54.3802 21.14 54.3086 20.2376 54.2227 19.3066C54.151 18.3757 54.0723 17.4948 53.9863 16.6641C53.9004 15.8333 53.8288 15.1888 53.7715 14.7305C53.7715 14.5443 53.8574 14.4225 54.0293 14.3652C54.2012 14.3079 54.3659 14.2793 54.5234 14.2793C54.724 14.2793 54.9316 14.3366 55.1465 14.4512C55.3757 14.5658 55.5189 14.7233 55.5762 14.9238C55.5762 14.9811 55.5833 15.0885 55.5977 15.2461C55.612 15.3893 55.6191 15.5397 55.6191 15.6973C55.6335 15.8548 55.6478 16.0124 55.6621 16.1699C55.6764 16.3132 55.6836 16.4134 55.6836 16.4707C55.6836 16.5566 55.6836 16.6211 55.6836 16.6641C55.6836 16.707 55.6836 16.75 55.6836 16.793C55.6836 16.8216 55.6908 16.8574 55.7051 16.9004C55.7194 16.9434 55.7409 17.015 55.7695 17.1152C55.7982 17.0866 55.8268 17.0508 55.8555 17.0078C55.8984 16.9648 55.9271 16.9362 55.9414 16.9219C56.1706 16.5924 56.3926 16.306 56.6074 16.0625C56.8223 15.8047 57.0443 15.5684 57.2734 15.3535C57.5026 15.1243 57.7533 14.888 58.0254 14.6445C58.3118 14.3867 58.6413 14.0931 59.0137 13.7637C59.0996 13.6921 59.1641 13.6419 59.207 13.6133C59.25 13.5703 59.2858 13.5417 59.3145 13.5273C59.3574 13.4987 59.4004 13.4844 59.4434 13.4844C59.4863 13.4701 59.5436 13.4629 59.6152 13.4629C59.8587 13.4629 60.1022 13.5488 60.3457 13.7207C60.6035 13.8783 60.7324 14.1003 60.7324 14.3867C60.7324 14.487 60.6966 14.5944 60.625 14.709C60.5534 14.8092 60.4674 14.9095 60.3672 15.0098C60.2669 15.0957 60.1595 15.1745 60.0449 15.2461C59.9447 15.3177 59.8516 15.3678 59.7656 15.3965C59.3932 15.7259 58.9993 16.1055 58.584 16.5352C58.1686 16.9505 57.7819 17.4017 57.4238 17.8887C57.0658 18.3757 56.7721 18.8841 56.543 19.4141C56.3138 19.944 56.1992 20.474 56.1992 21.0039C56.1992 21.4909 56.235 21.9707 56.3066 22.4434C56.3783 22.916 56.4141 23.3958 56.4141 23.8828V24.6348C56.2995 24.7493 56.1992 24.8424 56.1133 24.9141C56.0273 24.9857 55.9056 25.0215 55.748 25.0215C55.5046 25.0215 55.2682 24.9212 55.0391 24.7207C54.8099 24.5059 54.6595 24.291 54.5879 24.0762ZM66.2969 19.0059C66.168 19.235 66.0176 19.5143 65.8457 19.8438C65.6882 20.1589 65.5163 20.5026 65.3301 20.875C65.1439 21.2331 64.9362 21.5983 64.707 21.9707C64.4922 22.3288 64.263 22.6582 64.0195 22.959C63.7904 23.2598 63.5469 23.5176 63.2891 23.7324C63.0312 23.9329 62.7663 24.0547 62.4941 24.0977C62.3796 24.0977 62.2507 24.0905 62.1074 24.0762C61.9642 24.0475 61.821 24.0117 61.6777 23.9688C61.5345 23.9115 61.4128 23.8398 61.3125 23.7539C61.2266 23.6536 61.1836 23.5247 61.1836 23.3672C61.1979 21.9062 61.3053 20.5814 61.5059 19.3926C61.7064 18.1895 62.0215 17.1367 62.4512 16.2344C62.8809 15.3177 63.4323 14.5586 64.1055 13.957C64.7786 13.3555 65.5951 12.9258 66.5547 12.668C66.5833 12.668 66.6335 12.668 66.7051 12.668C66.791 12.6536 66.8483 12.6465 66.877 12.6465C67.3066 12.6322 67.6146 12.8327 67.8008 13.248C68.0013 13.6491 68.1445 14.2936 68.2305 15.1816C68.3307 16.0553 68.3952 17.1868 68.4238 18.5762C68.4668 19.9512 68.5456 21.6055 68.6602 23.5391C68.7031 23.6966 68.7246 23.8327 68.7246 23.9473C68.7389 24.0618 68.7461 24.1979 68.7461 24.3555C68.7461 24.5703 68.6816 24.735 68.5527 24.8496C68.4238 24.9499 68.2591 25 68.0586 25C67.6432 25 67.3496 24.8854 67.1777 24.6562C67.0059 24.4271 66.8913 24.1191 66.834 23.7324C66.834 23.7181 66.8197 23.6035 66.791 23.3887C66.7767 23.1738 66.748 22.9303 66.7051 22.6582C66.6764 22.3717 66.6478 22.0853 66.6191 21.7988C66.5905 21.5124 66.569 21.276 66.5547 21.0898V21.0039C66.526 20.8607 66.5046 20.6816 66.4902 20.4668C66.4902 20.252 66.4759 20.0443 66.4473 19.8438C66.4186 19.6003 66.3971 19.3568 66.3828 19.1133L66.2969 19.0059ZM65.8242 14.752C65.4375 15.0384 65.0579 15.4251 64.6855 15.9121C64.3132 16.3991 64.0482 16.8717 63.8906 17.3301C63.819 17.5449 63.7402 17.8385 63.6543 18.2109C63.5684 18.5833 63.4896 18.9557 63.418 19.3281C63.3607 19.6862 63.3105 20.0228 63.2676 20.3379C63.2246 20.6387 63.2031 20.832 63.2031 20.918C63.2174 20.918 63.2318 20.9036 63.2461 20.875C63.2747 20.8464 63.2962 20.8249 63.3105 20.8105C64.1986 19.9512 64.8216 19.0273 65.1797 18.0391C65.5521 17.0365 65.7669 15.9408 65.8242 14.752ZM70.0352 23.4961C70.0352 22.8945 70.0495 22.3073 70.0781 21.7344C70.1068 21.1615 70.1211 20.5742 70.1211 19.9727C70.0781 18.3398 70.0638 16.7428 70.0781 15.1816C70.0924 13.6061 70.0208 11.9948 69.8633 10.3477C69.8633 10.0755 69.9277 9.89648 70.0566 9.81055C70.1855 9.71029 70.3789 9.66016 70.6367 9.66016C70.9661 9.66016 71.2454 9.76042 71.4746 9.96094C71.7181 10.1471 71.847 10.4121 71.8613 10.7559C71.8327 12.7897 71.8542 14.8092 71.9258 16.8145C72.0117 18.8053 72.0547 20.8249 72.0547 22.873V24.5273C71.9688 24.6419 71.847 24.7565 71.6895 24.8711C71.5319 24.9857 71.3743 25.0286 71.2168 25C70.8014 24.9284 70.5007 24.7637 70.3145 24.5059C70.1283 24.2337 70.0352 23.8971 70.0352 23.4961ZM82.1523 21.6699C82.1523 20.5671 82.1667 19.4714 82.1953 18.3828C82.2383 17.2943 82.2598 16.1914 82.2598 15.0742C82.2598 14.4297 82.224 13.7852 82.1523 13.1406C82.0951 12.4961 82.0664 11.8516 82.0664 11.207C82.0664 11.0065 82.1237 10.8346 82.2383 10.6914C82.3672 10.5482 82.5319 10.4766 82.7324 10.4766C83.0762 10.4766 83.334 10.5482 83.5059 10.6914C83.6777 10.8346 83.7995 11.0137 83.8711 11.2285C83.9427 11.4434 83.9785 11.6868 83.9785 11.959C83.9785 12.2311 83.9785 12.4961 83.9785 12.7539C83.9785 12.8112 83.9785 12.9544 83.9785 13.1836C83.9928 13.4128 84.0072 13.6634 84.0215 13.9355C84.0358 14.1934 84.043 14.4368 84.043 14.666C84.0573 14.8952 84.0645 15.0384 84.0645 15.0957V15.8047C84.0645 16.7357 84.0501 17.6595 84.0215 18.5762C83.9928 19.4928 83.9785 20.4238 83.9785 21.3691V22.2715C83.9785 22.3431 83.9857 22.4434 84 22.5723C84.0286 22.6868 84.0501 22.7441 84.0645 22.7441H84.2363L89.3281 20.7246C89.4427 20.6243 89.543 20.5742 89.6289 20.5742C89.7148 20.5599 89.8151 20.5527 89.9297 20.5527C90.0013 20.5527 90.0944 20.5599 90.209 20.5742C90.3236 20.5742 90.431 20.5957 90.5312 20.6387C90.6458 20.6673 90.7389 20.7174 90.8105 20.7891C90.8965 20.8464 90.9395 20.9395 90.9395 21.0684C90.9395 21.3978 90.7604 21.6842 90.4023 21.9277C89.944 22.1712 89.4714 22.4004 88.9844 22.6152C88.4974 22.8158 88.0033 22.9805 87.502 23.1094L87.3945 23.1953C86.707 23.3815 86.0625 23.6536 85.4609 24.0117C84.8737 24.3698 84.2578 24.6992 83.6133 25H83.4199C83.0332 25 82.7467 24.8711 82.5605 24.6133C82.3743 24.3555 82.2526 24.0547 82.1953 23.7109C82.138 23.3529 82.1165 22.9876 82.1309 22.6152C82.1452 22.2285 82.1523 21.9134 82.1523 21.6699ZM96.5684 19.0059C96.4395 19.235 96.2891 19.5143 96.1172 19.8438C95.9596 20.1589 95.7878 20.5026 95.6016 20.875C95.4154 21.2331 95.2077 21.5983 94.9785 21.9707C94.7637 22.3288 94.5345 22.6582 94.291 22.959C94.0618 23.2598 93.8184 23.5176 93.5605 23.7324C93.3027 23.9329 93.0378 24.0547 92.7656 24.0977C92.651 24.0977 92.5221 24.0905 92.3789 24.0762C92.2357 24.0475 92.0924 24.0117 91.9492 23.9688C91.806 23.9115 91.6842 23.8398 91.584 23.7539C91.498 23.6536 91.4551 23.5247 91.4551 23.3672C91.4694 21.9062 91.5768 20.5814 91.7773 19.3926C91.9779 18.1895 92.293 17.1367 92.7227 16.2344C93.1523 15.3177 93.7038 14.5586 94.377 13.957C95.0501 13.3555 95.8665 12.9258 96.8262 12.668C96.8548 12.668 96.9049 12.668 96.9766 12.668C97.0625 12.6536 97.1198 12.6465 97.1484 12.6465C97.5781 12.6322 97.8861 12.8327 98.0723 13.248C98.2728 13.6491 98.416 14.2936 98.502 15.1816C98.6022 16.0553 98.6667 17.1868 98.6953 18.5762C98.7383 19.9512 98.8171 21.6055 98.9316 23.5391C98.9746 23.6966 98.9961 23.8327 98.9961 23.9473C99.0104 24.0618 99.0176 24.1979 99.0176 24.3555C99.0176 24.5703 98.9531 24.735 98.8242 24.8496C98.6953 24.9499 98.5306 25 98.3301 25C97.9147 25 97.6211 24.8854 97.4492 24.6562C97.2773 24.4271 97.1628 24.1191 97.1055 23.7324C97.1055 23.7181 97.0911 23.6035 97.0625 23.3887C97.0482 23.1738 97.0195 22.9303 96.9766 22.6582C96.9479 22.3717 96.9193 22.0853 96.8906 21.7988C96.862 21.5124 96.8405 21.276 96.8262 21.0898V21.0039C96.7975 20.8607 96.776 20.6816 96.7617 20.4668C96.7617 20.252 96.7474 20.0443 96.7188 19.8438C96.6901 19.6003 96.6686 19.3568 96.6543 19.1133L96.5684 19.0059ZM96.0957 14.752C95.709 15.0384 95.3294 15.4251 94.957 15.9121C94.5846 16.3991 94.3197 16.8717 94.1621 17.3301C94.0905 17.5449 94.0117 17.8385 93.9258 18.2109C93.8398 18.5833 93.7611 18.9557 93.6895 19.3281C93.6322 19.6862 93.582 20.0228 93.5391 20.3379C93.4961 20.6387 93.4746 20.832 93.4746 20.918C93.4889 20.918 93.5033 20.9036 93.5176 20.875C93.5462 20.8464 93.5677 20.8249 93.582 20.8105C94.4701 19.9512 95.0931 19.0273 95.4512 18.0391C95.8236 17.0365 96.0384 15.9408 96.0957 14.752ZM106.258 24.2695C106.057 23.9831 105.885 23.5892 105.742 23.0879C105.613 22.5723 105.484 22.0352 105.355 21.4766C105.241 20.9036 105.133 20.3522 105.033 19.8223C104.933 19.278 104.826 18.8483 104.711 18.5332C104.611 18.2038 104.496 18.0176 104.367 17.9746C104.238 17.9316 104.088 18.125 103.916 18.5547L102.047 24.3125C101.975 24.513 101.889 24.6562 101.789 24.7422C101.689 24.8138 101.524 24.8496 101.295 24.8496C101.18 24.8496 101.059 24.8353 100.93 24.8066C100.801 24.7637 100.679 24.7064 100.564 24.6348C100.45 24.5632 100.35 24.4772 100.264 24.377C100.192 24.2767 100.149 24.1621 100.135 24.0332C100.178 23.8613 100.214 23.5462 100.242 23.0879C100.285 22.6296 100.314 22.0996 100.328 21.498C100.342 20.8965 100.35 20.2663 100.35 19.6074C100.364 18.9342 100.364 18.3112 100.35 17.7383C100.35 17.151 100.342 16.6497 100.328 16.2344C100.314 15.8047 100.299 15.5254 100.285 15.3965C100.285 15.2533 100.285 15.11 100.285 14.9668C100.299 14.8092 100.321 14.666 100.35 14.5371C100.393 14.4082 100.457 14.3079 100.543 14.2363C100.643 14.1504 100.794 14.1074 100.994 14.1074C101.266 14.1074 101.517 14.222 101.746 14.4512C101.99 14.6803 102.111 14.9238 102.111 15.1816C102.111 15.554 102.09 15.9264 102.047 16.2988C102.018 16.6569 102.004 17.0221 102.004 17.3945C102.004 17.6237 102.004 17.8171 102.004 17.9746C102.004 18.1322 102.033 18.3255 102.09 18.5547C102.133 18.4401 102.204 18.2396 102.305 17.9531C102.405 17.6667 102.512 17.3659 102.627 17.0508C102.756 16.7357 102.87 16.4421 102.971 16.1699C103.071 15.8835 103.143 15.6829 103.186 15.5684C103.286 15.2819 103.436 15.0098 103.637 14.752C103.837 14.4798 104.102 14.3294 104.432 14.3008C104.646 14.2865 104.84 14.3438 105.012 14.4727C105.198 14.6016 105.355 14.7734 105.484 14.9883C105.613 15.1888 105.721 15.4036 105.807 15.6328C105.893 15.8477 105.957 16.0339 106 16.1914L107.16 21.541L108.062 23.9902C108.077 24.0046 108.084 24.0475 108.084 24.1191C108.084 24.1764 108.084 24.2194 108.084 24.248C108.084 24.4199 108.041 24.5918 107.955 24.7637C107.883 24.9212 107.747 25 107.547 25C107.303 25 107.053 24.9355 106.795 24.8066C106.537 24.6634 106.358 24.4844 106.258 24.2695ZM110.082 32.498C110.025 32.3405 110.025 32.1615 110.082 31.9609C110.154 31.7604 110.29 31.6315 110.49 31.5742C110.82 31.7174 111.163 31.8105 111.521 31.8535C111.88 31.8965 112.238 31.9036 112.596 31.875C112.968 31.8464 113.333 31.7891 113.691 31.7031C114.049 31.6172 114.393 31.5169 114.723 31.4023C115.052 31.1302 115.281 30.7721 115.41 30.3281C115.539 29.8984 115.589 29.304 115.561 28.5449C115.532 27.8001 115.432 26.862 115.26 25.7305C115.102 24.6133 114.895 23.2383 114.637 21.6055C114.637 21.5625 114.637 21.498 114.637 21.4121C114.651 21.3262 114.651 21.2474 114.637 21.1758C114.622 21.0898 114.594 21.0254 114.551 20.9824C114.522 20.9395 114.479 20.9395 114.422 20.9824C114.236 21.3405 114.014 21.7344 113.756 22.1641C113.512 22.5794 113.226 22.9733 112.896 23.3457C112.581 23.7038 112.223 24.0046 111.822 24.248C111.436 24.4915 110.999 24.6133 110.512 24.6133C110.082 24.6133 109.702 24.4915 109.373 24.248C109.058 23.9902 108.9 23.625 108.9 23.1523C108.9 22.7943 108.972 22.3431 109.115 21.7988C109.273 21.2546 109.48 20.6816 109.738 20.0801C109.996 19.4642 110.297 18.8555 110.641 18.2539C110.984 17.6523 111.342 17.1081 111.715 16.6211C112.087 16.1341 112.467 15.7402 112.854 15.4395C113.24 15.1243 113.613 14.9668 113.971 14.9668C114.114 14.9668 114.3 14.9954 114.529 15.0527C114.773 15.0957 115.002 15.1673 115.217 15.2676C115.446 15.3678 115.639 15.4824 115.797 15.6113C115.969 15.7402 116.055 15.8906 116.055 16.0625V17.8027L117.451 27.9434C117.451 28.5163 117.437 29.0605 117.408 29.5762C117.394 30.1061 117.301 30.5931 117.129 31.0371C116.971 31.4811 116.714 31.875 116.355 32.2188C115.997 32.5625 115.482 32.8418 114.809 33.0566C114.723 33.0996 114.544 33.1354 114.271 33.1641C113.999 33.1927 113.684 33.2142 113.326 33.2285C112.982 33.2428 112.61 33.2428 112.209 33.2285C111.822 33.2142 111.464 33.1784 111.135 33.1211C110.82 33.0781 110.562 33.0065 110.361 32.9062C110.161 32.806 110.068 32.6699 110.082 32.498ZM113.434 16.8789C113.29 17.0365 113.097 17.2871 112.854 17.6309C112.624 17.9746 112.388 18.3542 112.145 18.7695C111.901 19.1849 111.658 19.6217 111.414 20.0801C111.185 20.5241 110.999 20.9395 110.855 21.3262C110.712 21.7129 110.619 22.0423 110.576 22.3145C110.548 22.5866 110.612 22.7513 110.77 22.8086C111.07 22.651 111.393 22.3932 111.736 22.0352C112.08 21.6628 112.402 21.2546 112.703 20.8105C113.018 20.3522 113.29 19.8867 113.52 19.4141C113.763 18.9271 113.928 18.4902 114.014 18.1035C114.114 17.7168 114.121 17.4089 114.035 17.1797C113.964 16.9362 113.763 16.8359 113.434 16.8789ZM122.221 22.959C122.12 23.1738 122.02 23.4102 121.92 23.668C121.82 23.9115 121.705 24.1335 121.576 24.334C121.447 24.5345 121.29 24.7064 121.104 24.8496C120.917 24.9785 120.681 25.043 120.395 25.043C119.893 25.043 119.478 24.9212 119.148 24.6777C118.819 24.4199 118.547 24.1048 118.332 23.7324C118.132 23.3457 117.988 22.9303 117.902 22.4863C117.816 22.0423 117.773 21.627 117.773 21.2402L117.945 16.041C117.931 15.9408 117.952 15.8405 118.01 15.7402C118.081 15.6257 118.167 15.5254 118.268 15.4395C118.382 15.3392 118.504 15.2604 118.633 15.2031C118.776 15.1458 118.905 15.1172 119.02 15.1172C119.349 15.1172 119.628 15.2246 119.857 15.4395C120.087 15.64 120.201 15.9049 120.201 16.2344V16.4492C120.044 16.707 119.908 17.0436 119.793 17.459C119.678 17.8743 119.585 18.3255 119.514 18.8125C119.456 19.2852 119.421 19.7721 119.406 20.2734C119.392 20.7747 119.406 21.2331 119.449 21.6484C119.507 22.0638 119.592 22.4219 119.707 22.7227C119.822 23.0091 119.972 23.181 120.158 23.2383C120.23 23.2383 120.337 23.2025 120.48 23.1309C120.638 23.0592 120.803 22.9232 120.975 22.7227C121.146 22.5221 121.326 22.2428 121.512 21.8848C121.698 21.5124 121.863 21.0254 122.006 20.4238C122.149 19.8223 122.257 19.0918 122.328 18.2324C122.4 17.373 122.421 16.3418 122.393 15.1387C122.45 14.9811 122.529 14.8952 122.629 14.8809C122.743 14.8665 122.858 14.8594 122.973 14.8594C123.102 14.8594 123.209 14.8665 123.295 14.8809C123.381 14.8809 123.474 14.931 123.574 15.0312C123.646 15.1029 123.725 15.2103 123.811 15.3535C123.896 15.4967 123.939 15.5755 123.939 15.5898L124.305 25.1074C124.305 25.3223 124.247 25.5013 124.133 25.6445C124.018 25.7878 123.854 25.8594 123.639 25.8594C123.567 25.8594 123.481 25.8522 123.381 25.8379C123.281 25.8236 123.18 25.7949 123.08 25.752C122.98 25.709 122.887 25.6517 122.801 25.5801C122.729 25.5228 122.686 25.4512 122.672 25.3652L122.307 23.2168L122.221 22.959ZM130.492 19.0059C130.363 19.235 130.213 19.5143 130.041 19.8438C129.883 20.1589 129.712 20.5026 129.525 20.875C129.339 21.2331 129.132 21.5983 128.902 21.9707C128.688 22.3288 128.458 22.6582 128.215 22.959C127.986 23.2598 127.742 23.5176 127.484 23.7324C127.227 23.9329 126.962 24.0547 126.689 24.0977C126.575 24.0977 126.446 24.0905 126.303 24.0762C126.16 24.0475 126.016 24.0117 125.873 23.9688C125.73 23.9115 125.608 23.8398 125.508 23.7539C125.422 23.6536 125.379 23.5247 125.379 23.3672C125.393 21.9062 125.501 20.5814 125.701 19.3926C125.902 18.1895 126.217 17.1367 126.646 16.2344C127.076 15.3177 127.628 14.5586 128.301 13.957C128.974 13.3555 129.79 12.9258 130.75 12.668C130.779 12.668 130.829 12.668 130.9 12.668C130.986 12.6536 131.044 12.6465 131.072 12.6465C131.502 12.6322 131.81 12.8327 131.996 13.248C132.197 13.6491 132.34 14.2936 132.426 15.1816C132.526 16.0553 132.59 17.1868 132.619 18.5762C132.662 19.9512 132.741 21.6055 132.855 23.5391C132.898 23.6966 132.92 23.8327 132.92 23.9473C132.934 24.0618 132.941 24.1979 132.941 24.3555C132.941 24.5703 132.877 24.735 132.748 24.8496C132.619 24.9499 132.454 25 132.254 25C131.839 25 131.545 24.8854 131.373 24.6562C131.201 24.4271 131.087 24.1191 131.029 23.7324C131.029 23.7181 131.015 23.6035 130.986 23.3887C130.972 23.1738 130.943 22.9303 130.9 22.6582C130.872 22.3717 130.843 22.0853 130.814 21.7988C130.786 21.5124 130.764 21.276 130.75 21.0898V21.0039C130.721 20.8607 130.7 20.6816 130.686 20.4668C130.686 20.252 130.671 20.0443 130.643 19.8438C130.614 19.6003 130.592 19.3568 130.578 19.1133L130.492 19.0059ZM130.02 14.752C129.633 15.0384 129.253 15.4251 128.881 15.9121C128.508 16.3991 128.243 16.8717 128.086 17.3301C128.014 17.5449 127.936 17.8385 127.85 18.2109C127.764 18.5833 127.685 18.9557 127.613 19.3281C127.556 19.6862 127.506 20.0228 127.463 20.3379C127.42 20.6387 127.398 20.832 127.398 20.918C127.413 20.918 127.427 20.9036 127.441 20.875C127.47 20.8464 127.492 20.8249 127.506 20.8105C128.394 19.9512 129.017 19.0273 129.375 18.0391C129.747 17.0365 129.962 15.9408 130.02 14.752ZM135.111 32.498C135.054 32.3405 135.054 32.1615 135.111 31.9609C135.183 31.7604 135.319 31.6315 135.52 31.5742C135.849 31.7174 136.193 31.8105 136.551 31.8535C136.909 31.8965 137.267 31.9036 137.625 31.875C137.997 31.8464 138.363 31.7891 138.721 31.7031C139.079 31.6172 139.423 31.5169 139.752 31.4023C140.081 31.1302 140.311 30.7721 140.439 30.3281C140.568 29.8984 140.618 29.304 140.59 28.5449C140.561 27.8001 140.461 26.862 140.289 25.7305C140.132 24.6133 139.924 23.2383 139.666 21.6055C139.666 21.5625 139.666 21.498 139.666 21.4121C139.68 21.3262 139.68 21.2474 139.666 21.1758C139.652 21.0898 139.623 21.0254 139.58 20.9824C139.551 20.9395 139.508 20.9395 139.451 20.9824C139.265 21.3405 139.043 21.7344 138.785 22.1641C138.542 22.5794 138.255 22.9733 137.926 23.3457C137.611 23.7038 137.253 24.0046 136.852 24.248C136.465 24.4915 136.028 24.6133 135.541 24.6133C135.111 24.6133 134.732 24.4915 134.402 24.248C134.087 23.9902 133.93 23.625 133.93 23.1523C133.93 22.7943 134.001 22.3431 134.145 21.7988C134.302 21.2546 134.51 20.6816 134.768 20.0801C135.025 19.4642 135.326 18.8555 135.67 18.2539C136.014 17.6523 136.372 17.1081 136.744 16.6211C137.117 16.1341 137.496 15.7402 137.883 15.4395C138.27 15.1243 138.642 14.9668 139 14.9668C139.143 14.9668 139.329 14.9954 139.559 15.0527C139.802 15.0957 140.031 15.1673 140.246 15.2676C140.475 15.3678 140.669 15.4824 140.826 15.6113C140.998 15.7402 141.084 15.8906 141.084 16.0625V17.8027L142.48 27.9434C142.48 28.5163 142.466 29.0605 142.438 29.5762C142.423 30.1061 142.33 30.5931 142.158 31.0371C142.001 31.4811 141.743 31.875 141.385 32.2188C141.027 32.5625 140.511 32.8418 139.838 33.0566C139.752 33.0996 139.573 33.1354 139.301 33.1641C139.029 33.1927 138.714 33.2142 138.355 33.2285C138.012 33.2428 137.639 33.2428 137.238 33.2285C136.852 33.2142 136.493 33.1784 136.164 33.1211C135.849 33.0781 135.591 33.0065 135.391 32.9062C135.19 32.806 135.097 32.6699 135.111 32.498ZM138.463 16.8789C138.32 17.0365 138.126 17.2871 137.883 17.6309C137.654 17.9746 137.417 18.3542 137.174 18.7695C136.93 19.1849 136.687 19.6217 136.443 20.0801C136.214 20.5241 136.028 20.9395 135.885 21.3262C135.742 21.7129 135.648 22.0423 135.605 22.3145C135.577 22.5866 135.641 22.7513 135.799 22.8086C136.1 22.651 136.422 22.3932 136.766 22.0352C137.109 21.6628 137.432 21.2546 137.732 20.8105C138.048 20.3522 138.32 19.8867 138.549 19.4141C138.792 18.9271 138.957 18.4902 139.043 18.1035C139.143 17.7168 139.15 17.4089 139.064 17.1797C138.993 16.9362 138.792 16.8359 138.463 16.8789ZM151.977 18.8984C151.948 19.1562 151.912 19.3568 151.869 19.5C151.84 19.6432 151.783 19.7721 151.697 19.8867C151.611 20.0013 151.49 20.123 151.332 20.252C151.174 20.3665 150.96 20.5384 150.688 20.7676C150.415 20.9824 150.079 21.2689 149.678 21.627C149.277 21.985 148.79 22.4505 148.217 23.0234C147.988 23.2383 147.751 23.4603 147.508 23.6895C147.264 23.9186 147.007 24.1263 146.734 24.3125C146.477 24.4844 146.204 24.6276 145.918 24.7422C145.632 24.8568 145.331 24.9141 145.016 24.9141C144.4 24.9141 143.949 24.7064 143.662 24.291C143.376 23.8757 143.232 23.3958 143.232 22.8516C143.232 22.4935 143.24 22.1927 143.254 21.9492C143.283 21.7057 143.34 21.3906 143.426 21.0039C143.268 20.8607 143.132 20.7389 143.018 20.6387C142.903 20.5241 142.846 20.3737 142.846 20.1875C142.846 20.0156 142.882 19.901 142.953 19.8438C143.039 19.7865 143.132 19.7507 143.232 19.7363C143.347 19.7077 143.454 19.679 143.555 19.6504C143.655 19.6217 143.727 19.5645 143.77 19.4785C143.798 19.3926 143.848 19.235 143.92 19.0059C144.006 18.7767 144.092 18.5404 144.178 18.2969C144.264 18.0391 144.342 17.8027 144.414 17.5879C144.5 17.3587 144.557 17.2012 144.586 17.1152C144.686 16.8717 144.794 16.6283 144.908 16.3848C145.037 16.127 145.18 15.8978 145.338 15.6973C145.51 15.4967 145.703 15.332 145.918 15.2031C146.147 15.0742 146.412 15.0098 146.713 15.0098C146.885 15.0098 147.092 15.0885 147.336 15.2461C147.594 15.4036 147.837 15.597 148.066 15.8262C148.296 16.041 148.489 16.2702 148.646 16.5137C148.804 16.7572 148.883 16.9648 148.883 17.1367C148.883 17.3516 148.833 17.5521 148.732 17.7383C148.632 17.9102 148.503 18.0749 148.346 18.2324C148.202 18.3757 148.045 18.5117 147.873 18.6406C147.701 18.7695 147.544 18.8913 147.4 19.0059C147.386 19.0059 147.357 19.0202 147.314 19.0488C147.271 19.0775 147.236 19.099 147.207 19.1133C147.193 19.1276 147.157 19.1634 147.1 19.2207C147.057 19.2637 147.007 19.3138 146.949 19.3711C146.892 19.4284 146.835 19.4857 146.777 19.543C146.734 19.6003 146.706 19.6361 146.691 19.6504C146.648 19.6934 146.562 19.765 146.434 19.8652C146.319 19.9512 146.19 20.0514 146.047 20.166C145.904 20.2663 145.768 20.3665 145.639 20.4668C145.524 20.5527 145.445 20.61 145.402 20.6387L145.316 20.8105C145.288 20.8678 145.259 20.9967 145.23 21.1973C145.216 21.3835 145.195 21.5983 145.166 21.8418C145.137 22.0853 145.109 22.3359 145.08 22.5938C145.066 22.8372 145.059 23.0378 145.059 23.1953C145.059 23.2096 145.066 23.224 145.08 23.2383C145.109 23.2669 145.13 23.2812 145.145 23.2812C145.259 23.2812 145.367 23.2311 145.467 23.1309C145.567 23.0306 145.674 22.959 145.789 22.916L149.227 19.7363L150.107 18.3828C150.179 18.2826 150.315 18.1751 150.516 18.0605C150.73 17.9316 150.945 17.8672 151.16 17.8672C151.375 17.8529 151.561 17.9173 151.719 18.0605C151.891 18.2038 151.977 18.4831 151.977 18.8984ZM147.25 17.2227C147.322 17.1654 147.35 17.0794 147.336 16.9648C147.322 16.8503 147.279 16.75 147.207 16.6641C147.15 16.5781 147.071 16.528 146.971 16.5137C146.87 16.485 146.777 16.5352 146.691 16.6641C146.648 16.7214 146.57 16.8359 146.455 17.0078C146.355 17.1797 146.247 17.3587 146.133 17.5449C146.033 17.7168 145.947 17.8672 145.875 17.9961C145.803 18.125 145.789 18.1751 145.832 18.1465L147.25 17.2227ZM163.9 20.7246C163.915 20.4382 163.908 20.1517 163.879 19.8652C163.865 19.5788 163.843 19.2923 163.814 19.0059C163.8 18.9342 163.779 18.8197 163.75 18.6621C163.736 18.5046 163.729 18.4115 163.729 18.3828C163.729 18.3685 163.714 18.3398 163.686 18.2969C163.657 18.2396 163.643 18.2038 163.643 18.1895L163.686 18.1465C163.729 18.1035 163.743 18.082 163.729 18.082V13.9355H163.643C163.471 14.1361 163.27 14.3509 163.041 14.5801C162.812 14.8092 162.54 14.9238 162.225 14.9238C161.995 14.9238 161.773 14.8451 161.559 14.6875C161.358 14.5299 161.258 14.3223 161.258 14.0645V14.0215C161.258 14.0072 161.265 13.9857 161.279 13.957C161.294 13.9284 161.308 13.8997 161.322 13.8711C161.337 13.8281 161.351 13.7923 161.365 13.7637L163.771 11.6582V10.4766C163.771 10.3333 163.857 10.2259 164.029 10.1543C164.201 10.0684 164.344 10.0254 164.459 10.0254C164.645 10.0254 164.817 10.0755 164.975 10.1758C165.132 10.2617 165.29 10.3047 165.447 10.3047C165.59 10.3047 165.719 10.2617 165.834 10.1758C165.949 10.0898 166.063 10.0111 166.178 9.93945C166.722 9.61003 167.245 9.35938 167.746 9.1875C168.262 9.01562 168.835 8.92969 169.465 8.92969C169.737 8.92969 170.059 8.95833 170.432 9.01562C170.818 9.05859 171.184 9.14453 171.527 9.27344C171.885 9.40234 172.186 9.58138 172.43 9.81055C172.673 10.0397 172.795 10.3333 172.795 10.6914C172.795 11.3359 172.666 11.9518 172.408 12.5391C172.15 13.1263 171.792 13.6491 171.334 14.1074C170.732 14.6803 170.167 15.196 169.637 15.6543C169.121 16.0983 168.541 16.5495 167.896 17.0078C167.882 17.0221 167.868 17.0436 167.854 17.0723C167.839 17.0866 167.825 17.1009 167.811 17.1152L165.727 18.5547C165.655 18.612 165.619 18.7194 165.619 18.877C165.619 19.0202 165.619 19.1133 165.619 19.1562C165.619 19.5716 165.641 19.987 165.684 20.4023C165.741 20.8034 165.798 21.2116 165.855 21.627C165.913 22.0423 165.963 22.4577 166.006 22.873C166.063 23.2884 166.092 23.7038 166.092 24.1191C166.092 24.3483 166.035 24.556 165.92 24.7422C165.82 24.9141 165.633 25 165.361 25C165.161 25 164.946 24.9212 164.717 24.7637C164.502 24.5918 164.38 24.3984 164.352 24.1836L163.9 20.7246ZM165.619 16.5781L169.529 13.5918C169.701 13.4629 169.873 13.2982 170.045 13.0977C170.231 12.8828 170.396 12.6608 170.539 12.4316C170.697 12.1882 170.826 11.9375 170.926 11.6797C171.026 11.4219 171.076 11.1784 171.076 10.9492C171.076 10.806 171.012 10.6986 170.883 10.627C170.768 10.541 170.632 10.4837 170.475 10.4551C170.317 10.4121 170.152 10.3906 169.98 10.3906C169.823 10.3906 169.694 10.3906 169.594 10.3906C168.949 10.3906 168.355 10.541 167.811 10.8418C167.281 11.1283 166.772 11.4362 166.285 11.7656C166.257 11.7943 166.199 11.8372 166.113 11.8945C166.027 11.9375 165.941 11.9948 165.855 12.0664C165.77 12.1237 165.691 12.181 165.619 12.2383C165.562 12.2956 165.533 12.3457 165.533 12.3887V16.4707L165.619 16.5781ZM173.633 24.0762C173.604 23.5605 173.554 22.873 173.482 22.0137C173.425 21.14 173.354 20.2376 173.268 19.3066C173.196 18.3757 173.117 17.4948 173.031 16.6641C172.945 15.8333 172.874 15.1888 172.816 14.7305C172.816 14.5443 172.902 14.4225 173.074 14.3652C173.246 14.3079 173.411 14.2793 173.568 14.2793C173.769 14.2793 173.977 14.3366 174.191 14.4512C174.421 14.5658 174.564 14.7233 174.621 14.9238C174.621 14.9811 174.628 15.0885 174.643 15.2461C174.657 15.3893 174.664 15.5397 174.664 15.6973C174.678 15.8548 174.693 16.0124 174.707 16.1699C174.721 16.3132 174.729 16.4134 174.729 16.4707C174.729 16.5566 174.729 16.6211 174.729 16.6641C174.729 16.707 174.729 16.75 174.729 16.793C174.729 16.8216 174.736 16.8574 174.75 16.9004C174.764 16.9434 174.786 17.015 174.814 17.1152C174.843 17.0866 174.872 17.0508 174.9 17.0078C174.943 16.9648 174.972 16.9362 174.986 16.9219C175.215 16.5924 175.438 16.306 175.652 16.0625C175.867 15.8047 176.089 15.5684 176.318 15.3535C176.548 15.1243 176.798 14.888 177.07 14.6445C177.357 14.3867 177.686 14.0931 178.059 13.7637C178.145 13.6921 178.209 13.6419 178.252 13.6133C178.295 13.5703 178.331 13.5417 178.359 13.5273C178.402 13.4987 178.445 13.4844 178.488 13.4844C178.531 13.4701 178.589 13.4629 178.66 13.4629C178.904 13.4629 179.147 13.5488 179.391 13.7207C179.648 13.8783 179.777 14.1003 179.777 14.3867C179.777 14.487 179.742 14.5944 179.67 14.709C179.598 14.8092 179.512 14.9095 179.412 15.0098C179.312 15.0957 179.204 15.1745 179.09 15.2461C178.99 15.3177 178.896 15.3678 178.811 15.3965C178.438 15.7259 178.044 16.1055 177.629 16.5352C177.214 16.9505 176.827 17.4017 176.469 17.8887C176.111 18.3757 175.817 18.8841 175.588 19.4141C175.359 19.944 175.244 20.474 175.244 21.0039C175.244 21.4909 175.28 21.9707 175.352 22.4434C175.423 22.916 175.459 23.3958 175.459 23.8828V24.6348C175.344 24.7493 175.244 24.8424 175.158 24.9141C175.072 24.9857 174.951 25.0215 174.793 25.0215C174.549 25.0215 174.313 24.9212 174.084 24.7207C173.855 24.5059 173.704 24.291 173.633 24.0762ZM180.4 21.7129L181.195 16.1914C181.224 16.0052 181.303 15.8691 181.432 15.7832C181.575 15.6973 181.732 15.6543 181.904 15.6543C182.219 15.6543 182.47 15.7474 182.656 15.9336C182.842 16.1055 183 16.3203 183.129 16.5781H183.15C183.322 16.5781 183.473 16.5495 183.602 16.4922C183.745 16.4206 183.917 16.3848 184.117 16.3848C184.576 16.3848 184.962 16.528 185.277 16.8145C185.607 17.1009 185.872 17.4518 186.072 17.8672C186.273 18.2682 186.416 18.7051 186.502 19.1777C186.602 19.6504 186.652 20.0658 186.652 20.4238C186.652 20.8535 186.538 21.3333 186.309 21.8633C186.094 22.3932 185.8 22.8945 185.428 23.3672C185.07 23.8398 184.661 24.2337 184.203 24.5488C183.745 24.8639 183.279 25.0215 182.807 25.0215C182.377 25.0215 182.005 24.9212 181.689 24.7207C181.389 24.5202 181.138 24.2695 180.938 23.9688C180.751 23.6536 180.615 23.3027 180.529 22.916C180.443 22.5293 180.4 22.1497 180.4 21.7773V21.7129ZM182.205 21.8418C182.234 21.985 182.262 22.1497 182.291 22.3359C182.32 22.5221 182.363 22.694 182.42 22.8516C182.477 22.9948 182.556 23.1094 182.656 23.1953C182.771 23.2669 182.928 23.2669 183.129 23.1953C183.315 23.0234 183.516 22.8301 183.73 22.6152C183.945 22.4004 184.146 22.1712 184.332 21.9277C184.533 21.6842 184.697 21.4264 184.826 21.1543C184.955 20.8822 185.02 20.5957 185.02 20.2949C185.077 19.8079 185.041 19.3639 184.912 18.9629C184.783 18.5475 184.597 18.2539 184.354 18.082C184.124 17.8958 183.859 17.8743 183.559 18.0176C183.258 18.1465 182.957 18.5117 182.656 19.1133C182.484 19.4857 182.363 19.9225 182.291 20.4238C182.234 20.9108 182.205 21.362 182.205 21.7773V21.8418ZM187.598 22.4219C187.497 21.9922 187.497 21.4837 187.598 20.8965C187.712 20.3092 187.884 19.722 188.113 19.1348C188.357 18.5332 188.65 17.9674 188.994 17.4375C189.352 16.9076 189.725 16.485 190.111 16.1699C190.512 15.8548 190.913 15.6829 191.314 15.6543C191.73 15.6113 192.124 15.7904 192.496 16.1914C192.496 16.2057 192.503 16.2415 192.518 16.2988C192.532 16.3561 192.546 16.4779 192.561 16.6641C192.575 16.8359 192.582 17.0866 192.582 17.416C192.596 17.7311 192.604 18.168 192.604 18.7266C192.618 18.7552 192.632 18.8053 192.646 18.877C192.675 18.9342 192.689 18.9772 192.689 19.0059C192.646 19.1634 192.561 19.3138 192.432 19.457C192.317 19.5859 192.167 19.6504 191.98 19.6504C191.737 19.6504 191.536 19.6146 191.379 19.543C191.236 19.457 191.128 19.2637 191.057 18.9629C191.085 18.9199 191.092 18.834 191.078 18.7051C191.064 18.5618 191.035 18.4043 190.992 18.2324C190.964 18.0605 190.935 17.8887 190.906 17.7168C190.878 17.5449 190.863 17.4089 190.863 17.3086C190.849 17.3086 190.827 17.3229 190.799 17.3516C190.785 17.3659 190.77 17.3802 190.756 17.3945C190.512 17.8242 190.283 18.304 190.068 18.834C189.868 19.3496 189.71 19.8796 189.596 20.4238C189.495 20.9538 189.46 21.4837 189.488 22.0137C189.531 22.5436 189.689 23.0234 189.961 23.4531C190.161 23.4531 190.348 23.3743 190.52 23.2168C190.691 23.0449 190.835 22.8874 190.949 22.7441C191.193 22.4577 191.429 22.1641 191.658 21.8633C191.902 21.5625 192.124 21.2474 192.324 20.918C192.41 20.7747 192.475 20.6458 192.518 20.5312C192.561 20.4167 192.611 20.3236 192.668 20.252C192.74 20.1803 192.826 20.123 192.926 20.0801C193.026 20.0371 193.176 20.0156 193.377 20.0156C193.606 20.0156 193.821 20.0729 194.021 20.1875C194.222 20.2878 194.322 20.4596 194.322 20.7031C194.322 21.0326 194.172 21.4479 193.871 21.9492C193.585 22.4362 193.227 22.9089 192.797 23.3672C192.382 23.8255 191.938 24.2194 191.465 24.5488C190.992 24.8639 190.577 25.0215 190.219 25.0215C189.875 25.0215 189.538 24.957 189.209 24.8281C188.894 24.6849 188.615 24.4987 188.371 24.2695C188.142 24.0404 187.956 23.7682 187.812 23.4531C187.669 23.138 187.598 22.7943 187.598 22.4219ZM204.184 18.8984C204.155 19.1562 204.119 19.3568 204.076 19.5C204.048 19.6432 203.99 19.7721 203.904 19.8867C203.818 20.0013 203.697 20.123 203.539 20.252C203.382 20.3665 203.167 20.5384 202.895 20.7676C202.622 20.9824 202.286 21.2689 201.885 21.627C201.484 21.985 200.997 22.4505 200.424 23.0234C200.195 23.2383 199.958 23.4603 199.715 23.6895C199.471 23.9186 199.214 24.1263 198.941 24.3125C198.684 24.4844 198.411 24.6276 198.125 24.7422C197.839 24.8568 197.538 24.9141 197.223 24.9141C196.607 24.9141 196.156 24.7064 195.869 24.291C195.583 23.8757 195.439 23.3958 195.439 22.8516C195.439 22.4935 195.447 22.1927 195.461 21.9492C195.49 21.7057 195.547 21.3906 195.633 21.0039C195.475 20.8607 195.339 20.7389 195.225 20.6387C195.11 20.5241 195.053 20.3737 195.053 20.1875C195.053 20.0156 195.089 19.901 195.16 19.8438C195.246 19.7865 195.339 19.7507 195.439 19.7363C195.554 19.7077 195.661 19.679 195.762 19.6504C195.862 19.6217 195.934 19.5645 195.977 19.4785C196.005 19.3926 196.055 19.235 196.127 19.0059C196.213 18.7767 196.299 18.5404 196.385 18.2969C196.471 18.0391 196.549 17.8027 196.621 17.5879C196.707 17.3587 196.764 17.2012 196.793 17.1152C196.893 16.8717 197.001 16.6283 197.115 16.3848C197.244 16.127 197.387 15.8978 197.545 15.6973C197.717 15.4967 197.91 15.332 198.125 15.2031C198.354 15.0742 198.619 15.0098 198.92 15.0098C199.092 15.0098 199.299 15.0885 199.543 15.2461C199.801 15.4036 200.044 15.597 200.273 15.8262C200.503 16.041 200.696 16.2702 200.854 16.5137C201.011 16.7572 201.09 16.9648 201.09 17.1367C201.09 17.3516 201.04 17.5521 200.939 17.7383C200.839 17.9102 200.71 18.0749 200.553 18.2324C200.41 18.3757 200.252 18.5117 200.08 18.6406C199.908 18.7695 199.751 18.8913 199.607 19.0059C199.593 19.0059 199.564 19.0202 199.521 19.0488C199.479 19.0775 199.443 19.099 199.414 19.1133C199.4 19.1276 199.364 19.1634 199.307 19.2207C199.264 19.2637 199.214 19.3138 199.156 19.3711C199.099 19.4284 199.042 19.4857 198.984 19.543C198.941 19.6003 198.913 19.6361 198.898 19.6504C198.855 19.6934 198.77 19.765 198.641 19.8652C198.526 19.9512 198.397 20.0514 198.254 20.166C198.111 20.2663 197.975 20.3665 197.846 20.4668C197.731 20.5527 197.652 20.61 197.609 20.6387L197.523 20.8105C197.495 20.8678 197.466 20.9967 197.438 21.1973C197.423 21.3835 197.402 21.5983 197.373 21.8418C197.344 22.0853 197.316 22.3359 197.287 22.5938C197.273 22.8372 197.266 23.0378 197.266 23.1953C197.266 23.2096 197.273 23.224 197.287 23.2383C197.316 23.2669 197.337 23.2812 197.352 23.2812C197.466 23.2812 197.574 23.2311 197.674 23.1309C197.774 23.0306 197.882 22.959 197.996 22.916L201.434 19.7363L202.314 18.3828C202.386 18.2826 202.522 18.1751 202.723 18.0605C202.938 17.9316 203.152 17.8672 203.367 17.8672C203.582 17.8529 203.768 17.9173 203.926 18.0605C204.098 18.2038 204.184 18.4831 204.184 18.8984ZM199.457 17.2227C199.529 17.1654 199.557 17.0794 199.543 16.9648C199.529 16.8503 199.486 16.75 199.414 16.6641C199.357 16.5781 199.278 16.528 199.178 16.5137C199.077 16.485 198.984 16.5352 198.898 16.6641C198.855 16.7214 198.777 16.8359 198.662 17.0078C198.562 17.1797 198.454 17.3587 198.34 17.5449C198.24 17.7168 198.154 17.8672 198.082 17.9961C198.01 18.125 197.996 18.1751 198.039 18.1465L199.457 17.2227ZM208.008 24.1836C208.008 24.112 208.008 24.0475 208.008 23.9902C208.022 23.9329 208.058 23.8757 208.115 23.8184C208.287 23.6035 208.48 23.3815 208.695 23.1523C208.91 22.9089 209.118 22.6725 209.318 22.4434C209.519 22.1999 209.705 21.9492 209.877 21.6914C210.049 21.4336 210.192 21.1758 210.307 20.918V20.7891L207.492 21.3691H207.17C206.969 21.3691 206.719 21.3548 206.418 21.3262C206.132 21.2975 205.845 21.2402 205.559 21.1543C205.286 21.054 205.05 20.918 204.85 20.7461C204.663 20.5742 204.57 20.3451 204.57 20.0586C204.585 19.7292 204.757 19.3639 205.086 18.9629C205.415 18.5618 205.802 18.168 206.246 17.7812C206.69 17.3945 207.134 17.0365 207.578 16.707C208.036 16.3776 208.402 16.1198 208.674 15.9336C208.975 15.7617 209.333 15.6257 209.748 15.5254C210.163 15.4108 210.543 15.3535 210.887 15.3535C211.173 15.3535 211.424 15.4108 211.639 15.5254C211.854 15.6257 211.961 15.8333 211.961 16.1484C211.961 16.2773 211.947 16.3991 211.918 16.5137C211.904 16.6283 211.818 16.707 211.66 16.75C211.202 16.707 210.772 16.7428 210.371 16.8574C209.97 16.9577 209.59 17.1152 209.232 17.3301C208.874 17.5449 208.538 17.8027 208.223 18.1035C207.908 18.39 207.6 18.6908 207.299 19.0059C207.213 19.1061 207.105 19.2493 206.977 19.4355C206.848 19.6074 206.783 19.7077 206.783 19.7363V19.7578C207.156 19.7578 207.521 19.722 207.879 19.6504C208.251 19.5788 208.617 19.5072 208.975 19.4355C209.347 19.3496 209.712 19.2708 210.07 19.1992C210.443 19.1276 210.822 19.0918 211.209 19.0918C211.352 19.0918 211.51 19.1061 211.682 19.1348C211.854 19.1491 212.011 19.1921 212.154 19.2637C212.312 19.3353 212.434 19.4355 212.52 19.5645C212.62 19.679 212.67 19.8294 212.67 20.0156C212.67 20.2878 212.598 20.5527 212.455 20.8105C212.326 21.054 212.126 21.3548 211.854 21.7129C211.596 22.0566 211.259 22.4792 210.844 22.9805C210.443 23.4818 209.963 24.1263 209.404 24.9141C209.376 24.957 209.304 24.9857 209.189 25C209.089 25.0143 209.003 25.0215 208.932 25.0215C208.731 25.0215 208.523 24.9355 208.309 24.7637C208.108 24.5918 208.008 24.3984 208.008 24.1836ZM216.859 24.1836C216.859 24.112 216.859 24.0475 216.859 23.9902C216.874 23.9329 216.91 23.8757 216.967 23.8184C217.139 23.6035 217.332 23.3815 217.547 23.1523C217.762 22.9089 217.969 22.6725 218.17 22.4434C218.37 22.1999 218.557 21.9492 218.729 21.6914C218.9 21.4336 219.044 21.1758 219.158 20.918V20.7891L216.344 21.3691H216.021C215.821 21.3691 215.57 21.3548 215.27 21.3262C214.983 21.2975 214.697 21.2402 214.41 21.1543C214.138 21.054 213.902 20.918 213.701 20.7461C213.515 20.5742 213.422 20.3451 213.422 20.0586C213.436 19.7292 213.608 19.3639 213.938 18.9629C214.267 18.5618 214.654 18.168 215.098 17.7812C215.542 17.3945 215.986 17.0365 216.43 16.707C216.888 16.3776 217.253 16.1198 217.525 15.9336C217.826 15.7617 218.184 15.6257 218.6 15.5254C219.015 15.4108 219.395 15.3535 219.738 15.3535C220.025 15.3535 220.275 15.4108 220.49 15.5254C220.705 15.6257 220.812 15.8333 220.812 16.1484C220.812 16.2773 220.798 16.3991 220.77 16.5137C220.755 16.6283 220.669 16.707 220.512 16.75C220.053 16.707 219.624 16.7428 219.223 16.8574C218.822 16.9577 218.442 17.1152 218.084 17.3301C217.726 17.5449 217.389 17.8027 217.074 18.1035C216.759 18.39 216.451 18.6908 216.15 19.0059C216.064 19.1061 215.957 19.2493 215.828 19.4355C215.699 19.6074 215.635 19.7077 215.635 19.7363V19.7578C216.007 19.7578 216.372 19.722 216.73 19.6504C217.103 19.5788 217.468 19.5072 217.826 19.4355C218.199 19.3496 218.564 19.2708 218.922 19.1992C219.294 19.1276 219.674 19.0918 220.061 19.0918C220.204 19.0918 220.361 19.1061 220.533 19.1348C220.705 19.1491 220.863 19.1921 221.006 19.2637C221.163 19.3353 221.285 19.4355 221.371 19.5645C221.471 19.679 221.521 19.8294 221.521 20.0156C221.521 20.2878 221.45 20.5527 221.307 20.8105C221.178 21.054 220.977 21.3548 220.705 21.7129C220.447 22.0566 220.111 22.4792 219.695 22.9805C219.294 23.4818 218.814 24.1263 218.256 24.9141C218.227 24.957 218.156 24.9857 218.041 25C217.941 25.0143 217.855 25.0215 217.783 25.0215C217.583 25.0215 217.375 24.9355 217.16 24.7637C216.96 24.5918 216.859 24.3984 216.859 24.1836ZM223.477 24.1836C223.333 22.7513 223.212 21.5267 223.111 20.5098C223.011 19.4928 222.925 18.6406 222.854 17.9531C222.782 17.2656 222.717 16.7214 222.66 16.3203C222.617 15.9049 222.581 15.597 222.553 15.3965C222.524 15.1816 222.503 15.0384 222.488 14.9668C222.474 14.8952 222.467 14.8522 222.467 14.8379V14.752C222.467 14.5944 222.531 14.4655 222.66 14.3652C222.803 14.2507 222.947 14.1934 223.09 14.1934C223.305 14.1934 223.534 14.2292 223.777 14.3008C224.035 14.3724 224.207 14.5228 224.293 14.752C224.422 15.4538 224.508 16.1628 224.551 16.8789C224.608 17.5951 224.651 18.3112 224.68 19.0273C224.723 19.7292 224.773 20.4382 224.83 21.1543C224.902 21.8704 225.023 22.5794 225.195 23.2812C225.195 23.3099 225.202 23.3672 225.217 23.4531C225.245 23.5391 225.267 23.6322 225.281 23.7324C225.31 23.8327 225.331 23.9258 225.346 24.0117C225.36 24.0977 225.367 24.1549 225.367 24.1836V24.2266C225.367 24.2409 225.374 24.2552 225.389 24.2695C225.389 24.4414 225.31 24.6133 225.152 24.7852C224.995 24.957 224.83 25.0286 224.658 25C224.615 24.9857 224.508 24.9642 224.336 24.9355C224.178 24.8926 224.071 24.8568 224.014 24.8281C223.971 24.8138 223.913 24.7852 223.842 24.7422C223.77 24.6849 223.699 24.6276 223.627 24.5703C223.57 24.513 223.52 24.4486 223.477 24.377C223.434 24.3053 223.434 24.2409 223.477 24.1836ZM222.273 8.52148C222.273 8.42122 222.352 8.33529 222.51 8.26367C222.682 8.17773 222.811 8.13477 222.896 8.13477C223.111 8.13477 223.348 8.19922 223.605 8.32812C223.878 8.44271 224.014 8.62174 224.014 8.86523C224.014 9.10872 223.978 9.27344 223.906 9.35938C223.849 9.44531 223.699 9.48828 223.455 9.48828C223.197 9.48828 222.932 9.40234 222.66 9.23047C222.402 9.05859 222.273 8.82227 222.273 8.52148ZM232.307 24.2695C232.106 23.9831 231.934 23.5892 231.791 23.0879C231.662 22.5723 231.533 22.0352 231.404 21.4766C231.29 20.9036 231.182 20.3522 231.082 19.8223C230.982 19.278 230.874 18.8483 230.76 18.5332C230.66 18.2038 230.545 18.0176 230.416 17.9746C230.287 17.9316 230.137 18.125 229.965 18.5547L228.096 24.3125C228.024 24.513 227.938 24.6562 227.838 24.7422C227.738 24.8138 227.573 24.8496 227.344 24.8496C227.229 24.8496 227.107 24.8353 226.979 24.8066C226.85 24.7637 226.728 24.7064 226.613 24.6348C226.499 24.5632 226.398 24.4772 226.312 24.377C226.241 24.2767 226.198 24.1621 226.184 24.0332C226.227 23.8613 226.262 23.5462 226.291 23.0879C226.334 22.6296 226.363 22.0996 226.377 21.498C226.391 20.8965 226.398 20.2663 226.398 19.6074C226.413 18.9342 226.413 18.3112 226.398 17.7383C226.398 17.151 226.391 16.6497 226.377 16.2344C226.363 15.8047 226.348 15.5254 226.334 15.3965C226.334 15.2533 226.334 15.11 226.334 14.9668C226.348 14.8092 226.37 14.666 226.398 14.5371C226.441 14.4082 226.506 14.3079 226.592 14.2363C226.692 14.1504 226.842 14.1074 227.043 14.1074C227.315 14.1074 227.566 14.222 227.795 14.4512C228.038 14.6803 228.16 14.9238 228.16 15.1816C228.16 15.554 228.139 15.9264 228.096 16.2988C228.067 16.6569 228.053 17.0221 228.053 17.3945C228.053 17.6237 228.053 17.8171 228.053 17.9746C228.053 18.1322 228.081 18.3255 228.139 18.5547C228.182 18.4401 228.253 18.2396 228.354 17.9531C228.454 17.6667 228.561 17.3659 228.676 17.0508C228.805 16.7357 228.919 16.4421 229.02 16.1699C229.12 15.8835 229.191 15.6829 229.234 15.5684C229.335 15.2819 229.485 15.0098 229.686 14.752C229.886 14.4798 230.151 14.3294 230.48 14.3008C230.695 14.2865 230.889 14.3438 231.061 14.4727C231.247 14.6016 231.404 14.7734 231.533 14.9883C231.662 15.1888 231.77 15.4036 231.855 15.6328C231.941 15.8477 232.006 16.0339 232.049 16.1914L233.209 21.541L234.111 23.9902C234.126 24.0046 234.133 24.0475 234.133 24.1191C234.133 24.1764 234.133 24.2194 234.133 24.248C234.133 24.4199 234.09 24.5918 234.004 24.7637C233.932 24.9212 233.796 25 233.596 25C233.352 25 233.102 24.9355 232.844 24.8066C232.586 24.6634 232.407 24.4844 232.307 24.2695ZM236.131 32.498C236.074 32.3405 236.074 32.1615 236.131 31.9609C236.202 31.7604 236.339 31.6315 236.539 31.5742C236.868 31.7174 237.212 31.8105 237.57 31.8535C237.928 31.8965 238.286 31.9036 238.645 31.875C239.017 31.8464 239.382 31.7891 239.74 31.7031C240.098 31.6172 240.442 31.5169 240.771 31.4023C241.101 31.1302 241.33 30.7721 241.459 30.3281C241.588 29.8984 241.638 29.304 241.609 28.5449C241.581 27.8001 241.48 26.862 241.309 25.7305C241.151 24.6133 240.943 23.2383 240.686 21.6055C240.686 21.5625 240.686 21.498 240.686 21.4121C240.7 21.3262 240.7 21.2474 240.686 21.1758C240.671 21.0898 240.643 21.0254 240.6 20.9824C240.571 20.9395 240.528 20.9395 240.471 20.9824C240.285 21.3405 240.062 21.7344 239.805 22.1641C239.561 22.5794 239.275 22.9733 238.945 23.3457C238.63 23.7038 238.272 24.0046 237.871 24.248C237.484 24.4915 237.048 24.6133 236.561 24.6133C236.131 24.6133 235.751 24.4915 235.422 24.248C235.107 23.9902 234.949 23.625 234.949 23.1523C234.949 22.7943 235.021 22.3431 235.164 21.7988C235.322 21.2546 235.529 20.6816 235.787 20.0801C236.045 19.4642 236.346 18.8555 236.689 18.2539C237.033 17.6523 237.391 17.1081 237.764 16.6211C238.136 16.1341 238.516 15.7402 238.902 15.4395C239.289 15.1243 239.661 14.9668 240.02 14.9668C240.163 14.9668 240.349 14.9954 240.578 15.0527C240.822 15.0957 241.051 15.1673 241.266 15.2676C241.495 15.3678 241.688 15.4824 241.846 15.6113C242.018 15.7402 242.104 15.8906 242.104 16.0625V17.8027L243.5 27.9434C243.5 28.5163 243.486 29.0605 243.457 29.5762C243.443 30.1061 243.35 30.5931 243.178 31.0371C243.02 31.4811 242.762 31.875 242.404 32.2188C242.046 32.5625 241.531 32.8418 240.857 33.0566C240.771 33.0996 240.592 33.1354 240.32 33.1641C240.048 33.1927 239.733 33.2142 239.375 33.2285C239.031 33.2428 238.659 33.2428 238.258 33.2285C237.871 33.2142 237.513 33.1784 237.184 33.1211C236.868 33.0781 236.611 33.0065 236.41 32.9062C236.21 32.806 236.117 32.6699 236.131 32.498ZM239.482 16.8789C239.339 17.0365 239.146 17.2871 238.902 17.6309C238.673 17.9746 238.437 18.3542 238.193 18.7695C237.95 19.1849 237.706 19.6217 237.463 20.0801C237.234 20.5241 237.048 20.9395 236.904 21.3262C236.761 21.7129 236.668 22.0423 236.625 22.3145C236.596 22.5866 236.661 22.7513 236.818 22.8086C237.119 22.651 237.441 22.3932 237.785 22.0352C238.129 21.6628 238.451 21.2546 238.752 20.8105C239.067 20.3522 239.339 19.8867 239.568 19.4141C239.812 18.9271 239.977 18.4902 240.062 18.1035C240.163 17.7168 240.17 17.4089 240.084 17.1797C240.012 16.9362 239.812 16.8359 239.482 16.8789Z" fill="black"/>
<defs>
<filter id="filter0_i_4585_2724" x="1.95215" y="1.96155" width="257.593" height="33.5385" filterUnits="userSpaceOnUse" color-interpolation-filters="sRGB">
<feFlood flood-opacity="0" result="BackgroundImageFix"/>
<feBlend mode="normal" in="SourceGraphic" in2="BackgroundImageFix" result="shape"/>
<feColorMatrix in="SourceAlpha" type="matrix" values="0 0 0 0 0 0 0 0 0 0 0 0 0 0 0 0 0 0 127 0" result="hardAlpha"/>
<feOffset dx="4" dy="4"/>
<feComposite in2="hardAlpha" operator="arithmetic" k2="-1" k3="1"/>
<feColorMatrix type="matrix" values="0 0 0 0 0.694118 0 0 0 0 0.721569 0 0 0 0 0.741176 0 0 0 1 0"/>
<feBlend mode="multiply" in2="shape" result="effect1_innerShadow_4585_2724"/>
</filter>
</defs>
</svg>
