<svg width="90" height="37" viewBox="0 0 90 37" fill="none" xmlns="http://www.w3.org/2000/svg">
<g filter="url(#filter0_i_4585_2622)">
<path d="M84.0216 7.61228C87.541 11.6933 87.541 20.3656 87.541 20.3656C87.7307 28.2124 81.2761 34.5 73.0197 34.5C73.0198 31.5523 73.0195 2.00081 73.0195 2.00081C76.1629 1.66061 80.5022 3.53121 84.0216 7.61228Z" fill="white"/>
<path d="M18.7676 2H73.0195V34.5C73.0195 34.5 64.9722 34.2049 56.0803 34.5C51.1188 34.6647 40.7018 35.5 36.9754 35.5C26.5709 35.5 18.7676 34.5 18.7676 34.5V2Z" fill="white"/>
<path d="M5.14517 27.9432C0.335274 22.3612 1.47845 11.5 5.14549 8C8.81252 4.5 8.60485 4.5 11.9565 3.5C15.3082 2.5 18.7674 2 18.7674 2V34.5C13.1929 34.5 9.95507 33.5252 5.14517 27.9432Z" fill="white"/>
</g>
<path d="M18.7676 34.5C27.5907 34.5 27.2895 35 36.108 35C44.931 35 45.9942 34.4063 54.8173 34.4063C63.6404 34.4063 61.053 34 69.8761 34" stroke="black" stroke-width="3" stroke-miterlimit="10" stroke-linecap="round" stroke-linejoin="round"/>
<path d="M2.00244 17.5C2.00244 7 9.6485 2 18.555 2C11.2202 2 2.52635 8 2.52635 17.5C2.52635 31.5 14.5763 34.5 18.2437 34.5C10.385 34.5 2.00244 28 2.00244 17.5Z" stroke="black" stroke-width="3" stroke-linecap="round" stroke-linejoin="round"/>
<path d="M88 19C88 29.5 78.7824 34 69.8759 34C77.2107 34 86.33 30.5 87.165 20.5C88.3303 6.54422 77.7346 2 71.7587 1.99999C79.6174 2 88 8.49998 88 19Z" stroke="black" stroke-width="3" stroke-linecap="round" stroke-linejoin="round"/>
<path d="M18.7676 2C27.7128 2 26.7875 2 35.7281 2C44.6733 2 44.7006 1.5 53.6458 1.5C62.5911 1.5 63.0265 2.00001 71.9717 2.00001" stroke="black" stroke-width="3" stroke-miterlimit="10" stroke-linecap="round" stroke-linejoin="round"/>
<path d="M18.4941 22.3145C18.4941 21.4408 18.5085 20.5671 18.5371 19.6934C18.5801 18.8053 18.623 17.9245 18.666 17.0508C18.709 16.1628 18.7376 15.2819 18.752 14.4082C18.7806 13.5202 18.7806 12.6393 18.752 11.7656C18.7949 11.6081 18.8737 11.4935 18.9883 11.4219C19.1029 11.3359 19.2389 11.293 19.3965 11.293C19.6973 11.293 19.9264 11.3503 20.084 11.4648C20.2415 11.5651 20.3561 11.7083 20.4277 11.8945C20.4993 12.0807 20.5423 12.2884 20.5566 12.5176C20.571 12.7467 20.5853 12.9759 20.5996 13.2051C20.7715 13.5202 20.972 13.8281 21.2012 14.1289C21.4447 14.4154 21.6595 14.709 21.8457 15.0098C21.8457 15.0241 21.8529 15.0599 21.8672 15.1172C21.8958 15.1602 21.9173 15.1816 21.9316 15.1816C22.0176 15.3105 22.125 15.4824 22.2539 15.6973C22.3971 15.8978 22.5332 16.0983 22.6621 16.2988C22.791 16.485 22.8984 16.6497 22.9844 16.793C23.0846 16.9362 23.1348 17.0078 23.1348 17.0078L23.2207 17.1152L24.4668 18.9199C24.5241 18.9772 24.5742 19.0059 24.6172 19.0059H24.6602C24.474 17.4876 24.3236 15.9408 24.209 14.3652C24.0944 12.7754 24.0371 11.207 24.0371 9.66016V8.58594C24.1517 8.39974 24.3451 8.30664 24.6172 8.30664C24.8893 8.30664 25.0898 8.37109 25.2188 8.5C25.3477 8.62891 25.4336 8.79362 25.4766 8.99414C25.5195 9.18034 25.541 9.38802 25.541 9.61719C25.541 9.83203 25.5482 10.0326 25.5625 10.2188C25.5625 10.2331 25.5697 10.2617 25.584 10.3047C25.5983 10.3333 25.6126 10.4121 25.627 10.541C25.6556 10.6556 25.6771 10.8418 25.6914 11.0996C25.7201 11.3431 25.7487 11.6868 25.7773 12.1309C25.8203 12.5749 25.8561 13.1335 25.8848 13.8066C25.9277 14.4798 25.9779 15.3034 26.0352 16.2773V16.6641L26.7656 21.4551C26.7799 21.5697 26.8372 21.7487 26.9375 21.9922C27.0521 22.2214 27.1094 22.4004 27.1094 22.5293C27.1094 22.8301 27.0234 23.0736 26.8516 23.2598C26.6797 23.446 26.4362 23.5391 26.1211 23.5391C26.0781 23.5391 26.0208 23.5247 25.9492 23.4961C25.8776 23.4531 25.806 23.4102 25.7344 23.3672C25.6628 23.3242 25.5911 23.2812 25.5195 23.2383C25.4622 23.181 25.4193 23.138 25.3906 23.1094L21.9316 18.1895C21.9173 18.1895 21.903 18.168 21.8887 18.125C21.8743 18.0677 21.86 18.0247 21.8457 17.9961C21.7598 17.8672 21.6452 17.7096 21.502 17.5234C21.3587 17.3229 21.2227 17.1296 21.0938 16.9434C20.9648 16.7428 20.8503 16.571 20.75 16.4277C20.6497 16.2845 20.5996 16.2057 20.5996 16.1914L20.4922 16.1055C20.4206 17.4661 20.3633 18.8411 20.3203 20.2305C20.2773 21.6055 20.2773 22.9805 20.3203 24.3555C20.2917 24.5273 20.1986 24.6777 20.041 24.8066C19.8978 24.9355 19.7474 25 19.5898 25C19.3034 25 19.0742 24.9284 18.9023 24.7852C18.7448 24.6276 18.6087 24.4271 18.4941 24.1836V22.3145ZM37.0352 18.8984C37.0065 19.1562 36.9707 19.3568 36.9277 19.5C36.8991 19.6432 36.8418 19.7721 36.7559 19.8867C36.6699 20.0013 36.5482 20.123 36.3906 20.252C36.2331 20.3665 36.0182 20.5384 35.7461 20.7676C35.474 20.9824 35.1374 21.2689 34.7363 21.627C34.3353 21.985 33.8483 22.4505 33.2754 23.0234C33.0462 23.2383 32.8099 23.4603 32.5664 23.6895C32.3229 23.9186 32.0651 24.1263 31.793 24.3125C31.5352 24.4844 31.263 24.6276 30.9766 24.7422C30.6901 24.8568 30.3893 24.9141 30.0742 24.9141C29.4583 24.9141 29.0072 24.7064 28.7207 24.291C28.4342 23.8757 28.291 23.3958 28.291 22.8516C28.291 22.4935 28.2982 22.1927 28.3125 21.9492C28.3411 21.7057 28.3984 21.3906 28.4844 21.0039C28.3268 20.8607 28.1908 20.7389 28.0762 20.6387C27.9616 20.5241 27.9043 20.3737 27.9043 20.1875C27.9043 20.0156 27.9401 19.901 28.0117 19.8438C28.0977 19.7865 28.1908 19.7507 28.291 19.7363C28.4056 19.7077 28.513 19.679 28.6133 19.6504C28.7135 19.6217 28.7852 19.5645 28.8281 19.4785C28.8568 19.3926 28.9069 19.235 28.9785 19.0059C29.0645 18.7767 29.1504 18.5404 29.2363 18.2969C29.3223 18.0391 29.401 17.8027 29.4727 17.5879C29.5586 17.3587 29.6159 17.2012 29.6445 17.1152C29.7448 16.8717 29.8522 16.6283 29.9668 16.3848C30.0957 16.127 30.2389 15.8978 30.3965 15.6973C30.5684 15.4967 30.7617 15.332 30.9766 15.2031C31.2057 15.0742 31.4707 15.0098 31.7715 15.0098C31.9434 15.0098 32.151 15.0885 32.3945 15.2461C32.6523 15.4036 32.8958 15.597 33.125 15.8262C33.3542 16.041 33.5475 16.2702 33.7051 16.5137C33.8626 16.7572 33.9414 16.9648 33.9414 17.1367C33.9414 17.3516 33.8913 17.5521 33.791 17.7383C33.6908 17.9102 33.5618 18.0749 33.4043 18.2324C33.2611 18.3757 33.1035 18.5117 32.9316 18.6406C32.7598 18.7695 32.6022 18.8913 32.459 19.0059C32.4447 19.0059 32.416 19.0202 32.373 19.0488C32.3301 19.0775 32.2943 19.099 32.2656 19.1133C32.2513 19.1276 32.2155 19.1634 32.1582 19.2207C32.1152 19.2637 32.0651 19.3138 32.0078 19.3711C31.9505 19.4284 31.8932 19.4857 31.8359 19.543C31.793 19.6003 31.7643 19.6361 31.75 19.6504C31.707 19.6934 31.6211 19.765 31.4922 19.8652C31.3776 19.9512 31.2487 20.0514 31.1055 20.166C30.9622 20.2663 30.8262 20.3665 30.6973 20.4668C30.5827 20.5527 30.5039 20.61 30.4609 20.6387L30.375 20.8105C30.3464 20.8678 30.3177 20.9967 30.2891 21.1973C30.2747 21.3835 30.2533 21.5983 30.2246 21.8418C30.196 22.0853 30.1673 22.3359 30.1387 22.5938C30.1243 22.8372 30.1172 23.0378 30.1172 23.1953C30.1172 23.2096 30.1243 23.224 30.1387 23.2383C30.1673 23.2669 30.1888 23.2812 30.2031 23.2812C30.3177 23.2812 30.4251 23.2311 30.5254 23.1309C30.6257 23.0306 30.7331 22.959 30.8477 22.916L34.2852 19.7363L35.166 18.3828C35.2376 18.2826 35.3737 18.1751 35.5742 18.0605C35.7891 17.9316 36.0039 17.8672 36.2188 17.8672C36.4336 17.8529 36.6198 17.9173 36.7773 18.0605C36.9492 18.2038 37.0352 18.4831 37.0352 18.8984ZM32.3086 17.2227C32.3802 17.1654 32.4089 17.0794 32.3945 16.9648C32.3802 16.8503 32.3372 16.75 32.2656 16.6641C32.2083 16.5781 32.1296 16.528 32.0293 16.5137C31.929 16.485 31.8359 16.5352 31.75 16.6641C31.707 16.7214 31.6283 16.8359 31.5137 17.0078C31.4134 17.1797 31.306 17.3587 31.1914 17.5449C31.0911 17.7168 31.0052 17.8672 30.9336 17.9961C30.862 18.125 30.8477 18.1751 30.8906 18.1465L32.3086 17.2227ZM38.4102 27.084C38.3958 26.9837 38.4316 26.7832 38.5176 26.4824C38.6178 26.196 38.7396 25.8451 38.8828 25.4297C39.0404 25.0286 39.2051 24.5918 39.377 24.1191C39.5488 23.6465 39.7135 23.1953 39.8711 22.7656C40.043 22.3216 40.1862 21.9277 40.3008 21.584C40.4297 21.2259 40.5085 20.9538 40.5371 20.7676C40.5371 20.7389 40.5299 20.696 40.5156 20.6387C40.5156 20.5814 40.5156 20.5456 40.5156 20.5312C40.2578 20.3737 39.9928 20.166 39.7207 19.9082C39.4629 19.6361 39.2051 19.3568 38.9473 19.0703C38.6895 18.7695 38.4388 18.4688 38.1953 18.168C37.9518 17.8672 37.7227 17.6022 37.5078 17.373V17.2871C37.5078 17.0579 37.5866 16.8789 37.7441 16.75C37.916 16.6211 38.1094 16.5566 38.3242 16.5566C38.6536 16.5566 38.9544 16.6784 39.2266 16.9219C39.513 17.151 39.7637 17.4089 39.9785 17.6953C40.2077 17.9674 40.4082 18.2253 40.5801 18.4688C40.7663 18.6979 40.9238 18.8125 41.0527 18.8125H41.1387C41.153 18.7409 41.1816 18.6335 41.2246 18.4902C41.2819 18.3327 41.3607 18.0964 41.4609 17.7812C41.5612 17.4661 41.6973 17.0508 41.8691 16.5352C42.041 16.0195 42.2559 15.3607 42.5137 14.5586C42.5423 14.4297 42.6354 14.3509 42.793 14.3223C42.9505 14.2793 43.0866 14.2578 43.2012 14.2578C43.416 14.2578 43.6094 14.3294 43.7812 14.4727C43.9674 14.6159 44.0605 14.8092 44.0605 15.0527V15.1816L42.5566 20.3379L46.0586 23.3457L46.1445 23.6035V23.6465C46.1445 23.89 46.0514 24.069 45.8652 24.1836C45.6934 24.2982 45.5072 24.3555 45.3066 24.3555C45.0918 24.3555 44.8268 24.2409 44.5117 24.0117C44.2109 23.7826 43.903 23.5319 43.5879 23.2598C43.2728 22.9876 42.9792 22.737 42.707 22.5078C42.4492 22.2786 42.2559 22.1641 42.127 22.1641H42.041C41.8405 22.3503 41.6758 22.6081 41.5469 22.9375C41.418 23.2669 41.3034 23.6322 41.2031 24.0332C41.1029 24.4199 41.0026 24.821 40.9023 25.2363C40.8021 25.6517 40.6803 26.0312 40.5371 26.375C40.4082 26.7331 40.2507 27.041 40.0645 27.2988C39.8783 27.5566 39.6419 27.7214 39.3555 27.793C39.1693 27.793 38.9616 27.7285 38.7324 27.5996C38.5176 27.4707 38.4102 27.2988 38.4102 27.084ZM48.9375 18.7266C48.737 18.7266 48.5579 18.7767 48.4004 18.877C48.2428 18.9772 48.0566 19.0273 47.8418 19.0273C47.8132 19.0273 47.7344 19.0273 47.6055 19.0273C47.4909 19.013 47.4193 19.0059 47.3906 19.0059C47.3333 18.9342 47.2689 18.877 47.1973 18.834C47.1257 18.791 47.054 18.748 46.9824 18.7051C46.9108 18.6478 46.8464 18.5833 46.7891 18.5117C46.7461 18.4401 46.7246 18.3398 46.7246 18.2109C46.7246 17.9961 46.8105 17.8242 46.9824 17.6953C47.1543 17.5521 47.3548 17.4303 47.584 17.3301C47.8132 17.2298 48.0423 17.1367 48.2715 17.0508C48.515 16.9648 48.7083 16.8646 48.8516 16.75V15.8047C48.8516 14.7448 48.8014 13.6849 48.7012 12.625C48.6009 11.5508 48.5508 10.4909 48.5508 9.44531C48.5508 9.15885 48.6224 8.97266 48.7656 8.88672C48.9089 8.80078 49.1022 8.75781 49.3457 8.75781C49.6322 8.75781 49.8398 8.84375 49.9688 9.01562C50.112 9.17318 50.2122 9.3737 50.2695 9.61719C50.3268 9.84635 50.3555 10.097 50.3555 10.3691C50.3555 10.627 50.3626 10.849 50.377 11.0352C50.377 11.2214 50.3913 11.5508 50.4199 12.0234C50.4486 12.4961 50.4772 12.9974 50.5059 13.5273C50.5345 14.0573 50.5632 14.5586 50.5918 15.0312C50.6204 15.5039 50.6419 15.8333 50.6562 16.0195C50.7135 16.0052 50.821 15.9694 50.9785 15.9121C51.1504 15.8405 51.3294 15.776 51.5156 15.7188C51.7018 15.6471 51.8737 15.5827 52.0312 15.5254C52.2031 15.4681 52.3249 15.4251 52.3965 15.3965C52.7689 15.2389 53.1556 15.0671 53.5566 14.8809C53.9577 14.6803 54.3659 14.5801 54.7812 14.5801C55.0677 14.5801 55.2826 14.6803 55.4258 14.8809C55.5833 15.0671 55.6621 15.2891 55.6621 15.5469C55.6621 15.7331 55.5905 15.8691 55.4473 15.9551C55.304 16.041 55.1536 16.1198 54.9961 16.1914L51.0859 17.6523C51.043 17.681 51 17.7096 50.957 17.7383C50.9141 17.7526 50.8711 17.7812 50.8281 17.8242V18.5117C50.8281 19.013 50.8353 19.5358 50.8496 20.0801C50.8783 20.61 50.9284 21.1257 51 21.627C51.0716 22.0566 51.1504 22.4792 51.2363 22.8945C51.3223 23.3099 51.3652 23.7324 51.3652 24.1621C51.3652 24.291 51.3223 24.4629 51.2363 24.6777C51.1504 24.8926 51.0143 25 50.8281 25C50.4414 25 50.1263 24.8854 49.8828 24.6562C49.6393 24.4271 49.5033 24.1191 49.4746 23.7324C49.403 22.9876 49.3242 22.1712 49.2383 21.2832C49.1667 20.3952 49.0951 19.543 49.0234 18.7266H48.9375ZM56.3281 24.1836C56.3281 23.9831 56.3997 23.7969 56.543 23.625C56.7005 23.4531 56.8796 23.3672 57.0801 23.3672C57.3236 23.3672 57.5169 23.4316 57.6602 23.5605C57.8177 23.6895 57.9681 23.8327 58.1113 23.9902V24.0547C58.1113 24.2982 58.0254 24.5202 57.8535 24.7207C57.696 24.9069 57.4811 25 57.209 25C57.0228 25 56.8294 24.9141 56.6289 24.7422C56.4284 24.5703 56.3281 24.3841 56.3281 24.1836ZM56.1348 28.5449C56.1348 28.1296 56.1777 27.8288 56.2637 27.6426C56.3496 27.4707 56.457 27.3776 56.5859 27.3633C56.7148 27.3633 56.8652 27.4206 57.0371 27.5352C57.1947 27.6497 57.3737 27.7786 57.5742 27.9219C57.7604 28.0651 57.9538 28.2012 58.1543 28.3301C58.3405 28.4733 58.5267 28.5592 58.7129 28.5879C59.1139 28.5879 59.4434 28.4447 59.7012 28.1582C59.959 27.8861 60.1595 27.5495 60.3027 27.1484C60.4603 26.7617 60.5605 26.3535 60.6035 25.9238C60.6608 25.4941 60.6895 25.1361 60.6895 24.8496C60.6895 24.821 60.6895 24.778 60.6895 24.7207C60.6895 24.6491 60.6751 24.5059 60.6465 24.291C60.6322 24.0762 60.6107 23.7611 60.582 23.3457C60.5534 22.916 60.5033 22.3431 60.4316 21.627C60.3743 20.9108 60.2956 20.0156 60.1953 18.9414C60.1094 17.8529 59.9948 16.5352 59.8516 14.9883C59.8516 14.7734 59.9017 14.5944 60.002 14.4512C60.1165 14.3079 60.2884 14.2363 60.5176 14.2363C60.804 14.2363 61.0404 14.2793 61.2266 14.3652C61.4128 14.4368 61.5846 14.6087 61.7422 14.8809C61.7422 15.0527 61.7493 15.2461 61.7637 15.4609C61.778 15.6615 61.7995 15.9264 61.8281 16.2559C61.8568 16.571 61.8926 16.972 61.9355 17.459C61.9928 17.9316 62.0501 18.5189 62.1074 19.2207C62.179 19.9082 62.2507 20.7389 62.3223 21.7129C62.4082 22.6725 62.4941 23.7969 62.5801 25.0859C62.5801 25.5586 62.5371 26.0456 62.4512 26.5469C62.3796 27.0482 62.2435 27.5208 62.043 27.9648C61.8424 28.4232 61.5703 28.8242 61.2266 29.168C60.8828 29.526 60.4531 29.7839 59.9375 29.9414C59.8516 29.9128 59.7656 29.9199 59.6797 29.9629C59.5938 30.0059 59.5078 30.0273 59.4219 30.0273C59.1354 30.0273 58.8275 29.9987 58.498 29.9414C58.1686 29.8841 57.8464 29.7982 57.5312 29.6836C57.2161 29.569 56.9368 29.4115 56.6934 29.2109C56.4355 29.0247 56.2493 28.8027 56.1348 28.5449ZM58.8418 9.35938C58.8418 9.13021 58.9277 8.97982 59.0996 8.9082C59.2858 8.82227 59.4648 8.7793 59.6367 8.7793C59.9089 8.7793 60.1667 8.85807 60.4102 9.01562C60.6536 9.17318 60.7754 9.41667 60.7754 9.74609C60.7754 9.93229 60.6751 10.0684 60.4746 10.1543C60.2884 10.2259 60.1237 10.2617 59.9805 10.2617C59.8802 10.2617 59.7656 10.2402 59.6367 10.1973C59.5078 10.14 59.3789 10.0684 59.25 9.98242C59.1354 9.89648 59.0352 9.80339 58.9492 9.70312C58.8776 9.58854 58.8418 9.47396 58.8418 9.35938ZM66.6836 24.1836C66.6836 24.112 66.6836 24.0475 66.6836 23.9902C66.6979 23.9329 66.7337 23.8757 66.791 23.8184C66.9629 23.6035 67.1562 23.3815 67.3711 23.1523C67.5859 22.9089 67.7936 22.6725 67.9941 22.4434C68.1947 22.1999 68.3809 21.9492 68.5527 21.6914C68.7246 21.4336 68.8678 21.1758 68.9824 20.918V20.7891L66.168 21.3691H65.8457C65.6452 21.3691 65.3945 21.3548 65.0938 21.3262C64.8073 21.2975 64.5208 21.2402 64.2344 21.1543C63.9622 21.054 63.7259 20.918 63.5254 20.7461C63.3392 20.5742 63.2461 20.3451 63.2461 20.0586C63.2604 19.7292 63.4323 19.3639 63.7617 18.9629C64.0911 18.5618 64.4779 18.168 64.9219 17.7812C65.3659 17.3945 65.8099 17.0365 66.2539 16.707C66.7122 16.3776 67.0775 16.1198 67.3496 15.9336C67.6504 15.7617 68.0085 15.6257 68.4238 15.5254C68.8392 15.4108 69.2188 15.3535 69.5625 15.3535C69.849 15.3535 70.0996 15.4108 70.3145 15.5254C70.5293 15.6257 70.6367 15.8333 70.6367 16.1484C70.6367 16.2773 70.6224 16.3991 70.5938 16.5137C70.5794 16.6283 70.4935 16.707 70.3359 16.75C69.8776 16.707 69.4479 16.7428 69.0469 16.8574C68.6458 16.9577 68.2663 17.1152 67.9082 17.3301C67.5501 17.5449 67.2135 17.8027 66.8984 18.1035C66.5833 18.39 66.2754 18.6908 65.9746 19.0059C65.8887 19.1061 65.7812 19.2493 65.6523 19.4355C65.5234 19.6074 65.459 19.7077 65.459 19.7363V19.7578C65.8314 19.7578 66.1966 19.722 66.5547 19.6504C66.9271 19.5788 67.2923 19.5072 67.6504 19.4355C68.0228 19.3496 68.388 19.2708 68.7461 19.1992C69.1185 19.1276 69.498 19.0918 69.8848 19.0918C70.028 19.0918 70.1855 19.1061 70.3574 19.1348C70.5293 19.1491 70.6868 19.1921 70.8301 19.2637C70.9876 19.3353 71.1094 19.4355 71.1953 19.5645C71.2956 19.679 71.3457 19.8294 71.3457 20.0156C71.3457 20.2878 71.2741 20.5527 71.1309 20.8105C71.002 21.054 70.8014 21.3548 70.5293 21.7129C70.2715 22.0566 69.9349 22.4792 69.5195 22.9805C69.1185 23.4818 68.6387 24.1263 68.0801 24.9141C68.0514 24.957 67.9798 24.9857 67.8652 25C67.765 25.0143 67.679 25.0215 67.6074 25.0215C67.4069 25.0215 67.1992 24.9355 66.9844 24.7637C66.7839 24.5918 66.6836 24.3984 66.6836 24.1836Z" fill="black"/>
<defs>
<filter id="filter0_i_4585_2622" x="1.95215" y="1.96155" width="85.5928" height="33.5385" filterUnits="userSpaceOnUse" color-interpolation-filters="sRGB">
<feFlood flood-opacity="0" result="BackgroundImageFix"/>
<feBlend mode="normal" in="SourceGraphic" in2="BackgroundImageFix" result="shape"/>
<feColorMatrix in="SourceAlpha" type="matrix" values="0 0 0 0 0 0 0 0 0 0 0 0 0 0 0 0 0 0 127 0" result="hardAlpha"/>
<feOffset dx="4" dy="4"/>
<feComposite in2="hardAlpha" operator="arithmetic" k2="-1" k3="1"/>
<feColorMatrix type="matrix" values="0 0 0 0 0.694118 0 0 0 0 0.721569 0 0 0 0 0.741176 0 0 0 1 0"/>
<feBlend mode="multiply" in2="shape" result="effect1_innerShadow_4585_2622"/>
</filter>
</defs>
</svg>
