<svg width="88" height="37" viewBox="0 0 88 37" fill="none" xmlns="http://www.w3.org/2000/svg">
<g filter="url(#filter0_i_4585_2605)">
<path d="M82.0216 7.61228C85.541 11.6933 85.541 20.3656 85.541 20.3656C85.7307 28.2124 79.2761 34.5 71.0197 34.5C71.0198 31.5523 71.0195 2.00081 71.0195 2.00081C74.1629 1.66061 78.5022 3.53121 82.0216 7.61228Z" fill="white"/>
<path d="M18.7676 2H71.0195V34.5C71.0195 34.5 63.2689 34.2049 54.7048 34.5C49.9262 34.6647 39.8932 35.5 36.3042 35.5C26.2833 35.5 18.7676 34.5 18.7676 34.5V2Z" fill="white"/>
<path d="M5.14517 27.9432C0.335274 22.3612 1.47845 11.5 5.14549 8C8.81252 4.5 8.60485 4.5 11.9565 3.5C15.3082 2.5 18.7674 2 18.7674 2V34.5C13.1929 34.5 9.95507 33.5252 5.14517 27.9432Z" fill="white"/>
</g>
<path d="M18.7676 34.5C27.2454 34.5 26.9561 35 35.4294 35C43.9072 35 44.9288 34.4063 53.4066 34.4063C61.8844 34.4063 59.3983 34 67.8761 34" stroke="black" stroke-width="3" stroke-miterlimit="10" stroke-linecap="round" stroke-linejoin="round"/>
<path d="M2.00244 17.5C2.00244 7 9.6485 2 18.555 2C11.2202 2 2.52635 8 2.52635 17.5C2.52635 31.5 14.5763 34.5 18.2437 34.5C10.385 34.5 2.00244 28 2.00244 17.5Z" stroke="black" stroke-width="3" stroke-linecap="round" stroke-linejoin="round"/>
<path d="M86 19C86 29.5 76.7824 34 67.8759 34C75.2107 34 84.33 30.5 85.165 20.5C86.3303 6.54422 75.7346 2 69.7587 1.99999C77.6174 2 86 8.49998 86 19Z" stroke="black" stroke-width="3" stroke-linecap="round" stroke-linejoin="round"/>
<path d="M18.7676 2C27.3766 2 26.4861 2 35.0905 2C43.6995 2 43.7257 1.5 52.3347 1.5C60.9437 1.5 61.3627 2.00001 69.9717 2.00001" stroke="black" stroke-width="3" stroke-miterlimit="10" stroke-linecap="round" stroke-linejoin="round"/>
<path d="M18.4941 22.3145C18.4941 21.4408 18.5085 20.5671 18.5371 19.6934C18.5801 18.8053 18.623 17.9245 18.666 17.0508C18.709 16.1628 18.7376 15.2819 18.752 14.4082C18.7806 13.5202 18.7806 12.6393 18.752 11.7656C18.7949 11.6081 18.8737 11.4935 18.9883 11.4219C19.1029 11.3359 19.2389 11.293 19.3965 11.293C19.6973 11.293 19.9264 11.3503 20.084 11.4648C20.2415 11.5651 20.3561 11.7083 20.4277 11.8945C20.4993 12.0807 20.5423 12.2884 20.5566 12.5176C20.571 12.7467 20.5853 12.9759 20.5996 13.2051C20.7715 13.5202 20.972 13.8281 21.2012 14.1289C21.4447 14.4154 21.6595 14.709 21.8457 15.0098C21.8457 15.0241 21.8529 15.0599 21.8672 15.1172C21.8958 15.1602 21.9173 15.1816 21.9316 15.1816C22.0176 15.3105 22.125 15.4824 22.2539 15.6973C22.3971 15.8978 22.5332 16.0983 22.6621 16.2988C22.791 16.485 22.8984 16.6497 22.9844 16.793C23.0846 16.9362 23.1348 17.0078 23.1348 17.0078L23.2207 17.1152L24.4668 18.9199C24.5241 18.9772 24.5742 19.0059 24.6172 19.0059H24.6602C24.474 17.4876 24.3236 15.9408 24.209 14.3652C24.0944 12.7754 24.0371 11.207 24.0371 9.66016V8.58594C24.1517 8.39974 24.3451 8.30664 24.6172 8.30664C24.8893 8.30664 25.0898 8.37109 25.2188 8.5C25.3477 8.62891 25.4336 8.79362 25.4766 8.99414C25.5195 9.18034 25.541 9.38802 25.541 9.61719C25.541 9.83203 25.5482 10.0326 25.5625 10.2188C25.5625 10.2331 25.5697 10.2617 25.584 10.3047C25.5983 10.3333 25.6126 10.4121 25.627 10.541C25.6556 10.6556 25.6771 10.8418 25.6914 11.0996C25.7201 11.3431 25.7487 11.6868 25.7773 12.1309C25.8203 12.5749 25.8561 13.1335 25.8848 13.8066C25.9277 14.4798 25.9779 15.3034 26.0352 16.2773V16.6641L26.7656 21.4551C26.7799 21.5697 26.8372 21.7487 26.9375 21.9922C27.0521 22.2214 27.1094 22.4004 27.1094 22.5293C27.1094 22.8301 27.0234 23.0736 26.8516 23.2598C26.6797 23.446 26.4362 23.5391 26.1211 23.5391C26.0781 23.5391 26.0208 23.5247 25.9492 23.4961C25.8776 23.4531 25.806 23.4102 25.7344 23.3672C25.6628 23.3242 25.5911 23.2812 25.5195 23.2383C25.4622 23.181 25.4193 23.138 25.3906 23.1094L21.9316 18.1895C21.9173 18.1895 21.903 18.168 21.8887 18.125C21.8743 18.0677 21.86 18.0247 21.8457 17.9961C21.7598 17.8672 21.6452 17.7096 21.502 17.5234C21.3587 17.3229 21.2227 17.1296 21.0938 16.9434C20.9648 16.7428 20.8503 16.571 20.75 16.4277C20.6497 16.2845 20.5996 16.2057 20.5996 16.1914L20.4922 16.1055C20.4206 17.4661 20.3633 18.8411 20.3203 20.2305C20.2773 21.6055 20.2773 22.9805 20.3203 24.3555C20.2917 24.5273 20.1986 24.6777 20.041 24.8066C19.8978 24.9355 19.7474 25 19.5898 25C19.3034 25 19.0742 24.9284 18.9023 24.7852C18.7448 24.6276 18.6087 24.4271 18.4941 24.1836V22.3145ZM28.1191 21.7129L28.9141 16.1914C28.9427 16.0052 29.0215 15.8691 29.1504 15.7832C29.2936 15.6973 29.4512 15.6543 29.623 15.6543C29.9382 15.6543 30.1888 15.7474 30.375 15.9336C30.5612 16.1055 30.7188 16.3203 30.8477 16.5781H30.8691C31.041 16.5781 31.1914 16.5495 31.3203 16.4922C31.4635 16.4206 31.6354 16.3848 31.8359 16.3848C32.2943 16.3848 32.681 16.528 32.9961 16.8145C33.3255 17.1009 33.5905 17.4518 33.791 17.8672C33.9915 18.2682 34.1348 18.7051 34.2207 19.1777C34.321 19.6504 34.3711 20.0658 34.3711 20.4238C34.3711 20.8535 34.2565 21.3333 34.0273 21.8633C33.8125 22.3932 33.5189 22.8945 33.1465 23.3672C32.7884 23.8398 32.3802 24.2337 31.9219 24.5488C31.4635 24.8639 30.998 25.0215 30.5254 25.0215C30.0957 25.0215 29.7233 24.9212 29.4082 24.7207C29.1074 24.5202 28.8568 24.2695 28.6562 23.9688C28.4701 23.6536 28.334 23.3027 28.248 22.916C28.1621 22.5293 28.1191 22.1497 28.1191 21.7773V21.7129ZM29.9238 21.8418C29.9525 21.985 29.9811 22.1497 30.0098 22.3359C30.0384 22.5221 30.0814 22.694 30.1387 22.8516C30.196 22.9948 30.2747 23.1094 30.375 23.1953C30.4896 23.2669 30.6471 23.2669 30.8477 23.1953C31.0339 23.0234 31.2344 22.8301 31.4492 22.6152C31.6641 22.4004 31.8646 22.1712 32.0508 21.9277C32.2513 21.6842 32.416 21.4264 32.5449 21.1543C32.6738 20.8822 32.7383 20.5957 32.7383 20.2949C32.7956 19.8079 32.7598 19.3639 32.6309 18.9629C32.502 18.5475 32.3158 18.2539 32.0723 18.082C31.8431 17.8958 31.5781 17.8743 31.2773 18.0176C30.9766 18.1465 30.6758 18.5117 30.375 19.1133C30.2031 19.4857 30.0814 19.9225 30.0098 20.4238C29.9525 20.9108 29.9238 21.362 29.9238 21.7773V21.8418ZM40.709 21.6055C40.6947 21.6055 40.5944 21.763 40.4082 22.0781C40.2363 22.3932 40 22.737 39.6992 23.1094C39.3984 23.4818 39.0404 23.8255 38.625 24.1406C38.224 24.4557 37.7943 24.6133 37.3359 24.6133C36.7057 24.6133 36.1758 24.4199 35.7461 24.0332C35.3307 23.6465 35.123 23.1165 35.123 22.4434C35.0944 22.0996 35.1374 21.6914 35.252 21.2188C35.3809 20.7461 35.5599 20.2591 35.7891 19.7578C36.0326 19.2422 36.319 18.748 36.6484 18.2754C36.9922 17.7884 37.3574 17.373 37.7441 17.0293C38.1309 16.6712 38.5319 16.4062 38.9473 16.2344C39.377 16.0625 39.8066 16.0339 40.2363 16.1484V15.8477C40.2363 15.4753 40.222 15.0957 40.1934 14.709C40.179 14.3079 40.1576 13.8568 40.1289 13.3555C40.1146 12.8398 40.0931 12.2526 40.0645 11.5938C40.0501 10.9206 40.043 10.1185 40.043 9.1875C40.0859 9.02995 40.1576 8.92969 40.2578 8.88672C40.3724 8.82943 40.4941 8.80078 40.623 8.80078C40.9525 8.80078 41.2103 8.9082 41.3965 9.12305C41.597 9.33789 41.7188 9.60286 41.7617 9.91797C41.7331 10.4049 41.7188 10.9062 41.7188 11.4219C41.7331 11.9232 41.7617 12.4961 41.8047 13.1406C41.8477 13.7852 41.9121 14.5156 41.998 15.332C42.0983 16.1484 42.2201 17.1152 42.3633 18.2324C42.5065 19.3353 42.6784 20.61 42.8789 22.0566C43.0794 23.4889 43.3158 25.1504 43.5879 27.041V27.7715C43.5879 27.8574 43.5521 27.9219 43.4805 27.9648C43.4232 28.0078 43.3444 28.0365 43.2441 28.0508C43.1582 28.0794 43.0651 28.0938 42.9648 28.0938C42.8789 28.1081 42.8145 28.1152 42.7715 28.1152C42.5566 28.1152 42.3275 28.0508 42.084 27.9219C41.8405 27.8073 41.6973 27.6426 41.6543 27.4277L40.8594 21.6914C40.8594 21.6484 40.8379 21.627 40.7949 21.627C40.7663 21.6126 40.7376 21.6055 40.709 21.6055ZM36.9277 22.0781C36.9277 22.1211 36.9206 22.1999 36.9062 22.3145C36.9062 22.4147 36.9062 22.5221 36.9062 22.6367C36.9206 22.7513 36.9421 22.8516 36.9707 22.9375C36.9993 23.0234 37.0566 23.0664 37.1426 23.0664C37.5007 23.0807 37.8659 22.9447 38.2383 22.6582C38.625 22.3717 38.9759 22.0208 39.291 21.6055C39.6061 21.1758 39.8639 20.7174 40.0645 20.2305C40.2793 19.7435 40.3939 19.3066 40.4082 18.9199C40.4368 18.5332 40.3438 18.2396 40.1289 18.0391C39.9284 17.8242 39.5775 17.7741 39.0762 17.8887C38.4603 18.4329 37.9447 19.056 37.5293 19.7578C37.1283 20.4596 36.9277 21.2331 36.9277 22.0781ZM53.1484 18.8984C53.1198 19.1562 53.084 19.3568 53.041 19.5C53.0124 19.6432 52.9551 19.7721 52.8691 19.8867C52.7832 20.0013 52.6615 20.123 52.5039 20.252C52.3464 20.3665 52.1315 20.5384 51.8594 20.7676C51.5872 20.9824 51.2507 21.2689 50.8496 21.627C50.4486 21.985 49.9616 22.4505 49.3887 23.0234C49.1595 23.2383 48.9232 23.4603 48.6797 23.6895C48.4362 23.9186 48.1784 24.1263 47.9062 24.3125C47.6484 24.4844 47.3763 24.6276 47.0898 24.7422C46.8034 24.8568 46.5026 24.9141 46.1875 24.9141C45.5716 24.9141 45.1204 24.7064 44.834 24.291C44.5475 23.8757 44.4043 23.3958 44.4043 22.8516C44.4043 22.4935 44.4115 22.1927 44.4258 21.9492C44.4544 21.7057 44.5117 21.3906 44.5977 21.0039C44.4401 20.8607 44.304 20.7389 44.1895 20.6387C44.0749 20.5241 44.0176 20.3737 44.0176 20.1875C44.0176 20.0156 44.0534 19.901 44.125 19.8438C44.2109 19.7865 44.304 19.7507 44.4043 19.7363C44.5189 19.7077 44.6263 19.679 44.7266 19.6504C44.8268 19.6217 44.8984 19.5645 44.9414 19.4785C44.9701 19.3926 45.0202 19.235 45.0918 19.0059C45.1777 18.7767 45.2637 18.5404 45.3496 18.2969C45.4355 18.0391 45.5143 17.8027 45.5859 17.5879C45.6719 17.3587 45.7292 17.2012 45.7578 17.1152C45.8581 16.8717 45.9655 16.6283 46.0801 16.3848C46.209 16.127 46.3522 15.8978 46.5098 15.6973C46.6816 15.4967 46.875 15.332 47.0898 15.2031C47.319 15.0742 47.584 15.0098 47.8848 15.0098C48.0566 15.0098 48.2643 15.0885 48.5078 15.2461C48.7656 15.4036 49.0091 15.597 49.2383 15.8262C49.4674 16.041 49.6608 16.2702 49.8184 16.5137C49.9759 16.7572 50.0547 16.9648 50.0547 17.1367C50.0547 17.3516 50.0046 17.5521 49.9043 17.7383C49.804 17.9102 49.6751 18.0749 49.5176 18.2324C49.3743 18.3757 49.2168 18.5117 49.0449 18.6406C48.873 18.7695 48.7155 18.8913 48.5723 19.0059C48.5579 19.0059 48.5293 19.0202 48.4863 19.0488C48.4434 19.0775 48.4076 19.099 48.3789 19.1133C48.3646 19.1276 48.3288 19.1634 48.2715 19.2207C48.2285 19.2637 48.1784 19.3138 48.1211 19.3711C48.0638 19.4284 48.0065 19.4857 47.9492 19.543C47.9062 19.6003 47.8776 19.6361 47.8633 19.6504C47.8203 19.6934 47.7344 19.765 47.6055 19.8652C47.4909 19.9512 47.362 20.0514 47.2188 20.166C47.0755 20.2663 46.9395 20.3665 46.8105 20.4668C46.696 20.5527 46.6172 20.61 46.5742 20.6387L46.4883 20.8105C46.4596 20.8678 46.431 20.9967 46.4023 21.1973C46.388 21.3835 46.3665 21.5983 46.3379 21.8418C46.3092 22.0853 46.2806 22.3359 46.252 22.5938C46.2376 22.8372 46.2305 23.0378 46.2305 23.1953C46.2305 23.2096 46.2376 23.224 46.252 23.2383C46.2806 23.2669 46.3021 23.2812 46.3164 23.2812C46.431 23.2812 46.5384 23.2311 46.6387 23.1309C46.7389 23.0306 46.8464 22.959 46.9609 22.916L50.3984 19.7363L51.2793 18.3828C51.3509 18.2826 51.487 18.1751 51.6875 18.0605C51.9023 17.9316 52.1172 17.8672 52.332 17.8672C52.5469 17.8529 52.7331 17.9173 52.8906 18.0605C53.0625 18.2038 53.1484 18.4831 53.1484 18.8984ZM48.4219 17.2227C48.4935 17.1654 48.5221 17.0794 48.5078 16.9648C48.4935 16.8503 48.4505 16.75 48.3789 16.6641C48.3216 16.5781 48.2428 16.528 48.1426 16.5137C48.0423 16.485 47.9492 16.5352 47.8633 16.6641C47.8203 16.7214 47.7415 16.8359 47.627 17.0078C47.5267 17.1797 47.4193 17.3587 47.3047 17.5449C47.2044 17.7168 47.1185 17.8672 47.0469 17.9961C46.9753 18.125 46.9609 18.1751 47.0039 18.1465L48.4219 17.2227ZM53.707 24.1836C53.707 23.9831 53.7786 23.7969 53.9219 23.625C54.0794 23.4531 54.2585 23.3672 54.459 23.3672C54.7025 23.3672 54.8958 23.4316 55.0391 23.5605C55.1966 23.6895 55.347 23.8327 55.4902 23.9902V24.0547C55.4902 24.2982 55.4043 24.5202 55.2324 24.7207C55.0749 24.9069 54.86 25 54.5879 25C54.4017 25 54.2083 24.9141 54.0078 24.7422C53.8073 24.5703 53.707 24.3841 53.707 24.1836ZM53.5137 28.5449C53.5137 28.1296 53.5566 27.8288 53.6426 27.6426C53.7285 27.4707 53.8359 27.3776 53.9648 27.3633C54.0938 27.3633 54.2441 27.4206 54.416 27.5352C54.5736 27.6497 54.7526 27.7786 54.9531 27.9219C55.1393 28.0651 55.3327 28.2012 55.5332 28.3301C55.7194 28.4733 55.9056 28.5592 56.0918 28.5879C56.4928 28.5879 56.8223 28.4447 57.0801 28.1582C57.3379 27.8861 57.5384 27.5495 57.6816 27.1484C57.8392 26.7617 57.9395 26.3535 57.9824 25.9238C58.0397 25.4941 58.0684 25.1361 58.0684 24.8496C58.0684 24.821 58.0684 24.778 58.0684 24.7207C58.0684 24.6491 58.054 24.5059 58.0254 24.291C58.0111 24.0762 57.9896 23.7611 57.9609 23.3457C57.9323 22.916 57.8822 22.3431 57.8105 21.627C57.7533 20.9108 57.6745 20.0156 57.5742 18.9414C57.4883 17.8529 57.3737 16.5352 57.2305 14.9883C57.2305 14.7734 57.2806 14.5944 57.3809 14.4512C57.4954 14.3079 57.6673 14.2363 57.8965 14.2363C58.1829 14.2363 58.4193 14.2793 58.6055 14.3652C58.7917 14.4368 58.9635 14.6087 59.1211 14.8809C59.1211 15.0527 59.1283 15.2461 59.1426 15.4609C59.1569 15.6615 59.1784 15.9264 59.207 16.2559C59.2357 16.571 59.2715 16.972 59.3145 17.459C59.3717 17.9316 59.429 18.5189 59.4863 19.2207C59.5579 19.9082 59.6296 20.7389 59.7012 21.7129C59.7871 22.6725 59.873 23.7969 59.959 25.0859C59.959 25.5586 59.916 26.0456 59.8301 26.5469C59.7585 27.0482 59.6224 27.5208 59.4219 27.9648C59.2214 28.4232 58.9492 28.8242 58.6055 29.168C58.2617 29.526 57.832 29.7839 57.3164 29.9414C57.2305 29.9128 57.1445 29.9199 57.0586 29.9629C56.9727 30.0059 56.8867 30.0273 56.8008 30.0273C56.5143 30.0273 56.2064 29.9987 55.877 29.9414C55.5475 29.8841 55.2253 29.7982 54.9102 29.6836C54.5951 29.569 54.3158 29.4115 54.0723 29.2109C53.8145 29.0247 53.6283 28.8027 53.5137 28.5449ZM56.2207 9.35938C56.2207 9.13021 56.3066 8.97982 56.4785 8.9082C56.6647 8.82227 56.8438 8.7793 57.0156 8.7793C57.2878 8.7793 57.5456 8.85807 57.7891 9.01562C58.0326 9.17318 58.1543 9.41667 58.1543 9.74609C58.1543 9.93229 58.054 10.0684 57.8535 10.1543C57.6673 10.2259 57.5026 10.2617 57.3594 10.2617C57.2591 10.2617 57.1445 10.2402 57.0156 10.1973C56.8867 10.14 56.7578 10.0684 56.6289 9.98242C56.5143 9.89648 56.4141 9.80339 56.3281 9.70312C56.2565 9.58854 56.2207 9.47396 56.2207 9.35938ZM64.0625 24.1836C64.0625 24.112 64.0625 24.0475 64.0625 23.9902C64.0768 23.9329 64.1126 23.8757 64.1699 23.8184C64.3418 23.6035 64.5352 23.3815 64.75 23.1523C64.9648 22.9089 65.1725 22.6725 65.373 22.4434C65.5736 22.1999 65.7598 21.9492 65.9316 21.6914C66.1035 21.4336 66.2467 21.1758 66.3613 20.918V20.7891L63.5469 21.3691H63.2246C63.0241 21.3691 62.7734 21.3548 62.4727 21.3262C62.1862 21.2975 61.8997 21.2402 61.6133 21.1543C61.3411 21.054 61.1048 20.918 60.9043 20.7461C60.7181 20.5742 60.625 20.3451 60.625 20.0586C60.6393 19.7292 60.8112 19.3639 61.1406 18.9629C61.4701 18.5618 61.8568 18.168 62.3008 17.7812C62.7448 17.3945 63.1888 17.0365 63.6328 16.707C64.0911 16.3776 64.4564 16.1198 64.7285 15.9336C65.0293 15.7617 65.3874 15.6257 65.8027 15.5254C66.2181 15.4108 66.5977 15.3535 66.9414 15.3535C67.2279 15.3535 67.4785 15.4108 67.6934 15.5254C67.9082 15.6257 68.0156 15.8333 68.0156 16.1484C68.0156 16.2773 68.0013 16.3991 67.9727 16.5137C67.9583 16.6283 67.8724 16.707 67.7148 16.75C67.2565 16.707 66.8268 16.7428 66.4258 16.8574C66.0247 16.9577 65.6452 17.1152 65.2871 17.3301C64.929 17.5449 64.5924 17.8027 64.2773 18.1035C63.9622 18.39 63.6543 18.6908 63.3535 19.0059C63.2676 19.1061 63.1602 19.2493 63.0312 19.4355C62.9023 19.6074 62.8379 19.7077 62.8379 19.7363V19.7578C63.2103 19.7578 63.5755 19.722 63.9336 19.6504C64.306 19.5788 64.6712 19.5072 65.0293 19.4355C65.4017 19.3496 65.7669 19.2708 66.125 19.1992C66.4974 19.1276 66.877 19.0918 67.2637 19.0918C67.4069 19.0918 67.5645 19.1061 67.7363 19.1348C67.9082 19.1491 68.0658 19.1921 68.209 19.2637C68.3665 19.3353 68.4883 19.4355 68.5742 19.5645C68.6745 19.679 68.7246 19.8294 68.7246 20.0156C68.7246 20.2878 68.653 20.5527 68.5098 20.8105C68.3809 21.054 68.1803 21.3548 67.9082 21.7129C67.6504 22.0566 67.3138 22.4792 66.8984 22.9805C66.4974 23.4818 66.0176 24.1263 65.459 24.9141C65.4303 24.957 65.3587 24.9857 65.2441 25C65.1439 25.0143 65.0579 25.0215 64.9863 25.0215C64.7858 25.0215 64.5781 24.9355 64.3633 24.7637C64.1628 24.5918 64.0625 24.3984 64.0625 24.1836Z" fill="black"/>
<defs>
<filter id="filter0_i_4585_2605" x="1.95215" y="1.96155" width="83.5928" height="33.5385" filterUnits="userSpaceOnUse" color-interpolation-filters="sRGB">
<feFlood flood-opacity="0" result="BackgroundImageFix"/>
<feBlend mode="normal" in="SourceGraphic" in2="BackgroundImageFix" result="shape"/>
<feColorMatrix in="SourceAlpha" type="matrix" values="0 0 0 0 0 0 0 0 0 0 0 0 0 0 0 0 0 0 127 0" result="hardAlpha"/>
<feOffset dx="4" dy="4"/>
<feComposite in2="hardAlpha" operator="arithmetic" k2="-1" k3="1"/>
<feColorMatrix type="matrix" values="0 0 0 0 0.694118 0 0 0 0 0.721569 0 0 0 0 0.741176 0 0 0 1 0"/>
<feBlend mode="multiply" in2="shape" result="effect1_innerShadow_4585_2605"/>
</filter>
</defs>
</svg>
