<svg width="89" height="37" viewBox="0 0 89 37" fill="none" xmlns="http://www.w3.org/2000/svg">
<g filter="url(#filter0_i_4581_2469)">
<path d="M83.0216 7.61228C86.541 11.6933 86.541 20.3656 86.541 20.3656C86.7307 28.2124 80.2761 34.5 72.0197 34.5C72.0198 31.5523 72.0195 2.00081 72.0195 2.00081C75.1629 1.66061 79.5022 3.53121 83.0216 7.61228Z" fill="white"/>
<path d="M18.7676 2H72.0195V34.5C72.0195 34.5 64.1205 34.2049 55.3926 34.5C50.5225 34.6647 40.2975 35.5 36.6398 35.5C26.4271 35.5 18.7676 34.5 18.7676 34.5V2Z" fill="white"/>
<path d="M5.14517 27.9432C0.335274 22.3612 1.47845 11.5 5.14549 8C8.81252 4.5 8.60485 4.5 11.9565 3.5C15.3082 2.5 18.7674 2 18.7674 2V34.5C13.1929 34.5 9.95507 33.5252 5.14517 27.9432Z" fill="white"/>
</g>
<path d="M18.7676 34.5C27.418 34.5 27.1228 35 35.7687 35C44.4191 35 45.4615 34.4063 54.112 34.4063C62.7624 34.4063 60.2256 34 68.8761 34" stroke="black" stroke-width="3" stroke-miterlimit="10" stroke-linecap="round" stroke-linejoin="round"/>
<path d="M2.00244 17.5C2.00244 7 9.6485 2 18.555 2C11.2202 2 2.52635 8 2.52635 17.5C2.52635 31.5 14.5763 34.5 18.2437 34.5C10.385 34.5 2.00244 28 2.00244 17.5Z" stroke="black" stroke-width="3" stroke-linecap="round" stroke-linejoin="round"/>
<path d="M87 19C87 29.5 77.7824 34 68.8759 34C76.2107 34 85.33 30.5 86.165 20.5C87.3303 6.54422 76.7346 2 70.7587 1.99999C78.6174 2 87 8.49998 87 19Z" stroke="black" stroke-width="3" stroke-linecap="round" stroke-linejoin="round"/>
<path d="M18.7676 2C27.5447 2 26.6368 2 35.4093 2C44.1864 2 44.2132 1.5 52.9903 1.5C61.7674 1.5 62.1946 2.00001 70.9717 2.00001" stroke="black" stroke-width="3" stroke-miterlimit="10" stroke-linecap="round" stroke-linejoin="round"/>
<path d="M21.0293 20.7246C21.0436 20.4382 21.0365 20.1517 21.0078 19.8652C20.9935 19.5788 20.972 19.2923 20.9434 19.0059C20.929 18.9342 20.9076 18.8197 20.8789 18.6621C20.8646 18.5046 20.8574 18.4115 20.8574 18.3828C20.8574 18.3685 20.8431 18.3398 20.8145 18.2969C20.7858 18.2396 20.7715 18.2038 20.7715 18.1895L20.8145 18.1465C20.8574 18.1035 20.8717 18.082 20.8574 18.082V13.9355H20.7715C20.5996 14.1361 20.3991 14.3509 20.1699 14.5801C19.9408 14.8092 19.6686 14.9238 19.3535 14.9238C19.1243 14.9238 18.9023 14.8451 18.6875 14.6875C18.487 14.5299 18.3867 14.3223 18.3867 14.0645V14.0215C18.3867 14.0072 18.3939 13.9857 18.4082 13.957C18.4225 13.9284 18.4368 13.8997 18.4512 13.8711C18.4655 13.8281 18.4798 13.7923 18.4941 13.7637L20.9004 11.6582V10.4766C20.9004 10.3333 20.9863 10.2259 21.1582 10.1543C21.3301 10.0684 21.4733 10.0254 21.5879 10.0254C21.7741 10.0254 21.946 10.0755 22.1035 10.1758C22.2611 10.2617 22.4186 10.3047 22.5762 10.3047C22.7194 10.3047 22.8483 10.2617 22.9629 10.1758C23.0775 10.0898 23.1921 10.0111 23.3066 9.93945C23.8509 9.61003 24.3737 9.35938 24.875 9.1875C25.3906 9.01562 25.9635 8.92969 26.5938 8.92969C26.8659 8.92969 27.1882 8.95833 27.5605 9.01562C27.9473 9.05859 28.3125 9.14453 28.6562 9.27344C29.0143 9.40234 29.3151 9.58138 29.5586 9.81055C29.8021 10.0397 29.9238 10.3333 29.9238 10.6914C29.9238 11.3359 29.7949 11.9518 29.5371 12.5391C29.2793 13.1263 28.9212 13.6491 28.4629 14.1074C27.8613 14.6803 27.2956 15.196 26.7656 15.6543C26.25 16.0983 25.6699 16.5495 25.0254 17.0078C25.0111 17.0221 24.9967 17.0436 24.9824 17.0723C24.9681 17.0866 24.9538 17.1009 24.9395 17.1152L22.8555 18.5547C22.7839 18.612 22.748 18.7194 22.748 18.877C22.748 19.0202 22.748 19.1133 22.748 19.1562C22.748 19.5716 22.7695 19.987 22.8125 20.4023C22.8698 20.8034 22.9271 21.2116 22.9844 21.627C23.0417 22.0423 23.0918 22.4577 23.1348 22.873C23.1921 23.2884 23.2207 23.7038 23.2207 24.1191C23.2207 24.3483 23.1634 24.556 23.0488 24.7422C22.9486 24.9141 22.7624 25 22.4902 25C22.2897 25 22.0749 24.9212 21.8457 24.7637C21.6309 24.5918 21.5091 24.3984 21.4805 24.1836L21.0293 20.7246ZM22.748 16.5781L26.6582 13.5918C26.8301 13.4629 27.002 13.2982 27.1738 13.0977C27.36 12.8828 27.5247 12.6608 27.668 12.4316C27.8255 12.1882 27.9544 11.9375 28.0547 11.6797C28.1549 11.4219 28.2051 11.1784 28.2051 10.9492C28.2051 10.806 28.1406 10.6986 28.0117 10.627C27.8971 10.541 27.7611 10.4837 27.6035 10.4551C27.446 10.4121 27.2812 10.3906 27.1094 10.3906C26.9518 10.3906 26.8229 10.3906 26.7227 10.3906C26.0781 10.3906 25.4837 10.541 24.9395 10.8418C24.4095 11.1283 23.901 11.4362 23.4141 11.7656C23.3854 11.7943 23.3281 11.8372 23.2422 11.8945C23.1562 11.9375 23.0703 11.9948 22.9844 12.0664C22.8984 12.1237 22.8197 12.181 22.748 12.2383C22.6908 12.2956 22.6621 12.3457 22.6621 12.3887V16.4707L22.748 16.5781ZM34.0918 30.9082C34.0632 30.6074 34.0417 30.2422 34.0273 29.8125C34.0273 29.3828 34.0273 28.9316 34.0273 28.459C34.0273 27.9863 34.0273 27.5065 34.0273 27.0195C34.0417 26.5326 34.0632 26.0885 34.0918 25.6875V24.9141C34.0202 24.8138 33.9342 24.7135 33.834 24.6133C33.7337 24.4987 33.5547 24.2839 33.2969 23.9688C33.0534 23.6393 32.7025 23.1595 32.2441 22.5293C31.7858 21.8848 31.1699 20.9896 30.3965 19.8438C30.0957 19.5286 29.9023 19.2708 29.8164 19.0703C29.7305 18.8555 29.7018 18.6836 29.7305 18.5547C29.7591 18.4258 29.8307 18.3327 29.9453 18.2754C30.0742 18.2181 30.196 18.1895 30.3105 18.1895C30.597 18.1895 30.8548 18.2539 31.084 18.3828C31.3132 18.5117 31.5208 18.6764 31.707 18.877C31.8932 19.0775 32.0579 19.2995 32.2012 19.543C32.3587 19.7721 32.5091 19.9941 32.6523 20.209C32.7383 20.3379 32.8457 20.5026 32.9746 20.7031C33.1035 20.9036 33.2324 21.1042 33.3613 21.3047C33.4902 21.4909 33.5977 21.6556 33.6836 21.7988C33.7839 21.9421 33.834 22.0137 33.834 22.0137L34.0918 22.293V20.0371C34.0918 19.321 34.0775 18.6263 34.0488 17.9531C34.0202 17.2656 34.0059 16.571 34.0059 15.8691C34.0059 15.6686 34.0775 15.5039 34.2207 15.375C34.3639 15.2461 34.5358 15.1888 34.7363 15.2031C34.9798 15.2318 35.1589 15.2747 35.2734 15.332C35.4023 15.3893 35.5312 15.5039 35.6602 15.6758C35.7747 15.8333 35.8249 16.0195 35.8105 16.2344C35.8105 16.4492 35.8177 16.6569 35.832 16.8574C35.8893 18.2181 35.9323 19.5788 35.9609 20.9395C36.0039 22.2858 36.0254 23.6393 36.0254 25C36.0111 25.1289 36.0039 25.3867 36.0039 25.7734C36.0039 26.1745 36.0039 26.6257 36.0039 27.127C36.0182 27.6283 36.0254 28.151 36.0254 28.6953C36.0397 29.2396 36.0469 29.7337 36.0469 30.1777C36.0612 30.6361 36.0684 31.0085 36.0684 31.2949C36.0827 31.5957 36.097 31.7389 36.1113 31.7246C36.1113 31.9395 36.0326 32.097 35.875 32.1973C35.7318 32.2975 35.5527 32.3477 35.3379 32.3477C35.0514 32.3477 34.8366 32.3047 34.6934 32.2188C34.5645 32.1471 34.4642 32.0397 34.3926 31.8965C34.321 31.7676 34.2708 31.6172 34.2422 31.4453C34.2135 31.2734 34.1634 31.0944 34.0918 30.9082ZM39.2051 18.7266C39.0046 18.7266 38.8255 18.7767 38.668 18.877C38.5104 18.9772 38.3242 19.0273 38.1094 19.0273C38.0807 19.0273 38.002 19.0273 37.873 19.0273C37.7585 19.013 37.6868 19.0059 37.6582 19.0059C37.6009 18.9342 37.5365 18.877 37.4648 18.834C37.3932 18.791 37.3216 18.748 37.25 18.7051C37.1784 18.6478 37.1139 18.5833 37.0566 18.5117C37.0137 18.4401 36.9922 18.3398 36.9922 18.2109C36.9922 17.9961 37.0781 17.8242 37.25 17.6953C37.4219 17.5521 37.6224 17.4303 37.8516 17.3301C38.0807 17.2298 38.3099 17.1367 38.5391 17.0508C38.7826 16.9648 38.9759 16.8646 39.1191 16.75V15.8047C39.1191 14.7448 39.069 13.6849 38.9688 12.625C38.8685 11.5508 38.8184 10.4909 38.8184 9.44531C38.8184 9.15885 38.89 8.97266 39.0332 8.88672C39.1764 8.80078 39.3698 8.75781 39.6133 8.75781C39.8997 8.75781 40.1074 8.84375 40.2363 9.01562C40.3796 9.17318 40.4798 9.3737 40.5371 9.61719C40.5944 9.84635 40.623 10.097 40.623 10.3691C40.623 10.627 40.6302 10.849 40.6445 11.0352C40.6445 11.2214 40.6589 11.5508 40.6875 12.0234C40.7161 12.4961 40.7448 12.9974 40.7734 13.5273C40.8021 14.0573 40.8307 14.5586 40.8594 15.0312C40.888 15.5039 40.9095 15.8333 40.9238 16.0195C40.9811 16.0052 41.0885 15.9694 41.2461 15.9121C41.418 15.8405 41.597 15.776 41.7832 15.7188C41.9694 15.6471 42.1413 15.5827 42.2988 15.5254C42.4707 15.4681 42.5924 15.4251 42.6641 15.3965C43.0365 15.2389 43.4232 15.0671 43.8242 14.8809C44.2253 14.6803 44.6335 14.5801 45.0488 14.5801C45.3353 14.5801 45.5501 14.6803 45.6934 14.8809C45.8509 15.0671 45.9297 15.2891 45.9297 15.5469C45.9297 15.7331 45.8581 15.8691 45.7148 15.9551C45.5716 16.041 45.4212 16.1198 45.2637 16.1914L41.3535 17.6523C41.3105 17.681 41.2676 17.7096 41.2246 17.7383C41.1816 17.7526 41.1387 17.7812 41.0957 17.8242V18.5117C41.0957 19.013 41.1029 19.5358 41.1172 20.0801C41.1458 20.61 41.196 21.1257 41.2676 21.627C41.3392 22.0566 41.418 22.4792 41.5039 22.8945C41.5898 23.3099 41.6328 23.7324 41.6328 24.1621C41.6328 24.291 41.5898 24.4629 41.5039 24.6777C41.418 24.8926 41.2819 25 41.0957 25C40.709 25 40.3939 24.8854 40.1504 24.6562C39.9069 24.4271 39.7708 24.1191 39.7422 23.7324C39.6706 22.9876 39.5918 22.1712 39.5059 21.2832C39.4342 20.3952 39.3626 19.543 39.291 18.7266H39.2051ZM46.9395 14.4941C46.9681 13.6348 46.9323 12.7754 46.832 11.916C46.7318 11.0566 46.6816 10.2044 46.6816 9.35938C46.6816 9.08724 46.7604 8.92253 46.918 8.86523C47.0755 8.79362 47.2546 8.75781 47.4551 8.75781C47.7415 8.75781 47.9779 8.83659 48.1641 8.99414C48.3503 9.15169 48.4577 9.3737 48.4863 9.66016C48.6152 11.2214 48.6868 12.7682 48.7012 14.3008C48.7298 15.819 48.8372 17.3587 49.0234 18.9199C49.4531 18.1035 49.8971 17.4303 50.3555 16.9004C50.8138 16.3704 51.2507 16.0195 51.666 15.8477C52.0957 15.6758 52.4824 15.7116 52.8262 15.9551C53.1842 16.1842 53.4707 16.6497 53.6855 17.3516C53.9004 18.0391 54.0293 18.9844 54.0723 20.1875C54.1152 21.3763 54.0436 22.8587 53.8574 24.6348C53.7572 24.6348 53.6354 24.6419 53.4922 24.6562C53.349 24.6562 53.2057 24.6491 53.0625 24.6348C52.9336 24.6204 52.819 24.5918 52.7188 24.5488C52.6185 24.5059 52.5612 24.4271 52.5469 24.3125C52.6615 23.2383 52.7259 22.3359 52.7402 21.6055C52.7546 20.875 52.7331 20.2734 52.6758 19.8008C52.6185 19.3281 52.5397 18.9701 52.4395 18.7266C52.3392 18.4688 52.2318 18.2826 52.1172 18.168C52.0026 18.0534 51.888 17.9961 51.7734 17.9961C51.6732 17.9818 51.5944 17.9818 51.5371 17.9961C51.222 18.1107 50.9212 18.39 50.6348 18.834C50.3626 19.278 50.1263 19.7936 49.9258 20.3809C49.7253 20.9681 49.5749 21.5911 49.4746 22.25C49.3887 22.8945 49.3672 23.4746 49.4102 23.9902C49.3958 24.1048 49.3815 24.2194 49.3672 24.334C49.3529 24.4486 49.3242 24.556 49.2812 24.6562C49.2526 24.7565 49.1953 24.8424 49.1094 24.9141C49.0378 24.9714 48.9232 25 48.7656 25C48.4648 25 48.2214 24.9499 48.0352 24.8496C47.8633 24.735 47.7272 24.5918 47.627 24.4199C47.541 24.248 47.4837 24.0475 47.4551 23.8184C47.4408 23.5892 47.4479 23.3529 47.4766 23.1094L46.9395 14.4941ZM55.0176 21.7129L55.8125 16.1914C55.8411 16.0052 55.9199 15.8691 56.0488 15.7832C56.1921 15.6973 56.3496 15.6543 56.5215 15.6543C56.8366 15.6543 57.0872 15.7474 57.2734 15.9336C57.4596 16.1055 57.6172 16.3203 57.7461 16.5781H57.7676C57.9395 16.5781 58.0898 16.5495 58.2188 16.4922C58.362 16.4206 58.5339 16.3848 58.7344 16.3848C59.1927 16.3848 59.5794 16.528 59.8945 16.8145C60.224 17.1009 60.4889 17.4518 60.6895 17.8672C60.89 18.2682 61.0332 18.7051 61.1191 19.1777C61.2194 19.6504 61.2695 20.0658 61.2695 20.4238C61.2695 20.8535 61.1549 21.3333 60.9258 21.8633C60.7109 22.3932 60.4173 22.8945 60.0449 23.3672C59.6868 23.8398 59.2786 24.2337 58.8203 24.5488C58.362 24.8639 57.8965 25.0215 57.4238 25.0215C56.9941 25.0215 56.6217 24.9212 56.3066 24.7207C56.0059 24.5202 55.7552 24.2695 55.5547 23.9688C55.3685 23.6536 55.2324 23.3027 55.1465 22.916C55.0605 22.5293 55.0176 22.1497 55.0176 21.7773V21.7129ZM56.8223 21.8418C56.8509 21.985 56.8796 22.1497 56.9082 22.3359C56.9368 22.5221 56.9798 22.694 57.0371 22.8516C57.0944 22.9948 57.1732 23.1094 57.2734 23.1953C57.388 23.2669 57.5456 23.2669 57.7461 23.1953C57.9323 23.0234 58.1328 22.8301 58.3477 22.6152C58.5625 22.4004 58.763 22.1712 58.9492 21.9277C59.1497 21.6842 59.3145 21.4264 59.4434 21.1543C59.5723 20.8822 59.6367 20.5957 59.6367 20.2949C59.694 19.8079 59.6582 19.3639 59.5293 18.9629C59.4004 18.5475 59.2142 18.2539 58.9707 18.082C58.7415 17.8958 58.4766 17.8743 58.1758 18.0176C57.875 18.1465 57.5742 18.5117 57.2734 19.1133C57.1016 19.4857 56.9798 19.9225 56.9082 20.4238C56.8509 20.9108 56.8223 21.362 56.8223 21.7773V21.8418ZM68.3379 24.2695C68.1374 23.9831 67.9655 23.5892 67.8223 23.0879C67.6934 22.5723 67.5645 22.0352 67.4355 21.4766C67.321 20.9036 67.2135 20.3522 67.1133 19.8223C67.013 19.278 66.9056 18.8483 66.791 18.5332C66.6908 18.2038 66.5762 18.0176 66.4473 17.9746C66.3184 17.9316 66.168 18.125 65.9961 18.5547L64.127 24.3125C64.0553 24.513 63.9694 24.6562 63.8691 24.7422C63.7689 24.8138 63.6042 24.8496 63.375 24.8496C63.2604 24.8496 63.1387 24.8353 63.0098 24.8066C62.8809 24.7637 62.7591 24.7064 62.6445 24.6348C62.5299 24.5632 62.4297 24.4772 62.3438 24.377C62.2721 24.2767 62.2292 24.1621 62.2148 24.0332C62.2578 23.8613 62.2936 23.5462 62.3223 23.0879C62.3652 22.6296 62.3939 22.0996 62.4082 21.498C62.4225 20.8965 62.4297 20.2663 62.4297 19.6074C62.444 18.9342 62.444 18.3112 62.4297 17.7383C62.4297 17.151 62.4225 16.6497 62.4082 16.2344C62.3939 15.8047 62.3796 15.5254 62.3652 15.3965C62.3652 15.2533 62.3652 15.11 62.3652 14.9668C62.3796 14.8092 62.401 14.666 62.4297 14.5371C62.4727 14.4082 62.5371 14.3079 62.623 14.2363C62.7233 14.1504 62.8737 14.1074 63.0742 14.1074C63.3464 14.1074 63.597 14.222 63.8262 14.4512C64.0697 14.6803 64.1914 14.9238 64.1914 15.1816C64.1914 15.554 64.1699 15.9264 64.127 16.2988C64.0983 16.6569 64.084 17.0221 64.084 17.3945C64.084 17.6237 64.084 17.8171 64.084 17.9746C64.084 18.1322 64.1126 18.3255 64.1699 18.5547C64.2129 18.4401 64.2845 18.2396 64.3848 17.9531C64.485 17.6667 64.5924 17.3659 64.707 17.0508C64.8359 16.7357 64.9505 16.4421 65.0508 16.1699C65.151 15.8835 65.2227 15.6829 65.2656 15.5684C65.3659 15.2819 65.5163 15.0098 65.7168 14.752C65.9173 14.4798 66.1823 14.3294 66.5117 14.3008C66.7266 14.2865 66.9199 14.3438 67.0918 14.4727C67.278 14.6016 67.4355 14.7734 67.5645 14.9883C67.6934 15.1888 67.8008 15.4036 67.8867 15.6328C67.9727 15.8477 68.0371 16.0339 68.0801 16.1914L69.2402 21.541L70.1426 23.9902C70.1569 24.0046 70.1641 24.0475 70.1641 24.1191C70.1641 24.1764 70.1641 24.2194 70.1641 24.248C70.1641 24.4199 70.1211 24.5918 70.0352 24.7637C69.9635 24.9212 69.8275 25 69.627 25C69.3835 25 69.1328 24.9355 68.875 24.8066C68.6172 24.6634 68.4382 24.4844 68.3379 24.2695Z" fill="black"/>
<defs>
<filter id="filter0_i_4581_2469" x="1.95215" y="1.96155" width="84.5928" height="33.5385" filterUnits="userSpaceOnUse" color-interpolation-filters="sRGB">
<feFlood flood-opacity="0" result="BackgroundImageFix"/>
<feBlend mode="normal" in="SourceGraphic" in2="BackgroundImageFix" result="shape"/>
<feColorMatrix in="SourceAlpha" type="matrix" values="0 0 0 0 0 0 0 0 0 0 0 0 0 0 0 0 0 0 127 0" result="hardAlpha"/>
<feOffset dx="4" dy="4"/>
<feComposite in2="hardAlpha" operator="arithmetic" k2="-1" k3="1"/>
<feColorMatrix type="matrix" values="0 0 0 0 0.694118 0 0 0 0 0.721569 0 0 0 0 0.741176 0 0 0 1 0"/>
<feBlend mode="multiply" in2="shape" result="effect1_innerShadow_4581_2469"/>
</filter>
</defs>
</svg>
