<svg width="88" height="37" viewBox="0 0 88 37" fill="none" xmlns="http://www.w3.org/2000/svg">
<g filter="url(#filter0_i_4585_2639)">
<path d="M82.0216 7.61228C85.541 11.6933 85.541 20.3656 85.541 20.3656C85.7307 28.2124 79.2761 34.5 71.0197 34.5C71.0198 31.5523 71.0195 2.00081 71.0195 2.00081C74.1629 1.66061 78.5022 3.53121 82.0216 7.61228Z" fill="white"/>
<path d="M18.7676 2H71.0195V34.5C71.0195 34.5 63.2689 34.2049 54.7048 34.5C49.9262 34.6647 39.8932 35.5 36.3042 35.5C26.2833 35.5 18.7676 34.5 18.7676 34.5V2Z" fill="white"/>
<path d="M5.14517 27.9432C0.335274 22.3612 1.47845 11.5 5.14549 8C8.81252 4.5 8.60485 4.5 11.9565 3.5C15.3082 2.5 18.7674 2 18.7674 2V34.5C13.1929 34.5 9.95507 33.5252 5.14517 27.9432Z" fill="white"/>
</g>
<path d="M18.7676 34.5C27.2454 34.5 26.9561 35 35.4294 35C43.9072 35 44.9288 34.4063 53.4066 34.4063C61.8844 34.4063 59.3983 34 67.8761 34" stroke="black" stroke-width="3" stroke-miterlimit="10" stroke-linecap="round" stroke-linejoin="round"/>
<path d="M2.00244 17.5C2.00244 7 9.6485 2 18.555 2C11.2202 2 2.52635 8 2.52635 17.5C2.52635 31.5 14.5763 34.5 18.2437 34.5C10.385 34.5 2.00244 28 2.00244 17.5Z" stroke="black" stroke-width="3" stroke-linecap="round" stroke-linejoin="round"/>
<path d="M86 19C86 29.5 76.7824 34 67.8759 34C75.2107 34 84.33 30.5 85.165 20.5C86.3303 6.54422 75.7346 2 69.7587 1.99999C77.6174 2 86 8.49998 86 19Z" stroke="black" stroke-width="3" stroke-linecap="round" stroke-linejoin="round"/>
<path d="M18.7676 2C27.3766 2 26.4861 2 35.0905 2C43.6995 2 43.7257 1.5 52.3347 1.5C60.9437 1.5 61.3627 2.00001 69.9717 2.00001" stroke="black" stroke-width="3" stroke-miterlimit="10" stroke-linecap="round" stroke-linejoin="round"/>
<path d="M19.6328 20.0156C19.5469 19.8294 19.4753 19.679 19.418 19.5645C19.375 19.4499 19.3535 19.3138 19.3535 19.1562C19.3535 19.0273 19.3678 18.9128 19.3965 18.8125C19.4395 18.6979 19.4609 18.5762 19.4609 18.4473C19.4609 18.1322 19.4466 17.8385 19.418 17.5664C19.4036 17.2943 19.3822 16.9935 19.3535 16.6641C19.3392 16.6211 19.2891 16.5853 19.2031 16.5566C19.1172 16.528 19.0241 16.4922 18.9238 16.4492C18.8236 16.3919 18.7305 16.3132 18.6445 16.2129C18.5729 16.1126 18.5371 15.9694 18.5371 15.7832C18.5371 15.6113 18.5729 15.4681 18.6445 15.3535C18.7305 15.2246 18.8164 15.11 18.9023 15.0098C18.9883 14.8952 19.0671 14.7806 19.1387 14.666C19.2246 14.5371 19.2676 14.3867 19.2676 14.2148C19.2676 14.1432 19.2604 14.0143 19.2461 13.8281C19.2318 13.6276 19.2174 13.4199 19.2031 13.2051C19.2031 12.9902 19.196 12.7897 19.1816 12.6035C19.1816 12.403 19.1816 12.2669 19.1816 12.1953V12.1523V12.1094C19.2389 11.9805 19.2819 11.873 19.3105 11.7871C19.3535 11.7012 19.3965 11.6367 19.4395 11.5938C19.4824 11.5508 19.5397 11.5221 19.6113 11.5078C19.6829 11.4792 19.776 11.4648 19.8906 11.4648C20.1914 11.4648 20.4134 11.5221 20.5566 11.6367C20.6999 11.7513 20.8001 11.8874 20.8574 12.0449C20.9147 12.1882 20.9505 12.3242 20.9648 12.4531C20.9792 12.582 21.015 12.6536 21.0723 12.668L22.6191 11.3145H22.7051C23.2064 10.985 23.7363 10.7344 24.2949 10.5625C24.8535 10.3763 25.4408 10.2832 26.0566 10.2832C26.2428 10.2832 26.4648 10.3047 26.7227 10.3477C26.9948 10.3906 27.2454 10.4694 27.4746 10.584C27.7181 10.6842 27.9186 10.8203 28.0762 10.9922C28.248 11.1641 28.334 11.3789 28.334 11.6367C28.334 11.9232 28.2982 12.2168 28.2266 12.5176C28.1549 12.8184 28.0547 13.1191 27.9258 13.4199C27.8112 13.7064 27.668 13.9857 27.4961 14.2578C27.3385 14.5156 27.1667 14.7376 26.9805 14.9238C26.9089 15.0814 26.4505 15.4824 25.6055 16.127C24.7604 16.7715 23.5 17.7311 21.8242 19.0059L32.1367 19.6504C32.2799 19.6647 32.4733 19.679 32.7168 19.6934C32.9746 19.6934 33.2181 19.7148 33.4473 19.7578C33.6908 19.8008 33.8984 19.8867 34.0703 20.0156C34.2422 20.1302 34.3281 20.3092 34.3281 20.5527C34.3281 20.6816 34.3066 20.7891 34.2637 20.875C34.235 20.9466 34.1921 21.0111 34.1348 21.0684C34.0918 21.1113 34.0345 21.1543 33.9629 21.1973C33.9056 21.2402 33.8483 21.2975 33.791 21.3691H33.4258H33.0605C32.7741 21.3405 32.4733 21.3047 32.1582 21.2617C31.8574 21.2188 31.4993 21.1686 31.084 21.1113C30.6829 21.054 30.2103 20.9967 29.666 20.9395C29.1217 20.8822 28.4701 20.832 27.7109 20.7891C26.9518 20.7461 26.0638 20.7103 25.0469 20.6816C24.0443 20.653 22.877 20.6387 21.5449 20.6387C21.5306 20.6387 21.5091 20.6602 21.4805 20.7031C21.4661 20.7461 21.459 20.7819 21.459 20.8105C21.459 21.3548 21.502 21.8919 21.5879 22.4219C21.6882 22.9375 21.7383 23.4531 21.7383 23.9688C21.7383 24.069 21.724 24.1836 21.6953 24.3125C21.681 24.4271 21.6452 24.5417 21.5879 24.6562C21.5306 24.7565 21.459 24.8424 21.373 24.9141C21.2871 24.9857 21.1797 25.0215 21.0508 25.0215C20.9648 25.0215 20.8646 25.0072 20.75 24.9785C20.6354 24.9355 20.5208 24.8783 20.4062 24.8066C20.306 24.735 20.2129 24.6562 20.127 24.5703C20.041 24.4844 19.9909 24.3841 19.9766 24.2695L19.6328 20.0156ZM21.0723 15.2676C21.0723 15.6257 21.0794 15.9622 21.0938 16.2773C21.1081 16.5924 21.1296 16.9362 21.1582 17.3086H21.2227C21.237 17.3086 21.2728 17.2943 21.3301 17.2656C21.3874 17.237 21.5306 17.151 21.7598 17.0078C21.9889 16.8503 22.3398 16.6139 22.8125 16.2988C23.2852 15.9694 23.9512 15.5111 24.8105 14.9238C24.9824 14.8236 25.1686 14.6517 25.3691 14.4082C25.5697 14.1647 25.7559 13.8997 25.9277 13.6133C26.0996 13.3268 26.2428 13.0475 26.3574 12.7754C26.472 12.4889 26.5293 12.2526 26.5293 12.0664C26.5293 11.9232 26.4577 11.8516 26.3145 11.8516C26.1855 11.8516 26.071 11.8516 25.9707 11.8516C25.7559 11.8516 25.5124 11.8874 25.2402 11.959C24.9681 12.0306 24.6387 12.1738 24.252 12.3887C23.8796 12.6035 23.4284 12.9115 22.8984 13.3125C22.3828 13.7135 21.7741 14.2507 21.0723 14.9238V15.2676ZM43.9746 18.8984C43.946 19.1562 43.9102 19.3568 43.8672 19.5C43.8385 19.6432 43.7812 19.7721 43.6953 19.8867C43.6094 20.0013 43.4876 20.123 43.3301 20.252C43.1725 20.3665 42.9577 20.5384 42.6855 20.7676C42.4134 20.9824 42.0768 21.2689 41.6758 21.627C41.2747 21.985 40.7878 22.4505 40.2148 23.0234C39.9857 23.2383 39.7493 23.4603 39.5059 23.6895C39.2624 23.9186 39.0046 24.1263 38.7324 24.3125C38.4746 24.4844 38.2025 24.6276 37.916 24.7422C37.6296 24.8568 37.3288 24.9141 37.0137 24.9141C36.3978 24.9141 35.9466 24.7064 35.6602 24.291C35.3737 23.8757 35.2305 23.3958 35.2305 22.8516C35.2305 22.4935 35.2376 22.1927 35.252 21.9492C35.2806 21.7057 35.3379 21.3906 35.4238 21.0039C35.2663 20.8607 35.1302 20.7389 35.0156 20.6387C34.901 20.5241 34.8438 20.3737 34.8438 20.1875C34.8438 20.0156 34.8796 19.901 34.9512 19.8438C35.0371 19.7865 35.1302 19.7507 35.2305 19.7363C35.3451 19.7077 35.4525 19.679 35.5527 19.6504C35.653 19.6217 35.7246 19.5645 35.7676 19.4785C35.7962 19.3926 35.8464 19.235 35.918 19.0059C36.0039 18.7767 36.0898 18.5404 36.1758 18.2969C36.2617 18.0391 36.3405 17.8027 36.4121 17.5879C36.498 17.3587 36.5553 17.2012 36.584 17.1152C36.6842 16.8717 36.7917 16.6283 36.9062 16.3848C37.0352 16.127 37.1784 15.8978 37.3359 15.6973C37.5078 15.4967 37.7012 15.332 37.916 15.2031C38.1452 15.0742 38.4102 15.0098 38.7109 15.0098C38.8828 15.0098 39.0905 15.0885 39.334 15.2461C39.5918 15.4036 39.8353 15.597 40.0645 15.8262C40.2936 16.041 40.487 16.2702 40.6445 16.5137C40.8021 16.7572 40.8809 16.9648 40.8809 17.1367C40.8809 17.3516 40.8307 17.5521 40.7305 17.7383C40.6302 17.9102 40.5013 18.0749 40.3438 18.2324C40.2005 18.3757 40.043 18.5117 39.8711 18.6406C39.6992 18.7695 39.5417 18.8913 39.3984 19.0059C39.3841 19.0059 39.3555 19.0202 39.3125 19.0488C39.2695 19.0775 39.2337 19.099 39.2051 19.1133C39.1908 19.1276 39.1549 19.1634 39.0977 19.2207C39.0547 19.2637 39.0046 19.3138 38.9473 19.3711C38.89 19.4284 38.8327 19.4857 38.7754 19.543C38.7324 19.6003 38.7038 19.6361 38.6895 19.6504C38.6465 19.6934 38.5605 19.765 38.4316 19.8652C38.3171 19.9512 38.1882 20.0514 38.0449 20.166C37.9017 20.2663 37.7656 20.3665 37.6367 20.4668C37.5221 20.5527 37.4434 20.61 37.4004 20.6387L37.3145 20.8105C37.2858 20.8678 37.2572 20.9967 37.2285 21.1973C37.2142 21.3835 37.1927 21.5983 37.1641 21.8418C37.1354 22.0853 37.1068 22.3359 37.0781 22.5938C37.0638 22.8372 37.0566 23.0378 37.0566 23.1953C37.0566 23.2096 37.0638 23.224 37.0781 23.2383C37.1068 23.2669 37.1283 23.2812 37.1426 23.2812C37.2572 23.2812 37.3646 23.2311 37.4648 23.1309C37.5651 23.0306 37.6725 22.959 37.7871 22.916L41.2246 19.7363L42.1055 18.3828C42.1771 18.2826 42.3132 18.1751 42.5137 18.0605C42.7285 17.9316 42.9434 17.8672 43.1582 17.8672C43.373 17.8529 43.5592 17.9173 43.7168 18.0605C43.8887 18.2038 43.9746 18.4831 43.9746 18.8984ZM39.248 17.2227C39.3197 17.1654 39.3483 17.0794 39.334 16.9648C39.3197 16.8503 39.2767 16.75 39.2051 16.6641C39.1478 16.5781 39.069 16.528 38.9688 16.5137C38.8685 16.485 38.7754 16.5352 38.6895 16.6641C38.6465 16.7214 38.5677 16.8359 38.4531 17.0078C38.3529 17.1797 38.2454 17.3587 38.1309 17.5449C38.0306 17.7168 37.9447 17.8672 37.873 17.9961C37.8014 18.125 37.7871 18.1751 37.8301 18.1465L39.248 17.2227ZM49.5605 19.0059C49.4316 19.235 49.2812 19.5143 49.1094 19.8438C48.9518 20.1589 48.7799 20.5026 48.5938 20.875C48.4076 21.2331 48.1999 21.5983 47.9707 21.9707C47.7559 22.3288 47.5267 22.6582 47.2832 22.959C47.054 23.2598 46.8105 23.5176 46.5527 23.7324C46.2949 23.9329 46.0299 24.0547 45.7578 24.0977C45.6432 24.0977 45.5143 24.0905 45.3711 24.0762C45.2279 24.0475 45.0846 24.0117 44.9414 23.9688C44.7982 23.9115 44.6764 23.8398 44.5762 23.7539C44.4902 23.6536 44.4473 23.5247 44.4473 23.3672C44.4616 21.9062 44.569 20.5814 44.7695 19.3926C44.9701 18.1895 45.2852 17.1367 45.7148 16.2344C46.1445 15.3177 46.696 14.5586 47.3691 13.957C48.0423 13.3555 48.8587 12.9258 49.8184 12.668C49.847 12.668 49.8971 12.668 49.9688 12.668C50.0547 12.6536 50.112 12.6465 50.1406 12.6465C50.5703 12.6322 50.8783 12.8327 51.0645 13.248C51.265 13.6491 51.4082 14.2936 51.4941 15.1816C51.5944 16.0553 51.6589 17.1868 51.6875 18.5762C51.7305 19.9512 51.8092 21.6055 51.9238 23.5391C51.9668 23.6966 51.9883 23.8327 51.9883 23.9473C52.0026 24.0618 52.0098 24.1979 52.0098 24.3555C52.0098 24.5703 51.9453 24.735 51.8164 24.8496C51.6875 24.9499 51.5228 25 51.3223 25C50.9069 25 50.6133 24.8854 50.4414 24.6562C50.2695 24.4271 50.1549 24.1191 50.0977 23.7324C50.0977 23.7181 50.0833 23.6035 50.0547 23.3887C50.0404 23.1738 50.0117 22.9303 49.9688 22.6582C49.9401 22.3717 49.9115 22.0853 49.8828 21.7988C49.8542 21.5124 49.8327 21.276 49.8184 21.0898V21.0039C49.7897 20.8607 49.7682 20.6816 49.7539 20.4668C49.7539 20.252 49.7396 20.0443 49.7109 19.8438C49.6823 19.6003 49.6608 19.3568 49.6465 19.1133L49.5605 19.0059ZM49.0879 14.752C48.7012 15.0384 48.3216 15.4251 47.9492 15.9121C47.5768 16.3991 47.3118 16.8717 47.1543 17.3301C47.0827 17.5449 47.0039 17.8385 46.918 18.2109C46.832 18.5833 46.7533 18.9557 46.6816 19.3281C46.6243 19.6862 46.5742 20.0228 46.5312 20.3379C46.4883 20.6387 46.4668 20.832 46.4668 20.918C46.4811 20.918 46.4954 20.9036 46.5098 20.875C46.5384 20.8464 46.5599 20.8249 46.5742 20.8105C47.4622 19.9512 48.0853 19.0273 48.4434 18.0391C48.8158 17.0365 49.0306 15.9408 49.0879 14.752ZM53.127 22.4219C53.0267 21.9922 53.0267 21.4837 53.127 20.8965C53.2415 20.3092 53.4134 19.722 53.6426 19.1348C53.8861 18.5332 54.1797 17.9674 54.5234 17.4375C54.8815 16.9076 55.2539 16.485 55.6406 16.1699C56.0417 15.8548 56.4427 15.6829 56.8438 15.6543C57.2591 15.6113 57.653 15.7904 58.0254 16.1914C58.0254 16.2057 58.0326 16.2415 58.0469 16.2988C58.0612 16.3561 58.0755 16.4779 58.0898 16.6641C58.1042 16.8359 58.1113 17.0866 58.1113 17.416C58.1257 17.7311 58.1328 18.168 58.1328 18.7266C58.1471 18.7552 58.1615 18.8053 58.1758 18.877C58.2044 18.9342 58.2188 18.9772 58.2188 19.0059C58.1758 19.1634 58.0898 19.3138 57.9609 19.457C57.8464 19.5859 57.696 19.6504 57.5098 19.6504C57.2663 19.6504 57.0658 19.6146 56.9082 19.543C56.765 19.457 56.6576 19.2637 56.5859 18.9629C56.6146 18.9199 56.6217 18.834 56.6074 18.7051C56.5931 18.5618 56.5645 18.4043 56.5215 18.2324C56.4928 18.0605 56.4642 17.8887 56.4355 17.7168C56.4069 17.5449 56.3926 17.4089 56.3926 17.3086C56.3783 17.3086 56.3568 17.3229 56.3281 17.3516C56.3138 17.3659 56.2995 17.3802 56.2852 17.3945C56.0417 17.8242 55.8125 18.304 55.5977 18.834C55.3971 19.3496 55.2396 19.8796 55.125 20.4238C55.0247 20.9538 54.9889 21.4837 55.0176 22.0137C55.0605 22.5436 55.2181 23.0234 55.4902 23.4531C55.6908 23.4531 55.877 23.3743 56.0488 23.2168C56.2207 23.0449 56.3639 22.8874 56.4785 22.7441C56.722 22.4577 56.9583 22.1641 57.1875 21.8633C57.431 21.5625 57.653 21.2474 57.8535 20.918C57.9395 20.7747 58.0039 20.6458 58.0469 20.5312C58.0898 20.4167 58.14 20.3236 58.1973 20.252C58.2689 20.1803 58.3548 20.123 58.4551 20.0801C58.5553 20.0371 58.7057 20.0156 58.9062 20.0156C59.1354 20.0156 59.3503 20.0729 59.5508 20.1875C59.7513 20.2878 59.8516 20.4596 59.8516 20.7031C59.8516 21.0326 59.7012 21.4479 59.4004 21.9492C59.1139 22.4362 58.7559 22.9089 58.3262 23.3672C57.9108 23.8255 57.4668 24.2194 56.9941 24.5488C56.5215 24.8639 56.1061 25.0215 55.748 25.0215C55.4043 25.0215 55.0677 24.957 54.7383 24.8281C54.4232 24.6849 54.1439 24.4987 53.9004 24.2695C53.6712 24.0404 53.485 23.7682 53.3418 23.4531C53.1986 23.138 53.127 22.7943 53.127 22.4219ZM62.7949 18.7266C62.5944 18.7266 62.4154 18.7767 62.2578 18.877C62.1003 18.9772 61.9141 19.0273 61.6992 19.0273C61.6706 19.0273 61.5918 19.0273 61.4629 19.0273C61.3483 19.013 61.2767 19.0059 61.248 19.0059C61.1908 18.9342 61.1263 18.877 61.0547 18.834C60.9831 18.791 60.9115 18.748 60.8398 18.7051C60.7682 18.6478 60.7038 18.5833 60.6465 18.5117C60.6035 18.4401 60.582 18.3398 60.582 18.2109C60.582 17.9961 60.668 17.8242 60.8398 17.6953C61.0117 17.5521 61.2122 17.4303 61.4414 17.3301C61.6706 17.2298 61.8997 17.1367 62.1289 17.0508C62.3724 16.9648 62.5658 16.8646 62.709 16.75V15.8047C62.709 14.7448 62.6589 13.6849 62.5586 12.625C62.4583 11.5508 62.4082 10.4909 62.4082 9.44531C62.4082 9.15885 62.4798 8.97266 62.623 8.88672C62.7663 8.80078 62.9596 8.75781 63.2031 8.75781C63.4896 8.75781 63.6973 8.84375 63.8262 9.01562C63.9694 9.17318 64.0697 9.3737 64.127 9.61719C64.1842 9.84635 64.2129 10.097 64.2129 10.3691C64.2129 10.627 64.2201 10.849 64.2344 11.0352C64.2344 11.2214 64.2487 11.5508 64.2773 12.0234C64.306 12.4961 64.3346 12.9974 64.3633 13.5273C64.3919 14.0573 64.4206 14.5586 64.4492 15.0312C64.4779 15.5039 64.4993 15.8333 64.5137 16.0195C64.571 16.0052 64.6784 15.9694 64.8359 15.9121C65.0078 15.8405 65.1868 15.776 65.373 15.7188C65.5592 15.6471 65.7311 15.5827 65.8887 15.5254C66.0605 15.4681 66.1823 15.4251 66.2539 15.3965C66.6263 15.2389 67.013 15.0671 67.4141 14.8809C67.8151 14.6803 68.2233 14.5801 68.6387 14.5801C68.9251 14.5801 69.14 14.6803 69.2832 14.8809C69.4408 15.0671 69.5195 15.2891 69.5195 15.5469C69.5195 15.7331 69.4479 15.8691 69.3047 15.9551C69.1615 16.041 69.0111 16.1198 68.8535 16.1914L64.9434 17.6523C64.9004 17.681 64.8574 17.7096 64.8145 17.7383C64.7715 17.7526 64.7285 17.7812 64.6855 17.8242V18.5117C64.6855 19.013 64.6927 19.5358 64.707 20.0801C64.7357 20.61 64.7858 21.1257 64.8574 21.627C64.929 22.0566 65.0078 22.4792 65.0938 22.8945C65.1797 23.3099 65.2227 23.7324 65.2227 24.1621C65.2227 24.291 65.1797 24.4629 65.0938 24.6777C65.0078 24.8926 64.8717 25 64.6855 25C64.2988 25 63.9837 24.8854 63.7402 24.6562C63.4967 24.4271 63.3607 24.1191 63.332 23.7324C63.2604 22.9876 63.1816 22.1712 63.0957 21.2832C63.0241 20.3952 62.9525 19.543 62.8809 18.7266H62.7949Z" fill="black"/>
<defs>
<filter id="filter0_i_4585_2639" x="1.95215" y="1.96155" width="83.5928" height="33.5385" filterUnits="userSpaceOnUse" color-interpolation-filters="sRGB">
<feFlood flood-opacity="0" result="BackgroundImageFix"/>
<feBlend mode="normal" in="SourceGraphic" in2="BackgroundImageFix" result="shape"/>
<feColorMatrix in="SourceAlpha" type="matrix" values="0 0 0 0 0 0 0 0 0 0 0 0 0 0 0 0 0 0 127 0" result="hardAlpha"/>
<feOffset dx="4" dy="4"/>
<feComposite in2="hardAlpha" operator="arithmetic" k2="-1" k3="1"/>
<feColorMatrix type="matrix" values="0 0 0 0 0.694118 0 0 0 0 0.721569 0 0 0 0 0.741176 0 0 0 1 0"/>
<feBlend mode="multiply" in2="shape" result="effect1_innerShadow_4585_2639"/>
</filter>
</defs>
</svg>
