<svg width="205" height="37" viewBox="0 0 205 37" fill="none" xmlns="http://www.w3.org/2000/svg">
<g filter="url(#filter0_i_4598_1930)">
<path d="M199.022 7.61228C202.541 11.6933 202.541 20.3656 202.541 20.3656C202.731 28.2124 196.276 34.5 188.02 34.5C188.02 31.5523 188.02 2.00081 188.02 2.00081C191.163 1.66061 195.502 3.53121 199.022 7.61228Z" fill="#FEDDC6"/>
<path d="M18.7676 2H188.02V34.5C188.02 34.5 162.914 34.2049 135.174 34.5C119.695 34.6647 87.1965 35.5 75.5713 35.5C43.112 35.5 18.7676 34.5 18.7676 34.5V2Z" fill="#FEDDC6"/>
<path d="M5.14517 27.9432C0.335274 22.3612 1.47845 11.5 5.14549 8C8.81252 4.5 8.60485 4.5 11.9565 3.5C15.3082 2.5 18.7674 2 18.7674 2V34.5C13.1929 34.5 9.95507 33.5252 5.14517 27.9432Z" fill="#FEDDC6"/>
</g>
<path d="M18.7676 34.5C47.4436 34.5 46.465 35 75.1258 35C103.802 35 107.257 34.4063 135.933 34.4063C164.609 34.4063 156.2 34 184.876 34" stroke="black" stroke-width="3" stroke-miterlimit="10" stroke-linecap="round" stroke-linejoin="round"/>
<path d="M2.00244 17.5C2.00244 7 9.6485 2 18.555 2C11.2202 2 2.52635 8 2.52635 17.5C2.52635 31.5 14.5763 34.5 18.2437 34.5C10.385 34.5 2.00244 28 2.00244 17.5Z" stroke="black" stroke-width="3" stroke-linecap="round" stroke-linejoin="round"/>
<path d="M203 19C203 29.5 193.782 34 184.876 34C192.211 34 201.33 30.5 202.165 20.5C203.33 6.54422 192.735 2 186.759 1.99999C194.617 2 203 8.49998 203 19Z" stroke="black" stroke-width="3" stroke-linecap="round" stroke-linejoin="round"/>
<path d="M18.7676 2C47.0479 2 44.1226 2 72.3879 2C100.668 2 100.754 1.5 129.035 1.5C157.315 1.5 158.691 2.00001 186.972 2.00001" stroke="black" stroke-width="3" stroke-miterlimit="10" stroke-linecap="round" stroke-linejoin="round"/>
<path d="M21.7168 24.2266C21.946 23.9115 22.1966 23.6751 22.4688 23.5176C22.7552 23.36 23.0417 23.2311 23.3281 23.1309C23.6289 23.0306 23.9225 22.9375 24.209 22.8516C24.5098 22.7513 24.8034 22.5938 25.0898 22.3789C25.2474 22.293 25.4694 22.1641 25.7559 21.9922C26.0423 21.8203 26.3216 21.6341 26.5938 21.4336C26.8802 21.2188 27.1237 21.0111 27.3242 20.8105C27.5391 20.61 27.6465 20.4382 27.6465 20.2949C27.6465 20.2806 27.6393 20.2734 27.625 20.2734C27.5964 20.2734 27.582 20.2663 27.582 20.252L27.5391 20.209C27.4674 20.1803 27.3529 20.1445 27.1953 20.1016C27.0378 20.0586 26.9447 20.0299 26.916 20.0156C25.0684 19.8008 23.5788 19.6146 22.4473 19.457C21.3301 19.2852 20.4635 19.1061 19.8477 18.9199C19.2461 18.7337 18.8451 18.5189 18.6445 18.2754C18.444 18.0319 18.3438 17.724 18.3438 17.3516C18.3438 17.2083 18.3724 17.0508 18.4297 16.8789C18.487 16.707 18.5514 16.5352 18.623 16.3633C18.709 16.1914 18.7949 16.0339 18.8809 15.8906C18.9668 15.7474 19.0456 15.6328 19.1172 15.5469C19.3464 15.2604 19.6471 15.0026 20.0195 14.7734C20.3919 14.5443 20.793 14.3438 21.2227 14.1719C21.6523 14 22.082 13.8496 22.5117 13.7207C22.9557 13.5918 23.3568 13.4772 23.7148 13.377C24.1159 13.3483 24.5169 13.2552 24.918 13.0977C25.3333 12.9258 25.7415 12.8112 26.1426 12.7539C26.3431 12.7539 26.5078 12.8327 26.6367 12.9902C26.7656 13.1478 26.8301 13.3125 26.8301 13.4844C26.8301 13.7279 26.7799 13.9141 26.6797 14.043C26.5938 14.1576 26.472 14.2507 26.3145 14.3223C26.1712 14.3796 26.0065 14.4297 25.8203 14.4727C25.6341 14.5013 25.4479 14.5371 25.2617 14.5801C25.1471 14.6087 24.9896 14.6517 24.7891 14.709C24.5885 14.752 24.388 14.8021 24.1875 14.8594C23.987 14.9167 23.8079 14.9668 23.6504 15.0098C23.4928 15.0527 23.3997 15.0814 23.3711 15.0957C22.9271 15.2819 22.5046 15.4609 22.1035 15.6328C21.7168 15.7904 21.373 15.9551 21.0723 16.127C20.7858 16.2988 20.5566 16.485 20.3848 16.6855C20.2272 16.8717 20.1556 17.0794 20.1699 17.3086V17.3301C20.3132 17.5306 20.6354 17.681 21.1367 17.7812C21.638 17.8815 22.2253 17.9674 22.8984 18.0391C23.5859 18.1107 24.3021 18.1823 25.0469 18.2539C25.806 18.3255 26.5007 18.4329 27.1309 18.5762C27.7611 18.7194 28.2839 18.9128 28.6992 19.1562C29.1146 19.3997 29.3294 19.7292 29.3438 20.1445C29.3438 20.3021 29.3079 20.4883 29.2363 20.7031C29.179 20.918 29.0931 21.0827 28.9785 21.1973C28.6204 21.5983 28.1908 22.0137 27.6895 22.4434C27.2025 22.873 26.6725 23.2741 26.0996 23.6465C25.5267 24.0046 24.9323 24.3125 24.3164 24.5703C23.7148 24.8138 23.1204 24.957 22.5332 25C22.3327 25 22.1465 24.9284 21.9746 24.7852C21.8027 24.6276 21.7168 24.4414 21.7168 24.2266ZM30.3535 21.7129L31.1484 16.1914C31.1771 16.0052 31.2559 15.8691 31.3848 15.7832C31.528 15.6973 31.6855 15.6543 31.8574 15.6543C32.1725 15.6543 32.4232 15.7474 32.6094 15.9336C32.7956 16.1055 32.9531 16.3203 33.082 16.5781H33.1035C33.2754 16.5781 33.4258 16.5495 33.5547 16.4922C33.6979 16.4206 33.8698 16.3848 34.0703 16.3848C34.5286 16.3848 34.9154 16.528 35.2305 16.8145C35.5599 17.1009 35.8249 17.4518 36.0254 17.8672C36.2259 18.2682 36.3691 18.7051 36.4551 19.1777C36.5553 19.6504 36.6055 20.0658 36.6055 20.4238C36.6055 20.8535 36.4909 21.3333 36.2617 21.8633C36.0469 22.3932 35.7533 22.8945 35.3809 23.3672C35.0228 23.8398 34.6146 24.2337 34.1562 24.5488C33.6979 24.8639 33.2324 25.0215 32.7598 25.0215C32.3301 25.0215 31.9577 24.9212 31.6426 24.7207C31.3418 24.5202 31.0911 24.2695 30.8906 23.9688C30.7044 23.6536 30.5684 23.3027 30.4824 22.916C30.3965 22.5293 30.3535 22.1497 30.3535 21.7773V21.7129ZM32.1582 21.8418C32.1868 21.985 32.2155 22.1497 32.2441 22.3359C32.2728 22.5221 32.3158 22.694 32.373 22.8516C32.4303 22.9948 32.5091 23.1094 32.6094 23.1953C32.724 23.2669 32.8815 23.2669 33.082 23.1953C33.2682 23.0234 33.4688 22.8301 33.6836 22.6152C33.8984 22.4004 34.099 22.1712 34.2852 21.9277C34.4857 21.6842 34.6504 21.4264 34.7793 21.1543C34.9082 20.8822 34.9727 20.5957 34.9727 20.2949C35.0299 19.8079 34.9941 19.3639 34.8652 18.9629C34.7363 18.5475 34.5501 18.2539 34.3066 18.082C34.0775 17.8958 33.8125 17.8743 33.5117 18.0176C33.2109 18.1465 32.9102 18.5117 32.6094 19.1133C32.4375 19.4857 32.3158 19.9225 32.2441 20.4238C32.1868 20.9108 32.1582 21.362 32.1582 21.7773V21.8418ZM38.4746 20.3594C38.1595 20.4167 37.9089 20.3952 37.7227 20.2949C37.5508 20.1803 37.429 20.0443 37.3574 19.8867C37.2858 19.7148 37.25 19.5501 37.25 19.3926C37.2643 19.2207 37.3001 19.1133 37.3574 19.0703C37.4004 19.056 37.4935 18.9987 37.6367 18.8984C37.7943 18.7982 37.8874 18.7337 37.916 18.7051C37.9303 18.7051 37.9447 18.6979 37.959 18.6836C37.9876 18.6549 38.0091 18.6335 38.0234 18.6191V18.2324C38.0234 17.4303 37.9733 16.6426 37.873 15.8691C37.7871 15.0814 37.7441 14.2936 37.7441 13.5059C37.7441 12.9902 37.7513 12.4531 37.7656 11.8945C37.7943 11.3359 37.8874 10.8203 38.0449 10.3477C38.2168 9.875 38.4818 9.48828 38.8398 9.1875C39.1979 8.88672 39.7135 8.73633 40.3867 8.73633C40.5013 8.73633 40.6374 8.73633 40.7949 8.73633C40.9525 8.73633 41.0957 8.75781 41.2246 8.80078C41.3678 8.82943 41.4896 8.89388 41.5898 8.99414C41.6901 9.08008 41.7402 9.20898 41.7402 9.38086C41.7402 9.63867 41.6758 9.81055 41.5469 9.89648C41.4323 9.9681 41.2819 10.0182 41.0957 10.0469C40.9095 10.0612 40.7161 10.0898 40.5156 10.1328C40.3151 10.1615 40.1432 10.2689 40 10.4551C39.9714 10.4837 39.9355 10.5625 39.8926 10.6914C39.8496 10.806 39.8281 10.8848 39.8281 10.9277C39.7995 11.028 39.7708 11.1641 39.7422 11.3359C39.7135 11.5078 39.6849 11.6797 39.6562 11.8516C39.6419 12.0234 39.6204 12.181 39.5918 12.3242C39.5775 12.4531 39.5703 12.5247 39.5703 12.5391C39.5703 12.5534 39.5703 12.6107 39.5703 12.7109C39.5703 12.7969 39.5632 12.9043 39.5488 13.0332C39.5488 13.1621 39.5488 13.2982 39.5488 13.4414C39.5488 13.5703 39.5488 13.6777 39.5488 13.7637C39.5488 14.0645 39.5488 14.3438 39.5488 14.6016C39.5488 14.8594 39.556 15.1172 39.5703 15.375C39.5846 15.6185 39.6061 15.8691 39.6348 16.127C39.6634 16.3848 39.6992 16.6712 39.7422 16.9863H39.9141L42.8145 15.2676C43.015 15.2246 43.194 15.153 43.3516 15.0527C43.5091 14.9525 43.6882 14.9023 43.8887 14.9023C44.0892 14.9023 44.2969 14.9525 44.5117 15.0527C44.7266 15.153 44.834 15.3105 44.834 15.5254C44.834 15.6829 44.7982 15.7975 44.7266 15.8691C44.6549 15.9408 44.5977 16.041 44.5547 16.1699C44.4974 16.1842 44.39 16.2272 44.2324 16.2988C44.0749 16.3704 43.9674 16.4206 43.9102 16.4492C43.7956 16.5208 43.6094 16.6354 43.3516 16.793C43.1081 16.9362 42.8503 17.0938 42.5781 17.2656C42.306 17.4232 42.0553 17.5736 41.8262 17.7168C41.597 17.86 41.4466 17.9531 41.375 17.9961C41.2747 18.0677 41.153 18.1536 41.0098 18.2539C40.8665 18.3542 40.7233 18.4616 40.5801 18.5762C40.4512 18.6764 40.3366 18.7695 40.2363 18.8555C40.1361 18.9271 40.0859 18.9629 40.0859 18.9629V19.1777L40.6445 21.0039C40.6302 21.0469 40.623 21.097 40.623 21.1543C40.6374 21.1973 40.6732 21.2331 40.7305 21.2617L41.7402 24.334C41.8118 24.5918 41.7546 24.8066 41.5684 24.9785C41.3965 25.1504 41.196 25.2363 40.9668 25.2363C40.709 25.2363 40.4583 25.1647 40.2148 25.0215C39.9714 24.8926 39.8138 24.6921 39.7422 24.4199L38.5605 20.5312L38.4746 20.3594ZM45.9082 18.7266C45.7077 18.7266 45.5286 18.7767 45.3711 18.877C45.2135 18.9772 45.0273 19.0273 44.8125 19.0273C44.7839 19.0273 44.7051 19.0273 44.5762 19.0273C44.4616 19.013 44.39 19.0059 44.3613 19.0059C44.304 18.9342 44.2396 18.877 44.168 18.834C44.0964 18.791 44.0247 18.748 43.9531 18.7051C43.8815 18.6478 43.8171 18.5833 43.7598 18.5117C43.7168 18.4401 43.6953 18.3398 43.6953 18.2109C43.6953 17.9961 43.7812 17.8242 43.9531 17.6953C44.125 17.5521 44.3255 17.4303 44.5547 17.3301C44.7839 17.2298 45.013 17.1367 45.2422 17.0508C45.4857 16.9648 45.679 16.8646 45.8223 16.75V15.8047C45.8223 14.7448 45.7721 13.6849 45.6719 12.625C45.5716 11.5508 45.5215 10.4909 45.5215 9.44531C45.5215 9.15885 45.5931 8.97266 45.7363 8.88672C45.8796 8.80078 46.0729 8.75781 46.3164 8.75781C46.6029 8.75781 46.8105 8.84375 46.9395 9.01562C47.0827 9.17318 47.1829 9.3737 47.2402 9.61719C47.2975 9.84635 47.3262 10.097 47.3262 10.3691C47.3262 10.627 47.3333 10.849 47.3477 11.0352C47.3477 11.2214 47.362 11.5508 47.3906 12.0234C47.4193 12.4961 47.4479 12.9974 47.4766 13.5273C47.5052 14.0573 47.5339 14.5586 47.5625 15.0312C47.5911 15.5039 47.6126 15.8333 47.627 16.0195C47.6842 16.0052 47.7917 15.9694 47.9492 15.9121C48.1211 15.8405 48.3001 15.776 48.4863 15.7188C48.6725 15.6471 48.8444 15.5827 49.002 15.5254C49.1738 15.4681 49.2956 15.4251 49.3672 15.3965C49.7396 15.2389 50.1263 15.0671 50.5273 14.8809C50.9284 14.6803 51.3366 14.5801 51.752 14.5801C52.0384 14.5801 52.2533 14.6803 52.3965 14.8809C52.554 15.0671 52.6328 15.2891 52.6328 15.5469C52.6328 15.7331 52.5612 15.8691 52.418 15.9551C52.2747 16.041 52.1243 16.1198 51.9668 16.1914L48.0566 17.6523C48.0137 17.681 47.9707 17.7096 47.9277 17.7383C47.8848 17.7526 47.8418 17.7812 47.7988 17.8242V18.5117C47.7988 19.013 47.806 19.5358 47.8203 20.0801C47.849 20.61 47.8991 21.1257 47.9707 21.627C48.0423 22.0566 48.1211 22.4792 48.207 22.8945C48.293 23.3099 48.3359 23.7324 48.3359 24.1621C48.3359 24.291 48.293 24.4629 48.207 24.6777C48.1211 24.8926 47.985 25 47.7988 25C47.4121 25 47.097 24.8854 46.8535 24.6562C46.61 24.4271 46.474 24.1191 46.4453 23.7324C46.3737 22.9876 46.2949 22.1712 46.209 21.2832C46.1374 20.3952 46.0658 19.543 45.9941 18.7266H45.9082ZM55.8555 23.9688C55.7695 23.6393 55.5189 22.8014 55.1035 21.4551C54.6882 20.0944 54.1081 18.1322 53.3633 15.5684C53.3633 15.5397 53.349 15.4824 53.3203 15.3965C53.306 15.2962 53.2988 15.2318 53.2988 15.2031C53.3275 15.0312 53.4564 14.931 53.6855 14.9023C53.9147 14.8594 54.0866 14.8451 54.2012 14.8594C54.5163 14.9023 54.7454 15.0026 54.8887 15.1602C55.0462 15.3177 55.1751 15.5469 55.2754 15.8477L56.5215 19.9512L56.6074 20.0586C56.7793 19.7721 56.8796 19.4427 56.9082 19.0703C56.9368 18.6979 56.9727 18.3398 57.0156 17.9961C57.0729 17.638 57.1732 17.3158 57.3164 17.0293C57.4596 16.7428 57.7318 16.5423 58.1328 16.4277C58.2188 16.4277 58.3118 16.4492 58.4121 16.4922C58.5124 16.5208 58.6055 16.571 58.6914 16.6426C58.7917 16.6999 58.8776 16.7715 58.9492 16.8574C59.0208 16.929 59.071 17.0078 59.0996 17.0938L60.2598 20.8105L60.4961 21.1328C60.5534 20.875 60.625 20.4596 60.7109 19.8867C60.8112 19.3138 60.9043 18.7194 60.9902 18.1035C61.0905 17.4733 61.1764 16.8932 61.248 16.3633C61.3197 15.819 61.3698 15.4466 61.3984 15.2461C61.3984 15.2174 61.3984 15.1673 61.3984 15.0957C61.4128 15.0241 61.4199 14.974 61.4199 14.9453C61.5345 14.8164 61.6921 14.7233 61.8926 14.666C62.0931 14.5944 62.2721 14.5729 62.4297 14.6016C62.487 14.6159 62.5586 14.6517 62.6445 14.709C62.7448 14.752 62.8379 14.8164 62.9238 14.9023C63.0098 14.974 63.0742 15.0527 63.1172 15.1387C63.1745 15.2246 63.2031 15.3034 63.2031 15.375L61.9785 24.1836C61.9642 24.2695 61.9141 24.3411 61.8281 24.3984C61.7422 24.4414 61.6419 24.4844 61.5273 24.5273C61.4271 24.556 61.3197 24.5775 61.2051 24.5918C61.1048 24.5918 61.026 24.5918 60.9688 24.5918C60.625 24.4629 60.3242 24.2552 60.0664 23.9688C59.8229 23.668 59.6009 23.3385 59.4004 22.9805C59.2142 22.6224 59.0423 22.2572 58.8848 21.8848C58.7415 21.498 58.584 21.1543 58.4121 20.8535L58.3262 20.832C58.2259 20.9323 58.14 21.1543 58.0684 21.498C58.0111 21.8418 57.9609 22.207 57.918 22.5938C57.875 22.9805 57.8392 23.3314 57.8105 23.6465C57.7819 23.9473 57.7676 24.112 57.7676 24.1406C57.7389 24.3411 57.6029 24.4987 57.3594 24.6133C57.1302 24.7279 56.9225 24.7708 56.7363 24.7422C56.5358 24.7135 56.3568 24.6204 56.1992 24.4629C56.056 24.291 55.9414 24.1263 55.8555 23.9688ZM69.2188 19.0059C69.0898 19.235 68.9395 19.5143 68.7676 19.8438C68.61 20.1589 68.4382 20.5026 68.252 20.875C68.0658 21.2331 67.8581 21.5983 67.6289 21.9707C67.4141 22.3288 67.1849 22.6582 66.9414 22.959C66.7122 23.2598 66.4688 23.5176 66.2109 23.7324C65.9531 23.9329 65.6882 24.0547 65.416 24.0977C65.3014 24.0977 65.1725 24.0905 65.0293 24.0762C64.8861 24.0475 64.7428 24.0117 64.5996 23.9688C64.4564 23.9115 64.3346 23.8398 64.2344 23.7539C64.1484 23.6536 64.1055 23.5247 64.1055 23.3672C64.1198 21.9062 64.2272 20.5814 64.4277 19.3926C64.6283 18.1895 64.9434 17.1367 65.373 16.2344C65.8027 15.3177 66.3542 14.5586 67.0273 13.957C67.7005 13.3555 68.5169 12.9258 69.4766 12.668C69.5052 12.668 69.5553 12.668 69.627 12.668C69.7129 12.6536 69.7702 12.6465 69.7988 12.6465C70.2285 12.6322 70.5365 12.8327 70.7227 13.248C70.9232 13.6491 71.0664 14.2936 71.1523 15.1816C71.2526 16.0553 71.3171 17.1868 71.3457 18.5762C71.3887 19.9512 71.4674 21.6055 71.582 23.5391C71.625 23.6966 71.6465 23.8327 71.6465 23.9473C71.6608 24.0618 71.668 24.1979 71.668 24.3555C71.668 24.5703 71.6035 24.735 71.4746 24.8496C71.3457 24.9499 71.181 25 70.9805 25C70.5651 25 70.2715 24.8854 70.0996 24.6562C69.9277 24.4271 69.8132 24.1191 69.7559 23.7324C69.7559 23.7181 69.7415 23.6035 69.7129 23.3887C69.6986 23.1738 69.6699 22.9303 69.627 22.6582C69.5983 22.3717 69.5697 22.0853 69.541 21.7988C69.5124 21.5124 69.4909 21.276 69.4766 21.0898V21.0039C69.4479 20.8607 69.4264 20.6816 69.4121 20.4668C69.4121 20.252 69.3978 20.0443 69.3691 19.8438C69.3405 19.6003 69.319 19.3568 69.3047 19.1133L69.2188 19.0059ZM68.7461 14.752C68.3594 15.0384 67.9798 15.4251 67.6074 15.9121C67.235 16.3991 66.9701 16.8717 66.8125 17.3301C66.7409 17.5449 66.6621 17.8385 66.5762 18.2109C66.4902 18.5833 66.4115 18.9557 66.3398 19.3281C66.2826 19.6862 66.2324 20.0228 66.1895 20.3379C66.1465 20.6387 66.125 20.832 66.125 20.918C66.1393 20.918 66.1536 20.9036 66.168 20.875C66.1966 20.8464 66.2181 20.8249 66.2324 20.8105C67.1204 19.9512 67.7435 19.0273 68.1016 18.0391C68.474 17.0365 68.6888 15.9408 68.7461 14.752ZM73.752 24.0762C73.7233 23.5605 73.6732 22.873 73.6016 22.0137C73.5443 21.14 73.4727 20.2376 73.3867 19.3066C73.3151 18.3757 73.2363 17.4948 73.1504 16.6641C73.0645 15.8333 72.9928 15.1888 72.9355 14.7305C72.9355 14.5443 73.0215 14.4225 73.1934 14.3652C73.3652 14.3079 73.5299 14.2793 73.6875 14.2793C73.888 14.2793 74.0957 14.3366 74.3105 14.4512C74.5397 14.5658 74.6829 14.7233 74.7402 14.9238C74.7402 14.9811 74.7474 15.0885 74.7617 15.2461C74.776 15.3893 74.7832 15.5397 74.7832 15.6973C74.7975 15.8548 74.8118 16.0124 74.8262 16.1699C74.8405 16.3132 74.8477 16.4134 74.8477 16.4707C74.8477 16.5566 74.8477 16.6211 74.8477 16.6641C74.8477 16.707 74.8477 16.75 74.8477 16.793C74.8477 16.8216 74.8548 16.8574 74.8691 16.9004C74.8835 16.9434 74.9049 17.015 74.9336 17.1152C74.9622 17.0866 74.9909 17.0508 75.0195 17.0078C75.0625 16.9648 75.0911 16.9362 75.1055 16.9219C75.3346 16.5924 75.5566 16.306 75.7715 16.0625C75.9863 15.8047 76.2083 15.5684 76.4375 15.3535C76.6667 15.1243 76.9173 14.888 77.1895 14.6445C77.4759 14.3867 77.8053 14.0931 78.1777 13.7637C78.2637 13.6921 78.3281 13.6419 78.3711 13.6133C78.4141 13.5703 78.4499 13.5417 78.4785 13.5273C78.5215 13.4987 78.5645 13.4844 78.6074 13.4844C78.6504 13.4701 78.7077 13.4629 78.7793 13.4629C79.0228 13.4629 79.2663 13.5488 79.5098 13.7207C79.7676 13.8783 79.8965 14.1003 79.8965 14.3867C79.8965 14.487 79.8607 14.5944 79.7891 14.709C79.7174 14.8092 79.6315 14.9095 79.5312 15.0098C79.431 15.0957 79.3236 15.1745 79.209 15.2461C79.1087 15.3177 79.0156 15.3678 78.9297 15.3965C78.5573 15.7259 78.1634 16.1055 77.748 16.5352C77.3327 16.9505 76.946 17.4017 76.5879 17.8887C76.2298 18.3757 75.9362 18.8841 75.707 19.4141C75.4779 19.944 75.3633 20.474 75.3633 21.0039C75.3633 21.4909 75.3991 21.9707 75.4707 22.4434C75.5423 22.916 75.5781 23.3958 75.5781 23.8828V24.6348C75.4635 24.7493 75.3633 24.8424 75.2773 24.9141C75.1914 24.9857 75.0697 25.0215 74.9121 25.0215C74.6686 25.0215 74.4323 24.9212 74.2031 24.7207C73.974 24.5059 73.8236 24.291 73.752 24.0762ZM89.4355 18.8984C89.4069 19.1562 89.3711 19.3568 89.3281 19.5C89.2995 19.6432 89.2422 19.7721 89.1562 19.8867C89.0703 20.0013 88.9486 20.123 88.791 20.252C88.6335 20.3665 88.4186 20.5384 88.1465 20.7676C87.8743 20.9824 87.5378 21.2689 87.1367 21.627C86.7357 21.985 86.2487 22.4505 85.6758 23.0234C85.4466 23.2383 85.2103 23.4603 84.9668 23.6895C84.7233 23.9186 84.4655 24.1263 84.1934 24.3125C83.9355 24.4844 83.6634 24.6276 83.377 24.7422C83.0905 24.8568 82.7897 24.9141 82.4746 24.9141C81.8587 24.9141 81.4076 24.7064 81.1211 24.291C80.8346 23.8757 80.6914 23.3958 80.6914 22.8516C80.6914 22.4935 80.6986 22.1927 80.7129 21.9492C80.7415 21.7057 80.7988 21.3906 80.8848 21.0039C80.7272 20.8607 80.5911 20.7389 80.4766 20.6387C80.362 20.5241 80.3047 20.3737 80.3047 20.1875C80.3047 20.0156 80.3405 19.901 80.4121 19.8438C80.498 19.7865 80.5911 19.7507 80.6914 19.7363C80.806 19.7077 80.9134 19.679 81.0137 19.6504C81.1139 19.6217 81.1855 19.5645 81.2285 19.4785C81.2572 19.3926 81.3073 19.235 81.3789 19.0059C81.4648 18.7767 81.5508 18.5404 81.6367 18.2969C81.7227 18.0391 81.8014 17.8027 81.873 17.5879C81.959 17.3587 82.0163 17.2012 82.0449 17.1152C82.1452 16.8717 82.2526 16.6283 82.3672 16.3848C82.4961 16.127 82.6393 15.8978 82.7969 15.6973C82.9688 15.4967 83.1621 15.332 83.377 15.2031C83.6061 15.0742 83.8711 15.0098 84.1719 15.0098C84.3438 15.0098 84.5514 15.0885 84.7949 15.2461C85.0527 15.4036 85.2962 15.597 85.5254 15.8262C85.7546 16.041 85.9479 16.2702 86.1055 16.5137C86.263 16.7572 86.3418 16.9648 86.3418 17.1367C86.3418 17.3516 86.2917 17.5521 86.1914 17.7383C86.0911 17.9102 85.9622 18.0749 85.8047 18.2324C85.6615 18.3757 85.5039 18.5117 85.332 18.6406C85.1602 18.7695 85.0026 18.8913 84.8594 19.0059C84.8451 19.0059 84.8164 19.0202 84.7734 19.0488C84.7305 19.0775 84.6947 19.099 84.666 19.1133C84.6517 19.1276 84.6159 19.1634 84.5586 19.2207C84.5156 19.2637 84.4655 19.3138 84.4082 19.3711C84.3509 19.4284 84.2936 19.4857 84.2363 19.543C84.1934 19.6003 84.1647 19.6361 84.1504 19.6504C84.1074 19.6934 84.0215 19.765 83.8926 19.8652C83.778 19.9512 83.6491 20.0514 83.5059 20.166C83.3626 20.2663 83.2266 20.3665 83.0977 20.4668C82.9831 20.5527 82.9043 20.61 82.8613 20.6387L82.7754 20.8105C82.7467 20.8678 82.7181 20.9967 82.6895 21.1973C82.6751 21.3835 82.6536 21.5983 82.625 21.8418C82.5964 22.0853 82.5677 22.3359 82.5391 22.5938C82.5247 22.8372 82.5176 23.0378 82.5176 23.1953C82.5176 23.2096 82.5247 23.224 82.5391 23.2383C82.5677 23.2669 82.5892 23.2812 82.6035 23.2812C82.7181 23.2812 82.8255 23.2311 82.9258 23.1309C83.026 23.0306 83.1335 22.959 83.248 22.916L86.6855 19.7363L87.5664 18.3828C87.638 18.2826 87.7741 18.1751 87.9746 18.0605C88.1895 17.9316 88.4043 17.8672 88.6191 17.8672C88.834 17.8529 89.0202 17.9173 89.1777 18.0605C89.3496 18.2038 89.4355 18.4831 89.4355 18.8984ZM84.709 17.2227C84.7806 17.1654 84.8092 17.0794 84.7949 16.9648C84.7806 16.8503 84.7376 16.75 84.666 16.6641C84.6087 16.5781 84.5299 16.528 84.4297 16.5137C84.3294 16.485 84.2363 16.5352 84.1504 16.6641C84.1074 16.7214 84.0286 16.8359 83.9141 17.0078C83.8138 17.1797 83.7064 17.3587 83.5918 17.5449C83.4915 17.7168 83.4056 17.8672 83.334 17.9961C83.2624 18.125 83.248 18.1751 83.291 18.1465L84.709 17.2227ZM100.006 24.5273C99.8626 23.9544 99.7552 23.4173 99.6836 22.916C99.612 22.4004 99.5618 21.8561 99.5332 21.2832C99.5189 20.9538 99.5189 20.6745 99.5332 20.4453C99.5475 20.2018 99.5189 19.9368 99.4473 19.6504C99.4329 19.5931 99.3971 19.5501 99.3398 19.5215C99.2969 19.4928 99.2467 19.457 99.1895 19.4141C99.1465 19.3711 99.1035 19.321 99.0605 19.2637C99.0176 19.1921 98.9961 19.0846 98.9961 18.9414C98.9961 18.8268 99.0176 18.7266 99.0605 18.6406C99.1178 18.5547 99.168 18.4759 99.2109 18.4043C99.2682 18.3184 99.3184 18.2324 99.3613 18.1465C99.4186 18.0462 99.4473 17.9316 99.4473 17.8027V17.4805C99.4473 17.3372 99.4329 17.0938 99.4043 16.75C99.3757 16.4062 99.347 16.041 99.3184 15.6543C99.2897 15.2676 99.2611 14.9023 99.2324 14.5586C99.2181 14.2148 99.2038 13.9785 99.1895 13.8496C99.1751 13.6061 99.1107 13.3913 98.9961 13.2051C98.8815 13.0189 98.8242 12.804 98.8242 12.5605C98.8242 12.1022 98.9173 11.7799 99.1035 11.5938C99.2897 11.4076 99.6191 11.3145 100.092 11.3145C100.192 11.3145 100.271 11.3574 100.328 11.4434C100.4 11.5293 100.479 11.5723 100.564 11.5723H100.65C100.693 11.5579 100.758 11.5436 100.844 11.5293C100.93 11.5007 100.987 11.4863 101.016 11.4863C102.219 10.9707 103.157 10.5697 103.83 10.2832C104.503 9.99674 105.012 9.78906 105.355 9.66016C105.699 9.53125 105.928 9.45964 106.043 9.44531C106.172 9.43099 106.279 9.44531 106.365 9.48828C106.537 9.51693 106.652 9.57422 106.709 9.66016C106.781 9.73177 106.816 9.84635 106.816 10.0039C106.816 10.1471 106.795 10.2904 106.752 10.4336C106.709 10.5768 106.609 10.6842 106.451 10.7559L103.637 12.1094L103.551 12.1953L101.188 13.2051C101.102 13.2337 101.051 13.3053 101.037 13.4199C101.023 13.5345 101.016 13.6276 101.016 13.6992C101.016 13.8138 101.03 14.0215 101.059 14.3223C101.087 14.623 101.116 14.9382 101.145 15.2676C101.173 15.5827 101.202 15.8691 101.23 16.127C101.273 16.3704 101.302 16.4922 101.316 16.4922H101.338C101.338 16.4922 101.345 16.485 101.359 16.4707C101.517 16.3561 101.768 16.1628 102.111 15.8906C102.455 15.6042 102.806 15.3177 103.164 15.0312C103.522 14.7448 103.837 14.4941 104.109 14.2793C104.382 14.0501 104.525 13.9355 104.539 13.9355C104.697 13.9355 104.84 14.0143 104.969 14.1719C105.098 14.3294 105.162 14.4941 105.162 14.666C105.162 14.8379 105.126 15.0312 105.055 15.2461C104.983 15.4609 104.868 15.6257 104.711 15.7402L101.359 18.7266C101.359 18.7266 101.359 18.7624 101.359 18.834C101.359 18.9056 101.352 18.9844 101.338 19.0703C101.338 19.1562 101.338 19.2493 101.338 19.3496C101.338 19.4355 101.338 19.5072 101.338 19.5645C101.338 20.0801 101.374 20.5957 101.445 21.1113C101.517 21.6126 101.553 22.1211 101.553 22.6367H101.639C101.653 22.6367 101.717 22.5794 101.832 22.4648C101.947 22.3503 102.033 22.2572 102.09 22.1855C102.118 22.1426 102.183 22.0495 102.283 21.9062C102.398 21.763 102.584 21.5267 102.842 21.1973C103.1 20.8678 103.443 20.431 103.873 19.8867C104.303 19.3424 104.854 18.6549 105.527 17.8242C105.585 17.7669 105.663 17.681 105.764 17.5664C105.878 17.4518 105.95 17.3945 105.979 17.3945C106.021 17.3516 106.107 17.3372 106.236 17.3516C106.38 17.3516 106.48 17.3659 106.537 17.3945C106.609 17.4232 106.702 17.502 106.816 17.6309C106.931 17.7598 106.988 17.8815 106.988 17.9961C106.988 18.168 106.895 18.3971 106.709 18.6836C106.537 18.9557 106.329 19.2422 106.086 19.543C105.842 19.8438 105.599 20.1374 105.355 20.4238C105.112 20.696 104.926 20.918 104.797 21.0898C104.596 21.4049 104.353 21.7917 104.066 22.25C103.794 22.694 103.493 23.1237 103.164 23.5391C102.835 23.9401 102.469 24.291 102.068 24.5918C101.682 24.8783 101.266 25.0215 100.822 25.0215C100.607 25.0215 100.45 24.9857 100.35 24.9141C100.264 24.8424 100.149 24.7135 100.006 24.5273ZM114.014 24.2695C113.813 23.9831 113.641 23.5892 113.498 23.0879C113.369 22.5723 113.24 22.0352 113.111 21.4766C112.997 20.9036 112.889 20.3522 112.789 19.8223C112.689 19.278 112.581 18.8483 112.467 18.5332C112.367 18.2038 112.252 18.0176 112.123 17.9746C111.994 17.9316 111.844 18.125 111.672 18.5547L109.803 24.3125C109.731 24.513 109.645 24.6562 109.545 24.7422C109.445 24.8138 109.28 24.8496 109.051 24.8496C108.936 24.8496 108.814 24.8353 108.686 24.8066C108.557 24.7637 108.435 24.7064 108.32 24.6348C108.206 24.5632 108.105 24.4772 108.02 24.377C107.948 24.2767 107.905 24.1621 107.891 24.0332C107.934 23.8613 107.969 23.5462 107.998 23.0879C108.041 22.6296 108.07 22.0996 108.084 21.498C108.098 20.8965 108.105 20.2663 108.105 19.6074C108.12 18.9342 108.12 18.3112 108.105 17.7383C108.105 17.151 108.098 16.6497 108.084 16.2344C108.07 15.8047 108.055 15.5254 108.041 15.3965C108.041 15.2533 108.041 15.11 108.041 14.9668C108.055 14.8092 108.077 14.666 108.105 14.5371C108.148 14.4082 108.213 14.3079 108.299 14.2363C108.399 14.1504 108.549 14.1074 108.75 14.1074C109.022 14.1074 109.273 14.222 109.502 14.4512C109.745 14.6803 109.867 14.9238 109.867 15.1816C109.867 15.554 109.846 15.9264 109.803 16.2988C109.774 16.6569 109.76 17.0221 109.76 17.3945C109.76 17.6237 109.76 17.8171 109.76 17.9746C109.76 18.1322 109.788 18.3255 109.846 18.5547C109.889 18.4401 109.96 18.2396 110.061 17.9531C110.161 17.6667 110.268 17.3659 110.383 17.0508C110.512 16.7357 110.626 16.4421 110.727 16.1699C110.827 15.8835 110.898 15.6829 110.941 15.5684C111.042 15.2819 111.192 15.0098 111.393 14.752C111.593 14.4798 111.858 14.3294 112.188 14.3008C112.402 14.2865 112.596 14.3438 112.768 14.4727C112.954 14.6016 113.111 14.7734 113.24 14.9883C113.369 15.1888 113.477 15.4036 113.562 15.6328C113.648 15.8477 113.713 16.0339 113.756 16.1914L114.916 21.541L115.818 23.9902C115.833 24.0046 115.84 24.0475 115.84 24.1191C115.84 24.1764 115.84 24.2194 115.84 24.248C115.84 24.4199 115.797 24.5918 115.711 24.7637C115.639 24.9212 115.503 25 115.303 25C115.059 25 114.809 24.9355 114.551 24.8066C114.293 24.6634 114.114 24.4844 114.014 24.2695ZM117.838 32.498C117.781 32.3405 117.781 32.1615 117.838 31.9609C117.91 31.7604 118.046 31.6315 118.246 31.5742C118.576 31.7174 118.919 31.8105 119.277 31.8535C119.635 31.8965 119.993 31.9036 120.352 31.875C120.724 31.8464 121.089 31.7891 121.447 31.7031C121.805 31.6172 122.149 31.5169 122.479 31.4023C122.808 31.1302 123.037 30.7721 123.166 30.3281C123.295 29.8984 123.345 29.304 123.316 28.5449C123.288 27.8001 123.188 26.862 123.016 25.7305C122.858 24.6133 122.65 23.2383 122.393 21.6055C122.393 21.5625 122.393 21.498 122.393 21.4121C122.407 21.3262 122.407 21.2474 122.393 21.1758C122.378 21.0898 122.35 21.0254 122.307 20.9824C122.278 20.9395 122.235 20.9395 122.178 20.9824C121.992 21.3405 121.77 21.7344 121.512 22.1641C121.268 22.5794 120.982 22.9733 120.652 23.3457C120.337 23.7038 119.979 24.0046 119.578 24.248C119.191 24.4915 118.755 24.6133 118.268 24.6133C117.838 24.6133 117.458 24.4915 117.129 24.248C116.814 23.9902 116.656 23.625 116.656 23.1523C116.656 22.7943 116.728 22.3431 116.871 21.7988C117.029 21.2546 117.236 20.6816 117.494 20.0801C117.752 19.4642 118.053 18.8555 118.396 18.2539C118.74 17.6523 119.098 17.1081 119.471 16.6211C119.843 16.1341 120.223 15.7402 120.609 15.4395C120.996 15.1243 121.368 14.9668 121.727 14.9668C121.87 14.9668 122.056 14.9954 122.285 15.0527C122.529 15.0957 122.758 15.1673 122.973 15.2676C123.202 15.3678 123.395 15.4824 123.553 15.6113C123.725 15.7402 123.811 15.8906 123.811 16.0625V17.8027L125.207 27.9434C125.207 28.5163 125.193 29.0605 125.164 29.5762C125.15 30.1061 125.057 30.5931 124.885 31.0371C124.727 31.4811 124.469 31.875 124.111 32.2188C123.753 32.5625 123.238 32.8418 122.564 33.0566C122.479 33.0996 122.299 33.1354 122.027 33.1641C121.755 33.1927 121.44 33.2142 121.082 33.2285C120.738 33.2428 120.366 33.2428 119.965 33.2285C119.578 33.2142 119.22 33.1784 118.891 33.1211C118.576 33.0781 118.318 33.0065 118.117 32.9062C117.917 32.806 117.824 32.6699 117.838 32.498ZM121.189 16.8789C121.046 17.0365 120.853 17.2871 120.609 17.6309C120.38 17.9746 120.144 18.3542 119.9 18.7695C119.657 19.1849 119.413 19.6217 119.17 20.0801C118.941 20.5241 118.755 20.9395 118.611 21.3262C118.468 21.7129 118.375 22.0423 118.332 22.3145C118.303 22.5866 118.368 22.7513 118.525 22.8086C118.826 22.651 119.148 22.3932 119.492 22.0352C119.836 21.6628 120.158 21.2546 120.459 20.8105C120.774 20.3522 121.046 19.8867 121.275 19.4141C121.519 18.9271 121.684 18.4902 121.77 18.1035C121.87 17.7168 121.877 17.4089 121.791 17.1797C121.719 16.9362 121.519 16.8359 121.189 16.8789ZM126.732 24.1836C126.589 22.7513 126.467 21.5267 126.367 20.5098C126.267 19.4928 126.181 18.6406 126.109 17.9531C126.038 17.2656 125.973 16.7214 125.916 16.3203C125.873 15.9049 125.837 15.597 125.809 15.3965C125.78 15.1816 125.758 15.0384 125.744 14.9668C125.73 14.8952 125.723 14.8522 125.723 14.8379V14.752C125.723 14.5944 125.787 14.4655 125.916 14.3652C126.059 14.2507 126.202 14.1934 126.346 14.1934C126.561 14.1934 126.79 14.2292 127.033 14.3008C127.291 14.3724 127.463 14.5228 127.549 14.752C127.678 15.4538 127.764 16.1628 127.807 16.8789C127.864 17.5951 127.907 18.3112 127.936 19.0273C127.979 19.7292 128.029 20.4382 128.086 21.1543C128.158 21.8704 128.279 22.5794 128.451 23.2812C128.451 23.3099 128.458 23.3672 128.473 23.4531C128.501 23.5391 128.523 23.6322 128.537 23.7324C128.566 23.8327 128.587 23.9258 128.602 24.0117C128.616 24.0977 128.623 24.1549 128.623 24.1836V24.2266C128.623 24.2409 128.63 24.2552 128.645 24.2695C128.645 24.4414 128.566 24.6133 128.408 24.7852C128.251 24.957 128.086 25.0286 127.914 25C127.871 24.9857 127.764 24.9642 127.592 24.9355C127.434 24.8926 127.327 24.8568 127.27 24.8281C127.227 24.8138 127.169 24.7852 127.098 24.7422C127.026 24.6849 126.954 24.6276 126.883 24.5703C126.826 24.513 126.775 24.4486 126.732 24.377C126.689 24.3053 126.689 24.2409 126.732 24.1836ZM125.529 8.52148C125.529 8.42122 125.608 8.33529 125.766 8.26367C125.938 8.17773 126.066 8.13477 126.152 8.13477C126.367 8.13477 126.604 8.19922 126.861 8.32812C127.133 8.44271 127.27 8.62174 127.27 8.86523C127.27 9.10872 127.234 9.27344 127.162 9.35938C127.105 9.44531 126.954 9.48828 126.711 9.48828C126.453 9.48828 126.188 9.40234 125.916 9.23047C125.658 9.05859 125.529 8.82227 125.529 8.52148ZM135.562 24.2695C135.362 23.9831 135.19 23.5892 135.047 23.0879C134.918 22.5723 134.789 22.0352 134.66 21.4766C134.546 20.9036 134.438 20.3522 134.338 19.8223C134.238 19.278 134.13 18.8483 134.016 18.5332C133.915 18.2038 133.801 18.0176 133.672 17.9746C133.543 17.9316 133.393 18.125 133.221 18.5547L131.352 24.3125C131.28 24.513 131.194 24.6562 131.094 24.7422C130.993 24.8138 130.829 24.8496 130.6 24.8496C130.485 24.8496 130.363 24.8353 130.234 24.8066C130.105 24.7637 129.984 24.7064 129.869 24.6348C129.755 24.5632 129.654 24.4772 129.568 24.377C129.497 24.2767 129.454 24.1621 129.439 24.0332C129.482 23.8613 129.518 23.5462 129.547 23.0879C129.59 22.6296 129.618 22.0996 129.633 21.498C129.647 20.8965 129.654 20.2663 129.654 19.6074C129.669 18.9342 129.669 18.3112 129.654 17.7383C129.654 17.151 129.647 16.6497 129.633 16.2344C129.618 15.8047 129.604 15.5254 129.59 15.3965C129.59 15.2533 129.59 15.11 129.59 14.9668C129.604 14.8092 129.626 14.666 129.654 14.5371C129.697 14.4082 129.762 14.3079 129.848 14.2363C129.948 14.1504 130.098 14.1074 130.299 14.1074C130.571 14.1074 130.822 14.222 131.051 14.4512C131.294 14.6803 131.416 14.9238 131.416 15.1816C131.416 15.554 131.395 15.9264 131.352 16.2988C131.323 16.6569 131.309 17.0221 131.309 17.3945C131.309 17.6237 131.309 17.8171 131.309 17.9746C131.309 18.1322 131.337 18.3255 131.395 18.5547C131.438 18.4401 131.509 18.2396 131.609 17.9531C131.71 17.6667 131.817 17.3659 131.932 17.0508C132.061 16.7357 132.175 16.4421 132.275 16.1699C132.376 15.8835 132.447 15.6829 132.49 15.5684C132.59 15.2819 132.741 15.0098 132.941 14.752C133.142 14.4798 133.407 14.3294 133.736 14.3008C133.951 14.2865 134.145 14.3438 134.316 14.4727C134.503 14.6016 134.66 14.7734 134.789 14.9883C134.918 15.1888 135.025 15.4036 135.111 15.6328C135.197 15.8477 135.262 16.0339 135.305 16.1914L136.465 21.541L137.367 23.9902C137.382 24.0046 137.389 24.0475 137.389 24.1191C137.389 24.1764 137.389 24.2194 137.389 24.248C137.389 24.4199 137.346 24.5918 137.26 24.7637C137.188 24.9212 137.052 25 136.852 25C136.608 25 136.357 24.9355 136.1 24.8066C135.842 24.6634 135.663 24.4844 135.562 24.2695ZM147.314 18.8984C147.286 19.1562 147.25 19.3568 147.207 19.5C147.178 19.6432 147.121 19.7721 147.035 19.8867C146.949 20.0013 146.827 20.123 146.67 20.252C146.512 20.3665 146.298 20.5384 146.025 20.7676C145.753 20.9824 145.417 21.2689 145.016 21.627C144.615 21.985 144.128 22.4505 143.555 23.0234C143.326 23.2383 143.089 23.4603 142.846 23.6895C142.602 23.9186 142.344 24.1263 142.072 24.3125C141.814 24.4844 141.542 24.6276 141.256 24.7422C140.969 24.8568 140.669 24.9141 140.354 24.9141C139.738 24.9141 139.286 24.7064 139 24.291C138.714 23.8757 138.57 23.3958 138.57 22.8516C138.57 22.4935 138.577 22.1927 138.592 21.9492C138.62 21.7057 138.678 21.3906 138.764 21.0039C138.606 20.8607 138.47 20.7389 138.355 20.6387C138.241 20.5241 138.184 20.3737 138.184 20.1875C138.184 20.0156 138.219 19.901 138.291 19.8438C138.377 19.7865 138.47 19.7507 138.57 19.7363C138.685 19.7077 138.792 19.679 138.893 19.6504C138.993 19.6217 139.064 19.5645 139.107 19.4785C139.136 19.3926 139.186 19.235 139.258 19.0059C139.344 18.7767 139.43 18.5404 139.516 18.2969C139.602 18.0391 139.68 17.8027 139.752 17.5879C139.838 17.3587 139.895 17.2012 139.924 17.1152C140.024 16.8717 140.132 16.6283 140.246 16.3848C140.375 16.127 140.518 15.8978 140.676 15.6973C140.848 15.4967 141.041 15.332 141.256 15.2031C141.485 15.0742 141.75 15.0098 142.051 15.0098C142.223 15.0098 142.43 15.0885 142.674 15.2461C142.932 15.4036 143.175 15.597 143.404 15.8262C143.633 16.041 143.827 16.2702 143.984 16.5137C144.142 16.7572 144.221 16.9648 144.221 17.1367C144.221 17.3516 144.171 17.5521 144.07 17.7383C143.97 17.9102 143.841 18.0749 143.684 18.2324C143.54 18.3757 143.383 18.5117 143.211 18.6406C143.039 18.7695 142.882 18.8913 142.738 19.0059C142.724 19.0059 142.695 19.0202 142.652 19.0488C142.609 19.0775 142.574 19.099 142.545 19.1133C142.531 19.1276 142.495 19.1634 142.438 19.2207C142.395 19.2637 142.344 19.3138 142.287 19.3711C142.23 19.4284 142.173 19.4857 142.115 19.543C142.072 19.6003 142.044 19.6361 142.029 19.6504C141.986 19.6934 141.9 19.765 141.771 19.8652C141.657 19.9512 141.528 20.0514 141.385 20.166C141.242 20.2663 141.105 20.3665 140.977 20.4668C140.862 20.5527 140.783 20.61 140.74 20.6387L140.654 20.8105C140.626 20.8678 140.597 20.9967 140.568 21.1973C140.554 21.3835 140.533 21.5983 140.504 21.8418C140.475 22.0853 140.447 22.3359 140.418 22.5938C140.404 22.8372 140.396 23.0378 140.396 23.1953C140.396 23.2096 140.404 23.224 140.418 23.2383C140.447 23.2669 140.468 23.2812 140.482 23.2812C140.597 23.2812 140.704 23.2311 140.805 23.1309C140.905 23.0306 141.012 22.959 141.127 22.916L144.564 19.7363L145.445 18.3828C145.517 18.2826 145.653 18.1751 145.854 18.0605C146.068 17.9316 146.283 17.8672 146.498 17.8672C146.713 17.8529 146.899 17.9173 147.057 18.0605C147.229 18.2038 147.314 18.4831 147.314 18.8984ZM142.588 17.2227C142.66 17.1654 142.688 17.0794 142.674 16.9648C142.66 16.8503 142.617 16.75 142.545 16.6641C142.488 16.5781 142.409 16.528 142.309 16.5137C142.208 16.485 142.115 16.5352 142.029 16.6641C141.986 16.7214 141.908 16.8359 141.793 17.0078C141.693 17.1797 141.585 17.3587 141.471 17.5449C141.37 17.7168 141.285 17.8672 141.213 17.9961C141.141 18.125 141.127 18.1751 141.17 18.1465L142.588 17.2227ZM156.875 18.8984C156.846 19.1562 156.811 19.3568 156.768 19.5C156.739 19.6432 156.682 19.7721 156.596 19.8867C156.51 20.0013 156.388 20.123 156.23 20.252C156.073 20.3665 155.858 20.5384 155.586 20.7676C155.314 20.9824 154.977 21.2689 154.576 21.627C154.175 21.985 153.688 22.4505 153.115 23.0234C152.886 23.2383 152.65 23.4603 152.406 23.6895C152.163 23.9186 151.905 24.1263 151.633 24.3125C151.375 24.4844 151.103 24.6276 150.816 24.7422C150.53 24.8568 150.229 24.9141 149.914 24.9141C149.298 24.9141 148.847 24.7064 148.561 24.291C148.274 23.8757 148.131 23.3958 148.131 22.8516C148.131 22.4935 148.138 22.1927 148.152 21.9492C148.181 21.7057 148.238 21.3906 148.324 21.0039C148.167 20.8607 148.031 20.7389 147.916 20.6387C147.801 20.5241 147.744 20.3737 147.744 20.1875C147.744 20.0156 147.78 19.901 147.852 19.8438C147.938 19.7865 148.031 19.7507 148.131 19.7363C148.245 19.7077 148.353 19.679 148.453 19.6504C148.553 19.6217 148.625 19.5645 148.668 19.4785C148.697 19.3926 148.747 19.235 148.818 19.0059C148.904 18.7767 148.99 18.5404 149.076 18.2969C149.162 18.0391 149.241 17.8027 149.312 17.5879C149.398 17.3587 149.456 17.2012 149.484 17.1152C149.585 16.8717 149.692 16.6283 149.807 16.3848C149.936 16.127 150.079 15.8978 150.236 15.6973C150.408 15.4967 150.602 15.332 150.816 15.2031C151.046 15.0742 151.311 15.0098 151.611 15.0098C151.783 15.0098 151.991 15.0885 152.234 15.2461C152.492 15.4036 152.736 15.597 152.965 15.8262C153.194 16.041 153.387 16.2702 153.545 16.5137C153.702 16.7572 153.781 16.9648 153.781 17.1367C153.781 17.3516 153.731 17.5521 153.631 17.7383C153.531 17.9102 153.402 18.0749 153.244 18.2324C153.101 18.3757 152.943 18.5117 152.771 18.6406C152.6 18.7695 152.442 18.8913 152.299 19.0059C152.285 19.0059 152.256 19.0202 152.213 19.0488C152.17 19.0775 152.134 19.099 152.105 19.1133C152.091 19.1276 152.055 19.1634 151.998 19.2207C151.955 19.2637 151.905 19.3138 151.848 19.3711C151.79 19.4284 151.733 19.4857 151.676 19.543C151.633 19.6003 151.604 19.6361 151.59 19.6504C151.547 19.6934 151.461 19.765 151.332 19.8652C151.217 19.9512 151.089 20.0514 150.945 20.166C150.802 20.2663 150.666 20.3665 150.537 20.4668C150.423 20.5527 150.344 20.61 150.301 20.6387L150.215 20.8105C150.186 20.8678 150.158 20.9967 150.129 21.1973C150.115 21.3835 150.093 21.5983 150.064 21.8418C150.036 22.0853 150.007 22.3359 149.979 22.5938C149.964 22.8372 149.957 23.0378 149.957 23.1953C149.957 23.2096 149.964 23.224 149.979 23.2383C150.007 23.2669 150.029 23.2812 150.043 23.2812C150.158 23.2812 150.265 23.2311 150.365 23.1309C150.465 23.0306 150.573 22.959 150.688 22.916L154.125 19.7363L155.006 18.3828C155.077 18.2826 155.214 18.1751 155.414 18.0605C155.629 17.9316 155.844 17.8672 156.059 17.8672C156.273 17.8529 156.46 17.9173 156.617 18.0605C156.789 18.2038 156.875 18.4831 156.875 18.8984ZM152.148 17.2227C152.22 17.1654 152.249 17.0794 152.234 16.9648C152.22 16.8503 152.177 16.75 152.105 16.6641C152.048 16.5781 151.969 16.528 151.869 16.5137C151.769 16.485 151.676 16.5352 151.59 16.6641C151.547 16.7214 151.468 16.8359 151.354 17.0078C151.253 17.1797 151.146 17.3587 151.031 17.5449C150.931 17.7168 150.845 17.8672 150.773 17.9961C150.702 18.125 150.688 18.1751 150.73 18.1465L152.148 17.2227ZM158.422 24.0762C158.393 23.5605 158.343 22.873 158.271 22.0137C158.214 21.14 158.143 20.2376 158.057 19.3066C157.985 18.3757 157.906 17.4948 157.82 16.6641C157.734 15.8333 157.663 15.1888 157.605 14.7305C157.605 14.5443 157.691 14.4225 157.863 14.3652C158.035 14.3079 158.2 14.2793 158.357 14.2793C158.558 14.2793 158.766 14.3366 158.98 14.4512C159.21 14.5658 159.353 14.7233 159.41 14.9238C159.41 14.9811 159.417 15.0885 159.432 15.2461C159.446 15.3893 159.453 15.5397 159.453 15.6973C159.467 15.8548 159.482 16.0124 159.496 16.1699C159.51 16.3132 159.518 16.4134 159.518 16.4707C159.518 16.5566 159.518 16.6211 159.518 16.6641C159.518 16.707 159.518 16.75 159.518 16.793C159.518 16.8216 159.525 16.8574 159.539 16.9004C159.553 16.9434 159.575 17.015 159.604 17.1152C159.632 17.0866 159.661 17.0508 159.689 17.0078C159.732 16.9648 159.761 16.9362 159.775 16.9219C160.005 16.5924 160.227 16.306 160.441 16.0625C160.656 15.8047 160.878 15.5684 161.107 15.3535C161.337 15.1243 161.587 14.888 161.859 14.6445C162.146 14.3867 162.475 14.0931 162.848 13.7637C162.934 13.6921 162.998 13.6419 163.041 13.6133C163.084 13.5703 163.12 13.5417 163.148 13.5273C163.191 13.4987 163.234 13.4844 163.277 13.4844C163.32 13.4701 163.378 13.4629 163.449 13.4629C163.693 13.4629 163.936 13.5488 164.18 13.7207C164.438 13.8783 164.566 14.1003 164.566 14.3867C164.566 14.487 164.531 14.5944 164.459 14.709C164.387 14.8092 164.301 14.9095 164.201 15.0098C164.101 15.0957 163.993 15.1745 163.879 15.2461C163.779 15.3177 163.686 15.3678 163.6 15.3965C163.227 15.7259 162.833 16.1055 162.418 16.5352C162.003 16.9505 161.616 17.4017 161.258 17.8887C160.9 18.3757 160.606 18.8841 160.377 19.4141C160.148 19.944 160.033 20.474 160.033 21.0039C160.033 21.4909 160.069 21.9707 160.141 22.4434C160.212 22.916 160.248 23.3958 160.248 23.8828V24.6348C160.133 24.7493 160.033 24.8424 159.947 24.9141C159.861 24.9857 159.74 25.0215 159.582 25.0215C159.339 25.0215 159.102 24.9212 158.873 24.7207C158.644 24.5059 158.493 24.291 158.422 24.0762ZM166.135 24.1836C165.992 22.7513 165.87 21.5267 165.77 20.5098C165.669 19.4928 165.583 18.6406 165.512 17.9531C165.44 17.2656 165.376 16.7214 165.318 16.3203C165.275 15.9049 165.24 15.597 165.211 15.3965C165.182 15.1816 165.161 15.0384 165.146 14.9668C165.132 14.8952 165.125 14.8522 165.125 14.8379V14.752C165.125 14.5944 165.189 14.4655 165.318 14.3652C165.462 14.2507 165.605 14.1934 165.748 14.1934C165.963 14.1934 166.192 14.2292 166.436 14.3008C166.693 14.3724 166.865 14.5228 166.951 14.752C167.08 15.4538 167.166 16.1628 167.209 16.8789C167.266 17.5951 167.309 18.3112 167.338 19.0273C167.381 19.7292 167.431 20.4382 167.488 21.1543C167.56 21.8704 167.682 22.5794 167.854 23.2812C167.854 23.3099 167.861 23.3672 167.875 23.4531C167.904 23.5391 167.925 23.6322 167.939 23.7324C167.968 23.8327 167.99 23.9258 168.004 24.0117C168.018 24.0977 168.025 24.1549 168.025 24.1836V24.2266C168.025 24.2409 168.033 24.2552 168.047 24.2695C168.047 24.4414 167.968 24.6133 167.811 24.7852C167.653 24.957 167.488 25.0286 167.316 25C167.273 24.9857 167.166 24.9642 166.994 24.9355C166.837 24.8926 166.729 24.8568 166.672 24.8281C166.629 24.8138 166.572 24.7852 166.5 24.7422C166.428 24.6849 166.357 24.6276 166.285 24.5703C166.228 24.513 166.178 24.4486 166.135 24.377C166.092 24.3053 166.092 24.2409 166.135 24.1836ZM164.932 8.52148C164.932 8.42122 165.01 8.33529 165.168 8.26367C165.34 8.17773 165.469 8.13477 165.555 8.13477C165.77 8.13477 166.006 8.19922 166.264 8.32812C166.536 8.44271 166.672 8.62174 166.672 8.86523C166.672 9.10872 166.636 9.27344 166.564 9.35938C166.507 9.44531 166.357 9.48828 166.113 9.48828C165.855 9.48828 165.59 9.40234 165.318 9.23047C165.061 9.05859 164.932 8.82227 164.932 8.52148ZM174.965 24.2695C174.764 23.9831 174.592 23.5892 174.449 23.0879C174.32 22.5723 174.191 22.0352 174.062 21.4766C173.948 20.9036 173.84 20.3522 173.74 19.8223C173.64 19.278 173.533 18.8483 173.418 18.5332C173.318 18.2038 173.203 18.0176 173.074 17.9746C172.945 17.9316 172.795 18.125 172.623 18.5547L170.754 24.3125C170.682 24.513 170.596 24.6562 170.496 24.7422C170.396 24.8138 170.231 24.8496 170.002 24.8496C169.887 24.8496 169.766 24.8353 169.637 24.8066C169.508 24.7637 169.386 24.7064 169.271 24.6348C169.157 24.5632 169.057 24.4772 168.971 24.377C168.899 24.2767 168.856 24.1621 168.842 24.0332C168.885 23.8613 168.921 23.5462 168.949 23.0879C168.992 22.6296 169.021 22.0996 169.035 21.498C169.049 20.8965 169.057 20.2663 169.057 19.6074C169.071 18.9342 169.071 18.3112 169.057 17.7383C169.057 17.151 169.049 16.6497 169.035 16.2344C169.021 15.8047 169.007 15.5254 168.992 15.3965C168.992 15.2533 168.992 15.11 168.992 14.9668C169.007 14.8092 169.028 14.666 169.057 14.5371C169.1 14.4082 169.164 14.3079 169.25 14.2363C169.35 14.1504 169.501 14.1074 169.701 14.1074C169.973 14.1074 170.224 14.222 170.453 14.4512C170.697 14.6803 170.818 14.9238 170.818 15.1816C170.818 15.554 170.797 15.9264 170.754 16.2988C170.725 16.6569 170.711 17.0221 170.711 17.3945C170.711 17.6237 170.711 17.8171 170.711 17.9746C170.711 18.1322 170.74 18.3255 170.797 18.5547C170.84 18.4401 170.911 18.2396 171.012 17.9531C171.112 17.6667 171.219 17.3659 171.334 17.0508C171.463 16.7357 171.577 16.4421 171.678 16.1699C171.778 15.8835 171.85 15.6829 171.893 15.5684C171.993 15.2819 172.143 15.0098 172.344 14.752C172.544 14.4798 172.809 14.3294 173.139 14.3008C173.354 14.2865 173.547 14.3438 173.719 14.4727C173.905 14.6016 174.062 14.7734 174.191 14.9883C174.32 15.1888 174.428 15.4036 174.514 15.6328C174.6 15.8477 174.664 16.0339 174.707 16.1914L175.867 21.541L176.77 23.9902C176.784 24.0046 176.791 24.0475 176.791 24.1191C176.791 24.1764 176.791 24.2194 176.791 24.248C176.791 24.4199 176.748 24.5918 176.662 24.7637C176.59 24.9212 176.454 25 176.254 25C176.01 25 175.76 24.9355 175.502 24.8066C175.244 24.6634 175.065 24.4844 174.965 24.2695ZM178.789 32.498C178.732 32.3405 178.732 32.1615 178.789 31.9609C178.861 31.7604 178.997 31.6315 179.197 31.5742C179.527 31.7174 179.87 31.8105 180.229 31.8535C180.587 31.8965 180.945 31.9036 181.303 31.875C181.675 31.8464 182.04 31.7891 182.398 31.7031C182.757 31.6172 183.1 31.5169 183.43 31.4023C183.759 31.1302 183.988 30.7721 184.117 30.3281C184.246 29.8984 184.296 29.304 184.268 28.5449C184.239 27.8001 184.139 26.862 183.967 25.7305C183.809 24.6133 183.602 23.2383 183.344 21.6055C183.344 21.5625 183.344 21.498 183.344 21.4121C183.358 21.3262 183.358 21.2474 183.344 21.1758C183.329 21.0898 183.301 21.0254 183.258 20.9824C183.229 20.9395 183.186 20.9395 183.129 20.9824C182.943 21.3405 182.721 21.7344 182.463 22.1641C182.219 22.5794 181.933 22.9733 181.604 23.3457C181.288 23.7038 180.93 24.0046 180.529 24.248C180.143 24.4915 179.706 24.6133 179.219 24.6133C178.789 24.6133 178.41 24.4915 178.08 24.248C177.765 23.9902 177.607 23.625 177.607 23.1523C177.607 22.7943 177.679 22.3431 177.822 21.7988C177.98 21.2546 178.188 20.6816 178.445 20.0801C178.703 19.4642 179.004 18.8555 179.348 18.2539C179.691 17.6523 180.049 17.1081 180.422 16.6211C180.794 16.1341 181.174 15.7402 181.561 15.4395C181.947 15.1243 182.32 14.9668 182.678 14.9668C182.821 14.9668 183.007 14.9954 183.236 15.0527C183.48 15.0957 183.709 15.1673 183.924 15.2676C184.153 15.3678 184.346 15.4824 184.504 15.6113C184.676 15.7402 184.762 15.8906 184.762 16.0625V17.8027L186.158 27.9434C186.158 28.5163 186.144 29.0605 186.115 29.5762C186.101 30.1061 186.008 30.5931 185.836 31.0371C185.678 31.4811 185.421 31.875 185.062 32.2188C184.704 32.5625 184.189 32.8418 183.516 33.0566C183.43 33.0996 183.251 33.1354 182.979 33.1641C182.706 33.1927 182.391 33.2142 182.033 33.2285C181.689 33.2428 181.317 33.2428 180.916 33.2285C180.529 33.2142 180.171 33.1784 179.842 33.1211C179.527 33.0781 179.269 33.0065 179.068 32.9062C178.868 32.806 178.775 32.6699 178.789 32.498ZM182.141 16.8789C181.997 17.0365 181.804 17.2871 181.561 17.6309C181.331 17.9746 181.095 18.3542 180.852 18.7695C180.608 19.1849 180.365 19.6217 180.121 20.0801C179.892 20.5241 179.706 20.9395 179.562 21.3262C179.419 21.7129 179.326 22.0423 179.283 22.3145C179.255 22.5866 179.319 22.7513 179.477 22.8086C179.777 22.651 180.1 22.3932 180.443 22.0352C180.787 21.6628 181.109 21.2546 181.41 20.8105C181.725 20.3522 181.997 19.8867 182.227 19.4141C182.47 18.9271 182.635 18.4902 182.721 18.1035C182.821 17.7168 182.828 17.4089 182.742 17.1797C182.671 16.9362 182.47 16.8359 182.141 16.8789Z" fill="black"/>
<defs>
<filter id="filter0_i_4598_1930" x="1.95215" y="1.96155" width="200.593" height="33.5385" filterUnits="userSpaceOnUse" color-interpolation-filters="sRGB">
<feFlood flood-opacity="0" result="BackgroundImageFix"/>
<feBlend mode="normal" in="SourceGraphic" in2="BackgroundImageFix" result="shape"/>
<feColorMatrix in="SourceAlpha" type="matrix" values="0 0 0 0 0 0 0 0 0 0 0 0 0 0 0 0 0 0 127 0" result="hardAlpha"/>
<feOffset dx="4" dy="4"/>
<feComposite in2="hardAlpha" operator="arithmetic" k2="-1" k3="1"/>
<feColorMatrix type="matrix" values="0 0 0 0 0.694118 0 0 0 0 0.721569 0 0 0 0 0.741176 0 0 0 1 0"/>
<feBlend mode="multiply" in2="shape" result="effect1_innerShadow_4598_1930"/>
</filter>
</defs>
</svg>
