<svg width="122" height="37" viewBox="0 0 122 37" fill="none" xmlns="http://www.w3.org/2000/svg">
<g filter="url(#filter0_i_4585_2656)">
<path d="M116.022 7.61228C119.541 11.6933 119.541 20.3656 119.541 20.3656C119.731 28.2124 113.276 34.5 105.02 34.5C105.02 31.5523 105.02 2.00081 105.02 2.00081C108.163 1.66061 112.502 3.53121 116.022 7.61228Z" fill="white"/>
<path d="M18.7676 2H105.02V34.5C105.02 34.5 92.2256 34.2049 78.0889 34.5C70.2008 34.6647 53.6394 35.5 47.7152 35.5C31.1737 35.5 18.7676 34.5 18.7676 34.5V2Z" fill="white"/>
<path d="M5.14517 27.9432C0.335274 22.3612 1.47845 11.5 5.14549 8C8.81252 4.5 8.60485 4.5 11.9565 3.5C15.3082 2.5 18.7674 2 18.7674 2V34.5C13.1929 34.5 9.95507 33.5252 5.14517 27.9432Z" fill="white"/>
</g>
<path d="M18.7676 34.5C33.1149 34.5 32.6253 35 46.9651 35C61.3125 35 63.0414 34.4063 77.3887 34.4063C91.7361 34.4063 87.5287 34 101.876 34" stroke="black" stroke-width="3" stroke-miterlimit="10" stroke-linecap="round" stroke-linejoin="round"/>
<path d="M2.00244 17.5C2.00244 7 9.6485 2 18.555 2C11.2202 2 2.52635 8 2.52635 17.5C2.52635 31.5 14.5763 34.5 18.2437 34.5C10.385 34.5 2.00244 28 2.00244 17.5Z" stroke="black" stroke-width="3" stroke-linecap="round" stroke-linejoin="round"/>
<path d="M120 19C120 29.5 110.782 34 101.876 34C109.211 34 118.33 30.5 119.165 20.5C120.33 6.54422 109.735 2 103.759 1.99999C111.617 2 120 8.49998 120 19Z" stroke="black" stroke-width="3" stroke-linecap="round" stroke-linejoin="round"/>
<path d="M18.7676 2C33.093 2 31.6112 2 45.9291 2C60.2545 2 60.2982 1.5 74.6236 1.5C88.9491 1.5 89.6463 2.00001 103.972 2.00001" stroke="black" stroke-width="3" stroke-miterlimit="10" stroke-linecap="round" stroke-linejoin="round"/>
<path d="M21.7168 24.2266C21.946 23.9115 22.1966 23.6751 22.4688 23.5176C22.7552 23.36 23.0417 23.2311 23.3281 23.1309C23.6289 23.0306 23.9225 22.9375 24.209 22.8516C24.5098 22.7513 24.8034 22.5938 25.0898 22.3789C25.2474 22.293 25.4694 22.1641 25.7559 21.9922C26.0423 21.8203 26.3216 21.6341 26.5938 21.4336C26.8802 21.2188 27.1237 21.0111 27.3242 20.8105C27.5391 20.61 27.6465 20.4382 27.6465 20.2949C27.6465 20.2806 27.6393 20.2734 27.625 20.2734C27.5964 20.2734 27.582 20.2663 27.582 20.252L27.5391 20.209C27.4674 20.1803 27.3529 20.1445 27.1953 20.1016C27.0378 20.0586 26.9447 20.0299 26.916 20.0156C25.0684 19.8008 23.5788 19.6146 22.4473 19.457C21.3301 19.2852 20.4635 19.1061 19.8477 18.9199C19.2461 18.7337 18.8451 18.5189 18.6445 18.2754C18.444 18.0319 18.3438 17.724 18.3438 17.3516C18.3438 17.2083 18.3724 17.0508 18.4297 16.8789C18.487 16.707 18.5514 16.5352 18.623 16.3633C18.709 16.1914 18.7949 16.0339 18.8809 15.8906C18.9668 15.7474 19.0456 15.6328 19.1172 15.5469C19.3464 15.2604 19.6471 15.0026 20.0195 14.7734C20.3919 14.5443 20.793 14.3438 21.2227 14.1719C21.6523 14 22.082 13.8496 22.5117 13.7207C22.9557 13.5918 23.3568 13.4772 23.7148 13.377C24.1159 13.3483 24.5169 13.2552 24.918 13.0977C25.3333 12.9258 25.7415 12.8112 26.1426 12.7539C26.3431 12.7539 26.5078 12.8327 26.6367 12.9902C26.7656 13.1478 26.8301 13.3125 26.8301 13.4844C26.8301 13.7279 26.7799 13.9141 26.6797 14.043C26.5938 14.1576 26.472 14.2507 26.3145 14.3223C26.1712 14.3796 26.0065 14.4297 25.8203 14.4727C25.6341 14.5013 25.4479 14.5371 25.2617 14.5801C25.1471 14.6087 24.9896 14.6517 24.7891 14.709C24.5885 14.752 24.388 14.8021 24.1875 14.8594C23.987 14.9167 23.8079 14.9668 23.6504 15.0098C23.4928 15.0527 23.3997 15.0814 23.3711 15.0957C22.9271 15.2819 22.5046 15.4609 22.1035 15.6328C21.7168 15.7904 21.373 15.9551 21.0723 16.127C20.7858 16.2988 20.5566 16.485 20.3848 16.6855C20.2272 16.8717 20.1556 17.0794 20.1699 17.3086V17.3301C20.3132 17.5306 20.6354 17.681 21.1367 17.7812C21.638 17.8815 22.2253 17.9674 22.8984 18.0391C23.5859 18.1107 24.3021 18.1823 25.0469 18.2539C25.806 18.3255 26.5007 18.4329 27.1309 18.5762C27.7611 18.7194 28.2839 18.9128 28.6992 19.1562C29.1146 19.3997 29.3294 19.7292 29.3438 20.1445C29.3438 20.3021 29.3079 20.4883 29.2363 20.7031C29.179 20.918 29.0931 21.0827 28.9785 21.1973C28.6204 21.5983 28.1908 22.0137 27.6895 22.4434C27.2025 22.873 26.6725 23.2741 26.0996 23.6465C25.5267 24.0046 24.9323 24.3125 24.3164 24.5703C23.7148 24.8138 23.1204 24.957 22.5332 25C22.3327 25 22.1465 24.9284 21.9746 24.7852C21.8027 24.6276 21.7168 24.4414 21.7168 24.2266ZM30.9766 21.1328C30.7044 21.0326 30.4538 20.9108 30.2246 20.7676C30.0098 20.6243 29.9023 20.388 29.9023 20.0586C29.9023 19.9727 29.9238 19.9154 29.9668 19.8867C30.0098 19.8581 30.0456 19.8151 30.0742 19.7578C30.1029 19.7148 30.1602 19.6361 30.2461 19.5215C30.332 19.4069 30.4251 19.2852 30.5254 19.1562C30.6257 19.013 30.7188 18.8841 30.8047 18.7695C30.8906 18.6406 30.9479 18.5547 30.9766 18.5117C30.9766 18.3255 30.9622 18.1035 30.9336 17.8457C30.9193 17.5736 30.9264 17.3229 30.9551 17.0938C30.998 16.8503 31.084 16.6497 31.2129 16.4922C31.3418 16.3203 31.5566 16.2344 31.8574 16.2344C32.0293 16.2344 32.1725 16.2988 32.2871 16.4277C32.4017 16.5423 32.5449 16.5996 32.7168 16.5996H32.8027C33.39 16.1413 33.9915 15.7402 34.6074 15.3965C35.2376 15.0384 35.9395 14.8594 36.7129 14.8594C37.2142 14.8594 37.6224 15.0098 37.9375 15.3105C38.2669 15.597 38.4316 16.0052 38.4316 16.5352C38.4316 17.194 38.2812 17.8743 37.9805 18.5762C37.6797 19.278 37.3001 19.9655 36.8418 20.6387C36.3978 21.2975 35.9108 21.9206 35.3809 22.5078C34.8652 23.0951 34.3926 23.6035 33.9629 24.0332C33.9199 24.0905 33.8555 24.1549 33.7695 24.2266C33.6836 24.2839 33.6048 24.3483 33.5332 24.4199C33.4473 24.4915 33.3542 24.5775 33.2539 24.6777L33.082 29.6191C33.082 29.748 33.0749 29.8841 33.0605 30.0273C33.0605 30.1706 33.0319 30.2995 32.9746 30.4141C32.9316 30.543 32.86 30.6432 32.7598 30.7148C32.6738 30.8008 32.5449 30.8438 32.373 30.8438C32.2871 30.8438 32.1725 30.8223 32.0293 30.7793C31.8861 30.7507 31.75 30.7005 31.6211 30.6289C31.4922 30.5573 31.3776 30.4714 31.2773 30.3711C31.1914 30.2708 31.1484 30.1562 31.1484 30.0273L30.9766 21.1328ZM32.9746 22.4863H33.0605C33.0749 22.4863 33.1178 22.4434 33.1895 22.3574C33.2754 22.2715 33.3685 22.1712 33.4688 22.0566C33.5833 21.9421 33.6908 21.8275 33.791 21.7129C33.9056 21.584 33.9915 21.4837 34.0488 21.4121C34.4785 21.097 34.8724 20.7031 35.2305 20.2305C35.5885 19.7578 35.875 19.2852 36.0898 18.8125C36.319 18.3255 36.4551 17.8887 36.498 17.502C36.5553 17.1152 36.4909 16.8503 36.3047 16.707C36.1328 16.5495 35.8249 16.5638 35.3809 16.75C34.9512 16.9362 34.3639 17.3659 33.6191 18.0391C33.4473 18.1823 33.2897 18.347 33.1465 18.5332C33.0033 18.7194 32.9173 18.9271 32.8887 19.1562L32.9746 22.4863ZM40.3223 24.0762C40.2936 23.5605 40.2435 22.873 40.1719 22.0137C40.1146 21.14 40.043 20.2376 39.957 19.3066C39.8854 18.3757 39.8066 17.4948 39.7207 16.6641C39.6348 15.8333 39.5632 15.1888 39.5059 14.7305C39.5059 14.5443 39.5918 14.4225 39.7637 14.3652C39.9355 14.3079 40.1003 14.2793 40.2578 14.2793C40.4583 14.2793 40.666 14.3366 40.8809 14.4512C41.11 14.5658 41.2533 14.7233 41.3105 14.9238C41.3105 14.9811 41.3177 15.0885 41.332 15.2461C41.3464 15.3893 41.3535 15.5397 41.3535 15.6973C41.3678 15.8548 41.3822 16.0124 41.3965 16.1699C41.4108 16.3132 41.418 16.4134 41.418 16.4707C41.418 16.5566 41.418 16.6211 41.418 16.6641C41.418 16.707 41.418 16.75 41.418 16.793C41.418 16.8216 41.4251 16.8574 41.4395 16.9004C41.4538 16.9434 41.4753 17.015 41.5039 17.1152C41.5326 17.0866 41.5612 17.0508 41.5898 17.0078C41.6328 16.9648 41.6615 16.9362 41.6758 16.9219C41.9049 16.5924 42.127 16.306 42.3418 16.0625C42.5566 15.8047 42.7786 15.5684 43.0078 15.3535C43.237 15.1243 43.4876 14.888 43.7598 14.6445C44.0462 14.3867 44.3757 14.0931 44.748 13.7637C44.834 13.6921 44.8984 13.6419 44.9414 13.6133C44.9844 13.5703 45.0202 13.5417 45.0488 13.5273C45.0918 13.4987 45.1348 13.4844 45.1777 13.4844C45.2207 13.4701 45.278 13.4629 45.3496 13.4629C45.5931 13.4629 45.8366 13.5488 46.0801 13.7207C46.3379 13.8783 46.4668 14.1003 46.4668 14.3867C46.4668 14.487 46.431 14.5944 46.3594 14.709C46.2878 14.8092 46.2018 14.9095 46.1016 15.0098C46.0013 15.0957 45.8939 15.1745 45.7793 15.2461C45.679 15.3177 45.5859 15.3678 45.5 15.3965C45.1276 15.7259 44.7337 16.1055 44.3184 16.5352C43.903 16.9505 43.5163 17.4017 43.1582 17.8887C42.8001 18.3757 42.5065 18.8841 42.2773 19.4141C42.0482 19.944 41.9336 20.474 41.9336 21.0039C41.9336 21.4909 41.9694 21.9707 42.041 22.4434C42.1126 22.916 42.1484 23.3958 42.1484 23.8828V24.6348C42.0339 24.7493 41.9336 24.8424 41.8477 24.9141C41.7617 24.9857 41.64 25.0215 41.4824 25.0215C41.2389 25.0215 41.0026 24.9212 40.7734 24.7207C40.5443 24.5059 40.3939 24.291 40.3223 24.0762ZM48.0352 24.1836C47.8919 22.7513 47.7702 21.5267 47.6699 20.5098C47.5697 19.4928 47.4837 18.6406 47.4121 17.9531C47.3405 17.2656 47.276 16.7214 47.2188 16.3203C47.1758 15.9049 47.14 15.597 47.1113 15.3965C47.0827 15.1816 47.0612 15.0384 47.0469 14.9668C47.0326 14.8952 47.0254 14.8522 47.0254 14.8379V14.752C47.0254 14.5944 47.0898 14.4655 47.2188 14.3652C47.362 14.2507 47.5052 14.1934 47.6484 14.1934C47.8633 14.1934 48.0924 14.2292 48.3359 14.3008C48.5938 14.3724 48.7656 14.5228 48.8516 14.752C48.9805 15.4538 49.0664 16.1628 49.1094 16.8789C49.1667 17.5951 49.2096 18.3112 49.2383 19.0273C49.2812 19.7292 49.3314 20.4382 49.3887 21.1543C49.4603 21.8704 49.582 22.5794 49.7539 23.2812C49.7539 23.3099 49.7611 23.3672 49.7754 23.4531C49.804 23.5391 49.8255 23.6322 49.8398 23.7324C49.8685 23.8327 49.89 23.9258 49.9043 24.0117C49.9186 24.0977 49.9258 24.1549 49.9258 24.1836V24.2266C49.9258 24.2409 49.9329 24.2552 49.9473 24.2695C49.9473 24.4414 49.8685 24.6133 49.7109 24.7852C49.5534 24.957 49.3887 25.0286 49.2168 25C49.1738 24.9857 49.0664 24.9642 48.8945 24.9355C48.737 24.8926 48.6296 24.8568 48.5723 24.8281C48.5293 24.8138 48.472 24.7852 48.4004 24.7422C48.3288 24.6849 48.2572 24.6276 48.1855 24.5703C48.1283 24.513 48.0781 24.4486 48.0352 24.377C47.9922 24.3053 47.9922 24.2409 48.0352 24.1836ZM46.832 8.52148C46.832 8.42122 46.9108 8.33529 47.0684 8.26367C47.2402 8.17773 47.3691 8.13477 47.4551 8.13477C47.6699 8.13477 47.9062 8.19922 48.1641 8.32812C48.4362 8.44271 48.5723 8.62174 48.5723 8.86523C48.5723 9.10872 48.5365 9.27344 48.4648 9.35938C48.4076 9.44531 48.2572 9.48828 48.0137 9.48828C47.7559 9.48828 47.4909 9.40234 47.2188 9.23047C46.9609 9.05859 46.832 8.82227 46.832 8.52148ZM56.8652 24.2695C56.6647 23.9831 56.4928 23.5892 56.3496 23.0879C56.2207 22.5723 56.0918 22.0352 55.9629 21.4766C55.8483 20.9036 55.7409 20.3522 55.6406 19.8223C55.5404 19.278 55.4329 18.8483 55.3184 18.5332C55.2181 18.2038 55.1035 18.0176 54.9746 17.9746C54.8457 17.9316 54.6953 18.125 54.5234 18.5547L52.6543 24.3125C52.5827 24.513 52.4967 24.6562 52.3965 24.7422C52.2962 24.8138 52.1315 24.8496 51.9023 24.8496C51.7878 24.8496 51.666 24.8353 51.5371 24.8066C51.4082 24.7637 51.2865 24.7064 51.1719 24.6348C51.0573 24.5632 50.957 24.4772 50.8711 24.377C50.7995 24.2767 50.7565 24.1621 50.7422 24.0332C50.7852 23.8613 50.821 23.5462 50.8496 23.0879C50.8926 22.6296 50.9212 22.0996 50.9355 21.498C50.9499 20.8965 50.957 20.2663 50.957 19.6074C50.9714 18.9342 50.9714 18.3112 50.957 17.7383C50.957 17.151 50.9499 16.6497 50.9355 16.2344C50.9212 15.8047 50.9069 15.5254 50.8926 15.3965C50.8926 15.2533 50.8926 15.11 50.8926 14.9668C50.9069 14.8092 50.9284 14.666 50.957 14.5371C51 14.4082 51.0645 14.3079 51.1504 14.2363C51.2507 14.1504 51.401 14.1074 51.6016 14.1074C51.8737 14.1074 52.1243 14.222 52.3535 14.4512C52.597 14.6803 52.7188 14.9238 52.7188 15.1816C52.7188 15.554 52.6973 15.9264 52.6543 16.2988C52.6257 16.6569 52.6113 17.0221 52.6113 17.3945C52.6113 17.6237 52.6113 17.8171 52.6113 17.9746C52.6113 18.1322 52.64 18.3255 52.6973 18.5547C52.7402 18.4401 52.8118 18.2396 52.9121 17.9531C53.0124 17.6667 53.1198 17.3659 53.2344 17.0508C53.3633 16.7357 53.4779 16.4421 53.5781 16.1699C53.6784 15.8835 53.75 15.6829 53.793 15.5684C53.8932 15.2819 54.0436 15.0098 54.2441 14.752C54.4447 14.4798 54.7096 14.3294 55.0391 14.3008C55.2539 14.2865 55.4473 14.3438 55.6191 14.4727C55.8053 14.6016 55.9629 14.7734 56.0918 14.9883C56.2207 15.1888 56.3281 15.4036 56.4141 15.6328C56.5 15.8477 56.5645 16.0339 56.6074 16.1914L57.7676 21.541L58.6699 23.9902C58.6842 24.0046 58.6914 24.0475 58.6914 24.1191C58.6914 24.1764 58.6914 24.2194 58.6914 24.248C58.6914 24.4199 58.6484 24.5918 58.5625 24.7637C58.4909 24.9212 58.3548 25 58.1543 25C57.9108 25 57.6602 24.9355 57.4023 24.8066C57.1445 24.6634 56.9655 24.4844 56.8652 24.2695ZM60.6895 32.498C60.6322 32.3405 60.6322 32.1615 60.6895 31.9609C60.7611 31.7604 60.8971 31.6315 61.0977 31.5742C61.4271 31.7174 61.7708 31.8105 62.1289 31.8535C62.487 31.8965 62.8451 31.9036 63.2031 31.875C63.5755 31.8464 63.9408 31.7891 64.2988 31.7031C64.6569 31.6172 65.0007 31.5169 65.3301 31.4023C65.6595 31.1302 65.8887 30.7721 66.0176 30.3281C66.1465 29.8984 66.1966 29.304 66.168 28.5449C66.1393 27.8001 66.0391 26.862 65.8672 25.7305C65.7096 24.6133 65.502 23.2383 65.2441 21.6055C65.2441 21.5625 65.2441 21.498 65.2441 21.4121C65.2585 21.3262 65.2585 21.2474 65.2441 21.1758C65.2298 21.0898 65.2012 21.0254 65.1582 20.9824C65.1296 20.9395 65.0866 20.9395 65.0293 20.9824C64.8431 21.3405 64.6211 21.7344 64.3633 22.1641C64.1198 22.5794 63.8333 22.9733 63.5039 23.3457C63.1888 23.7038 62.8307 24.0046 62.4297 24.248C62.043 24.4915 61.6061 24.6133 61.1191 24.6133C60.6895 24.6133 60.3099 24.4915 59.9805 24.248C59.6654 23.9902 59.5078 23.625 59.5078 23.1523C59.5078 22.7943 59.5794 22.3431 59.7227 21.7988C59.8802 21.2546 60.0879 20.6816 60.3457 20.0801C60.6035 19.4642 60.9043 18.8555 61.248 18.2539C61.5918 17.6523 61.9499 17.1081 62.3223 16.6211C62.6947 16.1341 63.0742 15.7402 63.4609 15.4395C63.8477 15.1243 64.2201 14.9668 64.5781 14.9668C64.7214 14.9668 64.9076 14.9954 65.1367 15.0527C65.3802 15.0957 65.6094 15.1673 65.8242 15.2676C66.0534 15.3678 66.2467 15.4824 66.4043 15.6113C66.5762 15.7402 66.6621 15.8906 66.6621 16.0625V17.8027L68.0586 27.9434C68.0586 28.5163 68.0443 29.0605 68.0156 29.5762C68.0013 30.1061 67.9082 30.5931 67.7363 31.0371C67.5788 31.4811 67.321 31.875 66.9629 32.2188C66.6048 32.5625 66.0892 32.8418 65.416 33.0566C65.3301 33.0996 65.151 33.1354 64.8789 33.1641C64.6068 33.1927 64.2917 33.2142 63.9336 33.2285C63.5898 33.2428 63.2174 33.2428 62.8164 33.2285C62.4297 33.2142 62.0716 33.1784 61.7422 33.1211C61.4271 33.0781 61.1693 33.0065 60.9688 32.9062C60.7682 32.806 60.6751 32.6699 60.6895 32.498ZM64.041 16.8789C63.8978 17.0365 63.7044 17.2871 63.4609 17.6309C63.2318 17.9746 62.9954 18.3542 62.752 18.7695C62.5085 19.1849 62.265 19.6217 62.0215 20.0801C61.7923 20.5241 61.6061 20.9395 61.4629 21.3262C61.3197 21.7129 61.2266 22.0423 61.1836 22.3145C61.1549 22.5866 61.2194 22.7513 61.377 22.8086C61.6777 22.651 62 22.3932 62.3438 22.0352C62.6875 21.6628 63.0098 21.2546 63.3105 20.8105C63.6257 20.3522 63.8978 19.8867 64.127 19.4141C64.3704 18.9271 64.5352 18.4902 64.6211 18.1035C64.7214 17.7168 64.7285 17.4089 64.6426 17.1797C64.571 16.9362 64.3704 16.8359 64.041 16.8789ZM69.9707 20.6387C69.9421 20.0371 69.9062 19.4069 69.8633 18.748C69.8346 18.0892 69.7845 17.4518 69.7129 16.8359C69.6556 16.8359 69.5625 16.8359 69.4336 16.8359C69.3047 16.8216 69.1758 16.793 69.0469 16.75C68.918 16.707 68.8034 16.6569 68.7031 16.5996C68.6029 16.528 68.5527 16.4421 68.5527 16.3418C68.5527 16.1842 68.5885 16.0267 68.6602 15.8691C68.7461 15.6973 68.8464 15.5397 68.9609 15.3965C69.0755 15.2389 69.1901 15.1029 69.3047 14.9883C69.4336 14.8594 69.541 14.752 69.627 14.666V11.4004C69.627 11.2142 69.7201 11.0781 69.9062 10.9922C70.0924 10.8919 70.2643 10.8418 70.4219 10.8418C70.8229 10.8418 71.0807 10.9349 71.1953 11.1211C71.3099 11.3073 71.3743 11.5221 71.3887 11.7656C71.403 11.9948 71.403 12.2168 71.3887 12.4316C71.3887 12.6465 71.4674 12.7826 71.625 12.8398C71.8828 12.7109 72.1263 12.5749 72.3555 12.4316C72.5846 12.2884 72.8066 12.1595 73.0215 12.0449C73.2507 11.9303 73.4798 11.8372 73.709 11.7656C73.9525 11.694 74.2103 11.6582 74.4824 11.6582C74.6113 11.6582 74.7474 11.6725 74.8906 11.7012C75.0482 11.7298 75.1914 11.7799 75.3203 11.8516C75.4492 11.9089 75.5566 11.9948 75.6426 12.1094C75.7285 12.2096 75.7715 12.3457 75.7715 12.5176C75.7715 12.8327 75.7285 13.1263 75.6426 13.3984C75.5566 13.6562 75.4492 13.9141 75.3203 14.1719C75.1914 14.4154 75.0553 14.6589 74.9121 14.9023C74.7689 15.1458 74.64 15.3965 74.5254 15.6543C74.5827 15.6543 74.6901 15.6686 74.8477 15.6973C75.0052 15.7116 75.1699 15.7259 75.3418 15.7402C75.5137 15.7546 75.6784 15.776 75.8359 15.8047C75.9935 15.819 76.1009 15.8262 76.1582 15.8262C76.3874 15.8691 76.6523 15.9408 76.9531 16.041C77.2682 16.1413 77.5547 16.2773 77.8125 16.4492C78.0846 16.6211 78.3138 16.8288 78.5 17.0723C78.6862 17.3014 78.7793 17.5664 78.7793 17.8672C78.7793 18.1966 78.7148 18.526 78.5859 18.8555C78.4714 19.1849 78.3281 19.4785 78.1562 19.7363C78.099 19.8223 78.013 19.944 77.8984 20.1016C77.7839 20.2591 77.6693 20.4167 77.5547 20.5742C77.4401 20.7318 77.3327 20.875 77.2324 21.0039C77.1465 21.1185 77.0964 21.1829 77.082 21.1973L72.9785 24.7422C72.8353 24.8568 72.7135 24.9355 72.6133 24.9785C72.513 25.0072 72.3913 25.0215 72.248 25.0215C72.1478 25.0215 71.9974 25.0143 71.7969 25C71.6107 24.9714 71.4173 24.9355 71.2168 24.8926C71.0163 24.8496 70.8372 24.7923 70.6797 24.7207C70.5365 24.6491 70.4577 24.556 70.4434 24.4414L69.9707 20.8105V20.6387ZM72.0762 23.1094H72.0977C72.1693 23.1094 72.2767 23.0879 72.4199 23.0449C72.5632 23.002 72.6562 22.959 72.6992 22.916C72.7565 22.873 72.8496 22.7943 72.9785 22.6797C73.1217 22.5651 73.2721 22.4434 73.4297 22.3145C73.5872 22.1855 73.7305 22.0638 73.8594 21.9492C74.0026 21.8346 74.11 21.7559 74.1816 21.7129C74.4251 21.5124 74.7116 21.2689 75.041 20.9824C75.3848 20.696 75.707 20.3952 76.0078 20.0801C76.3086 19.7507 76.5592 19.4141 76.7598 19.0703C76.9746 18.7266 77.082 18.39 77.082 18.0605C77.082 17.8457 77.0104 17.681 76.8672 17.5664C76.724 17.4375 76.5449 17.3372 76.3301 17.2656C76.1296 17.194 75.9147 17.151 75.6855 17.1367C75.4707 17.1081 75.2845 17.0938 75.127 17.0938C74.8262 17.0938 74.5469 17.1439 74.2891 17.2441C74.0312 17.3444 73.7878 17.4733 73.5586 17.6309C73.3294 17.7884 73.1074 17.9674 72.8926 18.168C72.6921 18.3542 72.4844 18.5404 72.2695 18.7266C72.2266 18.7695 72.1621 18.8125 72.0762 18.8555C72.0046 18.8984 71.9329 18.9486 71.8613 19.0059C71.7897 19.0632 71.7253 19.1204 71.668 19.1777C71.625 19.235 71.6107 19.2995 71.625 19.3711L72.0762 23.1094ZM73.709 13.377C73.6803 13.3913 73.6302 13.4199 73.5586 13.4629C73.487 13.5059 73.4154 13.556 73.3438 13.6133C73.2721 13.6706 73.2005 13.7207 73.1289 13.7637C73.0573 13.8066 73.0072 13.8353 72.9785 13.8496C72.9785 13.8496 72.8997 13.9069 72.7422 14.0215C72.599 14.1361 72.4342 14.265 72.248 14.4082C72.0762 14.5514 71.9115 14.6875 71.7539 14.8164C71.6107 14.931 71.5391 14.9954 71.5391 15.0098V16.6641H71.625C71.625 16.6641 71.668 16.6139 71.7539 16.5137C71.8398 16.4134 71.9401 16.2988 72.0547 16.1699C72.1836 16.0267 72.3053 15.8835 72.4199 15.7402C72.5345 15.597 72.6276 15.4824 72.6992 15.3965C72.7422 15.3249 72.821 15.2103 72.9355 15.0527C73.0645 14.8952 73.1432 14.7949 73.1719 14.752C73.2148 14.666 73.2721 14.5586 73.3438 14.4297C73.4154 14.3008 73.4798 14.179 73.5371 14.0645C73.6087 13.9355 73.666 13.8281 73.709 13.7422C73.7663 13.6419 73.7949 13.5918 73.7949 13.5918V13.377H73.709ZM79.7031 21.7129L80.498 16.1914C80.5267 16.0052 80.6055 15.8691 80.7344 15.7832C80.8776 15.6973 81.0352 15.6543 81.207 15.6543C81.5221 15.6543 81.7728 15.7474 81.959 15.9336C82.1452 16.1055 82.3027 16.3203 82.4316 16.5781H82.4531C82.625 16.5781 82.7754 16.5495 82.9043 16.4922C83.0475 16.4206 83.2194 16.3848 83.4199 16.3848C83.8783 16.3848 84.265 16.528 84.5801 16.8145C84.9095 17.1009 85.1745 17.4518 85.375 17.8672C85.5755 18.2682 85.7188 18.7051 85.8047 19.1777C85.9049 19.6504 85.9551 20.0658 85.9551 20.4238C85.9551 20.8535 85.8405 21.3333 85.6113 21.8633C85.3965 22.3932 85.1029 22.8945 84.7305 23.3672C84.3724 23.8398 83.9642 24.2337 83.5059 24.5488C83.0475 24.8639 82.582 25.0215 82.1094 25.0215C81.6797 25.0215 81.3073 24.9212 80.9922 24.7207C80.6914 24.5202 80.4408 24.2695 80.2402 23.9688C80.054 23.6536 79.918 23.3027 79.832 22.916C79.7461 22.5293 79.7031 22.1497 79.7031 21.7773V21.7129ZM81.5078 21.8418C81.5365 21.985 81.5651 22.1497 81.5938 22.3359C81.6224 22.5221 81.6654 22.694 81.7227 22.8516C81.7799 22.9948 81.8587 23.1094 81.959 23.1953C82.0736 23.2669 82.2311 23.2669 82.4316 23.1953C82.6178 23.0234 82.8184 22.8301 83.0332 22.6152C83.248 22.4004 83.4486 22.1712 83.6348 21.9277C83.8353 21.6842 84 21.4264 84.1289 21.1543C84.2578 20.8822 84.3223 20.5957 84.3223 20.2949C84.3796 19.8079 84.3438 19.3639 84.2148 18.9629C84.0859 18.5475 83.8997 18.2539 83.6562 18.082C83.4271 17.8958 83.1621 17.8743 82.8613 18.0176C82.5605 18.1465 82.2598 18.5117 81.959 19.1133C81.7871 19.4857 81.6654 19.9225 81.5938 20.4238C81.5365 20.9108 81.5078 21.362 81.5078 21.7773V21.8418ZM86.9648 21.7129L87.7598 16.1914C87.7884 16.0052 87.8672 15.8691 87.9961 15.7832C88.1393 15.6973 88.2969 15.6543 88.4688 15.6543C88.7839 15.6543 89.0345 15.7474 89.2207 15.9336C89.4069 16.1055 89.5645 16.3203 89.6934 16.5781H89.7148C89.8867 16.5781 90.0371 16.5495 90.166 16.4922C90.3092 16.4206 90.4811 16.3848 90.6816 16.3848C91.14 16.3848 91.5267 16.528 91.8418 16.8145C92.1712 17.1009 92.4362 17.4518 92.6367 17.8672C92.8372 18.2682 92.9805 18.7051 93.0664 19.1777C93.1667 19.6504 93.2168 20.0658 93.2168 20.4238C93.2168 20.8535 93.1022 21.3333 92.873 21.8633C92.6582 22.3932 92.3646 22.8945 91.9922 23.3672C91.6341 23.8398 91.2259 24.2337 90.7676 24.5488C90.3092 24.8639 89.8438 25.0215 89.3711 25.0215C88.9414 25.0215 88.569 24.9212 88.2539 24.7207C87.9531 24.5202 87.7025 24.2695 87.502 23.9688C87.3158 23.6536 87.1797 23.3027 87.0938 22.916C87.0078 22.5293 86.9648 22.1497 86.9648 21.7773V21.7129ZM88.7695 21.8418C88.7982 21.985 88.8268 22.1497 88.8555 22.3359C88.8841 22.5221 88.9271 22.694 88.9844 22.8516C89.0417 22.9948 89.1204 23.1094 89.2207 23.1953C89.3353 23.2669 89.4928 23.2669 89.6934 23.1953C89.8796 23.0234 90.0801 22.8301 90.2949 22.6152C90.5098 22.4004 90.7103 22.1712 90.8965 21.9277C91.097 21.6842 91.2617 21.4264 91.3906 21.1543C91.5195 20.8822 91.584 20.5957 91.584 20.2949C91.6413 19.8079 91.6055 19.3639 91.4766 18.9629C91.3477 18.5475 91.1615 18.2539 90.918 18.082C90.6888 17.8958 90.4238 17.8743 90.123 18.0176C89.8223 18.1465 89.5215 18.5117 89.2207 19.1133C89.0488 19.4857 88.9271 19.9225 88.8555 20.4238C88.7982 20.9108 88.7695 21.362 88.7695 21.7773V21.8418ZM96.2246 18.7266C96.0241 18.7266 95.8451 18.7767 95.6875 18.877C95.5299 18.9772 95.3438 19.0273 95.1289 19.0273C95.1003 19.0273 95.0215 19.0273 94.8926 19.0273C94.778 19.013 94.7064 19.0059 94.6777 19.0059C94.6204 18.9342 94.556 18.877 94.4844 18.834C94.4128 18.791 94.3411 18.748 94.2695 18.7051C94.1979 18.6478 94.1335 18.5833 94.0762 18.5117C94.0332 18.4401 94.0117 18.3398 94.0117 18.2109C94.0117 17.9961 94.0977 17.8242 94.2695 17.6953C94.4414 17.5521 94.6419 17.4303 94.8711 17.3301C95.1003 17.2298 95.3294 17.1367 95.5586 17.0508C95.8021 16.9648 95.9954 16.8646 96.1387 16.75V15.8047C96.1387 14.7448 96.0885 13.6849 95.9883 12.625C95.888 11.5508 95.8379 10.4909 95.8379 9.44531C95.8379 9.15885 95.9095 8.97266 96.0527 8.88672C96.196 8.80078 96.3893 8.75781 96.6328 8.75781C96.9193 8.75781 97.127 8.84375 97.2559 9.01562C97.3991 9.17318 97.4993 9.3737 97.5566 9.61719C97.6139 9.84635 97.6426 10.097 97.6426 10.3691C97.6426 10.627 97.6497 10.849 97.6641 11.0352C97.6641 11.2214 97.6784 11.5508 97.707 12.0234C97.7357 12.4961 97.7643 12.9974 97.793 13.5273C97.8216 14.0573 97.8503 14.5586 97.8789 15.0312C97.9076 15.5039 97.929 15.8333 97.9434 16.0195C98.0007 16.0052 98.1081 15.9694 98.2656 15.9121C98.4375 15.8405 98.6165 15.776 98.8027 15.7188C98.9889 15.6471 99.1608 15.5827 99.3184 15.5254C99.4902 15.4681 99.612 15.4251 99.6836 15.3965C100.056 15.2389 100.443 15.0671 100.844 14.8809C101.245 14.6803 101.653 14.5801 102.068 14.5801C102.355 14.5801 102.57 14.6803 102.713 14.8809C102.87 15.0671 102.949 15.2891 102.949 15.5469C102.949 15.7331 102.878 15.8691 102.734 15.9551C102.591 16.041 102.441 16.1198 102.283 16.1914L98.373 17.6523C98.3301 17.681 98.2871 17.7096 98.2441 17.7383C98.2012 17.7526 98.1582 17.7812 98.1152 17.8242V18.5117C98.1152 19.013 98.1224 19.5358 98.1367 20.0801C98.1654 20.61 98.2155 21.1257 98.2871 21.627C98.3587 22.0566 98.4375 22.4792 98.5234 22.8945C98.6094 23.3099 98.6523 23.7324 98.6523 24.1621C98.6523 24.291 98.6094 24.4629 98.5234 24.6777C98.4375 24.8926 98.3014 25 98.1152 25C97.7285 25 97.4134 24.8854 97.1699 24.6562C96.9264 24.4271 96.7904 24.1191 96.7617 23.7324C96.6901 22.9876 96.6113 22.1712 96.5254 21.2832C96.4538 20.3952 96.3822 19.543 96.3105 18.7266H96.2246Z" fill="black"/>
<defs>
<filter id="filter0_i_4585_2656" x="1.95215" y="1.96155" width="117.593" height="33.5385" filterUnits="userSpaceOnUse" color-interpolation-filters="sRGB">
<feFlood flood-opacity="0" result="BackgroundImageFix"/>
<feBlend mode="normal" in="SourceGraphic" in2="BackgroundImageFix" result="shape"/>
<feColorMatrix in="SourceAlpha" type="matrix" values="0 0 0 0 0 0 0 0 0 0 0 0 0 0 0 0 0 0 127 0" result="hardAlpha"/>
<feOffset dx="4" dy="4"/>
<feComposite in2="hardAlpha" operator="arithmetic" k2="-1" k3="1"/>
<feColorMatrix type="matrix" values="0 0 0 0 0.694118 0 0 0 0 0.721569 0 0 0 0 0.741176 0 0 0 1 0"/>
<feBlend mode="multiply" in2="shape" result="effect1_innerShadow_4585_2656"/>
</filter>
</defs>
</svg>
