<svg width="69" height="37" viewBox="0 0 69 37" fill="none" xmlns="http://www.w3.org/2000/svg">
<g filter="url(#filter0_i_4585_2554)">
<path d="M63.0216 7.61228C66.541 11.6933 66.541 20.3656 66.541 20.3656C66.7307 28.2124 60.2761 34.5 52.0197 34.5C52.0198 31.5523 52.0195 2.00081 52.0195 2.00081C55.1629 1.66061 59.5022 3.53121 63.0216 7.61228Z" fill="white"/>
<path d="M18.7676 2H52.0195V34.5C52.0195 34.5 47.0872 34.2049 41.6372 34.5C38.5962 34.6647 32.2114 35.5 29.9275 35.5C23.5504 35.5 18.7676 34.5 18.7676 34.5V2Z" fill="white"/>
<path d="M5.14517 27.9432C0.335274 22.3612 1.47845 11.5 5.14549 8C8.81252 4.5 8.60485 4.5 11.9565 3.5C15.3082 2.5 18.7674 2 18.7674 2V34.5C13.1929 34.5 9.95507 33.5252 5.14517 27.9432Z" fill="white"/>
</g>
<path d="M18.7676 34.5C23.9653 34.5 23.788 35 28.983 35C34.1807 35 34.8071 34.4063 40.0048 34.4063C45.2026 34.4063 43.6783 34 48.8761 34" stroke="black" stroke-width="3" stroke-miterlimit="10" stroke-linecap="round" stroke-linejoin="round"/>
<path d="M2.00244 17.5C2.00244 7 9.6485 2 18.555 2C11.2202 2 2.52635 8 2.52635 17.5C2.52635 31.5 14.5763 34.5 18.2437 34.5C10.385 34.5 2.00244 28 2.00244 17.5Z" stroke="black" stroke-width="3" stroke-linecap="round" stroke-linejoin="round"/>
<path d="M67 19C67 29.5 57.7824 34 48.8759 34C56.2107 34 65.33 30.5 66.165 20.5C67.3303 6.54422 56.7346 2 50.7587 1.99999C58.6174 2 67 8.49998 67 19Z" stroke="black" stroke-width="3" stroke-linecap="round" stroke-linejoin="round"/>
<path d="M18.7676 2C24.1821 2 23.622 2 29.0337 2C34.4482 2 34.4647 1.5 39.8792 1.5C45.2937 1.5 45.5572 2.00001 50.9717 2.00001" stroke="black" stroke-width="3" stroke-miterlimit="10" stroke-linecap="round" stroke-linejoin="round"/>
<path d="M21.7168 24.2266C21.946 23.9115 22.1966 23.6751 22.4688 23.5176C22.7552 23.36 23.0417 23.2311 23.3281 23.1309C23.6289 23.0306 23.9225 22.9375 24.209 22.8516C24.5098 22.7513 24.8034 22.5938 25.0898 22.3789C25.2474 22.293 25.4694 22.1641 25.7559 21.9922C26.0423 21.8203 26.3216 21.6341 26.5938 21.4336C26.8802 21.2188 27.1237 21.0111 27.3242 20.8105C27.5391 20.61 27.6465 20.4382 27.6465 20.2949C27.6465 20.2806 27.6393 20.2734 27.625 20.2734C27.5964 20.2734 27.582 20.2663 27.582 20.252L27.5391 20.209C27.4674 20.1803 27.3529 20.1445 27.1953 20.1016C27.0378 20.0586 26.9447 20.0299 26.916 20.0156C25.0684 19.8008 23.5788 19.6146 22.4473 19.457C21.3301 19.2852 20.4635 19.1061 19.8477 18.9199C19.2461 18.7337 18.8451 18.5189 18.6445 18.2754C18.444 18.0319 18.3438 17.724 18.3438 17.3516C18.3438 17.2083 18.3724 17.0508 18.4297 16.8789C18.487 16.707 18.5514 16.5352 18.623 16.3633C18.709 16.1914 18.7949 16.0339 18.8809 15.8906C18.9668 15.7474 19.0456 15.6328 19.1172 15.5469C19.3464 15.2604 19.6471 15.0026 20.0195 14.7734C20.3919 14.5443 20.793 14.3438 21.2227 14.1719C21.6523 14 22.082 13.8496 22.5117 13.7207C22.9557 13.5918 23.3568 13.4772 23.7148 13.377C24.1159 13.3483 24.5169 13.2552 24.918 13.0977C25.3333 12.9258 25.7415 12.8112 26.1426 12.7539C26.3431 12.7539 26.5078 12.8327 26.6367 12.9902C26.7656 13.1478 26.8301 13.3125 26.8301 13.4844C26.8301 13.7279 26.7799 13.9141 26.6797 14.043C26.5938 14.1576 26.472 14.2507 26.3145 14.3223C26.1712 14.3796 26.0065 14.4297 25.8203 14.4727C25.6341 14.5013 25.4479 14.5371 25.2617 14.5801C25.1471 14.6087 24.9896 14.6517 24.7891 14.709C24.5885 14.752 24.388 14.8021 24.1875 14.8594C23.987 14.9167 23.8079 14.9668 23.6504 15.0098C23.4928 15.0527 23.3997 15.0814 23.3711 15.0957C22.9271 15.2819 22.5046 15.4609 22.1035 15.6328C21.7168 15.7904 21.373 15.9551 21.0723 16.127C20.7858 16.2988 20.5566 16.485 20.3848 16.6855C20.2272 16.8717 20.1556 17.0794 20.1699 17.3086V17.3301C20.3132 17.5306 20.6354 17.681 21.1367 17.7812C21.638 17.8815 22.2253 17.9674 22.8984 18.0391C23.5859 18.1107 24.3021 18.1823 25.0469 18.2539C25.806 18.3255 26.5007 18.4329 27.1309 18.5762C27.7611 18.7194 28.2839 18.9128 28.6992 19.1562C29.1146 19.3997 29.3294 19.7292 29.3438 20.1445C29.3438 20.3021 29.3079 20.4883 29.2363 20.7031C29.179 20.918 29.0931 21.0827 28.9785 21.1973C28.6204 21.5983 28.1908 22.0137 27.6895 22.4434C27.2025 22.873 26.6725 23.2741 26.0996 23.6465C25.5267 24.0046 24.9323 24.3125 24.3164 24.5703C23.7148 24.8138 23.1204 24.957 22.5332 25C22.3327 25 22.1465 24.9284 21.9746 24.7852C21.8027 24.6276 21.7168 24.4414 21.7168 24.2266ZM36.7129 23.2812C36.5697 23.1237 36.4336 22.9661 36.3047 22.8086C36.1758 22.651 36.0326 22.5078 35.875 22.3789L35.832 22.3574C35.7747 22.3574 35.6602 22.4792 35.4883 22.7227C35.3307 22.9518 35.1159 23.2168 34.8438 23.5176C34.5859 23.804 34.278 24.069 33.9199 24.3125C33.5762 24.5417 33.1823 24.6562 32.7383 24.6562C32.3086 24.6562 31.9434 24.5345 31.6426 24.291C31.3418 24.0475 31.0911 23.7467 30.8906 23.3887C30.7044 23.0163 30.5684 22.6224 30.4824 22.207C30.3965 21.7917 30.3535 21.4121 30.3535 21.0684C30.3535 20.8535 30.3678 20.6458 30.3965 20.4453C30.4395 20.2448 30.4538 20.0443 30.4395 19.8438C30.4824 19.6576 30.554 19.3281 30.6543 18.8555C30.7689 18.3828 30.8835 17.8815 30.998 17.3516C31.127 16.8073 31.2487 16.2988 31.3633 15.8262C31.4779 15.3535 31.5566 15.0241 31.5996 14.8379C31.6139 14.752 31.6569 14.6087 31.7285 14.4082C31.8001 14.2077 31.8717 13.9928 31.9434 13.7637C32.0293 13.5202 32.1081 13.2982 32.1797 13.0977C32.2513 12.8971 32.3014 12.7539 32.3301 12.668C32.4017 12.6107 32.4518 12.5534 32.4805 12.4961C32.5234 12.4388 32.5592 12.3887 32.5879 12.3457C32.6309 12.3027 32.6738 12.2669 32.7168 12.2383C32.7741 12.2096 32.8529 12.1953 32.9531 12.1953C33.168 12.1953 33.39 12.2454 33.6191 12.3457C33.8626 12.446 34.013 12.6178 34.0703 12.8613C34.099 12.9759 34.099 13.0404 34.0703 13.0547C34.0417 13.0547 34.0703 13.1048 34.1562 13.2051C34.3568 13.1335 34.5645 13.0905 34.7793 13.0762C34.9941 13.0475 35.2018 13.0332 35.4023 13.0332C35.7891 13.0332 36.0898 13.1549 36.3047 13.3984C36.5339 13.6276 36.6986 13.9141 36.7988 14.2578C36.9134 14.5872 36.985 14.9382 37.0137 15.3105C37.0423 15.6686 37.0566 15.9837 37.0566 16.2559C37.0566 16.3848 37.0495 16.5423 37.0352 16.7285C37.0208 16.9147 37.0065 17.1081 36.9922 17.3086C36.9779 17.5091 36.9635 17.7096 36.9492 17.9102C36.9492 18.0964 36.9564 18.2539 36.9707 18.3828L36.5195 20.4668C36.5052 20.4668 36.5553 20.5384 36.6699 20.6816C36.7988 20.8249 36.8991 20.9395 36.9707 21.0254C36.985 21.0397 37.0208 21.0827 37.0781 21.1543C37.1497 21.2116 37.2142 21.276 37.2715 21.3477C37.3431 21.4049 37.4076 21.4694 37.4648 21.541C37.5221 21.5983 37.5579 21.6341 37.5723 21.6484C37.6009 21.6628 37.6224 21.6914 37.6367 21.7344C37.6654 21.7773 37.6868 21.8132 37.7012 21.8418L42.127 26.4609C42.1413 26.4753 42.1699 26.5254 42.2129 26.6113C42.2559 26.6973 42.2917 26.7617 42.3203 26.8047V26.8262C42.3203 26.8405 42.3275 26.8548 42.3418 26.8691C42.3418 27.1126 42.263 27.3132 42.1055 27.4707C41.9479 27.6426 41.7617 27.7285 41.5469 27.7285C41.4323 27.7285 41.3034 27.7142 41.1602 27.6855C41.0312 27.6712 40.931 27.6283 40.8594 27.5566L36.7129 23.2812ZM32.1582 20.7246C32.0866 21.054 32.0866 21.3691 32.1582 21.6699C32.2298 21.9707 32.3229 22.2643 32.4375 22.5508C32.4661 22.6081 32.502 22.7012 32.5449 22.8301C32.6022 22.959 32.6667 23.0234 32.7383 23.0234C32.8672 23.0234 33.0176 22.959 33.1895 22.8301C33.3757 22.6868 33.5547 22.5221 33.7266 22.3359C33.8984 22.1354 34.0417 21.9349 34.1562 21.7344C34.2708 21.5195 34.3281 21.3405 34.3281 21.1973C34.3281 21.0111 34.2637 20.8607 34.1348 20.7461C34.0202 20.6315 33.9629 20.4811 33.9629 20.2949C33.9629 20.0801 33.9987 19.9297 34.0703 19.8438C34.1562 19.7578 34.2565 19.7005 34.3711 19.6719C34.4857 19.6432 34.6003 19.6217 34.7148 19.6074C34.8438 19.5931 34.9583 19.5501 35.0586 19.4785C35.1302 19.4212 35.1947 19.2637 35.252 19.0059C35.3236 18.748 35.3809 18.4688 35.4238 18.168C35.4811 17.8672 35.5241 17.5807 35.5527 17.3086C35.5814 17.0221 35.5957 16.8216 35.5957 16.707C35.5957 16.5495 35.5957 16.3704 35.5957 16.1699C35.5957 15.9694 35.5885 15.7689 35.5742 15.5684C35.5599 15.3535 35.5312 15.1458 35.4883 14.9453C35.4596 14.7448 35.4095 14.5586 35.3379 14.3867H35.209C34.9225 14.3867 34.6576 14.4655 34.4141 14.623C34.1849 14.7806 33.9772 14.974 33.791 15.2031C33.6191 15.4323 33.4616 15.6829 33.3184 15.9551C33.1751 16.2129 33.0534 16.4492 32.9531 16.6641C32.9245 16.7357 32.8815 16.8359 32.8242 16.9648C32.7669 17.0938 32.7526 17.2083 32.7812 17.3086L32.1582 20.7246ZM41.6328 21.6699C41.6328 20.5671 41.6471 19.4714 41.6758 18.3828C41.7188 17.2943 41.7402 16.1914 41.7402 15.0742C41.7402 14.4297 41.7044 13.7852 41.6328 13.1406C41.5755 12.4961 41.5469 11.8516 41.5469 11.207C41.5469 11.0065 41.6042 10.8346 41.7188 10.6914C41.8477 10.5482 42.0124 10.4766 42.2129 10.4766C42.5566 10.4766 42.8145 10.5482 42.9863 10.6914C43.1582 10.8346 43.2799 11.0137 43.3516 11.2285C43.4232 11.4434 43.459 11.6868 43.459 11.959C43.459 12.2311 43.459 12.4961 43.459 12.7539C43.459 12.8112 43.459 12.9544 43.459 13.1836C43.4733 13.4128 43.4876 13.6634 43.502 13.9355C43.5163 14.1934 43.5234 14.4368 43.5234 14.666C43.5378 14.8952 43.5449 15.0384 43.5449 15.0957V15.8047C43.5449 16.7357 43.5306 17.6595 43.502 18.5762C43.4733 19.4928 43.459 20.4238 43.459 21.3691V22.2715C43.459 22.3431 43.4661 22.4434 43.4805 22.5723C43.5091 22.6868 43.5306 22.7441 43.5449 22.7441H43.7168L48.8086 20.7246C48.9232 20.6243 49.0234 20.5742 49.1094 20.5742C49.1953 20.5599 49.2956 20.5527 49.4102 20.5527C49.4818 20.5527 49.5749 20.5599 49.6895 20.5742C49.804 20.5742 49.9115 20.5957 50.0117 20.6387C50.1263 20.6673 50.2194 20.7174 50.291 20.7891C50.377 20.8464 50.4199 20.9395 50.4199 21.0684C50.4199 21.3978 50.2409 21.6842 49.8828 21.9277C49.4245 22.1712 48.9518 22.4004 48.4648 22.6152C47.9779 22.8158 47.4837 22.9805 46.9824 23.1094L46.875 23.1953C46.1875 23.3815 45.543 23.6536 44.9414 24.0117C44.3542 24.3698 43.7383 24.6992 43.0938 25H42.9004C42.5137 25 42.2272 24.8711 42.041 24.6133C41.8548 24.3555 41.7331 24.0547 41.6758 23.7109C41.6185 23.3529 41.597 22.9876 41.6113 22.6152C41.6257 22.2285 41.6328 21.9134 41.6328 21.6699Z" fill="black"/>
<defs>
<filter id="filter0_i_4585_2554" x="1.95215" y="1.96155" width="64.5928" height="33.5385" filterUnits="userSpaceOnUse" color-interpolation-filters="sRGB">
<feFlood flood-opacity="0" result="BackgroundImageFix"/>
<feBlend mode="normal" in="SourceGraphic" in2="BackgroundImageFix" result="shape"/>
<feColorMatrix in="SourceAlpha" type="matrix" values="0 0 0 0 0 0 0 0 0 0 0 0 0 0 0 0 0 0 127 0" result="hardAlpha"/>
<feOffset dx="4" dy="4"/>
<feComposite in2="hardAlpha" operator="arithmetic" k2="-1" k3="1"/>
<feColorMatrix type="matrix" values="0 0 0 0 0.694118 0 0 0 0 0.721569 0 0 0 0 0.741176 0 0 0 1 0"/>
<feBlend mode="multiply" in2="shape" result="effect1_innerShadow_4585_2554"/>
</filter>
</defs>
</svg>
