<svg width="219" height="37" viewBox="0 0 219 37" fill="none" xmlns="http://www.w3.org/2000/svg">
<g filter="url(#filter0_i_4585_2792)">
<path d="M213.022 7.61228C216.541 11.6933 216.541 20.3656 216.541 20.3656C216.731 28.2124 210.276 34.5 202.02 34.5C202.02 31.5523 202.02 2.00081 202.02 2.00081C205.163 1.66061 209.502 3.53121 213.022 7.61228Z" fill="white"/>
<path d="M18.7676 2H202.02V34.5C202.02 34.5 174.837 34.2049 144.802 34.5C128.043 34.6647 92.8567 35.5 80.2699 35.5C45.1257 35.5 18.7676 34.5 18.7676 34.5V2Z" fill="white"/>
<path d="M5.14517 27.9432C0.335274 22.3612 1.47845 11.5 5.14549 8C8.81252 4.5 8.60485 4.5 11.9565 3.5C15.3082 2.5 18.7674 2 18.7674 2V34.5C13.1929 34.5 9.95507 33.5252 5.14517 27.9432Z" fill="white"/>
</g>
<path d="M18.7676 34.5C49.8605 34.5 48.7994 35 79.8758 35C110.969 35 114.715 34.4063 145.808 34.4063C176.901 34.4063 167.783 34 198.876 34" stroke="black" stroke-width="3" stroke-miterlimit="10" stroke-linecap="round" stroke-linejoin="round"/>
<path d="M2.00244 17.5C2.00244 7 9.6485 2 18.555 2C11.2202 2 2.52635 8 2.52635 17.5C2.52635 31.5 14.5763 34.5 18.2437 34.5C10.385 34.5 2.00244 28 2.00244 17.5Z" stroke="black" stroke-width="3" stroke-linecap="round" stroke-linejoin="round"/>
<path d="M217 19C217 29.5 207.782 34 198.876 34C206.211 34 215.33 30.5 216.165 20.5C217.33 6.54422 206.735 2 200.759 1.99999C208.617 2 217 8.49998 217 19Z" stroke="black" stroke-width="3" stroke-linecap="round" stroke-linejoin="round"/>
<path d="M18.7676 2C49.4017 2 46.2329 2 76.8508 2C107.485 2 107.578 1.5 138.213 1.5C168.847 1.5 170.338 2.00001 200.972 2.00001" stroke="black" stroke-width="3" stroke-miterlimit="10" stroke-linecap="round" stroke-linejoin="round"/>
<path d="M21.7168 24.2266C21.946 23.9115 22.1966 23.6751 22.4688 23.5176C22.7552 23.36 23.0417 23.2311 23.3281 23.1309C23.6289 23.0306 23.9225 22.9375 24.209 22.8516C24.5098 22.7513 24.8034 22.5938 25.0898 22.3789C25.2474 22.293 25.4694 22.1641 25.7559 21.9922C26.0423 21.8203 26.3216 21.6341 26.5938 21.4336C26.8802 21.2188 27.1237 21.0111 27.3242 20.8105C27.5391 20.61 27.6465 20.4382 27.6465 20.2949C27.6465 20.2806 27.6393 20.2734 27.625 20.2734C27.5964 20.2734 27.582 20.2663 27.582 20.252L27.5391 20.209C27.4674 20.1803 27.3529 20.1445 27.1953 20.1016C27.0378 20.0586 26.9447 20.0299 26.916 20.0156C25.0684 19.8008 23.5788 19.6146 22.4473 19.457C21.3301 19.2852 20.4635 19.1061 19.8477 18.9199C19.2461 18.7337 18.8451 18.5189 18.6445 18.2754C18.444 18.0319 18.3438 17.724 18.3438 17.3516C18.3438 17.2083 18.3724 17.0508 18.4297 16.8789C18.487 16.707 18.5514 16.5352 18.623 16.3633C18.709 16.1914 18.7949 16.0339 18.8809 15.8906C18.9668 15.7474 19.0456 15.6328 19.1172 15.5469C19.3464 15.2604 19.6471 15.0026 20.0195 14.7734C20.3919 14.5443 20.793 14.3438 21.2227 14.1719C21.6523 14 22.082 13.8496 22.5117 13.7207C22.9557 13.5918 23.3568 13.4772 23.7148 13.377C24.1159 13.3483 24.5169 13.2552 24.918 13.0977C25.3333 12.9258 25.7415 12.8112 26.1426 12.7539C26.3431 12.7539 26.5078 12.8327 26.6367 12.9902C26.7656 13.1478 26.8301 13.3125 26.8301 13.4844C26.8301 13.7279 26.7799 13.9141 26.6797 14.043C26.5938 14.1576 26.472 14.2507 26.3145 14.3223C26.1712 14.3796 26.0065 14.4297 25.8203 14.4727C25.6341 14.5013 25.4479 14.5371 25.2617 14.5801C25.1471 14.6087 24.9896 14.6517 24.7891 14.709C24.5885 14.752 24.388 14.8021 24.1875 14.8594C23.987 14.9167 23.8079 14.9668 23.6504 15.0098C23.4928 15.0527 23.3997 15.0814 23.3711 15.0957C22.9271 15.2819 22.5046 15.4609 22.1035 15.6328C21.7168 15.7904 21.373 15.9551 21.0723 16.127C20.7858 16.2988 20.5566 16.485 20.3848 16.6855C20.2272 16.8717 20.1556 17.0794 20.1699 17.3086V17.3301C20.3132 17.5306 20.6354 17.681 21.1367 17.7812C21.638 17.8815 22.2253 17.9674 22.8984 18.0391C23.5859 18.1107 24.3021 18.1823 25.0469 18.2539C25.806 18.3255 26.5007 18.4329 27.1309 18.5762C27.7611 18.7194 28.2839 18.9128 28.6992 19.1562C29.1146 19.3997 29.3294 19.7292 29.3438 20.1445C29.3438 20.3021 29.3079 20.4883 29.2363 20.7031C29.179 20.918 29.0931 21.0827 28.9785 21.1973C28.6204 21.5983 28.1908 22.0137 27.6895 22.4434C27.2025 22.873 26.6725 23.2741 26.0996 23.6465C25.5267 24.0046 24.9323 24.3125 24.3164 24.5703C23.7148 24.8138 23.1204 24.957 22.5332 25C22.3327 25 22.1465 24.9284 21.9746 24.7852C21.8027 24.6276 21.7168 24.4414 21.7168 24.2266ZM32.3516 18.7266C32.151 18.7266 31.972 18.7767 31.8145 18.877C31.6569 18.9772 31.4707 19.0273 31.2559 19.0273C31.2272 19.0273 31.1484 19.0273 31.0195 19.0273C30.9049 19.013 30.8333 19.0059 30.8047 19.0059C30.7474 18.9342 30.6829 18.877 30.6113 18.834C30.5397 18.791 30.4681 18.748 30.3965 18.7051C30.3249 18.6478 30.2604 18.5833 30.2031 18.5117C30.1602 18.4401 30.1387 18.3398 30.1387 18.2109C30.1387 17.9961 30.2246 17.8242 30.3965 17.6953C30.5684 17.5521 30.7689 17.4303 30.998 17.3301C31.2272 17.2298 31.4564 17.1367 31.6855 17.0508C31.929 16.9648 32.1224 16.8646 32.2656 16.75V15.8047C32.2656 14.7448 32.2155 13.6849 32.1152 12.625C32.015 11.5508 31.9648 10.4909 31.9648 9.44531C31.9648 9.15885 32.0365 8.97266 32.1797 8.88672C32.3229 8.80078 32.5163 8.75781 32.7598 8.75781C33.0462 8.75781 33.2539 8.84375 33.3828 9.01562C33.526 9.17318 33.6263 9.3737 33.6836 9.61719C33.7409 9.84635 33.7695 10.097 33.7695 10.3691C33.7695 10.627 33.7767 10.849 33.791 11.0352C33.791 11.2214 33.8053 11.5508 33.834 12.0234C33.8626 12.4961 33.8913 12.9974 33.9199 13.5273C33.9486 14.0573 33.9772 14.5586 34.0059 15.0312C34.0345 15.5039 34.056 15.8333 34.0703 16.0195C34.1276 16.0052 34.235 15.9694 34.3926 15.9121C34.5645 15.8405 34.7435 15.776 34.9297 15.7188C35.1159 15.6471 35.2878 15.5827 35.4453 15.5254C35.6172 15.4681 35.7389 15.4251 35.8105 15.3965C36.1829 15.2389 36.5697 15.0671 36.9707 14.8809C37.3717 14.6803 37.7799 14.5801 38.1953 14.5801C38.4818 14.5801 38.6966 14.6803 38.8398 14.8809C38.9974 15.0671 39.0762 15.2891 39.0762 15.5469C39.0762 15.7331 39.0046 15.8691 38.8613 15.9551C38.7181 16.041 38.5677 16.1198 38.4102 16.1914L34.5 17.6523C34.457 17.681 34.4141 17.7096 34.3711 17.7383C34.3281 17.7526 34.2852 17.7812 34.2422 17.8242V18.5117C34.2422 19.013 34.2493 19.5358 34.2637 20.0801C34.2923 20.61 34.3424 21.1257 34.4141 21.627C34.4857 22.0566 34.5645 22.4792 34.6504 22.8945C34.7363 23.3099 34.7793 23.7324 34.7793 24.1621C34.7793 24.291 34.7363 24.4629 34.6504 24.6777C34.5645 24.8926 34.4284 25 34.2422 25C33.8555 25 33.5404 24.8854 33.2969 24.6562C33.0534 24.4271 32.9173 24.1191 32.8887 23.7324C32.8171 22.9876 32.7383 22.1712 32.6523 21.2832C32.5807 20.3952 32.5091 19.543 32.4375 18.7266H32.3516ZM40.7305 24.0762C40.7018 23.5605 40.6517 22.873 40.5801 22.0137C40.5228 21.14 40.4512 20.2376 40.3652 19.3066C40.2936 18.3757 40.2148 17.4948 40.1289 16.6641C40.043 15.8333 39.9714 15.1888 39.9141 14.7305C39.9141 14.5443 40 14.4225 40.1719 14.3652C40.3438 14.3079 40.5085 14.2793 40.666 14.2793C40.8665 14.2793 41.0742 14.3366 41.2891 14.4512C41.5182 14.5658 41.6615 14.7233 41.7188 14.9238C41.7188 14.9811 41.7259 15.0885 41.7402 15.2461C41.7546 15.3893 41.7617 15.5397 41.7617 15.6973C41.776 15.8548 41.7904 16.0124 41.8047 16.1699C41.819 16.3132 41.8262 16.4134 41.8262 16.4707C41.8262 16.5566 41.8262 16.6211 41.8262 16.6641C41.8262 16.707 41.8262 16.75 41.8262 16.793C41.8262 16.8216 41.8333 16.8574 41.8477 16.9004C41.862 16.9434 41.8835 17.015 41.9121 17.1152C41.9408 17.0866 41.9694 17.0508 41.998 17.0078C42.041 16.9648 42.0697 16.9362 42.084 16.9219C42.3132 16.5924 42.5352 16.306 42.75 16.0625C42.9648 15.8047 43.1868 15.5684 43.416 15.3535C43.6452 15.1243 43.8958 14.888 44.168 14.6445C44.4544 14.3867 44.7839 14.0931 45.1562 13.7637C45.2422 13.6921 45.3066 13.6419 45.3496 13.6133C45.3926 13.5703 45.4284 13.5417 45.457 13.5273C45.5 13.4987 45.543 13.4844 45.5859 13.4844C45.6289 13.4701 45.6862 13.4629 45.7578 13.4629C46.0013 13.4629 46.2448 13.5488 46.4883 13.7207C46.7461 13.8783 46.875 14.1003 46.875 14.3867C46.875 14.487 46.8392 14.5944 46.7676 14.709C46.696 14.8092 46.61 14.9095 46.5098 15.0098C46.4095 15.0957 46.3021 15.1745 46.1875 15.2461C46.0872 15.3177 45.9941 15.3678 45.9082 15.3965C45.5358 15.7259 45.1419 16.1055 44.7266 16.5352C44.3112 16.9505 43.9245 17.4017 43.5664 17.8887C43.2083 18.3757 42.9147 18.8841 42.6855 19.4141C42.4564 19.944 42.3418 20.474 42.3418 21.0039C42.3418 21.4909 42.3776 21.9707 42.4492 22.4434C42.5208 22.916 42.5566 23.3958 42.5566 23.8828V24.6348C42.4421 24.7493 42.3418 24.8424 42.2559 24.9141C42.1699 24.9857 42.0482 25.0215 41.8906 25.0215C41.6471 25.0215 41.4108 24.9212 41.1816 24.7207C40.9525 24.5059 40.8021 24.291 40.7305 24.0762ZM47.498 21.7129L48.293 16.1914C48.3216 16.0052 48.4004 15.8691 48.5293 15.7832C48.6725 15.6973 48.8301 15.6543 49.002 15.6543C49.3171 15.6543 49.5677 15.7474 49.7539 15.9336C49.9401 16.1055 50.0977 16.3203 50.2266 16.5781H50.248C50.4199 16.5781 50.5703 16.5495 50.6992 16.4922C50.8424 16.4206 51.0143 16.3848 51.2148 16.3848C51.6732 16.3848 52.0599 16.528 52.375 16.8145C52.7044 17.1009 52.9694 17.4518 53.1699 17.8672C53.3704 18.2682 53.5137 18.7051 53.5996 19.1777C53.6999 19.6504 53.75 20.0658 53.75 20.4238C53.75 20.8535 53.6354 21.3333 53.4062 21.8633C53.1914 22.3932 52.8978 22.8945 52.5254 23.3672C52.1673 23.8398 51.7591 24.2337 51.3008 24.5488C50.8424 24.8639 50.377 25.0215 49.9043 25.0215C49.4746 25.0215 49.1022 24.9212 48.7871 24.7207C48.4863 24.5202 48.2357 24.2695 48.0352 23.9688C47.849 23.6536 47.7129 23.3027 47.627 22.916C47.541 22.5293 47.498 22.1497 47.498 21.7773V21.7129ZM49.3027 21.8418C49.3314 21.985 49.36 22.1497 49.3887 22.3359C49.4173 22.5221 49.4603 22.694 49.5176 22.8516C49.5749 22.9948 49.6536 23.1094 49.7539 23.1953C49.8685 23.2669 50.026 23.2669 50.2266 23.1953C50.4128 23.0234 50.6133 22.8301 50.8281 22.6152C51.043 22.4004 51.2435 22.1712 51.4297 21.9277C51.6302 21.6842 51.7949 21.4264 51.9238 21.1543C52.0527 20.8822 52.1172 20.5957 52.1172 20.2949C52.1745 19.8079 52.1387 19.3639 52.0098 18.9629C51.8809 18.5475 51.6947 18.2539 51.4512 18.082C51.222 17.8958 50.957 17.8743 50.6562 18.0176C50.3555 18.1465 50.0547 18.5117 49.7539 19.1133C49.582 19.4857 49.4603 19.9225 49.3887 20.4238C49.3314 20.9108 49.3027 21.362 49.3027 21.7773V21.8418ZM60.8184 24.2695C60.6178 23.9831 60.446 23.5892 60.3027 23.0879C60.1738 22.5723 60.0449 22.0352 59.916 21.4766C59.8014 20.9036 59.694 20.3522 59.5938 19.8223C59.4935 19.278 59.3861 18.8483 59.2715 18.5332C59.1712 18.2038 59.0566 18.0176 58.9277 17.9746C58.7988 17.9316 58.6484 18.125 58.4766 18.5547L56.6074 24.3125C56.5358 24.513 56.4499 24.6562 56.3496 24.7422C56.2493 24.8138 56.0846 24.8496 55.8555 24.8496C55.7409 24.8496 55.6191 24.8353 55.4902 24.8066C55.3613 24.7637 55.2396 24.7064 55.125 24.6348C55.0104 24.5632 54.9102 24.4772 54.8242 24.377C54.7526 24.2767 54.7096 24.1621 54.6953 24.0332C54.7383 23.8613 54.7741 23.5462 54.8027 23.0879C54.8457 22.6296 54.8743 22.0996 54.8887 21.498C54.903 20.8965 54.9102 20.2663 54.9102 19.6074C54.9245 18.9342 54.9245 18.3112 54.9102 17.7383C54.9102 17.151 54.903 16.6497 54.8887 16.2344C54.8743 15.8047 54.86 15.5254 54.8457 15.3965C54.8457 15.2533 54.8457 15.11 54.8457 14.9668C54.86 14.8092 54.8815 14.666 54.9102 14.5371C54.9531 14.4082 55.0176 14.3079 55.1035 14.2363C55.2038 14.1504 55.3542 14.1074 55.5547 14.1074C55.8268 14.1074 56.0775 14.222 56.3066 14.4512C56.5501 14.6803 56.6719 14.9238 56.6719 15.1816C56.6719 15.554 56.6504 15.9264 56.6074 16.2988C56.5788 16.6569 56.5645 17.0221 56.5645 17.3945C56.5645 17.6237 56.5645 17.8171 56.5645 17.9746C56.5645 18.1322 56.5931 18.3255 56.6504 18.5547C56.6934 18.4401 56.765 18.2396 56.8652 17.9531C56.9655 17.6667 57.0729 17.3659 57.1875 17.0508C57.3164 16.7357 57.431 16.4421 57.5312 16.1699C57.6315 15.8835 57.7031 15.6829 57.7461 15.5684C57.8464 15.2819 57.9967 15.0098 58.1973 14.752C58.3978 14.4798 58.6628 14.3294 58.9922 14.3008C59.207 14.2865 59.4004 14.3438 59.5723 14.4727C59.7585 14.6016 59.916 14.7734 60.0449 14.9883C60.1738 15.1888 60.2812 15.4036 60.3672 15.6328C60.4531 15.8477 60.5176 16.0339 60.5605 16.1914L61.7207 21.541L62.623 23.9902C62.6374 24.0046 62.6445 24.0475 62.6445 24.1191C62.6445 24.1764 62.6445 24.2194 62.6445 24.248C62.6445 24.4199 62.6016 24.5918 62.5156 24.7637C62.444 24.9212 62.3079 25 62.1074 25C61.8639 25 61.6133 24.9355 61.3555 24.8066C61.0977 24.6634 60.9186 24.4844 60.8184 24.2695ZM64.6426 32.498C64.5853 32.3405 64.5853 32.1615 64.6426 31.9609C64.7142 31.7604 64.8503 31.6315 65.0508 31.5742C65.3802 31.7174 65.724 31.8105 66.082 31.8535C66.4401 31.8965 66.7982 31.9036 67.1562 31.875C67.5286 31.8464 67.8939 31.7891 68.252 31.7031C68.61 31.6172 68.9538 31.5169 69.2832 31.4023C69.6126 31.1302 69.8418 30.7721 69.9707 30.3281C70.0996 29.8984 70.1497 29.304 70.1211 28.5449C70.0924 27.8001 69.9922 26.862 69.8203 25.7305C69.6628 24.6133 69.4551 23.2383 69.1973 21.6055C69.1973 21.5625 69.1973 21.498 69.1973 21.4121C69.2116 21.3262 69.2116 21.2474 69.1973 21.1758C69.1829 21.0898 69.1543 21.0254 69.1113 20.9824C69.0827 20.9395 69.0397 20.9395 68.9824 20.9824C68.7962 21.3405 68.5742 21.7344 68.3164 22.1641C68.0729 22.5794 67.7865 22.9733 67.457 23.3457C67.1419 23.7038 66.7839 24.0046 66.3828 24.248C65.9961 24.4915 65.5592 24.6133 65.0723 24.6133C64.6426 24.6133 64.263 24.4915 63.9336 24.248C63.6185 23.9902 63.4609 23.625 63.4609 23.1523C63.4609 22.7943 63.5326 22.3431 63.6758 21.7988C63.8333 21.2546 64.041 20.6816 64.2988 20.0801C64.5566 19.4642 64.8574 18.8555 65.2012 18.2539C65.5449 17.6523 65.903 17.1081 66.2754 16.6211C66.6478 16.1341 67.0273 15.7402 67.4141 15.4395C67.8008 15.1243 68.1732 14.9668 68.5312 14.9668C68.6745 14.9668 68.8607 14.9954 69.0898 15.0527C69.3333 15.0957 69.5625 15.1673 69.7773 15.2676C70.0065 15.3678 70.1999 15.4824 70.3574 15.6113C70.5293 15.7402 70.6152 15.8906 70.6152 16.0625V17.8027L72.0117 27.9434C72.0117 28.5163 71.9974 29.0605 71.9688 29.5762C71.9544 30.1061 71.8613 30.5931 71.6895 31.0371C71.5319 31.4811 71.2741 31.875 70.916 32.2188C70.5579 32.5625 70.0423 32.8418 69.3691 33.0566C69.2832 33.0996 69.1042 33.1354 68.832 33.1641C68.5599 33.1927 68.2448 33.2142 67.8867 33.2285C67.543 33.2428 67.1706 33.2428 66.7695 33.2285C66.3828 33.2142 66.0247 33.1784 65.6953 33.1211C65.3802 33.0781 65.1224 33.0065 64.9219 32.9062C64.7214 32.806 64.6283 32.6699 64.6426 32.498ZM67.9941 16.8789C67.8509 17.0365 67.6576 17.2871 67.4141 17.6309C67.1849 17.9746 66.9486 18.3542 66.7051 18.7695C66.4616 19.1849 66.2181 19.6217 65.9746 20.0801C65.7454 20.5241 65.5592 20.9395 65.416 21.3262C65.2728 21.7129 65.1797 22.0423 65.1367 22.3145C65.1081 22.5866 65.1725 22.7513 65.3301 22.8086C65.6309 22.651 65.9531 22.3932 66.2969 22.0352C66.6406 21.6628 66.9629 21.2546 67.2637 20.8105C67.5788 20.3522 67.8509 19.8867 68.0801 19.4141C68.3236 18.9271 68.4883 18.4902 68.5742 18.1035C68.6745 17.7168 68.6816 17.4089 68.5957 17.1797C68.5241 16.9362 68.3236 16.8359 67.9941 16.8789ZM81.3789 23.6465C81.3789 22.7871 81.4362 21.9349 81.5508 21.0898C81.6654 20.2448 81.7656 19.3997 81.8516 18.5547C81.8516 18.5117 81.8587 18.4186 81.873 18.2754C81.8874 18.1178 81.9017 17.9531 81.916 17.7812C81.9447 17.6094 81.9661 17.4518 81.9805 17.3086C82.0091 17.151 82.0234 17.0508 82.0234 17.0078V16.9219L82.9258 10.2188C82.8971 9.93229 82.9401 9.68164 83.0547 9.4668C83.1836 9.23763 83.4128 9.12305 83.7422 9.12305C84.1003 9.08008 84.3939 9.13021 84.623 9.27344C84.8665 9.40234 85.0671 9.57422 85.2246 9.78906C85.3822 10.0039 85.5111 10.2402 85.6113 10.498C85.7116 10.7559 85.819 10.9922 85.9336 11.207C86.0052 11.4076 86.0911 11.6439 86.1914 11.916C86.306 12.1882 86.4349 12.5319 86.5781 12.9473C86.7357 13.3626 86.9147 13.8711 87.1152 14.4727C87.3301 15.0742 87.5736 15.8047 87.8457 16.6641L87.9316 16.75C88.0319 16.6927 88.2181 16.5996 88.4902 16.4707C88.7767 16.3418 89.0703 16.2057 89.3711 16.0625C89.6862 15.9193 89.9798 15.7832 90.252 15.6543C90.5241 15.5254 90.7174 15.4395 90.832 15.3965C90.8464 15.3678 90.8822 15.3464 90.9395 15.332C91.0111 15.3034 91.0612 15.2819 91.0898 15.2676H91.1328C91.276 15.2676 91.3835 15.3249 91.4551 15.4395C91.5267 15.5397 91.5625 15.64 91.5625 15.7402C91.5625 15.8978 91.5267 16.0339 91.4551 16.1484C91.3835 16.263 91.2975 16.3704 91.1973 16.4707C91.1113 16.5566 91.0111 16.6426 90.8965 16.7285C90.7962 16.8145 90.7174 16.9076 90.6602 17.0078L88.5332 18.082C88.4759 18.1536 88.4473 18.2109 88.4473 18.2539C88.4473 18.3685 88.5046 18.5475 88.6191 18.791C88.748 19.0345 88.8483 19.2279 88.9199 19.3711C88.9629 19.457 89.0345 19.6146 89.1348 19.8438C89.235 20.0729 89.3424 20.3092 89.457 20.5527C89.5716 20.7962 89.679 21.0326 89.7793 21.2617C89.8939 21.4766 89.9727 21.627 90.0156 21.7129V21.7773C90.0156 22.293 89.7578 22.5508 89.2422 22.5508C89.0846 22.5508 88.9199 22.5365 88.748 22.5078C88.5762 22.4648 88.4473 22.3574 88.3613 22.1855L86.9219 19.1133H86.7285C86.1842 19.5286 85.6042 19.9368 84.9883 20.3379C84.3724 20.7389 83.7422 21.0827 83.0977 21.3691C82.9974 21.8848 82.9329 22.4076 82.9043 22.9375C82.89 23.4674 82.8971 23.9974 82.9258 24.5273C82.8112 24.6849 82.6966 24.8066 82.582 24.8926C82.4674 24.9642 82.3099 25 82.1094 25C81.9089 25 81.7585 24.957 81.6582 24.8711C81.5579 24.7708 81.4863 24.6562 81.4434 24.5273C81.4004 24.3841 81.3789 24.2337 81.3789 24.0762C81.3789 23.9186 81.3789 23.7754 81.3789 23.6465ZM83.291 19.4785C83.7207 19.3066 84.1361 19.0775 84.5371 18.791C84.9525 18.5046 85.3464 18.2396 85.7188 17.9961C85.7617 17.9674 85.8118 17.9388 85.8691 17.9102C85.9408 17.8815 86.0052 17.8457 86.0625 17.8027C86.1198 17.7598 86.1914 17.7096 86.2773 17.6523V17.4805L84.3008 11.8516L84.2148 11.7656C84.1719 11.8516 84.1146 12.0951 84.043 12.4961C83.9857 12.8971 83.9141 13.4199 83.8281 14.0645C83.7565 14.6947 83.6706 15.4251 83.5703 16.2559C83.4844 17.0866 83.3913 17.9746 83.291 18.9199V19.4785ZM98.3945 24.2695C98.194 23.9831 98.0221 23.5892 97.8789 23.0879C97.75 22.5723 97.6211 22.0352 97.4922 21.4766C97.3776 20.9036 97.2702 20.3522 97.1699 19.8223C97.0697 19.278 96.9622 18.8483 96.8477 18.5332C96.7474 18.2038 96.6328 18.0176 96.5039 17.9746C96.375 17.9316 96.2246 18.125 96.0527 18.5547L94.1836 24.3125C94.112 24.513 94.026 24.6562 93.9258 24.7422C93.8255 24.8138 93.6608 24.8496 93.4316 24.8496C93.3171 24.8496 93.1953 24.8353 93.0664 24.8066C92.9375 24.7637 92.8158 24.7064 92.7012 24.6348C92.5866 24.5632 92.4863 24.4772 92.4004 24.377C92.3288 24.2767 92.2858 24.1621 92.2715 24.0332C92.3145 23.8613 92.3503 23.5462 92.3789 23.0879C92.4219 22.6296 92.4505 22.0996 92.4648 21.498C92.4792 20.8965 92.4863 20.2663 92.4863 19.6074C92.5007 18.9342 92.5007 18.3112 92.4863 17.7383C92.4863 17.151 92.4792 16.6497 92.4648 16.2344C92.4505 15.8047 92.4362 15.5254 92.4219 15.3965C92.4219 15.2533 92.4219 15.11 92.4219 14.9668C92.4362 14.8092 92.4577 14.666 92.4863 14.5371C92.5293 14.4082 92.5938 14.3079 92.6797 14.2363C92.7799 14.1504 92.9303 14.1074 93.1309 14.1074C93.403 14.1074 93.6536 14.222 93.8828 14.4512C94.1263 14.6803 94.248 14.9238 94.248 15.1816C94.248 15.554 94.2266 15.9264 94.1836 16.2988C94.1549 16.6569 94.1406 17.0221 94.1406 17.3945C94.1406 17.6237 94.1406 17.8171 94.1406 17.9746C94.1406 18.1322 94.1693 18.3255 94.2266 18.5547C94.2695 18.4401 94.3411 18.2396 94.4414 17.9531C94.5417 17.6667 94.6491 17.3659 94.7637 17.0508C94.8926 16.7357 95.0072 16.4421 95.1074 16.1699C95.2077 15.8835 95.2793 15.6829 95.3223 15.5684C95.4225 15.2819 95.5729 15.0098 95.7734 14.752C95.974 14.4798 96.2389 14.3294 96.5684 14.3008C96.7832 14.2865 96.9766 14.3438 97.1484 14.4727C97.3346 14.6016 97.4922 14.7734 97.6211 14.9883C97.75 15.1888 97.8574 15.4036 97.9434 15.6328C98.0293 15.8477 98.0938 16.0339 98.1367 16.1914L99.2969 21.541L100.199 23.9902C100.214 24.0046 100.221 24.0475 100.221 24.1191C100.221 24.1764 100.221 24.2194 100.221 24.248C100.221 24.4199 100.178 24.5918 100.092 24.7637C100.02 24.9212 99.8841 25 99.6836 25C99.4401 25 99.1895 24.9355 98.9316 24.8066C98.6738 24.6634 98.4948 24.4844 98.3945 24.2695ZM106.172 19.0059C106.043 19.235 105.893 19.5143 105.721 19.8438C105.563 20.1589 105.391 20.5026 105.205 20.875C105.019 21.2331 104.811 21.5983 104.582 21.9707C104.367 22.3288 104.138 22.6582 103.895 22.959C103.665 23.2598 103.422 23.5176 103.164 23.7324C102.906 23.9329 102.641 24.0547 102.369 24.0977C102.255 24.0977 102.126 24.0905 101.982 24.0762C101.839 24.0475 101.696 24.0117 101.553 23.9688C101.41 23.9115 101.288 23.8398 101.188 23.7539C101.102 23.6536 101.059 23.5247 101.059 23.3672C101.073 21.9062 101.18 20.5814 101.381 19.3926C101.581 18.1895 101.896 17.1367 102.326 16.2344C102.756 15.3177 103.307 14.5586 103.98 13.957C104.654 13.3555 105.47 12.9258 106.43 12.668C106.458 12.668 106.508 12.668 106.58 12.668C106.666 12.6536 106.723 12.6465 106.752 12.6465C107.182 12.6322 107.49 12.8327 107.676 13.248C107.876 13.6491 108.02 14.2936 108.105 15.1816C108.206 16.0553 108.27 17.1868 108.299 18.5762C108.342 19.9512 108.421 21.6055 108.535 23.5391C108.578 23.6966 108.6 23.8327 108.6 23.9473C108.614 24.0618 108.621 24.1979 108.621 24.3555C108.621 24.5703 108.557 24.735 108.428 24.8496C108.299 24.9499 108.134 25 107.934 25C107.518 25 107.225 24.8854 107.053 24.6562C106.881 24.4271 106.766 24.1191 106.709 23.7324C106.709 23.7181 106.695 23.6035 106.666 23.3887C106.652 23.1738 106.623 22.9303 106.58 22.6582C106.551 22.3717 106.523 22.0853 106.494 21.7988C106.465 21.5124 106.444 21.276 106.43 21.0898V21.0039C106.401 20.8607 106.38 20.6816 106.365 20.4668C106.365 20.252 106.351 20.0443 106.322 19.8438C106.294 19.6003 106.272 19.3568 106.258 19.1133L106.172 19.0059ZM105.699 14.752C105.312 15.0384 104.933 15.4251 104.561 15.9121C104.188 16.3991 103.923 16.8717 103.766 17.3301C103.694 17.5449 103.615 17.8385 103.529 18.2109C103.443 18.5833 103.365 18.9557 103.293 19.3281C103.236 19.6862 103.186 20.0228 103.143 20.3379C103.1 20.6387 103.078 20.832 103.078 20.918C103.092 20.918 103.107 20.9036 103.121 20.875C103.15 20.8464 103.171 20.8249 103.186 20.8105C104.074 19.9512 104.697 19.0273 105.055 18.0391C105.427 17.0365 105.642 15.9408 105.699 14.752ZM109.91 23.4961C109.91 22.8945 109.924 22.3073 109.953 21.7344C109.982 21.1615 109.996 20.5742 109.996 19.9727C109.953 18.3398 109.939 16.7428 109.953 15.1816C109.967 13.6061 109.896 11.9948 109.738 10.3477C109.738 10.0755 109.803 9.89648 109.932 9.81055C110.061 9.71029 110.254 9.66016 110.512 9.66016C110.841 9.66016 111.12 9.76042 111.35 9.96094C111.593 10.1471 111.722 10.4121 111.736 10.7559C111.708 12.7897 111.729 14.8092 111.801 16.8145C111.887 18.8053 111.93 20.8249 111.93 22.873V24.5273C111.844 24.6419 111.722 24.7565 111.564 24.8711C111.407 24.9857 111.249 25.0286 111.092 25C110.676 24.9284 110.376 24.7637 110.189 24.5059C110.003 24.2337 109.91 23.8971 109.91 23.4961ZM117.322 30.9082C117.294 30.6074 117.272 30.2422 117.258 29.8125C117.258 29.3828 117.258 28.9316 117.258 28.459C117.258 27.9863 117.258 27.5065 117.258 27.0195C117.272 26.5326 117.294 26.0885 117.322 25.6875V24.9141C117.251 24.8138 117.165 24.7135 117.064 24.6133C116.964 24.4987 116.785 24.2839 116.527 23.9688C116.284 23.6393 115.933 23.1595 115.475 22.5293C115.016 21.8848 114.4 20.9896 113.627 19.8438C113.326 19.5286 113.133 19.2708 113.047 19.0703C112.961 18.8555 112.932 18.6836 112.961 18.5547C112.99 18.4258 113.061 18.3327 113.176 18.2754C113.305 18.2181 113.426 18.1895 113.541 18.1895C113.827 18.1895 114.085 18.2539 114.314 18.3828C114.544 18.5117 114.751 18.6764 114.938 18.877C115.124 19.0775 115.288 19.2995 115.432 19.543C115.589 19.7721 115.74 19.9941 115.883 20.209C115.969 20.3379 116.076 20.5026 116.205 20.7031C116.334 20.9036 116.463 21.1042 116.592 21.3047C116.721 21.4909 116.828 21.6556 116.914 21.7988C117.014 21.9421 117.064 22.0137 117.064 22.0137L117.322 22.293V20.0371C117.322 19.321 117.308 18.6263 117.279 17.9531C117.251 17.2656 117.236 16.571 117.236 15.8691C117.236 15.6686 117.308 15.5039 117.451 15.375C117.594 15.2461 117.766 15.1888 117.967 15.2031C118.21 15.2318 118.389 15.2747 118.504 15.332C118.633 15.3893 118.762 15.5039 118.891 15.6758C119.005 15.8333 119.055 16.0195 119.041 16.2344C119.041 16.4492 119.048 16.6569 119.062 16.8574C119.12 18.2181 119.163 19.5788 119.191 20.9395C119.234 22.2858 119.256 23.6393 119.256 25C119.242 25.1289 119.234 25.3867 119.234 25.7734C119.234 26.1745 119.234 26.6257 119.234 27.127C119.249 27.6283 119.256 28.151 119.256 28.6953C119.27 29.2396 119.277 29.7337 119.277 30.1777C119.292 30.6361 119.299 31.0085 119.299 31.2949C119.313 31.5957 119.327 31.7389 119.342 31.7246C119.342 31.9395 119.263 32.097 119.105 32.1973C118.962 32.2975 118.783 32.3477 118.568 32.3477C118.282 32.3477 118.067 32.3047 117.924 32.2188C117.795 32.1471 117.695 32.0397 117.623 31.8965C117.551 31.7676 117.501 31.6172 117.473 31.4453C117.444 31.2734 117.394 31.0944 117.322 30.9082ZM122.436 18.7266C122.235 18.7266 122.056 18.7767 121.898 18.877C121.741 18.9772 121.555 19.0273 121.34 19.0273C121.311 19.0273 121.232 19.0273 121.104 19.0273C120.989 19.013 120.917 19.0059 120.889 19.0059C120.831 18.9342 120.767 18.877 120.695 18.834C120.624 18.791 120.552 18.748 120.48 18.7051C120.409 18.6478 120.344 18.5833 120.287 18.5117C120.244 18.4401 120.223 18.3398 120.223 18.2109C120.223 17.9961 120.309 17.8242 120.48 17.6953C120.652 17.5521 120.853 17.4303 121.082 17.3301C121.311 17.2298 121.54 17.1367 121.77 17.0508C122.013 16.9648 122.206 16.8646 122.35 16.75V15.8047C122.35 14.7448 122.299 13.6849 122.199 12.625C122.099 11.5508 122.049 10.4909 122.049 9.44531C122.049 9.15885 122.12 8.97266 122.264 8.88672C122.407 8.80078 122.6 8.75781 122.844 8.75781C123.13 8.75781 123.338 8.84375 123.467 9.01562C123.61 9.17318 123.71 9.3737 123.768 9.61719C123.825 9.84635 123.854 10.097 123.854 10.3691C123.854 10.627 123.861 10.849 123.875 11.0352C123.875 11.2214 123.889 11.5508 123.918 12.0234C123.947 12.4961 123.975 12.9974 124.004 13.5273C124.033 14.0573 124.061 14.5586 124.09 15.0312C124.118 15.5039 124.14 15.8333 124.154 16.0195C124.212 16.0052 124.319 15.9694 124.477 15.9121C124.648 15.8405 124.827 15.776 125.014 15.7188C125.2 15.6471 125.372 15.5827 125.529 15.5254C125.701 15.4681 125.823 15.4251 125.895 15.3965C126.267 15.2389 126.654 15.0671 127.055 14.8809C127.456 14.6803 127.864 14.5801 128.279 14.5801C128.566 14.5801 128.781 14.6803 128.924 14.8809C129.081 15.0671 129.16 15.2891 129.16 15.5469C129.16 15.7331 129.089 15.8691 128.945 15.9551C128.802 16.041 128.652 16.1198 128.494 16.1914L124.584 17.6523C124.541 17.681 124.498 17.7096 124.455 17.7383C124.412 17.7526 124.369 17.7812 124.326 17.8242V18.5117C124.326 19.013 124.333 19.5358 124.348 20.0801C124.376 20.61 124.426 21.1257 124.498 21.627C124.57 22.0566 124.648 22.4792 124.734 22.8945C124.82 23.3099 124.863 23.7324 124.863 24.1621C124.863 24.291 124.82 24.4629 124.734 24.6777C124.648 24.8926 124.512 25 124.326 25C123.939 25 123.624 24.8854 123.381 24.6562C123.137 24.4271 123.001 24.1191 122.973 23.7324C122.901 22.9876 122.822 22.1712 122.736 21.2832C122.665 20.3952 122.593 19.543 122.521 18.7266H122.436ZM130.857 24.1836C130.714 22.7513 130.592 21.5267 130.492 20.5098C130.392 19.4928 130.306 18.6406 130.234 17.9531C130.163 17.2656 130.098 16.7214 130.041 16.3203C129.998 15.9049 129.962 15.597 129.934 15.3965C129.905 15.1816 129.883 15.0384 129.869 14.9668C129.855 14.8952 129.848 14.8522 129.848 14.8379V14.752C129.848 14.5944 129.912 14.4655 130.041 14.3652C130.184 14.2507 130.327 14.1934 130.471 14.1934C130.686 14.1934 130.915 14.2292 131.158 14.3008C131.416 14.3724 131.588 14.5228 131.674 14.752C131.803 15.4538 131.889 16.1628 131.932 16.8789C131.989 17.5951 132.032 18.3112 132.061 19.0273C132.104 19.7292 132.154 20.4382 132.211 21.1543C132.283 21.8704 132.404 22.5794 132.576 23.2812C132.576 23.3099 132.583 23.3672 132.598 23.4531C132.626 23.5391 132.648 23.6322 132.662 23.7324C132.691 23.8327 132.712 23.9258 132.727 24.0117C132.741 24.0977 132.748 24.1549 132.748 24.1836V24.2266C132.748 24.2409 132.755 24.2552 132.77 24.2695C132.77 24.4414 132.691 24.6133 132.533 24.7852C132.376 24.957 132.211 25.0286 132.039 25C131.996 24.9857 131.889 24.9642 131.717 24.9355C131.559 24.8926 131.452 24.8568 131.395 24.8281C131.352 24.8138 131.294 24.7852 131.223 24.7422C131.151 24.6849 131.079 24.6276 131.008 24.5703C130.951 24.513 130.9 24.4486 130.857 24.377C130.814 24.3053 130.814 24.2409 130.857 24.1836ZM129.654 8.52148C129.654 8.42122 129.733 8.33529 129.891 8.26367C130.062 8.17773 130.191 8.13477 130.277 8.13477C130.492 8.13477 130.729 8.19922 130.986 8.32812C131.258 8.44271 131.395 8.62174 131.395 8.86523C131.395 9.10872 131.359 9.27344 131.287 9.35938C131.23 9.44531 131.079 9.48828 130.836 9.48828C130.578 9.48828 130.313 9.40234 130.041 9.23047C129.783 9.05859 129.654 8.82227 129.654 8.52148ZM133.564 22.4219C133.464 21.9922 133.464 21.4837 133.564 20.8965C133.679 20.3092 133.851 19.722 134.08 19.1348C134.324 18.5332 134.617 17.9674 134.961 17.4375C135.319 16.9076 135.691 16.485 136.078 16.1699C136.479 15.8548 136.88 15.6829 137.281 15.6543C137.697 15.6113 138.09 15.7904 138.463 16.1914C138.463 16.2057 138.47 16.2415 138.484 16.2988C138.499 16.3561 138.513 16.4779 138.527 16.6641C138.542 16.8359 138.549 17.0866 138.549 17.416C138.563 17.7311 138.57 18.168 138.57 18.7266C138.585 18.7552 138.599 18.8053 138.613 18.877C138.642 18.9342 138.656 18.9772 138.656 19.0059C138.613 19.1634 138.527 19.3138 138.398 19.457C138.284 19.5859 138.133 19.6504 137.947 19.6504C137.704 19.6504 137.503 19.6146 137.346 19.543C137.202 19.457 137.095 19.2637 137.023 18.9629C137.052 18.9199 137.059 18.834 137.045 18.7051C137.031 18.5618 137.002 18.4043 136.959 18.2324C136.93 18.0605 136.902 17.8887 136.873 17.7168C136.844 17.5449 136.83 17.4089 136.83 17.3086C136.816 17.3086 136.794 17.3229 136.766 17.3516C136.751 17.3659 136.737 17.3802 136.723 17.3945C136.479 17.8242 136.25 18.304 136.035 18.834C135.835 19.3496 135.677 19.8796 135.562 20.4238C135.462 20.9538 135.426 21.4837 135.455 22.0137C135.498 22.5436 135.656 23.0234 135.928 23.4531C136.128 23.4531 136.314 23.3743 136.486 23.2168C136.658 23.0449 136.801 22.8874 136.916 22.7441C137.16 22.4577 137.396 22.1641 137.625 21.8633C137.868 21.5625 138.09 21.2474 138.291 20.918C138.377 20.7747 138.441 20.6458 138.484 20.5312C138.527 20.4167 138.577 20.3236 138.635 20.252C138.706 20.1803 138.792 20.123 138.893 20.0801C138.993 20.0371 139.143 20.0156 139.344 20.0156C139.573 20.0156 139.788 20.0729 139.988 20.1875C140.189 20.2878 140.289 20.4596 140.289 20.7031C140.289 21.0326 140.139 21.4479 139.838 21.9492C139.551 22.4362 139.193 22.9089 138.764 23.3672C138.348 23.8255 137.904 24.2194 137.432 24.5488C136.959 24.8639 136.544 25.0215 136.186 25.0215C135.842 25.0215 135.505 24.957 135.176 24.8281C134.861 24.6849 134.581 24.4987 134.338 24.2695C134.109 24.0404 133.923 23.7682 133.779 23.4531C133.636 23.138 133.564 22.7943 133.564 22.4219ZM146.176 19.0059C146.047 19.235 145.896 19.5143 145.725 19.8438C145.567 20.1589 145.395 20.5026 145.209 20.875C145.023 21.2331 144.815 21.5983 144.586 21.9707C144.371 22.3288 144.142 22.6582 143.898 22.959C143.669 23.2598 143.426 23.5176 143.168 23.7324C142.91 23.9329 142.645 24.0547 142.373 24.0977C142.258 24.0977 142.13 24.0905 141.986 24.0762C141.843 24.0475 141.7 24.0117 141.557 23.9688C141.413 23.9115 141.292 23.8398 141.191 23.7539C141.105 23.6536 141.062 23.5247 141.062 23.3672C141.077 21.9062 141.184 20.5814 141.385 19.3926C141.585 18.1895 141.9 17.1367 142.33 16.2344C142.76 15.3177 143.311 14.5586 143.984 13.957C144.658 13.3555 145.474 12.9258 146.434 12.668C146.462 12.668 146.512 12.668 146.584 12.668C146.67 12.6536 146.727 12.6465 146.756 12.6465C147.186 12.6322 147.493 12.8327 147.68 13.248C147.88 13.6491 148.023 14.2936 148.109 15.1816C148.21 16.0553 148.274 17.1868 148.303 18.5762C148.346 19.9512 148.424 21.6055 148.539 23.5391C148.582 23.6966 148.604 23.8327 148.604 23.9473C148.618 24.0618 148.625 24.1979 148.625 24.3555C148.625 24.5703 148.561 24.735 148.432 24.8496C148.303 24.9499 148.138 25 147.938 25C147.522 25 147.229 24.8854 147.057 24.6562C146.885 24.4271 146.77 24.1191 146.713 23.7324C146.713 23.7181 146.699 23.6035 146.67 23.3887C146.656 23.1738 146.627 22.9303 146.584 22.6582C146.555 22.3717 146.527 22.0853 146.498 21.7988C146.469 21.5124 146.448 21.276 146.434 21.0898V21.0039C146.405 20.8607 146.383 20.6816 146.369 20.4668C146.369 20.252 146.355 20.0443 146.326 19.8438C146.298 19.6003 146.276 19.3568 146.262 19.1133L146.176 19.0059ZM145.703 14.752C145.316 15.0384 144.937 15.4251 144.564 15.9121C144.192 16.3991 143.927 16.8717 143.77 17.3301C143.698 17.5449 143.619 17.8385 143.533 18.2109C143.447 18.5833 143.368 18.9557 143.297 19.3281C143.24 19.6862 143.189 20.0228 143.146 20.3379C143.104 20.6387 143.082 20.832 143.082 20.918C143.096 20.918 143.111 20.9036 143.125 20.875C143.154 20.8464 143.175 20.8249 143.189 20.8105C144.077 19.9512 144.701 19.0273 145.059 18.0391C145.431 17.0365 145.646 15.9408 145.703 14.752ZM149.914 23.4961C149.914 22.8945 149.928 22.3073 149.957 21.7344C149.986 21.1615 150 20.5742 150 19.9727C149.957 18.3398 149.943 16.7428 149.957 15.1816C149.971 13.6061 149.9 11.9948 149.742 10.3477C149.742 10.0755 149.807 9.89648 149.936 9.81055C150.064 9.71029 150.258 9.66016 150.516 9.66016C150.845 9.66016 151.124 9.76042 151.354 9.96094C151.597 10.1471 151.726 10.4121 151.74 10.7559C151.712 12.7897 151.733 14.8092 151.805 16.8145C151.891 18.8053 151.934 20.8249 151.934 22.873V24.5273C151.848 24.6419 151.726 24.7565 151.568 24.8711C151.411 24.9857 151.253 25.0286 151.096 25C150.68 24.9284 150.38 24.7637 150.193 24.5059C150.007 24.2337 149.914 23.8971 149.914 23.4961ZM165.061 24.2266C165.29 23.9115 165.54 23.6751 165.812 23.5176C166.099 23.36 166.385 23.2311 166.672 23.1309C166.973 23.0306 167.266 22.9375 167.553 22.8516C167.854 22.7513 168.147 22.5938 168.434 22.3789C168.591 22.293 168.813 22.1641 169.1 21.9922C169.386 21.8203 169.665 21.6341 169.938 21.4336C170.224 21.2188 170.467 21.0111 170.668 20.8105C170.883 20.61 170.99 20.4382 170.99 20.2949C170.99 20.2806 170.983 20.2734 170.969 20.2734C170.94 20.2734 170.926 20.2663 170.926 20.252L170.883 20.209C170.811 20.1803 170.697 20.1445 170.539 20.1016C170.382 20.0586 170.288 20.0299 170.26 20.0156C168.412 19.8008 166.923 19.6146 165.791 19.457C164.674 19.2852 163.807 19.1061 163.191 18.9199C162.59 18.7337 162.189 18.5189 161.988 18.2754C161.788 18.0319 161.688 17.724 161.688 17.3516C161.688 17.2083 161.716 17.0508 161.773 16.8789C161.831 16.707 161.895 16.5352 161.967 16.3633C162.053 16.1914 162.139 16.0339 162.225 15.8906C162.311 15.7474 162.389 15.6328 162.461 15.5469C162.69 15.2604 162.991 15.0026 163.363 14.7734C163.736 14.5443 164.137 14.3438 164.566 14.1719C164.996 14 165.426 13.8496 165.855 13.7207C166.299 13.5918 166.701 13.4772 167.059 13.377C167.46 13.3483 167.861 13.2552 168.262 13.0977C168.677 12.9258 169.085 12.8112 169.486 12.7539C169.687 12.7539 169.852 12.8327 169.98 12.9902C170.109 13.1478 170.174 13.3125 170.174 13.4844C170.174 13.7279 170.124 13.9141 170.023 14.043C169.938 14.1576 169.816 14.2507 169.658 14.3223C169.515 14.3796 169.35 14.4297 169.164 14.4727C168.978 14.5013 168.792 14.5371 168.605 14.5801C168.491 14.6087 168.333 14.6517 168.133 14.709C167.932 14.752 167.732 14.8021 167.531 14.8594C167.331 14.9167 167.152 14.9668 166.994 15.0098C166.837 15.0527 166.743 15.0814 166.715 15.0957C166.271 15.2819 165.848 15.4609 165.447 15.6328C165.061 15.7904 164.717 15.9551 164.416 16.127C164.13 16.2988 163.9 16.485 163.729 16.6855C163.571 16.8717 163.499 17.0794 163.514 17.3086V17.3301C163.657 17.5306 163.979 17.681 164.48 17.7812C164.982 17.8815 165.569 17.9674 166.242 18.0391C166.93 18.1107 167.646 18.1823 168.391 18.2539C169.15 18.3255 169.844 18.4329 170.475 18.5762C171.105 18.7194 171.628 18.9128 172.043 19.1562C172.458 19.3997 172.673 19.7292 172.688 20.1445C172.688 20.3021 172.652 20.4883 172.58 20.7031C172.523 20.918 172.437 21.0827 172.322 21.1973C171.964 21.5983 171.535 22.0137 171.033 22.4434C170.546 22.873 170.016 23.2741 169.443 23.6465C168.87 24.0046 168.276 24.3125 167.66 24.5703C167.059 24.8138 166.464 24.957 165.877 25C165.676 25 165.49 24.9284 165.318 24.7852C165.146 24.6276 165.061 24.4414 165.061 24.2266ZM173.934 25.7949C173.934 25.7233 173.926 25.6016 173.912 25.4297C173.898 25.2578 173.883 25.0788 173.869 24.8926C173.869 24.6921 173.862 24.513 173.848 24.3555C173.848 24.1836 173.848 24.0618 173.848 23.9902C173.833 23.5892 173.826 22.9805 173.826 22.1641C173.84 21.3477 173.848 20.4525 173.848 19.4785C173.862 18.4902 173.876 17.4805 173.891 16.4492C173.905 15.418 173.912 14.4798 173.912 13.6348C173.912 12.7754 173.905 12.0664 173.891 11.5078C173.891 10.9492 173.876 10.6628 173.848 10.6484C173.848 10.5052 173.898 10.362 173.998 10.2188C174.098 10.0612 174.227 9.99674 174.385 10.0254C174.499 10.0254 174.628 10.0469 174.771 10.0898C174.929 10.1185 175.072 10.1686 175.201 10.2402C175.33 10.3118 175.438 10.4049 175.523 10.5195C175.624 10.6198 175.674 10.7487 175.674 10.9062V17.1797H175.76L178.23 14.3652C178.331 14.2363 178.424 14.0859 178.51 13.9141C178.61 13.7422 178.71 13.5775 178.811 13.4199C178.911 13.2624 179.025 13.1191 179.154 12.9902C179.283 12.8613 179.448 12.7754 179.648 12.7324C179.949 12.804 180.207 12.9043 180.422 13.0332C180.637 13.1621 180.744 13.3913 180.744 13.7207C180.744 13.7493 180.73 13.7995 180.701 13.8711C180.687 13.9284 180.673 13.9714 180.658 14C180.615 14.0573 180.522 14.1719 180.379 14.3438C180.25 14.5013 180.028 14.7734 179.713 15.1602C179.412 15.5326 178.997 16.0339 178.467 16.6641C177.951 17.2799 177.285 18.082 176.469 19.0703L176.662 19.1777L180.83 19.6074C181.016 19.6361 181.181 19.7435 181.324 19.9297C181.482 20.1016 181.561 20.2663 181.561 20.4238C181.561 20.7103 181.453 20.918 181.238 21.0469C181.038 21.1615 180.816 21.2331 180.572 21.2617C180.558 21.2044 180.508 21.1758 180.422 21.1758C180.35 21.1615 180.157 21.14 179.842 21.1113C179.527 21.0827 179.047 21.0397 178.402 20.9824C177.772 20.9108 176.891 20.7891 175.76 20.6172L175.846 25.7305C175.846 26.0169 175.796 26.2318 175.695 26.375C175.595 26.5326 175.373 26.6113 175.029 26.6113C174.771 26.6113 174.542 26.5254 174.342 26.3535C174.156 26.196 174.02 26.0098 173.934 25.7949ZM183.215 24.1836C183.072 22.7513 182.95 21.5267 182.85 20.5098C182.749 19.4928 182.663 18.6406 182.592 17.9531C182.52 17.2656 182.456 16.7214 182.398 16.3203C182.355 15.9049 182.32 15.597 182.291 15.3965C182.262 15.1816 182.241 15.0384 182.227 14.9668C182.212 14.8952 182.205 14.8522 182.205 14.8379V14.752C182.205 14.5944 182.27 14.4655 182.398 14.3652C182.542 14.2507 182.685 14.1934 182.828 14.1934C183.043 14.1934 183.272 14.2292 183.516 14.3008C183.773 14.3724 183.945 14.5228 184.031 14.752C184.16 15.4538 184.246 16.1628 184.289 16.8789C184.346 17.5951 184.389 18.3112 184.418 19.0273C184.461 19.7292 184.511 20.4382 184.568 21.1543C184.64 21.8704 184.762 22.5794 184.934 23.2812C184.934 23.3099 184.941 23.3672 184.955 23.4531C184.984 23.5391 185.005 23.6322 185.02 23.7324C185.048 23.8327 185.07 23.9258 185.084 24.0117C185.098 24.0977 185.105 24.1549 185.105 24.1836V24.2266C185.105 24.2409 185.113 24.2552 185.127 24.2695C185.127 24.4414 185.048 24.6133 184.891 24.7852C184.733 24.957 184.568 25.0286 184.396 25C184.354 24.9857 184.246 24.9642 184.074 24.9355C183.917 24.8926 183.809 24.8568 183.752 24.8281C183.709 24.8138 183.652 24.7852 183.58 24.7422C183.508 24.6849 183.437 24.6276 183.365 24.5703C183.308 24.513 183.258 24.4486 183.215 24.377C183.172 24.3053 183.172 24.2409 183.215 24.1836ZM182.012 8.52148C182.012 8.42122 182.09 8.33529 182.248 8.26367C182.42 8.17773 182.549 8.13477 182.635 8.13477C182.85 8.13477 183.086 8.19922 183.344 8.32812C183.616 8.44271 183.752 8.62174 183.752 8.86523C183.752 9.10872 183.716 9.27344 183.645 9.35938C183.587 9.44531 183.437 9.48828 183.193 9.48828C182.936 9.48828 182.671 9.40234 182.398 9.23047C182.141 9.05859 182.012 8.82227 182.012 8.52148ZM186.094 23.4961C186.094 22.8945 186.108 22.3073 186.137 21.7344C186.165 21.1615 186.18 20.5742 186.18 19.9727C186.137 18.3398 186.122 16.7428 186.137 15.1816C186.151 13.6061 186.079 11.9948 185.922 10.3477C185.922 10.0755 185.986 9.89648 186.115 9.81055C186.244 9.71029 186.438 9.66016 186.695 9.66016C187.025 9.66016 187.304 9.76042 187.533 9.96094C187.777 10.1471 187.906 10.4121 187.92 10.7559C187.891 12.7897 187.913 14.8092 187.984 16.8145C188.07 18.8053 188.113 20.8249 188.113 22.873V24.5273C188.027 24.6419 187.906 24.7565 187.748 24.8711C187.59 24.9857 187.433 25.0286 187.275 25C186.86 24.9284 186.559 24.7637 186.373 24.5059C186.187 24.2337 186.094 23.8971 186.094 23.4961ZM189.381 23.4961C189.381 22.8945 189.395 22.3073 189.424 21.7344C189.452 21.1615 189.467 20.5742 189.467 19.9727C189.424 18.3398 189.41 16.7428 189.424 15.1816C189.438 13.6061 189.367 11.9948 189.209 10.3477C189.209 10.0755 189.273 9.89648 189.402 9.81055C189.531 9.71029 189.725 9.66016 189.982 9.66016C190.312 9.66016 190.591 9.76042 190.82 9.96094C191.064 10.1471 191.193 10.4121 191.207 10.7559C191.178 12.7897 191.2 14.8092 191.271 16.8145C191.357 18.8053 191.4 20.8249 191.4 22.873V24.5273C191.314 24.6419 191.193 24.7565 191.035 24.8711C190.878 24.9857 190.72 25.0286 190.562 25C190.147 24.9284 189.846 24.7637 189.66 24.5059C189.474 24.2337 189.381 23.8971 189.381 23.4961ZM195.74 24.1836C195.74 24.112 195.74 24.0475 195.74 23.9902C195.755 23.9329 195.79 23.8757 195.848 23.8184C196.02 23.6035 196.213 23.3815 196.428 23.1523C196.643 22.9089 196.85 22.6725 197.051 22.4434C197.251 22.1999 197.438 21.9492 197.609 21.6914C197.781 21.4336 197.924 21.1758 198.039 20.918V20.7891L195.225 21.3691H194.902C194.702 21.3691 194.451 21.3548 194.15 21.3262C193.864 21.2975 193.577 21.2402 193.291 21.1543C193.019 21.054 192.783 20.918 192.582 20.7461C192.396 20.5742 192.303 20.3451 192.303 20.0586C192.317 19.7292 192.489 19.3639 192.818 18.9629C193.148 18.5618 193.535 18.168 193.979 17.7812C194.423 17.3945 194.867 17.0365 195.311 16.707C195.769 16.3776 196.134 16.1198 196.406 15.9336C196.707 15.7617 197.065 15.6257 197.48 15.5254C197.896 15.4108 198.275 15.3535 198.619 15.3535C198.906 15.3535 199.156 15.4108 199.371 15.5254C199.586 15.6257 199.693 15.8333 199.693 16.1484C199.693 16.2773 199.679 16.3991 199.65 16.5137C199.636 16.6283 199.55 16.707 199.393 16.75C198.934 16.707 198.505 16.7428 198.104 16.8574C197.702 16.9577 197.323 17.1152 196.965 17.3301C196.607 17.5449 196.27 17.8027 195.955 18.1035C195.64 18.39 195.332 18.6908 195.031 19.0059C194.945 19.1061 194.838 19.2493 194.709 19.4355C194.58 19.6074 194.516 19.7077 194.516 19.7363V19.7578C194.888 19.7578 195.253 19.722 195.611 19.6504C195.984 19.5788 196.349 19.5072 196.707 19.4355C197.079 19.3496 197.445 19.2708 197.803 19.1992C198.175 19.1276 198.555 19.0918 198.941 19.0918C199.085 19.0918 199.242 19.1061 199.414 19.1348C199.586 19.1491 199.743 19.1921 199.887 19.2637C200.044 19.3353 200.166 19.4355 200.252 19.5645C200.352 19.679 200.402 19.8294 200.402 20.0156C200.402 20.2878 200.331 20.5527 200.188 20.8105C200.059 21.054 199.858 21.3548 199.586 21.7129C199.328 22.0566 198.992 22.4792 198.576 22.9805C198.175 23.4818 197.695 24.1263 197.137 24.9141C197.108 24.957 197.036 24.9857 196.922 25C196.822 25.0143 196.736 25.0215 196.664 25.0215C196.464 25.0215 196.256 24.9355 196.041 24.7637C195.84 24.5918 195.74 24.3984 195.74 24.1836Z" fill="black"/>
<defs>
<filter id="filter0_i_4585_2792" x="1.95215" y="1.96155" width="214.593" height="33.5385" filterUnits="userSpaceOnUse" color-interpolation-filters="sRGB">
<feFlood flood-opacity="0" result="BackgroundImageFix"/>
<feBlend mode="normal" in="SourceGraphic" in2="BackgroundImageFix" result="shape"/>
<feColorMatrix in="SourceAlpha" type="matrix" values="0 0 0 0 0 0 0 0 0 0 0 0 0 0 0 0 0 0 127 0" result="hardAlpha"/>
<feOffset dx="4" dy="4"/>
<feComposite in2="hardAlpha" operator="arithmetic" k2="-1" k3="1"/>
<feColorMatrix type="matrix" values="0 0 0 0 0.694118 0 0 0 0 0.721569 0 0 0 0 0.741176 0 0 0 1 0"/>
<feBlend mode="multiply" in2="shape" result="effect1_innerShadow_4585_2792"/>
</filter>
</defs>
</svg>
