<svg width="119" height="37" viewBox="0 0 119 37" fill="none" xmlns="http://www.w3.org/2000/svg">
<g filter="url(#filter0_i_4585_2571)">
<path d="M113.022 7.61228C116.541 11.6933 116.541 20.3656 116.541 20.3656C116.731 28.2124 110.276 34.5 102.02 34.5C102.02 31.5523 102.02 2.00081 102.02 2.00081C105.163 1.66061 109.502 3.53121 113.022 7.61228Z" fill="white"/>
<path d="M18.7676 2H102.02V34.5C102.02 34.5 89.6706 34.2049 76.0256 34.5C68.4119 34.6647 52.4265 35.5 46.7083 35.5C30.7422 35.5 18.7676 34.5 18.7676 34.5V2Z" fill="white"/>
<path d="M5.14517 27.9432C0.335274 22.3612 1.47845 11.5 5.14549 8C8.81252 4.5 8.60485 4.5 11.9565 3.5C15.3082 2.5 18.7674 2 18.7674 2V34.5C13.1929 34.5 9.95507 33.5252 5.14517 27.9432Z" fill="white"/>
</g>
<path d="M18.7676 34.5C32.597 34.5 32.1251 35 45.9472 35C59.7767 35 61.4432 34.4063 75.2727 34.4063C89.1021 34.4063 85.0466 34 98.8761 34" stroke="black" stroke-width="3" stroke-miterlimit="10" stroke-linecap="round" stroke-linejoin="round"/>
<path d="M2.00244 17.5C2.00244 7 9.6485 2 18.555 2C11.2202 2 2.52635 8 2.52635 17.5C2.52635 31.5 14.5763 34.5 18.2437 34.5C10.385 34.5 2.00244 28 2.00244 17.5Z" stroke="black" stroke-width="3" stroke-linecap="round" stroke-linejoin="round"/>
<path d="M117 19C117 29.5 107.782 34 98.8759 34C106.211 34 115.33 30.5 116.165 20.5C117.33 6.54422 106.735 2 100.759 1.99999C108.617 2 117 8.49998 117 19Z" stroke="black" stroke-width="3" stroke-linecap="round" stroke-linejoin="round"/>
<path d="M18.7676 2C32.5886 2 31.159 2 44.9727 2C58.7938 2 58.8359 1.5 72.657 1.5C86.478 1.5 87.1507 2.00001 100.972 2.00001" stroke="black" stroke-width="3" stroke-miterlimit="10" stroke-linecap="round" stroke-linejoin="round"/>
<path d="M22.6836 15.5684C22.6693 15.4538 22.6478 15.3105 22.6191 15.1387C22.6048 14.9525 22.5833 14.7806 22.5547 14.623C22.5404 14.4512 22.526 14.3079 22.5117 14.1934C22.4974 14.0788 22.4902 14.0215 22.4902 14.0215H22.3184L19.8691 14.752C19.7975 14.8665 19.6758 14.9238 19.5039 14.9238C19.3464 14.9238 19.2246 14.9238 19.1387 14.9238C18.9382 14.9238 18.7305 14.8379 18.5156 14.666C18.3151 14.4798 18.2148 14.2793 18.2148 14.0645C18.2148 13.9069 18.265 13.7565 18.3652 13.6133C18.4798 13.4557 18.6159 13.3483 18.7734 13.291L22.2324 12.1953C22.2754 12.0378 22.3542 11.8802 22.4688 11.7227C22.5977 11.5508 22.7624 11.4648 22.9629 11.4648C23.1634 11.4648 23.3281 11.515 23.457 11.6152C23.6003 11.7155 23.7578 11.7943 23.9297 11.8516C24.0586 11.8372 24.2734 11.7943 24.5742 11.7227C24.875 11.651 25.1901 11.5794 25.5195 11.5078C25.8633 11.4219 26.1855 11.3431 26.4863 11.2715C26.7871 11.1999 26.9948 11.1497 27.1094 11.1211C27.2812 11.0924 27.4102 11.0566 27.4961 11.0137C27.582 10.9707 27.7181 10.9492 27.9043 10.9492C28.1478 10.9492 28.3984 11.0208 28.6562 11.1641C28.9141 11.3073 29.043 11.5221 29.043 11.8086C29.043 11.9948 28.9785 12.1595 28.8496 12.3027C28.7207 12.4316 28.5632 12.5176 28.377 12.5605L24.2949 13.5918V13.7852C24.2949 14.2292 24.3307 14.666 24.4023 15.0957C24.4883 15.5254 24.5169 15.9551 24.4883 16.3848L25.2188 23.0234V23.4961C25.2188 23.668 25.2116 23.847 25.1973 24.0332C25.1973 24.2051 25.1686 24.3626 25.1113 24.5059C25.0684 24.6491 24.9896 24.7708 24.875 24.8711C24.7604 24.957 24.5885 25 24.3594 25C24.1875 25 24.0013 24.9284 23.8008 24.7852C23.6146 24.6419 23.5143 24.4701 23.5 24.2695L22.6836 15.7402V15.5684ZM37.1211 18.8984C37.0924 19.1562 37.0566 19.3568 37.0137 19.5C36.985 19.6432 36.9277 19.7721 36.8418 19.8867C36.7559 20.0013 36.6341 20.123 36.4766 20.252C36.319 20.3665 36.1042 20.5384 35.832 20.7676C35.5599 20.9824 35.2233 21.2689 34.8223 21.627C34.4212 21.985 33.9342 22.4505 33.3613 23.0234C33.1322 23.2383 32.8958 23.4603 32.6523 23.6895C32.4089 23.9186 32.151 24.1263 31.8789 24.3125C31.6211 24.4844 31.349 24.6276 31.0625 24.7422C30.776 24.8568 30.4753 24.9141 30.1602 24.9141C29.5443 24.9141 29.0931 24.7064 28.8066 24.291C28.5202 23.8757 28.377 23.3958 28.377 22.8516C28.377 22.4935 28.3841 22.1927 28.3984 21.9492C28.4271 21.7057 28.4844 21.3906 28.5703 21.0039C28.4128 20.8607 28.2767 20.7389 28.1621 20.6387C28.0475 20.5241 27.9902 20.3737 27.9902 20.1875C27.9902 20.0156 28.026 19.901 28.0977 19.8438C28.1836 19.7865 28.2767 19.7507 28.377 19.7363C28.4915 19.7077 28.599 19.679 28.6992 19.6504C28.7995 19.6217 28.8711 19.5645 28.9141 19.4785C28.9427 19.3926 28.9928 19.235 29.0645 19.0059C29.1504 18.7767 29.2363 18.5404 29.3223 18.2969C29.4082 18.0391 29.487 17.8027 29.5586 17.5879C29.6445 17.3587 29.7018 17.2012 29.7305 17.1152C29.8307 16.8717 29.9382 16.6283 30.0527 16.3848C30.1816 16.127 30.3249 15.8978 30.4824 15.6973C30.6543 15.4967 30.8477 15.332 31.0625 15.2031C31.2917 15.0742 31.5566 15.0098 31.8574 15.0098C32.0293 15.0098 32.237 15.0885 32.4805 15.2461C32.7383 15.4036 32.9818 15.597 33.2109 15.8262C33.4401 16.041 33.6335 16.2702 33.791 16.5137C33.9486 16.7572 34.0273 16.9648 34.0273 17.1367C34.0273 17.3516 33.9772 17.5521 33.877 17.7383C33.7767 17.9102 33.6478 18.0749 33.4902 18.2324C33.347 18.3757 33.1895 18.5117 33.0176 18.6406C32.8457 18.7695 32.6882 18.8913 32.5449 19.0059C32.5306 19.0059 32.502 19.0202 32.459 19.0488C32.416 19.0775 32.3802 19.099 32.3516 19.1133C32.3372 19.1276 32.3014 19.1634 32.2441 19.2207C32.2012 19.2637 32.151 19.3138 32.0938 19.3711C32.0365 19.4284 31.9792 19.4857 31.9219 19.543C31.8789 19.6003 31.8503 19.6361 31.8359 19.6504C31.793 19.6934 31.707 19.765 31.5781 19.8652C31.4635 19.9512 31.3346 20.0514 31.1914 20.166C31.0482 20.2663 30.9121 20.3665 30.7832 20.4668C30.6686 20.5527 30.5898 20.61 30.5469 20.6387L30.4609 20.8105C30.4323 20.8678 30.4036 20.9967 30.375 21.1973C30.3607 21.3835 30.3392 21.5983 30.3105 21.8418C30.2819 22.0853 30.2533 22.3359 30.2246 22.5938C30.2103 22.8372 30.2031 23.0378 30.2031 23.1953C30.2031 23.2096 30.2103 23.224 30.2246 23.2383C30.2533 23.2669 30.2747 23.2812 30.2891 23.2812C30.4036 23.2812 30.5111 23.2311 30.6113 23.1309C30.7116 23.0306 30.819 22.959 30.9336 22.916L34.3711 19.7363L35.252 18.3828C35.3236 18.2826 35.4596 18.1751 35.6602 18.0605C35.875 17.9316 36.0898 17.8672 36.3047 17.8672C36.5195 17.8529 36.7057 17.9173 36.8633 18.0605C37.0352 18.2038 37.1211 18.4831 37.1211 18.8984ZM32.3945 17.2227C32.4661 17.1654 32.4948 17.0794 32.4805 16.9648C32.4661 16.8503 32.4232 16.75 32.3516 16.6641C32.2943 16.5781 32.2155 16.528 32.1152 16.5137C32.015 16.485 31.9219 16.5352 31.8359 16.6641C31.793 16.7214 31.7142 16.8359 31.5996 17.0078C31.4993 17.1797 31.3919 17.3587 31.2773 17.5449C31.1771 17.7168 31.0911 17.8672 31.0195 17.9961C30.9479 18.125 30.9336 18.1751 30.9766 18.1465L32.3945 17.2227ZM43.8242 24.2695C43.6237 23.9831 43.4518 23.5892 43.3086 23.0879C43.1797 22.5723 43.0508 22.0352 42.9219 21.4766C42.8073 20.9036 42.6999 20.3522 42.5996 19.8223C42.4993 19.278 42.3919 18.8483 42.2773 18.5332C42.1771 18.2038 42.0625 18.0176 41.9336 17.9746C41.8047 17.9316 41.6543 18.125 41.4824 18.5547L39.6133 24.3125C39.5417 24.513 39.4557 24.6562 39.3555 24.7422C39.2552 24.8138 39.0905 24.8496 38.8613 24.8496C38.7467 24.8496 38.625 24.8353 38.4961 24.8066C38.3672 24.7637 38.2454 24.7064 38.1309 24.6348C38.0163 24.5632 37.916 24.4772 37.8301 24.377C37.7585 24.2767 37.7155 24.1621 37.7012 24.0332C37.7441 23.8613 37.7799 23.5462 37.8086 23.0879C37.8516 22.6296 37.8802 22.0996 37.8945 21.498C37.9089 20.8965 37.916 20.2663 37.916 19.6074C37.9303 18.9342 37.9303 18.3112 37.916 17.7383C37.916 17.151 37.9089 16.6497 37.8945 16.2344C37.8802 15.8047 37.8659 15.5254 37.8516 15.3965C37.8516 15.2533 37.8516 15.11 37.8516 14.9668C37.8659 14.8092 37.8874 14.666 37.916 14.5371C37.959 14.4082 38.0234 14.3079 38.1094 14.2363C38.2096 14.1504 38.36 14.1074 38.5605 14.1074C38.8327 14.1074 39.0833 14.222 39.3125 14.4512C39.556 14.6803 39.6777 14.9238 39.6777 15.1816C39.6777 15.554 39.6562 15.9264 39.6133 16.2988C39.5846 16.6569 39.5703 17.0221 39.5703 17.3945C39.5703 17.6237 39.5703 17.8171 39.5703 17.9746C39.5703 18.1322 39.599 18.3255 39.6562 18.5547C39.6992 18.4401 39.7708 18.2396 39.8711 17.9531C39.9714 17.6667 40.0788 17.3659 40.1934 17.0508C40.3223 16.7357 40.4368 16.4421 40.5371 16.1699C40.6374 15.8835 40.709 15.6829 40.752 15.5684C40.8522 15.2819 41.0026 15.0098 41.2031 14.752C41.4036 14.4798 41.6686 14.3294 41.998 14.3008C42.2129 14.2865 42.4062 14.3438 42.5781 14.4727C42.7643 14.6016 42.9219 14.7734 43.0508 14.9883C43.1797 15.1888 43.2871 15.4036 43.373 15.6328C43.459 15.8477 43.5234 16.0339 43.5664 16.1914L44.7266 21.541L45.6289 23.9902C45.6432 24.0046 45.6504 24.0475 45.6504 24.1191C45.6504 24.1764 45.6504 24.2194 45.6504 24.248C45.6504 24.4199 45.6074 24.5918 45.5215 24.7637C45.4499 24.9212 45.3138 25 45.1133 25C44.8698 25 44.6191 24.9355 44.3613 24.8066C44.1035 24.6634 43.9245 24.4844 43.8242 24.2695ZM49.8398 24.1836C49.8398 24.112 49.8398 24.0475 49.8398 23.9902C49.8542 23.9329 49.89 23.8757 49.9473 23.8184C50.1191 23.6035 50.3125 23.3815 50.5273 23.1523C50.7422 22.9089 50.9499 22.6725 51.1504 22.4434C51.3509 22.1999 51.5371 21.9492 51.709 21.6914C51.8809 21.4336 52.0241 21.1758 52.1387 20.918V20.7891L49.3242 21.3691H49.002C48.8014 21.3691 48.5508 21.3548 48.25 21.3262C47.9635 21.2975 47.6771 21.2402 47.3906 21.1543C47.1185 21.054 46.8822 20.918 46.6816 20.7461C46.4954 20.5742 46.4023 20.3451 46.4023 20.0586C46.4167 19.7292 46.5885 19.3639 46.918 18.9629C47.2474 18.5618 47.6341 18.168 48.0781 17.7812C48.5221 17.3945 48.9661 17.0365 49.4102 16.707C49.8685 16.3776 50.2337 16.1198 50.5059 15.9336C50.8066 15.7617 51.1647 15.6257 51.5801 15.5254C51.9954 15.4108 52.375 15.3535 52.7188 15.3535C53.0052 15.3535 53.2559 15.4108 53.4707 15.5254C53.6855 15.6257 53.793 15.8333 53.793 16.1484C53.793 16.2773 53.7786 16.3991 53.75 16.5137C53.7357 16.6283 53.6497 16.707 53.4922 16.75C53.0339 16.707 52.6042 16.7428 52.2031 16.8574C51.8021 16.9577 51.4225 17.1152 51.0645 17.3301C50.7064 17.5449 50.3698 17.8027 50.0547 18.1035C49.7396 18.39 49.4316 18.6908 49.1309 19.0059C49.0449 19.1061 48.9375 19.2493 48.8086 19.4355C48.6797 19.6074 48.6152 19.7077 48.6152 19.7363V19.7578C48.9876 19.7578 49.3529 19.722 49.7109 19.6504C50.0833 19.5788 50.4486 19.5072 50.8066 19.4355C51.179 19.3496 51.5443 19.2708 51.9023 19.1992C52.2747 19.1276 52.6543 19.0918 53.041 19.0918C53.1842 19.0918 53.3418 19.1061 53.5137 19.1348C53.6855 19.1491 53.8431 19.1921 53.9863 19.2637C54.1439 19.3353 54.2656 19.4355 54.3516 19.5645C54.4518 19.679 54.502 19.8294 54.502 20.0156C54.502 20.2878 54.4303 20.5527 54.2871 20.8105C54.1582 21.054 53.9577 21.3548 53.6855 21.7129C53.4277 22.0566 53.0911 22.4792 52.6758 22.9805C52.2747 23.4818 51.7949 24.1263 51.2363 24.9141C51.2077 24.957 51.1361 24.9857 51.0215 25C50.9212 25.0143 50.8353 25.0215 50.7637 25.0215C50.5632 25.0215 50.3555 24.9355 50.1406 24.7637C49.9401 24.5918 49.8398 24.3984 49.8398 24.1836ZM55.5117 21.7129L56.3066 16.1914C56.3353 16.0052 56.4141 15.8691 56.543 15.7832C56.6862 15.6973 56.8438 15.6543 57.0156 15.6543C57.3307 15.6543 57.5814 15.7474 57.7676 15.9336C57.9538 16.1055 58.1113 16.3203 58.2402 16.5781H58.2617C58.4336 16.5781 58.584 16.5495 58.7129 16.4922C58.8561 16.4206 59.028 16.3848 59.2285 16.3848C59.6868 16.3848 60.0736 16.528 60.3887 16.8145C60.7181 17.1009 60.9831 17.4518 61.1836 17.8672C61.3841 18.2682 61.5273 18.7051 61.6133 19.1777C61.7135 19.6504 61.7637 20.0658 61.7637 20.4238C61.7637 20.8535 61.6491 21.3333 61.4199 21.8633C61.2051 22.3932 60.9115 22.8945 60.5391 23.3672C60.181 23.8398 59.7728 24.2337 59.3145 24.5488C58.8561 24.8639 58.3906 25.0215 57.918 25.0215C57.4883 25.0215 57.1159 24.9212 56.8008 24.7207C56.5 24.5202 56.2493 24.2695 56.0488 23.9688C55.8626 23.6536 55.7266 23.3027 55.6406 22.916C55.5547 22.5293 55.5117 22.1497 55.5117 21.7773V21.7129ZM57.3164 21.8418C57.3451 21.985 57.3737 22.1497 57.4023 22.3359C57.431 22.5221 57.474 22.694 57.5312 22.8516C57.5885 22.9948 57.6673 23.1094 57.7676 23.1953C57.8822 23.2669 58.0397 23.2669 58.2402 23.1953C58.4264 23.0234 58.627 22.8301 58.8418 22.6152C59.0566 22.4004 59.2572 22.1712 59.4434 21.9277C59.6439 21.6842 59.8086 21.4264 59.9375 21.1543C60.0664 20.8822 60.1309 20.5957 60.1309 20.2949C60.1882 19.8079 60.1523 19.3639 60.0234 18.9629C59.8945 18.5475 59.7083 18.2539 59.4648 18.082C59.2357 17.8958 58.9707 17.8743 58.6699 18.0176C58.3691 18.1465 58.0684 18.5117 57.7676 19.1133C57.5957 19.4857 57.474 19.9225 57.4023 20.4238C57.3451 20.9108 57.3164 21.362 57.3164 21.7773V21.8418ZM63.6758 24.0762C63.6471 23.5605 63.597 22.873 63.5254 22.0137C63.4681 21.14 63.3965 20.2376 63.3105 19.3066C63.2389 18.3757 63.1602 17.4948 63.0742 16.6641C62.9883 15.8333 62.9167 15.1888 62.8594 14.7305C62.8594 14.5443 62.9453 14.4225 63.1172 14.3652C63.2891 14.3079 63.4538 14.2793 63.6113 14.2793C63.8118 14.2793 64.0195 14.3366 64.2344 14.4512C64.4635 14.5658 64.6068 14.7233 64.6641 14.9238C64.6641 14.9811 64.6712 15.0885 64.6855 15.2461C64.6999 15.3893 64.707 15.5397 64.707 15.6973C64.7214 15.8548 64.7357 16.0124 64.75 16.1699C64.7643 16.3132 64.7715 16.4134 64.7715 16.4707C64.7715 16.5566 64.7715 16.6211 64.7715 16.6641C64.7715 16.707 64.7715 16.75 64.7715 16.793C64.7715 16.8216 64.7786 16.8574 64.793 16.9004C64.8073 16.9434 64.8288 17.015 64.8574 17.1152C64.8861 17.0866 64.9147 17.0508 64.9434 17.0078C64.9863 16.9648 65.015 16.9362 65.0293 16.9219C65.2585 16.5924 65.4805 16.306 65.6953 16.0625C65.9102 15.8047 66.1322 15.5684 66.3613 15.3535C66.5905 15.1243 66.8411 14.888 67.1133 14.6445C67.3997 14.3867 67.7292 14.0931 68.1016 13.7637C68.1875 13.6921 68.252 13.6419 68.2949 13.6133C68.3379 13.5703 68.3737 13.5417 68.4023 13.5273C68.4453 13.4987 68.4883 13.4844 68.5312 13.4844C68.5742 13.4701 68.6315 13.4629 68.7031 13.4629C68.9466 13.4629 69.1901 13.5488 69.4336 13.7207C69.6914 13.8783 69.8203 14.1003 69.8203 14.3867C69.8203 14.487 69.7845 14.5944 69.7129 14.709C69.6413 14.8092 69.5553 14.9095 69.4551 15.0098C69.3548 15.0957 69.2474 15.1745 69.1328 15.2461C69.0326 15.3177 68.9395 15.3678 68.8535 15.3965C68.4811 15.7259 68.0872 16.1055 67.6719 16.5352C67.2565 16.9505 66.8698 17.4017 66.5117 17.8887C66.1536 18.3757 65.86 18.8841 65.6309 19.4141C65.4017 19.944 65.2871 20.474 65.2871 21.0039C65.2871 21.4909 65.3229 21.9707 65.3945 22.4434C65.4661 22.916 65.502 23.3958 65.502 23.8828V24.6348C65.3874 24.7493 65.2871 24.8424 65.2012 24.9141C65.1152 24.9857 64.9935 25.0215 64.8359 25.0215C64.5924 25.0215 64.3561 24.9212 64.127 24.7207C63.8978 24.5059 63.7474 24.291 63.6758 24.0762ZM70.6152 19.6504C70.6152 19.5215 70.6296 19.4141 70.6582 19.3281C70.7012 19.2422 70.7441 19.1634 70.7871 19.0918C70.8444 19.0059 70.8874 18.9271 70.916 18.8555C70.959 18.7695 70.9805 18.6693 70.9805 18.5547C70.9805 18.125 70.9518 17.7025 70.8945 17.2871C70.8372 16.8574 70.7728 16.4277 70.7012 15.998C70.6439 15.5684 70.5866 15.1458 70.5293 14.7305C70.472 14.3008 70.4434 13.8711 70.4434 13.4414C70.4434 13.1406 70.4935 12.9329 70.5938 12.8184C70.7083 12.7038 70.9232 12.6465 71.2383 12.6465C71.4818 12.6465 71.6823 12.7109 71.8398 12.8398C72.0117 12.9544 72.1764 13.1048 72.334 13.291H72.4414C72.5417 13.2337 72.7279 13.1263 73 12.9688C73.2721 12.8112 73.5586 12.6465 73.8594 12.4746C74.1745 12.3027 74.4681 12.1452 74.7402 12.002C75.0267 11.8444 75.2272 11.7298 75.3418 11.6582C75.5853 11.5293 75.8216 11.4219 76.0508 11.3359C76.2799 11.25 76.5306 11.207 76.8027 11.207C76.946 11.207 77.0534 11.2285 77.125 11.2715C77.1966 11.3145 77.2324 11.429 77.2324 11.6152V11.6582C77.1751 11.9447 77.0749 12.181 76.9316 12.3672C76.7884 12.5391 76.6165 12.6895 76.416 12.8184C76.2298 12.9473 76.0293 13.0618 75.8145 13.1621C75.6139 13.248 75.4206 13.3483 75.2344 13.4629C74.8047 13.7637 74.4395 14.0072 74.1387 14.1934C73.8522 14.3796 73.6016 14.5299 73.3867 14.6445C73.1862 14.7591 73.0215 14.8594 72.8926 14.9453C72.778 15.0169 72.6849 15.0957 72.6133 15.1816C72.6133 15.2246 72.6061 15.3105 72.5918 15.4395C72.5918 15.554 72.5918 15.6257 72.5918 15.6543C72.5918 16.084 72.599 16.5137 72.6133 16.9434C72.6276 17.373 72.7135 17.7884 72.8711 18.1895L77.877 15.8262C77.9772 15.7832 78.0488 15.7617 78.0918 15.7617C78.1491 15.7474 78.2279 15.7402 78.3281 15.7402C78.3854 15.7402 78.4785 15.7617 78.6074 15.8047C78.7363 15.8477 78.8008 15.9049 78.8008 15.9766C78.8008 16.306 78.6862 16.5996 78.457 16.8574C78.2422 17.1152 77.9772 17.3516 77.6621 17.5664C77.347 17.7812 77.0176 17.9674 76.6738 18.125C76.3301 18.2826 76.0293 18.4258 75.7715 18.5547C75.7142 18.5833 75.6497 18.6048 75.5781 18.6191C75.5065 18.6335 75.4564 18.6693 75.4277 18.7266L73.1719 19.9082C73.1003 19.9512 73.0573 19.9941 73.043 20.0371C73.043 20.0658 73.043 20.1159 73.043 20.1875C73.043 20.2161 73.043 20.252 73.043 20.2949C73.0573 20.3379 73.0645 20.3665 73.0645 20.3809L73.5156 23.9043C73.5586 24.248 73.4727 24.5202 73.2578 24.7207C73.0573 24.9212 72.8066 25.0215 72.5059 25.0215C72.4486 25.0215 72.377 25.0143 72.291 25C72.2051 24.9714 72.1191 24.9427 72.0332 24.9141C71.9473 24.8711 71.8685 24.821 71.7969 24.7637C71.7396 24.6921 71.7038 24.6133 71.6895 24.5273L71.1523 20.2949C71.1523 20.2376 71.1237 20.1875 71.0664 20.1445C71.0091 20.1016 70.9447 20.0586 70.873 20.0156C70.8158 19.9727 70.7585 19.9225 70.7012 19.8652C70.6439 19.8079 70.6152 19.7363 70.6152 19.6504ZM79.7246 23.4961C79.7246 22.8945 79.7389 22.3073 79.7676 21.7344C79.7962 21.1615 79.8105 20.5742 79.8105 19.9727C79.7676 18.3398 79.7533 16.7428 79.7676 15.1816C79.7819 13.6061 79.7103 11.9948 79.5527 10.3477C79.5527 10.0755 79.6172 9.89648 79.7461 9.81055C79.875 9.71029 80.0684 9.66016 80.3262 9.66016C80.6556 9.66016 80.9349 9.76042 81.1641 9.96094C81.4076 10.1471 81.5365 10.4121 81.5508 10.7559C81.5221 12.7897 81.5436 14.8092 81.6152 16.8145C81.7012 18.8053 81.7441 20.8249 81.7441 22.873V24.5273C81.6582 24.6419 81.5365 24.7565 81.3789 24.8711C81.2214 24.9857 81.0638 25.0286 80.9062 25C80.4909 24.9284 80.1901 24.7637 80.0039 24.5059C79.8177 24.2337 79.7246 23.8971 79.7246 23.4961ZM82.9043 21.7129L83.6992 16.1914C83.7279 16.0052 83.8066 15.8691 83.9355 15.7832C84.0788 15.6973 84.2363 15.6543 84.4082 15.6543C84.7233 15.6543 84.974 15.7474 85.1602 15.9336C85.3464 16.1055 85.5039 16.3203 85.6328 16.5781H85.6543C85.8262 16.5781 85.9766 16.5495 86.1055 16.4922C86.2487 16.4206 86.4206 16.3848 86.6211 16.3848C87.0794 16.3848 87.4661 16.528 87.7812 16.8145C88.1107 17.1009 88.3757 17.4518 88.5762 17.8672C88.7767 18.2682 88.9199 18.7051 89.0059 19.1777C89.1061 19.6504 89.1562 20.0658 89.1562 20.4238C89.1562 20.8535 89.0417 21.3333 88.8125 21.8633C88.5977 22.3932 88.304 22.8945 87.9316 23.3672C87.5736 23.8398 87.1654 24.2337 86.707 24.5488C86.2487 24.8639 85.7832 25.0215 85.3105 25.0215C84.8809 25.0215 84.5085 24.9212 84.1934 24.7207C83.8926 24.5202 83.6419 24.2695 83.4414 23.9688C83.2552 23.6536 83.1191 23.3027 83.0332 22.916C82.9473 22.5293 82.9043 22.1497 82.9043 21.7773V21.7129ZM84.709 21.8418C84.7376 21.985 84.7663 22.1497 84.7949 22.3359C84.8236 22.5221 84.8665 22.694 84.9238 22.8516C84.9811 22.9948 85.0599 23.1094 85.1602 23.1953C85.2747 23.2669 85.4323 23.2669 85.6328 23.1953C85.819 23.0234 86.0195 22.8301 86.2344 22.6152C86.4492 22.4004 86.6497 22.1712 86.8359 21.9277C87.0365 21.6842 87.2012 21.4264 87.3301 21.1543C87.459 20.8822 87.5234 20.5957 87.5234 20.2949C87.5807 19.8079 87.5449 19.3639 87.416 18.9629C87.2871 18.5475 87.1009 18.2539 86.8574 18.082C86.6283 17.8958 86.3633 17.8743 86.0625 18.0176C85.7617 18.1465 85.4609 18.5117 85.1602 19.1133C84.9883 19.4857 84.8665 19.9225 84.7949 20.4238C84.7376 20.9108 84.709 21.362 84.709 21.7773V21.8418ZM92.6367 23.9688C92.5508 23.6393 92.3001 22.8014 91.8848 21.4551C91.4694 20.0944 90.8893 18.1322 90.1445 15.5684C90.1445 15.5397 90.1302 15.4824 90.1016 15.3965C90.0872 15.2962 90.0801 15.2318 90.0801 15.2031C90.1087 15.0312 90.2376 14.931 90.4668 14.9023C90.696 14.8594 90.8678 14.8451 90.9824 14.8594C91.2975 14.9023 91.5267 15.0026 91.6699 15.1602C91.8275 15.3177 91.9564 15.5469 92.0566 15.8477L93.3027 19.9512L93.3887 20.0586C93.5605 19.7721 93.6608 19.4427 93.6895 19.0703C93.7181 18.6979 93.7539 18.3398 93.7969 17.9961C93.8542 17.638 93.9544 17.3158 94.0977 17.0293C94.2409 16.7428 94.513 16.5423 94.9141 16.4277C95 16.4277 95.0931 16.4492 95.1934 16.4922C95.2936 16.5208 95.3867 16.571 95.4727 16.6426C95.5729 16.6999 95.6589 16.7715 95.7305 16.8574C95.8021 16.929 95.8522 17.0078 95.8809 17.0938L97.041 20.8105L97.2773 21.1328C97.3346 20.875 97.4062 20.4596 97.4922 19.8867C97.5924 19.3138 97.6855 18.7194 97.7715 18.1035C97.8717 17.4733 97.9577 16.8932 98.0293 16.3633C98.1009 15.819 98.151 15.4466 98.1797 15.2461C98.1797 15.2174 98.1797 15.1673 98.1797 15.0957C98.194 15.0241 98.2012 14.974 98.2012 14.9453C98.3158 14.8164 98.4733 14.7233 98.6738 14.666C98.8743 14.5944 99.0534 14.5729 99.2109 14.6016C99.2682 14.6159 99.3398 14.6517 99.4258 14.709C99.526 14.752 99.6191 14.8164 99.7051 14.9023C99.791 14.974 99.8555 15.0527 99.8984 15.1387C99.9557 15.2246 99.9844 15.3034 99.9844 15.375L98.7598 24.1836C98.7454 24.2695 98.6953 24.3411 98.6094 24.3984C98.5234 24.4414 98.4232 24.4844 98.3086 24.5273C98.2083 24.556 98.1009 24.5775 97.9863 24.5918C97.8861 24.5918 97.8073 24.5918 97.75 24.5918C97.4062 24.4629 97.1055 24.2552 96.8477 23.9688C96.6042 23.668 96.3822 23.3385 96.1816 22.9805C95.9954 22.6224 95.8236 22.2572 95.666 21.8848C95.5228 21.498 95.3652 21.1543 95.1934 20.8535L95.1074 20.832C95.0072 20.9323 94.9212 21.1543 94.8496 21.498C94.7923 21.8418 94.7422 22.207 94.6992 22.5938C94.6562 22.9805 94.6204 23.3314 94.5918 23.6465C94.5632 23.9473 94.5488 24.112 94.5488 24.1406C94.5202 24.3411 94.3841 24.4987 94.1406 24.6133C93.9115 24.7279 93.7038 24.7708 93.5176 24.7422C93.3171 24.7135 93.138 24.6204 92.9805 24.4629C92.8372 24.291 92.7227 24.1263 92.6367 23.9688Z" fill="black"/>
<defs>
<filter id="filter0_i_4585_2571" x="1.95215" y="1.96155" width="114.593" height="33.5385" filterUnits="userSpaceOnUse" color-interpolation-filters="sRGB">
<feFlood flood-opacity="0" result="BackgroundImageFix"/>
<feBlend mode="normal" in="SourceGraphic" in2="BackgroundImageFix" result="shape"/>
<feColorMatrix in="SourceAlpha" type="matrix" values="0 0 0 0 0 0 0 0 0 0 0 0 0 0 0 0 0 0 127 0" result="hardAlpha"/>
<feOffset dx="4" dy="4"/>
<feComposite in2="hardAlpha" operator="arithmetic" k2="-1" k3="1"/>
<feColorMatrix type="matrix" values="0 0 0 0 0.694118 0 0 0 0 0.721569 0 0 0 0 0.741176 0 0 0 1 0"/>
<feBlend mode="multiply" in2="shape" result="effect1_innerShadow_4585_2571"/>
</filter>
</defs>
</svg>
