<svg width="121" height="37" viewBox="0 0 121 37" fill="none" xmlns="http://www.w3.org/2000/svg">
<g filter="url(#filter0_i_4585_2520)">
<path d="M115.022 7.61228C118.541 11.6933 118.541 20.3656 118.541 20.3656C118.731 28.2124 112.276 34.5 104.02 34.5C104.02 31.5523 104.02 2.00081 104.02 2.00081C107.163 1.66061 111.502 3.53121 115.022 7.61228Z" fill="white"/>
<path d="M18.7676 2H104.02V34.5C104.02 34.5 91.3739 34.2049 77.4012 34.5C69.6045 34.6647 53.2351 35.5 47.3795 35.5C31.0298 35.5 18.7676 34.5 18.7676 34.5V2Z" fill="white"/>
<path d="M5.14517 27.9432C0.335274 22.3612 1.47845 11.5 5.14549 8C8.81252 4.5 8.60485 4.5 11.9565 3.5C15.3082 2.5 18.7674 2 18.7674 2V34.5C13.1929 34.5 9.95507 33.5252 5.14517 27.9432Z" fill="white"/>
</g>
<path d="M18.7676 34.5C32.9423 34.5 32.4586 35 46.6258 35C60.8005 35 62.5086 34.4063 76.6834 34.4063C90.8581 34.4063 86.7013 34 100.876 34" stroke="black" stroke-width="3" stroke-miterlimit="10" stroke-linecap="round" stroke-linejoin="round"/>
<path d="M2.00244 17.5C2.00244 7 9.6485 2 18.555 2C11.2202 2 2.52635 8 2.52635 17.5C2.52635 31.5 14.5763 34.5 18.2437 34.5C10.385 34.5 2.00244 28 2.00244 17.5Z" stroke="black" stroke-width="3" stroke-linecap="round" stroke-linejoin="round"/>
<path d="M119 19C119 29.5 109.782 34 100.876 34C108.211 34 117.33 30.5 118.165 20.5C119.33 6.54422 108.735 2 102.759 1.99999C110.617 2 119 8.49998 119 19Z" stroke="black" stroke-width="3" stroke-linecap="round" stroke-linejoin="round"/>
<path d="M18.7676 2C32.9249 2 31.4605 2 45.6103 2C59.7676 2 59.8108 1.5 73.9681 1.5C88.1254 1.5 88.8144 2.00001 102.972 2.00001" stroke="black" stroke-width="3" stroke-miterlimit="10" stroke-linecap="round" stroke-linejoin="round"/>
<path d="M22.6836 15.5684C22.6693 15.4538 22.6478 15.3105 22.6191 15.1387C22.6048 14.9525 22.5833 14.7806 22.5547 14.623C22.5404 14.4512 22.526 14.3079 22.5117 14.1934C22.4974 14.0788 22.4902 14.0215 22.4902 14.0215H22.3184L19.8691 14.752C19.7975 14.8665 19.6758 14.9238 19.5039 14.9238C19.3464 14.9238 19.2246 14.9238 19.1387 14.9238C18.9382 14.9238 18.7305 14.8379 18.5156 14.666C18.3151 14.4798 18.2148 14.2793 18.2148 14.0645C18.2148 13.9069 18.265 13.7565 18.3652 13.6133C18.4798 13.4557 18.6159 13.3483 18.7734 13.291L22.2324 12.1953C22.2754 12.0378 22.3542 11.8802 22.4688 11.7227C22.5977 11.5508 22.7624 11.4648 22.9629 11.4648C23.1634 11.4648 23.3281 11.515 23.457 11.6152C23.6003 11.7155 23.7578 11.7943 23.9297 11.8516C24.0586 11.8372 24.2734 11.7943 24.5742 11.7227C24.875 11.651 25.1901 11.5794 25.5195 11.5078C25.8633 11.4219 26.1855 11.3431 26.4863 11.2715C26.7871 11.1999 26.9948 11.1497 27.1094 11.1211C27.2812 11.0924 27.4102 11.0566 27.4961 11.0137C27.582 10.9707 27.7181 10.9492 27.9043 10.9492C28.1478 10.9492 28.3984 11.0208 28.6562 11.1641C28.9141 11.3073 29.043 11.5221 29.043 11.8086C29.043 11.9948 28.9785 12.1595 28.8496 12.3027C28.7207 12.4316 28.5632 12.5176 28.377 12.5605L24.2949 13.5918V13.7852C24.2949 14.2292 24.3307 14.666 24.4023 15.0957C24.4883 15.5254 24.5169 15.9551 24.4883 16.3848L25.2188 23.0234V23.4961C25.2188 23.668 25.2116 23.847 25.1973 24.0332C25.1973 24.2051 25.1686 24.3626 25.1113 24.5059C25.0684 24.6491 24.9896 24.7708 24.875 24.8711C24.7604 24.957 24.5885 25 24.3594 25C24.1875 25 24.0013 24.9284 23.8008 24.7852C23.6146 24.6419 23.5143 24.4701 23.5 24.2695L22.6836 15.7402V15.5684ZM32.4375 30.9082C32.4089 30.6074 32.3874 30.2422 32.373 29.8125C32.373 29.3828 32.373 28.9316 32.373 28.459C32.373 27.9863 32.373 27.5065 32.373 27.0195C32.3874 26.5326 32.4089 26.0885 32.4375 25.6875V24.9141C32.3659 24.8138 32.2799 24.7135 32.1797 24.6133C32.0794 24.4987 31.9004 24.2839 31.6426 23.9688C31.3991 23.6393 31.0482 23.1595 30.5898 22.5293C30.1315 21.8848 29.5156 20.9896 28.7422 19.8438C28.4414 19.5286 28.248 19.2708 28.1621 19.0703C28.0762 18.8555 28.0475 18.6836 28.0762 18.5547C28.1048 18.4258 28.1764 18.3327 28.291 18.2754C28.4199 18.2181 28.5417 18.1895 28.6562 18.1895C28.9427 18.1895 29.2005 18.2539 29.4297 18.3828C29.6589 18.5117 29.8665 18.6764 30.0527 18.877C30.2389 19.0775 30.4036 19.2995 30.5469 19.543C30.7044 19.7721 30.8548 19.9941 30.998 20.209C31.084 20.3379 31.1914 20.5026 31.3203 20.7031C31.4492 20.9036 31.5781 21.1042 31.707 21.3047C31.8359 21.4909 31.9434 21.6556 32.0293 21.7988C32.1296 21.9421 32.1797 22.0137 32.1797 22.0137L32.4375 22.293V20.0371C32.4375 19.321 32.4232 18.6263 32.3945 17.9531C32.3659 17.2656 32.3516 16.571 32.3516 15.8691C32.3516 15.6686 32.4232 15.5039 32.5664 15.375C32.7096 15.2461 32.8815 15.1888 33.082 15.2031C33.3255 15.2318 33.5046 15.2747 33.6191 15.332C33.748 15.3893 33.877 15.5039 34.0059 15.6758C34.1204 15.8333 34.1706 16.0195 34.1562 16.2344C34.1562 16.4492 34.1634 16.6569 34.1777 16.8574C34.235 18.2181 34.278 19.5788 34.3066 20.9395C34.3496 22.2858 34.3711 23.6393 34.3711 25C34.3568 25.1289 34.3496 25.3867 34.3496 25.7734C34.3496 26.1745 34.3496 26.6257 34.3496 27.127C34.3639 27.6283 34.3711 28.151 34.3711 28.6953C34.3854 29.2396 34.3926 29.7337 34.3926 30.1777C34.4069 30.6361 34.4141 31.0085 34.4141 31.2949C34.4284 31.5957 34.4427 31.7389 34.457 31.7246C34.457 31.9395 34.3783 32.097 34.2207 32.1973C34.0775 32.2975 33.8984 32.3477 33.6836 32.3477C33.3971 32.3477 33.1823 32.3047 33.0391 32.2188C32.9102 32.1471 32.8099 32.0397 32.7383 31.8965C32.6667 31.7676 32.6165 31.6172 32.5879 31.4453C32.5592 31.2734 32.5091 31.0944 32.4375 30.9082ZM36.1758 21.1328C35.9036 21.0326 35.653 20.9108 35.4238 20.7676C35.209 20.6243 35.1016 20.388 35.1016 20.0586C35.1016 19.9727 35.123 19.9154 35.166 19.8867C35.209 19.8581 35.2448 19.8151 35.2734 19.7578C35.3021 19.7148 35.3594 19.6361 35.4453 19.5215C35.5312 19.4069 35.6243 19.2852 35.7246 19.1562C35.8249 19.013 35.918 18.8841 36.0039 18.7695C36.0898 18.6406 36.1471 18.5547 36.1758 18.5117C36.1758 18.3255 36.1615 18.1035 36.1328 17.8457C36.1185 17.5736 36.1257 17.3229 36.1543 17.0938C36.1973 16.8503 36.2832 16.6497 36.4121 16.4922C36.541 16.3203 36.7559 16.2344 37.0566 16.2344C37.2285 16.2344 37.3717 16.2988 37.4863 16.4277C37.6009 16.5423 37.7441 16.5996 37.916 16.5996H38.002C38.5892 16.1413 39.1908 15.7402 39.8066 15.3965C40.4368 15.0384 41.1387 14.8594 41.9121 14.8594C42.4134 14.8594 42.8216 15.0098 43.1367 15.3105C43.4661 15.597 43.6309 16.0052 43.6309 16.5352C43.6309 17.194 43.4805 17.8743 43.1797 18.5762C42.8789 19.278 42.4993 19.9655 42.041 20.6387C41.597 21.2975 41.11 21.9206 40.5801 22.5078C40.0645 23.0951 39.5918 23.6035 39.1621 24.0332C39.1191 24.0905 39.0547 24.1549 38.9688 24.2266C38.8828 24.2839 38.804 24.3483 38.7324 24.4199C38.6465 24.4915 38.5534 24.5775 38.4531 24.6777L38.2812 29.6191C38.2812 29.748 38.2741 29.8841 38.2598 30.0273C38.2598 30.1706 38.2311 30.2995 38.1738 30.4141C38.1309 30.543 38.0592 30.6432 37.959 30.7148C37.873 30.8008 37.7441 30.8438 37.5723 30.8438C37.4863 30.8438 37.3717 30.8223 37.2285 30.7793C37.0853 30.7507 36.9492 30.7005 36.8203 30.6289C36.6914 30.5573 36.5768 30.4714 36.4766 30.3711C36.3906 30.2708 36.3477 30.1562 36.3477 30.0273L36.1758 21.1328ZM38.1738 22.4863H38.2598C38.2741 22.4863 38.3171 22.4434 38.3887 22.3574C38.4746 22.2715 38.5677 22.1712 38.668 22.0566C38.7826 21.9421 38.89 21.8275 38.9902 21.7129C39.1048 21.584 39.1908 21.4837 39.248 21.4121C39.6777 21.097 40.0716 20.7031 40.4297 20.2305C40.7878 19.7578 41.0742 19.2852 41.2891 18.8125C41.5182 18.3255 41.6543 17.8887 41.6973 17.502C41.7546 17.1152 41.6901 16.8503 41.5039 16.707C41.332 16.5495 41.0241 16.5638 40.5801 16.75C40.1504 16.9362 39.5632 17.3659 38.8184 18.0391C38.6465 18.1823 38.4889 18.347 38.3457 18.5332C38.2025 18.7194 38.1165 18.9271 38.0879 19.1562L38.1738 22.4863ZM53.5352 18.8984C53.5065 19.1562 53.4707 19.3568 53.4277 19.5C53.3991 19.6432 53.3418 19.7721 53.2559 19.8867C53.1699 20.0013 53.0482 20.123 52.8906 20.252C52.7331 20.3665 52.5182 20.5384 52.2461 20.7676C51.974 20.9824 51.6374 21.2689 51.2363 21.627C50.8353 21.985 50.3483 22.4505 49.7754 23.0234C49.5462 23.2383 49.3099 23.4603 49.0664 23.6895C48.8229 23.9186 48.5651 24.1263 48.293 24.3125C48.0352 24.4844 47.763 24.6276 47.4766 24.7422C47.1901 24.8568 46.8893 24.9141 46.5742 24.9141C45.9583 24.9141 45.5072 24.7064 45.2207 24.291C44.9342 23.8757 44.791 23.3958 44.791 22.8516C44.791 22.4935 44.7982 22.1927 44.8125 21.9492C44.8411 21.7057 44.8984 21.3906 44.9844 21.0039C44.8268 20.8607 44.6908 20.7389 44.5762 20.6387C44.4616 20.5241 44.4043 20.3737 44.4043 20.1875C44.4043 20.0156 44.4401 19.901 44.5117 19.8438C44.5977 19.7865 44.6908 19.7507 44.791 19.7363C44.9056 19.7077 45.013 19.679 45.1133 19.6504C45.2135 19.6217 45.2852 19.5645 45.3281 19.4785C45.3568 19.3926 45.4069 19.235 45.4785 19.0059C45.5645 18.7767 45.6504 18.5404 45.7363 18.2969C45.8223 18.0391 45.901 17.8027 45.9727 17.5879C46.0586 17.3587 46.1159 17.2012 46.1445 17.1152C46.2448 16.8717 46.3522 16.6283 46.4668 16.3848C46.5957 16.127 46.7389 15.8978 46.8965 15.6973C47.0684 15.4967 47.2617 15.332 47.4766 15.2031C47.7057 15.0742 47.9707 15.0098 48.2715 15.0098C48.4434 15.0098 48.651 15.0885 48.8945 15.2461C49.1523 15.4036 49.3958 15.597 49.625 15.8262C49.8542 16.041 50.0475 16.2702 50.2051 16.5137C50.3626 16.7572 50.4414 16.9648 50.4414 17.1367C50.4414 17.3516 50.3913 17.5521 50.291 17.7383C50.1908 17.9102 50.0618 18.0749 49.9043 18.2324C49.7611 18.3757 49.6035 18.5117 49.4316 18.6406C49.2598 18.7695 49.1022 18.8913 48.959 19.0059C48.9447 19.0059 48.916 19.0202 48.873 19.0488C48.8301 19.0775 48.7943 19.099 48.7656 19.1133C48.7513 19.1276 48.7155 19.1634 48.6582 19.2207C48.6152 19.2637 48.5651 19.3138 48.5078 19.3711C48.4505 19.4284 48.3932 19.4857 48.3359 19.543C48.293 19.6003 48.2643 19.6361 48.25 19.6504C48.207 19.6934 48.1211 19.765 47.9922 19.8652C47.8776 19.9512 47.7487 20.0514 47.6055 20.166C47.4622 20.2663 47.3262 20.3665 47.1973 20.4668C47.0827 20.5527 47.0039 20.61 46.9609 20.6387L46.875 20.8105C46.8464 20.8678 46.8177 20.9967 46.7891 21.1973C46.7747 21.3835 46.7533 21.5983 46.7246 21.8418C46.696 22.0853 46.6673 22.3359 46.6387 22.5938C46.6243 22.8372 46.6172 23.0378 46.6172 23.1953C46.6172 23.2096 46.6243 23.224 46.6387 23.2383C46.6673 23.2669 46.6888 23.2812 46.7031 23.2812C46.8177 23.2812 46.9251 23.2311 47.0254 23.1309C47.1257 23.0306 47.2331 22.959 47.3477 22.916L50.7852 19.7363L51.666 18.3828C51.7376 18.2826 51.8737 18.1751 52.0742 18.0605C52.2891 17.9316 52.5039 17.8672 52.7188 17.8672C52.9336 17.8529 53.1198 17.9173 53.2773 18.0605C53.4492 18.2038 53.5352 18.4831 53.5352 18.8984ZM48.8086 17.2227C48.8802 17.1654 48.9089 17.0794 48.8945 16.9648C48.8802 16.8503 48.8372 16.75 48.7656 16.6641C48.7083 16.5781 48.6296 16.528 48.5293 16.5137C48.429 16.485 48.3359 16.5352 48.25 16.6641C48.207 16.7214 48.1283 16.8359 48.0137 17.0078C47.9134 17.1797 47.806 17.3587 47.6914 17.5449C47.5911 17.7168 47.5052 17.8672 47.4336 17.9961C47.362 18.125 47.3477 18.1751 47.3906 18.1465L48.8086 17.2227ZM57.3379 24.2266C57.5671 23.9115 57.8177 23.6751 58.0898 23.5176C58.3763 23.36 58.6628 23.2311 58.9492 23.1309C59.25 23.0306 59.5436 22.9375 59.8301 22.8516C60.1309 22.7513 60.4245 22.5938 60.7109 22.3789C60.8685 22.293 61.0905 22.1641 61.377 21.9922C61.6634 21.8203 61.9427 21.6341 62.2148 21.4336C62.5013 21.2188 62.7448 21.0111 62.9453 20.8105C63.1602 20.61 63.2676 20.4382 63.2676 20.2949C63.2676 20.2806 63.2604 20.2734 63.2461 20.2734C63.2174 20.2734 63.2031 20.2663 63.2031 20.252L63.1602 20.209C63.0885 20.1803 62.974 20.1445 62.8164 20.1016C62.6589 20.0586 62.5658 20.0299 62.5371 20.0156C60.6895 19.8008 59.1999 19.6146 58.0684 19.457C56.9512 19.2852 56.0846 19.1061 55.4688 18.9199C54.8672 18.7337 54.4661 18.5189 54.2656 18.2754C54.0651 18.0319 53.9648 17.724 53.9648 17.3516C53.9648 17.2083 53.9935 17.0508 54.0508 16.8789C54.1081 16.707 54.1725 16.5352 54.2441 16.3633C54.3301 16.1914 54.416 16.0339 54.502 15.8906C54.5879 15.7474 54.6667 15.6328 54.7383 15.5469C54.9674 15.2604 55.2682 15.0026 55.6406 14.7734C56.013 14.5443 56.4141 14.3438 56.8438 14.1719C57.2734 14 57.7031 13.8496 58.1328 13.7207C58.5768 13.5918 58.9779 13.4772 59.3359 13.377C59.737 13.3483 60.138 13.2552 60.5391 13.0977C60.9544 12.9258 61.3626 12.8112 61.7637 12.7539C61.9642 12.7539 62.1289 12.8327 62.2578 12.9902C62.3867 13.1478 62.4512 13.3125 62.4512 13.4844C62.4512 13.7279 62.401 13.9141 62.3008 14.043C62.2148 14.1576 62.0931 14.2507 61.9355 14.3223C61.7923 14.3796 61.6276 14.4297 61.4414 14.4727C61.2552 14.5013 61.069 14.5371 60.8828 14.5801C60.7682 14.6087 60.6107 14.6517 60.4102 14.709C60.2096 14.752 60.0091 14.8021 59.8086 14.8594C59.6081 14.9167 59.429 14.9668 59.2715 15.0098C59.1139 15.0527 59.0208 15.0814 58.9922 15.0957C58.5482 15.2819 58.1257 15.4609 57.7246 15.6328C57.3379 15.7904 56.9941 15.9551 56.6934 16.127C56.4069 16.2988 56.1777 16.485 56.0059 16.6855C55.8483 16.8717 55.7767 17.0794 55.791 17.3086V17.3301C55.9342 17.5306 56.2565 17.681 56.7578 17.7812C57.2591 17.8815 57.8464 17.9674 58.5195 18.0391C59.207 18.1107 59.9232 18.1823 60.668 18.2539C61.4271 18.3255 62.1217 18.4329 62.752 18.5762C63.3822 18.7194 63.9049 18.9128 64.3203 19.1562C64.7357 19.3997 64.9505 19.7292 64.9648 20.1445C64.9648 20.3021 64.929 20.4883 64.8574 20.7031C64.8001 20.918 64.7142 21.0827 64.5996 21.1973C64.2415 21.5983 63.8118 22.0137 63.3105 22.4434C62.8236 22.873 62.2936 23.2741 61.7207 23.6465C61.1478 24.0046 60.5534 24.3125 59.9375 24.5703C59.3359 24.8138 58.7415 24.957 58.1543 25C57.9538 25 57.7676 24.9284 57.5957 24.7852C57.4238 24.6276 57.3379 24.4414 57.3379 24.2266ZM65.9102 22.4219C65.8099 21.9922 65.8099 21.4837 65.9102 20.8965C66.0247 20.3092 66.1966 19.722 66.4258 19.1348C66.6693 18.5332 66.9629 17.9674 67.3066 17.4375C67.6647 16.9076 68.0371 16.485 68.4238 16.1699C68.8249 15.8548 69.2259 15.6829 69.627 15.6543C70.0423 15.6113 70.4362 15.7904 70.8086 16.1914C70.8086 16.2057 70.8158 16.2415 70.8301 16.2988C70.8444 16.3561 70.8587 16.4779 70.873 16.6641C70.8874 16.8359 70.8945 17.0866 70.8945 17.416C70.9089 17.7311 70.916 18.168 70.916 18.7266C70.9303 18.7552 70.9447 18.8053 70.959 18.877C70.9876 18.9342 71.002 18.9772 71.002 19.0059C70.959 19.1634 70.873 19.3138 70.7441 19.457C70.6296 19.5859 70.4792 19.6504 70.293 19.6504C70.0495 19.6504 69.849 19.6146 69.6914 19.543C69.5482 19.457 69.4408 19.2637 69.3691 18.9629C69.3978 18.9199 69.4049 18.834 69.3906 18.7051C69.3763 18.5618 69.3477 18.4043 69.3047 18.2324C69.276 18.0605 69.2474 17.8887 69.2188 17.7168C69.1901 17.5449 69.1758 17.4089 69.1758 17.3086C69.1615 17.3086 69.14 17.3229 69.1113 17.3516C69.097 17.3659 69.0827 17.3802 69.0684 17.3945C68.8249 17.8242 68.5957 18.304 68.3809 18.834C68.1803 19.3496 68.0228 19.8796 67.9082 20.4238C67.8079 20.9538 67.7721 21.4837 67.8008 22.0137C67.8438 22.5436 68.0013 23.0234 68.2734 23.4531C68.474 23.4531 68.6602 23.3743 68.832 23.2168C69.0039 23.0449 69.1471 22.8874 69.2617 22.7441C69.5052 22.4577 69.7415 22.1641 69.9707 21.8633C70.2142 21.5625 70.4362 21.2474 70.6367 20.918C70.7227 20.7747 70.7871 20.6458 70.8301 20.5312C70.873 20.4167 70.9232 20.3236 70.9805 20.252C71.0521 20.1803 71.138 20.123 71.2383 20.0801C71.3385 20.0371 71.4889 20.0156 71.6895 20.0156C71.9186 20.0156 72.1335 20.0729 72.334 20.1875C72.5345 20.2878 72.6348 20.4596 72.6348 20.7031C72.6348 21.0326 72.4844 21.4479 72.1836 21.9492C71.8971 22.4362 71.5391 22.9089 71.1094 23.3672C70.694 23.8255 70.25 24.2194 69.7773 24.5488C69.3047 24.8639 68.8893 25.0215 68.5312 25.0215C68.1875 25.0215 67.8509 24.957 67.5215 24.8281C67.2064 24.6849 66.9271 24.4987 66.6836 24.2695C66.4544 24.0404 66.2682 23.7682 66.125 23.4531C65.9818 23.138 65.9102 22.7943 65.9102 22.4219ZM74.4824 24.0762C74.4538 23.5605 74.4036 22.873 74.332 22.0137C74.2747 21.14 74.2031 20.2376 74.1172 19.3066C74.0456 18.3757 73.9668 17.4948 73.8809 16.6641C73.7949 15.8333 73.7233 15.1888 73.666 14.7305C73.666 14.5443 73.752 14.4225 73.9238 14.3652C74.0957 14.3079 74.2604 14.2793 74.418 14.2793C74.6185 14.2793 74.8262 14.3366 75.041 14.4512C75.2702 14.5658 75.4134 14.7233 75.4707 14.9238C75.4707 14.9811 75.4779 15.0885 75.4922 15.2461C75.5065 15.3893 75.5137 15.5397 75.5137 15.6973C75.528 15.8548 75.5423 16.0124 75.5566 16.1699C75.571 16.3132 75.5781 16.4134 75.5781 16.4707C75.5781 16.5566 75.5781 16.6211 75.5781 16.6641C75.5781 16.707 75.5781 16.75 75.5781 16.793C75.5781 16.8216 75.5853 16.8574 75.5996 16.9004C75.6139 16.9434 75.6354 17.015 75.6641 17.1152C75.6927 17.0866 75.7214 17.0508 75.75 17.0078C75.793 16.9648 75.8216 16.9362 75.8359 16.9219C76.0651 16.5924 76.2871 16.306 76.502 16.0625C76.7168 15.8047 76.9388 15.5684 77.168 15.3535C77.3971 15.1243 77.6478 14.888 77.9199 14.6445C78.2064 14.3867 78.5358 14.0931 78.9082 13.7637C78.9941 13.6921 79.0586 13.6419 79.1016 13.6133C79.1445 13.5703 79.1803 13.5417 79.209 13.5273C79.252 13.4987 79.2949 13.4844 79.3379 13.4844C79.3809 13.4701 79.4382 13.4629 79.5098 13.4629C79.7533 13.4629 79.9967 13.5488 80.2402 13.7207C80.498 13.8783 80.627 14.1003 80.627 14.3867C80.627 14.487 80.5911 14.5944 80.5195 14.709C80.4479 14.8092 80.362 14.9095 80.2617 15.0098C80.1615 15.0957 80.054 15.1745 79.9395 15.2461C79.8392 15.3177 79.7461 15.3678 79.6602 15.3965C79.2878 15.7259 78.8939 16.1055 78.4785 16.5352C78.0632 16.9505 77.6764 17.4017 77.3184 17.8887C76.9603 18.3757 76.6667 18.8841 76.4375 19.4141C76.2083 19.944 76.0938 20.474 76.0938 21.0039C76.0938 21.4909 76.1296 21.9707 76.2012 22.4434C76.2728 22.916 76.3086 23.3958 76.3086 23.8828V24.6348C76.194 24.7493 76.0938 24.8424 76.0078 24.9141C75.9219 24.9857 75.8001 25.0215 75.6426 25.0215C75.3991 25.0215 75.1628 24.9212 74.9336 24.7207C74.7044 24.5059 74.554 24.291 74.4824 24.0762ZM82.1953 24.1836C82.0521 22.7513 81.9303 21.5267 81.8301 20.5098C81.7298 19.4928 81.6439 18.6406 81.5723 17.9531C81.5007 17.2656 81.4362 16.7214 81.3789 16.3203C81.3359 15.9049 81.3001 15.597 81.2715 15.3965C81.2428 15.1816 81.2214 15.0384 81.207 14.9668C81.1927 14.8952 81.1855 14.8522 81.1855 14.8379V14.752C81.1855 14.5944 81.25 14.4655 81.3789 14.3652C81.5221 14.2507 81.6654 14.1934 81.8086 14.1934C82.0234 14.1934 82.2526 14.2292 82.4961 14.3008C82.7539 14.3724 82.9258 14.5228 83.0117 14.752C83.1406 15.4538 83.2266 16.1628 83.2695 16.8789C83.3268 17.5951 83.3698 18.3112 83.3984 19.0273C83.4414 19.7292 83.4915 20.4382 83.5488 21.1543C83.6204 21.8704 83.7422 22.5794 83.9141 23.2812C83.9141 23.3099 83.9212 23.3672 83.9355 23.4531C83.9642 23.5391 83.9857 23.6322 84 23.7324C84.0286 23.8327 84.0501 23.9258 84.0645 24.0117C84.0788 24.0977 84.0859 24.1549 84.0859 24.1836V24.2266C84.0859 24.2409 84.0931 24.2552 84.1074 24.2695C84.1074 24.4414 84.0286 24.6133 83.8711 24.7852C83.7135 24.957 83.5488 25.0286 83.377 25C83.334 24.9857 83.2266 24.9642 83.0547 24.9355C82.8971 24.8926 82.7897 24.8568 82.7324 24.8281C82.6895 24.8138 82.6322 24.7852 82.5605 24.7422C82.4889 24.6849 82.4173 24.6276 82.3457 24.5703C82.2884 24.513 82.2383 24.4486 82.1953 24.377C82.1523 24.3053 82.1523 24.2409 82.1953 24.1836ZM80.9922 8.52148C80.9922 8.42122 81.071 8.33529 81.2285 8.26367C81.4004 8.17773 81.5293 8.13477 81.6152 8.13477C81.8301 8.13477 82.0664 8.19922 82.3242 8.32812C82.5964 8.44271 82.7324 8.62174 82.7324 8.86523C82.7324 9.10872 82.6966 9.27344 82.625 9.35938C82.5677 9.44531 82.4173 9.48828 82.1738 9.48828C81.916 9.48828 81.651 9.40234 81.3789 9.23047C81.1211 9.05859 80.9922 8.82227 80.9922 8.52148ZM85.5898 21.1328C85.3177 21.0326 85.0671 20.9108 84.8379 20.7676C84.623 20.6243 84.5156 20.388 84.5156 20.0586C84.5156 19.9727 84.5371 19.9154 84.5801 19.8867C84.623 19.8581 84.6589 19.8151 84.6875 19.7578C84.7161 19.7148 84.7734 19.6361 84.8594 19.5215C84.9453 19.4069 85.0384 19.2852 85.1387 19.1562C85.2389 19.013 85.332 18.8841 85.418 18.7695C85.5039 18.6406 85.5612 18.5547 85.5898 18.5117C85.5898 18.3255 85.5755 18.1035 85.5469 17.8457C85.5326 17.5736 85.5397 17.3229 85.5684 17.0938C85.6113 16.8503 85.6973 16.6497 85.8262 16.4922C85.9551 16.3203 86.1699 16.2344 86.4707 16.2344C86.6426 16.2344 86.7858 16.2988 86.9004 16.4277C87.015 16.5423 87.1582 16.5996 87.3301 16.5996H87.416C88.0033 16.1413 88.6048 15.7402 89.2207 15.3965C89.8509 15.0384 90.5527 14.8594 91.3262 14.8594C91.8275 14.8594 92.2357 15.0098 92.5508 15.3105C92.8802 15.597 93.0449 16.0052 93.0449 16.5352C93.0449 17.194 92.8945 17.8743 92.5938 18.5762C92.293 19.278 91.9134 19.9655 91.4551 20.6387C91.0111 21.2975 90.5241 21.9206 89.9941 22.5078C89.4785 23.0951 89.0059 23.6035 88.5762 24.0332C88.5332 24.0905 88.4688 24.1549 88.3828 24.2266C88.2969 24.2839 88.2181 24.3483 88.1465 24.4199C88.0605 24.4915 87.9674 24.5775 87.8672 24.6777L87.6953 29.6191C87.6953 29.748 87.6882 29.8841 87.6738 30.0273C87.6738 30.1706 87.6452 30.2995 87.5879 30.4141C87.5449 30.543 87.4733 30.6432 87.373 30.7148C87.2871 30.8008 87.1582 30.8438 86.9863 30.8438C86.9004 30.8438 86.7858 30.8223 86.6426 30.7793C86.4993 30.7507 86.3633 30.7005 86.2344 30.6289C86.1055 30.5573 85.9909 30.4714 85.8906 30.3711C85.8047 30.2708 85.7617 30.1562 85.7617 30.0273L85.5898 21.1328ZM87.5879 22.4863H87.6738C87.6882 22.4863 87.7311 22.4434 87.8027 22.3574C87.8887 22.2715 87.9818 22.1712 88.082 22.0566C88.1966 21.9421 88.304 21.8275 88.4043 21.7129C88.5189 21.584 88.6048 21.4837 88.6621 21.4121C89.0918 21.097 89.4857 20.7031 89.8438 20.2305C90.2018 19.7578 90.4883 19.2852 90.7031 18.8125C90.9323 18.3255 91.0684 17.8887 91.1113 17.502C91.1686 17.1152 91.1042 16.8503 90.918 16.707C90.7461 16.5495 90.4382 16.5638 89.9941 16.75C89.5645 16.9362 88.9772 17.3659 88.2324 18.0391C88.0605 18.1823 87.903 18.347 87.7598 18.5332C87.6165 18.7194 87.5306 18.9271 87.502 19.1562L87.5879 22.4863ZM96.0312 18.7266C95.8307 18.7266 95.6517 18.7767 95.4941 18.877C95.3366 18.9772 95.1504 19.0273 94.9355 19.0273C94.9069 19.0273 94.8281 19.0273 94.6992 19.0273C94.5846 19.013 94.513 19.0059 94.4844 19.0059C94.4271 18.9342 94.3626 18.877 94.291 18.834C94.2194 18.791 94.1478 18.748 94.0762 18.7051C94.0046 18.6478 93.9401 18.5833 93.8828 18.5117C93.8398 18.4401 93.8184 18.3398 93.8184 18.2109C93.8184 17.9961 93.9043 17.8242 94.0762 17.6953C94.248 17.5521 94.4486 17.4303 94.6777 17.3301C94.9069 17.2298 95.1361 17.1367 95.3652 17.0508C95.6087 16.9648 95.8021 16.8646 95.9453 16.75V15.8047C95.9453 14.7448 95.8952 13.6849 95.7949 12.625C95.6947 11.5508 95.6445 10.4909 95.6445 9.44531C95.6445 9.15885 95.7161 8.97266 95.8594 8.88672C96.0026 8.80078 96.196 8.75781 96.4395 8.75781C96.7259 8.75781 96.9336 8.84375 97.0625 9.01562C97.2057 9.17318 97.306 9.3737 97.3633 9.61719C97.4206 9.84635 97.4492 10.097 97.4492 10.3691C97.4492 10.627 97.4564 10.849 97.4707 11.0352C97.4707 11.2214 97.485 11.5508 97.5137 12.0234C97.5423 12.4961 97.571 12.9974 97.5996 13.5273C97.6283 14.0573 97.6569 14.5586 97.6855 15.0312C97.7142 15.5039 97.7357 15.8333 97.75 16.0195C97.8073 16.0052 97.9147 15.9694 98.0723 15.9121C98.2441 15.8405 98.4232 15.776 98.6094 15.7188C98.7956 15.6471 98.9674 15.5827 99.125 15.5254C99.2969 15.4681 99.4186 15.4251 99.4902 15.3965C99.8626 15.2389 100.249 15.0671 100.65 14.8809C101.051 14.6803 101.46 14.5801 101.875 14.5801C102.161 14.5801 102.376 14.6803 102.52 14.8809C102.677 15.0671 102.756 15.2891 102.756 15.5469C102.756 15.7331 102.684 15.8691 102.541 15.9551C102.398 16.041 102.247 16.1198 102.09 16.1914L98.1797 17.6523C98.1367 17.681 98.0938 17.7096 98.0508 17.7383C98.0078 17.7526 97.9648 17.7812 97.9219 17.8242V18.5117C97.9219 19.013 97.929 19.5358 97.9434 20.0801C97.972 20.61 98.0221 21.1257 98.0938 21.627C98.1654 22.0566 98.2441 22.4792 98.3301 22.8945C98.416 23.3099 98.459 23.7324 98.459 24.1621C98.459 24.291 98.416 24.4629 98.3301 24.6777C98.2441 24.8926 98.1081 25 97.9219 25C97.5352 25 97.2201 24.8854 96.9766 24.6562C96.7331 24.4271 96.597 24.1191 96.5684 23.7324C96.4967 22.9876 96.418 22.1712 96.332 21.2832C96.2604 20.3952 96.1888 19.543 96.1172 18.7266H96.0312Z" fill="black"/>
<defs>
<filter id="filter0_i_4585_2520" x="1.95215" y="1.96155" width="116.593" height="33.5385" filterUnits="userSpaceOnUse" color-interpolation-filters="sRGB">
<feFlood flood-opacity="0" result="BackgroundImageFix"/>
<feBlend mode="normal" in="SourceGraphic" in2="BackgroundImageFix" result="shape"/>
<feColorMatrix in="SourceAlpha" type="matrix" values="0 0 0 0 0 0 0 0 0 0 0 0 0 0 0 0 0 0 127 0" result="hardAlpha"/>
<feOffset dx="4" dy="4"/>
<feComposite in2="hardAlpha" operator="arithmetic" k2="-1" k3="1"/>
<feColorMatrix type="matrix" values="0 0 0 0 0.694118 0 0 0 0 0.721569 0 0 0 0 0.741176 0 0 0 1 0"/>
<feBlend mode="multiply" in2="shape" result="effect1_innerShadow_4585_2520"/>
</filter>
</defs>
</svg>
