<svg width="205" height="37" viewBox="0 0 205 37" fill="none" xmlns="http://www.w3.org/2000/svg">
<g filter="url(#filter0_i_4597_1672)">
<path d="M199.022 7.61228C202.541 11.6933 202.541 20.3656 202.541 20.3656C202.731 28.2124 196.276 34.5 188.02 34.5C188.02 31.5523 188.02 2.00081 188.02 2.00081C191.163 1.66061 195.502 3.53121 199.022 7.61228Z" fill="white"/>
<path d="M18.7676 2H188.02V34.5C188.02 34.5 162.914 34.2049 135.174 34.5C119.695 34.6647 87.1965 35.5 75.5713 35.5C43.112 35.5 18.7676 34.5 18.7676 34.5V2Z" fill="white"/>
<path d="M5.14517 27.9432C0.335274 22.3612 1.47845 11.5 5.14549 8C8.81252 4.5 8.60485 4.5 11.9565 3.5C15.3082 2.5 18.7674 2 18.7674 2V34.5C13.1929 34.5 9.95507 33.5252 5.14517 27.9432Z" fill="white"/>
</g>
<path d="M18.7676 34.5C47.4436 34.5 46.465 35 75.1258 35C103.802 35 107.257 34.4063 135.933 34.4063C164.609 34.4063 156.2 34 184.876 34" stroke="black" stroke-width="3" stroke-miterlimit="10" stroke-linecap="round" stroke-linejoin="round"/>
<path d="M2.00244 17.5C2.00244 7 9.6485 2 18.555 2C11.2202 2 2.52635 8 2.52635 17.5C2.52635 31.5 14.5763 34.5 18.2437 34.5C10.385 34.5 2.00244 28 2.00244 17.5Z" stroke="black" stroke-width="3" stroke-linecap="round" stroke-linejoin="round"/>
<path d="M203 19C203 29.5 193.782 34 184.876 34C192.211 34 201.33 30.5 202.165 20.5C203.33 6.54422 192.735 2 186.759 1.99999C194.617 2 203 8.49998 203 19Z" stroke="black" stroke-width="3" stroke-linecap="round" stroke-linejoin="round"/>
<path d="M18.7676 2C47.0479 2 44.1226 2 72.3879 2C100.668 2 100.754 1.5 129.035 1.5C157.315 1.5 158.691 2.00001 186.972 2.00001" stroke="black" stroke-width="3" stroke-miterlimit="10" stroke-linecap="round" stroke-linejoin="round"/>
<path d="M89.8809 21.9707C89.7233 22.2715 89.5299 22.6081 89.3008 22.9805C89.0859 23.3529 88.8281 23.7109 88.5273 24.0547C88.2409 24.3841 87.9258 24.6634 87.582 24.8926C87.2526 25.1217 86.8945 25.2363 86.5078 25.2363C86.0208 25.2363 85.6341 25.0931 85.3477 24.8066C85.0612 24.5202 84.8392 24.1693 84.6816 23.7539C84.5384 23.3242 84.4453 22.8802 84.4023 22.4219C84.3594 21.9492 84.3379 21.5267 84.3379 21.1543V20.5957C84.3522 20.4811 84.3665 20.3092 84.3809 20.0801C84.4095 19.8509 84.4382 19.5931 84.4668 19.3066C84.5098 19.0059 84.5456 18.6979 84.5742 18.3828C84.6029 18.0534 84.6315 17.7454 84.6602 17.459C84.7031 17.1582 84.7318 16.8932 84.7461 16.6641C84.7747 16.4349 84.7962 16.263 84.8105 16.1484C84.7533 16.0052 84.7318 15.862 84.7461 15.7188C84.7747 15.5612 84.8249 15.4251 84.8965 15.3105C84.9824 15.1816 85.0898 15.0814 85.2188 15.0098C85.3477 14.9238 85.4909 14.8809 85.6484 14.8809C85.6914 14.8809 85.763 14.8952 85.8633 14.9238C85.9779 14.9525 86.0924 14.9954 86.207 15.0527C86.3216 15.11 86.4219 15.1745 86.5078 15.2461C86.5938 15.3034 86.6367 15.3607 86.6367 15.418V16.2344C86.4362 17.7812 86.3073 19.013 86.25 19.9297C86.1927 20.8464 86.1712 21.5625 86.1855 22.0781C86.1999 22.5794 86.2428 22.9232 86.3145 23.1094C86.3861 23.2956 86.4577 23.4245 86.5293 23.4961C86.7012 23.5677 86.8659 23.5892 87.0234 23.5605C87.1953 23.5176 87.3958 23.3815 87.625 23.1523C87.8542 22.9232 88.1263 22.5723 88.4414 22.0996C88.7708 21.6126 89.1647 20.9681 89.623 20.166C89.6517 20.123 89.6803 20.0443 89.709 19.9297C89.752 19.8151 89.7806 19.7363 89.7949 19.6934C89.7663 18.748 89.7591 17.7956 89.7734 16.8359C89.8021 15.8763 89.8379 14.9238 89.8809 13.9785C89.9382 13.8353 90.0312 13.7207 90.1602 13.6348C90.2891 13.5488 90.4251 13.5059 90.5684 13.5059C90.6257 13.5059 90.7116 13.5273 90.8262 13.5703C90.9408 13.6133 91.0553 13.6777 91.1699 13.7637C91.2845 13.8353 91.3848 13.9141 91.4707 14C91.5566 14.0859 91.5996 14.1719 91.5996 14.2578V20.5957C91.6999 21.2402 91.7786 21.8919 91.8359 22.5508C91.8932 23.1953 91.972 23.8398 92.0723 24.4844C92.0723 24.556 92.0866 24.7064 92.1152 24.9355C92.1582 25.1504 92.2012 25.3867 92.2441 25.6445C92.2871 25.9023 92.3229 26.1387 92.3516 26.3535C92.3945 26.5684 92.4232 26.7044 92.4375 26.7617V27.0195C92.4375 27.5352 92.1582 27.8145 91.5996 27.8574C91.3561 27.8861 91.1484 27.7786 90.9766 27.5352C90.819 27.306 90.6901 26.998 90.5898 26.6113C90.4896 26.2389 90.4036 25.8164 90.332 25.3438C90.2747 24.8711 90.2246 24.4128 90.1816 23.9688C90.1387 23.5247 90.0957 23.1237 90.0527 22.7656C90.0098 22.3932 89.9525 22.1283 89.8809 21.9707ZM93.0605 12.8398C93.1751 12.6823 93.2754 12.582 93.3613 12.5391C93.4616 12.4818 93.5977 12.4531 93.7695 12.4531C93.9987 12.4531 94.2135 12.5176 94.4141 12.6465C94.6289 12.7754 94.7507 12.9616 94.7793 13.2051C94.8366 13.6061 94.8652 14.0143 94.8652 14.4297C94.8796 14.8307 94.8796 15.2389 94.8652 15.6543C94.8652 16.0553 94.8581 16.4635 94.8438 16.8789C94.8438 17.2799 94.8581 17.681 94.8867 18.082C94.944 19.056 95.0299 20.0658 95.1445 21.1113C95.2734 22.1569 95.3379 23.1667 95.3379 24.1406C95.3379 24.4271 95.2806 24.6419 95.166 24.7852C95.0514 24.9284 94.8294 25 94.5 25C94.2279 25 94.0202 24.9069 93.877 24.7207C93.7337 24.5345 93.6263 24.3125 93.5547 24.0547C93.4974 23.7969 93.4616 23.5391 93.4473 23.2812C93.4329 23.0091 93.4258 22.7943 93.4258 22.6367C93.4258 22.5221 93.4115 22.2858 93.3828 21.9277C93.3685 21.5553 93.347 21.1257 93.3184 20.6387C93.304 20.1374 93.2826 19.6146 93.2539 19.0703C93.2253 18.5117 93.1966 17.9889 93.168 17.502C93.1393 17.0007 93.1107 16.571 93.082 16.2129C93.0677 15.8405 93.0605 15.597 93.0605 15.4824V14.1504V12.8398ZM96.3047 25.623C96.3763 24.9355 96.4694 24.291 96.584 23.6895C96.6986 23.0736 96.8203 22.4219 96.9492 21.7344V21.5625L100.021 5.68555C100.064 5.44206 100.143 5.27734 100.258 5.19141C100.372 5.09115 100.551 5.04102 100.795 5.04102H100.838C101.11 5.18424 101.282 5.30599 101.354 5.40625C101.439 5.49219 101.482 5.67839 101.482 5.96484C101.482 6.13672 101.461 6.31576 101.418 6.50195C101.375 6.68815 101.339 6.86719 101.311 7.03906C101.296 7.08203 101.268 7.18229 101.225 7.33984C101.196 7.4974 101.16 7.66927 101.117 7.85547C101.074 8.04167 101.031 8.21354 100.988 8.37109C100.96 8.52865 100.938 8.62891 100.924 8.67188V8.75781L98.4961 20.918C98.3672 21.7344 98.224 22.5508 98.0664 23.3672C97.9232 24.1693 97.7943 24.9785 97.6797 25.7949C97.6367 25.9668 97.5436 26.0885 97.4004 26.1602C97.2715 26.2461 97.1283 26.2891 96.9707 26.2891C96.8132 26.2891 96.6628 26.2318 96.5195 26.1172C96.3763 26.0169 96.3047 25.8737 96.3047 25.6875V25.623ZM107.971 21.9707C107.813 22.2715 107.62 22.6081 107.391 22.9805C107.176 23.3529 106.918 23.7109 106.617 24.0547C106.331 24.3841 106.016 24.6634 105.672 24.8926C105.342 25.1217 104.984 25.2363 104.598 25.2363C104.111 25.2363 103.724 25.0931 103.438 24.8066C103.151 24.5202 102.929 24.1693 102.771 23.7539C102.628 23.3242 102.535 22.8802 102.492 22.4219C102.449 21.9492 102.428 21.5267 102.428 21.1543V20.5957C102.442 20.4811 102.456 20.3092 102.471 20.0801C102.499 19.8509 102.528 19.5931 102.557 19.3066C102.6 19.0059 102.635 18.6979 102.664 18.3828C102.693 18.0534 102.721 17.7454 102.75 17.459C102.793 17.1582 102.822 16.8932 102.836 16.6641C102.865 16.4349 102.886 16.263 102.9 16.1484C102.843 16.0052 102.822 15.862 102.836 15.7188C102.865 15.5612 102.915 15.4251 102.986 15.3105C103.072 15.1816 103.18 15.0814 103.309 15.0098C103.438 14.9238 103.581 14.8809 103.738 14.8809C103.781 14.8809 103.853 14.8952 103.953 14.9238C104.068 14.9525 104.182 14.9954 104.297 15.0527C104.411 15.11 104.512 15.1745 104.598 15.2461C104.684 15.3034 104.727 15.3607 104.727 15.418V16.2344C104.526 17.7812 104.397 19.013 104.34 19.9297C104.283 20.8464 104.261 21.5625 104.275 22.0781C104.29 22.5794 104.333 22.9232 104.404 23.1094C104.476 23.2956 104.548 23.4245 104.619 23.4961C104.791 23.5677 104.956 23.5892 105.113 23.5605C105.285 23.5176 105.486 23.3815 105.715 23.1523C105.944 22.9232 106.216 22.5723 106.531 22.0996C106.861 21.6126 107.255 20.9681 107.713 20.166C107.742 20.123 107.77 20.0443 107.799 19.9297C107.842 19.8151 107.87 19.7363 107.885 19.6934C107.856 18.748 107.849 17.7956 107.863 16.8359C107.892 15.8763 107.928 14.9238 107.971 13.9785C108.028 13.8353 108.121 13.7207 108.25 13.6348C108.379 13.5488 108.515 13.5059 108.658 13.5059C108.715 13.5059 108.801 13.5273 108.916 13.5703C109.031 13.6133 109.145 13.6777 109.26 13.7637C109.374 13.8353 109.475 13.9141 109.561 14C109.646 14.0859 109.689 14.1719 109.689 14.2578V20.5957C109.79 21.2402 109.868 21.8919 109.926 22.5508C109.983 23.1953 110.062 23.8398 110.162 24.4844C110.162 24.556 110.176 24.7064 110.205 24.9355C110.248 25.1504 110.291 25.3867 110.334 25.6445C110.377 25.9023 110.413 26.1387 110.441 26.3535C110.484 26.5684 110.513 26.7044 110.527 26.7617V27.0195C110.527 27.5352 110.248 27.8145 109.689 27.8574C109.446 27.8861 109.238 27.7786 109.066 27.5352C108.909 27.306 108.78 26.998 108.68 26.6113C108.579 26.2389 108.493 25.8164 108.422 25.3438C108.365 24.8711 108.314 24.4128 108.271 23.9688C108.229 23.5247 108.186 23.1237 108.143 22.7656C108.1 22.3932 108.042 22.1283 107.971 21.9707ZM115.018 21.3691C115.003 21.3978 114.96 21.4766 114.889 21.6055C114.817 21.7201 114.767 21.7988 114.738 21.8418C114.624 21.9993 114.516 22.2357 114.416 22.5508C114.33 22.8659 114.223 23.181 114.094 23.4961C113.965 23.7969 113.814 24.069 113.643 24.3125C113.471 24.5417 113.263 24.6562 113.02 24.6562C112.934 24.6562 112.826 24.6419 112.697 24.6133C112.583 24.5703 112.475 24.5202 112.375 24.4629C112.275 24.3913 112.189 24.3125 112.117 24.2266C112.046 24.1263 112.01 24.026 112.01 23.9258C112.01 23.7253 112.053 23.5534 112.139 23.4102C112.239 23.2669 112.289 23.1022 112.289 22.916L113.643 20.123C113.657 20.0944 113.671 20.0443 113.686 19.9727C113.714 19.901 113.736 19.8509 113.75 19.8223V19.7578V19.7363C113.464 19.3353 113.177 18.9128 112.891 18.4688C112.618 18.0104 112.368 17.5879 112.139 17.2012C111.91 16.8145 111.709 16.4779 111.537 16.1914C111.38 15.8906 111.272 15.6829 111.215 15.5684C111.1 15.4251 111.043 15.2747 111.043 15.1172C111.043 14.9596 111.079 14.8236 111.15 14.709C111.236 14.5801 111.351 14.4798 111.494 14.4082C111.637 14.3223 111.795 14.2793 111.967 14.2793C112.21 14.2793 112.404 14.3223 112.547 14.4082C112.69 14.4941 112.812 14.6374 112.912 14.8379C113.156 15.3535 113.399 15.8477 113.643 16.3203C113.886 16.793 114.165 17.2656 114.48 17.7383H114.502C114.588 17.638 114.667 17.4876 114.738 17.2871C114.824 17.0866 114.91 16.793 114.996 16.4062C115.096 16.0195 115.218 15.5254 115.361 14.9238C115.505 14.3223 115.691 13.5703 115.92 12.668C115.949 12.5391 116.035 12.4173 116.178 12.3027C116.335 12.1738 116.471 12.1094 116.586 12.1094H116.672C116.872 12.1523 117.03 12.1882 117.145 12.2168C117.259 12.2311 117.345 12.2669 117.402 12.3242C117.46 12.3672 117.495 12.446 117.51 12.5605C117.538 12.6751 117.56 12.8398 117.574 13.0547C117.56 13.2695 117.51 13.556 117.424 13.9141C117.352 14.2721 117.259 14.666 117.145 15.0957C117.044 15.5254 116.93 15.9694 116.801 16.4277C116.672 16.8861 116.543 17.3158 116.414 17.7168C116.285 18.1035 116.171 18.4473 116.07 18.748C115.97 19.0488 115.891 19.2565 115.834 19.3711V19.5645L120.002 23.7324C120.088 23.8184 120.138 23.9043 120.152 23.9902C120.181 24.0618 120.195 24.1478 120.195 24.248C120.195 24.4772 120.124 24.6634 119.98 24.8066C119.852 24.9355 119.68 25 119.465 25C119.264 25 119.049 24.9499 118.82 24.8496C118.605 24.735 118.419 24.599 118.262 24.4414L115.189 21.3691H115.018Z" fill="black"/>
<defs>
<filter id="filter0_i_4597_1672" x="1.95215" y="1.96155" width="200.593" height="33.5385" filterUnits="userSpaceOnUse" color-interpolation-filters="sRGB">
<feFlood flood-opacity="0" result="BackgroundImageFix"/>
<feBlend mode="normal" in="SourceGraphic" in2="BackgroundImageFix" result="shape"/>
<feColorMatrix in="SourceAlpha" type="matrix" values="0 0 0 0 0 0 0 0 0 0 0 0 0 0 0 0 0 0 127 0" result="hardAlpha"/>
<feOffset dx="4" dy="4"/>
<feComposite in2="hardAlpha" operator="arithmetic" k2="-1" k3="1"/>
<feColorMatrix type="matrix" values="0 0 0 0 0.694118 0 0 0 0 0.721569 0 0 0 0 0.741176 0 0 0 1 0"/>
<feBlend mode="multiply" in2="shape" result="effect1_innerShadow_4597_1672"/>
</filter>
</defs>
</svg>
