<svg width="204" height="37" viewBox="0 0 204 37" fill="none" xmlns="http://www.w3.org/2000/svg">
<g filter="url(#filter0_i_4598_1947)">
<path d="M198.022 7.61228C201.541 11.6933 201.541 20.3656 201.541 20.3656C201.731 28.2124 195.276 34.5 187.02 34.5C187.02 31.5523 187.02 2.00081 187.02 2.00081C190.163 1.66061 194.502 3.53121 198.022 7.61228Z" fill="#FEDDC6"/>
<path d="M18.7676 2H187.02V34.5C187.02 34.5 162.062 34.2049 134.486 34.5C119.099 34.6647 86.7922 35.5 75.2357 35.5C42.9682 35.5 18.7676 34.5 18.7676 34.5V2Z" fill="#FEDDC6"/>
<path d="M5.14517 27.9432C0.335274 22.3612 1.47845 11.5 5.14549 8C8.81252 4.5 8.60485 4.5 11.9565 3.5C15.3082 2.5 18.7674 2 18.7674 2V34.5C13.1929 34.5 9.95507 33.5252 5.14517 27.9432Z" fill="#FEDDC6"/>
</g>
<path d="M18.7676 34.5C47.271 34.5 46.2982 35 74.7865 35C103.29 35 106.725 34.4063 135.228 34.4063C163.731 34.4063 155.373 34 183.876 34" stroke="black" stroke-width="3" stroke-miterlimit="10" stroke-linecap="round" stroke-linejoin="round"/>
<path d="M2.00244 17.5C2.00244 7 9.6485 2 18.555 2C11.2202 2 2.52635 8 2.52635 17.5C2.52635 31.5 14.5763 34.5 18.2437 34.5C10.385 34.5 2.00244 28 2.00244 17.5Z" stroke="black" stroke-width="3" stroke-linecap="round" stroke-linejoin="round"/>
<path d="M202 19C202 29.5 192.782 34 183.876 34C191.211 34 200.33 30.5 201.165 20.5C202.33 6.54422 191.735 2 185.759 1.99999C193.617 2 202 8.49998 202 19Z" stroke="black" stroke-width="3" stroke-linecap="round" stroke-linejoin="round"/>
<path d="M18.7676 2C46.8797 2 43.9718 2 72.0691 2C100.181 2 100.267 1.5 128.379 1.5C156.491 1.5 157.86 2.00001 185.972 2.00001" stroke="black" stroke-width="3" stroke-miterlimit="10" stroke-linecap="round" stroke-linejoin="round"/>
<path d="M89.3809 21.9707C89.2233 22.2715 89.0299 22.6081 88.8008 22.9805C88.5859 23.3529 88.3281 23.7109 88.0273 24.0547C87.7409 24.3841 87.4258 24.6634 87.082 24.8926C86.7526 25.1217 86.3945 25.2363 86.0078 25.2363C85.5208 25.2363 85.1341 25.0931 84.8477 24.8066C84.5612 24.5202 84.3392 24.1693 84.1816 23.7539C84.0384 23.3242 83.9453 22.8802 83.9023 22.4219C83.8594 21.9492 83.8379 21.5267 83.8379 21.1543V20.5957C83.8522 20.4811 83.8665 20.3092 83.8809 20.0801C83.9095 19.8509 83.9382 19.5931 83.9668 19.3066C84.0098 19.0059 84.0456 18.6979 84.0742 18.3828C84.1029 18.0534 84.1315 17.7454 84.1602 17.459C84.2031 17.1582 84.2318 16.8932 84.2461 16.6641C84.2747 16.4349 84.2962 16.263 84.3105 16.1484C84.2533 16.0052 84.2318 15.862 84.2461 15.7188C84.2747 15.5612 84.3249 15.4251 84.3965 15.3105C84.4824 15.1816 84.5898 15.0814 84.7188 15.0098C84.8477 14.9238 84.9909 14.8809 85.1484 14.8809C85.1914 14.8809 85.263 14.8952 85.3633 14.9238C85.4779 14.9525 85.5924 14.9954 85.707 15.0527C85.8216 15.11 85.9219 15.1745 86.0078 15.2461C86.0938 15.3034 86.1367 15.3607 86.1367 15.418V16.2344C85.9362 17.7812 85.8073 19.013 85.75 19.9297C85.6927 20.8464 85.6712 21.5625 85.6855 22.0781C85.6999 22.5794 85.7428 22.9232 85.8145 23.1094C85.8861 23.2956 85.9577 23.4245 86.0293 23.4961C86.2012 23.5677 86.3659 23.5892 86.5234 23.5605C86.6953 23.5176 86.8958 23.3815 87.125 23.1523C87.3542 22.9232 87.6263 22.5723 87.9414 22.0996C88.2708 21.6126 88.6647 20.9681 89.123 20.166C89.1517 20.123 89.1803 20.0443 89.209 19.9297C89.252 19.8151 89.2806 19.7363 89.2949 19.6934C89.2663 18.748 89.2591 17.7956 89.2734 16.8359C89.3021 15.8763 89.3379 14.9238 89.3809 13.9785C89.4382 13.8353 89.5312 13.7207 89.6602 13.6348C89.7891 13.5488 89.9251 13.5059 90.0684 13.5059C90.1257 13.5059 90.2116 13.5273 90.3262 13.5703C90.4408 13.6133 90.5553 13.6777 90.6699 13.7637C90.7845 13.8353 90.8848 13.9141 90.9707 14C91.0566 14.0859 91.0996 14.1719 91.0996 14.2578V20.5957C91.1999 21.2402 91.2786 21.8919 91.3359 22.5508C91.3932 23.1953 91.472 23.8398 91.5723 24.4844C91.5723 24.556 91.5866 24.7064 91.6152 24.9355C91.6582 25.1504 91.7012 25.3867 91.7441 25.6445C91.7871 25.9023 91.8229 26.1387 91.8516 26.3535C91.8945 26.5684 91.9232 26.7044 91.9375 26.7617V27.0195C91.9375 27.5352 91.6582 27.8145 91.0996 27.8574C90.8561 27.8861 90.6484 27.7786 90.4766 27.5352C90.319 27.306 90.1901 26.998 90.0898 26.6113C89.9896 26.2389 89.9036 25.8164 89.832 25.3438C89.7747 24.8711 89.7246 24.4128 89.6816 23.9688C89.6387 23.5247 89.5957 23.1237 89.5527 22.7656C89.5098 22.3932 89.4525 22.1283 89.3809 21.9707ZM92.5605 12.8398C92.6751 12.6823 92.7754 12.582 92.8613 12.5391C92.9616 12.4818 93.0977 12.4531 93.2695 12.4531C93.4987 12.4531 93.7135 12.5176 93.9141 12.6465C94.1289 12.7754 94.2507 12.9616 94.2793 13.2051C94.3366 13.6061 94.3652 14.0143 94.3652 14.4297C94.3796 14.8307 94.3796 15.2389 94.3652 15.6543C94.3652 16.0553 94.3581 16.4635 94.3438 16.8789C94.3438 17.2799 94.3581 17.681 94.3867 18.082C94.444 19.056 94.5299 20.0658 94.6445 21.1113C94.7734 22.1569 94.8379 23.1667 94.8379 24.1406C94.8379 24.4271 94.7806 24.6419 94.666 24.7852C94.5514 24.9284 94.3294 25 94 25C93.7279 25 93.5202 24.9069 93.377 24.7207C93.2337 24.5345 93.1263 24.3125 93.0547 24.0547C92.9974 23.7969 92.9616 23.5391 92.9473 23.2812C92.9329 23.0091 92.9258 22.7943 92.9258 22.6367C92.9258 22.5221 92.9115 22.2858 92.8828 21.9277C92.8685 21.5553 92.847 21.1257 92.8184 20.6387C92.804 20.1374 92.7826 19.6146 92.7539 19.0703C92.7253 18.5117 92.6966 17.9889 92.668 17.502C92.6393 17.0007 92.6107 16.571 92.582 16.2129C92.5677 15.8405 92.5605 15.597 92.5605 15.4824V14.1504V12.8398ZM95.8047 25.623C95.8763 24.9355 95.9694 24.291 96.084 23.6895C96.1986 23.0736 96.3203 22.4219 96.4492 21.7344V21.5625L99.5215 5.68555C99.5645 5.44206 99.6432 5.27734 99.7578 5.19141C99.8724 5.09115 100.051 5.04102 100.295 5.04102H100.338C100.61 5.18424 100.782 5.30599 100.854 5.40625C100.939 5.49219 100.982 5.67839 100.982 5.96484C100.982 6.13672 100.961 6.31576 100.918 6.50195C100.875 6.68815 100.839 6.86719 100.811 7.03906C100.796 7.08203 100.768 7.18229 100.725 7.33984C100.696 7.4974 100.66 7.66927 100.617 7.85547C100.574 8.04167 100.531 8.21354 100.488 8.37109C100.46 8.52865 100.438 8.62891 100.424 8.67188V8.75781L97.9961 20.918C97.8672 21.7344 97.724 22.5508 97.5664 23.3672C97.4232 24.1693 97.2943 24.9785 97.1797 25.7949C97.1367 25.9668 97.0436 26.0885 96.9004 26.1602C96.7715 26.2461 96.6283 26.2891 96.4707 26.2891C96.3132 26.2891 96.1628 26.2318 96.0195 26.1172C95.8763 26.0169 95.8047 25.8737 95.8047 25.6875V25.623ZM107.471 21.9707C107.313 22.2715 107.12 22.6081 106.891 22.9805C106.676 23.3529 106.418 23.7109 106.117 24.0547C105.831 24.3841 105.516 24.6634 105.172 24.8926C104.842 25.1217 104.484 25.2363 104.098 25.2363C103.611 25.2363 103.224 25.0931 102.938 24.8066C102.651 24.5202 102.429 24.1693 102.271 23.7539C102.128 23.3242 102.035 22.8802 101.992 22.4219C101.949 21.9492 101.928 21.5267 101.928 21.1543V20.5957C101.942 20.4811 101.956 20.3092 101.971 20.0801C101.999 19.8509 102.028 19.5931 102.057 19.3066C102.1 19.0059 102.135 18.6979 102.164 18.3828C102.193 18.0534 102.221 17.7454 102.25 17.459C102.293 17.1582 102.322 16.8932 102.336 16.6641C102.365 16.4349 102.386 16.263 102.4 16.1484C102.343 16.0052 102.322 15.862 102.336 15.7188C102.365 15.5612 102.415 15.4251 102.486 15.3105C102.572 15.1816 102.68 15.0814 102.809 15.0098C102.938 14.9238 103.081 14.8809 103.238 14.8809C103.281 14.8809 103.353 14.8952 103.453 14.9238C103.568 14.9525 103.682 14.9954 103.797 15.0527C103.911 15.11 104.012 15.1745 104.098 15.2461C104.184 15.3034 104.227 15.3607 104.227 15.418V16.2344C104.026 17.7812 103.897 19.013 103.84 19.9297C103.783 20.8464 103.761 21.5625 103.775 22.0781C103.79 22.5794 103.833 22.9232 103.904 23.1094C103.976 23.2956 104.048 23.4245 104.119 23.4961C104.291 23.5677 104.456 23.5892 104.613 23.5605C104.785 23.5176 104.986 23.3815 105.215 23.1523C105.444 22.9232 105.716 22.5723 106.031 22.0996C106.361 21.6126 106.755 20.9681 107.213 20.166C107.242 20.123 107.27 20.0443 107.299 19.9297C107.342 19.8151 107.37 19.7363 107.385 19.6934C107.356 18.748 107.349 17.7956 107.363 16.8359C107.392 15.8763 107.428 14.9238 107.471 13.9785C107.528 13.8353 107.621 13.7207 107.75 13.6348C107.879 13.5488 108.015 13.5059 108.158 13.5059C108.215 13.5059 108.301 13.5273 108.416 13.5703C108.531 13.6133 108.645 13.6777 108.76 13.7637C108.874 13.8353 108.975 13.9141 109.061 14C109.146 14.0859 109.189 14.1719 109.189 14.2578V20.5957C109.29 21.2402 109.368 21.8919 109.426 22.5508C109.483 23.1953 109.562 23.8398 109.662 24.4844C109.662 24.556 109.676 24.7064 109.705 24.9355C109.748 25.1504 109.791 25.3867 109.834 25.6445C109.877 25.9023 109.913 26.1387 109.941 26.3535C109.984 26.5684 110.013 26.7044 110.027 26.7617V27.0195C110.027 27.5352 109.748 27.8145 109.189 27.8574C108.946 27.8861 108.738 27.7786 108.566 27.5352C108.409 27.306 108.28 26.998 108.18 26.6113C108.079 26.2389 107.993 25.8164 107.922 25.3438C107.865 24.8711 107.814 24.4128 107.771 23.9688C107.729 23.5247 107.686 23.1237 107.643 22.7656C107.6 22.3932 107.542 22.1283 107.471 21.9707ZM114.518 21.3691C114.503 21.3978 114.46 21.4766 114.389 21.6055C114.317 21.7201 114.267 21.7988 114.238 21.8418C114.124 21.9993 114.016 22.2357 113.916 22.5508C113.83 22.8659 113.723 23.181 113.594 23.4961C113.465 23.7969 113.314 24.069 113.143 24.3125C112.971 24.5417 112.763 24.6562 112.52 24.6562C112.434 24.6562 112.326 24.6419 112.197 24.6133C112.083 24.5703 111.975 24.5202 111.875 24.4629C111.775 24.3913 111.689 24.3125 111.617 24.2266C111.546 24.1263 111.51 24.026 111.51 23.9258C111.51 23.7253 111.553 23.5534 111.639 23.4102C111.739 23.2669 111.789 23.1022 111.789 22.916L113.143 20.123C113.157 20.0944 113.171 20.0443 113.186 19.9727C113.214 19.901 113.236 19.8509 113.25 19.8223V19.7578V19.7363C112.964 19.3353 112.677 18.9128 112.391 18.4688C112.118 18.0104 111.868 17.5879 111.639 17.2012C111.41 16.8145 111.209 16.4779 111.037 16.1914C110.88 15.8906 110.772 15.6829 110.715 15.5684C110.6 15.4251 110.543 15.2747 110.543 15.1172C110.543 14.9596 110.579 14.8236 110.65 14.709C110.736 14.5801 110.851 14.4798 110.994 14.4082C111.137 14.3223 111.295 14.2793 111.467 14.2793C111.71 14.2793 111.904 14.3223 112.047 14.4082C112.19 14.4941 112.312 14.6374 112.412 14.8379C112.656 15.3535 112.899 15.8477 113.143 16.3203C113.386 16.793 113.665 17.2656 113.98 17.7383H114.002C114.088 17.638 114.167 17.4876 114.238 17.2871C114.324 17.0866 114.41 16.793 114.496 16.4062C114.596 16.0195 114.718 15.5254 114.861 14.9238C115.005 14.3223 115.191 13.5703 115.42 12.668C115.449 12.5391 115.535 12.4173 115.678 12.3027C115.835 12.1738 115.971 12.1094 116.086 12.1094H116.172C116.372 12.1523 116.53 12.1882 116.645 12.2168C116.759 12.2311 116.845 12.2669 116.902 12.3242C116.96 12.3672 116.995 12.446 117.01 12.5605C117.038 12.6751 117.06 12.8398 117.074 13.0547C117.06 13.2695 117.01 13.556 116.924 13.9141C116.852 14.2721 116.759 14.666 116.645 15.0957C116.544 15.5254 116.43 15.9694 116.301 16.4277C116.172 16.8861 116.043 17.3158 115.914 17.7168C115.785 18.1035 115.671 18.4473 115.57 18.748C115.47 19.0488 115.391 19.2565 115.334 19.3711V19.5645L119.502 23.7324C119.588 23.8184 119.638 23.9043 119.652 23.9902C119.681 24.0618 119.695 24.1478 119.695 24.248C119.695 24.4772 119.624 24.6634 119.48 24.8066C119.352 24.9355 119.18 25 118.965 25C118.764 25 118.549 24.9499 118.32 24.8496C118.105 24.735 117.919 24.599 117.762 24.4414L114.689 21.3691H114.518Z" fill="black"/>
<defs>
<filter id="filter0_i_4598_1947" x="1.95215" y="1.96155" width="199.593" height="33.5385" filterUnits="userSpaceOnUse" color-interpolation-filters="sRGB">
<feFlood flood-opacity="0" result="BackgroundImageFix"/>
<feBlend mode="normal" in="SourceGraphic" in2="BackgroundImageFix" result="shape"/>
<feColorMatrix in="SourceAlpha" type="matrix" values="0 0 0 0 0 0 0 0 0 0 0 0 0 0 0 0 0 0 127 0" result="hardAlpha"/>
<feOffset dx="4" dy="4"/>
<feComposite in2="hardAlpha" operator="arithmetic" k2="-1" k3="1"/>
<feColorMatrix type="matrix" values="0 0 0 0 0.694118 0 0 0 0 0.721569 0 0 0 0 0.741176 0 0 0 1 0"/>
<feBlend mode="multiply" in2="shape" result="effect1_innerShadow_4598_1947"/>
</filter>
</defs>
</svg>
